  0
SECTION
  2
HEADER
  9
$EXTMIN
 10
25.374600
 20
23.190200
  9
$EXTMAX
 10
97.459800
 20
99.542600
  9
$LIMMIN
 10
25.374600
 20
23.190200
  9
$LIMMAX
 10
97.459800
 20
99.542600
  9
$FILLMODE
 70
  1
  0
ENDSEC
  0
SECTION
  2
TABLES
  0
TABLE
  2
LTYPE
 70
  1
  0
LTYPE
  2
CONTINUOUS
 70
 64
  3
Solid line
 72
 65
 73
  0
 40
0.0
  0
ENDTAB
  0
TABLE
  2
LAYER
 70
 1
  0
LAYER
  2
0
 70
  0
 62
7
  6
CONTINUOUS
  0
LAYER
  2
gbr
 70
  0
 62
8
  6
CONTINUOUS
  0
LAYER
  2
gbr
 70
  0
 62
1
  6
CONTINUOUS
  0
LAYER
  2
gbr
 70
  0
 62
1
  6
CONTINUOUS
  0
ENDTAB
  0
TABLE
  2
STYLE
 70
  1
  0
STYLE
  2
STANDARD
 70
  0
 40
0.0
 41
1.0
 50
0.0
 71
  0
 42
0.2
  3
txt
  4

  0
ENDTAB
  0
ENDSEC
  0
SECTION
  2
BLOCKS
  0
BLOCK
  8
0
  2
D10
 70
64
 10
0.0
 20
0.0
  3
D10
  0
POLYLINE
  8
0
 66
1
 10
0.0
 20
0.0
 40
0
 41
0
 70
1
  0
VERTEX
  8
0
 10
0.347980
 20
0.124460
 42
0
  0
VERTEX
  8
0
 10
-0.347980
 20
0.124460
 42
0
  0
VERTEX
  8
0
 10
-0.347980
 20
-0.124460
 42
0
  0
VERTEX
  8
0
 10
0.347980
 20
-0.124460
 42
0
  0
SEQEND
  8
0
  0
CIRCLE
  8
0
 10
-0.347980
 20
0.000000
 40
0.125000
  0
CIRCLE
  8
0
 10
0.347980
 20
0.000000
 40
0.125000
 0
ENDBLK
  8
0
  0
BLOCK
  8
0
  2
D11
 70
64
 10
0.0
 20
0.0
  3
D11
  0
POLYLINE
  8
0
 66
1
 10
0.0
 20
0.0
 40
0
 41
0
 70
1
  0
VERTEX
  8
0
 10
0.124460
 20
0.347980
 42
0
  0
VERTEX
  8
0
 10
-0.124460
 20
0.347980
 42
0
  0
VERTEX
  8
0
 10
-0.124460
 20
-0.347980
 42
0
  0
VERTEX
  8
0
 10
0.124460
 20
-0.347980
 42
0
  0
SEQEND
  8
0
  0
CIRCLE
  8
0
 10
0.000000
 20
0.347980
 40
0.125000
  0
CIRCLE
  8
0
 10
0.000000
 20
-0.347980
 40
0.125000
 0
ENDBLK
  8
0
  0
BLOCK
  8
0
  2
D12
 70
64
 10
0.0
 20
0.0
  3
D12
  0
POLYLINE
  8
0
 66
1
 10
0.0
 20
0.0
 40
0
 41
0
 70
1
  0
VERTEX
  8
0
 10
1.724660
 20
1.724660
 42
0
  0
VERTEX
  8
0
 10
-1.724660
 20
1.724660
 42
0
  0
VERTEX
  8
0
 10
-1.724660
 20
-1.724660
 42
0
  0
VERTEX
  8
0
 10
1.724660
 20
-1.724660
 42
0
  0
SEQEND
  8
0
 0
ENDBLK
  8
0
  0
BLOCK
  8
0
  2
D13
 70
64
 10
0.0
 20
0.0
  3
D13
  0
POLYLINE
  8
0
 66
1
 10
0.0
 20
0.0
 40
0
 41
0
 70
1
  0
VERTEX
  8
0
 10
1.963420
 20
1.074420
 42
0
  0
VERTEX
  8
0
 10
-1.963420
 20
1.074420
 42
0
  0
VERTEX
  8
0
 10
-2.499360
 20
0.538480
 42
0
  0
VERTEX
  8
0
 10
-2.499360
 20
-0.538480
 42
0
  0
VERTEX
  8
0
 10
-1.963420
 20
-1.074420
 42
0
  0
VERTEX
  8
0
 10
1.963420
 20
-1.074420
 42
0
  0
VERTEX
  8
0
 10
2.499360
 20
-0.538480
 42
0
  0
VERTEX
  8
0
 10
2.499360
 20
0.538480
 42
0
  0
SEQEND
  8
0
  0
CIRCLE
  8
0
 10
1.963420
 20
0.538480
 40
0.537500
  0
CIRCLE
  8
0
 10
-1.963420
 20
0.538480
 40
0.537500
  0
CIRCLE
  8
0
 10
-1.963420
 20
-0.538480
 40
0.537500
  0
CIRCLE
  8
0
 10
1.963420
 20
-0.538480
 40
0.537500
 0
ENDBLK
  8
0
  0
BLOCK
  8
0
  2
D14
 70
64
 10
0.0
 20
0.0
  3
D14
  0
POLYLINE
  8
0
 66
1
 10
0.0
 20
0.0
 40
0
 41
0
 70
1
  0
VERTEX
  8
0
 10
0.424180
 20
0.299720
 42
0
  0
VERTEX
  8
0
 10
-0.424180
 20
0.299720
 42
0
  0
VERTEX
  8
0
 10
-0.424180
 20
-0.299720
 42
0
  0
VERTEX
  8
0
 10
0.424180
 20
-0.299720
 42
0
  0
SEQEND
  8
0
  0
CIRCLE
  8
0
 10
-0.424180
 20
0.000000
 40
0.299999
  0
CIRCLE
  8
0
 10
0.424180
 20
0.000000
 40
0.299999
 0
ENDBLK
  8
0
  0
BLOCK
  8
0
  2
D15
 70
64
 10
0.0
 20
0.0
  3
D15
  0
POLYLINE
  8
0
 66
1
 10
0.0
 20
0.0
 40
0
 41
0
 70
1
  0
VERTEX
  8
0
 10
0.548640
 20
0.149860
 42
0
  0
VERTEX
  8
0
 10
-0.548640
 20
0.149860
 42
0
  0
VERTEX
  8
0
 10
-0.548640
 20
-0.149860
 42
0
  0
VERTEX
  8
0
 10
0.548640
 20
-0.149860
 42
0
  0
SEQEND
  8
0
  0
CIRCLE
  8
0
 10
-0.548640
 20
0.000000
 40
0.150000
  0
CIRCLE
  8
0
 10
0.548640
 20
0.000000
 40
0.150000
 0
ENDBLK
  8
0
  0
BLOCK
  8
0
  2
D16
 70
64
 10
0.0
 20
0.0
  3
D16
  0
POLYLINE
  8
0
 66
1
 10
0.0
 20
0.0
 40
0
 41
0
 70
1
  0
VERTEX
  8
0
 10
0.149860
 20
0.548640
 42
0
  0
VERTEX
  8
0
 10
-0.149860
 20
0.548640
 42
0
  0
VERTEX
  8
0
 10
-0.149860
 20
-0.548640
 42
0
  0
VERTEX
  8
0
 10
0.149860
 20
-0.548640
 42
0
  0
SEQEND
  8
0
  0
CIRCLE
  8
0
 10
0.000000
 20
0.548640
 40
0.150000
  0
CIRCLE
  8
0
 10
0.000000
 20
-0.548640
 40
0.150000
 0
ENDBLK
  8
0
  0
BLOCK
  8
0
  2
D17
 70
64
 10
0.0
 20
0.0
  3
D17
  0
POLYLINE
  8
0
 66
1
 10
0.0
 20
0.0
 40
0
 41
0
 70
1
  0
VERTEX
  8
0
 10
1.673860
 20
0.822960
 42
0
  0
VERTEX
  8
0
 10
-1.673860
 20
0.822960
 42
0
  0
VERTEX
  8
0
 10
-1.673860
 20
-0.822960
 42
0
  0
VERTEX
  8
0
 10
1.673860
 20
-0.822960
 42
0
  0
SEQEND
  8
0
 0
ENDBLK
  8
0
  0
BLOCK
  8
0
  2
D18
 70
64
 10
0.0
 20
0.0
  3
D18
  0
POLYLINE
  8
0
 66
1
 10
0.0
 20
0.0
 40
0
 41
0
 70
1
  0
VERTEX
  8
0
 10
0.601980
 20
-0.716280
 42
0
  0
VERTEX
  8
0
 10
0.601980
 20
0.975360
 42
0
  0
VERTEX
  8
0
 10
-0.599440
 20
0.975360
 42
0
  0
VERTEX
  8
0
 10
-0.599440
 20
-0.716280
 42
0
  0
SEQEND
  8
0
 0
ENDBLK
  8
0
  0
BLOCK
  8
0
  2
D19
 70
64
 10
0.0
 20
0.0
  3
D19
  0
POLYLINE
  8
0
 66
1
 10
0.0
 20
0.0
 40
0
 41
0
 70
1
  0
VERTEX
  8
0
 10
0.601980
 20
-0.972820
 42
0
  0
VERTEX
  8
0
 10
0.601980
 20
0.726440
 42
0
  0
VERTEX
  8
0
 10
-0.599440
 20
0.726440
 42
0
  0
VERTEX
  8
0
 10
-0.599440
 20
-0.972820
 42
0
  0
SEQEND
  8
0
 0
ENDBLK
  8
0
  0
BLOCK
  8
0
  2
D20
 70
64
 10
0.0
 20
0.0
  3
D20
  0
POLYLINE
  8
0
 66
1
 10
0.0
 20
0.0
 40
0
 41
0
 70
1
  0
VERTEX
  8
0
 10
0.949960
 20
0.749300
 42
0
  0
VERTEX
  8
0
 10
-0.949960
 20
0.749300
 42
0
  0
VERTEX
  8
0
 10
-0.949960
 20
-0.749300
 42
0
  0
VERTEX
  8
0
 10
0.949960
 20
-0.749300
 42
0
  0
SEQEND
  8
0
 0
ENDBLK
  8
0
  0
BLOCK
  8
0
  2
D21
 70
64
 10
0.0
 20
0.0
  3
D21
  0
POLYLINE
  8
0
 66
1
 10
0.0
 20
0.0
 40
0
 41
0
 70
1
  0
VERTEX
  8
0
 10
0.497840
 20
0.474980
 42
0
  0
VERTEX
  8
0
 10
-0.497840
 20
0.474980
 42
0
  0
VERTEX
  8
0
 10
-0.497840
 20
-0.474980
 42
0
  0
VERTEX
  8
0
 10
0.497840
 20
-0.474980
 42
0
  0
SEQEND
  8
0
 0
ENDBLK
  8
0
  0
BLOCK
  8
0
  2
D22
 70
64
 10
0.0
 20
0.0
  3
D22
  0
POLYLINE
  8
0
 66
1
 10
0.0
 20
0.0
 40
0
 41
0
 70
1
  0
VERTEX
  8
0
 10
1.148080
 20
0.347980
 42
0
  0
VERTEX
  8
0
 10
-1.148080
 20
0.347980
 42
0
  0
VERTEX
  8
0
 10
-1.148080
 20
-0.347980
 42
0
  0
VERTEX
  8
0
 10
1.148080
 20
-0.347980
 42
0
  0
SEQEND
  8
0
  0
CIRCLE
  8
0
 10
-1.148080
 20
0.000000
 40
0.349999
  0
CIRCLE
  8
0
 10
1.148080
 20
0.000000
 40
0.349999
 0
ENDBLK
  8
0
  0
BLOCK
  8
0
  2
D23
 70
64
 10
0.0
 20
0.0
  3
D23
  0
POLYLINE
  8
0
 66
1
 10
0.0
 20
0.0
 40
0
 41
0
 70
1
  0
VERTEX
  8
0
 10
0.949960
 20
0.647700
 42
0
  0
VERTEX
  8
0
 10
-0.949960
 20
0.647700
 42
0
  0
VERTEX
  8
0
 10
-0.949960
 20
-0.647700
 42
0
  0
VERTEX
  8
0
 10
0.949960
 20
-0.647700
 42
0
  0
SEQEND
  8
0
 0
ENDBLK
  8
0
  0
BLOCK
  8
0
  2
D24
 70
64
 10
0.0
 20
0.0
  3
D24
  0
POLYLINE
  8
0
 66
1
 10
0.0
 20
0.0
 40
0
 41
0
 70
1
  0
VERTEX
  8
0
 10
0.497840
 20
0.523240
 42
0
  0
VERTEX
  8
0
 10
-0.497840
 20
0.523240
 42
0
  0
VERTEX
  8
0
 10
-0.497840
 20
-0.523240
 42
0
  0
VERTEX
  8
0
 10
0.497840
 20
-0.523240
 42
0
  0
SEQEND
  8
0
 0
ENDBLK
  8
0
  0
BLOCK
  8
0
  2
D25
 70
64
 10
0.0
 20
0.0
  3
D25
  0
POLYLINE
  8
0
 66
1
 10
0.0
 20
0.0
 40
0
 41
0
 70
1
  0
VERTEX
  8
0
 10
0.998220
 20
2.999740
 42
0
  0
VERTEX
  8
0
 10
-0.998220
 20
2.999740
 42
0
  0
VERTEX
  8
0
 10
-0.998220
 20
-2.999740
 42
0
  0
VERTEX
  8
0
 10
0.998220
 20
-2.999740
 42
0
  0
SEQEND
  8
0
 0
ENDBLK
  8
0
  0
BLOCK
  8
0
  2
D26
 70
64
 10
0.0
 20
0.0
  3
D26
  0
POLYLINE
  8
0
 66
1
 10
0.0
 20
0.0
 40
0
 41
0
 70
1
  0
VERTEX
  8
0
 10
0.172720
 20
0.248920
 42
0
  0
VERTEX
  8
0
 10
-0.172720
 20
0.248920
 42
0
  0
VERTEX
  8
0
 10
-0.172720
 20
-0.248920
 42
0
  0
VERTEX
  8
0
 10
0.172720
 20
-0.248920
 42
0
  0
SEQEND
  8
0
  0
CIRCLE
  8
0
 10
0.000000
 20
0.248920
 40
0.175000
  0
CIRCLE
  8
0
 10
0.000000
 20
-0.248920
 40
0.175000
 0
ENDBLK
  8
0
  0
BLOCK
  8
0
  2
D27
 70
64
 10
0.0
 20
0.0
  3
D27
  0
POLYLINE
  8
0
 66
1
 10
0.0
 20
0.0
 40
0
 41
0
 70
1
  0
VERTEX
  8
0
 10
0.350520
 20
0.599440
 42
0
  0
VERTEX
  8
0
 10
-0.350520
 20
0.599440
 42
0
  0
VERTEX
  8
0
 10
-0.500380
 20
0.449580
 42
0
  0
VERTEX
  8
0
 10
-0.500380
 20
-0.449580
 42
0
  0
VERTEX
  8
0
 10
-0.350520
 20
-0.599440
 42
0
  0
VERTEX
  8
0
 10
0.350520
 20
-0.599440
 42
0
  0
VERTEX
  8
0
 10
0.500380
 20
-0.449580
 42
0
  0
VERTEX
  8
0
 10
0.500380
 20
0.449580
 42
0
  0
SEQEND
  8
0
  0
CIRCLE
  8
0
 10
0.350520
 20
0.449580
 40
0.150000
  0
CIRCLE
  8
0
 10
-0.350520
 20
0.449580
 40
0.150000
  0
CIRCLE
  8
0
 10
-0.350520
 20
-0.449580
 40
0.150000
  0
CIRCLE
  8
0
 10
0.350520
 20
-0.449580
 40
0.150000
 0
ENDBLK
  8
0
  0
BLOCK
  8
0
  2
D28
 70
64
 10
0.0
 20
0.0
  3
D28
  0
POLYLINE
  8
0
 66
1
 10
0.0
 20
0.0
 40
0
 41
0
 70
1
  0
VERTEX
  8
0
 10
-0.248920
 20
-0.899160
 42
0
  0
VERTEX
  8
0
 10
0.248920
 20
-0.899160
 42
0
  0
VERTEX
  8
0
 10
0.500380
 20
-0.650240
 42
0
  0
VERTEX
  8
0
 10
0.500380
 20
0.650240
 42
0
  0
VERTEX
  8
0
 10
0.248920
 20
0.899160
 42
0
  0
VERTEX
  8
0
 10
-0.248920
 20
0.899160
 42
0
  0
VERTEX
  8
0
 10
-0.500380
 20
0.650240
 42
0
  0
VERTEX
  8
0
 10
-0.500380
 20
-0.650240
 42
0
  0
SEQEND
  8
0
  0
CIRCLE
  8
0
 10
-0.248920
 20
-0.650240
 40
0.250000
  0
CIRCLE
  8
0
 10
0.248920
 20
-0.650240
 40
0.250000
  0
CIRCLE
  8
0
 10
0.248920
 20
0.650240
 40
0.250000
  0
CIRCLE
  8
0
 10
-0.248920
 20
0.650240
 40
0.250000
 0
ENDBLK
  8
0
  0
BLOCK
  8
0
  2
D29
 70
64
 10
0.0
 20
0.0
  3
D29
  0
POLYLINE
  8
0
 66
1
 10
0.0
 20
0.0
 40
0
 41
0
 70
1
  0
VERTEX
  8
0
 10
0.698500
 20
0.998220
 42
0
  0
VERTEX
  8
0
 10
-0.698500
 20
0.998220
 42
0
  0
VERTEX
  8
0
 10
-0.698500
 20
-0.998220
 42
0
  0
VERTEX
  8
0
 10
0.698500
 20
-0.998220
 42
0
  0
SEQEND
  8
0
 0
ENDBLK
  8
0
  0
BLOCK
  8
0
  2
D30
 70
64
 10
0.0
 20
0.0
  3
D30
  0
POLYLINE
  8
0
 66
1
 10
0.0
 20
0.0
 40
0
 41
0
 70
1
  0
VERTEX
  8
0
 10
0.523240
 20
0.497840
 42
0
  0
VERTEX
  8
0
 10
-0.523240
 20
0.497840
 42
0
  0
VERTEX
  8
0
 10
-0.523240
 20
-0.497840
 42
0
  0
VERTEX
  8
0
 10
0.523240
 20
-0.497840
 42
0
  0
SEQEND
  8
0
 0
ENDBLK
  8
0
  0
BLOCK
  8
0
  2
D31
 70
64
 10
0.0
 20
0.0
  3
D31
  0
POLYLINE
  8
0
 66
1
 10
0.0
 20
0.0
 40
0
 41
0
 70
1
  0
VERTEX
  8
0
 10
0.078740
 20
0.078740
 42
0
  0
VERTEX
  8
0
 10
-0.078740
 20
0.078740
 42
0
  0
VERTEX
  8
0
 10
-0.078740
 20
-0.078740
 42
0
  0
VERTEX
  8
0
 10
0.078740
 20
-0.078740
 42
0
  0
SEQEND
  8
0
 0
ENDBLK
  8
0
  0
BLOCK
  8
0
  2
D32
 70
64
 10
0.0
 20
0.0
  3
D32
  0
POLYLINE
  8
0
 66
1
 10
0.0
 20
0.0
 40
0
 41
0
 70
1
  0
VERTEX
  8
0
 10
0.198120
 20
0.299720
 42
0
  0
VERTEX
  8
0
 10
-0.198120
 20
0.299720
 42
0
  0
VERTEX
  8
0
 10
-0.198120
 20
-0.299720
 42
0
  0
VERTEX
  8
0
 10
0.198120
 20
-0.299720
 42
0
  0
SEQEND
  8
0
  0
CIRCLE
  8
0
 10
-0.198120
 20
0.000000
 40
0.299999
  0
CIRCLE
  8
0
 10
0.198120
 20
0.000000
 40
0.299999
 0
ENDBLK
  8
0
  0
BLOCK
  8
0
  2
D33
 70
64
 10
0.0
 20
0.0
  3
D33
  0
POLYLINE
  8
0
 66
1
 10
0.0
 20
0.0
 40
0
 41
0
 70
1
  0
VERTEX
  8
0
 10
0.375920
 20
-0.497840
 42
0
  0
VERTEX
  8
0
 10
0.375920
 20
0.500380
 42
0
  0
VERTEX
  8
0
 10
-0.373380
 20
0.500380
 42
0
  0
VERTEX
  8
0
 10
-0.373380
 20
-0.497840
 42
0
  0
SEQEND
  8
0
 0
ENDBLK
  8
0
  0
BLOCK
  8
0
  2
D34
 70
64
 10
0.0
 20
0.0
  3
D34
  0
POLYLINE
  8
0
 66
1
 10
0.0
 20
0.0
 40
0
 41
0
 70
1
  0
VERTEX
  8
0
 10
0.500380
 20
0.375920
 42
0
  0
VERTEX
  8
0
 10
-0.497840
 20
0.375920
 42
0
  0
VERTEX
  8
0
 10
-0.497840
 20
-0.373380
 42
0
  0
VERTEX
  8
0
 10
0.500380
 20
-0.373380
 42
0
  0
SEQEND
  8
0
 0
ENDBLK
  8
0
  0
BLOCK
  8
0
  2
D35
 70
64
 10
0.0
 20
0.0
  3
D35
  0
POLYLINE
  8
0
 66
1
 10
0.0
 20
0.0
 40
0
 41
0
 70
1
  0
VERTEX
  8
0
 10
0.299720
 20
0.449580
 42
0
  0
VERTEX
  8
0
 10
-0.299720
 20
0.449580
 42
0
  0
VERTEX
  8
0
 10
-0.299720
 20
-0.449580
 42
0
  0
VERTEX
  8
0
 10
0.299720
 20
-0.449580
 42
0
  0
SEQEND
  8
0
  0
CIRCLE
  8
0
 10
0.000000
 20
0.449580
 40
0.299999
  0
CIRCLE
  8
0
 10
0.000000
 20
-0.449580
 40
0.299999
 0
ENDBLK
  8
0
  0
BLOCK
  8
0
  2
D36
 70
64
 10
0.0
 20
0.0
  3
D36
  0
POLYLINE
  8
0
 66
1
 10
0.0
 20
0.0
 40
0
 41
0
 70
1
  0
VERTEX
  8
0
 10
-0.716280
 20
-0.599440
 42
0
  0
VERTEX
  8
0
 10
0.975360
 20
-0.599440
 42
0
  0
VERTEX
  8
0
 10
0.975360
 20
0.601980
 42
0
  0
VERTEX
  8
0
 10
-0.716280
 20
0.601980
 42
0
  0
SEQEND
  8
0
 0
ENDBLK
  8
0
  0
BLOCK
  8
0
  2
D37
 70
64
 10
0.0
 20
0.0
  3
D37
  0
POLYLINE
  8
0
 66
1
 10
0.0
 20
0.0
 40
0
 41
0
 70
1
  0
VERTEX
  8
0
 10
-0.972820
 20
-0.599440
 42
0
  0
VERTEX
  8
0
 10
0.726440
 20
-0.599440
 42
0
  0
VERTEX
  8
0
 10
0.726440
 20
0.601980
 42
0
  0
VERTEX
  8
0
 10
-0.972820
 20
0.601980
 42
0
  0
SEQEND
  8
0
 0
ENDBLK
  8
0
  0
BLOCK
  8
0
  2
D38
 70
64
 10
0.0
 20
0.0
  3
D38
  0
POLYLINE
  8
0
 66
1
 10
0.0
 20
0.0
 40
0
 41
0
 70
1
  0
VERTEX
  8
0
 10
0.474980
 20
0.497840
 42
0
  0
VERTEX
  8
0
 10
-0.474980
 20
0.497840
 42
0
  0
VERTEX
  8
0
 10
-0.474980
 20
-0.497840
 42
0
  0
VERTEX
  8
0
 10
0.474980
 20
-0.497840
 42
0
  0
SEQEND
  8
0
 0
ENDBLK
  8
0
  0
BLOCK
  8
0
  2
D39
 70
64
 10
0.0
 20
0.0
  3
D39
  0
POLYLINE
  8
0
 66
1
 10
0.0
 20
0.0
 40
0
 41
0
 70
1
  0
VERTEX
  8
0
 10
0.401320
 20
0.200660
 42
0
  0
VERTEX
  8
0
 10
-0.398780
 20
0.200660
 42
0
  0
VERTEX
  8
0
 10
-0.398780
 20
-0.198120
 42
0
  0
VERTEX
  8
0
 10
0.401320
 20
-0.198120
 42
0
  0
SEQEND
  8
0
 0
ENDBLK
  8
0
  0
BLOCK
  8
0
  2
D40
 70
64
 10
0.0
 20
0.0
  3
D40
  0
CIRCLE
  8
0
 10
0.000000
 20
0.000000
 40
0.127000
 0
ENDBLK
  8
0
  0
BLOCK
  8
0
  2
D41
 70
64
 10
0.0
 20
0.0
  3
D41
  0
CIRCLE
  8
0
 10
0.000000
 20
0.000000
 40
0.080000
 0
ENDBLK
  8
0
  0
BLOCK
  8
0
  2
D42
 70
64
 10
0.0
 20
0.0
  3
D42
  0
CIRCLE
  8
0
 10
0.000000
 20
0.000000
 40
0.150000
 0
ENDBLK
  8
0
  0
BLOCK
  8
0
  2
D43
 70
64
 10
0.0
 20
0.0
  3
D43
  0
CIRCLE
  8
0
 10
0.000000
 20
0.000000
 40
0.126200
 0
ENDBLK
  8
0
  0
BLOCK
  8
0
  2
D44
 70
64
 10
0.0
 20
0.0
  3
D44
  0
CIRCLE
  8
0
 10
0.000000
 20
0.000000
 40
0.190500
 0
ENDBLK
  8
0
  0
BLOCK
  8
0
  2
D45
 70
64
 10
0.0
 20
0.0
  3
D45
  0
CIRCLE
  8
0
 10
0.000000
 20
0.000000
 40
0.250000
 0
ENDBLK
  8
0
  0
BLOCK
  8
0
  2
D46
 70
64
 10
0.0
 20
0.0
  3
D46
  0
CIRCLE
  8
0
 10
0.000000
 20
0.000000
 40
0.200000
 0
ENDBLK
  8
0
  0
BLOCK
  8
0
  2
D47
 70
64
 10
0.0
 20
0.0
  3
D47
  0
CIRCLE
  8
0
 10
0.000000
 20
0.000000
 40
0.100000
 0
ENDBLK
  8
0
  0
BLOCK
  8
0
  2
D48
 70
64
 10
0.0
 20
0.0
  3
D48
  0
CIRCLE
  8
0
 10
0.000000
 20
0.000000
 40
0.399999
 0
ENDBLK
  8
0
  0
BLOCK
  8
0
  2
D49
 70
64
 10
0.0
 20
0.0
  3
D49
  0
POLYLINE
  8
0
 66
1
 10
0.0
 20
0.0
 40
0
 41
0
 70
1
  0
VERTEX
  8
0
 10
0.848360
 20
0.497840
 42
0
  0
VERTEX
  8
0
 10
-0.848360
 20
0.497840
 42
0
  0
VERTEX
  8
0
 10
-0.848360
 20
-0.497840
 42
0
  0
VERTEX
  8
0
 10
0.848360
 20
-0.497840
 42
0
  0
SEQEND
  8
0
  0
CIRCLE
  8
0
 10
0.000000
 20
0.497840
 40
0.849998
  0
CIRCLE
  8
0
 10
0.000000
 20
-0.497840
 40
0.849998
 0
ENDBLK
  8
0
  0
BLOCK
  8
0
  2
D50
 70
64
 10
0.0
 20
0.0
  3
D50
  0
CIRCLE
  8
0
 10
0.000000
 20
0.000000
 40
0.549999
 0
ENDBLK
  8
0
  0
BLOCK
  8
0
  2
D51
 70
64
 10
0.0
 20
0.0
  3
D51
  0
CIRCLE
  8
0
 10
0.000000
 20
0.000000
 40
0.699999
 0
ENDBLK
  8
0
  0
BLOCK
  8
0
  2
D52
 70
64
 10
0.0
 20
0.0
  3
D52
  0
POLYLINE
  8
0
 66
1
 10
0.0
 20
0.0
 40
0
 41
0
 70
1
  0
VERTEX
  8
0
 10
0.350520
 20
0.701040
 42
0
  0
VERTEX
  8
0
 10
-0.350520
 20
0.701040
 42
0
  0
VERTEX
  8
0
 10
-0.701040
 20
0.350520
 42
0
  0
VERTEX
  8
0
 10
-0.701040
 20
-0.350520
 42
0
  0
VERTEX
  8
0
 10
-0.350520
 20
-0.701040
 42
0
  0
VERTEX
  8
0
 10
0.350520
 20
-0.701040
 42
0
  0
VERTEX
  8
0
 10
0.701040
 20
-0.350520
 42
0
  0
VERTEX
  8
0
 10
0.701040
 20
0.350520
 42
0
  0
SEQEND
  8
0
  0
CIRCLE
  8
0
 10
0.350520
 20
0.350520
 40
0.350000
  0
CIRCLE
  8
0
 10
-0.350520
 20
0.350520
 40
0.350000
  0
CIRCLE
  8
0
 10
-0.350520
 20
-0.350520
 40
0.350000
  0
CIRCLE
  8
0
 10
0.350520
 20
-0.350520
 40
0.350000
 0
ENDBLK
  8
0
  0
BLOCK
  8
0
  2
D53
 70
64
 10
0.0
 20
0.0
  3
D53
  0
POLYLINE
  8
0
 66
1
 10
0.0
 20
0.0
 40
0
 41
0
 70
1
  0
VERTEX
  8
0
 10
2.999740
 20
2.999740
 42
0
  0
VERTEX
  8
0
 10
-2.999740
 20
2.999740
 42
0
  0
VERTEX
  8
0
 10
-2.999740
 20
-2.999740
 42
0
  0
VERTEX
  8
0
 10
2.999740
 20
-2.999740
 42
0
  0
SEQEND
  8
0
 0
ENDBLK
  8
0
  0
BLOCK
  8
0
  2
D54
 70
64
 10
0.0
 20
0.0
  3
D54
  0
POLYLINE
  8
0
 66
1
 10
0.0
 20
0.0
 40
0
 41
0
 70
1
  0
VERTEX
  8
0
 10
-0.650240
 20
-1.300480
 42
0
  0
VERTEX
  8
0
 10
0.650240
 20
-1.300480
 42
0
  0
VERTEX
  8
0
 10
1.300480
 20
-0.650240
 42
0
  0
VERTEX
  8
0
 10
1.300480
 20
0.650240
 42
0
  0
VERTEX
  8
0
 10
0.650240
 20
1.300480
 42
0
  0
VERTEX
  8
0
 10
-0.650240
 20
1.300480
 42
0
  0
VERTEX
  8
0
 10
-1.300480
 20
0.650240
 42
0
  0
VERTEX
  8
0
 10
-1.300480
 20
-0.650240
 42
0
  0
SEQEND
  8
0
  0
CIRCLE
  8
0
 10
-0.650240
 20
-0.650240
 40
0.650000
  0
CIRCLE
  8
0
 10
0.650240
 20
-0.650240
 40
0.650000
  0
CIRCLE
  8
0
 10
0.650240
 20
0.650240
 40
0.650000
  0
CIRCLE
  8
0
 10
-0.650240
 20
0.650240
 40
0.650000
 0
ENDBLK
  8
0
  0
BLOCK
  8
0
  2
D55
 70
64
 10
0.0
 20
0.0
  3
D55
  0
CIRCLE
  8
0
 10
0.000000
 20
0.000000
 40
0.799998
 0
ENDBLK
  8
0
  0
BLOCK
  8
0
  2
D56
 70
64
 10
0.0
 20
0.0
  3
D56
  0
CIRCLE
  8
0
 10
0.000000
 20
0.000000
 40
1.299997
 0
ENDBLK
  8
0
  0
BLOCK
  8
0
  2
D57
 70
64
 10
0.0
 20
0.0
  3
D57
  0
CIRCLE
  8
0
 10
0.000000
 20
0.000000
 40
0.230000
 0
ENDBLK
  8
0
  0
BLOCK
  8
0
  2
D58
 70
64
 10
0.0
 20
0.0
  3
D58
  0
CIRCLE
  8
0
 10
0.000000
 20
0.000000
 40
0.279999
 0
ENDBLK
  8
0
  0
BLOCK
  8
0
  2
D59
 70
64
 10
0.0
 20
0.0
  3
D59
  0
CIRCLE
  8
0
 10
0.000000
 20
0.000000
 40
2.724995
 0
ENDBLK
  8
0
  0
BLOCK
  8
0
  2
D60
 70
64
 10
0.0
 20
0.0
  3
D60
  0
CIRCLE
  8
0
 10
0.000000
 20
0.000000
 40
0.175000
 0
ENDBLK
  8
0
  0
BLOCK
  8
0
  2
D61
 70
64
 10
0.0
 20
0.0
  3
D61
  0
CIRCLE
  8
0
 10
0.000000
 20
0.000000
 40
0.127000
 0
ENDBLK
  8
0
  0
BLOCK
  8
0
  2
D62
 70
64
 10
0.0
 20
0.0
  3
D62
  0
CIRCLE
  8
0
 10
0.000000
 20
0.000000
 40
0.076200
 0
ENDBLK
  8
0
  0
BLOCK
  8
0
  2
D63
 70
64
 10
0.0
 20
0.0
  3
D63
  0
POLYLINE
  8
0
 66
1
 10
0.0
 20
0.0
 40
0
 41
0
 70
1
  0
VERTEX
  8
0
 10
1.049020
 20
1.623060
 42
0
  0
VERTEX
  8
0
 10
-1.049020
 20
1.623060
 42
0
  0
VERTEX
  8
0
 10
-1.049020
 20
-1.623060
 42
0
  0
VERTEX
  8
0
 10
1.049020
 20
-1.623060
 42
0
  0
SEQEND
  8
0
 0
ENDBLK
  8
0
  0
BLOCK
  8
0
  2
D64
 70
64
 10
0.0
 20
0.0
  3
D64
  0
POLYLINE
  8
0
 66
1
 10
0.0
 20
0.0
 40
0
 41
0
 70
1
  0
VERTEX
  8
0
 10
1.049020
 20
0.449580
 42
0
  0
VERTEX
  8
0
 10
-1.049020
 20
0.449580
 42
0
  0
VERTEX
  8
0
 10
-1.049020
 20
-0.449580
 42
0
  0
VERTEX
  8
0
 10
1.049020
 20
-0.449580
 42
0
  0
SEQEND
  8
0
 0
ENDBLK
  8
0
  0
BLOCK
  8
0
  2
D65
 70
64
 10
0.0
 20
0.0
  3
D65
  0
POLYLINE
  8
0
 66
1
 10
0.0
 20
0.0
 40
0
 41
0
 70
1
  0
VERTEX
  8
0
 10
0.347980
 20
0.299720
 42
0
  0
VERTEX
  8
0
 10
-0.347980
 20
0.299720
 42
0
  0
VERTEX
  8
0
 10
-0.347980
 20
-0.299720
 42
0
  0
VERTEX
  8
0
 10
0.347980
 20
-0.299720
 42
0
  0
SEQEND
  8
0
 0
ENDBLK
  8
0
  0
BLOCK
  8
0
  2
D66
 70
64
 10
0.0
 20
0.0
  3
D66
  0
POLYLINE
  8
0
 66
1
 10
0.0
 20
0.0
 40
0
 41
0
 70
1
  0
VERTEX
  8
0
 10
0.375920
 20
0.500380
 42
0
  0
VERTEX
  8
0
 10
0.375920
 20
-0.497840
 42
0
  0
VERTEX
  8
0
 10
-0.373380
 20
-0.497840
 42
0
  0
VERTEX
  8
0
 10
-0.373380
 20
0.500380
 42
0
  0
SEQEND
  8
0
 0
ENDBLK
  8
0
  0
BLOCK
  8
0
  2
D67
 70
64
 10
0.0
 20
0.0
  3
D67
  0
POLYLINE
  8
0
 66
1
 10
0.0
 20
0.0
 40
0
 41
0
 70
1
  0
VERTEX
  8
0
 10
0.299720
 20
0.198120
 42
0
  0
VERTEX
  8
0
 10
-0.299720
 20
0.198120
 42
0
  0
VERTEX
  8
0
 10
-0.299720
 20
-0.198120
 42
0
  0
VERTEX
  8
0
 10
0.299720
 20
-0.198120
 42
0
  0
SEQEND
  8
0
  0
CIRCLE
  8
0
 10
0.000000
 20
0.198120
 40
0.299999
  0
CIRCLE
  8
0
 10
0.000000
 20
-0.198120
 40
0.299999
 0
ENDBLK
  8
0
  0
BLOCK
  8
0
  2
D68
 70
64
 10
0.0
 20
0.0
  3
D68
  0
POLYLINE
  8
0
 66
1
 10
0.0
 20
0.0
 40
0
 41
0
 70
1
  0
VERTEX
  8
0
 10
0.822960
 20
1.673860
 42
0
  0
VERTEX
  8
0
 10
-0.822960
 20
1.673860
 42
0
  0
VERTEX
  8
0
 10
-0.822960
 20
-1.673860
 42
0
  0
VERTEX
  8
0
 10
0.822960
 20
-1.673860
 42
0
  0
SEQEND
  8
0
 0
ENDBLK
  8
0
  0
BLOCK
  8
0
  2
D69
 70
64
 10
0.0
 20
0.0
  3
D69
  0
POLYLINE
  8
0
 66
1
 10
0.0
 20
0.0
 40
0
 41
0
 70
1
  0
VERTEX
  8
0
 10
0.449580
 20
0.299720
 42
0
  0
VERTEX
  8
0
 10
-0.449580
 20
0.299720
 42
0
  0
VERTEX
  8
0
 10
-0.449580
 20
-0.299720
 42
0
  0
VERTEX
  8
0
 10
0.449580
 20
-0.299720
 42
0
  0
SEQEND
  8
0
  0
CIRCLE
  8
0
 10
-0.449580
 20
0.000000
 40
0.299999
  0
CIRCLE
  8
0
 10
0.449580
 20
0.000000
 40
0.299999
 0
ENDBLK
  8
0
  0
BLOCK
  8
0
  2
D70
 70
64
 10
0.0
 20
0.0
  3
D70
  0
POLYLINE
  8
0
 66
1
 10
0.0
 20
0.0
 40
0
 41
0
 70
1
  0
VERTEX
  8
0
 10
2.799080
 20
3.398520
 42
0
  0
VERTEX
  8
0
 10
-2.799080
 20
3.398520
 42
0
  0
VERTEX
  8
0
 10
-2.799080
 20
-3.398520
 42
0
  0
VERTEX
  8
0
 10
2.799080
 20
-3.398520
 42
0
  0
SEQEND
  8
0
 0
ENDBLK
  8
0
  0
BLOCK
  8
0
  2
D71
 70
64
 10
0.0
 20
0.0
  3
D71
  0
POLYLINE
  8
0
 66
1
 10
0.0
 20
0.0
 40
0
 41
0
 70
1
  0
VERTEX
  8
0
 10
0.497840
 20
1.498600
 42
0
  0
VERTEX
  8
0
 10
-0.497840
 20
1.498600
 42
0
  0
VERTEX
  8
0
 10
-0.497840
 20
-1.498600
 42
0
  0
VERTEX
  8
0
 10
0.497840
 20
-1.498600
 42
0
  0
SEQEND
  8
0
 0
ENDBLK
  8
0
  0
BLOCK
  8
0
  2
D72
 70
64
 10
0.0
 20
0.0
  3
D72
  0
POLYLINE
  8
0
 66
1
 10
0.0
 20
0.0
 40
0
 41
0
 70
1
  0
VERTEX
  8
0
 10
0.749300
 20
0.949960
 42
0
  0
VERTEX
  8
0
 10
-0.749300
 20
0.949960
 42
0
  0
VERTEX
  8
0
 10
-0.749300
 20
-0.949960
 42
0
  0
VERTEX
  8
0
 10
0.749300
 20
-0.949960
 42
0
  0
SEQEND
  8
0
 0
ENDBLK
  8
0
  0
BLOCK
  8
0
  2
D73
 70
64
 10
0.0
 20
0.0
  3
D73
  0
POLYLINE
  8
0
 66
1
 10
0.0
 20
0.0
 40
0
 41
0
 70
1
  0
VERTEX
  8
0
 10
-0.972820
 20
0.601980
 42
0
  0
VERTEX
  8
0
 10
0.726440
 20
0.601980
 42
0
  0
VERTEX
  8
0
 10
0.726440
 20
-0.599440
 42
0
  0
VERTEX
  8
0
 10
-0.972820
 20
-0.599440
 42
0
  0
SEQEND
  8
0
 0
ENDBLK
  8
0
  0
BLOCK
  8
0
  2
D74
 70
64
 10
0.0
 20
0.0
  3
D74
  0
POLYLINE
  8
0
 66
1
 10
0.0
 20
0.0
 40
0
 41
0
 70
1
  0
VERTEX
  8
0
 10
-0.716280
 20
0.601980
 42
0
  0
VERTEX
  8
0
 10
0.975360
 20
0.601980
 42
0
  0
VERTEX
  8
0
 10
0.975360
 20
-0.599440
 42
0
  0
VERTEX
  8
0
 10
-0.716280
 20
-0.599440
 42
0
  0
SEQEND
  8
0
 0
ENDBLK
  8
0
  0
BLOCK
  8
0
  2
D75
 70
64
 10
0.0
 20
0.0
  3
D75
  0
CIRCLE
  8
0
 10
0.000000
 20
0.000000
 40
1.249998
 0
ENDBLK
  8
0
  0
BLOCK
  8
0
  2
D76
 70
64
 10
0.0
 20
0.0
  3
D76
  0
CIRCLE
  8
0
 10
0.000000
 20
0.000000
 40
0.299999
 0
ENDBLK
  8
0
  0
BLOCK
  8
0
  2
D77
 70
64
 10
0.0
 20
0.0
  3
D77
  0
CIRCLE
  8
0
 10
0.000000
 20
0.000000
 40
0.999998
 0
ENDBLK
  8
0
  0
BLOCK
  8
0
  2
D78
 70
64
 10
0.0
 20
0.0
  3
D78
  0
CIRCLE
  8
0
 10
0.000000
 20
0.000000
 40
0.499999
 0
ENDBLK
  8
0
  0
BLOCK
  8
0
  2
D79
 70
64
 10
0.0
 20
0.0
  3
D79
  0
CIRCLE
  8
0
 10
0.000000
 20
0.000000
 40
0.899998
 0
ENDBLK
  8
0
  0
BLOCK
  8
0
  2
D80
 70
64
 10
0.0
 20
0.0
  3
D80
  0
CIRCLE
  8
0
 10
0.000000
 20
0.000000
 40
0.125000
 0
ENDBLK
  8
0
  0
BLOCK
  8
0
  2
D81
 70
64
 10
0.0
 20
0.0
  3
D81
  0
CIRCLE
  8
0
 10
0.000000
 20
0.000000
 40
0.100000
 0
ENDBLK
  8
0
  0
BLOCK
  8
0
  2
D82
 70
64
 10
0.0
 20
0.0
  3
D82
  0
CIRCLE
  8
0
 10
0.000000
 20
0.000000
 40
0.299999
 0
ENDBLK
  8
0
  0
BLOCK
  8
0
  2
D83
 70
64
 10
0.0
 20
0.0
  3
D83
  0
CIRCLE
  8
0
 10
0.000000
 20
0.000000
 40
0.050000
 0
ENDBLK
  8
0
  0
BLOCK
  8
0
  2
D84
 70
64
 10
0.0
 20
0.0
  3
D84
  0
CIRCLE
  8
0
 10
0.000000
 20
0.000000
 40
0.200000
 0
ENDBLK
  8
0
  0
BLOCK
  8
0
  2
D85
 70
64
 10
0.0
 20
0.0
  3
D85
  0
CIRCLE
  8
0
 10
0.000000
 20
0.000000
 40
0.063500
 0
ENDBLK
  8
0
  0
BLOCK
  8
0
  2
D86
 70
64
 10
0.0
 20
0.0
  3
D86
  0
POLYLINE
  8
0
 66
1
 10
0.0
 20
0.0
 40
0
 41
0
 70
1
  0
VERTEX
  8
0
 10
0.347980
 20
0.226060
 42
0
  0
VERTEX
  8
0
 10
-0.347980
 20
0.226060
 42
0
  0
VERTEX
  8
0
 10
-0.347980
 20
-0.226060
 42
0
  0
VERTEX
  8
0
 10
0.347980
 20
-0.226060
 42
0
  0
SEQEND
  8
0
  0
CIRCLE
  8
0
 10
-0.347980
 20
0.000000
 40
0.226600
  0
CIRCLE
  8
0
 10
0.347980
 20
0.000000
 40
0.226600
 0
ENDBLK
  8
0
  0
BLOCK
  8
0
  2
D87
 70
64
 10
0.0
 20
0.0
  3
D87
  0
POLYLINE
  8
0
 66
1
 10
0.0
 20
0.0
 40
0
 41
0
 70
1
  0
VERTEX
  8
0
 10
0.226060
 20
0.347980
 42
0
  0
VERTEX
  8
0
 10
-0.226060
 20
0.347980
 42
0
  0
VERTEX
  8
0
 10
-0.226060
 20
-0.347980
 42
0
  0
VERTEX
  8
0
 10
0.226060
 20
-0.347980
 42
0
  0
SEQEND
  8
0
  0
CIRCLE
  8
0
 10
0.000000
 20
0.347980
 40
0.226600
  0
CIRCLE
  8
0
 10
0.000000
 20
-0.347980
 40
0.226600
 0
ENDBLK
  8
0
  0
BLOCK
  8
0
  2
D88
 70
64
 10
0.0
 20
0.0
  3
D88
  0
POLYLINE
  8
0
 66
1
 10
0.0
 20
0.0
 40
0
 41
0
 70
1
  0
VERTEX
  8
0
 10
1.826260
 20
1.826260
 42
0
  0
VERTEX
  8
0
 10
-1.826260
 20
1.826260
 42
0
  0
VERTEX
  8
0
 10
-1.826260
 20
-1.826260
 42
0
  0
VERTEX
  8
0
 10
1.826260
 20
-1.826260
 42
0
  0
SEQEND
  8
0
 0
ENDBLK
  8
0
  0
BLOCK
  8
0
  2
D89
 70
64
 10
0.0
 20
0.0
  3
D89
  0
POLYLINE
  8
0
 66
1
 10
0.0
 20
0.0
 40
0
 41
0
 70
1
  0
VERTEX
  8
0
 10
1.963420
 20
1.176020
 42
0
  0
VERTEX
  8
0
 10
-1.963420
 20
1.176020
 42
0
  0
VERTEX
  8
0
 10
-2.600960
 20
0.538480
 42
0
  0
VERTEX
  8
0
 10
-2.600960
 20
-0.538480
 42
0
  0
VERTEX
  8
0
 10
-1.963420
 20
-1.176020
 42
0
  0
VERTEX
  8
0
 10
1.963420
 20
-1.176020
 42
0
  0
VERTEX
  8
0
 10
2.600960
 20
-0.538480
 42
0
  0
VERTEX
  8
0
 10
2.600960
 20
0.538480
 42
0
  0
SEQEND
  8
0
  0
CIRCLE
  8
0
 10
1.963420
 20
0.538480
 40
0.639100
  0
CIRCLE
  8
0
 10
-1.963420
 20
0.538480
 40
0.639100
  0
CIRCLE
  8
0
 10
-1.963420
 20
-0.538480
 40
0.639100
  0
CIRCLE
  8
0
 10
1.963420
 20
-0.538480
 40
0.639100
 0
ENDBLK
  8
0
  0
BLOCK
  8
0
  2
D90
 70
64
 10
0.0
 20
0.0
  3
D90
  0
POLYLINE
  8
0
 66
1
 10
0.0
 20
0.0
 40
0
 41
0
 70
1
  0
VERTEX
  8
0
 10
0.424180
 20
0.401320
 42
0
  0
VERTEX
  8
0
 10
-0.424180
 20
0.401320
 42
0
  0
VERTEX
  8
0
 10
-0.424180
 20
-0.401320
 42
0
  0
VERTEX
  8
0
 10
0.424180
 20
-0.401320
 42
0
  0
SEQEND
  8
0
  0
CIRCLE
  8
0
 10
-0.424180
 20
0.000000
 40
0.401599
  0
CIRCLE
  8
0
 10
0.424180
 20
0.000000
 40
0.401599
 0
ENDBLK
  8
0
  0
BLOCK
  8
0
  2
D91
 70
64
 10
0.0
 20
0.0
  3
D91
  0
POLYLINE
  8
0
 66
1
 10
0.0
 20
0.0
 40
0
 41
0
 70
1
  0
VERTEX
  8
0
 10
0.548640
 20
0.251460
 42
0
  0
VERTEX
  8
0
 10
-0.548640
 20
0.251460
 42
0
  0
VERTEX
  8
0
 10
-0.548640
 20
-0.251460
 42
0
  0
VERTEX
  8
0
 10
0.548640
 20
-0.251460
 42
0
  0
SEQEND
  8
0
  0
CIRCLE
  8
0
 10
-0.548640
 20
0.000000
 40
0.251599
  0
CIRCLE
  8
0
 10
0.548640
 20
0.000000
 40
0.251599
 0
ENDBLK
  8
0
  0
BLOCK
  8
0
  2
D92
 70
64
 10
0.0
 20
0.0
  3
D92
  0
POLYLINE
  8
0
 66
1
 10
0.0
 20
0.0
 40
0
 41
0
 70
1
  0
VERTEX
  8
0
 10
0.251460
 20
0.548640
 42
0
  0
VERTEX
  8
0
 10
-0.251460
 20
0.548640
 42
0
  0
VERTEX
  8
0
 10
-0.251460
 20
-0.548640
 42
0
  0
VERTEX
  8
0
 10
0.251460
 20
-0.548640
 42
0
  0
SEQEND
  8
0
  0
CIRCLE
  8
0
 10
0.000000
 20
0.548640
 40
0.251599
  0
CIRCLE
  8
0
 10
0.000000
 20
-0.548640
 40
0.251599
 0
ENDBLK
  8
0
  0
BLOCK
  8
0
  2
D93
 70
64
 10
0.0
 20
0.0
  3
D93
  0
POLYLINE
  8
0
 66
1
 10
0.0
 20
0.0
 40
0
 41
0
 70
1
  0
VERTEX
  8
0
 10
1.775460
 20
0.924560
 42
0
  0
VERTEX
  8
0
 10
-1.775460
 20
0.924560
 42
0
  0
VERTEX
  8
0
 10
-1.775460
 20
-0.924560
 42
0
  0
VERTEX
  8
0
 10
1.775460
 20
-0.924560
 42
0
  0
SEQEND
  8
0
 0
ENDBLK
  8
0
  0
BLOCK
  8
0
  2
D94
 70
64
 10
0.0
 20
0.0
  3
D94
  0
POLYLINE
  8
0
 66
1
 10
0.0
 20
0.0
 40
0
 41
0
 70
1
  0
VERTEX
  8
0
 10
1.051560
 20
0.850900
 42
0
  0
VERTEX
  8
0
 10
-1.051560
 20
0.850900
 42
0
  0
VERTEX
  8
0
 10
-1.051560
 20
-0.850900
 42
0
  0
VERTEX
  8
0
 10
1.051560
 20
-0.850900
 42
0
  0
SEQEND
  8
0
 0
ENDBLK
  8
0
  0
BLOCK
  8
0
  2
D95
 70
64
 10
0.0
 20
0.0
  3
D95
  0
POLYLINE
  8
0
 66
1
 10
0.0
 20
0.0
 40
0
 41
0
 70
1
  0
VERTEX
  8
0
 10
0.599440
 20
0.576580
 42
0
  0
VERTEX
  8
0
 10
-0.599440
 20
0.576580
 42
0
  0
VERTEX
  8
0
 10
-0.599440
 20
-0.576580
 42
0
  0
VERTEX
  8
0
 10
0.599440
 20
-0.576580
 42
0
  0
SEQEND
  8
0
 0
ENDBLK
  8
0
  0
BLOCK
  8
0
  2
D96
 70
64
 10
0.0
 20
0.0
  3
D96
  0
POLYLINE
  8
0
 66
1
 10
0.0
 20
0.0
 40
0
 41
0
 70
1
  0
VERTEX
  8
0
 10
1.148080
 20
0.449580
 42
0
  0
VERTEX
  8
0
 10
-1.148080
 20
0.449580
 42
0
  0
VERTEX
  8
0
 10
-1.148080
 20
-0.449580
 42
0
  0
VERTEX
  8
0
 10
1.148080
 20
-0.449580
 42
0
  0
SEQEND
  8
0
  0
CIRCLE
  8
0
 10
-1.148080
 20
0.000000
 40
0.451599
  0
CIRCLE
  8
0
 10
1.148080
 20
0.000000
 40
0.451599
 0
ENDBLK
  8
0
  0
BLOCK
  8
0
  2
D97
 70
64
 10
0.0
 20
0.0
  3
D97
  0
POLYLINE
  8
0
 66
1
 10
0.0
 20
0.0
 40
0
 41
0
 70
1
  0
VERTEX
  8
0
 10
1.051560
 20
0.749300
 42
0
  0
VERTEX
  8
0
 10
-1.051560
 20
0.749300
 42
0
  0
VERTEX
  8
0
 10
-1.051560
 20
-0.749300
 42
0
  0
VERTEX
  8
0
 10
1.051560
 20
-0.749300
 42
0
  0
SEQEND
  8
0
 0
ENDBLK
  8
0
  0
BLOCK
  8
0
  2
D98
 70
64
 10
0.0
 20
0.0
  3
D98
  0
POLYLINE
  8
0
 66
1
 10
0.0
 20
0.0
 40
0
 41
0
 70
1
  0
VERTEX
  8
0
 10
0.599440
 20
0.624840
 42
0
  0
VERTEX
  8
0
 10
-0.599440
 20
0.624840
 42
0
  0
VERTEX
  8
0
 10
-0.599440
 20
-0.624840
 42
0
  0
VERTEX
  8
0
 10
0.599440
 20
-0.624840
 42
0
  0
SEQEND
  8
0
 0
ENDBLK
  8
0
  0
BLOCK
  8
0
  2
D99
 70
64
 10
0.0
 20
0.0
  3
D99
  0
POLYLINE
  8
0
 66
1
 10
0.0
 20
0.0
 40
0
 41
0
 70
1
  0
VERTEX
  8
0
 10
1.099820
 20
3.101340
 42
0
  0
VERTEX
  8
0
 10
-1.099820
 20
3.101340
 42
0
  0
VERTEX
  8
0
 10
-1.099820
 20
-3.101340
 42
0
  0
VERTEX
  8
0
 10
1.099820
 20
-3.101340
 42
0
  0
SEQEND
  8
0
 0
ENDBLK
  8
0
  0
BLOCK
  8
0
  2
D100
 70
64
 10
0.0
 20
0.0
  3
D100
  0
POLYLINE
  8
0
 66
1
 10
0.0
 20
0.0
 40
0
 41
0
 70
1
  0
VERTEX
  8
0
 10
0.274320
 20
0.248920
 42
0
  0
VERTEX
  8
0
 10
-0.274320
 20
0.248920
 42
0
  0
VERTEX
  8
0
 10
-0.274320
 20
-0.248920
 42
0
  0
VERTEX
  8
0
 10
0.274320
 20
-0.248920
 42
0
  0
SEQEND
  8
0
  0
CIRCLE
  8
0
 10
0.000000
 20
0.248920
 40
0.276599
  0
CIRCLE
  8
0
 10
0.000000
 20
-0.248920
 40
0.276599
 0
ENDBLK
  8
0
  0
BLOCK
  8
0
  2
D101
 70
64
 10
0.0
 20
0.0
  3
D101
  0
POLYLINE
  8
0
 66
1
 10
0.0
 20
0.0
 40
0
 41
0
 70
1
  0
VERTEX
  8
0
 10
0.350520
 20
0.701040
 42
0
  0
VERTEX
  8
0
 10
-0.350520
 20
0.701040
 42
0
  0
VERTEX
  8
0
 10
-0.601980
 20
0.449580
 42
0
  0
VERTEX
  8
0
 10
-0.601980
 20
-0.449580
 42
0
  0
VERTEX
  8
0
 10
-0.350520
 20
-0.701040
 42
0
  0
VERTEX
  8
0
 10
0.350520
 20
-0.701040
 42
0
  0
VERTEX
  8
0
 10
0.601980
 20
-0.449580
 42
0
  0
VERTEX
  8
0
 10
0.601980
 20
0.449580
 42
0
  0
SEQEND
  8
0
  0
CIRCLE
  8
0
 10
0.350520
 20
0.449580
 40
0.251600
  0
CIRCLE
  8
0
 10
-0.350520
 20
0.449580
 40
0.251600
  0
CIRCLE
  8
0
 10
-0.350520
 20
-0.449580
 40
0.251600
  0
CIRCLE
  8
0
 10
0.350520
 20
-0.449580
 40
0.251600
 0
ENDBLK
  8
0
  0
BLOCK
  8
0
  2
D102
 70
64
 10
0.0
 20
0.0
  3
D102
  0
POLYLINE
  8
0
 66
1
 10
0.0
 20
0.0
 40
0
 41
0
 70
1
  0
VERTEX
  8
0
 10
-0.248920
 20
-1.000760
 42
0
  0
VERTEX
  8
0
 10
0.248920
 20
-1.000760
 42
0
  0
VERTEX
  8
0
 10
0.601980
 20
-0.650240
 42
0
  0
VERTEX
  8
0
 10
0.601980
 20
0.650240
 42
0
  0
VERTEX
  8
0
 10
0.248920
 20
1.000760
 42
0
  0
VERTEX
  8
0
 10
-0.248920
 20
1.000760
 42
0
  0
VERTEX
  8
0
 10
-0.601980
 20
0.650240
 42
0
  0
VERTEX
  8
0
 10
-0.601980
 20
-0.650240
 42
0
  0
SEQEND
  8
0
  0
CIRCLE
  8
0
 10
-0.248920
 20
-0.650240
 40
0.351600
  0
CIRCLE
  8
0
 10
0.248920
 20
-0.650240
 40
0.351600
  0
CIRCLE
  8
0
 10
0.248920
 20
0.650240
 40
0.351600
  0
CIRCLE
  8
0
 10
-0.248920
 20
0.650240
 40
0.351600
 0
ENDBLK
  8
0
  0
BLOCK
  8
0
  2
D103
 70
64
 10
0.0
 20
0.0
  3
D103
  0
POLYLINE
  8
0
 66
1
 10
0.0
 20
0.0
 40
0
 41
0
 70
1
  0
VERTEX
  8
0
 10
0.800100
 20
1.099820
 42
0
  0
VERTEX
  8
0
 10
-0.800100
 20
1.099820
 42
0
  0
VERTEX
  8
0
 10
-0.800100
 20
-1.099820
 42
0
  0
VERTEX
  8
0
 10
0.800100
 20
-1.099820
 42
0
  0
SEQEND
  8
0
 0
ENDBLK
  8
0
  0
BLOCK
  8
0
  2
D104
 70
64
 10
0.0
 20
0.0
  3
D104
  0
POLYLINE
  8
0
 66
1
 10
0.0
 20
0.0
 40
0
 41
0
 70
1
  0
VERTEX
  8
0
 10
0.624840
 20
0.599440
 42
0
  0
VERTEX
  8
0
 10
-0.624840
 20
0.599440
 42
0
  0
VERTEX
  8
0
 10
-0.624840
 20
-0.599440
 42
0
  0
VERTEX
  8
0
 10
0.624840
 20
-0.599440
 42
0
  0
SEQEND
  8
0
 0
ENDBLK
  8
0
  0
BLOCK
  8
0
  2
D105
 70
64
 10
0.0
 20
0.0
  3
D105
  0
POLYLINE
  8
0
 66
1
 10
0.0
 20
0.0
 40
0
 41
0
 70
1
  0
VERTEX
  8
0
 10
0.198120
 20
0.401320
 42
0
  0
VERTEX
  8
0
 10
-0.198120
 20
0.401320
 42
0
  0
VERTEX
  8
0
 10
-0.198120
 20
-0.401320
 42
0
  0
VERTEX
  8
0
 10
0.198120
 20
-0.401320
 42
0
  0
SEQEND
  8
0
  0
CIRCLE
  8
0
 10
-0.198120
 20
0.000000
 40
0.401599
  0
CIRCLE
  8
0
 10
0.198120
 20
0.000000
 40
0.401599
 0
ENDBLK
  8
0
  0
BLOCK
  8
0
  2
D106
 70
64
 10
0.0
 20
0.0
  3
D106
  0
POLYLINE
  8
0
 66
1
 10
0.0
 20
0.0
 40
0
 41
0
 70
1
  0
VERTEX
  8
0
 10
0.401320
 20
0.449580
 42
0
  0
VERTEX
  8
0
 10
-0.401320
 20
0.449580
 42
0
  0
VERTEX
  8
0
 10
-0.401320
 20
-0.449580
 42
0
  0
VERTEX
  8
0
 10
0.401320
 20
-0.449580
 42
0
  0
SEQEND
  8
0
  0
CIRCLE
  8
0
 10
0.000000
 20
0.449580
 40
0.401599
  0
CIRCLE
  8
0
 10
0.000000
 20
-0.449580
 40
0.401599
 0
ENDBLK
  8
0
  0
BLOCK
  8
0
  2
D107
 70
64
 10
0.0
 20
0.0
  3
D107
  0
POLYLINE
  8
0
 66
1
 10
0.0
 20
0.0
 40
0
 41
0
 70
1
  0
VERTEX
  8
0
 10
0.576580
 20
0.599440
 42
0
  0
VERTEX
  8
0
 10
-0.576580
 20
0.599440
 42
0
  0
VERTEX
  8
0
 10
-0.576580
 20
-0.599440
 42
0
  0
VERTEX
  8
0
 10
0.576580
 20
-0.599440
 42
0
  0
SEQEND
  8
0
 0
ENDBLK
  8
0
  0
BLOCK
  8
0
  2
D108
 70
64
 10
0.0
 20
0.0
  3
D108
  0
POLYLINE
  8
0
 66
1
 10
0.0
 20
0.0
 40
0
 41
0
 70
1
  0
VERTEX
  8
0
 10
0.949960
 20
0.497840
 42
0
  0
VERTEX
  8
0
 10
-0.949960
 20
0.497840
 42
0
  0
VERTEX
  8
0
 10
-0.949960
 20
-0.497840
 42
0
  0
VERTEX
  8
0
 10
0.949960
 20
-0.497840
 42
0
  0
SEQEND
  8
0
  0
CIRCLE
  8
0
 10
0.000000
 20
0.497840
 40
0.951598
  0
CIRCLE
  8
0
 10
0.000000
 20
-0.497840
 40
0.951598
 0
ENDBLK
  8
0
  0
BLOCK
  8
0
  2
D109
 70
64
 10
0.0
 20
0.0
  3
D109
  0
CIRCLE
  8
0
 10
0.000000
 20
0.000000
 40
0.651599
 0
ENDBLK
  8
0
  0
BLOCK
  8
0
  2
D110
 70
64
 10
0.0
 20
0.0
  3
D110
  0
CIRCLE
  8
0
 10
0.000000
 20
0.000000
 40
0.801598
 0
ENDBLK
  8
0
  0
BLOCK
  8
0
  2
D111
 70
64
 10
0.0
 20
0.0
  3
D111
  0
POLYLINE
  8
0
 66
1
 10
0.0
 20
0.0
 40
0
 41
0
 70
1
  0
VERTEX
  8
0
 10
0.350520
 20
0.802640
 42
0
  0
VERTEX
  8
0
 10
-0.350520
 20
0.802640
 42
0
  0
VERTEX
  8
0
 10
-0.802640
 20
0.350520
 42
0
  0
VERTEX
  8
0
 10
-0.802640
 20
-0.350520
 42
0
  0
VERTEX
  8
0
 10
-0.350520
 20
-0.802640
 42
0
  0
VERTEX
  8
0
 10
0.350520
 20
-0.802640
 42
0
  0
VERTEX
  8
0
 10
0.802640
 20
-0.350520
 42
0
  0
VERTEX
  8
0
 10
0.802640
 20
0.350520
 42
0
  0
SEQEND
  8
0
  0
CIRCLE
  8
0
 10
0.350520
 20
0.350520
 40
0.451600
  0
CIRCLE
  8
0
 10
-0.350520
 20
0.350520
 40
0.451600
  0
CIRCLE
  8
0
 10
-0.350520
 20
-0.350520
 40
0.451600
  0
CIRCLE
  8
0
 10
0.350520
 20
-0.350520
 40
0.451600
 0
ENDBLK
  8
0
  0
BLOCK
  8
0
  2
D112
 70
64
 10
0.0
 20
0.0
  3
D112
  0
POLYLINE
  8
0
 66
1
 10
0.0
 20
0.0
 40
0
 41
0
 70
1
  0
VERTEX
  8
0
 10
3.101340
 20
3.101340
 42
0
  0
VERTEX
  8
0
 10
-3.101340
 20
3.101340
 42
0
  0
VERTEX
  8
0
 10
-3.101340
 20
-3.101340
 42
0
  0
VERTEX
  8
0
 10
3.101340
 20
-3.101340
 42
0
  0
SEQEND
  8
0
 0
ENDBLK
  8
0
  0
BLOCK
  8
0
  2
D113
 70
64
 10
0.0
 20
0.0
  3
D113
  0
POLYLINE
  8
0
 66
1
 10
0.0
 20
0.0
 40
0
 41
0
 70
1
  0
VERTEX
  8
0
 10
-0.650240
 20
-1.402080
 42
0
  0
VERTEX
  8
0
 10
0.650240
 20
-1.402080
 42
0
  0
VERTEX
  8
0
 10
1.402080
 20
-0.650240
 42
0
  0
VERTEX
  8
0
 10
1.402080
 20
0.650240
 42
0
  0
VERTEX
  8
0
 10
0.650240
 20
1.402080
 42
0
  0
VERTEX
  8
0
 10
-0.650240
 20
1.402080
 42
0
  0
VERTEX
  8
0
 10
-1.402080
 20
0.650240
 42
0
  0
VERTEX
  8
0
 10
-1.402080
 20
-0.650240
 42
0
  0
SEQEND
  8
0
  0
CIRCLE
  8
0
 10
-0.650240
 20
-0.650240
 40
0.751600
  0
CIRCLE
  8
0
 10
0.650240
 20
-0.650240
 40
0.751600
  0
CIRCLE
  8
0
 10
0.650240
 20
0.650240
 40
0.751600
  0
CIRCLE
  8
0
 10
-0.650240
 20
0.650240
 40
0.751600
 0
ENDBLK
  8
0
  0
BLOCK
  8
0
  2
D114
 70
64
 10
0.0
 20
0.0
  3
D114
  0
CIRCLE
  8
0
 10
0.000000
 20
0.000000
 40
0.901598
 0
ENDBLK
  8
0
  0
BLOCK
  8
0
  2
D115
 70
64
 10
0.0
 20
0.0
  3
D115
  0
CIRCLE
  8
0
 10
0.000000
 20
0.000000
 40
1.401597
 0
ENDBLK
  8
0
  0
BLOCK
  8
0
  2
D116
 70
64
 10
0.0
 20
0.0
  3
D116
  0
POLYLINE
  8
0
 66
1
 10
0.0
 20
0.0
 40
0
 41
0
 70
1
  0
VERTEX
  8
0
 10
1.150620
 20
1.724660
 42
0
  0
VERTEX
  8
0
 10
-1.150620
 20
1.724660
 42
0
  0
VERTEX
  8
0
 10
-1.150620
 20
-1.724660
 42
0
  0
VERTEX
  8
0
 10
1.150620
 20
-1.724660
 42
0
  0
SEQEND
  8
0
 0
ENDBLK
  8
0
  0
BLOCK
  8
0
  2
D117
 70
64
 10
0.0
 20
0.0
  3
D117
  0
POLYLINE
  8
0
 66
1
 10
0.0
 20
0.0
 40
0
 41
0
 70
1
  0
VERTEX
  8
0
 10
1.150620
 20
0.551180
 42
0
  0
VERTEX
  8
0
 10
-1.150620
 20
0.551180
 42
0
  0
VERTEX
  8
0
 10
-1.150620
 20
-0.551180
 42
0
  0
VERTEX
  8
0
 10
1.150620
 20
-0.551180
 42
0
  0
SEQEND
  8
0
 0
ENDBLK
  8
0
  0
BLOCK
  8
0
  2
D118
 70
64
 10
0.0
 20
0.0
  3
D118
  0
POLYLINE
  8
0
 66
1
 10
0.0
 20
0.0
 40
0
 41
0
 70
1
  0
VERTEX
  8
0
 10
0.449580
 20
0.401320
 42
0
  0
VERTEX
  8
0
 10
-0.449580
 20
0.401320
 42
0
  0
VERTEX
  8
0
 10
-0.449580
 20
-0.401320
 42
0
  0
VERTEX
  8
0
 10
0.449580
 20
-0.401320
 42
0
  0
SEQEND
  8
0
 0
ENDBLK
  8
0
  0
BLOCK
  8
0
  2
D119
 70
64
 10
0.0
 20
0.0
  3
D119
  0
POLYLINE
  8
0
 66
1
 10
0.0
 20
0.0
 40
0
 41
0
 70
1
  0
VERTEX
  8
0
 10
0.401320
 20
0.198120
 42
0
  0
VERTEX
  8
0
 10
-0.401320
 20
0.198120
 42
0
  0
VERTEX
  8
0
 10
-0.401320
 20
-0.198120
 42
0
  0
VERTEX
  8
0
 10
0.401320
 20
-0.198120
 42
0
  0
SEQEND
  8
0
  0
CIRCLE
  8
0
 10
0.000000
 20
0.198120
 40
0.401599
  0
CIRCLE
  8
0
 10
0.000000
 20
-0.198120
 40
0.401599
 0
ENDBLK
  8
0
  0
BLOCK
  8
0
  2
D120
 70
64
 10
0.0
 20
0.0
  3
D120
  0
POLYLINE
  8
0
 66
1
 10
0.0
 20
0.0
 40
0
 41
0
 70
1
  0
VERTEX
  8
0
 10
0.924560
 20
1.775460
 42
0
  0
VERTEX
  8
0
 10
-0.924560
 20
1.775460
 42
0
  0
VERTEX
  8
0
 10
-0.924560
 20
-1.775460
 42
0
  0
VERTEX
  8
0
 10
0.924560
 20
-1.775460
 42
0
  0
SEQEND
  8
0
 0
ENDBLK
  8
0
  0
BLOCK
  8
0
  2
D121
 70
64
 10
0.0
 20
0.0
  3
D121
  0
POLYLINE
  8
0
 66
1
 10
0.0
 20
0.0
 40
0
 41
0
 70
1
  0
VERTEX
  8
0
 10
0.449580
 20
0.401320
 42
0
  0
VERTEX
  8
0
 10
-0.449580
 20
0.401320
 42
0
  0
VERTEX
  8
0
 10
-0.449580
 20
-0.401320
 42
0
  0
VERTEX
  8
0
 10
0.449580
 20
-0.401320
 42
0
  0
SEQEND
  8
0
  0
CIRCLE
  8
0
 10
-0.449580
 20
0.000000
 40
0.401599
  0
CIRCLE
  8
0
 10
0.449580
 20
0.000000
 40
0.401599
 0
ENDBLK
  8
0
  0
BLOCK
  8
0
  2
D122
 70
64
 10
0.0
 20
0.0
  3
D122
  0
POLYLINE
  8
0
 66
1
 10
0.0
 20
0.0
 40
0
 41
0
 70
1
  0
VERTEX
  8
0
 10
2.900680
 20
3.500120
 42
0
  0
VERTEX
  8
0
 10
-2.900680
 20
3.500120
 42
0
  0
VERTEX
  8
0
 10
-2.900680
 20
-3.500120
 42
0
  0
VERTEX
  8
0
 10
2.900680
 20
-3.500120
 42
0
  0
SEQEND
  8
0
 0
ENDBLK
  8
0
  0
BLOCK
  8
0
  2
D123
 70
64
 10
0.0
 20
0.0
  3
D123
  0
POLYLINE
  8
0
 66
1
 10
0.0
 20
0.0
 40
0
 41
0
 70
1
  0
VERTEX
  8
0
 10
0.599440
 20
1.600200
 42
0
  0
VERTEX
  8
0
 10
-0.599440
 20
1.600200
 42
0
  0
VERTEX
  8
0
 10
-0.599440
 20
-1.600200
 42
0
  0
VERTEX
  8
0
 10
0.599440
 20
-1.600200
 42
0
  0
SEQEND
  8
0
 0
ENDBLK
  8
0
  0
BLOCK
  8
0
  2
D124
 70
64
 10
0.0
 20
0.0
  3
D124
  0
POLYLINE
  8
0
 66
1
 10
0.0
 20
0.0
 40
0
 41
0
 70
1
  0
VERTEX
  8
0
 10
0.850900
 20
1.051560
 42
0
  0
VERTEX
  8
0
 10
-0.850900
 20
1.051560
 42
0
  0
VERTEX
  8
0
 10
-0.850900
 20
-1.051560
 42
0
  0
VERTEX
  8
0
 10
0.850900
 20
-1.051560
 42
0
  0
SEQEND
  8
0
 0
ENDBLK
  8
0
  0
BLOCK
  8
0
  2
D125
 70
64
 10
0.0
 20
0.0
  3
D125
  0
CIRCLE
  8
0
 10
0.000000
 20
0.000000
 40
1.351597
 0
ENDBLK
  8
0
  0
BLOCK
  8
0
  2
D126
 70
64
 10
0.0
 20
0.0
  3
D126
  0
CIRCLE
  8
0
 10
0.000000
 20
0.000000
 40
1.101598
 0
ENDBLK
  8
0
  0
BLOCK
  8
0
  2
D127
 70
64
 10
0.0
 20
0.0
  3
D127
  0
CIRCLE
  8
0
 10
0.000000
 20
0.000000
 40
1.001598
 0
ENDBLK
  8
0
  0
BLOCK
  8
0
  2
D128
 70
64
 10
0.0
 20
0.0
  3
D128
  0
CIRCLE
  8
0
 10
0.000000
 20
0.000000
 40
0.012700
 0
ENDBLK
  8
0
  0
BLOCK
  8
0
  2
D129
 70
64
 10
0.0
 20
0.0
  3
D129
  0
POLYLINE
  8
0
 66
1
 10
0.0
 20
0.0
 40
0
 41
0
 70
1
  0
VERTEX
  8
0
 10
0.449580
 20
0.497840
 42
0
  0
VERTEX
  8
0
 10
-0.449580
 20
0.497840
 42
0
  0
VERTEX
  8
0
 10
-0.449580
 20
-0.497840
 42
0
  0
VERTEX
  8
0
 10
0.449580
 20
-0.497840
 42
0
  0
SEQEND
  8
0
  0
CIRCLE
  8
0
 10
0.000000
 20
0.497840
 40
0.449999
  0
CIRCLE
  8
0
 10
0.000000
 20
-0.497840
 40
0.449999
 0
ENDBLK
  8
0
  0
BLOCK
  8
0
  2
D130
 70
64
 10
0.0
 20
0.0
  3
D130
  0
CIRCLE
  8
0
 10
0.000000
 20
0.000000
 40
0.349999
 0
ENDBLK
  8
0
  0
BLOCK
  8
0
  2
D131
 70
64
 10
0.0
 20
0.0
  3
D131
  0
CIRCLE
  8
0
 10
0.000000
 20
0.000000
 40
0.749999
 0
ENDBLK
  8
0
  0
BLOCK
  8
0
  2
D132
 70
64
 10
0.0
 20
0.0
  3
D132
  0
CIRCLE
  8
0
 10
0.000000
 20
0.000000
 40
0.849998
 0
ENDBLK
  8
0
  0
BLOCK
  8
0
  2
D133
 70
64
 10
0.0
 20
0.0
  3
D133
  0
CIRCLE
  8
0
 10
0.000000
 20
0.000000
 40
0.499999
 0
ENDBLK
  8
0
  0
BLOCK
  8
0
  2
D134
 70
64
 10
0.0
 20
0.0
  3
D134
  0
CIRCLE
  8
0
 10
0.000000
 20
0.000000
 40
0.100000
 0
ENDBLK
  8
0
  0
BLOCK
  8
0
  2
D135
 70
64
 10
0.0
 20
0.0
  3
D135
  0
CIRCLE
  8
0
 10
0.000000
 20
0.000000
 40
0.150000
 0
ENDBLK
  8
0
  0
BLOCK
  8
0
  2
D136
 70
64
 10
0.0
 20
0.0
  3
D136
  0
CIRCLE
  8
0
 10
0.000000
 20
0.000000
 40
1.299997
 0
ENDBLK
  8
0
  0
BLOCK
  8
0
  2
D138
 70
64
 10
0.0
 20
0.0
  3
D138
  0
CIRCLE
  8
0
 10
0.000000
 20
0.000000
 40
0.084665
 0
ENDBLK
  8
0
  0
BLOCK
  8
0
  2
D1010
 70
64
 10
0.0
 20
0.0
  3
D1010
 0
ENDBLK
  8
0
  0
ENDSEC
  0
SECTION
  2
ENTITIES
  0
POLYLINE
  8
gbr
 62
8
 40
0.000000
 41
0.000000
 66
  1
  0
VERTEX
  8
gbr
 10
75.775152
 20
52.250115
  0
VERTEX
  8
gbr
 10
75.025150
 20
52.250115
  0
VERTEX
  8
gbr
 10
75.025150
 20
53.250117
  0
VERTEX
  8
gbr
 10
75.775152
 20
53.250117
  0
VERTEX
  8
gbr
 10
75.775152
 20
52.250115
  0
SEQEND
  8
gbr
  0
POLYLINE
  8
gbr
 62
8
 40
0.000000
 41
0.000000
 66
  1
  0
VERTEX
  8
gbr
 10
75.400151
 20
52.000104
  0
VERTEX
  8
gbr
 10
75.025150
 20
52.250105
  0
VERTEX
  8
gbr
 10
75.775152
 20
52.250105
  0
VERTEX
  8
gbr
 10
75.400151
 20
52.000104
  0
SEQEND
  8
gbr
  0
POLYLINE
  8
gbr
 62
8
 40
0.000000
 41
0.000000
 66
  1
  0
VERTEX
  8
gbr
 10
68.400157
 20
49.808120
  0
VERTEX
  8
gbr
 10
67.200154
 20
49.808120
  0
VERTEX
  8
gbr
 10
67.200154
 20
51.500123
  0
VERTEX
  8
gbr
 10
68.400157
 20
51.500123
  0
VERTEX
  8
gbr
 10
68.400157
 20
49.808120
  0
SEQEND
  8
gbr
  0
POLYLINE
  8
gbr
 62
8
 40
0.000000
 41
0.000000
 66
  1
  0
VERTEX
  8
gbr
 10
75.775152
 20
49.550099
  0
VERTEX
  8
gbr
 10
75.400151
 20
49.550099
  0
VERTEX
  8
gbr
 10
75.675151
 20
49.725099
  0
VERTEX
  8
gbr
 10
75.775152
 20
49.800100
  0
VERTEX
  8
gbr
 10
75.775152
 20
49.550099
  0
SEQEND
  8
gbr
  0
POLYLINE
  8
gbr
 62
8
 40
0.000000
 41
0.000000
 66
  1
  0
VERTEX
  8
gbr
 10
75.100150
 20
49.750100
  0
VERTEX
  8
gbr
 10
75.400151
 20
49.550099
  0
VERTEX
  8
gbr
 10
75.025150
 20
49.550099
  0
VERTEX
  8
gbr
 10
75.025150
 20
49.800100
  0
VERTEX
  8
gbr
 10
75.100150
 20
49.750100
  0
SEQEND
  8
gbr
  0
POLYLINE
  8
gbr
 62
8
 40
0.000000
 41
0.000000
 66
  1
  0
VERTEX
  8
gbr
 10
75.775152
 20
48.550087
  0
VERTEX
  8
gbr
 10
75.025150
 20
48.550087
  0
VERTEX
  8
gbr
 10
75.025150
 20
49.550089
  0
VERTEX
  8
gbr
 10
75.775152
 20
49.550089
  0
VERTEX
  8
gbr
 10
75.775152
 20
48.550087
  0
SEQEND
  8
gbr
  0
POLYLINE
  8
gbr
 62
8
 40
0.000000
 41
0.000000
 66
  1
  0
VERTEX
  8
gbr
 10
68.400157
 20
47.100074
  0
VERTEX
  8
gbr
 10
67.200154
 20
47.100074
  0
VERTEX
  8
gbr
 10
67.200154
 20
48.800088
  0
VERTEX
  8
gbr
 10
68.400157
 20
48.800088
  0
VERTEX
  8
gbr
 10
68.400157
 20
47.100074
  0
SEQEND
  8
gbr
  0
POLYLINE
  8
gbr
 62
8
 40
0.000000
 41
0.000000
 66
  1
  0
VERTEX
  8
gbr
 10
49.487579
 20
46.000102
  0
VERTEX
  8
gbr
 10
48.687597
 20
46.000102
  0
VERTEX
  8
gbr
 10
48.687597
 20
46.000092
  0
VERTEX
  8
gbr
 10
48.562597
 20
46.000092
  0
VERTEX
  8
gbr
 10
48.612597
 20
46.075092
  0
VERTEX
  8
gbr
 10
48.687577
 20
46.200062
  0
VERTEX
  8
gbr
 10
48.687577
 20
46.200122
  0
VERTEX
  8
gbr
 10
48.612597
 20
46.325093
  0
VERTEX
  8
gbr
 10
48.562597
 20
46.400093
  0
VERTEX
  8
gbr
 10
48.687577
 20
46.400093
  0
VERTEX
  8
gbr
 10
48.687577
 20
46.400103
  0
VERTEX
  8
gbr
 10
49.487579
 20
46.400103
  0
VERTEX
  8
gbr
 10
49.487579
 20
46.000102
  0
SEQEND
  8
gbr
  0
POLYLINE
  8
gbr
 62
8
 40
0.000000
 41
0.000000
 66
  1
  0
VERTEX
  8
gbr
 10
47.187604
 20
46.400063
  0
VERTEX
  8
gbr
 10
47.287595
 20
46.200092
  0
VERTEX
  8
gbr
 10
47.187604
 20
46.000122
  0
VERTEX
  8
gbr
 10
47.187604
 20
46.000102
  0
VERTEX
  8
gbr
 10
47.187594
 20
46.000102
  0
VERTEX
  8
gbr
 10
47.187594
 20
46.000092
  0
VERTEX
  8
gbr
 10
47.187594
 20
46.000102
  0
VERTEX
  8
gbr
 10
46.387603
 20
46.000102
  0
VERTEX
  8
gbr
 10
46.387603
 20
46.400103
  0
VERTEX
  8
gbr
 10
47.187604
 20
46.400103
  0
VERTEX
  8
gbr
 10
47.187604
 20
46.400063
  0
SEQEND
  8
gbr
  0
POLYLINE
  8
gbr
 62
8
 40
0.000000
 41
0.000000
 66
  1
  0
VERTEX
  8
gbr
 10
74.750150
 20
45.675081
  0
VERTEX
  8
gbr
 10
75.750142
 20
45.675081
  0
VERTEX
  8
gbr
 10
75.750142
 20
44.925080
  0
VERTEX
  8
gbr
 10
74.750140
 20
44.925080
  0
VERTEX
  8
gbr
 10
74.750140
 20
44.925090
  0
VERTEX
  8
gbr
 10
74.500149
 20
44.925090
  0
VERTEX
  8
gbr
 10
74.550149
 20
45.000090
  0
VERTEX
  8
gbr
 10
74.750140
 20
45.300071
  0
VERTEX
  8
gbr
 10
74.750140
 20
45.300111
  0
VERTEX
  8
gbr
 10
74.575149
 20
45.575091
  0
VERTEX
  8
gbr
 10
74.500149
 20
45.675091
  0
VERTEX
  8
gbr
 10
74.750150
 20
45.675091
  0
VERTEX
  8
gbr
 10
74.750150
 20
45.675081
  0
SEQEND
  8
gbr
  0
POLYLINE
  8
gbr
 62
8
 40
0.000000
 41
0.000000
 66
  1
  0
VERTEX
  8
gbr
 10
72.050154
 20
45.675081
  0
VERTEX
  8
gbr
 10
72.050164
 20
45.675081
  0
VERTEX
  8
gbr
 10
72.050164
 20
45.675061
  0
VERTEX
  8
gbr
 10
72.300145
 20
45.300091
  0
VERTEX
  8
gbr
 10
72.050164
 20
44.925130
  0
VERTEX
  8
gbr
 10
72.050164
 20
44.925080
  0
VERTEX
  8
gbr
 10
71.050162
 20
44.925080
  0
VERTEX
  8
gbr
 10
71.050162
 20
45.675081
  0
VERTEX
  8
gbr
 10
72.050144
 20
45.675081
  0
VERTEX
  8
gbr
 10
72.050144
 20
45.675091
  0
VERTEX
  8
gbr
 10
72.050154
 20
45.675081
  0
SEQEND
  8
gbr
  0
POLYLINE
  8
gbr
 62
8
 40
0.000000
 41
0.000000
 66
  1
  0
VERTEX
  8
gbr
 10
80.200150
 20
36.150062
  0
VERTEX
  8
gbr
 10
78.508147
 20
36.150062
  0
VERTEX
  8
gbr
 10
78.508147
 20
37.350065
  0
VERTEX
  8
gbr
 10
80.200150
 20
37.350065
  0
VERTEX
  8
gbr
 10
80.200150
 20
36.150062
  0
SEQEND
  8
gbr
  0
POLYLINE
  8
gbr
 62
8
 40
0.000000
 41
0.000000
 66
  1
  0
VERTEX
  8
gbr
 10
77.500165
 20
36.150062
  0
VERTEX
  8
gbr
 10
75.800152
 20
36.150062
  0
VERTEX
  8
gbr
 10
75.800152
 20
37.350065
  0
VERTEX
  8
gbr
 10
77.500165
 20
37.350065
  0
VERTEX
  8
gbr
 10
77.500165
 20
36.150062
  0
SEQEND
  8
gbr
  0
POLYLINE
  8
gbr
 62
8
 40
0.000000
 41
0.000000
 66
  1
  0
VERTEX
  8
gbr
 10
79.350139
 20
33.875088
  0
VERTEX
  8
gbr
 10
78.350157
 20
33.875088
  0
VERTEX
  8
gbr
 10
78.350157
 20
33.875068
  0
VERTEX
  8
gbr
 10
78.100156
 20
33.875068
  0
VERTEX
  8
gbr
 10
78.150156
 20
33.950068
  0
VERTEX
  8
gbr
 10
78.350137
 20
34.250039
  0
VERTEX
  8
gbr
 10
78.350137
 20
34.250099
  0
VERTEX
  8
gbr
 10
78.175156
 20
34.525069
  0
VERTEX
  8
gbr
 10
78.100156
 20
34.625069
  0
VERTEX
  8
gbr
 10
78.350137
 20
34.625069
  0
VERTEX
  8
gbr
 10
78.350137
 20
34.625089
  0
VERTEX
  8
gbr
 10
79.350139
 20
34.625089
  0
VERTEX
  8
gbr
 10
79.350139
 20
33.875088
  0
SEQEND
  8
gbr
  0
POLYLINE
  8
gbr
 62
8
 40
0.000000
 41
0.000000
 66
  1
  0
VERTEX
  8
gbr
 10
75.650171
 20
34.625039
  0
VERTEX
  8
gbr
 10
75.900152
 20
34.250069
  0
VERTEX
  8
gbr
 10
75.650171
 20
33.875098
  0
VERTEX
  8
gbr
 10
75.650171
 20
33.875088
  0
VERTEX
  8
gbr
 10
75.650161
 20
33.875088
  0
VERTEX
  8
gbr
 10
75.650151
 20
33.875068
  0
VERTEX
  8
gbr
 10
75.650151
 20
33.875088
  0
VERTEX
  8
gbr
 10
74.650159
 20
33.875088
  0
VERTEX
  8
gbr
 10
74.650159
 20
34.625089
  0
VERTEX
  8
gbr
 10
75.650171
 20
34.625089
  0
VERTEX
  8
gbr
 10
75.650171
 20
34.625039
  0
SEQEND
  8
gbr
  0
INSERT
  8
gbr
  2
D10
 10
32.850066
 20
52.500105
 41
1.0
 42
1.0
 43
1.0
 50
0.0
  0
INSERT
  8
gbr
  2
D10
 10
32.850066
 20
52.000104
 41
1.0
 42
1.0
 43
1.0
 50
0.0
  0
INSERT
  8
gbr
  2
D10
 10
32.850066
 20
51.500103
 41
1.0
 42
1.0
 43
1.0
 50
0.0
  0
INSERT
  8
gbr
  2
D10
 10
32.850066
 20
51.000102
 41
1.0
 42
1.0
 43
1.0
 50
0.0
  0
INSERT
  8
gbr
  2
D10
 10
32.850066
 20
50.500101
 41
1.0
 42
1.0
 43
1.0
 50
0.0
  0
INSERT
  8
gbr
  2
D10
 10
32.850066
 20
50.000100
 41
1.0
 42
1.0
 43
1.0
 50
0.0
  0
INSERT
  8
gbr
  2
D10
 10
32.850066
 20
49.500099
 41
1.0
 42
1.0
 43
1.0
 50
0.0
  0
INSERT
  8
gbr
  2
D10
 10
32.850066
 20
49.000098
 41
1.0
 42
1.0
 43
1.0
 50
0.0
  0
INSERT
  8
gbr
  2
D10
 10
37.650075
 20
49.000098
 41
1.0
 42
1.0
 43
1.0
 50
0.0
  0
INSERT
  8
gbr
  2
D10
 10
37.650075
 20
49.500099
 41
1.0
 42
1.0
 43
1.0
 50
0.0
  0
INSERT
  8
gbr
  2
D10
 10
37.650075
 20
50.000100
 41
1.0
 42
1.0
 43
1.0
 50
0.0
  0
INSERT
  8
gbr
  2
D10
 10
37.650075
 20
50.500101
 41
1.0
 42
1.0
 43
1.0
 50
0.0
  0
INSERT
  8
gbr
  2
D10
 10
37.650075
 20
51.000102
 41
1.0
 42
1.0
 43
1.0
 50
0.0
  0
INSERT
  8
gbr
  2
D10
 10
37.650075
 20
51.500103
 41
1.0
 42
1.0
 43
1.0
 50
0.0
  0
INSERT
  8
gbr
  2
D10
 10
37.650075
 20
52.000104
 41
1.0
 42
1.0
 43
1.0
 50
0.0
  0
INSERT
  8
gbr
  2
D10
 10
37.650075
 20
52.500105
 41
1.0
 42
1.0
 43
1.0
 50
0.0
  0
INSERT
  8
gbr
  2
D10
 10
37.900076
 20
45.400091
 41
1.0
 42
1.0
 43
1.0
 50
0.0
  0
INSERT
  8
gbr
  2
D10
 10
37.900076
 20
44.900090
 41
1.0
 42
1.0
 43
1.0
 50
0.0
  0
INSERT
  8
gbr
  2
D10
 10
37.900076
 20
44.400089
 41
1.0
 42
1.0
 43
1.0
 50
0.0
  0
INSERT
  8
gbr
  2
D10
 10
37.900076
 20
43.900088
 41
1.0
 42
1.0
 43
1.0
 50
0.0
  0
INSERT
  8
gbr
  2
D10
 10
37.900076
 20
43.400087
 41
1.0
 42
1.0
 43
1.0
 50
0.0
  0
INSERT
  8
gbr
  2
D10
 10
37.900076
 20
42.900086
 41
1.0
 42
1.0
 43
1.0
 50
0.0
  0
INSERT
  8
gbr
  2
D10
 10
37.900076
 20
42.400085
 41
1.0
 42
1.0
 43
1.0
 50
0.0
  0
INSERT
  8
gbr
  2
D10
 10
37.900076
 20
41.900084
 41
1.0
 42
1.0
 43
1.0
 50
0.0
  0
INSERT
  8
gbr
  2
D10
 10
33.100066
 20
41.900084
 41
1.0
 42
1.0
 43
1.0
 50
0.0
  0
INSERT
  8
gbr
  2
D10
 10
33.100066
 20
42.400085
 41
1.0
 42
1.0
 43
1.0
 50
0.0
  0
INSERT
  8
gbr
  2
D10
 10
33.100066
 20
42.900086
 41
1.0
 42
1.0
 43
1.0
 50
0.0
  0
INSERT
  8
gbr
  2
D10
 10
33.100066
 20
43.400087
 41
1.0
 42
1.0
 43
1.0
 50
0.0
  0
INSERT
  8
gbr
  2
D10
 10
33.100066
 20
43.900088
 41
1.0
 42
1.0
 43
1.0
 50
0.0
  0
INSERT
  8
gbr
  2
D10
 10
33.100066
 20
44.400089
 41
1.0
 42
1.0
 43
1.0
 50
0.0
  0
INSERT
  8
gbr
  2
D10
 10
33.100066
 20
44.900090
 41
1.0
 42
1.0
 43
1.0
 50
0.0
  0
INSERT
  8
gbr
  2
D10
 10
33.100066
 20
45.400091
 41
1.0
 42
1.0
 43
1.0
 50
0.0
  0
INSERT
  8
gbr
  2
D10
 10
75.850152
 20
67.800136
 41
1.0
 42
1.0
 43
1.0
 50
0.0
  0
INSERT
  8
gbr
  2
D10
 10
75.850152
 20
67.300135
 41
1.0
 42
1.0
 43
1.0
 50
0.0
  0
INSERT
  8
gbr
  2
D10
 10
75.850152
 20
66.800134
 41
1.0
 42
1.0
 43
1.0
 50
0.0
  0
INSERT
  8
gbr
  2
D10
 10
75.850152
 20
66.300133
 41
1.0
 42
1.0
 43
1.0
 50
0.0
  0
INSERT
  8
gbr
  2
D10
 10
75.850152
 20
65.800132
 41
1.0
 42
1.0
 43
1.0
 50
0.0
  0
INSERT
  8
gbr
  2
D10
 10
75.850152
 20
65.300131
 41
1.0
 42
1.0
 43
1.0
 50
0.0
  0
INSERT
  8
gbr
  2
D10
 10
75.850152
 20
64.800130
 41
1.0
 42
1.0
 43
1.0
 50
0.0
  0
INSERT
  8
gbr
  2
D10
 10
75.850152
 20
64.300129
 41
1.0
 42
1.0
 43
1.0
 50
0.0
  0
INSERT
  8
gbr
  2
D10
 10
80.650161
 20
64.300129
 41
1.0
 42
1.0
 43
1.0
 50
0.0
  0
INSERT
  8
gbr
  2
D10
 10
80.650161
 20
64.800130
 41
1.0
 42
1.0
 43
1.0
 50
0.0
  0
INSERT
  8
gbr
  2
D10
 10
80.650161
 20
65.300131
 41
1.0
 42
1.0
 43
1.0
 50
0.0
  0
INSERT
  8
gbr
  2
D10
 10
80.650161
 20
65.800132
 41
1.0
 42
1.0
 43
1.0
 50
0.0
  0
INSERT
  8
gbr
  2
D10
 10
80.650161
 20
66.300133
 41
1.0
 42
1.0
 43
1.0
 50
0.0
  0
INSERT
  8
gbr
  2
D10
 10
80.650161
 20
66.800134
 41
1.0
 42
1.0
 43
1.0
 50
0.0
  0
INSERT
  8
gbr
  2
D10
 10
80.650161
 20
67.300135
 41
1.0
 42
1.0
 43
1.0
 50
0.0
  0
INSERT
  8
gbr
  2
D10
 10
80.650161
 20
67.800136
 41
1.0
 42
1.0
 43
1.0
 50
0.0
  0
INSERT
  8
gbr
  2
D10
 10
80.650161
 20
59.800120
 41
1.0
 42
1.0
 43
1.0
 50
0.0
  0
INSERT
  8
gbr
  2
D10
 10
80.650161
 20
59.300119
 41
1.0
 42
1.0
 43
1.0
 50
0.0
  0
INSERT
  8
gbr
  2
D10
 10
80.650161
 20
58.800118
 41
1.0
 42
1.0
 43
1.0
 50
0.0
  0
INSERT
  8
gbr
  2
D10
 10
80.650161
 20
58.300117
 41
1.0
 42
1.0
 43
1.0
 50
0.0
  0
INSERT
  8
gbr
  2
D10
 10
80.650161
 20
57.800116
 41
1.0
 42
1.0
 43
1.0
 50
0.0
  0
INSERT
  8
gbr
  2
D10
 10
80.650161
 20
57.300115
 41
1.0
 42
1.0
 43
1.0
 50
0.0
  0
INSERT
  8
gbr
  2
D10
 10
80.650161
 20
56.800114
 41
1.0
 42
1.0
 43
1.0
 50
0.0
  0
INSERT
  8
gbr
  2
D10
 10
80.650161
 20
56.300113
 41
1.0
 42
1.0
 43
1.0
 50
0.0
  0
INSERT
  8
gbr
  2
D10
 10
75.850152
 20
56.300113
 41
1.0
 42
1.0
 43
1.0
 50
0.0
  0
INSERT
  8
gbr
  2
D10
 10
75.850152
 20
56.800114
 41
1.0
 42
1.0
 43
1.0
 50
0.0
  0
INSERT
  8
gbr
  2
D10
 10
75.850152
 20
57.300115
 41
1.0
 42
1.0
 43
1.0
 50
0.0
  0
INSERT
  8
gbr
  2
D10
 10
75.850152
 20
57.800116
 41
1.0
 42
1.0
 43
1.0
 50
0.0
  0
INSERT
  8
gbr
  2
D10
 10
75.850152
 20
58.300117
 41
1.0
 42
1.0
 43
1.0
 50
0.0
  0
INSERT
  8
gbr
  2
D10
 10
75.850152
 20
58.800118
 41
1.0
 42
1.0
 43
1.0
 50
0.0
  0
INSERT
  8
gbr
  2
D10
 10
75.850152
 20
59.300119
 41
1.0
 42
1.0
 43
1.0
 50
0.0
  0
INSERT
  8
gbr
  2
D10
 10
75.850152
 20
59.800120
 41
1.0
 42
1.0
 43
1.0
 50
0.0
  0
INSERT
  8
gbr
  2
D11
 10
33.500067
 20
48.350097
 41
1.0
 42
1.0
 43
1.0
 50
0.0
  0
INSERT
  8
gbr
  2
D11
 10
34.000068
 20
48.350097
 41
1.0
 42
1.0
 43
1.0
 50
0.0
  0
INSERT
  8
gbr
  2
D11
 10
34.500069
 20
48.350097
 41
1.0
 42
1.0
 43
1.0
 50
0.0
  0
INSERT
  8
gbr
  2
D11
 10
35.000070
 20
48.350097
 41
1.0
 42
1.0
 43
1.0
 50
0.0
  0
INSERT
  8
gbr
  2
D11
 10
35.500071
 20
48.350097
 41
1.0
 42
1.0
 43
1.0
 50
0.0
  0
INSERT
  8
gbr
  2
D11
 10
36.000072
 20
48.350097
 41
1.0
 42
1.0
 43
1.0
 50
0.0
  0
INSERT
  8
gbr
  2
D11
 10
36.500073
 20
48.350097
 41
1.0
 42
1.0
 43
1.0
 50
0.0
  0
INSERT
  8
gbr
  2
D11
 10
37.000074
 20
48.350097
 41
1.0
 42
1.0
 43
1.0
 50
0.0
  0
INSERT
  8
gbr
  2
D11
 10
37.000074
 20
53.150106
 41
1.0
 42
1.0
 43
1.0
 50
0.0
  0
INSERT
  8
gbr
  2
D11
 10
36.500073
 20
53.150106
 41
1.0
 42
1.0
 43
1.0
 50
0.0
  0
INSERT
  8
gbr
  2
D11
 10
36.000072
 20
53.150106
 41
1.0
 42
1.0
 43
1.0
 50
0.0
  0
INSERT
  8
gbr
  2
D11
 10
35.500071
 20
53.150106
 41
1.0
 42
1.0
 43
1.0
 50
0.0
  0
INSERT
  8
gbr
  2
D11
 10
35.000070
 20
53.150106
 41
1.0
 42
1.0
 43
1.0
 50
0.0
  0
INSERT
  8
gbr
  2
D11
 10
34.500069
 20
53.150106
 41
1.0
 42
1.0
 43
1.0
 50
0.0
  0
INSERT
  8
gbr
  2
D11
 10
34.000068
 20
53.150106
 41
1.0
 42
1.0
 43
1.0
 50
0.0
  0
INSERT
  8
gbr
  2
D11
 10
33.500067
 20
53.150106
 41
1.0
 42
1.0
 43
1.0
 50
0.0
  0
INSERT
  8
gbr
  2
D11
 10
33.750068
 20
46.050092
 41
1.0
 42
1.0
 43
1.0
 50
0.0
  0
INSERT
  8
gbr
  2
D11
 10
34.250069
 20
46.050092
 41
1.0
 42
1.0
 43
1.0
 50
0.0
  0
INSERT
  8
gbr
  2
D11
 10
34.750070
 20
46.050092
 41
1.0
 42
1.0
 43
1.0
 50
0.0
  0
INSERT
  8
gbr
  2
D11
 10
35.250071
 20
46.050092
 41
1.0
 42
1.0
 43
1.0
 50
0.0
  0
INSERT
  8
gbr
  2
D11
 10
35.750072
 20
46.050092
 41
1.0
 42
1.0
 43
1.0
 50
0.0
  0
INSERT
  8
gbr
  2
D11
 10
36.250073
 20
46.050092
 41
1.0
 42
1.0
 43
1.0
 50
0.0
  0
INSERT
  8
gbr
  2
D11
 10
36.750074
 20
46.050092
 41
1.0
 42
1.0
 43
1.0
 50
0.0
  0
INSERT
  8
gbr
  2
D11
 10
37.250075
 20
46.050092
 41
1.0
 42
1.0
 43
1.0
 50
0.0
  0
INSERT
  8
gbr
  2
D11
 10
37.250075
 20
41.250083
 41
1.0
 42
1.0
 43
1.0
 50
0.0
  0
INSERT
  8
gbr
  2
D11
 10
36.750074
 20
41.250083
 41
1.0
 42
1.0
 43
1.0
 50
0.0
  0
INSERT
  8
gbr
  2
D11
 10
36.250073
 20
41.250083
 41
1.0
 42
1.0
 43
1.0
 50
0.0
  0
INSERT
  8
gbr
  2
D11
 10
35.750072
 20
41.250083
 41
1.0
 42
1.0
 43
1.0
 50
0.0
  0
INSERT
  8
gbr
  2
D11
 10
35.250071
 20
41.250083
 41
1.0
 42
1.0
 43
1.0
 50
0.0
  0
INSERT
  8
gbr
  2
D11
 10
34.750070
 20
41.250083
 41
1.0
 42
1.0
 43
1.0
 50
0.0
  0
INSERT
  8
gbr
  2
D11
 10
34.250069
 20
41.250083
 41
1.0
 42
1.0
 43
1.0
 50
0.0
  0
INSERT
  8
gbr
  2
D11
 10
33.750068
 20
41.250083
 41
1.0
 42
1.0
 43
1.0
 50
0.0
  0
INSERT
  8
gbr
  2
D11
 10
76.500153
 20
63.650127
 41
1.0
 42
1.0
 43
1.0
 50
0.0
  0
INSERT
  8
gbr
  2
D11
 10
77.000154
 20
63.650127
 41
1.0
 42
1.0
 43
1.0
 50
0.0
  0
INSERT
  8
gbr
  2
D11
 10
77.500155
 20
63.650127
 41
1.0
 42
1.0
 43
1.0
 50
0.0
  0
INSERT
  8
gbr
  2
D11
 10
78.000156
 20
63.650127
 41
1.0
 42
1.0
 43
1.0
 50
0.0
  0
INSERT
  8
gbr
  2
D11
 10
78.500157
 20
63.650127
 41
1.0
 42
1.0
 43
1.0
 50
0.0
  0
INSERT
  8
gbr
  2
D11
 10
79.000158
 20
63.650127
 41
1.0
 42
1.0
 43
1.0
 50
0.0
  0
INSERT
  8
gbr
  2
D11
 10
79.500159
 20
63.650127
 41
1.0
 42
1.0
 43
1.0
 50
0.0
  0
INSERT
  8
gbr
  2
D11
 10
80.000160
 20
63.650127
 41
1.0
 42
1.0
 43
1.0
 50
0.0
  0
INSERT
  8
gbr
  2
D11
 10
80.000160
 20
68.450137
 41
1.0
 42
1.0
 43
1.0
 50
0.0
  0
INSERT
  8
gbr
  2
D11
 10
79.500159
 20
68.450137
 41
1.0
 42
1.0
 43
1.0
 50
0.0
  0
INSERT
  8
gbr
  2
D11
 10
79.000158
 20
68.450137
 41
1.0
 42
1.0
 43
1.0
 50
0.0
  0
INSERT
  8
gbr
  2
D11
 10
78.500157
 20
68.450137
 41
1.0
 42
1.0
 43
1.0
 50
0.0
  0
INSERT
  8
gbr
  2
D11
 10
78.000156
 20
68.450137
 41
1.0
 42
1.0
 43
1.0
 50
0.0
  0
INSERT
  8
gbr
  2
D11
 10
77.500155
 20
68.450137
 41
1.0
 42
1.0
 43
1.0
 50
0.0
  0
INSERT
  8
gbr
  2
D11
 10
77.000154
 20
68.450137
 41
1.0
 42
1.0
 43
1.0
 50
0.0
  0
INSERT
  8
gbr
  2
D11
 10
76.500153
 20
68.450137
 41
1.0
 42
1.0
 43
1.0
 50
0.0
  0
INSERT
  8
gbr
  2
D11
 10
76.500153
 20
60.450121
 41
1.0
 42
1.0
 43
1.0
 50
0.0
  0
INSERT
  8
gbr
  2
D11
 10
77.000154
 20
60.450121
 41
1.0
 42
1.0
 43
1.0
 50
0.0
  0
INSERT
  8
gbr
  2
D11
 10
77.500155
 20
60.450121
 41
1.0
 42
1.0
 43
1.0
 50
0.0
  0
INSERT
  8
gbr
  2
D11
 10
78.000156
 20
60.450121
 41
1.0
 42
1.0
 43
1.0
 50
0.0
  0
INSERT
  8
gbr
  2
D11
 10
78.500157
 20
60.450121
 41
1.0
 42
1.0
 43
1.0
 50
0.0
  0
INSERT
  8
gbr
  2
D11
 10
79.000158
 20
60.450121
 41
1.0
 42
1.0
 43
1.0
 50
0.0
  0
INSERT
  8
gbr
  2
D11
 10
79.500159
 20
60.450121
 41
1.0
 42
1.0
 43
1.0
 50
0.0
  0
INSERT
  8
gbr
  2
D11
 10
80.000160
 20
60.450121
 41
1.0
 42
1.0
 43
1.0
 50
0.0
  0
INSERT
  8
gbr
  2
D11
 10
80.000160
 20
55.650111
 41
1.0
 42
1.0
 43
1.0
 50
0.0
  0
INSERT
  8
gbr
  2
D11
 10
79.500159
 20
55.650111
 41
1.0
 42
1.0
 43
1.0
 50
0.0
  0
INSERT
  8
gbr
  2
D11
 10
79.000158
 20
55.650111
 41
1.0
 42
1.0
 43
1.0
 50
0.0
  0
INSERT
  8
gbr
  2
D11
 10
78.500157
 20
55.650111
 41
1.0
 42
1.0
 43
1.0
 50
0.0
  0
INSERT
  8
gbr
  2
D11
 10
78.000156
 20
55.650111
 41
1.0
 42
1.0
 43
1.0
 50
0.0
  0
INSERT
  8
gbr
  2
D11
 10
77.500155
 20
55.650111
 41
1.0
 42
1.0
 43
1.0
 50
0.0
  0
INSERT
  8
gbr
  2
D11
 10
77.000154
 20
55.650111
 41
1.0
 42
1.0
 43
1.0
 50
0.0
  0
INSERT
  8
gbr
  2
D11
 10
76.500153
 20
55.650111
 41
1.0
 42
1.0
 43
1.0
 50
0.0
  0
INSERT
  8
gbr
  2
D12
 10
35.250071
 20
50.750102
 41
1.0
 42
1.0
 43
1.0
 50
0.0
  0
INSERT
  8
gbr
  2
D12
 10
35.500071
 20
43.650087
 41
1.0
 42
1.0
 43
1.0
 50
0.0
  0
INSERT
  8
gbr
  2
D12
 10
78.250157
 20
66.050132
 41
1.0
 42
1.0
 43
1.0
 50
0.0
  0
INSERT
  8
gbr
  2
D12
 10
78.250157
 20
58.050116
 41
1.0
 42
1.0
 43
1.0
 50
0.0
  0
INSERT
  8
gbr
  2
D13
 10
79.500179
 20
49.075078
 41
1.0
 42
1.0
 43
1.0
 50
0.0
  0
INSERT
  8
gbr
  2
D13
 10
79.500179
 20
52.925116
 41
1.0
 42
1.0
 43
1.0
 50
0.0
  0
INSERT
  8
gbr
  2
D14
 10
27.375055
 20
73.410157
 41
1.0
 42
1.0
 43
1.0
 50
0.0
  0
INSERT
  8
gbr
  2
D14
 10
27.375055
 20
72.140154
 41
1.0
 42
1.0
 43
1.0
 50
0.0
  0
INSERT
  8
gbr
  2
D14
 10
27.375055
 20
70.870152
 41
1.0
 42
1.0
 43
1.0
 50
0.0
  0
INSERT
  8
gbr
  2
D14
 10
27.375055
 20
69.600149
 41
1.0
 42
1.0
 43
1.0
 50
0.0
  0
INSERT
  8
gbr
  2
D14
 10
27.375055
 20
68.330147
 41
1.0
 42
1.0
 43
1.0
 50
0.0
  0
INSERT
  8
gbr
  2
D14
 10
27.375055
 20
67.060144
 41
1.0
 42
1.0
 43
1.0
 50
0.0
  0
INSERT
  8
gbr
  2
D14
 10
27.375055
 20
65.790142
 41
1.0
 42
1.0
 43
1.0
 50
0.0
  0
INSERT
  8
gbr
  2
D14
 10
32.825046
 20
73.410157
 41
1.0
 42
1.0
 43
1.0
 50
0.0
  0
INSERT
  8
gbr
  2
D14
 10
32.825046
 20
72.140154
 41
1.0
 42
1.0
 43
1.0
 50
0.0
  0
INSERT
  8
gbr
  2
D14
 10
32.825046
 20
70.870152
 41
1.0
 42
1.0
 43
1.0
 50
0.0
  0
INSERT
  8
gbr
  2
D14
 10
32.825046
 20
69.600149
 41
1.0
 42
1.0
 43
1.0
 50
0.0
  0
INSERT
  8
gbr
  2
D14
 10
32.825046
 20
68.330147
 41
1.0
 42
1.0
 43
1.0
 50
0.0
  0
INSERT
  8
gbr
  2
D14
 10
32.825046
 20
67.060144
 41
1.0
 42
1.0
 43
1.0
 50
0.0
  0
INSERT
  8
gbr
  2
D14
 10
32.825046
 20
65.790142
 41
1.0
 42
1.0
 43
1.0
 50
0.0
  0
INSERT
  8
gbr
  2
D15
 10
56.150112
 20
44.450089
 41
1.0
 42
1.0
 43
1.0
 50
0.0
  0
INSERT
  8
gbr
  2
D15
 10
56.150112
 20
43.950118
 41
1.0
 42
1.0
 43
1.0
 50
0.0
  0
INSERT
  8
gbr
  2
D15
 10
56.150112
 20
43.450087
 41
1.0
 42
1.0
 43
1.0
 50
0.0
  0
INSERT
  8
gbr
  2
D15
 10
56.150112
 20
42.950066
 41
1.0
 42
1.0
 43
1.0
 50
0.0
  0
INSERT
  8
gbr
  2
D15
 10
56.150112
 20
42.450085
 41
1.0
 42
1.0
 43
1.0
 50
0.0
  0
INSERT
  8
gbr
  2
D15
 10
56.150112
 20
41.950064
 41
1.0
 42
1.0
 43
1.0
 50
0.0
  0
INSERT
  8
gbr
  2
D15
 10
56.150112
 20
41.450093
 41
1.0
 42
1.0
 43
1.0
 50
0.0
  0
INSERT
  8
gbr
  2
D15
 10
56.150112
 20
40.950062
 41
1.0
 42
1.0
 43
1.0
 50
0.0
  0
INSERT
  8
gbr
  2
D15
 10
56.150112
 20
40.450091
 41
1.0
 42
1.0
 43
1.0
 50
0.0
  0
INSERT
  8
gbr
  2
D15
 10
56.150112
 20
39.950060
 41
1.0
 42
1.0
 43
1.0
 50
0.0
  0
INSERT
  8
gbr
  2
D15
 10
56.150112
 20
39.450089
 41
1.0
 42
1.0
 43
1.0
 50
0.0
  0
INSERT
  8
gbr
  2
D15
 10
56.150112
 20
38.950068
 41
1.0
 42
1.0
 43
1.0
 50
0.0
  0
INSERT
  8
gbr
  2
D15
 10
56.150112
 20
38.450087
 41
1.0
 42
1.0
 43
1.0
 50
0.0
  0
INSERT
  8
gbr
  2
D15
 10
56.150112
 20
37.950066
 41
1.0
 42
1.0
 43
1.0
 50
0.0
  0
INSERT
  8
gbr
  2
D15
 10
56.150112
 20
37.450085
 41
1.0
 42
1.0
 43
1.0
 50
0.0
  0
INSERT
  8
gbr
  2
D15
 10
56.150112
 20
36.950064
 41
1.0
 42
1.0
 43
1.0
 50
0.0
  0
INSERT
  8
gbr
  2
D15
 10
67.650135
 20
36.950064
 41
1.0
 42
1.0
 43
1.0
 50
0.0
  0
INSERT
  8
gbr
  2
D15
 10
67.650135
 20
37.450085
 41
1.0
 42
1.0
 43
1.0
 50
0.0
  0
INSERT
  8
gbr
  2
D15
 10
67.650135
 20
37.950066
 41
1.0
 42
1.0
 43
1.0
 50
0.0
  0
INSERT
  8
gbr
  2
D15
 10
67.650135
 20
38.450087
 41
1.0
 42
1.0
 43
1.0
 50
0.0
  0
INSERT
  8
gbr
  2
D15
 10
67.650135
 20
38.950068
 41
1.0
 42
1.0
 43
1.0
 50
0.0
  0
INSERT
  8
gbr
  2
D15
 10
67.650135
 20
39.450089
 41
1.0
 42
1.0
 43
1.0
 50
0.0
  0
INSERT
  8
gbr
  2
D15
 10
67.650135
 20
39.950060
 41
1.0
 42
1.0
 43
1.0
 50
0.0
  0
INSERT
  8
gbr
  2
D15
 10
67.650135
 20
40.450091
 41
1.0
 42
1.0
 43
1.0
 50
0.0
  0
INSERT
  8
gbr
  2
D15
 10
67.650135
 20
40.950062
 41
1.0
 42
1.0
 43
1.0
 50
0.0
  0
INSERT
  8
gbr
  2
D15
 10
67.650135
 20
41.450093
 41
1.0
 42
1.0
 43
1.0
 50
0.0
  0
INSERT
  8
gbr
  2
D15
 10
67.650135
 20
41.950064
 41
1.0
 42
1.0
 43
1.0
 50
0.0
  0
INSERT
  8
gbr
  2
D15
 10
67.650135
 20
42.450085
 41
1.0
 42
1.0
 43
1.0
 50
0.0
  0
INSERT
  8
gbr
  2
D15
 10
67.650135
 20
42.950066
 41
1.0
 42
1.0
 43
1.0
 50
0.0
  0
INSERT
  8
gbr
  2
D15
 10
67.650135
 20
43.450087
 41
1.0
 42
1.0
 43
1.0
 50
0.0
  0
INSERT
  8
gbr
  2
D15
 10
67.650135
 20
43.950118
 41
1.0
 42
1.0
 43
1.0
 50
0.0
  0
INSERT
  8
gbr
  2
D15
 10
67.650135
 20
44.450089
 41
1.0
 42
1.0
 43
1.0
 50
0.0
  0
INSERT
  8
gbr
  2
D16
 10
58.150116
 20
34.950060
 41
1.0
 42
1.0
 43
1.0
 50
0.0
  0
INSERT
  8
gbr
  2
D16
 10
58.650137
 20
34.950060
 41
1.0
 42
1.0
 43
1.0
 50
0.0
  0
INSERT
  8
gbr
  2
D16
 10
59.150118
 20
34.950060
 41
1.0
 42
1.0
 43
1.0
 50
0.0
  0
INSERT
  8
gbr
  2
D16
 10
59.650139
 20
34.950060
 41
1.0
 42
1.0
 43
1.0
 50
0.0
  0
INSERT
  8
gbr
  2
D16
 10
60.150110
 20
34.950060
 41
1.0
 42
1.0
 43
1.0
 50
0.0
  0
INSERT
  8
gbr
  2
D16
 10
60.650141
 20
34.950060
 41
1.0
 42
1.0
 43
1.0
 50
0.0
  0
INSERT
  8
gbr
  2
D16
 10
61.150112
 20
34.950060
 41
1.0
 42
1.0
 43
1.0
 50
0.0
  0
INSERT
  8
gbr
  2
D16
 10
61.650143
 20
34.950060
 41
1.0
 42
1.0
 43
1.0
 50
0.0
  0
INSERT
  8
gbr
  2
D16
 10
62.150114
 20
34.950060
 41
1.0
 42
1.0
 43
1.0
 50
0.0
  0
INSERT
  8
gbr
  2
D16
 10
62.650135
 20
34.950060
 41
1.0
 42
1.0
 43
1.0
 50
0.0
  0
INSERT
  8
gbr
  2
D16
 10
63.150116
 20
34.950060
 41
1.0
 42
1.0
 43
1.0
 50
0.0
  0
INSERT
  8
gbr
  2
D16
 10
63.650137
 20
34.950060
 41
1.0
 42
1.0
 43
1.0
 50
0.0
  0
INSERT
  8
gbr
  2
D16
 10
64.150118
 20
34.950060
 41
1.0
 42
1.0
 43
1.0
 50
0.0
  0
INSERT
  8
gbr
  2
D16
 10
64.650139
 20
34.950060
 41
1.0
 42
1.0
 43
1.0
 50
0.0
  0
INSERT
  8
gbr
  2
D16
 10
65.150110
 20
34.950060
 41
1.0
 42
1.0
 43
1.0
 50
0.0
  0
INSERT
  8
gbr
  2
D16
 10
65.650141
 20
34.950060
 41
1.0
 42
1.0
 43
1.0
 50
0.0
  0
INSERT
  8
gbr
  2
D16
 10
65.650141
 20
46.450093
 41
1.0
 42
1.0
 43
1.0
 50
0.0
  0
INSERT
  8
gbr
  2
D16
 10
65.150110
 20
46.450093
 41
1.0
 42
1.0
 43
1.0
 50
0.0
  0
INSERT
  8
gbr
  2
D16
 10
64.650139
 20
46.450093
 41
1.0
 42
1.0
 43
1.0
 50
0.0
  0
INSERT
  8
gbr
  2
D16
 10
64.150118
 20
46.450093
 41
1.0
 42
1.0
 43
1.0
 50
0.0
  0
INSERT
  8
gbr
  2
D16
 10
63.650137
 20
46.450093
 41
1.0
 42
1.0
 43
1.0
 50
0.0
  0
INSERT
  8
gbr
  2
D16
 10
63.150116
 20
46.450093
 41
1.0
 42
1.0
 43
1.0
 50
0.0
  0
INSERT
  8
gbr
  2
D16
 10
62.650135
 20
46.450093
 41
1.0
 42
1.0
 43
1.0
 50
0.0
  0
INSERT
  8
gbr
  2
D16
 10
62.150114
 20
46.450093
 41
1.0
 42
1.0
 43
1.0
 50
0.0
  0
INSERT
  8
gbr
  2
D16
 10
61.650143
 20
46.450093
 41
1.0
 42
1.0
 43
1.0
 50
0.0
  0
INSERT
  8
gbr
  2
D16
 10
61.150112
 20
46.450093
 41
1.0
 42
1.0
 43
1.0
 50
0.0
  0
INSERT
  8
gbr
  2
D16
 10
60.650141
 20
46.450093
 41
1.0
 42
1.0
 43
1.0
 50
0.0
  0
INSERT
  8
gbr
  2
D16
 10
60.150110
 20
46.450093
 41
1.0
 42
1.0
 43
1.0
 50
0.0
  0
INSERT
  8
gbr
  2
D16
 10
59.650139
 20
46.450093
 41
1.0
 42
1.0
 43
1.0
 50
0.0
  0
INSERT
  8
gbr
  2
D16
 10
59.150118
 20
46.450093
 41
1.0
 42
1.0
 43
1.0
 50
0.0
  0
INSERT
  8
gbr
  2
D16
 10
58.650137
 20
46.450093
 41
1.0
 42
1.0
 43
1.0
 50
0.0
  0
INSERT
  8
gbr
  2
D16
 10
58.150116
 20
46.450093
 41
1.0
 42
1.0
 43
1.0
 50
0.0
  0
INSERT
  8
gbr
  2
D17
 10
55.500131
 20
82.575155
 41
1.0
 42
1.0
 43
1.0
 50
0.0
  0
INSERT
  8
gbr
  2
D17
 10
55.500131
 20
76.625143
 41
1.0
 42
1.0
 43
1.0
 50
0.0
  0
INSERT
  8
gbr
  2
D17
 10
55.500131
 20
74.225148
 41
1.0
 42
1.0
 43
1.0
 50
0.0
  0
INSERT
  8
gbr
  2
D17
 10
55.500131
 20
68.275137
 41
1.0
 42
1.0
 43
1.0
 50
0.0
  0
INSERT
  8
gbr
  2
D20
 10
73.250137
 20
50.250091
 41
1.0
 42
1.0
 43
1.0
 50
0.0
  0
INSERT
  8
gbr
  2
D20
 10
73.250137
 20
53.050086
 41
1.0
 42
1.0
 43
1.0
 50
0.0
  0
INSERT
  8
gbr
  2
D21
 10
47.975106
 20
29.500079
 41
1.0
 42
1.0
 43
1.0
 50
0.0
  0
INSERT
  8
gbr
  2
D21
 10
47.275085
 20
40.600101
 41
1.0
 42
1.0
 43
1.0
 50
0.0
  0
INSERT
  8
gbr
  2
D21
 10
48.725117
 20
40.600101
 41
1.0
 42
1.0
 43
1.0
 50
0.0
  0
INSERT
  8
gbr
  2
D21
 10
63.725117
 20
49.800100
 41
1.0
 42
1.0
 43
1.0
 50
0.0
  0
INSERT
  8
gbr
  2
D21
 10
62.275135
 20
49.800100
 41
1.0
 42
1.0
 43
1.0
 50
0.0
  0
INSERT
  8
gbr
  2
D21
 10
65.275131
 20
66.000152
 41
1.0
 42
1.0
 43
1.0
 50
0.0
  0
INSERT
  8
gbr
  2
D21
 10
66.725123
 20
66.000152
 41
1.0
 42
1.0
 43
1.0
 50
0.0
  0
INSERT
  8
gbr
  2
D21
 10
46.525073
 20
29.500079
 41
1.0
 42
1.0
 43
1.0
 50
0.0
  0
INSERT
  8
gbr
  2
D21
 10
47.262585
 20
44.400099
 41
1.0
 42
1.0
 43
1.0
 50
0.0
  0
INSERT
  8
gbr
  2
D21
 10
48.712627
 20
44.400099
 41
1.0
 42
1.0
 43
1.0
 50
0.0
  0
INSERT
  8
gbr
  2
D21
 10
57.975106
 20
54.500129
 41
1.0
 42
1.0
 43
1.0
 50
0.0
  0
INSERT
  8
gbr
  2
D21
 10
56.525123
 20
54.500129
 41
1.0
 42
1.0
 43
1.0
 50
0.0
  0
INSERT
  8
gbr
  2
D21
 10
73.225146
 20
34.500079
 41
1.0
 42
1.0
 43
1.0
 50
0.0
  0
INSERT
  8
gbr
  2
D21
 10
71.775164
 20
34.500079
 41
1.0
 42
1.0
 43
1.0
 50
0.0
  0
INSERT
  8
gbr
  2
D21
 10
72.025144
 20
63.050136
 41
1.0
 42
1.0
 43
1.0
 50
0.0
  0
INSERT
  8
gbr
  2
D21
 10
73.475137
 20
63.050136
 41
1.0
 42
1.0
 43
1.0
 50
0.0
  0
INSERT
  8
gbr
  2
D21
 10
72.050144
 20
58.050136
 41
1.0
 42
1.0
 43
1.0
 50
0.0
  0
INSERT
  8
gbr
  2
D21
 10
73.500127
 20
58.050136
 41
1.0
 42
1.0
 43
1.0
 50
0.0
  0
INSERT
  8
gbr
  2
D21
 10
30.475081
 20
76.750164
 41
1.0
 42
1.0
 43
1.0
 50
0.0
  0
INSERT
  8
gbr
  2
D21
 10
29.025048
 20
76.750164
 41
1.0
 42
1.0
 43
1.0
 50
0.0
  0
INSERT
  8
gbr
  2
D22
 10
79.500179
 20
43.750068
 41
1.0
 42
1.0
 43
1.0
 50
0.0
  0
INSERT
  8
gbr
  2
D22
 10
79.500179
 20
45.250091
 41
1.0
 42
1.0
 43
1.0
 50
0.0
  0
INSERT
  8
gbr
  2
D22
 10
79.500179
 20
40.750062
 41
1.0
 42
1.0
 43
1.0
 50
0.0
  0
INSERT
  8
gbr
  2
D22
 10
79.500179
 20
42.250085
 41
1.0
 42
1.0
 43
1.0
 50
0.0
  0
INSERT
  8
gbr
  2
D23
 10
83.500177
 20
47.200104
 41
1.0
 42
1.0
 43
1.0
 50
0.0
  0
INSERT
  8
gbr
  2
D23
 10
83.500177
 20
38.800098
 41
1.0
 42
1.0
 43
1.0
 50
0.0
  0
INSERT
  8
gbr
  2
D24
 10
58.750118
 20
48.250087
 41
1.0
 42
1.0
 43
1.0
 50
0.0
  0
INSERT
  8
gbr
  2
D24
 10
58.750118
 20
49.750110
 41
1.0
 42
1.0
 43
1.0
 50
0.0
  0
INSERT
  8
gbr
  2
D24
 10
60.600101
 20
48.250087
 41
1.0
 42
1.0
 43
1.0
 50
0.0
  0
INSERT
  8
gbr
  2
D24
 10
60.600101
 20
49.750110
 41
1.0
 42
1.0
 43
1.0
 50
0.0
  0
INSERT
  8
gbr
  2
D24
 10
36.750064
 20
67.000154
 41
1.0
 42
1.0
 43
1.0
 50
0.0
  0
INSERT
  8
gbr
  2
D24
 10
36.750064
 20
68.500127
 41
1.0
 42
1.0
 43
1.0
 50
0.0
  0
INSERT
  8
gbr
  2
D24
 10
37.000054
 20
62.250145
 41
1.0
 42
1.0
 43
1.0
 50
0.0
  0
INSERT
  8
gbr
  2
D24
 10
37.000054
 20
60.750112
 41
1.0
 42
1.0
 43
1.0
 50
0.0
  0
INSERT
  8
gbr
  2
D24
 10
69.400149
 20
45.350111
 41
1.0
 42
1.0
 43
1.0
 50
0.0
  0
INSERT
  8
gbr
  2
D24
 10
69.400149
 20
43.850088
 41
1.0
 42
1.0
 43
1.0
 50
0.0
  0
INSERT
  8
gbr
  2
D24
 10
76.250143
 20
71.550163
 41
1.0
 42
1.0
 43
1.0
 50
0.0
  0
INSERT
  8
gbr
  2
D24
 10
76.250143
 20
70.050140
 41
1.0
 42
1.0
 43
1.0
 50
0.0
  0
INSERT
  8
gbr
  2
D24
 10
73.500127
 20
66.550113
 41
1.0
 42
1.0
 43
1.0
 50
0.0
  0
INSERT
  8
gbr
  2
D24
 10
73.500127
 20
68.050136
 41
1.0
 42
1.0
 43
1.0
 50
0.0
  0
INSERT
  8
gbr
  2
D24
 10
73.750168
 20
61.300123
 41
1.0
 42
1.0
 43
1.0
 50
0.0
  0
INSERT
  8
gbr
  2
D24
 10
73.750168
 20
59.800100
 41
1.0
 42
1.0
 43
1.0
 50
0.0
  0
INSERT
  8
gbr
  2
D25
 10
52.200104
 20
36.200052
 41
1.0
 42
1.0
 43
1.0
 50
0.0
  0
INSERT
  8
gbr
  2
D25
 10
52.200104
 20
45.200100
 41
1.0
 42
1.0
 43
1.0
 50
0.0
  0
INSERT
  8
gbr
  2
D26
 10
39.600099
 20
59.500129
 41
1.0
 42
1.0
 43
1.0
 50
0.0
  0
INSERT
  8
gbr
  2
D26
 10
38.950068
 20
59.500129
 41
1.0
 42
1.0
 43
1.0
 50
0.0
  0
INSERT
  8
gbr
  2
D26
 10
38.300077
 20
59.500129
 41
1.0
 42
1.0
 43
1.0
 50
0.0
  0
INSERT
  8
gbr
  2
D26
 10
39.600099
 20
57.300125
 41
1.0
 42
1.0
 43
1.0
 50
0.0
  0
INSERT
  8
gbr
  2
D26
 10
38.950068
 20
57.300125
 41
1.0
 42
1.0
 43
1.0
 50
0.0
  0
INSERT
  8
gbr
  2
D26
 10
38.300077
 20
57.300125
 41
1.0
 42
1.0
 43
1.0
 50
0.0
  0
INSERT
  8
gbr
  2
D27
 10
63.750118
 20
48.100076
 41
1.0
 42
1.0
 43
1.0
 50
0.0
  0
INSERT
  8
gbr
  2
D27
 10
62.250145
 20
48.100076
 41
1.0
 42
1.0
 43
1.0
 50
0.0
  0
INSERT
  8
gbr
  2
D27
 10
46.500073
 20
27.500075
 41
1.0
 42
1.0
 43
1.0
 50
0.0
  0
INSERT
  8
gbr
  2
D27
 10
48.000106
 20
27.500075
 41
1.0
 42
1.0
 43
1.0
 50
0.0
  0
INSERT
  8
gbr
  2
D27
 10
66.750114
 20
68.500127
 41
1.0
 42
1.0
 43
1.0
 50
0.0
  0
INSERT
  8
gbr
  2
D27
 10
68.250137
 20
68.500127
 41
1.0
 42
1.0
 43
1.0
 50
0.0
  0
INSERT
  8
gbr
  2
D27
 10
61.750114
 20
68.500127
 41
1.0
 42
1.0
 43
1.0
 50
0.0
  0
INSERT
  8
gbr
  2
D27
 10
63.250137
 20
68.500127
 41
1.0
 42
1.0
 43
1.0
 50
0.0
  0
INSERT
  8
gbr
  2
D27
 10
47.750116
 20
68.500127
 41
1.0
 42
1.0
 43
1.0
 50
0.0
  0
INSERT
  8
gbr
  2
D27
 10
49.250089
 20
68.500127
 41
1.0
 42
1.0
 43
1.0
 50
0.0
  0
INSERT
  8
gbr
  2
D27
 10
42.750066
 20
68.500127
 41
1.0
 42
1.0
 43
1.0
 50
0.0
  0
INSERT
  8
gbr
  2
D27
 10
44.250089
 20
68.500127
 41
1.0
 42
1.0
 43
1.0
 50
0.0
  0
INSERT
  8
gbr
  2
D28
 10
57.100124
 20
49.129488
 41
1.0
 42
1.0
 43
1.0
 50
0.0
  0
INSERT
  8
gbr
  2
D28
 10
54.600099
 20
49.129488
 41
1.0
 42
1.0
 43
1.0
 50
0.0
  0
INSERT
  8
gbr
  2
D29
 10
66.000152
 20
63.750118
 41
1.0
 42
1.0
 43
1.0
 50
0.0
  0
INSERT
  8
gbr
  2
D29
 10
66.000152
 20
56.750114
 41
1.0
 42
1.0
 43
1.0
 50
0.0
  0
INSERT
  8
gbr
  2
D29
 10
57.250145
 20
63.750118
 41
1.0
 42
1.0
 43
1.0
 50
0.0
  0
INSERT
  8
gbr
  2
D29
 10
57.250145
 20
56.750114
 41
1.0
 42
1.0
 43
1.0
 50
0.0
  0
INSERT
  8
gbr
  2
D30
 10
53.150116
 20
49.500079
 41
1.0
 42
1.0
 43
1.0
 50
0.0
  0
INSERT
  8
gbr
  2
D30
 10
51.650093
 20
49.500079
 41
1.0
 42
1.0
 43
1.0
 50
0.0
  0
INSERT
  8
gbr
  2
D30
 10
37.000054
 20
55.000100
 41
1.0
 42
1.0
 43
1.0
 50
0.0
  0
INSERT
  8
gbr
  2
D30
 10
35.500081
 20
55.000100
 41
1.0
 42
1.0
 43
1.0
 50
0.0
  0
INSERT
  8
gbr
  2
D30
 10
40.250091
 20
55.000100
 41
1.0
 42
1.0
 43
1.0
 50
0.0
  0
INSERT
  8
gbr
  2
D30
 10
38.750068
 20
55.000100
 41
1.0
 42
1.0
 43
1.0
 50
0.0
  0
INSERT
  8
gbr
  2
D30
 10
48.750118
 20
38.700077
 41
1.0
 42
1.0
 43
1.0
 50
0.0
  0
INSERT
  8
gbr
  2
D30
 10
47.250085
 20
38.700077
 41
1.0
 42
1.0
 43
1.0
 50
0.0
  0
INSERT
  8
gbr
  2
D30
 10
48.750118
 20
42.500075
 41
1.0
 42
1.0
 43
1.0
 50
0.0
  0
INSERT
  8
gbr
  2
D30
 10
47.250085
 20
42.500075
 41
1.0
 42
1.0
 43
1.0
 50
0.0
  0
INSERT
  8
gbr
  2
D30
 10
56.850094
 20
51.200102
 41
1.0
 42
1.0
 43
1.0
 50
0.0
  0
INSERT
  8
gbr
  2
D30
 10
55.350111
 20
51.200102
 41
1.0
 42
1.0
 43
1.0
 50
0.0
  0
INSERT
  8
gbr
  2
D30
 10
77.324005
 20
39.380089
 41
1.0
 42
1.0
 43
1.0
 50
0.0
  0
INSERT
  8
gbr
  2
D30
 10
75.823982
 20
39.380089
 41
1.0
 42
1.0
 43
1.0
 50
0.0
  0
INSERT
  8
gbr
  2
D30
 10
74.500129
 20
70.050140
 41
1.0
 42
1.0
 43
1.0
 50
0.0
  0
INSERT
  8
gbr
  2
D30
 10
73.000156
 20
70.050140
 41
1.0
 42
1.0
 43
1.0
 50
0.0
  0
INSERT
  8
gbr
  2
D30
 10
79.250139
 20
62.050144
 41
1.0
 42
1.0
 43
1.0
 50
0.0
  0
INSERT
  8
gbr
  2
D30
 10
77.750166
 20
62.050144
 41
1.0
 42
1.0
 43
1.0
 50
0.0
  0
INSERT
  8
gbr
  2
D30
 10
29.750060
 20
53.250087
 41
1.0
 42
1.0
 43
1.0
 50
0.0
  0
INSERT
  8
gbr
  2
D30
 10
31.250093
 20
53.250087
 41
1.0
 42
1.0
 43
1.0
 50
0.0
  0
INSERT
  8
gbr
  2
D30
 10
30.000050
 20
45.500081
 41
1.0
 42
1.0
 43
1.0
 50
0.0
  0
INSERT
  8
gbr
  2
D30
 10
31.500073
 20
45.500081
 41
1.0
 42
1.0
 43
1.0
 50
0.0
  0
INSERT
  8
gbr
  2
D30
 10
30.550061
 20
43.800098
 41
1.0
 42
1.0
 43
1.0
 50
0.0
  0
INSERT
  8
gbr
  2
D30
 10
29.050038
 20
43.800098
 41
1.0
 42
1.0
 43
1.0
 50
0.0
  0
INSERT
  8
gbr
  2
D31
 10
81.500173
 20
65.300131
 41
1.0
 42
1.0
 43
1.0
 50
0.0
  0
INSERT
  8
gbr
  2
D31
 10
81.200152
 20
65.300131
 41
1.0
 42
1.0
 43
1.0
 50
0.0
  0
INSERT
  8
gbr
  2
D31
 10
81.500173
 20
64.800150
 41
1.0
 42
1.0
 43
1.0
 50
0.0
  0
INSERT
  8
gbr
  2
D31
 10
81.200152
 20
64.800150
 41
1.0
 42
1.0
 43
1.0
 50
0.0
  0
INSERT
  8
gbr
  2
D31
 10
38.500077
 20
50.000100
 41
1.0
 42
1.0
 43
1.0
 50
0.0
  0
INSERT
  8
gbr
  2
D31
 10
38.200106
 20
50.000100
 41
1.0
 42
1.0
 43
1.0
 50
0.0
  0
INSERT
  8
gbr
  2
D31
 10
38.500077
 20
49.500079
 41
1.0
 42
1.0
 43
1.0
 50
0.0
  0
INSERT
  8
gbr
  2
D31
 10
38.200106
 20
49.500079
 41
1.0
 42
1.0
 43
1.0
 50
0.0
  0
INSERT
  8
gbr
  2
D32
 10
39.200098
 20
65.450141
 41
1.0
 42
1.0
 43
1.0
 50
0.0
  0
INSERT
  8
gbr
  2
D32
 10
39.200098
 20
63.550117
 41
1.0
 42
1.0
 43
1.0
 50
0.0
  0
INSERT
  8
gbr
  2
D32
 10
39.200098
 20
64.500129
 41
1.0
 42
1.0
 43
1.0
 50
0.0
  0
INSERT
  8
gbr
  2
D32
 10
36.800054
 20
65.450141
 41
1.0
 42
1.0
 43
1.0
 50
0.0
  0
INSERT
  8
gbr
  2
D32
 10
36.800054
 20
63.550117
 41
1.0
 42
1.0
 43
1.0
 50
0.0
  0
INSERT
  8
gbr
  2
D32
 10
36.800054
 20
64.500129
 41
1.0
 42
1.0
 43
1.0
 50
0.0
  0
INSERT
  8
gbr
  2
D35
 10
70.595121
 20
36.525073
 41
1.0
 42
1.0
 43
1.0
 50
0.0
  0
INSERT
  8
gbr
  2
D35
 10
71.865124
 20
36.525073
 41
1.0
 42
1.0
 43
1.0
 50
0.0
  0
INSERT
  8
gbr
  2
D35
 10
73.135126
 20
36.525073
 41
1.0
 42
1.0
 43
1.0
 50
0.0
  0
INSERT
  8
gbr
  2
D35
 10
74.405129
 20
36.525073
 41
1.0
 42
1.0
 43
1.0
 50
0.0
  0
INSERT
  8
gbr
  2
D35
 10
70.595121
 20
41.975104
 41
1.0
 42
1.0
 43
1.0
 50
0.0
  0
INSERT
  8
gbr
  2
D35
 10
71.865124
 20
41.975104
 41
1.0
 42
1.0
 43
1.0
 50
0.0
  0
INSERT
  8
gbr
  2
D35
 10
73.135126
 20
41.975104
 41
1.0
 42
1.0
 43
1.0
 50
0.0
  0
INSERT
  8
gbr
  2
D35
 10
74.405129
 20
41.975104
 41
1.0
 42
1.0
 43
1.0
 50
0.0
  0
INSERT
  8
gbr
  2
D38
 10
76.500173
 20
76.475133
 41
1.0
 42
1.0
 43
1.0
 50
0.0
  0
INSERT
  8
gbr
  2
D38
 10
76.500173
 20
75.025150
 41
1.0
 42
1.0
 43
1.0
 50
0.0
  0
POLYLINE
  8
gbr
 62
8
 40
0.000000
 41
0.000000
 66
  1
  0
VERTEX
  8
gbr
 10
32.557925
 20
42.170014
  0
VERTEX
  8
gbr
 10
32.557925
 20
42.183584
  0
SEQEND
  8
gbr
  0
POLYLINE
  8
gbr
 62
8
 40
0.000000
 41
0.000000
 66
  1
  0
VERTEX
  8
gbr
 10
32.390555
 20
41.322883
  0
VERTEX
  8
gbr
 10
32.390555
 20
42.002644
  0
VERTEX
  8
gbr
 10
32.557925
 20
42.170014
  0
SEQEND
  8
gbr
  0
POLYLINE
  8
gbr
 62
8
 40
0.000000
 41
0.000000
 66
  1
  0
VERTEX
  8
gbr
 10
32.774446
 20
42.400105
  0
VERTEX
  8
gbr
 10
33.100076
 20
42.400105
  0
SEQEND
  8
gbr
  0
POLYLINE
  8
gbr
 62
8
 40
0.000000
 41
0.000000
 66
  1
  0
VERTEX
  8
gbr
 10
32.557925
 20
42.183584
  0
VERTEX
  8
gbr
 10
32.774446
 20
42.400105
  0
SEQEND
  8
gbr
  0
POLYLINE
  8
gbr
 62
8
 40
0.000000
 41
0.000000
 66
  1
  0
VERTEX
  8
gbr
 10
32.719895
 20
40.923542
  0
VERTEX
  8
gbr
 10
32.892416
 20
40.923542
  0
SEQEND
  8
gbr
  0
POLYLINE
  8
gbr
 62
8
 40
0.000000
 41
0.000000
 66
  1
  0
VERTEX
  8
gbr
 10
32.498345
 20
41.145082
  0
VERTEX
  8
gbr
 10
32.719895
 20
40.923542
  0
SEQEND
  8
gbr
  0
POLYLINE
  8
gbr
 62
8
 40
0.000000
 41
0.000000
 66
  1
  0
VERTEX
  8
gbr
 10
32.892416
 20
40.923542
  0
VERTEX
  8
gbr
 10
33.154476
 20
40.661481
  0
VERTEX
  8
gbr
 10
33.235656
 20
40.661481
  0
SEQEND
  8
gbr
  0
POLYLINE
  8
gbr
 62
8
 40
0.000000
 41
0.000000
 66
  1
  0
VERTEX
  8
gbr
 10
32.498345
 20
41.145082
  0
VERTEX
  8
gbr
 10
32.498345
 20
41.215092
  0
SEQEND
  8
gbr
  0
POLYLINE
  8
gbr
 62
8
 40
0.000000
 41
0.000000
 66
  1
  0
VERTEX
  8
gbr
 10
32.390555
 20
41.322883
  0
VERTEX
  8
gbr
 10
32.498345
 20
41.215092
  0
SEQEND
  8
gbr
  0
POLYLINE
  8
gbr
 62
1
 40
0.000000
 41
0.000000
 66
  1
  0
VERTEX
  8
gbr
 10
56.075102
 20
29.650069
  0
VERTEX
  8
gbr
 10
56.075132
 20
29.650069
  0
VERTEX
  8
gbr
 10
56.075132
 20
28.650057
  0
VERTEX
  8
gbr
 10
55.325131
 20
28.650057
  0
VERTEX
  8
gbr
 10
55.325131
 20
29.650059
  0
VERTEX
  8
gbr
 10
55.325111
 20
29.650059
  0
VERTEX
  8
gbr
 10
55.700111
 20
29.900060
  0
VERTEX
  8
gbr
 10
56.075102
 20
29.650069
  0
SEQEND
  8
gbr
  0
POLYLINE
  8
gbr
 62
1
 40
0.000000
 41
0.000000
 66
  1
  0
VERTEX
  8
gbr
 10
56.075112
 20
32.100064
  0
VERTEX
  8
gbr
 10
55.975112
 20
32.175064
  0
VERTEX
  8
gbr
 10
55.700111
 20
32.350065
  0
VERTEX
  8
gbr
 10
56.075112
 20
32.350065
  0
VERTEX
  8
gbr
 10
56.075112
 20
32.100064
  0
SEQEND
  8
gbr
  0
POLYLINE
  8
gbr
 62
1
 40
0.000000
 41
0.000000
 66
  1
  0
VERTEX
  8
gbr
 10
55.400111
 20
32.150064
  0
VERTEX
  8
gbr
 10
55.325111
 20
32.100064
  0
VERTEX
  8
gbr
 10
55.325111
 20
32.350065
  0
VERTEX
  8
gbr
 10
55.700111
 20
32.350065
  0
VERTEX
  8
gbr
 10
55.400111
 20
32.150064
  0
SEQEND
  8
gbr
  0
POLYLINE
  8
gbr
 62
1
 40
0.000000
 41
0.000000
 66
  1
  0
VERTEX
  8
gbr
 10
56.075132
 20
32.350085
  0
VERTEX
  8
gbr
 10
55.325131
 20
32.350085
  0
VERTEX
  8
gbr
 10
55.325131
 20
33.350087
  0
VERTEX
  8
gbr
 10
56.075132
 20
33.350087
  0
VERTEX
  8
gbr
 10
56.075132
 20
32.350085
  0
SEQEND
  8
gbr
  0
POLYLINE
  8
gbr
 62
1
 40
0.000000
 41
0.000000
 66
  1
  0
VERTEX
  8
gbr
 10
57.200134
 20
35.200050
  0
VERTEX
  8
gbr
 10
55.500131
 20
35.200050
  0
VERTEX
  8
gbr
 10
55.500131
 20
36.400053
  0
VERTEX
  8
gbr
 10
57.200134
 20
36.400053
  0
VERTEX
  8
gbr
 10
57.200134
 20
35.200050
  0
SEQEND
  8
gbr
  0
POLYLINE
  8
gbr
 62
1
 40
0.000000
 41
0.000000
 66
  1
  0
VERTEX
  8
gbr
 10
59.900120
 20
35.200050
  0
VERTEX
  8
gbr
 10
58.208116
 20
35.200050
  0
VERTEX
  8
gbr
 10
58.208116
 20
36.400053
  0
VERTEX
  8
gbr
 10
59.900120
 20
36.400053
  0
VERTEX
  8
gbr
 10
59.900120
 20
35.200050
  0
SEQEND
  8
gbr
  0
POLYLINE
  8
gbr
 62
1
 40
0.000000
 41
0.000000
 66
  1
  0
VERTEX
  8
gbr
 10
63.749467
 20
33.150056
  0
VERTEX
  8
gbr
 10
63.749487
 20
33.150056
  0
VERTEX
  8
gbr
 10
63.802488
 20
33.151286
  0
VERTEX
  8
gbr
 10
63.906948
 20
33.133006
  0
VERTEX
  8
gbr
 10
64.005828
 20
33.094696
  0
VERTEX
  8
gbr
 10
64.095338
 20
33.037836
  0
VERTEX
  8
gbr
 10
64.172038
 20
32.964596
  0
VERTEX
  8
gbr
 10
64.232968
 20
32.877806
  0
VERTEX
  8
gbr
 10
64.275799
 20
32.780796
  0
VERTEX
  8
gbr
 10
64.298879
 20
32.677295
  0
VERTEX
  8
gbr
 10
64.300099
 20
32.624285
  0
VERTEX
  8
gbr
 10
64.300099
 20
32.624295
  0
VERTEX
  8
gbr
 10
64.300129
 20
32.050034
  0
VERTEX
  8
gbr
 10
64.300129
 20
31.995804
  0
VERTEX
  8
gbr
 10
64.278969
 20
31.889414
  0
VERTEX
  8
gbr
 10
64.237458
 20
31.789204
  0
VERTEX
  8
gbr
 10
64.177188
 20
31.699023
  0
VERTEX
  8
gbr
 10
64.100498
 20
31.622323
  0
VERTEX
  8
gbr
 10
64.010308
 20
31.562063
  0
VERTEX
  8
gbr
 10
63.910098
 20
31.520553
  0
VERTEX
  8
gbr
 10
63.803708
 20
31.499393
  0
VERTEX
  8
gbr
 10
63.695197
 20
31.499393
  0
VERTEX
  8
gbr
 10
63.588707
 20
31.520573
  0
VERTEX
  8
gbr
 10
63.488407
 20
31.562123
  0
VERTEX
  8
gbr
 10
63.398137
 20
31.622433
  0
VERTEX
  8
gbr
 10
63.321367
 20
31.699203
  0
VERTEX
  8
gbr
 10
63.261047
 20
31.789474
  0
VERTEX
  8
gbr
 10
63.219496
 20
31.889784
  0
VERTEX
  8
gbr
 10
63.198316
 20
31.996264
  0
VERTEX
  8
gbr
 10
63.198316
 20
32.050554
  0
VERTEX
  8
gbr
 10
63.198316
 20
32.624305
  0
VERTEX
  8
gbr
 10
63.199566
 20
32.677335
  0
VERTEX
  8
gbr
 10
63.222716
 20
32.780876
  0
VERTEX
  8
gbr
 10
63.265617
 20
32.877916
  0
VERTEX
  8
gbr
 10
63.326627
 20
32.964716
  0
VERTEX
  8
gbr
 10
63.403397
 20
33.037946
  0
VERTEX
  8
gbr
 10
63.492977
 20
33.094786
  0
VERTEX
  8
gbr
 10
63.591927
 20
33.133066
  0
VERTEX
  8
gbr
 10
63.696437
 20
33.151306
  0
VERTEX
  8
gbr
 10
63.749467
 20
33.150056
  0
SEQEND
  8
gbr
  0
POLYLINE
  8
gbr
 62
1
 40
0.000000
 41
0.000000
 66
  1
  0
VERTEX
  8
gbr
 10
62.149464
 20
33.150056
  0
VERTEX
  8
gbr
 10
62.149484
 20
33.150056
  0
VERTEX
  8
gbr
 10
62.202484
 20
33.151286
  0
VERTEX
  8
gbr
 10
62.306945
 20
33.133006
  0
VERTEX
  8
gbr
 10
62.405825
 20
33.094696
  0
VERTEX
  8
gbr
 10
62.495335
 20
33.037836
  0
VERTEX
  8
gbr
 10
62.572035
 20
32.964596
  0
VERTEX
  8
gbr
 10
62.632965
 20
32.877806
  0
VERTEX
  8
gbr
 10
62.675795
 20
32.780796
  0
VERTEX
  8
gbr
 10
62.698875
 20
32.677295
  0
VERTEX
  8
gbr
 10
62.700095
 20
32.624285
  0
VERTEX
  8
gbr
 10
62.700095
 20
32.624295
  0
VERTEX
  8
gbr
 10
62.700125
 20
32.050034
  0
VERTEX
  8
gbr
 10
62.700125
 20
31.995804
  0
VERTEX
  8
gbr
 10
62.678965
 20
31.889414
  0
VERTEX
  8
gbr
 10
62.637455
 20
31.789204
  0
VERTEX
  8
gbr
 10
62.577195
 20
31.699023
  0
VERTEX
  8
gbr
 10
62.500495
 20
31.622323
  0
VERTEX
  8
gbr
 10
62.410305
 20
31.562063
  0
VERTEX
  8
gbr
 10
62.310095
 20
31.520553
  0
VERTEX
  8
gbr
 10
62.203704
 20
31.499393
  0
VERTEX
  8
gbr
 10
62.095194
 20
31.499393
  0
VERTEX
  8
gbr
 10
61.988704
 20
31.520573
  0
VERTEX
  8
gbr
 10
61.888404
 20
31.562123
  0
VERTEX
  8
gbr
 10
61.798134
 20
31.622433
  0
VERTEX
  8
gbr
 10
61.721363
 20
31.699203
  0
VERTEX
  8
gbr
 10
61.661043
 20
31.789474
  0
VERTEX
  8
gbr
 10
61.619493
 20
31.889784
  0
VERTEX
  8
gbr
 10
61.598313
 20
31.996264
  0
VERTEX
  8
gbr
 10
61.598313
 20
32.050554
  0
VERTEX
  8
gbr
 10
61.598313
 20
32.624305
  0
VERTEX
  8
gbr
 10
61.599563
 20
32.677335
  0
VERTEX
  8
gbr
 10
61.622713
 20
32.780876
  0
VERTEX
  8
gbr
 10
61.665613
 20
32.877916
  0
VERTEX
  8
gbr
 10
61.726623
 20
32.964716
  0
VERTEX
  8
gbr
 10
61.803394
 20
33.037946
  0
VERTEX
  8
gbr
 10
61.892974
 20
33.094786
  0
VERTEX
  8
gbr
 10
61.991924
 20
33.133066
  0
VERTEX
  8
gbr
 10
62.096434
 20
33.151306
  0
VERTEX
  8
gbr
 10
62.149464
 20
33.150056
  0
SEQEND
  8
gbr
  0
POLYLINE
  8
gbr
 62
1
 40
0.000000
 41
0.000000
 66
  1
  0
VERTEX
  8
gbr
 10
60.549471
 20
33.150056
  0
VERTEX
  8
gbr
 10
60.549481
 20
33.150056
  0
VERTEX
  8
gbr
 10
60.602491
 20
33.151286
  0
VERTEX
  8
gbr
 10
60.706941
 20
33.133006
  0
VERTEX
  8
gbr
 10
60.805832
 20
33.094696
  0
VERTEX
  8
gbr
 10
60.895332
 20
33.037836
  0
VERTEX
  8
gbr
 10
60.972032
 20
32.964596
  0
VERTEX
  8
gbr
 10
61.032962
 20
32.877806
  0
VERTEX
  8
gbr
 10
61.075792
 20
32.780796
  0
VERTEX
  8
gbr
 10
61.098872
 20
32.677295
  0
VERTEX
  8
gbr
 10
61.100092
 20
32.624285
  0
VERTEX
  8
gbr
 10
61.100092
 20
32.624295
  0
VERTEX
  8
gbr
 10
61.100122
 20
32.050034
  0
VERTEX
  8
gbr
 10
61.100122
 20
31.995804
  0
VERTEX
  8
gbr
 10
61.078962
 20
31.889414
  0
VERTEX
  8
gbr
 10
61.037452
 20
31.789204
  0
VERTEX
  8
gbr
 10
60.977192
 20
31.699023
  0
VERTEX
  8
gbr
 10
60.900492
 20
31.622323
  0
VERTEX
  8
gbr
 10
60.810302
 20
31.562063
  0
VERTEX
  8
gbr
 10
60.710091
 20
31.520553
  0
VERTEX
  8
gbr
 10
60.603701
 20
31.499393
  0
VERTEX
  8
gbr
 10
60.495191
 20
31.499393
  0
VERTEX
  8
gbr
 10
60.388701
 20
31.520573
  0
VERTEX
  8
gbr
 10
60.288401
 20
31.562123
  0
VERTEX
  8
gbr
 10
60.198130
 20
31.622433
  0
VERTEX
  8
gbr
 10
60.121360
 20
31.699203
  0
VERTEX
  8
gbr
 10
60.061040
 20
31.789474
  0
VERTEX
  8
gbr
 10
60.019490
 20
31.889784
  0
VERTEX
  8
gbr
 10
59.998310
 20
31.996264
  0
VERTEX
  8
gbr
 10
59.998310
 20
32.050554
  0
VERTEX
  8
gbr
 10
59.998310
 20
32.624305
  0
VERTEX
  8
gbr
 10
59.999560
 20
32.677335
  0
VERTEX
  8
gbr
 10
60.022710
 20
32.780876
  0
VERTEX
  8
gbr
 10
60.065610
 20
32.877916
  0
VERTEX
  8
gbr
 10
60.126620
 20
32.964716
  0
VERTEX
  8
gbr
 10
60.203390
 20
33.037946
  0
VERTEX
  8
gbr
 10
60.292971
 20
33.094786
  0
VERTEX
  8
gbr
 10
60.391921
 20
33.133066
  0
VERTEX
  8
gbr
 10
60.496431
 20
33.151306
  0
VERTEX
  8
gbr
 10
60.549471
 20
33.150056
  0
SEQEND
  8
gbr
  0
POLYLINE
  8
gbr
 62
1
 40
0.000000
 41
0.000000
 66
  1
  0
VERTEX
  8
gbr
 10
63.111546
 20
31.379553
  0
VERTEX
  8
gbr
 10
63.211846
 20
31.338003
  0
VERTEX
  8
gbr
 10
63.302117
 20
31.277683
  0
VERTEX
  8
gbr
 10
63.378887
 20
31.200912
  0
VERTEX
  8
gbr
 10
63.439207
 20
31.110642
  0
VERTEX
  8
gbr
 10
63.480757
 20
31.010342
  0
VERTEX
  8
gbr
 10
63.501937
 20
30.903852
  0
VERTEX
  8
gbr
 10
63.501937
 20
30.849572
  0
VERTEX
  8
gbr
 10
63.501937
 20
30.275821
  0
VERTEX
  8
gbr
 10
63.500687
 20
30.222780
  0
VERTEX
  8
gbr
 10
63.477537
 20
30.119240
  0
VERTEX
  8
gbr
 10
63.434637
 20
30.022210
  0
VERTEX
  8
gbr
 10
63.373627
 20
29.935410
  0
VERTEX
  8
gbr
 10
63.296857
 20
29.862180
  0
VERTEX
  8
gbr
 10
63.207276
 20
29.805330
  0
VERTEX
  8
gbr
 10
63.108326
 20
29.767050
  0
VERTEX
  8
gbr
 10
63.003816
 20
29.748819
  0
VERTEX
  8
gbr
 10
62.950776
 20
29.750070
  0
VERTEX
  8
gbr
 10
62.950766
 20
29.750070
  0
VERTEX
  8
gbr
 10
62.897756
 20
29.748839
  0
VERTEX
  8
gbr
 10
62.793306
 20
29.767120
  0
VERTEX
  8
gbr
 10
62.694415
 20
29.805430
  0
VERTEX
  8
gbr
 10
62.604915
 20
29.862290
  0
VERTEX
  8
gbr
 10
62.528215
 20
29.935520
  0
VERTEX
  8
gbr
 10
62.467285
 20
30.022310
  0
VERTEX
  8
gbr
 10
62.424455
 20
30.119320
  0
VERTEX
  8
gbr
 10
62.401375
 20
30.222820
  0
VERTEX
  8
gbr
 10
62.400155
 20
30.275831
  0
VERTEX
  8
gbr
 10
62.400155
 20
30.275831
  0
VERTEX
  8
gbr
 10
62.400125
 20
30.850082
  0
VERTEX
  8
gbr
 10
62.400125
 20
30.904322
  0
VERTEX
  8
gbr
 10
62.421285
 20
31.010702
  0
VERTEX
  8
gbr
 10
62.462795
 20
31.110912
  0
VERTEX
  8
gbr
 10
62.523055
 20
31.201102
  0
VERTEX
  8
gbr
 10
62.599755
 20
31.277803
  0
VERTEX
  8
gbr
 10
62.689945
 20
31.338063
  0
VERTEX
  8
gbr
 10
62.790156
 20
31.379573
  0
VERTEX
  8
gbr
 10
62.896536
 20
31.400733
  0
VERTEX
  8
gbr
 10
63.005056
 20
31.400733
  0
VERTEX
  8
gbr
 10
63.111546
 20
31.379553
  0
SEQEND
  8
gbr
  0
POLYLINE
  8
gbr
 62
1
 40
0.000000
 41
0.000000
 66
  1
  0
VERTEX
  8
gbr
 10
61.511533
 20
31.379553
  0
VERTEX
  8
gbr
 10
61.611843
 20
31.338003
  0
VERTEX
  8
gbr
 10
61.702113
 20
31.277683
  0
VERTEX
  8
gbr
 10
61.778884
 20
31.200912
  0
VERTEX
  8
gbr
 10
61.839204
 20
31.110642
  0
VERTEX
  8
gbr
 10
61.880754
 20
31.010342
  0
VERTEX
  8
gbr
 10
61.901934
 20
30.903852
  0
VERTEX
  8
gbr
 10
61.901934
 20
30.849572
  0
VERTEX
  8
gbr
 10
61.901924
 20
30.275821
  0
VERTEX
  8
gbr
 10
61.900674
 20
30.222780
  0
VERTEX
  8
gbr
 10
61.877534
 20
30.119240
  0
VERTEX
  8
gbr
 10
61.834634
 20
30.022210
  0
VERTEX
  8
gbr
 10
61.773624
 20
29.935410
  0
VERTEX
  8
gbr
 10
61.696853
 20
29.862180
  0
VERTEX
  8
gbr
 10
61.607273
 20
29.805330
  0
VERTEX
  8
gbr
 10
61.508323
 20
29.767050
  0
VERTEX
  8
gbr
 10
61.403803
 20
29.748819
  0
VERTEX
  8
gbr
 10
61.350773
 20
29.750070
  0
VERTEX
  8
gbr
 10
61.350763
 20
29.750070
  0
VERTEX
  8
gbr
 10
61.297753
 20
29.748839
  0
VERTEX
  8
gbr
 10
61.193292
 20
29.767120
  0
VERTEX
  8
gbr
 10
61.094412
 20
29.805430
  0
VERTEX
  8
gbr
 10
61.004912
 20
29.862290
  0
VERTEX
  8
gbr
 10
60.928212
 20
29.935520
  0
VERTEX
  8
gbr
 10
60.867282
 20
30.022310
  0
VERTEX
  8
gbr
 10
60.824452
 20
30.119320
  0
VERTEX
  8
gbr
 10
60.801372
 20
30.222820
  0
VERTEX
  8
gbr
 10
60.800152
 20
30.275831
  0
VERTEX
  8
gbr
 10
60.800152
 20
30.275831
  0
VERTEX
  8
gbr
 10
60.800122
 20
30.850082
  0
VERTEX
  8
gbr
 10
60.800122
 20
30.904322
  0
VERTEX
  8
gbr
 10
60.821282
 20
31.010702
  0
VERTEX
  8
gbr
 10
60.862792
 20
31.110912
  0
VERTEX
  8
gbr
 10
60.923052
 20
31.201102
  0
VERTEX
  8
gbr
 10
60.999752
 20
31.277803
  0
VERTEX
  8
gbr
 10
61.089942
 20
31.338063
  0
VERTEX
  8
gbr
 10
61.190152
 20
31.379573
  0
VERTEX
  8
gbr
 10
61.296533
 20
31.400733
  0
VERTEX
  8
gbr
 10
61.405053
 20
31.400733
  0
VERTEX
  8
gbr
 10
61.511533
 20
31.379553
  0
SEQEND
  8
gbr
  0
INSERT
  8
gbr
  2
D17
 10
37.000054
 20
73.975158
 41
1.0
 42
1.0
 43
1.0
 50
0.0
  0
INSERT
  8
gbr
  2
D17
 10
37.000054
 20
68.025146
 41
1.0
 42
1.0
 43
1.0
 50
0.0
  0
INSERT
  8
gbr
  2
D17
 10
55.500131
 20
75.975162
 41
1.0
 42
1.0
 43
1.0
 50
0.0
  0
INSERT
  8
gbr
  2
D17
 10
55.500131
 20
70.025150
 41
1.0
 42
1.0
 43
1.0
 50
0.0
  0
INSERT
  8
gbr
  2
D20
 10
54.250089
 20
46.350113
 41
1.0
 42
1.0
 43
1.0
 50
0.0
  0
INSERT
  8
gbr
  2
D20
 10
54.250089
 20
49.150118
 41
1.0
 42
1.0
 43
1.0
 50
0.0
  0
INSERT
  8
gbr
  2
D20
 10
57.050144
 20
49.129488
 41
1.0
 42
1.0
 43
1.0
 50
0.0
  0
INSERT
  8
gbr
  2
D20
 10
57.050144
 20
46.329493
 41
1.0
 42
1.0
 43
1.0
 50
0.0
  0
INSERT
  8
gbr
  2
D20
 10
73.250137
 20
47.850086
 41
1.0
 42
1.0
 43
1.0
 50
0.0
  0
INSERT
  8
gbr
  2
D20
 10
73.250137
 20
50.650091
 41
1.0
 42
1.0
 43
1.0
 50
0.0
  0
INSERT
  8
gbr
  2
D20
 10
83.500177
 20
53.600097
 41
1.0
 42
1.0
 43
1.0
 50
0.0
  0
INSERT
  8
gbr
  2
D20
 10
83.500177
 20
56.400103
 41
1.0
 42
1.0
 43
1.0
 50
0.0
  0
INSERT
  8
gbr
  2
D20
 10
73.250137
 20
55.650091
 41
1.0
 42
1.0
 43
1.0
 50
0.0
  0
INSERT
  8
gbr
  2
D20
 10
73.250137
 20
52.850086
 41
1.0
 42
1.0
 43
1.0
 50
0.0
  0
INSERT
  8
gbr
  2
D21
 10
47.475085
 20
39.000098
 41
1.0
 42
1.0
 43
1.0
 50
0.0
  0
INSERT
  8
gbr
  2
D21
 10
48.925118
 20
39.000098
 41
1.0
 42
1.0
 43
1.0
 50
0.0
  0
INSERT
  8
gbr
  2
D21
 10
63.469287
 20
28.805898
 41
1.0
 42
1.0
 43
1.0
 50
0.0
  0
INSERT
  8
gbr
  2
D21
 10
62.019304
 20
28.805898
 41
1.0
 42
1.0
 43
1.0
 50
0.0
  0
INSERT
  8
gbr
  2
D21
 10
78.800148
 20
47.250085
 41
1.0
 42
1.0
 43
1.0
 50
0.0
  0
INSERT
  8
gbr
  2
D21
 10
80.250141
 20
47.250085
 41
1.0
 42
1.0
 43
1.0
 50
0.0
  0
INSERT
  8
gbr
  2
D21
 10
75.550161
 20
47.250085
 41
1.0
 42
1.0
 43
1.0
 50
0.0
  0
INSERT
  8
gbr
  2
D21
 10
77.000154
 20
47.250085
 41
1.0
 42
1.0
 43
1.0
 50
0.0
  0
INSERT
  8
gbr
  2
D21
 10
41.725073
 20
40.000100
 41
1.0
 42
1.0
 43
1.0
 50
0.0
  0
INSERT
  8
gbr
  2
D21
 10
40.275081
 20
40.000100
 41
1.0
 42
1.0
 43
1.0
 50
0.0
  0
INSERT
  8
gbr
  2
D21
 10
41.725073
 20
42.000104
 41
1.0
 42
1.0
 43
1.0
 50
0.0
  0
INSERT
  8
gbr
  2
D21
 10
40.275081
 20
42.000104
 41
1.0
 42
1.0
 43
1.0
 50
0.0
  0
INSERT
  8
gbr
  2
D21
 10
72.225144
 20
30.000050
 41
1.0
 42
1.0
 43
1.0
 50
0.0
  0
INSERT
  8
gbr
  2
D21
 10
70.775162
 20
30.000050
 41
1.0
 42
1.0
 43
1.0
 50
0.0
  0
INSERT
  8
gbr
  2
D21
 10
74.275129
 20
30.000050
 41
1.0
 42
1.0
 43
1.0
 50
0.0
  0
INSERT
  8
gbr
  2
D21
 10
75.725171
 20
30.000050
 41
1.0
 42
1.0
 43
1.0
 50
0.0
  0
INSERT
  8
gbr
  2
D24
 10
67.985416
 20
31.102872
 41
1.0
 42
1.0
 43
1.0
 50
0.0
  0
INSERT
  8
gbr
  2
D24
 10
67.985416
 20
32.602845
 41
1.0
 42
1.0
 43
1.0
 50
0.0
  0
INSERT
  8
gbr
  2
D24
 10
53.800098
 20
42.950066
 41
1.0
 42
1.0
 43
1.0
 50
0.0
  0
INSERT
  8
gbr
  2
D24
 10
53.800098
 20
41.450093
 41
1.0
 42
1.0
 43
1.0
 50
0.0
  0
INSERT
  8
gbr
  2
D24
 10
65.600151
 20
37.000054
 41
1.0
 42
1.0
 43
1.0
 50
0.0
  0
INSERT
  8
gbr
  2
D24
 10
65.600151
 20
38.500077
 41
1.0
 42
1.0
 43
1.0
 50
0.0
  0
INSERT
  8
gbr
  2
D24
 10
36.750064
 20
49.500079
 41
1.0
 42
1.0
 43
1.0
 50
0.0
  0
INSERT
  8
gbr
  2
D24
 10
36.750064
 20
48.000106
 41
1.0
 42
1.0
 43
1.0
 50
0.0
  0
INSERT
  8
gbr
  2
D24
 10
83.250187
 20
49.250089
 41
1.0
 42
1.0
 43
1.0
 50
0.0
  0
INSERT
  8
gbr
  2
D24
 10
83.250187
 20
50.750112
 41
1.0
 42
1.0
 43
1.0
 50
0.0
  0
INSERT
  8
gbr
  2
D24
 10
79.750170
 20
64.800150
 41
1.0
 42
1.0
 43
1.0
 50
0.0
  0
INSERT
  8
gbr
  2
D24
 10
79.750170
 20
63.300127
 41
1.0
 42
1.0
 43
1.0
 50
0.0
  0
INSERT
  8
gbr
  2
D24
 10
37.000054
 20
40.750062
 41
1.0
 42
1.0
 43
1.0
 50
0.0
  0
INSERT
  8
gbr
  2
D24
 10
37.000054
 20
42.250085
 41
1.0
 42
1.0
 43
1.0
 50
0.0
  0
INSERT
  8
gbr
  2
D24
 10
79.750170
 20
55.300131
 41
1.0
 42
1.0
 43
1.0
 50
0.0
  0
INSERT
  8
gbr
  2
D24
 10
79.750170
 20
56.800104
 41
1.0
 42
1.0
 43
1.0
 50
0.0
  0
INSERT
  8
gbr
  2
D24
 10
51.750114
 20
54.000098
 41
1.0
 42
1.0
 43
1.0
 50
0.0
  0
INSERT
  8
gbr
  2
D24
 10
51.750114
 20
55.500131
 41
1.0
 42
1.0
 43
1.0
 50
0.0
  0
INSERT
  8
gbr
  2
D30
 10
58.350117
 20
37.800106
 41
1.0
 42
1.0
 43
1.0
 50
0.0
  0
INSERT
  8
gbr
  2
D30
 10
59.850140
 20
37.800106
 41
1.0
 42
1.0
 43
1.0
 50
0.0
  0
INSERT
  8
gbr
  2
D30
 10
77.250145
 20
59.050138
 41
1.0
 42
1.0
 43
1.0
 50
0.0
  0
INSERT
  8
gbr
  2
D30
 10
75.750162
 20
59.050138
 41
1.0
 42
1.0
 43
1.0
 50
0.0
  0
INSERT
  8
gbr
  2
D30
 10
35.500081
 20
46.250093
 41
1.0
 42
1.0
 43
1.0
 50
0.0
  0
INSERT
  8
gbr
  2
D30
 10
37.000054
 20
46.250093
 41
1.0
 42
1.0
 43
1.0
 50
0.0
  0
INSERT
  8
gbr
  2
D30
 10
58.250137
 20
43.500077
 41
1.0
 42
1.0
 43
1.0
 50
0.0
  0
INSERT
  8
gbr
  2
D30
 10
59.750110
 20
43.500077
 41
1.0
 42
1.0
 43
1.0
 50
0.0
  0
INSERT
  8
gbr
  2
D30
 10
58.350117
 20
39.500079
 41
1.0
 42
1.0
 43
1.0
 50
0.0
  0
INSERT
  8
gbr
  2
D30
 10
59.850140
 20
39.500079
 41
1.0
 42
1.0
 43
1.0
 50
0.0
  0
INSERT
  8
gbr
  2
D63
 10
47.025094
 20
29.800050
 41
1.0
 42
1.0
 43
1.0
 50
0.0
  0
INSERT
  8
gbr
  2
D64
 10
52.975106
 20
27.500075
 41
1.0
 42
1.0
 43
1.0
 50
0.0
  0
INSERT
  8
gbr
  2
D64
 10
52.975106
 20
29.800050
 41
1.0
 42
1.0
 43
1.0
 50
0.0
  0
INSERT
  8
gbr
  2
D64
 10
52.975106
 20
32.100074
 41
1.0
 42
1.0
 43
1.0
 50
0.0
  0
INSERT
  8
gbr
  2
D65
 10
60.400101
 20
29.600049
 41
1.0
 42
1.0
 43
1.0
 50
0.0
  0
INSERT
  8
gbr
  2
D65
 10
60.400101
 20
28.200046
 41
1.0
 42
1.0
 43
1.0
 50
0.0
  0
INSERT
  8
gbr
  2
D67
 10
63.000156
 20
34.300079
 41
1.0
 42
1.0
 43
1.0
 50
0.0
  0
INSERT
  8
gbr
  2
D67
 10
62.050144
 20
34.300079
 41
1.0
 42
1.0
 43
1.0
 50
0.0
  0
INSERT
  8
gbr
  2
D67
 10
63.950118
 20
34.300079
 41
1.0
 42
1.0
 43
1.0
 50
0.0
  0
INSERT
  8
gbr
  2
D67
 10
63.000156
 20
36.700073
 41
1.0
 42
1.0
 43
1.0
 50
0.0
  0
INSERT
  8
gbr
  2
D67
 10
62.050144
 20
36.700073
 41
1.0
 42
1.0
 43
1.0
 50
0.0
  0
INSERT
  8
gbr
  2
D67
 10
63.950118
 20
36.700073
 41
1.0
 42
1.0
 43
1.0
 50
0.0
  0
INSERT
  8
gbr
  2
D67
 10
74.325169
 20
33.300077
 41
1.0
 42
1.0
 43
1.0
 50
0.0
  0
INSERT
  8
gbr
  2
D67
 10
72.425145
 20
33.300077
 41
1.0
 42
1.0
 43
1.0
 50
0.0
  0
INSERT
  8
gbr
  2
D67
 10
73.375157
 20
35.700071
 41
1.0
 42
1.0
 43
1.0
 50
0.0
  0
INSERT
  8
gbr
  2
D68
 10
59.275129
 20
48.250087
 41
1.0
 42
1.0
 43
1.0
 50
0.0
  0
INSERT
  8
gbr
  2
D68
 10
65.225150
 20
48.250087
 41
1.0
 42
1.0
 43
1.0
 50
0.0
  0
INSERT
  8
gbr
  2
D69
 10
81.125172
 20
53.155096
 41
1.0
 42
1.0
 43
1.0
 50
0.0
  0
INSERT
  8
gbr
  2
D69
 10
81.125172
 20
51.885094
 41
1.0
 42
1.0
 43
1.0
 50
0.0
  0
INSERT
  8
gbr
  2
D69
 10
81.125172
 20
50.615091
 41
1.0
 42
1.0
 43
1.0
 50
0.0
  0
INSERT
  8
gbr
  2
D69
 10
81.125172
 20
49.345089
 41
1.0
 42
1.0
 43
1.0
 50
0.0
  0
INSERT
  8
gbr
  2
D69
 10
75.375161
 20
53.155096
 41
1.0
 42
1.0
 43
1.0
 50
0.0
  0
INSERT
  8
gbr
  2
D69
 10
75.375161
 20
51.885094
 41
1.0
 42
1.0
 43
1.0
 50
0.0
  0
INSERT
  8
gbr
  2
D69
 10
75.375161
 20
50.615091
 41
1.0
 42
1.0
 43
1.0
 50
0.0
  0
INSERT
  8
gbr
  2
D69
 10
75.375161
 20
49.345089
 41
1.0
 42
1.0
 43
1.0
 50
0.0
  0
INSERT
  8
gbr
  2
D69
 10
36.250093
 20
55.480111
 41
1.0
 42
1.0
 43
1.0
 50
0.0
  0
INSERT
  8
gbr
  2
D69
 10
36.250093
 20
56.750114
 41
1.0
 42
1.0
 43
1.0
 50
0.0
  0
INSERT
  8
gbr
  2
D69
 10
36.250093
 20
58.020116
 41
1.0
 42
1.0
 43
1.0
 50
0.0
  0
INSERT
  8
gbr
  2
D69
 10
36.250093
 20
59.290119
 41
1.0
 42
1.0
 43
1.0
 50
0.0
  0
INSERT
  8
gbr
  2
D69
 10
42.000104
 20
55.480111
 41
1.0
 42
1.0
 43
1.0
 50
0.0
  0
INSERT
  8
gbr
  2
D69
 10
42.000104
 20
56.750114
 41
1.0
 42
1.0
 43
1.0
 50
0.0
  0
INSERT
  8
gbr
  2
D69
 10
42.000104
 20
58.020116
 41
1.0
 42
1.0
 43
1.0
 50
0.0
  0
INSERT
  8
gbr
  2
D69
 10
42.000104
 20
59.290119
 41
1.0
 42
1.0
 43
1.0
 50
0.0
  0
INSERT
  8
gbr
  2
D69
 10
62.625145
 20
63.595127
 41
1.0
 42
1.0
 43
1.0
 50
0.0
  0
INSERT
  8
gbr
  2
D69
 10
62.625145
 20
64.865130
 41
1.0
 42
1.0
 43
1.0
 50
0.0
  0
INSERT
  8
gbr
  2
D69
 10
62.625145
 20
66.135132
 41
1.0
 42
1.0
 43
1.0
 50
0.0
  0
INSERT
  8
gbr
  2
D69
 10
62.625145
 20
67.405135
 41
1.0
 42
1.0
 43
1.0
 50
0.0
  0
INSERT
  8
gbr
  2
D69
 10
68.375157
 20
63.595127
 41
1.0
 42
1.0
 43
1.0
 50
0.0
  0
INSERT
  8
gbr
  2
D69
 10
68.375157
 20
64.865130
 41
1.0
 42
1.0
 43
1.0
 50
0.0
  0
INSERT
  8
gbr
  2
D69
 10
68.375157
 20
66.135132
 41
1.0
 42
1.0
 43
1.0
 50
0.0
  0
INSERT
  8
gbr
  2
D69
 10
68.375157
 20
67.405135
 41
1.0
 42
1.0
 43
1.0
 50
0.0
  0
INSERT
  8
gbr
  2
D69
 10
40.875082
 20
65.905152
 41
1.0
 42
1.0
 43
1.0
 50
0.0
  0
INSERT
  8
gbr
  2
D69
 10
40.875082
 20
64.635149
 41
1.0
 42
1.0
 43
1.0
 50
0.0
  0
INSERT
  8
gbr
  2
D69
 10
40.875082
 20
63.365147
 41
1.0
 42
1.0
 43
1.0
 50
0.0
  0
INSERT
  8
gbr
  2
D69
 10
40.875082
 20
62.095144
 41
1.0
 42
1.0
 43
1.0
 50
0.0
  0
INSERT
  8
gbr
  2
D69
 10
35.125070
 20
65.905152
 41
1.0
 42
1.0
 43
1.0
 50
0.0
  0
INSERT
  8
gbr
  2
D69
 10
35.125070
 20
64.635149
 41
1.0
 42
1.0
 43
1.0
 50
0.0
  0
INSERT
  8
gbr
  2
D69
 10
35.125070
 20
63.365147
 41
1.0
 42
1.0
 43
1.0
 50
0.0
  0
INSERT
  8
gbr
  2
D69
 10
35.125070
 20
62.095144
 41
1.0
 42
1.0
 43
1.0
 50
0.0
  0
INSERT
  8
gbr
  2
D69
 10
55.375111
 20
55.345141
 41
1.0
 42
1.0
 43
1.0
 50
0.0
  0
INSERT
  8
gbr
  2
D69
 10
55.375111
 20
56.615143
 41
1.0
 42
1.0
 43
1.0
 50
0.0
  0
INSERT
  8
gbr
  2
D69
 10
55.375111
 20
57.885146
 41
1.0
 42
1.0
 43
1.0
 50
0.0
  0
INSERT
  8
gbr
  2
D69
 10
55.375111
 20
59.155148
 41
1.0
 42
1.0
 43
1.0
 50
0.0
  0
INSERT
  8
gbr
  2
D69
 10
61.125122
 20
55.345141
 41
1.0
 42
1.0
 43
1.0
 50
0.0
  0
INSERT
  8
gbr
  2
D69
 10
61.125122
 20
56.615143
 41
1.0
 42
1.0
 43
1.0
 50
0.0
  0
INSERT
  8
gbr
  2
D69
 10
61.125122
 20
57.885146
 41
1.0
 42
1.0
 43
1.0
 50
0.0
  0
INSERT
  8
gbr
  2
D69
 10
61.125122
 20
59.155148
 41
1.0
 42
1.0
 43
1.0
 50
0.0
  0
INSERT
  8
gbr
  2
D69
 10
59.625099
 20
66.155142
 41
1.0
 42
1.0
 43
1.0
 50
0.0
  0
INSERT
  8
gbr
  2
D69
 10
59.625099
 20
64.885140
 41
1.0
 42
1.0
 43
1.0
 50
0.0
  0
INSERT
  8
gbr
  2
D69
 10
59.625099
 20
63.615137
 41
1.0
 42
1.0
 43
1.0
 50
0.0
  0
INSERT
  8
gbr
  2
D69
 10
59.625099
 20
62.345135
 41
1.0
 42
1.0
 43
1.0
 50
0.0
  0
INSERT
  8
gbr
  2
D69
 10
53.875078
 20
66.155142
 41
1.0
 42
1.0
 43
1.0
 50
0.0
  0
INSERT
  8
gbr
  2
D69
 10
53.875078
 20
64.885140
 41
1.0
 42
1.0
 43
1.0
 50
0.0
  0
INSERT
  8
gbr
  2
D69
 10
53.875078
 20
63.615137
 41
1.0
 42
1.0
 43
1.0
 50
0.0
  0
INSERT
  8
gbr
  2
D69
 10
53.875078
 20
62.345135
 41
1.0
 42
1.0
 43
1.0
 50
0.0
  0
INSERT
  8
gbr
  2
D69
 10
49.875080
 20
60.655121
 41
1.0
 42
1.0
 43
1.0
 50
0.0
  0
INSERT
  8
gbr
  2
D69
 10
49.875080
 20
59.385119
 41
1.0
 42
1.0
 43
1.0
 50
0.0
  0
INSERT
  8
gbr
  2
D69
 10
49.875080
 20
58.115116
 41
1.0
 42
1.0
 43
1.0
 50
0.0
  0
INSERT
  8
gbr
  2
D69
 10
49.875080
 20
56.845114
 41
1.0
 42
1.0
 43
1.0
 50
0.0
  0
INSERT
  8
gbr
  2
D69
 10
44.125068
 20
60.655121
 41
1.0
 42
1.0
 43
1.0
 50
0.0
  0
INSERT
  8
gbr
  2
D69
 10
44.125068
 20
59.385119
 41
1.0
 42
1.0
 43
1.0
 50
0.0
  0
INSERT
  8
gbr
  2
D69
 10
44.125068
 20
58.115116
 41
1.0
 42
1.0
 43
1.0
 50
0.0
  0
INSERT
  8
gbr
  2
D69
 10
44.125068
 20
56.845114
 41
1.0
 42
1.0
 43
1.0
 50
0.0
  0
INSERT
  8
gbr
  2
D69
 10
43.625097
 20
63.345137
 41
1.0
 42
1.0
 43
1.0
 50
0.0
  0
INSERT
  8
gbr
  2
D69
 10
43.625097
 20
64.615139
 41
1.0
 42
1.0
 43
1.0
 50
0.0
  0
INSERT
  8
gbr
  2
D69
 10
43.625097
 20
65.885142
 41
1.0
 42
1.0
 43
1.0
 50
0.0
  0
INSERT
  8
gbr
  2
D69
 10
43.625097
 20
67.155144
 41
1.0
 42
1.0
 43
1.0
 50
0.0
  0
INSERT
  8
gbr
  2
D69
 10
49.375109
 20
63.345137
 41
1.0
 42
1.0
 43
1.0
 50
0.0
  0
INSERT
  8
gbr
  2
D69
 10
49.375109
 20
64.615139
 41
1.0
 42
1.0
 43
1.0
 50
0.0
  0
INSERT
  8
gbr
  2
D69
 10
49.375109
 20
65.885142
 41
1.0
 42
1.0
 43
1.0
 50
0.0
  0
INSERT
  8
gbr
  2
D69
 10
49.375109
 20
67.155144
 41
1.0
 42
1.0
 43
1.0
 50
0.0
  0
INSERT
  8
gbr
  2
D69
 10
69.125118
 20
60.405131
 41
1.0
 42
1.0
 43
1.0
 50
0.0
  0
INSERT
  8
gbr
  2
D69
 10
69.125118
 20
59.135128
 41
1.0
 42
1.0
 43
1.0
 50
0.0
  0
INSERT
  8
gbr
  2
D69
 10
69.125118
 20
57.865126
 41
1.0
 42
1.0
 43
1.0
 50
0.0
  0
INSERT
  8
gbr
  2
D69
 10
69.125118
 20
56.595123
 41
1.0
 42
1.0
 43
1.0
 50
0.0
  0
INSERT
  8
gbr
  2
D69
 10
63.375107
 20
60.405131
 41
1.0
 42
1.0
 43
1.0
 50
0.0
  0
INSERT
  8
gbr
  2
D69
 10
63.375107
 20
59.135128
 41
1.0
 42
1.0
 43
1.0
 50
0.0
  0
INSERT
  8
gbr
  2
D69
 10
63.375107
 20
57.865126
 41
1.0
 42
1.0
 43
1.0
 50
0.0
  0
INSERT
  8
gbr
  2
D69
 10
63.375107
 20
56.595123
 41
1.0
 42
1.0
 43
1.0
 50
0.0
  0
INSERT
  8
gbr
  2
D70
 10
49.290119
 20
43.650087
 41
1.0
 42
1.0
 43
1.0
 50
0.0
  0
INSERT
  8
gbr
  2
D71
 10
51.580083
 20
50.000100
 41
1.0
 42
1.0
 43
1.0
 50
0.0
  0
INSERT
  8
gbr
  2
D71
 10
47.000104
 20
50.000100
 41
1.0
 42
1.0
 43
1.0
 50
0.0
  0
INSERT
  8
gbr
  2
D72
 10
43.000106
 20
52.750116
 41
1.0
 42
1.0
 43
1.0
 50
0.0
  0
INSERT
  8
gbr
  2
D72
 10
40.200100
 20
52.750116
 41
1.0
 42
1.0
 43
1.0
 50
0.0
  0
POLYLINE
  8
gbr
 62
1
 40
0.000000
 41
0.000000
 66
  1
  0
VERTEX
  8
gbr
 10
41.520093
 20
55.000100
  0
VERTEX
  8
gbr
 10
42.000104
 20
55.480111
  0
SEQEND
  8
gbr
  0
POLYLINE
  8
gbr
 62
1
 40
0.000000
 41
0.000000
 66
  1
  0
VERTEX
  8
gbr
 10
41.425093
 20
55.000100
  0
VERTEX
  8
gbr
 10
41.520093
 20
55.000100
  0
SEQEND
  8
gbr
  0
POLYLINE
  8
gbr
 62
1
 40
0.000000
 41
0.000000
 66
  1
  0
VERTEX
  8
gbr
 10
33.229056
 20
47.006144
  0
VERTEX
  8
gbr
 10
33.229056
 20
51.751794
  0
SEQEND
  8
gbr
  0
POLYLINE
  8
gbr
 62
1
 40
0.000000
 41
0.000000
 66
  1
  0
VERTEX
  8
gbr
 10
49.540109
 20
51.540103
  0
VERTEX
  8
gbr
 10
51.750114
 20
51.540103
  0
SEQEND
  8
gbr
  0
POLYLINE
  8
gbr
 62
1
 40
0.000000
 41
0.000000
 66
  1
  0
VERTEX
  8
gbr
 10
42.000104
 20
55.480111
  0
VERTEX
  8
gbr
 10
44.020118
 20
55.480111
  0
SEQEND
  8
gbr
  0
POLYLINE
  8
gbr
 62
1
 40
0.000000
 41
0.000000
 66
  1
  0
VERTEX
  8
gbr
 10
43.250087
 20
59.750110
  0
VERTEX
  8
gbr
 10
44.125068
 20
58.875138
  0
SEQEND
  8
gbr
  0
POLYLINE
  8
gbr
 62
1
 40
0.000000
 41
0.000000
 66
  1
  0
VERTEX
  8
gbr
 10
44.125068
 20
58.115116
  0
VERTEX
  8
gbr
 10
44.125068
 20
59.385119
  0
SEQEND
  8
gbr
  0
POLYLINE
  8
gbr
 62
1
 40
0.000000
 41
0.000000
 66
  1
  0
VERTEX
  8
gbr
 10
59.040128
 20
51.540103
  0
VERTEX
  8
gbr
 10
62.000104
 20
54.500129
  0
SEQEND
  8
gbr
  0
POLYLINE
  8
gbr
 62
1
 40
0.000000
 41
0.000000
 66
  1
  0
VERTEX
  8
gbr
 10
62.000104
 20
57.615135
  0
VERTEX
  8
gbr
 10
62.000104
 20
58.885138
  0
SEQEND
  8
gbr
  0
POLYLINE
  8
gbr
 62
1
 40
0.000000
 41
0.000000
 66
  1
  0
VERTEX
  8
gbr
 10
62.000104
 20
54.500129
  0
VERTEX
  8
gbr
 10
62.000104
 20
56.345133
  0
VERTEX
  8
gbr
 10
62.000104
 20
57.615135
  0
SEQEND
  8
gbr
  0
POLYLINE
  8
gbr
 62
1
 40
0.000000
 41
0.000000
 66
  1
  0
VERTEX
  8
gbr
 10
63.375107
 20
57.595125
  0
VERTEX
  8
gbr
 10
63.375107
 20
58.865128
  0
SEQEND
  8
gbr
  0
POLYLINE
  8
gbr
 62
1
 40
0.000000
 41
0.000000
 66
  1
  0
VERTEX
  8
gbr
 10
62.000104
 20
58.885138
  0
VERTEX
  8
gbr
 10
62.000104
 20
60.000100
  0
SEQEND
  8
gbr
  0
POLYLINE
  8
gbr
 62
1
 40
0.000000
 41
0.000000
 66
  1
  0
VERTEX
  8
gbr
 10
44.125068
 20
58.875138
  0
VERTEX
  8
gbr
 10
44.125068
 20
59.385119
  0
SEQEND
  8
gbr
  0
POLYLINE
  8
gbr
 62
1
 40
0.000000
 41
0.000000
 66
  1
  0
VERTEX
  8
gbr
 10
63.375107
 20
57.595125
  0
VERTEX
  8
gbr
 10
63.375107
 20
58.865128
  0
SEQEND
  8
gbr
  0
POLYLINE
  8
gbr
 62
1
 40
0.000000
 41
0.000000
 66
  1
  0
VERTEX
  8
gbr
 10
62.000104
 20
57.615135
  0
VERTEX
  8
gbr
 10
62.000104
 20
58.885138
  0
SEQEND
  8
gbr
  0
POLYLINE
  8
gbr
 62
1
 40
0.000000
 41
0.000000
 66
  1
  0
VERTEX
  8
gbr
 10
62.000104
 20
56.345133
  0
VERTEX
  8
gbr
 10
62.000104
 20
57.615135
  0
SEQEND
  8
gbr
  0
POLYLINE
  8
gbr
 62
1
 40
0.000000
 41
0.000000
 66
  1
  0
VERTEX
  8
gbr
 10
62.000104
 20
58.885138
  0
VERTEX
  8
gbr
 10
62.000104
 20
60.000100
  0
SEQEND
  8
gbr
  0
POLYLINE
  8
gbr
 62
1
 40
0.000000
 41
0.000000
 66
  1
  0
VERTEX
  8
gbr
 10
62.000104
 20
54.500129
  0
VERTEX
  8
gbr
 10
62.000104
 20
56.345133
  0
SEQEND
  8
gbr
  0
POLYLINE
  8
gbr
 62
1
 40
0.000000
 41
0.000000
 66
  1
  0
VERTEX
  8
gbr
 10
44.125068
 20
58.115116
  0
VERTEX
  8
gbr
 10
44.125068
 20
59.385119
  0
SEQEND
  8
gbr
  0
POLYLINE
  8
gbr
 62
1
 40
0.000000
 41
0.000000
 66
  1
  0
VERTEX
  8
gbr
 10
43.250087
 20
59.750110
  0
VERTEX
  8
gbr
 10
44.125068
 20
58.875138
  0
SEQEND
  8
gbr
  0
POLYLINE
  8
gbr
 62
1
 40
0.000000
 41
0.000000
 66
  1
  0
VERTEX
  8
gbr
 10
42.000104
 20
55.480111
  0
VERTEX
  8
gbr
 10
44.020118
 20
55.480111
  0
SEQEND
  8
gbr
  0
POLYLINE
  8
gbr
 62
1
 40
0.000000
 41
0.000000
 66
  1
  0
VERTEX
  8
gbr
 10
59.040128
 20
51.540103
  0
VERTEX
  8
gbr
 10
62.000104
 20
54.500129
  0
SEQEND
  8
gbr
  0
POLYLINE
  8
gbr
 62
1
 40
0.000000
 41
0.000000
 66
  1
  0
VERTEX
  8
gbr
 10
49.540109
 20
51.540103
  0
VERTEX
  8
gbr
 10
51.750114
 20
51.540103
  0
SEQEND
  8
gbr
  0
POLYLINE
  8
gbr
 62
1
 40
0.000000
 41
0.000000
 66
  1
  0
VERTEX
  8
gbr
 10
63.375107
 20
56.595123
  0
VERTEX
  8
gbr
 10
63.375107
 20
57.595125
  0
SEQEND
  8
gbr
  0
POLYLINE
  8
gbr
 62
1
 40
0.000000
 41
0.000000
 66
  1
  0
VERTEX
  8
gbr
 10
51.750114
 20
51.540103
  0
VERTEX
  8
gbr
 10
59.040128
 20
51.540103
  0
SEQEND
  8
gbr
  0
POLYLINE
  8
gbr
 62
1
 40
0.000000
 41
0.000000
 66
  1
  0
VERTEX
  8
gbr
 10
63.375107
 20
55.875132
  0
VERTEX
  8
gbr
 10
63.375107
 20
56.595123
  0
SEQEND
  8
gbr
  0
POLYLINE
  8
gbr
 62
1
 40
0.000000
 41
0.000000
 66
  1
  0
VERTEX
  8
gbr
 10
29.750060
 20
74.500129
  0
VERTEX
  8
gbr
 10
31.750064
 20
76.500173
  0
VERTEX
  8
gbr
 10
33.500077
 20
76.500173
  0
SEQEND
  8
gbr
  0
POLYLINE
  8
gbr
 62
1
 40
0.000000
 41
0.000000
 66
  1
  0
VERTEX
  8
gbr
 10
29.750060
 20
55.230840
  0
VERTEX
  8
gbr
 10
29.750060
 20
74.500129
  0
SEQEND
  8
gbr
  0
POLYLINE
  8
gbr
 62
1
 40
0.000000
 41
0.000000
 66
  1
  0
VERTEX
  8
gbr
 10
29.750060
 20
55.230840
  0
VERTEX
  8
gbr
 10
33.229056
 20
51.751794
  0
SEQEND
  8
gbr
  0
POLYLINE
  8
gbr
 62
1
 40
0.000000
 41
0.000000
 66
  1
  0
VERTEX
  8
gbr
 10
49.540109
 20
51.540103
  0
VERTEX
  8
gbr
 10
49.540109
 20
52.460095
  0
SEQEND
  8
gbr
  0
POLYLINE
  8
gbr
 62
1
 40
0.000000
 41
0.000000
 66
  1
  0
VERTEX
  8
gbr
 10
48.000106
 20
54.000098
  0
VERTEX
  8
gbr
 10
49.540109
 20
52.460095
  0
SEQEND
  8
gbr
  0
POLYLINE
  8
gbr
 62
1
 40
0.000000
 41
0.000000
 66
  1
  0
VERTEX
  8
gbr
 10
47.080114
 20
54.000098
  0
VERTEX
  8
gbr
 10
48.000106
 20
54.000098
  0
SEQEND
  8
gbr
  0
POLYLINE
  8
gbr
 62
1
 40
0.000000
 41
0.000000
 66
  1
  0
VERTEX
  8
gbr
 10
44.500079
 20
76.500173
  0
VERTEX
  8
gbr
 10
46.000102
 20
75.000150
  0
SEQEND
  8
gbr
  0
POLYLINE
  8
gbr
 62
1
 40
0.000000
 41
0.000000
 66
  1
  0
VERTEX
  8
gbr
 10
33.500077
 20
76.500173
  0
VERTEX
  8
gbr
 10
44.500079
 20
76.500173
  0
SEQEND
  8
gbr
  0
POLYLINE
  8
gbr
 62
1
 40
0.000000
 41
0.000000
 66
  1
  0
VERTEX
  8
gbr
 10
63.000156
 20
59.510139
  0
VERTEX
  8
gbr
 10
63.375107
 20
59.135128
  0
SEQEND
  8
gbr
  0
POLYLINE
  8
gbr
 62
1
 40
0.000000
 41
0.000000
 66
  1
  0
VERTEX
  8
gbr
 10
63.000156
 20
60.030120
  0
VERTEX
  8
gbr
 10
63.375107
 20
60.405131
  0
SEQEND
  8
gbr
  0
POLYLINE
  8
gbr
 62
1
 40
0.000000
 41
0.000000
 66
  1
  0
VERTEX
  8
gbr
 10
63.000156
 20
59.510139
  0
VERTEX
  8
gbr
 10
63.000156
 20
60.030120
  0
SEQEND
  8
gbr
  0
POLYLINE
  8
gbr
 62
1
 40
0.000000
 41
0.000000
 66
  1
  0
VERTEX
  8
gbr
 10
29.769220
 20
43.546307
  0
VERTEX
  8
gbr
 10
33.229056
 20
47.006144
  0
SEQEND
  8
gbr
  0
POLYLINE
  8
gbr
 62
1
 40
0.000000
 41
0.000000
 66
  1
  0
VERTEX
  8
gbr
 10
62.000104
 20
54.500129
  0
VERTEX
  8
gbr
 10
63.375107
 20
55.875132
  0
SEQEND
  8
gbr
  0
POLYLINE
  8
gbr
 62
1
 40
0.000000
 41
0.000000
 66
  1
  0
VERTEX
  8
gbr
 10
49.540109
 20
51.540103
  0
VERTEX
  8
gbr
 10
51.080112
 20
50.000100
  0
SEQEND
  8
gbr
  0
POLYLINE
  8
gbr
 62
1
 40
0.000000
 41
0.000000
 66
  1
  0
VERTEX
  8
gbr
 10
42.000104
 20
55.480111
  0
VERTEX
  8
gbr
 10
42.000104
 20
56.750114
  0
SEQEND
  8
gbr
  0
POLYLINE
  8
gbr
 62
1
 40
0.000000
 41
0.000000
 66
  1
  0
VERTEX
  8
gbr
 10
44.125068
 20
56.845114
  0
VERTEX
  8
gbr
 10
44.125068
 20
58.115116
  0
SEQEND
  8
gbr
  0
POLYLINE
  8
gbr
 62
1
 40
0.000000
 41
0.000000
 66
  1
  0
VERTEX
  8
gbr
 10
44.125068
 20
55.585111
  0
VERTEX
  8
gbr
 10
44.125068
 20
56.845114
  0
SEQEND
  8
gbr
  0
POLYLINE
  8
gbr
 62
1
 40
0.000000
 41
0.000000
 66
  1
  0
VERTEX
  8
gbr
 10
44.020118
 20
55.480111
  0
VERTEX
  8
gbr
 10
44.125068
 20
55.585111
  0
SEQEND
  8
gbr
  0
POLYLINE
  8
gbr
 62
1
 40
0.000000
 41
0.000000
 66
  1
  0
VERTEX
  8
gbr
 10
42.000104
 20
58.020116
  0
VERTEX
  8
gbr
 10
42.000104
 20
59.290119
  0
SEQEND
  8
gbr
  0
POLYLINE
  8
gbr
 62
1
 40
0.000000
 41
0.000000
 66
  1
  0
VERTEX
  8
gbr
 10
42.000104
 20
56.750114
  0
VERTEX
  8
gbr
 10
42.000104
 20
58.020116
  0
SEQEND
  8
gbr
  0
POLYLINE
  8
gbr
 62
1
 40
0.000000
 41
0.000000
 66
  1
  0
VERTEX
  8
gbr
 10
44.020118
 20
55.480111
  0
VERTEX
  8
gbr
 10
45.500081
 20
54.000098
  0
VERTEX
  8
gbr
 10
47.080114
 20
54.000098
  0
SEQEND
  8
gbr
  0
POLYLINE
  8
gbr
 62
1
 40
0.000000
 41
0.000000
 66
  1
  0
VERTEX
  8
gbr
 10
51.080112
 20
50.000100
  0
VERTEX
  8
gbr
 10
51.580083
 20
50.000100
  0
SEQEND
  8
gbr
  0
POLYLINE
  8
gbr
 62
1
 40
0.000000
 41
0.000000
 66
  1
  0
VERTEX
  8
gbr
 10
29.769220
 20
38.519227
  0
VERTEX
  8
gbr
 10
29.769220
 20
43.546307
  0
SEQEND
  8
gbr
  0
POLYLINE
  8
gbr
 62
1
 40
0.000000
 41
0.000000
 66
  1
  0
VERTEX
  8
gbr
 10
29.750060
 20
38.500077
  0
VERTEX
  8
gbr
 10
29.769220
 20
38.519227
  0
SEQEND
  8
gbr
  0
POLYLINE
  8
gbr
 62
1
 40
0.000000
 41
0.000000
 66
  1
  0
VERTEX
  8
gbr
 10
40.500081
 20
29.250039
  0
VERTEX
  8
gbr
 10
40.500081
 20
32.750066
  0
SEQEND
  8
gbr
  0
POLYLINE
  8
gbr
 62
1
 40
0.000000
 41
0.000000
 66
  1
  0
VERTEX
  8
gbr
 10
40.500081
 20
29.250039
  0
VERTEX
  8
gbr
 10
42.250085
 20
27.500075
  0
SEQEND
  8
gbr
  0
POLYLINE
  8
gbr
 62
1
 40
0.000000
 41
0.000000
 66
  1
  0
VERTEX
  8
gbr
 10
34.750060
 20
38.500077
  0
VERTEX
  8
gbr
 10
40.500081
 20
32.750066
  0
SEQEND
  8
gbr
  0
POLYLINE
  8
gbr
 62
1
 40
0.000000
 41
0.000000
 66
  1
  0
VERTEX
  8
gbr
 10
41.500073
 20
64.000148
  0
VERTEX
  8
gbr
 10
41.500073
 20
66.850144
  0
SEQEND
  8
gbr
  0
POLYLINE
  8
gbr
 62
1
 40
0.000000
 41
0.000000
 66
  1
  0
VERTEX
  8
gbr
 10
60.675131
 20
64.175108
  0
VERTEX
  8
gbr
 10
60.675131
 20
64.885140
  0
SEQEND
  8
gbr
  0
POLYLINE
  8
gbr
 62
1
 40
0.000000
 41
0.000000
 66
  1
  0
VERTEX
  8
gbr
 10
60.675131
 20
66.000152
  0
VERTEX
  8
gbr
 10
61.175112
 20
65.500131
  0
SEQEND
  8
gbr
  0
POLYLINE
  8
gbr
 62
1
 40
0.000000
 41
0.000000
 66
  1
  0
VERTEX
  8
gbr
 10
53.500127
 20
62.345135
  0
VERTEX
  8
gbr
 10
53.500127
 20
63.615137
  0
SEQEND
  8
gbr
  0
POLYLINE
  8
gbr
 62
1
 40
0.000000
 41
0.000000
 66
  1
  0
VERTEX
  8
gbr
 10
53.425097
 20
58.533807
  0
VERTEX
  8
gbr
 10
54.750110
 20
57.208784
  0
SEQEND
  8
gbr
  0
POLYLINE
  8
gbr
 62
1
 40
0.000000
 41
0.000000
 66
  1
  0
VERTEX
  8
gbr
 10
54.750110
 20
55.957382
  0
VERTEX
  8
gbr
 10
54.750110
 20
57.208784
  0
SEQEND
  8
gbr
  0
POLYLINE
  8
gbr
 62
1
 40
0.000000
 41
0.000000
 66
  1
  0
VERTEX
  8
gbr
 10
53.500127
 20
63.615137
  0
VERTEX
  8
gbr
 10
53.500127
 20
64.885140
  0
SEQEND
  8
gbr
  0
POLYLINE
  8
gbr
 62
1
 40
0.000000
 41
0.000000
 66
  1
  0
VERTEX
  8
gbr
 10
53.500127
 20
66.155142
  0
VERTEX
  8
gbr
 10
53.500127
 20
68.525117
  0
SEQEND
  8
gbr
  0
POLYLINE
  8
gbr
 62
1
 40
0.000000
 41
0.000000
 66
  1
  0
VERTEX
  8
gbr
 10
53.500127
 20
64.885140
  0
VERTEX
  8
gbr
 10
53.500127
 20
66.155142
  0
SEQEND
  8
gbr
  0
POLYLINE
  8
gbr
 62
1
 40
0.000000
 41
0.000000
 66
  1
  0
VERTEX
  8
gbr
 10
35.425091
 20
56.181352
  0
VERTEX
  8
gbr
 10
35.425091
 20
57.543815
  0
SEQEND
  8
gbr
  0
POLYLINE
  8
gbr
 62
1
 40
0.000000
 41
0.000000
 66
  1
  0
VERTEX
  8
gbr
 10
34.000048
 20
58.968808
  0
VERTEX
  8
gbr
 10
34.000048
 20
66.425143
  0
VERTEX
  8
gbr
 10
35.325071
 20
67.750116
  0
SEQEND
  8
gbr
  0
POLYLINE
  8
gbr
 62
1
 40
0.000000
 41
0.000000
 66
  1
  0
VERTEX
  8
gbr
 10
70.000150
 20
58.500127
  0
VERTEX
  8
gbr
 10
70.000150
 20
63.000106
  0
SEQEND
  8
gbr
  0
POLYLINE
  8
gbr
 62
1
 40
0.000000
 41
0.000000
 66
  1
  0
VERTEX
  8
gbr
 10
69.000148
 20
64.000148
  0
VERTEX
  8
gbr
 10
69.000148
 20
70.337771
  0
SEQEND
  8
gbr
  0
POLYLINE
  8
gbr
 62
1
 40
0.000000
 41
0.000000
 66
  1
  0
VERTEX
  8
gbr
 10
69.000148
 20
64.000148
  0
VERTEX
  8
gbr
 10
69.000148
 20
70.337771
  0
SEQEND
  8
gbr
  0
POLYLINE
  8
gbr
 62
1
 40
0.000000
 41
0.000000
 66
  1
  0
VERTEX
  8
gbr
 10
70.000150
 20
58.500127
  0
VERTEX
  8
gbr
 10
70.000150
 20
63.000106
  0
SEQEND
  8
gbr
  0
POLYLINE
  8
gbr
 62
1
 40
0.000000
 41
0.000000
 66
  1
  0
VERTEX
  8
gbr
 10
34.000048
 20
66.425143
  0
VERTEX
  8
gbr
 10
35.325071
 20
67.750116
  0
SEQEND
  8
gbr
  0
POLYLINE
  8
gbr
 62
1
 40
0.000000
 41
0.000000
 66
  1
  0
VERTEX
  8
gbr
 10
34.000048
 20
58.968808
  0
VERTEX
  8
gbr
 10
34.000048
 20
66.425143
  0
SEQEND
  8
gbr
  0
POLYLINE
  8
gbr
 62
1
 40
0.000000
 41
0.000000
 66
  1
  0
VERTEX
  8
gbr
 10
35.425091
 20
56.181352
  0
VERTEX
  8
gbr
 10
35.425091
 20
57.543815
  0
SEQEND
  8
gbr
  0
POLYLINE
  8
gbr
 62
1
 40
0.000000
 41
0.000000
 66
  1
  0
VERTEX
  8
gbr
 10
53.500127
 20
66.155142
  0
VERTEX
  8
gbr
 10
53.500127
 20
68.525117
  0
SEQEND
  8
gbr
  0
POLYLINE
  8
gbr
 62
1
 40
0.000000
 41
0.000000
 66
  1
  0
VERTEX
  8
gbr
 10
53.500127
 20
64.885140
  0
VERTEX
  8
gbr
 10
53.500127
 20
66.155142
  0
SEQEND
  8
gbr
  0
POLYLINE
  8
gbr
 62
1
 40
0.000000
 41
0.000000
 66
  1
  0
VERTEX
  8
gbr
 10
54.750110
 20
55.957382
  0
VERTEX
  8
gbr
 10
54.750110
 20
57.208784
  0
SEQEND
  8
gbr
  0
POLYLINE
  8
gbr
 62
1
 40
0.000000
 41
0.000000
 66
  1
  0
VERTEX
  8
gbr
 10
53.425097
 20
58.533807
  0
VERTEX
  8
gbr
 10
54.750110
 20
57.208784
  0
SEQEND
  8
gbr
  0
POLYLINE
  8
gbr
 62
1
 40
0.000000
 41
0.000000
 66
  1
  0
VERTEX
  8
gbr
 10
53.500127
 20
63.615137
  0
VERTEX
  8
gbr
 10
53.500127
 20
64.885140
  0
SEQEND
  8
gbr
  0
POLYLINE
  8
gbr
 62
1
 40
0.000000
 41
0.000000
 66
  1
  0
VERTEX
  8
gbr
 10
53.500127
 20
62.345135
  0
VERTEX
  8
gbr
 10
53.500127
 20
63.615137
  0
SEQEND
  8
gbr
  0
POLYLINE
  8
gbr
 62
1
 40
0.000000
 41
0.000000
 66
  1
  0
VERTEX
  8
gbr
 10
60.675131
 20
66.000152
  0
VERTEX
  8
gbr
 10
60.675131
 20
68.026466
  0
SEQEND
  8
gbr
  0
POLYLINE
  8
gbr
 62
1
 40
0.000000
 41
0.000000
 66
  1
  0
VERTEX
  8
gbr
 10
61.175112
 20
65.500131
  0
VERTEX
  8
gbr
 10
61.800104
 20
65.500131
  0
SEQEND
  8
gbr
  0
POLYLINE
  8
gbr
 62
1
 40
0.000000
 41
0.000000
 66
  1
  0
VERTEX
  8
gbr
 10
42.500075
 20
64.000148
  0
VERTEX
  8
gbr
 10
42.500075
 20
65.708811
  0
SEQEND
  8
gbr
  0
POLYLINE
  8
gbr
 62
1
 40
0.000000
 41
0.000000
 66
  1
  0
VERTEX
  8
gbr
 10
60.505101
 20
64.005128
  0
VERTEX
  8
gbr
 10
60.675131
 20
64.175108
  0
SEQEND
  8
gbr
  0
POLYLINE
  8
gbr
 62
1
 40
0.000000
 41
0.000000
 66
  1
  0
VERTEX
  8
gbr
 10
35.325071
 20
67.750116
  0
VERTEX
  8
gbr
 10
35.325071
 20
67.806756
  0
SEQEND
  8
gbr
  0
POLYLINE
  8
gbr
 62
1
 40
0.000000
 41
0.000000
 66
  1
  0
VERTEX
  8
gbr
 10
47.500075
 20
76.500173
  0
VERTEX
  8
gbr
 10
50.500081
 20
76.500173
  0
SEQEND
  8
gbr
  0
POLYLINE
  8
gbr
 62
1
 40
0.000000
 41
0.000000
 66
  1
  0
VERTEX
  8
gbr
 10
46.000102
 20
75.000150
  0
VERTEX
  8
gbr
 10
47.500075
 20
76.500173
  0
SEQEND
  8
gbr
  0
POLYLINE
  8
gbr
 62
1
 40
0.000000
 41
0.000000
 66
  1
  0
VERTEX
  8
gbr
 10
50.500081
 20
76.500173
  0
VERTEX
  8
gbr
 10
52.500125
 20
78.500177
  0
SEQEND
  8
gbr
  0
POLYLINE
  8
gbr
 62
1
 40
0.000000
 41
0.000000
 66
  1
  0
VERTEX
  8
gbr
 10
41.627073
 20
73.873148
  0
VERTEX
  8
gbr
 10
43.500077
 20
72.000154
  0
SEQEND
  8
gbr
  0
POLYLINE
  8
gbr
 62
1
 40
0.000000
 41
0.000000
 66
  1
  0
VERTEX
  8
gbr
 10
39.000098
 20
73.873148
  0
VERTEX
  8
gbr
 10
41.627073
 20
73.873148
  0
SEQEND
  8
gbr
  0
POLYLINE
  8
gbr
 62
1
 40
0.000000
 41
0.000000
 66
  1
  0
VERTEX
  8
gbr
 10
53.425097
 20
59.776430
  0
VERTEX
  8
gbr
 10
53.500127
 20
59.851460
  0
VERTEX
  8
gbr
 10
53.500127
 20
61.970134
  0
SEQEND
  8
gbr
  0
POLYLINE
  8
gbr
 62
1
 40
0.000000
 41
0.000000
 66
  1
  0
VERTEX
  8
gbr
 10
53.425097
 20
58.533807
  0
VERTEX
  8
gbr
 10
53.425097
 20
59.776430
  0
SEQEND
  8
gbr
  0
POLYLINE
  8
gbr
 62
1
 40
0.000000
 41
0.000000
 66
  1
  0
VERTEX
  8
gbr
 10
55.000100
 20
70.025150
  0
VERTEX
  8
gbr
 10
55.500131
 20
70.025150
  0
SEQEND
  8
gbr
  0
POLYLINE
  8
gbr
 62
1
 40
0.000000
 41
0.000000
 66
  1
  0
VERTEX
  8
gbr
 10
53.500127
 20
68.525117
  0
VERTEX
  8
gbr
 10
55.000100
 20
70.025150
  0
SEQEND
  8
gbr
  0
POLYLINE
  8
gbr
 62
1
 40
0.000000
 41
0.000000
 66
  1
  0
VERTEX
  8
gbr
 10
69.000148
 20
64.000148
  0
VERTEX
  8
gbr
 10
70.000150
 20
63.000106
  0
SEQEND
  8
gbr
  0
POLYLINE
  8
gbr
 62
1
 40
0.000000
 41
0.000000
 66
  1
  0
VERTEX
  8
gbr
 10
67.500125
 20
71.837794
  0
VERTEX
  8
gbr
 10
67.500125
 20
72.000154
  0
SEQEND
  8
gbr
  0
POLYLINE
  8
gbr
 62
1
 40
0.000000
 41
0.000000
 66
  1
  0
VERTEX
  8
gbr
 10
67.500125
 20
71.837794
  0
VERTEX
  8
gbr
 10
69.000148
 20
70.337771
  0
SEQEND
  8
gbr
  0
POLYLINE
  8
gbr
 62
1
 40
0.000000
 41
0.000000
 66
  1
  0
VERTEX
  8
gbr
 10
60.500131
 20
64.000148
  0
VERTEX
  8
gbr
 10
61.500123
 20
64.000148
  0
SEQEND
  8
gbr
  0
POLYLINE
  8
gbr
 62
1
 40
0.000000
 41
0.000000
 66
  1
  0
VERTEX
  8
gbr
 10
60.675131
 20
68.026466
  0
VERTEX
  8
gbr
 10
61.953824
 20
69.305159
  0
SEQEND
  8
gbr
  0
POLYLINE
  8
gbr
 62
1
 40
0.000000
 41
0.000000
 66
  1
  0
VERTEX
  8
gbr
 10
62.000104
 20
78.500177
  0
VERTEX
  8
gbr
 10
65.000150
 20
75.500131
  0
SEQEND
  8
gbr
  0
POLYLINE
  8
gbr
 62
1
 40
0.000000
 41
0.000000
 66
  1
  0
VERTEX
  8
gbr
 10
52.500125
 20
78.500177
  0
VERTEX
  8
gbr
 10
62.000104
 20
78.500177
  0
SEQEND
  8
gbr
  0
POLYLINE
  8
gbr
 62
1
 40
0.000000
 41
0.000000
 66
  1
  0
VERTEX
  8
gbr
 10
59.475129
 20
75.975162
  0
VERTEX
  8
gbr
 10
62.200154
 20
73.250137
  0
SEQEND
  8
gbr
  0
POLYLINE
  8
gbr
 62
1
 40
0.000000
 41
0.000000
 66
  1
  0
VERTEX
  8
gbr
 10
62.200154
 20
72.300125
  0
VERTEX
  8
gbr
 10
62.500125
 20
72.000154
  0
SEQEND
  8
gbr
  0
POLYLINE
  8
gbr
 62
1
 40
0.000000
 41
0.000000
 66
  1
  0
VERTEX
  8
gbr
 10
55.500131
 20
75.975162
  0
VERTEX
  8
gbr
 10
59.475129
 20
75.975162
  0
SEQEND
  8
gbr
  0
POLYLINE
  8
gbr
 62
1
 40
0.000000
 41
0.000000
 66
  1
  0
VERTEX
  8
gbr
 10
62.200154
 20
72.300125
  0
VERTEX
  8
gbr
 10
62.200154
 20
73.250137
  0
SEQEND
  8
gbr
  0
POLYLINE
  8
gbr
 62
1
 40
0.000000
 41
0.000000
 66
  1
  0
VERTEX
  8
gbr
 10
34.000048
 20
58.968808
  0
VERTEX
  8
gbr
 10
35.425091
 20
57.543815
  0
SEQEND
  8
gbr
  0
POLYLINE
  8
gbr
 62
1
 40
0.000000
 41
0.000000
 66
  1
  0
VERTEX
  8
gbr
 10
41.500073
 20
67.000154
  0
VERTEX
  8
gbr
 10
41.500073
 20
68.328577
  0
SEQEND
  8
gbr
  0
POLYLINE
  8
gbr
 62
1
 40
0.000000
 41
0.000000
 66
  1
  0
VERTEX
  8
gbr
 10
41.500073
 20
67.000154
  0
VERTEX
  8
gbr
 10
41.675083
 20
66.825144
  0
SEQEND
  8
gbr
  0
POLYLINE
  8
gbr
 62
1
 40
0.000000
 41
0.000000
 66
  1
  0
VERTEX
  8
gbr
 10
41.675083
 20
66.533803
  0
VERTEX
  8
gbr
 10
41.675083
 20
66.825144
  0
SEQEND
  8
gbr
  0
POLYLINE
  8
gbr
 62
1
 40
0.000000
 41
0.000000
 66
  1
  0
VERTEX
  8
gbr
 10
41.675083
 20
66.533803
  0
VERTEX
  8
gbr
 10
42.500075
 20
65.708811
  0
SEQEND
  8
gbr
  0
POLYLINE
  8
gbr
 62
1
 40
0.000000
 41
0.000000
 66
  1
  0
VERTEX
  8
gbr
 10
44.916380
 20
69.500129
  0
VERTEX
  8
gbr
 10
46.000102
 20
70.583841
  0
VERTEX
  8
gbr
 10
46.000102
 20
75.000150
  0
SEQEND
  8
gbr
  0
POLYLINE
  8
gbr
 62
1
 40
0.000000
 41
0.000000
 66
  1
  0
VERTEX
  8
gbr
 10
42.671675
 20
69.500129
  0
VERTEX
  8
gbr
 10
44.916380
 20
69.500129
  0
SEQEND
  8
gbr
  0
POLYLINE
  8
gbr
 62
1
 40
0.000000
 41
0.000000
 66
  1
  0
VERTEX
  8
gbr
 10
63.721407
 20
69.305159
  0
VERTEX
  8
gbr
 10
65.000150
 20
70.583841
  0
SEQEND
  8
gbr
  0
POLYLINE
  8
gbr
 62
1
 40
0.000000
 41
0.000000
 66
  1
  0
VERTEX
  8
gbr
 10
61.953824
 20
69.305159
  0
VERTEX
  8
gbr
 10
63.721407
 20
69.305159
  0
SEQEND
  8
gbr
  0
POLYLINE
  8
gbr
 62
1
 40
0.000000
 41
0.000000
 66
  1
  0
VERTEX
  8
gbr
 10
65.000150
 20
70.583841
  0
VERTEX
  8
gbr
 10
65.000150
 20
75.500131
  0
SEQEND
  8
gbr
  0
POLYLINE
  8
gbr
 62
1
 40
0.000000
 41
0.000000
 66
  1
  0
VERTEX
  8
gbr
 10
41.500073
 20
68.328577
  0
VERTEX
  8
gbr
 10
42.671675
 20
69.500129
  0
SEQEND
  8
gbr
  0
INSERT
  8
gbr
  2
D129
 10
65.800132
 20
27.000054
 41
1.0
 42
1.0
 43
1.0
 50
0.0
  0
INSERT
  8
gbr
  2
D129
 10
58.500117
 20
27.000054
 41
1.0
 42
1.0
 43
1.0
 50
0.0
  0
INSERT
  8
gbr
  2
D130
 10
60.550121
 20
32.050064
 41
1.0
 42
1.0
 43
1.0
 50
0.0
  0
INSERT
  8
gbr
  2
D130
 10
62.150124
 20
32.050064
 41
1.0
 42
1.0
 43
1.0
 50
0.0
  0
INSERT
  8
gbr
  2
D130
 10
61.350123
 20
30.850062
 41
1.0
 42
1.0
 43
1.0
 50
0.0
  0
INSERT
  8
gbr
  2
D130
 10
62.950126
 20
30.850062
 41
1.0
 42
1.0
 43
1.0
 50
0.0
  0
INSERT
  8
gbr
  2
D130
 10
63.750128
 20
32.050064
 41
1.0
 42
1.0
 43
1.0
 50
0.0
  0
INSERT
  8
gbr
  2
D130
 10
76.500173
 20
79.000148
 41
1.0
 42
1.0
 43
1.0
 50
0.0
  0
INSERT
  8
gbr
  2
D130
 10
78.500177
 20
79.000148
 41
1.0
 42
1.0
 43
1.0
 50
0.0
  0
INSERT
  8
gbr
  2
D130
 10
80.500181
 20
79.000148
 41
1.0
 42
1.0
 43
1.0
 50
0.0
  0
INSERT
  8
gbr
  2
D130
 10
82.500175
 20
79.000148
 41
1.0
 42
1.0
 43
1.0
 50
0.0
  0
INSERT
  8
gbr
  2
D130
 10
74.500129
 20
79.000148
 41
1.0
 42
1.0
 43
1.0
 50
0.0
  0
INSERT
  8
gbr
  2
D130
 10
30.500081
 20
79.000148
 41
1.0
 42
1.0
 43
1.0
 50
0.0
  0
INSERT
  8
gbr
  2
D130
 10
32.500075
 20
79.000148
 41
1.0
 42
1.0
 43
1.0
 50
0.0
  0
INSERT
  8
gbr
  2
D130
 10
34.500079
 20
79.000148
 41
1.0
 42
1.0
 43
1.0
 50
0.0
  0
INSERT
  8
gbr
  2
D130
 10
36.500073
 20
79.000148
 41
1.0
 42
1.0
 43
1.0
 50
0.0
  0
INSERT
  8
gbr
  2
D130
 10
28.500077
 20
79.000148
 41
1.0
 42
1.0
 43
1.0
 50
0.0
  0
INSERT
  8
gbr
  2
D130
 10
72.250145
 20
31.750064
 41
1.0
 42
1.0
 43
1.0
 50
0.0
  0
INSERT
  8
gbr
  2
D130
 10
74.250139
 20
31.750064
 41
1.0
 42
1.0
 43
1.0
 50
0.0
  0
INSERT
  8
gbr
  2
D130
 10
76.250143
 20
31.750064
 41
1.0
 42
1.0
 43
1.0
 50
0.0
  0
INSERT
  8
gbr
  2
D130
 10
70.250141
 20
31.750064
 41
1.0
 42
1.0
 43
1.0
 50
0.0
  0
INSERT
  8
gbr
  2
D131
 10
42.250085
 20
27.500075
 41
1.0
 42
1.0
 43
1.0
 50
0.0
  0
INSERT
  8
gbr
  2
D131
 10
42.250085
 20
49.000098
 41
1.0
 42
1.0
 43
1.0
 50
0.0
  0
INSERT
  8
gbr
  2
D132
 10
34.750060
 20
38.500077
 41
1.0
 42
1.0
 43
1.0
 50
0.0
  0
INSERT
  8
gbr
  2
D132
 10
29.750060
 20
38.500077
 41
1.0
 42
1.0
 43
1.0
 50
0.0
  0
INSERT
  8
gbr
  2
D132
 10
62.500125
 20
72.000154
 41
1.0
 42
1.0
 43
1.0
 50
0.0
  0
INSERT
  8
gbr
  2
D132
 10
67.500125
 20
72.000154
 41
1.0
 42
1.0
 43
1.0
 50
0.0
  0
INSERT
  8
gbr
  2
D132
 10
43.500077
 20
72.000154
 41
1.0
 42
1.0
 43
1.0
 50
0.0
  0
INSERT
  8
gbr
  2
D132
 10
48.500077
 20
72.000154
 41
1.0
 42
1.0
 43
1.0
 50
0.0
  0
INSERT
  8
gbr
  2
D133
 10
37.750066
 20
28.500077
 41
1.0
 42
1.0
 43
1.0
 50
0.0
  0
INSERT
  8
gbr
  2
D133
 10
26.750064
 20
28.500077
 41
1.0
 42
1.0
 43
1.0
 50
0.0
  0
INSERT
  8
gbr
  2
D133
 10
59.500129
 20
82.000154
 41
1.0
 42
1.0
 43
1.0
 50
0.0
  0
INSERT
  8
gbr
  2
D133
 10
70.500131
 20
82.000154
 41
1.0
 42
1.0
 43
1.0
 50
0.0
  0
INSERT
  8
gbr
  2
D133
 10
40.500081
 20
82.000154
 41
1.0
 42
1.0
 43
1.0
 50
0.0
  0
INSERT
  8
gbr
  2
D133
 10
51.500123
 20
82.000154
 41
1.0
 42
1.0
 43
1.0
 50
0.0
  0
INSERT
  8
gbr
  2
D134
 10
59.200118
 20
36.850074
 41
1.0
 42
1.0
 43
1.0
 50
0.0
  0
INSERT
  8
gbr
  2
D134
 10
47.327095
 20
26.727053
 41
1.0
 42
1.0
 43
1.0
 50
0.0
  0
INSERT
  8
gbr
  2
D134
 10
53.300107
 20
82.200164
 41
1.0
 42
1.0
 43
1.0
 50
0.0
  0
INSERT
  8
gbr
  2
D134
 10
26.100052
 20
66.600133
 41
1.0
 42
1.0
 43
1.0
 50
0.0
  0
INSERT
  8
gbr
  2
D134
 10
35.000070
 20
30.000060
 41
1.0
 42
1.0
 43
1.0
 50
0.0
  0
INSERT
  8
gbr
  2
D134
 10
33.500067
 20
30.000060
 41
1.0
 42
1.0
 43
1.0
 50
0.0
  0
INSERT
  8
gbr
  2
D134
 10
32.000064
 20
30.000060
 41
1.0
 42
1.0
 43
1.0
 50
0.0
  0
INSERT
  8
gbr
  2
D134
 10
30.500061
 20
30.000060
 41
1.0
 42
1.0
 43
1.0
 50
0.0
  0
INSERT
  8
gbr
  2
D134
 10
29.000058
 20
30.000060
 41
1.0
 42
1.0
 43
1.0
 50
0.0
  0
INSERT
  8
gbr
  2
D134
 10
35.000070
 20
28.500057
 41
1.0
 42
1.0
 43
1.0
 50
0.0
  0
INSERT
  8
gbr
  2
D134
 10
33.500067
 20
28.500057
 41
1.0
 42
1.0
 43
1.0
 50
0.0
  0
INSERT
  8
gbr
  2
D134
 10
32.000064
 20
28.500057
 41
1.0
 42
1.0
 43
1.0
 50
0.0
  0
INSERT
  8
gbr
  2
D134
 10
30.500061
 20
28.500057
 41
1.0
 42
1.0
 43
1.0
 50
0.0
  0
INSERT
  8
gbr
  2
D134
 10
29.000058
 20
28.500057
 41
1.0
 42
1.0
 43
1.0
 50
0.0
  0
INSERT
  8
gbr
  2
D134
 10
60.988872
 20
62.311375
 41
1.0
 42
1.0
 43
1.0
 50
0.0
  0
INSERT
  8
gbr
  2
D134
 10
78.000156
 20
69.500139
 41
1.0
 42
1.0
 43
1.0
 50
0.0
  0
INSERT
  8
gbr
  2
D134
 10
78.500157
 20
69.500139
 41
1.0
 42
1.0
 43
1.0
 50
0.0
  0
INSERT
  8
gbr
  2
D134
 10
72.000154
 20
75.000150
 41
1.0
 42
1.0
 43
1.0
 50
0.0
  0
INSERT
  8
gbr
  2
D134
 10
81.509573
 20
42.250085
 41
1.0
 42
1.0
 43
1.0
 50
0.0
  0
INSERT
  8
gbr
  2
D134
 10
64.900130
 20
44.500079
 41
1.0
 42
1.0
 43
1.0
 50
0.0
  0
INSERT
  8
gbr
  2
D134
 10
62.877496
 20
33.260097
 41
1.0
 42
1.0
 43
1.0
 50
0.0
  0
INSERT
  8
gbr
  2
D134
 10
61.263353
 20
33.520067
 41
1.0
 42
1.0
 43
1.0
 50
0.0
  0
INSERT
  8
gbr
  2
D134
 10
63.472697
 20
28.797008
 41
1.0
 42
1.0
 43
1.0
 50
0.0
  0
INSERT
  8
gbr
  2
D134
 10
49.600099
 20
49.100078
 41
1.0
 42
1.0
 43
1.0
 50
0.0
  0
INSERT
  8
gbr
  2
D134
 10
48.300077
 20
49.200098
 41
1.0
 42
1.0
 43
1.0
 50
0.0
  0
INSERT
  8
gbr
  2
D134
 10
45.100080
 20
66.511123
 41
1.0
 42
1.0
 43
1.0
 50
0.0
  0
INSERT
  8
gbr
  2
D134
 10
39.600099
 20
68.000156
 41
1.0
 42
1.0
 43
1.0
 50
0.0
  0
INSERT
  8
gbr
  2
D134
 10
34.042238
 20
71.864914
 41
1.0
 42
1.0
 43
1.0
 50
0.0
  0
INSERT
  8
gbr
  2
D134
 10
36.000052
 20
69.700129
 41
1.0
 42
1.0
 43
1.0
 50
0.0
  0
INSERT
  8
gbr
  2
D134
 10
33.800048
 20
70.200150
 41
1.0
 42
1.0
 43
1.0
 50
0.0
  0
INSERT
  8
gbr
  2
D134
 10
31.700073
 20
67.160384
 41
1.0
 42
1.0
 43
1.0
 50
0.0
  0
INSERT
  8
gbr
  2
D134
 10
31.377923
 20
65.820382
 41
1.0
 42
1.0
 43
1.0
 50
0.0
  0
INSERT
  8
gbr
  2
D134
 10
31.500063
 20
68.500137
 41
1.0
 42
1.0
 43
1.0
 50
0.0
  0
INSERT
  8
gbr
  2
D134
 10
80.603201
 20
55.808692
 41
1.0
 42
1.0
 43
1.0
 50
0.0
  0
INSERT
  8
gbr
  2
D134
 10
81.616713
 20
58.152656
 41
1.0
 42
1.0
 43
1.0
 50
0.0
  0
INSERT
  8
gbr
  2
D134
 10
81.459283
 20
57.615235
 41
1.0
 42
1.0
 43
1.0
 50
0.0
  0
INSERT
  8
gbr
  2
D134
 10
81.392543
 20
58.892498
 41
1.0
 42
1.0
 43
1.0
 50
0.0
  0
INSERT
  8
gbr
  2
D134
 10
81.499743
 20
66.801014
 41
1.0
 42
1.0
 43
1.0
 50
0.0
  0
INSERT
  8
gbr
  2
D134
 10
81.746613
 20
66.296583
 41
1.0
 42
1.0
 43
1.0
 50
0.0
  0
INSERT
  8
gbr
  2
D134
 10
81.523203
 20
65.777132
 41
1.0
 42
1.0
 43
1.0
 50
0.0
  0
INSERT
  8
gbr
  2
D134
 10
81.844324
 20
65.300131
 41
1.0
 42
1.0
 43
1.0
 50
0.0
  0
INSERT
  8
gbr
  2
D134
 10
81.844324
 20
64.740129
 41
1.0
 42
1.0
 43
1.0
 50
0.0
  0
INSERT
  8
gbr
  2
D134
 10
67.215244
 20
77.051184
 41
1.0
 42
1.0
 43
1.0
 50
0.0
  0
INSERT
  8
gbr
  2
D134
 10
62.000124
 20
76.000152
 41
1.0
 42
1.0
 43
1.0
 50
0.0
  0
INSERT
  8
gbr
  2
D134
 10
52.000104
 20
70.000140
 41
1.0
 42
1.0
 43
1.0
 50
0.0
  0
INSERT
  8
gbr
  2
D134
 10
52.000104
 20
57.000114
 41
1.0
 42
1.0
 43
1.0
 50
0.0
  0
INSERT
  8
gbr
  2
D134
 10
53.500107
 20
54.000108
 41
1.0
 42
1.0
 43
1.0
 50
0.0
  0
INSERT
  8
gbr
  2
D134
 10
43.000086
 20
39.000078
 41
1.0
 42
1.0
 43
1.0
 50
0.0
  0
INSERT
  8
gbr
  2
D134
 10
44.500089
 20
39.000078
 41
1.0
 42
1.0
 43
1.0
 50
0.0
  0
INSERT
  8
gbr
  2
D134
 10
43.901818
 20
37.754076
 41
1.0
 42
1.0
 43
1.0
 50
0.0
  0
INSERT
  8
gbr
  2
D134
 10
41.500083
 20
37.500075
 41
1.0
 42
1.0
 43
1.0
 50
0.0
  0
INSERT
  8
gbr
  2
D134
 10
58.157176
 20
44.450079
 41
1.0
 42
1.0
 43
1.0
 50
0.0
  0
INSERT
  8
gbr
  2
D134
 10
57.300125
 20
43.950118
 41
1.0
 42
1.0
 43
1.0
 50
0.0
  0
INSERT
  8
gbr
  2
D134
 10
71.100142
 20
46.600093
 41
1.0
 42
1.0
 43
1.0
 50
0.0
  0
INSERT
  8
gbr
  2
D134
 10
66.668093
 20
46.825084
 41
1.0
 42
1.0
 43
1.0
 50
0.0
  0
INSERT
  8
gbr
  2
D134
 10
56.550113
 20
47.604475
 41
1.0
 42
1.0
 43
1.0
 50
0.0
  0
INSERT
  8
gbr
  2
D134
 10
57.550115
 20
47.604475
 41
1.0
 42
1.0
 43
1.0
 50
0.0
  0
INSERT
  8
gbr
  2
D134
 10
57.720095
 20
44.870060
 41
1.0
 42
1.0
 43
1.0
 50
0.0
  0
INSERT
  8
gbr
  2
D134
 10
60.150120
 20
44.825090
 41
1.0
 42
1.0
 43
1.0
 50
0.0
  0
INSERT
  8
gbr
  2
D134
 10
63.175126
 20
44.025088
 41
1.0
 42
1.0
 43
1.0
 50
0.0
  0
INSERT
  8
gbr
  2
D134
 10
62.662635
 20
43.637587
 41
1.0
 42
1.0
 43
1.0
 50
0.0
  0
INSERT
  8
gbr
  2
D134
 10
61.898024
 20
44.405069
 41
1.0
 42
1.0
 43
1.0
 50
0.0
  0
INSERT
  8
gbr
  2
D134
 10
61.298623
 20
44.530059
 41
1.0
 42
1.0
 43
1.0
 50
0.0
  0
INSERT
  8
gbr
  2
D134
 10
61.005122
 20
44.053138
 41
1.0
 42
1.0
 43
1.0
 50
0.0
  0
INSERT
  8
gbr
  2
D134
 10
58.479507
 20
37.000054
 41
1.0
 42
1.0
 43
1.0
 50
0.0
  0
INSERT
  8
gbr
  2
D134
 10
55.000100
 20
36.000052
 41
1.0
 42
1.0
 43
1.0
 50
0.0
  0
INSERT
  8
gbr
  2
D134
 10
54.075108
 20
37.475075
 41
1.0
 42
1.0
 43
1.0
 50
0.0
  0
INSERT
  8
gbr
  2
D134
 10
36.870794
 20
54.475129
 41
1.0
 42
1.0
 43
1.0
 50
0.0
  0
INSERT
  8
gbr
  2
D134
 10
38.250087
 20
56.450093
 41
1.0
 42
1.0
 43
1.0
 50
0.0
  0
INSERT
  8
gbr
  2
D134
 10
40.186280
 20
56.886314
 41
1.0
 42
1.0
 43
1.0
 50
0.0
  0
INSERT
  8
gbr
  2
D134
 10
41.425093
 20
55.000100
 41
1.0
 42
1.0
 43
1.0
 50
0.0
  0
INSERT
  8
gbr
  2
D134
 10
41.471553
 20
52.753646
 41
1.0
 42
1.0
 43
1.0
 50
0.0
  0
INSERT
  8
gbr
  2
D134
 10
40.307091
 20
44.593089
 41
1.0
 42
1.0
 43
1.0
 50
0.0
  0
INSERT
  8
gbr
  2
D134
 10
38.800098
 20
44.110068
 41
1.0
 42
1.0
 43
1.0
 50
0.0
  0
INSERT
  8
gbr
  2
D134
 10
38.800098
 20
43.550067
 41
1.0
 42
1.0
 43
1.0
 50
0.0
  0
INSERT
  8
gbr
  2
D134
 10
38.800098
 20
42.990066
 41
1.0
 42
1.0
 43
1.0
 50
0.0
  0
INSERT
  8
gbr
  2
D134
 10
31.834954
 20
43.377077
 41
1.0
 42
1.0
 43
1.0
 50
0.0
  0
INSERT
  8
gbr
  2
D134
 10
31.627923
 20
42.558775
 41
1.0
 42
1.0
 43
1.0
 50
0.0
  0
INSERT
  8
gbr
  2
D134
 10
31.875064
 20
40.575081
 41
1.0
 42
1.0
 43
1.0
 50
0.0
  0
INSERT
  8
gbr
  2
D134
 10
31.676133
 20
41.555983
 41
1.0
 42
1.0
 43
1.0
 50
0.0
  0
INSERT
  8
gbr
  2
D134
 10
35.318211
 20
40.586741
 41
1.0
 42
1.0
 43
1.0
 50
0.0
  0
INSERT
  8
gbr
  2
D134
 10
34.750060
 20
40.245070
 41
1.0
 42
1.0
 43
1.0
 50
0.0
  0
INSERT
  8
gbr
  2
D134
 10
33.235656
 20
40.661481
 41
1.0
 42
1.0
 43
1.0
 50
0.0
  0
INSERT
  8
gbr
  2
D134
 10
36.450073
 20
39.875080
 41
1.0
 42
1.0
 43
1.0
 50
0.0
  0
INSERT
  8
gbr
  2
D134
 10
37.750066
 20
40.000100
 41
1.0
 42
1.0
 43
1.0
 50
0.0
  0
INSERT
  8
gbr
  2
D134
 10
40.300081
 20
41.100072
 41
1.0
 42
1.0
 43
1.0
 50
0.0
  0
INSERT
  8
gbr
  2
D134
 10
41.625083
 20
39.000078
 41
1.0
 42
1.0
 43
1.0
 50
0.0
  0
INSERT
  8
gbr
  2
D134
 10
46.457103
 20
39.000078
 41
1.0
 42
1.0
 43
1.0
 50
0.0
  0
INSERT
  8
gbr
  2
D134
 10
46.016632
 20
38.314627
 41
1.0
 42
1.0
 43
1.0
 50
0.0
  0
INSERT
  8
gbr
  2
D134
 10
46.925244
 20
36.523463
 41
1.0
 42
1.0
 43
1.0
 50
0.0
  0
INSERT
  8
gbr
  2
D134
 10
45.500251
 20
36.498463
 41
1.0
 42
1.0
 43
1.0
 50
0.0
  0
INSERT
  8
gbr
  2
D134
 10
42.000234
 20
36.498463
 41
1.0
 42
1.0
 43
1.0
 50
0.0
  0
INSERT
  8
gbr
  2
D134
 10
42.000234
 20
34.273459
 41
1.0
 42
1.0
 43
1.0
 50
0.0
  0
INSERT
  8
gbr
  2
D134
 10
45.500251
 20
34.273459
 41
1.0
 42
1.0
 43
1.0
 50
0.0
  0
INSERT
  8
gbr
  2
D134
 10
43.771278
 20
34.271309
 41
1.0
 42
1.0
 43
1.0
 50
0.0
  0
INSERT
  8
gbr
  2
D134
 10
43.750068
 20
36.500073
 41
1.0
 42
1.0
 43
1.0
 50
0.0
  0
INSERT
  8
gbr
  2
D134
 10
52.592585
 20
41.592533
 41
1.0
 42
1.0
 43
1.0
 50
0.0
  0
INSERT
  8
gbr
  2
D134
 10
55.050090
 20
41.450093
 41
1.0
 42
1.0
 43
1.0
 50
0.0
  0
INSERT
  8
gbr
  2
D134
 10
58.100126
 20
41.356313
 41
1.0
 42
1.0
 43
1.0
 50
0.0
  0
INSERT
  8
gbr
  2
D134
 10
58.600117
 20
41.038102
 41
1.0
 42
1.0
 43
1.0
 50
0.0
  0
INSERT
  8
gbr
  2
D134
 10
57.300125
 20
38.438797
 41
1.0
 42
1.0
 43
1.0
 50
0.0
  0
INSERT
  8
gbr
  2
D134
 10
57.271625
 20
38.998068
 41
1.0
 42
1.0
 43
1.0
 50
0.0
  0
INSERT
  8
gbr
  2
D134
 10
66.496603
 20
40.496551
 41
1.0
 42
1.0
 43
1.0
 50
0.0
  0
INSERT
  8
gbr
  2
D134
 10
65.800152
 20
40.500081
 41
1.0
 42
1.0
 43
1.0
 50
0.0
  0
INSERT
  8
gbr
  2
D134
 10
65.800152
 20
39.700079
 41
1.0
 42
1.0
 43
1.0
 50
0.0
  0
INSERT
  8
gbr
  2
D134
 10
66.784154
 20
36.550063
 41
1.0
 42
1.0
 43
1.0
 50
0.0
  0
INSERT
  8
gbr
  2
D134
 10
65.100130
 20
36.067182
 41
1.0
 42
1.0
 43
1.0
 50
0.0
  0
INSERT
  8
gbr
  2
D134
 10
64.145238
 20
39.154988
 41
1.0
 42
1.0
 43
1.0
 50
0.0
  0
INSERT
  8
gbr
  2
D134
 10
64.200148
 20
38.400097
 41
1.0
 42
1.0
 43
1.0
 50
0.0
  0
INSERT
  8
gbr
  2
D134
 10
59.721729
 20
40.514651
 41
1.0
 42
1.0
 43
1.0
 50
0.0
  0
INSERT
  8
gbr
  2
D134
 10
64.000148
 20
37.800106
 41
1.0
 42
1.0
 43
1.0
 50
0.0
  0
INSERT
  8
gbr
  2
D134
 10
61.963724
 20
37.863706
 41
1.0
 42
1.0
 43
1.0
 50
0.0
  0
INSERT
  8
gbr
  2
D134
 10
61.100122
 20
37.000074
 41
1.0
 42
1.0
 43
1.0
 50
0.0
  0
INSERT
  8
gbr
  2
D134
 10
61.000102
 20
36.180072
 41
1.0
 42
1.0
 43
1.0
 50
0.0
  0
INSERT
  8
gbr
  2
D134
 10
65.300131
 20
33.895108
 41
1.0
 42
1.0
 43
1.0
 50
0.0
  0
INSERT
  8
gbr
  2
D134
 10
62.368155
 20
33.556227
 41
1.0
 42
1.0
 43
1.0
 50
0.0
  0
INSERT
  8
gbr
  2
D134
 10
56.940134
 20
33.629447
 41
1.0
 42
1.0
 43
1.0
 50
0.0
  0
INSERT
  8
gbr
  2
D134
 10
57.575115
 20
33.684607
 41
1.0
 42
1.0
 43
1.0
 50
0.0
  0
INSERT
  8
gbr
  2
D134
 10
58.415857
 20
33.399037
 41
1.0
 42
1.0
 43
1.0
 50
0.0
  0
INSERT
  8
gbr
  2
D134
 10
59.430119
 20
33.103556
 41
1.0
 42
1.0
 43
1.0
 50
0.0
  0
INSERT
  8
gbr
  2
D134
 10
65.800152
 20
36.095052
 41
1.0
 42
1.0
 43
1.0
 50
0.0
  0
INSERT
  8
gbr
  2
D134
 10
67.389045
 20
35.251021
 41
1.0
 42
1.0
 43
1.0
 50
0.0
  0
INSERT
  8
gbr
  2
D134
 10
68.818948
 20
36.318873
 41
1.0
 42
1.0
 43
1.0
 50
0.0
  0
INSERT
  8
gbr
  2
D134
 10
69.500129
 20
37.830086
 41
1.0
 42
1.0
 43
1.0
 50
0.0
  0
INSERT
  8
gbr
  2
D134
 10
73.954438
 20
40.653331
 41
1.0
 42
1.0
 43
1.0
 50
0.0
  0
INSERT
  8
gbr
  2
D134
 10
71.800154
 20
39.170088
 41
1.0
 42
1.0
 43
1.0
 50
0.0
  0
INSERT
  8
gbr
  2
D134
 10
71.202222
 20
39.170088
 41
1.0
 42
1.0
 43
1.0
 50
0.0
  0
INSERT
  8
gbr
  2
D134
 10
71.825754
 20
40.620101
 41
1.0
 42
1.0
 43
1.0
 50
0.0
  0
INSERT
  8
gbr
  2
D134
 10
70.908912
 20
40.701231
 41
1.0
 42
1.0
 43
1.0
 50
0.0
  0
INSERT
  8
gbr
  2
D134
 10
69.100138
 20
40.961232
 41
1.0
 42
1.0
 43
1.0
 50
0.0
  0
INSERT
  8
gbr
  2
D134
 10
69.057458
 20
39.621239
 41
1.0
 42
1.0
 43
1.0
 50
0.0
  0
INSERT
  8
gbr
  2
D134
 10
68.813118
 20
41.458353
 41
1.0
 42
1.0
 43
1.0
 50
0.0
  0
INSERT
  8
gbr
  2
D134
 10
69.395259
 20
42.804966
 41
1.0
 42
1.0
 43
1.0
 50
0.0
  0
INSERT
  8
gbr
  2
D134
 10
70.800152
 20
43.810098
 41
1.0
 42
1.0
 43
1.0
 50
0.0
  0
INSERT
  8
gbr
  2
D134
 10
81.500163
 20
43.700087
 41
1.0
 42
1.0
 43
1.0
 50
0.0
  0
INSERT
  8
gbr
  2
D134
 10
80.200160
 20
46.550113
 41
1.0
 42
1.0
 43
1.0
 50
0.0
  0
INSERT
  8
gbr
  2
D134
 10
78.600157
 20
48.500097
 41
1.0
 42
1.0
 43
1.0
 50
0.0
  0
INSERT
  8
gbr
  2
D134
 10
79.200148
 20
48.500077
 41
1.0
 42
1.0
 43
1.0
 50
0.0
  0
INSERT
  8
gbr
  2
D134
 10
79.800150
 20
48.500077
 41
1.0
 42
1.0
 43
1.0
 50
0.0
  0
INSERT
  8
gbr
  2
D134
 10
79.800150
 20
49.100078
 41
1.0
 42
1.0
 43
1.0
 50
0.0
  0
INSERT
  8
gbr
  2
D134
 10
79.200158
 20
49.100098
 41
1.0
 42
1.0
 43
1.0
 50
0.0
  0
INSERT
  8
gbr
  2
D134
 10
78.600157
 20
49.750100
 41
1.0
 42
1.0
 43
1.0
 50
0.0
  0
INSERT
  8
gbr
  2
D134
 10
79.200158
 20
49.700099
 41
1.0
 42
1.0
 43
1.0
 50
0.0
  0
INSERT
  8
gbr
  2
D134
 10
78.600157
 20
49.100078
 41
1.0
 42
1.0
 43
1.0
 50
0.0
  0
INSERT
  8
gbr
  2
D134
 10
79.800160
 20
49.700099
 41
1.0
 42
1.0
 43
1.0
 50
0.0
  0
INSERT
  8
gbr
  2
D134
 10
77.535815
 20
54.330119
 41
1.0
 42
1.0
 43
1.0
 50
0.0
  0
INSERT
  8
gbr
  2
D134
 10
77.911976
 20
54.795130
 41
1.0
 42
1.0
 43
1.0
 50
0.0
  0
INSERT
  8
gbr
  2
D134
 10
78.448777
 20
55.221350
 41
1.0
 42
1.0
 43
1.0
 50
0.0
  0
INSERT
  8
gbr
  2
D134
 10
72.508575
 20
57.153564
 41
1.0
 42
1.0
 43
1.0
 50
0.0
  0
INSERT
  8
gbr
  2
D134
 10
73.719327
 20
57.135464
 41
1.0
 42
1.0
 43
1.0
 50
0.0
  0
INSERT
  8
gbr
  2
D134
 10
70.325141
 20
56.600113
 41
1.0
 42
1.0
 43
1.0
 50
0.0
  0
INSERT
  8
gbr
  2
D134
 10
72.000144
 20
61.800124
 41
1.0
 42
1.0
 43
1.0
 50
0.0
  0
INSERT
  8
gbr
  2
D134
 10
73.725127
 20
58.855138
 41
1.0
 42
1.0
 43
1.0
 50
0.0
  0
INSERT
  8
gbr
  2
D134
 10
74.762210
 20
56.650983
 41
1.0
 42
1.0
 43
1.0
 50
0.0
  0
INSERT
  8
gbr
  2
D134
 10
75.023430
 20
57.460665
 41
1.0
 42
1.0
 43
1.0
 50
0.0
  0
INSERT
  8
gbr
  2
D134
 10
74.945130
 20
58.113336
 41
1.0
 42
1.0
 43
1.0
 50
0.0
  0
INSERT
  8
gbr
  2
D134
 10
75.361141
 20
59.305099
 41
1.0
 42
1.0
 43
1.0
 50
0.0
  0
INSERT
  8
gbr
  2
D134
 10
74.805170
 20
59.161698
 41
1.0
 42
1.0
 43
1.0
 50
0.0
  0
INSERT
  8
gbr
  2
D134
 10
79.030678
 20
61.855624
 41
1.0
 42
1.0
 43
1.0
 50
0.0
  0
INSERT
  8
gbr
  2
D134
 10
80.000150
 20
62.800106
 41
1.0
 42
1.0
 43
1.0
 50
0.0
  0
INSERT
  8
gbr
  2
D134
 10
78.920158
 20
62.880146
 41
1.0
 42
1.0
 43
1.0
 50
0.0
  0
INSERT
  8
gbr
  2
D134
 10
78.314597
 20
62.971256
 41
1.0
 42
1.0
 43
1.0
 50
0.0
  0
INSERT
  8
gbr
  2
D134
 10
77.675195
 20
62.880146
 41
1.0
 42
1.0
 43
1.0
 50
0.0
  0
INSERT
  8
gbr
  2
D134
 10
77.005174
 20
62.800106
 41
1.0
 42
1.0
 43
1.0
 50
0.0
  0
INSERT
  8
gbr
  2
D134
 10
74.345139
 20
62.719535
 41
1.0
 42
1.0
 43
1.0
 50
0.0
  0
INSERT
  8
gbr
  2
D134
 10
74.460289
 20
65.412831
 41
1.0
 42
1.0
 43
1.0
 50
0.0
  0
INSERT
  8
gbr
  2
D134
 10
74.887300
 20
65.775132
 41
1.0
 42
1.0
 43
1.0
 50
0.0
  0
INSERT
  8
gbr
  2
D134
 10
75.010150
 20
64.775130
 41
1.0
 42
1.0
 43
1.0
 50
0.0
  0
INSERT
  8
gbr
  2
D134
 10
75.048590
 20
66.831494
 41
1.0
 42
1.0
 43
1.0
 50
0.0
  0
INSERT
  8
gbr
  2
D134
 10
73.819078
 20
65.453751
 41
1.0
 42
1.0
 43
1.0
 50
0.0
  0
INSERT
  8
gbr
  2
D134
 10
63.795128
 20
67.405135
 41
1.0
 42
1.0
 43
1.0
 50
0.0
  0
INSERT
  8
gbr
  2
D134
 10
64.244648
 20
64.444649
 41
1.0
 42
1.0
 43
1.0
 50
0.0
  0
INSERT
  8
gbr
  2
D134
 10
67.145334
 20
64.545339
 41
1.0
 42
1.0
 43
1.0
 50
0.0
  0
INSERT
  8
gbr
  2
D134
 10
64.900130
 20
64.625129
 41
1.0
 42
1.0
 43
1.0
 50
0.0
  0
INSERT
  8
gbr
  2
D134
 10
65.785972
 20
61.939374
 41
1.0
 42
1.0
 43
1.0
 50
0.0
  0
INSERT
  8
gbr
  2
D134
 10
65.228420
 20
61.887044
 41
1.0
 42
1.0
 43
1.0
 50
0.0
  0
INSERT
  8
gbr
  2
D134
 10
56.660093
 20
59.153058
 41
1.0
 42
1.0
 43
1.0
 50
0.0
  0
INSERT
  8
gbr
  2
D134
 10
56.495103
 20
53.405127
 41
1.0
 42
1.0
 43
1.0
 50
0.0
  0
INSERT
  8
gbr
  2
D134
 10
47.784786
 20
57.035454
 41
1.0
 42
1.0
 43
1.0
 50
0.0
  0
INSERT
  8
gbr
  2
D134
 10
47.305105
 20
58.250137
 41
1.0
 42
1.0
 43
1.0
 50
0.0
  0
INSERT
  8
gbr
  2
D134
 10
48.519557
 20
69.330689
 41
1.0
 42
1.0
 43
1.0
 50
0.0
  0
INSERT
  8
gbr
  2
D134
 10
53.249536
 20
77.005144
 41
1.0
 42
1.0
 43
1.0
 50
0.0
  0
INSERT
  8
gbr
  2
D134
 10
28.237536
 20
75.537671
 41
1.0
 42
1.0
 43
1.0
 50
0.0
  0
INSERT
  8
gbr
  2
D134
 10
26.100072
 20
68.300127
 41
1.0
 42
1.0
 43
1.0
 50
0.0
  0
INSERT
  8
gbr
  2
D134
 10
26.390043
 20
69.600719
 41
1.0
 42
1.0
 43
1.0
 50
0.0
  0
INSERT
  8
gbr
  2
D134
 10
26.390043
 20
70.825142
 41
1.0
 42
1.0
 43
1.0
 50
0.0
  0
INSERT
  8
gbr
  2
D134
 10
26.182012
 20
72.110134
 41
1.0
 42
1.0
 43
1.0
 50
0.0
  0
INSERT
  8
gbr
  2
D134
 10
35.475071
 20
72.275145
 41
1.0
 42
1.0
 43
1.0
 50
0.0
  0
INSERT
  8
gbr
  2
D134
 10
37.640545
 20
63.185476
 41
1.0
 42
1.0
 43
1.0
 50
0.0
  0
INSERT
  8
gbr
  2
D134
 10
39.200078
 20
66.250133
 41
1.0
 42
1.0
 43
1.0
 50
0.0
  0
INSERT
  8
gbr
  2
D134
 10
42.236474
 20
62.136504
 41
1.0
 42
1.0
 43
1.0
 50
0.0
  0
INSERT
  8
gbr
  2
D134
 10
39.683309
 20
60.383341
 41
1.0
 42
1.0
 43
1.0
 50
0.0
  0
INSERT
  8
gbr
  2
D134
 10
39.841050
 20
62.802086
 41
1.0
 42
1.0
 43
1.0
 50
0.0
  0
INSERT
  8
gbr
  2
D134
 10
37.830056
 20
60.500131
 41
1.0
 42
1.0
 43
1.0
 50
0.0
  0
INSERT
  8
gbr
  2
D134
 10
37.732285
 20
59.851580
 41
1.0
 42
1.0
 43
1.0
 50
0.0
  0
INSERT
  8
gbr
  2
D134
 10
37.628955
 20
57.866246
 41
1.0
 42
1.0
 43
1.0
 50
0.0
  0
INSERT
  8
gbr
  2
D134
 10
33.703617
 20
57.096584
 41
1.0
 42
1.0
 43
1.0
 50
0.0
  0
INSERT
  8
gbr
  2
D134
 10
33.975068
 20
54.000108
 41
1.0
 42
1.0
 43
1.0
 50
0.0
  0
INSERT
  8
gbr
  2
D134
 10
38.708917
 20
52.891286
 41
1.0
 42
1.0
 43
1.0
 50
0.0
  0
INSERT
  8
gbr
  2
D134
 10
38.190856
 20
53.103926
 41
1.0
 42
1.0
 43
1.0
 50
0.0
  0
INSERT
  8
gbr
  2
D134
 10
39.006118
 20
51.901164
 41
1.0
 42
1.0
 43
1.0
 50
0.0
  0
INSERT
  8
gbr
  2
D134
 10
38.155756
 20
48.566777
 41
1.0
 42
1.0
 43
1.0
 50
0.0
  0
INSERT
  8
gbr
  2
D134
 10
37.001224
 20
47.668845
 41
1.0
 42
1.0
 43
1.0
 50
0.0
  0
INSERT
  8
gbr
  2
D134
 10
36.824874
 20
46.848904
 41
1.0
 42
1.0
 43
1.0
 50
0.0
  0
INSERT
  8
gbr
  2
D134
 10
35.250091
 20
47.080094
 41
1.0
 42
1.0
 43
1.0
 50
0.0
  0
INSERT
  8
gbr
  2
D134
 10
35.810092
 20
47.080094
 41
1.0
 42
1.0
 43
1.0
 50
0.0
  0
INSERT
  8
gbr
  2
D134
 10
34.789920
 20
46.718923
 41
1.0
 42
1.0
 43
1.0
 50
0.0
  0
INSERT
  8
gbr
  2
D134
 10
35.010470
 20
47.604505
 41
1.0
 42
1.0
 43
1.0
 50
0.0
  0
INSERT
  8
gbr
  2
D134
 10
35.587711
 20
47.638535
 41
1.0
 42
1.0
 43
1.0
 50
0.0
  0
INSERT
  8
gbr
  2
D134
 10
31.530263
 20
48.055296
 41
1.0
 42
1.0
 43
1.0
 50
0.0
  0
INSERT
  8
gbr
  2
D134
 10
31.530263
 20
49.111418
 41
1.0
 42
1.0
 43
1.0
 50
0.0
  0
INSERT
  8
gbr
  2
D134
 10
31.580983
 20
49.802510
 41
1.0
 42
1.0
 43
1.0
 50
0.0
  0
INSERT
  8
gbr
  2
D134
 10
31.511843
 20
50.358221
 41
1.0
 42
1.0
 43
1.0
 50
0.0
  0
INSERT
  8
gbr
  2
D134
 10
31.360303
 20
50.897332
 41
1.0
 42
1.0
 43
1.0
 50
0.0
  0
INSERT
  8
gbr
  2
D134
 10
31.100062
 20
51.450103
 41
1.0
 42
1.0
 43
1.0
 50
0.0
  0
INSERT
  8
gbr
  2
D134
 10
78.800148
 20
52.100124
 41
1.0
 42
1.0
 43
1.0
 50
0.0
  0
INSERT
  8
gbr
  2
D134
 10
49.300079
 20
28.800048
 41
1.0
 42
1.0
 43
1.0
 50
0.0
  0
INSERT
  8
gbr
  2
D134
 10
55.500131
 20
73.900128
 41
1.0
 42
1.0
 43
1.0
 50
0.0
  0
INSERT
  8
gbr
  2
D135
 10
34.150068
 20
51.850104
 41
1.0
 42
1.0
 43
1.0
 50
0.0
  0
INSERT
  8
gbr
  2
D135
 10
35.250071
 20
51.850104
 41
1.0
 42
1.0
 43
1.0
 50
0.0
  0
INSERT
  8
gbr
  2
D135
 10
36.350073
 20
51.850104
 41
1.0
 42
1.0
 43
1.0
 50
0.0
  0
INSERT
  8
gbr
  2
D135
 10
34.150068
 20
50.750102
 41
1.0
 42
1.0
 43
1.0
 50
0.0
  0
INSERT
  8
gbr
  2
D135
 10
35.250071
 20
50.750102
 41
1.0
 42
1.0
 43
1.0
 50
0.0
  0
INSERT
  8
gbr
  2
D135
 10
36.350073
 20
50.750102
 41
1.0
 42
1.0
 43
1.0
 50
0.0
  0
INSERT
  8
gbr
  2
D135
 10
34.150068
 20
49.650099
 41
1.0
 42
1.0
 43
1.0
 50
0.0
  0
INSERT
  8
gbr
  2
D135
 10
35.250071
 20
49.650099
 41
1.0
 42
1.0
 43
1.0
 50
0.0
  0
INSERT
  8
gbr
  2
D135
 10
36.350073
 20
49.650099
 41
1.0
 42
1.0
 43
1.0
 50
0.0
  0
INSERT
  8
gbr
  2
D135
 10
36.600073
 20
42.550085
 41
1.0
 42
1.0
 43
1.0
 50
0.0
  0
INSERT
  8
gbr
  2
D135
 10
35.500071
 20
42.550085
 41
1.0
 42
1.0
 43
1.0
 50
0.0
  0
INSERT
  8
gbr
  2
D135
 10
34.400069
 20
42.550085
 41
1.0
 42
1.0
 43
1.0
 50
0.0
  0
INSERT
  8
gbr
  2
D135
 10
36.600073
 20
43.650087
 41
1.0
 42
1.0
 43
1.0
 50
0.0
  0
INSERT
  8
gbr
  2
D135
 10
35.500071
 20
43.650087
 41
1.0
 42
1.0
 43
1.0
 50
0.0
  0
INSERT
  8
gbr
  2
D135
 10
34.400069
 20
43.650087
 41
1.0
 42
1.0
 43
1.0
 50
0.0
  0
INSERT
  8
gbr
  2
D135
 10
36.600073
 20
44.750090
 41
1.0
 42
1.0
 43
1.0
 50
0.0
  0
INSERT
  8
gbr
  2
D135
 10
35.500071
 20
44.750090
 41
1.0
 42
1.0
 43
1.0
 50
0.0
  0
INSERT
  8
gbr
  2
D135
 10
34.400069
 20
44.750090
 41
1.0
 42
1.0
 43
1.0
 50
0.0
  0
INSERT
  8
gbr
  2
D135
 10
77.150154
 20
67.150134
 41
1.0
 42
1.0
 43
1.0
 50
0.0
  0
INSERT
  8
gbr
  2
D135
 10
78.250157
 20
67.150134
 41
1.0
 42
1.0
 43
1.0
 50
0.0
  0
INSERT
  8
gbr
  2
D135
 10
79.350159
 20
67.150134
 41
1.0
 42
1.0
 43
1.0
 50
0.0
  0
INSERT
  8
gbr
  2
D135
 10
77.150154
 20
66.050132
 41
1.0
 42
1.0
 43
1.0
 50
0.0
  0
INSERT
  8
gbr
  2
D135
 10
78.250157
 20
66.050132
 41
1.0
 42
1.0
 43
1.0
 50
0.0
  0
INSERT
  8
gbr
  2
D135
 10
79.350159
 20
66.050132
 41
1.0
 42
1.0
 43
1.0
 50
0.0
  0
INSERT
  8
gbr
  2
D135
 10
77.150154
 20
64.950130
 41
1.0
 42
1.0
 43
1.0
 50
0.0
  0
INSERT
  8
gbr
  2
D135
 10
78.250157
 20
64.950130
 41
1.0
 42
1.0
 43
1.0
 50
0.0
  0
INSERT
  8
gbr
  2
D135
 10
79.350159
 20
64.950130
 41
1.0
 42
1.0
 43
1.0
 50
0.0
  0
INSERT
  8
gbr
  2
D135
 10
79.350159
 20
56.950114
 41
1.0
 42
1.0
 43
1.0
 50
0.0
  0
INSERT
  8
gbr
  2
D135
 10
78.250157
 20
56.950114
 41
1.0
 42
1.0
 43
1.0
 50
0.0
  0
INSERT
  8
gbr
  2
D135
 10
77.150154
 20
56.950114
 41
1.0
 42
1.0
 43
1.0
 50
0.0
  0
INSERT
  8
gbr
  2
D135
 10
79.350159
 20
58.050116
 41
1.0
 42
1.0
 43
1.0
 50
0.0
  0
INSERT
  8
gbr
  2
D135
 10
78.250157
 20
58.050116
 41
1.0
 42
1.0
 43
1.0
 50
0.0
  0
INSERT
  8
gbr
  2
D135
 10
77.150154
 20
58.050116
 41
1.0
 42
1.0
 43
1.0
 50
0.0
  0
INSERT
  8
gbr
  2
D135
 10
79.350159
 20
59.150118
 41
1.0
 42
1.0
 43
1.0
 50
0.0
  0
INSERT
  8
gbr
  2
D135
 10
78.250157
 20
59.150118
 41
1.0
 42
1.0
 43
1.0
 50
0.0
  0
INSERT
  8
gbr
  2
D135
 10
77.150154
 20
59.150118
 41
1.0
 42
1.0
 43
1.0
 50
0.0
  0
INSERT
  8
gbr
  2
D136
 10
28.500077
 20
49.500079
 41
1.0
 42
1.0
 43
1.0
 50
0.0
  0
INSERT
  8
gbr
  2
D136
 10
82.000154
 20
28.500077
 41
1.0
 42
1.0
 43
1.0
 50
0.0
  0
INSERT
  8
gbr
  2
D136
 10
79.750170
 20
72.750166
 41
1.0
 42
1.0
 43
1.0
 50
0.0
  0
ENDSEC
  0
EOF
