%TF.GenerationSoftware,Altium Limited,Altium Designer,24.7.2 (38)*%
G04 Layer_Color=2752767*
%FSLAX45Y45*%
%MOMM*%
%TF.SameCoordinates,4E20714E-E0DB-4EF4-9D00-32C5CA98EF25*%
%TF.FilePolarity,Positive*%
%TF.FileFunction,Drawing*%
%TF.Part,Single*%
G01*
G75*
%TA.AperFunction,NonConductor*%
%ADD85C,0.12700*%
%ADD138C,0.16933*%
D85*
X6529200Y2700000D02*
X6580000Y2750800D01*
X6630800Y2700000D01*
X6580000Y2649200D01*
X6529200Y2700000D01*
X5799200D02*
X5850000Y2750800D01*
X5900800Y2700000D01*
X5850000Y2649200D01*
X5799200Y2700000D01*
X6055000Y3154200D02*
X6080400Y3179600D01*
X6105800D01*
X6080400Y3205000D01*
X6105800Y3230400D01*
X6080400D01*
X6055000Y3255800D01*
X6029600Y3230400D01*
X6004200D01*
X6029600Y3205000D01*
X6004200Y3179600D01*
X6029600D01*
X6055000Y3154200D01*
X6215000D02*
X6240400Y3179600D01*
X6265800D01*
X6240400Y3205000D01*
X6265800Y3230400D01*
X6240400D01*
X6215000Y3255800D01*
X6189600Y3230400D01*
X6164200D01*
X6189600Y3205000D01*
X6164200Y3179600D01*
X6189600D01*
X6215000Y3154200D01*
X6135000Y3034200D02*
X6160400Y3059600D01*
X6185800D01*
X6160400Y3085000D01*
X6185800Y3110400D01*
X6160400D01*
X6135000Y3135800D01*
X6109600Y3110400D01*
X6084200D01*
X6109600Y3085000D01*
X6084200Y3059600D01*
X6109600D01*
X6135000Y3034200D01*
X6295000D02*
X6320400Y3059600D01*
X6345800D01*
X6320400Y3085000D01*
X6345800Y3110400D01*
X6320400D01*
X6295000Y3135800D01*
X6269600Y3110400D01*
X6244200D01*
X6269600Y3085000D01*
X6244200Y3059600D01*
X6269600D01*
X6295000Y3034200D01*
X6375000Y3154200D02*
X6400400Y3179600D01*
X6425800D01*
X6400400Y3205000D01*
X6425800Y3230400D01*
X6400400D01*
X6375000Y3255800D01*
X6349600Y3230400D01*
X6324200D01*
X6349600Y3205000D01*
X6324200Y3179600D01*
X6349600D01*
X6375000Y3154200D01*
X7650002Y7849199D02*
X7675402Y7874599D01*
X7700802D01*
X7675402Y7899999D01*
X7700802Y7925399D01*
X7675402D01*
X7650002Y7950799D01*
X7624602Y7925399D01*
X7599202D01*
X7624602Y7899999D01*
X7599202Y7874599D01*
X7624602D01*
X7650002Y7849199D01*
X7850002D02*
X7875402Y7874599D01*
X7900802D01*
X7875402Y7899999D01*
X7900802Y7925399D01*
X7875402D01*
X7850002Y7950799D01*
X7824602Y7925399D01*
X7799202D01*
X7824602Y7899999D01*
X7799202Y7874599D01*
X7824602D01*
X7850002Y7849199D01*
X8050002D02*
X8075402Y7874599D01*
X8100802D01*
X8075402Y7899999D01*
X8100802Y7925399D01*
X8075402D01*
X8050002Y7950799D01*
X8024602Y7925399D01*
X7999202D01*
X8024602Y7899999D01*
X7999202Y7874599D01*
X8024602D01*
X8050002Y7849199D01*
X8250001D02*
X8275401Y7874599D01*
X8300801D01*
X8275401Y7899999D01*
X8300801Y7925399D01*
X8275401D01*
X8250001Y7950799D01*
X8224601Y7925399D01*
X8199201D01*
X8224601Y7899999D01*
X8199201Y7874599D01*
X8224601D01*
X8250001Y7849199D01*
X7449998D02*
X7475398Y7874599D01*
X7500798D01*
X7475398Y7899999D01*
X7500798Y7925399D01*
X7475398D01*
X7449998Y7950799D01*
X7424598Y7925399D01*
X7399198D01*
X7424598Y7899999D01*
X7399198Y7874599D01*
X7424598D01*
X7449998Y7849199D01*
X3050002D02*
X3075402Y7874599D01*
X3100802D01*
X3075402Y7899999D01*
X3100802Y7925399D01*
X3075402D01*
X3050002Y7950799D01*
X3024602Y7925399D01*
X2999202D01*
X3024602Y7899999D01*
X2999202Y7874599D01*
X3024602D01*
X3050002Y7849199D01*
X3250001D02*
X3275401Y7874599D01*
X3300801D01*
X3275401Y7899999D01*
X3300801Y7925399D01*
X3275401D01*
X3250001Y7950799D01*
X3224601Y7925399D01*
X3199201D01*
X3224601Y7899999D01*
X3199201Y7874599D01*
X3224601D01*
X3250001Y7849199D01*
X3450001D02*
X3475401Y7874599D01*
X3500801D01*
X3475401Y7899999D01*
X3500801Y7925399D01*
X3475401D01*
X3450001Y7950799D01*
X3424601Y7925399D01*
X3399201D01*
X3424601Y7899999D01*
X3399201Y7874599D01*
X3424601D01*
X3450001Y7849199D01*
X3650000D02*
X3675400Y7874599D01*
X3700800D01*
X3675400Y7899999D01*
X3700800Y7925399D01*
X3675400D01*
X3650000Y7950799D01*
X3624600Y7925399D01*
X3599200D01*
X3624600Y7899999D01*
X3599200Y7874599D01*
X3624600D01*
X3650000Y7849199D01*
X2850002D02*
X2875402Y7874599D01*
X2900802D01*
X2875402Y7899999D01*
X2900802Y7925399D01*
X2875402D01*
X2850002Y7950799D01*
X2824602Y7925399D01*
X2799202D01*
X2824602Y7899999D01*
X2799202Y7874599D01*
X2824602D01*
X2850002Y7849199D01*
X7225000Y3124200D02*
X7250400Y3149600D01*
X7275800D01*
X7250400Y3175000D01*
X7275800Y3200400D01*
X7250400D01*
X7225000Y3225800D01*
X7199600Y3200400D01*
X7174200D01*
X7199600Y3175000D01*
X7174200Y3149600D01*
X7199600D01*
X7225000Y3124200D01*
X7424999D02*
X7450399Y3149600D01*
X7475799D01*
X7450399Y3175000D01*
X7475799Y3200400D01*
X7450399D01*
X7424999Y3225800D01*
X7399599Y3200400D01*
X7374199D01*
X7399599Y3175000D01*
X7374199Y3149600D01*
X7399599D01*
X7424999Y3124200D01*
X7624999D02*
X7650399Y3149600D01*
X7675799D01*
X7650399Y3175000D01*
X7675799Y3200400D01*
X7650399D01*
X7624999Y3225800D01*
X7599599Y3200400D01*
X7574199D01*
X7599599Y3175000D01*
X7574199Y3149600D01*
X7599599D01*
X7624999Y3124200D01*
X7025000D02*
X7050400Y3149600D01*
X7075800D01*
X7050400Y3175000D01*
X7075800Y3200400D01*
X7050400D01*
X7025000Y3225800D01*
X6999600Y3200400D01*
X6974200D01*
X6999600Y3175000D01*
X6974200Y3149600D01*
X6999600D01*
X7025000Y3124200D01*
X4225000Y2699202D02*
X4174200Y2800802D01*
X4275800D01*
X4225000Y2699202D01*
Y4849200D02*
X4174200Y4950800D01*
X4275800D01*
X4225000Y4849200D01*
X3724199Y2799202D02*
Y2900802D01*
X3825799D01*
Y2799202D01*
X3724199D01*
X2624201D02*
Y2900802D01*
X2725801D01*
Y2799202D01*
X2624201D01*
X5899201Y8149199D02*
Y8250799D01*
X6000801D01*
Y8149199D01*
X5899201D01*
X6999199D02*
Y8250799D01*
X7100799D01*
Y8149199D01*
X6999199D01*
X3999200D02*
Y8250799D01*
X4100800D01*
Y8149199D01*
X3999200D01*
X5099202D02*
Y8250799D01*
X5200802D01*
Y8149199D01*
X5099202D01*
X5869200Y3634200D02*
X5894600D01*
X5920000Y3659600D01*
X5945400Y3634200D01*
X5970800D01*
Y3659600D01*
X5945400Y3685000D01*
X5970800Y3710400D01*
Y3735800D01*
X5945400D01*
X5920000Y3710400D01*
X5894600Y3735800D01*
X5869200D01*
Y3710400D01*
X5894600Y3685000D01*
X5869200Y3659600D01*
Y3634200D01*
X4681900Y2621900D02*
X4707300D01*
X4732700Y2647300D01*
X4758100Y2621900D01*
X4783500D01*
Y2647300D01*
X4758100Y2672700D01*
X4783500Y2698100D01*
Y2723500D01*
X4758100D01*
X4732700Y2698100D01*
X4707300Y2723500D01*
X4681900D01*
Y2698100D01*
X4707300Y2672700D01*
X4681900Y2647300D01*
Y2621900D01*
X3364200Y5134200D02*
X3389600Y5185000D01*
X3364200Y5235800D01*
X3415000Y5210400D01*
X3465800Y5235800D01*
X3440400Y5185000D01*
X3465800Y5134200D01*
X3415000Y5159600D01*
X3364200Y5134200D01*
X3474200D02*
X3499600Y5185000D01*
X3474200Y5235800D01*
X3525000Y5210400D01*
X3575800Y5235800D01*
X3550400Y5185000D01*
X3575800Y5134200D01*
X3525000Y5159600D01*
X3474200Y5134200D01*
X3584200D02*
X3609600Y5185000D01*
X3584200Y5235800D01*
X3635000Y5210400D01*
X3685800Y5235800D01*
X3660400Y5185000D01*
X3685800Y5134200D01*
X3635000Y5159600D01*
X3584200Y5134200D01*
X3364200Y5024200D02*
X3389600Y5075000D01*
X3364200Y5125800D01*
X3415000Y5100400D01*
X3465800Y5125800D01*
X3440400Y5075000D01*
X3465800Y5024200D01*
X3415000Y5049600D01*
X3364200Y5024200D01*
X3474200D02*
X3499600Y5075000D01*
X3474200Y5125800D01*
X3525000Y5100400D01*
X3575800Y5125800D01*
X3550400Y5075000D01*
X3575800Y5024200D01*
X3525000Y5049600D01*
X3474200Y5024200D01*
X3584200D02*
X3609600Y5075000D01*
X3584200Y5125800D01*
X3635000Y5100400D01*
X3685800Y5125800D01*
X3660400Y5075000D01*
X3685800Y5024200D01*
X3635000Y5049600D01*
X3584200Y5024200D01*
X3364200Y4914200D02*
X3389600Y4965000D01*
X3364200Y5015800D01*
X3415000Y4990400D01*
X3465800Y5015800D01*
X3440400Y4965000D01*
X3465800Y4914200D01*
X3415000Y4939600D01*
X3364200Y4914200D01*
X3474200D02*
X3499600Y4965000D01*
X3474200Y5015800D01*
X3525000Y4990400D01*
X3575800Y5015800D01*
X3550400Y4965000D01*
X3575800Y4914200D01*
X3525000Y4939600D01*
X3474200Y4914200D01*
X3584200D02*
X3609600Y4965000D01*
X3584200Y5015800D01*
X3635000Y4990400D01*
X3685800Y5015800D01*
X3660400Y4965000D01*
X3685800Y4914200D01*
X3635000Y4939600D01*
X3584200Y4914200D01*
X3609200Y4204200D02*
X3634600Y4255000D01*
X3609200Y4305800D01*
X3660000Y4280400D01*
X3710800Y4305800D01*
X3685400Y4255000D01*
X3710800Y4204200D01*
X3660000Y4229600D01*
X3609200Y4204200D01*
X3499200D02*
X3524600Y4255000D01*
X3499200Y4305800D01*
X3550000Y4280400D01*
X3600800Y4305800D01*
X3575400Y4255000D01*
X3600800Y4204200D01*
X3550000Y4229600D01*
X3499200Y4204200D01*
X3389200D02*
X3414600Y4255000D01*
X3389200Y4305800D01*
X3440000Y4280400D01*
X3490800Y4305800D01*
X3465400Y4255000D01*
X3490800Y4204200D01*
X3440000Y4229600D01*
X3389200Y4204200D01*
X3609200Y4314200D02*
X3634600Y4365000D01*
X3609200Y4415800D01*
X3660000Y4390400D01*
X3710800Y4415800D01*
X3685400Y4365000D01*
X3710800Y4314200D01*
X3660000Y4339600D01*
X3609200Y4314200D01*
X3499200D02*
X3524600Y4365000D01*
X3499200Y4415800D01*
X3550000Y4390400D01*
X3600800Y4415800D01*
X3575400Y4365000D01*
X3600800Y4314200D01*
X3550000Y4339600D01*
X3499200Y4314200D01*
X3389200D02*
X3414600Y4365000D01*
X3389200Y4415800D01*
X3440000Y4390400D01*
X3490800Y4415800D01*
X3465400Y4365000D01*
X3490800Y4314200D01*
X3440000Y4339600D01*
X3389200Y4314200D01*
X3609200Y4424200D02*
X3634600Y4475000D01*
X3609200Y4525800D01*
X3660000Y4500400D01*
X3710800Y4525800D01*
X3685400Y4475000D01*
X3710800Y4424200D01*
X3660000Y4449600D01*
X3609200Y4424200D01*
X3499200D02*
X3524600Y4475000D01*
X3499200Y4525800D01*
X3550000Y4500400D01*
X3600800Y4525800D01*
X3575400Y4475000D01*
X3600800Y4424200D01*
X3550000Y4449600D01*
X3499200Y4424200D01*
X3389200D02*
X3414600Y4475000D01*
X3389200Y4525800D01*
X3440000Y4500400D01*
X3490800Y4525800D01*
X3465400Y4475000D01*
X3490800Y4424200D01*
X3440000Y4449600D01*
X3389200Y4424200D01*
X7664200Y6664200D02*
X7689600Y6715000D01*
X7664200Y6765800D01*
X7715000Y6740400D01*
X7765800Y6765800D01*
X7740400Y6715000D01*
X7765800Y6664200D01*
X7715000Y6689600D01*
X7664200Y6664200D01*
X7774200D02*
X7799600Y6715000D01*
X7774200Y6765800D01*
X7825000Y6740400D01*
X7875800Y6765800D01*
X7850400Y6715000D01*
X7875800Y6664200D01*
X7825000Y6689600D01*
X7774200Y6664200D01*
X7884200D02*
X7909600Y6715000D01*
X7884200Y6765800D01*
X7935000Y6740400D01*
X7985800Y6765800D01*
X7960400Y6715000D01*
X7985800Y6664200D01*
X7935000Y6689600D01*
X7884200Y6664200D01*
X7664200Y6554200D02*
X7689600Y6605000D01*
X7664200Y6655800D01*
X7715000Y6630400D01*
X7765800Y6655800D01*
X7740400Y6605000D01*
X7765800Y6554200D01*
X7715000Y6579600D01*
X7664200Y6554200D01*
X7774200D02*
X7799600Y6605000D01*
X7774200Y6655800D01*
X7825000Y6630400D01*
X7875800Y6655800D01*
X7850400Y6605000D01*
X7875800Y6554200D01*
X7825000Y6579600D01*
X7774200Y6554200D01*
X7884200D02*
X7909600Y6605000D01*
X7884200Y6655800D01*
X7935000Y6630400D01*
X7985800Y6655800D01*
X7960400Y6605000D01*
X7985800Y6554200D01*
X7935000Y6579600D01*
X7884200Y6554200D01*
X7664200Y6444200D02*
X7689600Y6495000D01*
X7664200Y6545800D01*
X7715000Y6520400D01*
X7765800Y6545800D01*
X7740400Y6495000D01*
X7765800Y6444200D01*
X7715000Y6469600D01*
X7664200Y6444200D01*
X7774200D02*
X7799600Y6495000D01*
X7774200Y6545800D01*
X7825000Y6520400D01*
X7875800Y6545800D01*
X7850400Y6495000D01*
X7875800Y6444200D01*
X7825000Y6469600D01*
X7774200Y6444200D01*
X7884200D02*
X7909600Y6495000D01*
X7884200Y6545800D01*
X7935000Y6520400D01*
X7985800Y6545800D01*
X7960400Y6495000D01*
X7985800Y6444200D01*
X7935000Y6469600D01*
X7884200Y6444200D01*
X7884200Y5644200D02*
X7909600Y5695000D01*
X7884200Y5745800D01*
X7935000Y5720400D01*
X7985800Y5745800D01*
X7960400Y5695000D01*
X7985800Y5644200D01*
X7935000Y5669600D01*
X7884200Y5644200D01*
X7774200D02*
X7799600Y5695000D01*
X7774200Y5745800D01*
X7825000Y5720400D01*
X7875800Y5745800D01*
X7850400Y5695000D01*
X7875800Y5644200D01*
X7825000Y5669600D01*
X7774200Y5644200D01*
X7664200D02*
X7689600Y5695000D01*
X7664200Y5745800D01*
X7715000Y5720400D01*
X7765800Y5745800D01*
X7740400Y5695000D01*
X7765800Y5644200D01*
X7715000Y5669600D01*
X7664200Y5644200D01*
X7884200Y5754200D02*
X7909600Y5805000D01*
X7884200Y5855800D01*
X7935000Y5830400D01*
X7985800Y5855800D01*
X7960400Y5805000D01*
X7985800Y5754200D01*
X7935000Y5779600D01*
X7884200Y5754200D01*
X7774200D02*
X7799600Y5805000D01*
X7774200Y5855800D01*
X7825000Y5830400D01*
X7875800Y5855800D01*
X7850400Y5805000D01*
X7875800Y5754200D01*
X7825000Y5779600D01*
X7774200Y5754200D01*
X7664200D02*
X7689600Y5805000D01*
X7664200Y5855800D01*
X7715000Y5830400D01*
X7765800Y5855800D01*
X7740400Y5805000D01*
X7765800Y5754200D01*
X7715000Y5779600D01*
X7664200Y5754200D01*
X7884200Y5864200D02*
X7909600Y5915000D01*
X7884200Y5965800D01*
X7935000Y5940400D01*
X7985800Y5965800D01*
X7960400Y5915000D01*
X7985800Y5864200D01*
X7935000Y5889600D01*
X7884200Y5864200D01*
X7774200D02*
X7799600Y5915000D01*
X7774200Y5965800D01*
X7825000Y5940400D01*
X7875800Y5965800D01*
X7850400Y5915000D01*
X7875800Y5864200D01*
X7825000Y5889600D01*
X7774200Y5864200D01*
X7664200D02*
X7689600Y5915000D01*
X7664200Y5965800D01*
X7715000Y5940400D01*
X7765800Y5965800D01*
X7740400Y5915000D01*
X7765800Y5864200D01*
X7715000Y5889600D01*
X7664200Y5864200D01*
X5279200Y8169200D02*
X5304600D01*
X5330000Y8194600D01*
X5355400Y8169200D01*
X5380800D01*
Y8194600D01*
X5355400Y8220000D01*
X5380800Y8245400D01*
Y8270800D01*
X5355400D01*
X5330000Y8245400D01*
X5304600Y8270800D01*
X5279200D01*
Y8245400D01*
X5304600Y8220000D01*
X5279200Y8194600D01*
Y8169200D01*
X2559200Y6609200D02*
X2584600D01*
X2610000Y6634600D01*
X2635400Y6609200D01*
X2660800D01*
Y6634600D01*
X2635400Y6660000D01*
X2660800Y6685400D01*
Y6710800D01*
X2635400D01*
X2610000Y6685400D01*
X2584600Y6710800D01*
X2559200D01*
Y6685400D01*
X2584600Y6660000D01*
X2559200Y6634600D01*
Y6609200D01*
X3449200Y2949200D02*
X3474600D01*
X3500000Y2974600D01*
X3525400Y2949200D01*
X3550800D01*
Y2974600D01*
X3525400Y3000000D01*
X3550800Y3025400D01*
Y3050800D01*
X3525400D01*
X3500000Y3025400D01*
X3474600Y3050800D01*
X3449200D01*
Y3025400D01*
X3474600Y3000000D01*
X3449200Y2974600D01*
Y2949200D01*
X3299200D02*
X3324600D01*
X3350000Y2974600D01*
X3375400Y2949200D01*
X3400800D01*
Y2974600D01*
X3375400Y3000000D01*
X3400800Y3025400D01*
Y3050800D01*
X3375400D01*
X3350000Y3025400D01*
X3324600Y3050800D01*
X3299200D01*
Y3025400D01*
X3324600Y3000000D01*
X3299200Y2974600D01*
Y2949200D01*
X3149200D02*
X3174600D01*
X3200000Y2974600D01*
X3225400Y2949200D01*
X3250800D01*
Y2974600D01*
X3225400Y3000000D01*
X3250800Y3025400D01*
Y3050800D01*
X3225400D01*
X3200000Y3025400D01*
X3174600Y3050800D01*
X3149200D01*
Y3025400D01*
X3174600Y3000000D01*
X3149200Y2974600D01*
Y2949200D01*
X2999200D02*
X3024600D01*
X3050000Y2974600D01*
X3075400Y2949200D01*
X3100800D01*
Y2974600D01*
X3075400Y3000000D01*
X3100800Y3025400D01*
Y3050800D01*
X3075400D01*
X3050000Y3025400D01*
X3024600Y3050800D01*
X2999200D01*
Y3025400D01*
X3024600Y3000000D01*
X2999200Y2974600D01*
Y2949200D01*
X2849200D02*
X2874600D01*
X2900000Y2974600D01*
X2925400Y2949200D01*
X2950800D01*
Y2974600D01*
X2925400Y3000000D01*
X2950800Y3025400D01*
Y3050800D01*
X2925400D01*
X2900000Y3025400D01*
X2874600Y3050800D01*
X2849200D01*
Y3025400D01*
X2874600Y3000000D01*
X2849200Y2974600D01*
Y2949200D01*
X3449200Y2799200D02*
X3474600D01*
X3500000Y2824600D01*
X3525400Y2799200D01*
X3550800D01*
Y2824600D01*
X3525400Y2850000D01*
X3550800Y2875400D01*
Y2900800D01*
X3525400D01*
X3500000Y2875400D01*
X3474600Y2900800D01*
X3449200D01*
Y2875400D01*
X3474600Y2850000D01*
X3449200Y2824600D01*
Y2799200D01*
X3299200D02*
X3324600D01*
X3350000Y2824600D01*
X3375400Y2799200D01*
X3400800D01*
Y2824600D01*
X3375400Y2850000D01*
X3400800Y2875400D01*
Y2900800D01*
X3375400D01*
X3350000Y2875400D01*
X3324600Y2900800D01*
X3299200D01*
Y2875400D01*
X3324600Y2850000D01*
X3299200Y2824600D01*
Y2799200D01*
X3149200D02*
X3174600D01*
X3200000Y2824600D01*
X3225400Y2799200D01*
X3250800D01*
Y2824600D01*
X3225400Y2850000D01*
X3250800Y2875400D01*
Y2900800D01*
X3225400D01*
X3200000Y2875400D01*
X3174600Y2900800D01*
X3149200D01*
Y2875400D01*
X3174600Y2850000D01*
X3149200Y2824600D01*
Y2799200D01*
X2999200D02*
X3024600D01*
X3050000Y2824600D01*
X3075400Y2799200D01*
X3100800D01*
Y2824600D01*
X3075400Y2850000D01*
X3100800Y2875400D01*
Y2900800D01*
X3075400D01*
X3050000Y2875400D01*
X3024600Y2900800D01*
X2999200D01*
Y2875400D01*
X3024600Y2850000D01*
X2999200Y2824600D01*
Y2799200D01*
X2849200D02*
X2874600D01*
X2900000Y2824600D01*
X2925400Y2799200D01*
X2950800D01*
Y2824600D01*
X2925400Y2850000D01*
X2950800Y2875400D01*
Y2900800D01*
X2925400D01*
X2900000Y2875400D01*
X2874600Y2900800D01*
X2849200D01*
Y2875400D01*
X2874600Y2850000D01*
X2849200Y2824600D01*
Y2799200D01*
X6048075Y6180325D02*
X6073475D01*
X6098875Y6205725D01*
X6124275Y6180325D01*
X6149675D01*
Y6205725D01*
X6124275Y6231125D01*
X6149675Y6256525D01*
Y6281925D01*
X6124275D01*
X6098875Y6256525D01*
X6073475Y6281925D01*
X6048075D01*
Y6256525D01*
X6073475Y6231125D01*
X6048075Y6205725D01*
Y6180325D01*
X7749200Y6899200D02*
X7774600D01*
X7800000Y6924600D01*
X7825400Y6899200D01*
X7850800D01*
Y6924600D01*
X7825400Y6950000D01*
X7850800Y6975400D01*
Y7000800D01*
X7825400D01*
X7800000Y6975400D01*
X7774600Y7000800D01*
X7749200D01*
Y6975400D01*
X7774600Y6950000D01*
X7749200Y6924600D01*
Y6899200D01*
X7799200D02*
X7824600D01*
X7850000Y6924600D01*
X7875400Y6899200D01*
X7900800D01*
Y6924600D01*
X7875400Y6950000D01*
X7900800Y6975400D01*
Y7000800D01*
X7875400D01*
X7850000Y6975400D01*
X7824600Y7000800D01*
X7799200D01*
Y6975400D01*
X7824600Y6950000D01*
X7799200Y6924600D01*
Y6899200D01*
X7149201Y7449200D02*
X7174601D01*
X7200001Y7474600D01*
X7225401Y7449200D01*
X7250801D01*
Y7474600D01*
X7225401Y7500000D01*
X7250801Y7525400D01*
Y7550800D01*
X7225401D01*
X7200001Y7525400D01*
X7174601Y7550800D01*
X7149201D01*
Y7525400D01*
X7174601Y7500000D01*
X7149201Y7474600D01*
Y7449200D01*
X8100141Y4174200D02*
X8125541D01*
X8150941Y4199600D01*
X8176341Y4174200D01*
X8201741D01*
Y4199600D01*
X8176341Y4225000D01*
X8201741Y4250400D01*
Y4275800D01*
X8176341D01*
X8150941Y4250400D01*
X8125541Y4275800D01*
X8100141D01*
Y4250400D01*
X8125541Y4225000D01*
X8100141Y4199600D01*
Y4174200D01*
X6439200Y4399199D02*
X6464600D01*
X6490000Y4424599D01*
X6515400Y4399199D01*
X6540800D01*
Y4424599D01*
X6515400Y4449999D01*
X6540800Y4475399D01*
Y4500799D01*
X6515400D01*
X6490000Y4475399D01*
X6464600Y4500799D01*
X6439200D01*
Y4475399D01*
X6464600Y4449999D01*
X6439200Y4424599D01*
Y4399199D01*
X6236937Y3275203D02*
X6262337D01*
X6287737Y3300603D01*
X6313137Y3275203D01*
X6338537D01*
Y3300603D01*
X6313137Y3326003D01*
X6338537Y3351403D01*
Y3376803D01*
X6313137D01*
X6287737Y3351403D01*
X6262337Y3376803D01*
X6236937D01*
Y3351403D01*
X6262337Y3326003D01*
X6236937Y3300603D01*
Y3275203D01*
X6075523Y3301200D02*
X6100923D01*
X6126323Y3326600D01*
X6151723Y3301200D01*
X6177123D01*
Y3326600D01*
X6151723Y3352000D01*
X6177123Y3377400D01*
Y3402800D01*
X6151723D01*
X6126323Y3377400D01*
X6100923Y3402800D01*
X6075523D01*
Y3377400D01*
X6100923Y3352000D01*
X6075523Y3326600D01*
Y3301200D01*
X6296457Y2828895D02*
X6321857D01*
X6347257Y2854295D01*
X6372657Y2828895D01*
X6398057D01*
Y2854295D01*
X6372657Y2879695D01*
X6398057Y2905095D01*
Y2930495D01*
X6372657D01*
X6347257Y2905095D01*
X6321857Y2930495D01*
X6296457D01*
Y2905095D01*
X6321857Y2879695D01*
X6296457Y2854295D01*
Y2828895D01*
X4909200Y4859198D02*
X4934600D01*
X4960000Y4884598D01*
X4985400Y4859198D01*
X5010800D01*
Y4884598D01*
X4985400Y4909998D01*
X5010800Y4935398D01*
Y4960798D01*
X4985400D01*
X4960000Y4935398D01*
X4934600Y4960798D01*
X4909200D01*
Y4935398D01*
X4934600Y4909998D01*
X4909200Y4884598D01*
Y4859198D01*
X4779198Y4869200D02*
X4804598D01*
X4829998Y4894600D01*
X4855398Y4869200D01*
X4880798D01*
Y4894600D01*
X4855398Y4920000D01*
X4880798Y4945400D01*
Y4970800D01*
X4855398D01*
X4829998Y4945400D01*
X4804598Y4970800D01*
X4779198D01*
Y4945400D01*
X4804598Y4920000D01*
X4779198Y4894600D01*
Y4869200D01*
X4459199Y6600299D02*
X4484599D01*
X4509999Y6625699D01*
X4535399Y6600299D01*
X4560799D01*
Y6625699D01*
X4535399Y6651099D01*
X4560799Y6676499D01*
Y6701899D01*
X4535399D01*
X4509999Y6676499D01*
X4484599Y6701899D01*
X4459199D01*
Y6676499D01*
X4484599Y6651099D01*
X4459199Y6625699D01*
Y6600299D01*
X3909202Y6749202D02*
X3934602D01*
X3960002Y6774602D01*
X3985402Y6749202D01*
X4010802D01*
Y6774602D01*
X3985402Y6800002D01*
X4010802Y6825402D01*
Y6850802D01*
X3985402D01*
X3960002Y6825402D01*
X3934602Y6850802D01*
X3909202D01*
Y6825402D01*
X3934602Y6800002D01*
X3909202Y6774602D01*
Y6749202D01*
X3353417Y7135677D02*
X3378817D01*
X3404217Y7161077D01*
X3429617Y7135677D01*
X3455017D01*
Y7161077D01*
X3429617Y7186477D01*
X3455017Y7211877D01*
Y7237277D01*
X3429617D01*
X3404217Y7211877D01*
X3378817Y7237277D01*
X3353417D01*
Y7211877D01*
X3378817Y7186477D01*
X3353417Y7161077D01*
Y7135677D01*
X3549198Y6919199D02*
X3574598D01*
X3599998Y6944599D01*
X3625398Y6919199D01*
X3650798D01*
Y6944599D01*
X3625398Y6969999D01*
X3650798Y6995399D01*
Y7020799D01*
X3625398D01*
X3599998Y6995399D01*
X3574598Y7020799D01*
X3549198D01*
Y6995399D01*
X3574598Y6969999D01*
X3549198Y6944599D01*
Y6919199D01*
X3329198Y6969201D02*
X3354598D01*
X3379998Y6994601D01*
X3405398Y6969201D01*
X3430798D01*
Y6994601D01*
X3405398Y7020001D01*
X3430798Y7045401D01*
Y7070801D01*
X3405398D01*
X3379998Y7045401D01*
X3354598Y7070801D01*
X3329198D01*
Y7045401D01*
X3354598Y7020001D01*
X3329198Y6994601D01*
Y6969201D01*
X3119201Y6665225D02*
X3144601D01*
X3170001Y6690625D01*
X3195401Y6665225D01*
X3220801D01*
Y6690625D01*
X3195401Y6716025D01*
X3220801Y6741425D01*
Y6766825D01*
X3195401D01*
X3170001Y6741425D01*
X3144601Y6766825D01*
X3119201D01*
Y6741425D01*
X3144601Y6716025D01*
X3119201Y6690625D01*
Y6665225D01*
X3086986Y6531225D02*
X3112386D01*
X3137786Y6556625D01*
X3163186Y6531225D01*
X3188586D01*
Y6556625D01*
X3163186Y6582025D01*
X3188586Y6607425D01*
Y6632825D01*
X3163186D01*
X3137786Y6607425D01*
X3112386Y6632825D01*
X3086986D01*
Y6607425D01*
X3112386Y6582025D01*
X3086986Y6556625D01*
Y6531225D01*
X3099200Y6799200D02*
X3124600D01*
X3150000Y6824600D01*
X3175400Y6799200D01*
X3200800D01*
Y6824600D01*
X3175400Y6850000D01*
X3200800Y6875400D01*
Y6900800D01*
X3175400D01*
X3150000Y6875400D01*
X3124600Y6900800D01*
X3099200D01*
Y6875400D01*
X3124600Y6850000D01*
X3099200Y6824600D01*
Y6799200D01*
X8009504Y5530058D02*
X8034904D01*
X8060304Y5555458D01*
X8085704Y5530058D01*
X8111104D01*
Y5555458D01*
X8085704Y5580858D01*
X8111104Y5606258D01*
Y5631658D01*
X8085704D01*
X8060304Y5606258D01*
X8034904Y5631658D01*
X8009504D01*
Y5606258D01*
X8034904Y5580858D01*
X8009504Y5555458D01*
Y5530058D01*
X8110855Y5764454D02*
X8136255D01*
X8161655Y5789854D01*
X8187055Y5764454D01*
X8212455D01*
Y5789854D01*
X8187055Y5815254D01*
X8212455Y5840654D01*
Y5866054D01*
X8187055D01*
X8161655Y5840654D01*
X8136255Y5866054D01*
X8110855D01*
Y5840654D01*
X8136255Y5815254D01*
X8110855Y5789854D01*
Y5764454D01*
X8095112Y5710712D02*
X8120512D01*
X8145912Y5736112D01*
X8171312Y5710712D01*
X8196712D01*
Y5736112D01*
X8171312Y5761512D01*
X8196712Y5786912D01*
Y5812312D01*
X8171312D01*
X8145912Y5786912D01*
X8120512Y5812312D01*
X8095112D01*
Y5786912D01*
X8120512Y5761512D01*
X8095112Y5736112D01*
Y5710712D01*
X8088438Y5838438D02*
X8113838D01*
X8139238Y5863838D01*
X8164638Y5838438D01*
X8190038D01*
Y5863838D01*
X8164638Y5889238D01*
X8190038Y5914638D01*
Y5940038D01*
X8164638D01*
X8139238Y5914638D01*
X8113838Y5940038D01*
X8088438D01*
Y5914638D01*
X8113838Y5889238D01*
X8088438Y5863838D01*
Y5838438D01*
X8099158Y6629288D02*
X8124558D01*
X8149958Y6654688D01*
X8175358Y6629288D01*
X8200758D01*
Y6654688D01*
X8175358Y6680088D01*
X8200758Y6705488D01*
Y6730888D01*
X8175358D01*
X8149958Y6705488D01*
X8124558Y6730888D01*
X8099158D01*
Y6705488D01*
X8124558Y6680088D01*
X8099158Y6654688D01*
Y6629288D01*
X8123845Y6578845D02*
X8149245D01*
X8174645Y6604245D01*
X8200045Y6578845D01*
X8225445D01*
Y6604245D01*
X8200045Y6629645D01*
X8225445Y6655045D01*
Y6680445D01*
X8200045D01*
X8174645Y6655045D01*
X8149245Y6680445D01*
X8123845D01*
Y6655045D01*
X8149245Y6629645D01*
X8123845Y6604245D01*
Y6578845D01*
X8101504Y6526900D02*
X8126904D01*
X8152304Y6552300D01*
X8177704Y6526900D01*
X8203104D01*
Y6552300D01*
X8177704Y6577700D01*
X8203104Y6603100D01*
Y6628500D01*
X8177704D01*
X8152304Y6603100D01*
X8126904Y6628500D01*
X8101504D01*
Y6603100D01*
X8126904Y6577700D01*
X8101504Y6552300D01*
Y6526900D01*
X8133616Y6479200D02*
X8159016D01*
X8184416Y6504600D01*
X8209816Y6479200D01*
X8235216D01*
Y6504600D01*
X8209816Y6530000D01*
X8235216Y6555400D01*
Y6580800D01*
X8209816D01*
X8184416Y6555400D01*
X8159016Y6580800D01*
X8133616D01*
Y6555400D01*
X8159016Y6530000D01*
X8133616Y6504600D01*
Y6479200D01*
Y6423200D02*
X8159016D01*
X8184416Y6448600D01*
X8209816Y6423200D01*
X8235216D01*
Y6448600D01*
X8209816Y6474000D01*
X8235216Y6499400D01*
Y6524800D01*
X8209816D01*
X8184416Y6499400D01*
X8159016Y6524800D01*
X8133616D01*
Y6499400D01*
X8159016Y6474000D01*
X8133616Y6448600D01*
Y6423200D01*
X6670711Y7654303D02*
X6696111D01*
X6721511Y7679703D01*
X6746911Y7654303D01*
X6772311D01*
Y7679703D01*
X6746911Y7705103D01*
X6772311Y7730503D01*
Y7755903D01*
X6746911D01*
X6721511Y7730503D01*
X6696111Y7755903D01*
X6670711D01*
Y7730503D01*
X6696111Y7705103D01*
X6670711Y7679703D01*
Y7654303D01*
X6149200Y7549200D02*
X6174600D01*
X6200000Y7574600D01*
X6225400Y7549200D01*
X6250800D01*
Y7574600D01*
X6225400Y7600000D01*
X6250800Y7625400D01*
Y7650800D01*
X6225400D01*
X6200000Y7625400D01*
X6174600Y7650800D01*
X6149200D01*
Y7625400D01*
X6174600Y7600000D01*
X6149200Y7574600D01*
Y7549200D01*
X5149200Y6949200D02*
X5174600D01*
X5200000Y6974600D01*
X5225400Y6949200D01*
X5250800D01*
Y6974600D01*
X5225400Y7000000D01*
X5250800Y7025400D01*
Y7050800D01*
X5225400D01*
X5200000Y7025400D01*
X5174600Y7050800D01*
X5149200D01*
Y7025400D01*
X5174600Y7000000D01*
X5149200Y6974600D01*
Y6949200D01*
Y5649200D02*
X5174600D01*
X5200000Y5674600D01*
X5225400Y5649200D01*
X5250800D01*
Y5674600D01*
X5225400Y5700000D01*
X5250800Y5725400D01*
Y5750800D01*
X5225400D01*
X5200000Y5725400D01*
X5174600Y5750800D01*
X5149200D01*
Y5725400D01*
X5174600Y5700000D01*
X5149200Y5674600D01*
Y5649200D01*
X5299200Y5349200D02*
X5324600D01*
X5350000Y5374600D01*
X5375400Y5349200D01*
X5400800D01*
Y5374600D01*
X5375400Y5400000D01*
X5400800Y5425400D01*
Y5450800D01*
X5375400D01*
X5350000Y5425400D01*
X5324600Y5450800D01*
X5299200D01*
Y5425400D01*
X5324600Y5400000D01*
X5299200Y5374600D01*
Y5349200D01*
X4249200Y3849200D02*
X4274600D01*
X4300000Y3874600D01*
X4325400Y3849200D01*
X4350800D01*
Y3874600D01*
X4325400Y3900000D01*
X4350800Y3925400D01*
Y3950800D01*
X4325400D01*
X4300000Y3925400D01*
X4274600Y3950800D01*
X4249200D01*
Y3925400D01*
X4274600Y3900000D01*
X4249200Y3874600D01*
Y3849200D01*
X4399200D02*
X4424600D01*
X4450000Y3874600D01*
X4475400Y3849200D01*
X4500800D01*
Y3874600D01*
X4475400Y3900000D01*
X4500800Y3925400D01*
Y3950800D01*
X4475400D01*
X4450000Y3925400D01*
X4424600Y3950800D01*
X4399200D01*
Y3925400D01*
X4424600Y3900000D01*
X4399200Y3874600D01*
Y3849200D01*
X4339373Y3724600D02*
X4364773D01*
X4390173Y3750000D01*
X4415573Y3724600D01*
X4440973D01*
Y3750000D01*
X4415573Y3775400D01*
X4440973Y3800800D01*
Y3826200D01*
X4415573D01*
X4390173Y3800800D01*
X4364773Y3826200D01*
X4339373D01*
Y3800800D01*
X4364773Y3775400D01*
X4339373Y3750000D01*
Y3724600D01*
X4099200Y3699200D02*
X4124600D01*
X4150000Y3724600D01*
X4175400Y3699200D01*
X4200800D01*
Y3724600D01*
X4175400Y3750000D01*
X4200800Y3775400D01*
Y3800800D01*
X4175400D01*
X4150000Y3775400D01*
X4124600Y3800800D01*
X4099200D01*
Y3775400D01*
X4124600Y3750000D01*
X4099200Y3724600D01*
Y3699200D01*
X5764906Y4394199D02*
X5790306D01*
X5815706Y4419599D01*
X5841106Y4394199D01*
X5866506D01*
Y4419599D01*
X5841106Y4444999D01*
X5866506Y4470399D01*
Y4495799D01*
X5841106D01*
X5815706Y4470399D01*
X5790306Y4495799D01*
X5764906D01*
Y4470399D01*
X5790306Y4444999D01*
X5764906Y4419599D01*
Y4394199D01*
X5679201Y4344203D02*
X5704601D01*
X5730001Y4369603D01*
X5755401Y4344203D01*
X5780801D01*
Y4369603D01*
X5755401Y4395003D01*
X5780801Y4420403D01*
Y4445803D01*
X5755401D01*
X5730001Y4420403D01*
X5704601Y4445803D01*
X5679201D01*
Y4420403D01*
X5704601Y4395003D01*
X5679201Y4369603D01*
Y4344203D01*
X7059200Y4609200D02*
X7084600D01*
X7110000Y4634600D01*
X7135400Y4609200D01*
X7160800D01*
Y4634600D01*
X7135400Y4660000D01*
X7160800Y4685400D01*
Y4710800D01*
X7135400D01*
X7110000Y4685400D01*
X7084600Y4710800D01*
X7059200D01*
Y4685400D01*
X7084600Y4660000D01*
X7059200Y4634600D01*
Y4609200D01*
X6615996Y4631699D02*
X6641396D01*
X6666796Y4657099D01*
X6692196Y4631699D01*
X6717596D01*
Y4657099D01*
X6692196Y4682499D01*
X6717596Y4707899D01*
Y4733299D01*
X6692196D01*
X6666796Y4707899D01*
X6641396Y4733299D01*
X6615996D01*
Y4707899D01*
X6641396Y4682499D01*
X6615996Y4657099D01*
Y4631699D01*
X5604200Y4709638D02*
X5629600D01*
X5655000Y4735038D01*
X5680400Y4709638D01*
X5705800D01*
Y4735038D01*
X5680400Y4760438D01*
X5705800Y4785838D01*
Y4811238D01*
X5680400D01*
X5655000Y4785838D01*
X5629600Y4811238D01*
X5604200D01*
Y4785838D01*
X5629600Y4760438D01*
X5604200Y4735038D01*
Y4709638D01*
X5704200D02*
X5729600D01*
X5755000Y4735038D01*
X5780400Y4709638D01*
X5805800D01*
Y4735038D01*
X5780400Y4760438D01*
X5805800Y4785838D01*
Y4811238D01*
X5780400D01*
X5755000Y4785838D01*
X5729600Y4811238D01*
X5704200D01*
Y4785838D01*
X5729600Y4760438D01*
X5704200Y4735038D01*
Y4709638D01*
X5721198Y4436197D02*
X5746598D01*
X5771998Y4461597D01*
X5797398Y4436197D01*
X5822798D01*
Y4461597D01*
X5797398Y4486997D01*
X5822798Y4512397D01*
Y4537797D01*
X5797398D01*
X5771998Y4512397D01*
X5746598Y4537797D01*
X5721198D01*
Y4512397D01*
X5746598Y4486997D01*
X5721198Y4461597D01*
Y4436197D01*
X5964200Y4431700D02*
X5989600D01*
X6015000Y4457100D01*
X6040400Y4431700D01*
X6065800D01*
Y4457100D01*
X6040400Y4482500D01*
X6065800Y4507900D01*
Y4533300D01*
X6040400D01*
X6015000Y4507900D01*
X5989600Y4533300D01*
X5964200D01*
Y4507900D01*
X5989600Y4482500D01*
X5964200Y4457100D01*
Y4431700D01*
X6266700Y4351700D02*
X6292100D01*
X6317500Y4377100D01*
X6342900Y4351700D01*
X6368300D01*
Y4377100D01*
X6342900Y4402500D01*
X6368300Y4427900D01*
Y4453300D01*
X6342900D01*
X6317500Y4427900D01*
X6292100Y4453300D01*
X6266700D01*
Y4427900D01*
X6292100Y4402500D01*
X6266700Y4377100D01*
Y4351700D01*
X6215451Y4312950D02*
X6240851D01*
X6266251Y4338350D01*
X6291651Y4312950D01*
X6317051D01*
Y4338350D01*
X6291651Y4363750D01*
X6317051Y4389150D01*
Y4414550D01*
X6291651D01*
X6266251Y4389150D01*
X6240851Y4414550D01*
X6215451D01*
Y4389150D01*
X6240851Y4363750D01*
X6215451Y4338350D01*
Y4312950D01*
X6138990Y4389698D02*
X6164390D01*
X6189790Y4415098D01*
X6215190Y4389698D01*
X6240590D01*
Y4415098D01*
X6215190Y4440498D01*
X6240590Y4465898D01*
Y4491298D01*
X6215190D01*
X6189790Y4465898D01*
X6164390Y4491298D01*
X6138990D01*
Y4465898D01*
X6164390Y4440498D01*
X6138990Y4415098D01*
Y4389698D01*
X6079050Y4402197D02*
X6104450D01*
X6129850Y4427597D01*
X6155250Y4402197D01*
X6180650D01*
Y4427597D01*
X6155250Y4452997D01*
X6180650Y4478397D01*
Y4503797D01*
X6155250D01*
X6129850Y4478397D01*
X6104450Y4503797D01*
X6079050D01*
Y4478397D01*
X6104450Y4452997D01*
X6079050Y4427597D01*
Y4402197D01*
X6049700Y4354505D02*
X6075100D01*
X6100500Y4379905D01*
X6125900Y4354505D01*
X6151300D01*
Y4379905D01*
X6125900Y4405305D01*
X6151300Y4430705D01*
Y4456105D01*
X6125900D01*
X6100500Y4430705D01*
X6075100Y4456105D01*
X6049700D01*
Y4430705D01*
X6075100Y4405305D01*
X6049700Y4379905D01*
Y4354505D01*
X5797139Y3649198D02*
X5822539D01*
X5847939Y3674598D01*
X5873339Y3649198D01*
X5898739D01*
Y3674598D01*
X5873339Y3699998D01*
X5898739Y3725398D01*
Y3750798D01*
X5873339D01*
X5847939Y3725398D01*
X5822539Y3750798D01*
X5797139D01*
Y3725398D01*
X5822539Y3699998D01*
X5797139Y3674598D01*
Y3649198D01*
X5449199Y3549198D02*
X5474599D01*
X5499999Y3574598D01*
X5525399Y3549198D01*
X5550799D01*
Y3574598D01*
X5525399Y3599998D01*
X5550799Y3625398D01*
Y3650798D01*
X5525399D01*
X5499999Y3625398D01*
X5474599Y3650798D01*
X5449199D01*
Y3625398D01*
X5474599Y3599998D01*
X5449199Y3574598D01*
Y3549198D01*
X5356700Y3696700D02*
X5382100D01*
X5407500Y3722100D01*
X5432900Y3696700D01*
X5458300D01*
Y3722100D01*
X5432900Y3747500D01*
X5458300Y3772900D01*
Y3798300D01*
X5432900D01*
X5407500Y3772900D01*
X5382100Y3798300D01*
X5356700D01*
Y3772900D01*
X5382100Y3747500D01*
X5356700Y3722100D01*
Y3696700D01*
X3636272Y5396702D02*
X3661672D01*
X3687072Y5422102D01*
X3712472Y5396702D01*
X3737872D01*
Y5422102D01*
X3712472Y5447502D01*
X3737872Y5472902D01*
Y5498302D01*
X3712472D01*
X3687072Y5472902D01*
X3661672Y5498302D01*
X3636272D01*
Y5472902D01*
X3661672Y5447502D01*
X3636272Y5422102D01*
Y5396702D01*
X3774201Y5594198D02*
X3799601D01*
X3825001Y5619598D01*
X3850401Y5594198D01*
X3875801D01*
Y5619598D01*
X3850401Y5644998D01*
X3875801Y5670398D01*
Y5695798D01*
X3850401D01*
X3825001Y5670398D01*
X3799601Y5695798D01*
X3774201D01*
Y5670398D01*
X3799601Y5644998D01*
X3774201Y5619598D01*
Y5594198D01*
X3967820Y5637820D02*
X3993220D01*
X4018620Y5663220D01*
X4044020Y5637820D01*
X4069420D01*
Y5663220D01*
X4044020Y5688620D01*
X4069420Y5714020D01*
Y5739420D01*
X4044020D01*
X4018620Y5714020D01*
X3993220Y5739420D01*
X3967820D01*
Y5714020D01*
X3993220Y5688620D01*
X3967820Y5663220D01*
Y5637820D01*
X4091701Y5449199D02*
X4117101D01*
X4142501Y5474599D01*
X4167901Y5449199D01*
X4193301D01*
Y5474599D01*
X4167901Y5499999D01*
X4193301Y5525399D01*
Y5550799D01*
X4167901D01*
X4142501Y5525399D01*
X4117101Y5550799D01*
X4091701D01*
Y5525399D01*
X4117101Y5499999D01*
X4091701Y5474599D01*
Y5449199D01*
X4096347Y5224554D02*
X4121747D01*
X4147147Y5249954D01*
X4172547Y5224554D01*
X4197947D01*
Y5249954D01*
X4172547Y5275354D01*
X4197947Y5300754D01*
Y5326154D01*
X4172547D01*
X4147147Y5300754D01*
X4121747Y5326154D01*
X4096347D01*
Y5300754D01*
X4121747Y5275354D01*
X4096347Y5249954D01*
Y5224554D01*
X3979901Y4408500D02*
X4005301D01*
X4030701Y4433900D01*
X4056101Y4408500D01*
X4081501D01*
Y4433900D01*
X4056101Y4459300D01*
X4081501Y4484700D01*
Y4510100D01*
X4056101D01*
X4030701Y4484700D01*
X4005301Y4510100D01*
X3979901D01*
Y4484700D01*
X4005301Y4459300D01*
X3979901Y4433900D01*
Y4408500D01*
X3829202Y4360198D02*
X3854602D01*
X3880002Y4385598D01*
X3905402Y4360198D01*
X3930802D01*
Y4385598D01*
X3905402Y4410998D01*
X3930802Y4436398D01*
Y4461798D01*
X3905402D01*
X3880002Y4436398D01*
X3854602Y4461798D01*
X3829202D01*
Y4436398D01*
X3854602Y4410998D01*
X3829202Y4385598D01*
Y4360198D01*
Y4304198D02*
X3854602D01*
X3880002Y4329598D01*
X3905402Y4304198D01*
X3930802D01*
Y4329598D01*
X3905402Y4354998D01*
X3930802Y4380398D01*
Y4405798D01*
X3905402D01*
X3880002Y4380398D01*
X3854602Y4405798D01*
X3829202D01*
Y4380398D01*
X3854602Y4354998D01*
X3829202Y4329598D01*
Y4304198D01*
Y4248198D02*
X3854602D01*
X3880002Y4273598D01*
X3905402Y4248198D01*
X3930802D01*
Y4273598D01*
X3905402Y4298998D01*
X3930802Y4324398D01*
Y4349798D01*
X3905402D01*
X3880002Y4324398D01*
X3854602Y4349798D01*
X3829202D01*
Y4324398D01*
X3854602Y4298998D01*
X3829202Y4273598D01*
Y4248198D01*
X3132689Y4286899D02*
X3158089D01*
X3183489Y4312299D01*
X3208889Y4286899D01*
X3234289D01*
Y4312299D01*
X3208889Y4337699D01*
X3234289Y4363099D01*
Y4388499D01*
X3208889D01*
X3183489Y4363099D01*
X3158089Y4388499D01*
X3132689D01*
Y4363099D01*
X3158089Y4337699D01*
X3132689Y4312299D01*
Y4286899D01*
X3111986Y4205069D02*
X3137386D01*
X3162786Y4230469D01*
X3188186Y4205069D01*
X3213586D01*
Y4230469D01*
X3188186Y4255869D01*
X3213586Y4281269D01*
Y4306669D01*
X3188186D01*
X3162786Y4281269D01*
X3137386Y4306669D01*
X3111986D01*
Y4281269D01*
X3137386Y4255869D01*
X3111986Y4230469D01*
Y4205069D01*
X3136700Y4006700D02*
X3162100D01*
X3187500Y4032100D01*
X3212900Y4006700D01*
X3238300D01*
Y4032100D01*
X3212900Y4057500D01*
X3238300Y4082900D01*
Y4108300D01*
X3212900D01*
X3187500Y4082900D01*
X3162100Y4108300D01*
X3136700D01*
Y4082900D01*
X3162100Y4057500D01*
X3136700Y4032100D01*
Y4006700D01*
X3116807Y4104790D02*
X3142207D01*
X3167607Y4130190D01*
X3193007Y4104790D01*
X3218407D01*
Y4130190D01*
X3193007Y4155590D01*
X3218407Y4180990D01*
Y4206390D01*
X3193007D01*
X3167607Y4180990D01*
X3142207Y4206390D01*
X3116807D01*
Y4180990D01*
X3142207Y4155590D01*
X3116807Y4130190D01*
Y4104790D01*
X3481014Y4007866D02*
X3506414D01*
X3531814Y4033266D01*
X3557214Y4007866D01*
X3582614D01*
Y4033266D01*
X3557214Y4058666D01*
X3582614Y4084066D01*
Y4109466D01*
X3557214D01*
X3531814Y4084066D01*
X3506414Y4109466D01*
X3481014D01*
Y4084066D01*
X3506414Y4058666D01*
X3481014Y4033266D01*
Y4007866D01*
X3424199Y3973699D02*
X3449599D01*
X3474999Y3999099D01*
X3500399Y3973699D01*
X3525799D01*
Y3999099D01*
X3500399Y4024499D01*
X3525799Y4049899D01*
Y4075299D01*
X3500399D01*
X3474999Y4049899D01*
X3449599Y4075299D01*
X3424199D01*
Y4049899D01*
X3449599Y4024499D01*
X3424199Y3999099D01*
Y3973699D01*
X3272759Y4015340D02*
X3298159D01*
X3323559Y4040740D01*
X3348959Y4015340D01*
X3374359D01*
Y4040740D01*
X3348959Y4066140D01*
X3374359Y4091540D01*
Y4116940D01*
X3348959D01*
X3323559Y4091540D01*
X3298159Y4116940D01*
X3272759D01*
Y4091540D01*
X3298159Y4066140D01*
X3272759Y4040740D01*
Y4015340D01*
X3594200Y3936700D02*
X3619600D01*
X3645000Y3962100D01*
X3670400Y3936700D01*
X3695800D01*
Y3962100D01*
X3670400Y3987500D01*
X3695800Y4012900D01*
Y4038300D01*
X3670400D01*
X3645000Y4012900D01*
X3619600Y4038300D01*
X3594200D01*
Y4012900D01*
X3619600Y3987500D01*
X3594200Y3962100D01*
Y3936700D01*
X3724199Y3949202D02*
X3749599D01*
X3774999Y3974602D01*
X3800399Y3949202D01*
X3825799D01*
Y3974602D01*
X3800399Y4000002D01*
X3825799Y4025402D01*
Y4050802D01*
X3800399D01*
X3774999Y4025402D01*
X3749599Y4050802D01*
X3724199D01*
Y4025402D01*
X3749599Y4000002D01*
X3724199Y3974602D01*
Y3949202D01*
X3979200Y4059199D02*
X4004600D01*
X4030000Y4084599D01*
X4055400Y4059199D01*
X4080800D01*
Y4084599D01*
X4055400Y4109999D01*
X4080800Y4135399D01*
Y4160799D01*
X4055400D01*
X4030000Y4135399D01*
X4004600Y4160799D01*
X3979200D01*
Y4135399D01*
X4004600Y4109999D01*
X3979200Y4084599D01*
Y4059199D01*
X4111700Y3849200D02*
X4137100D01*
X4162500Y3874600D01*
X4187900Y3849200D01*
X4213300D01*
Y3874600D01*
X4187900Y3900000D01*
X4213300Y3925400D01*
Y3950800D01*
X4187900D01*
X4162500Y3925400D01*
X4137100Y3950800D01*
X4111700D01*
Y3925400D01*
X4137100Y3900000D01*
X4111700Y3874600D01*
Y3849200D01*
X4594901Y3849200D02*
X4620301D01*
X4645701Y3874600D01*
X4671101Y3849200D01*
X4696501D01*
Y3874600D01*
X4671101Y3900000D01*
X4696501Y3925400D01*
Y3950800D01*
X4671101D01*
X4645701Y3925400D01*
X4620301Y3950800D01*
X4594901D01*
Y3925400D01*
X4620301Y3900000D01*
X4594901Y3874600D01*
Y3849200D01*
X4550854Y3780655D02*
X4576254D01*
X4601654Y3806055D01*
X4627054Y3780655D01*
X4652454D01*
Y3806055D01*
X4627054Y3831455D01*
X4652454Y3856855D01*
Y3882255D01*
X4627054D01*
X4601654Y3856855D01*
X4576254Y3882255D01*
X4550854D01*
Y3856855D01*
X4576254Y3831455D01*
X4550854Y3806055D01*
Y3780655D01*
X4641715Y3601539D02*
X4667115D01*
X4692515Y3626939D01*
X4717915Y3601539D01*
X4743315D01*
Y3626939D01*
X4717915Y3652339D01*
X4743315Y3677739D01*
Y3703139D01*
X4717915D01*
X4692515Y3677739D01*
X4667115Y3703139D01*
X4641715D01*
Y3677739D01*
X4667115Y3652339D01*
X4641715Y3626939D01*
Y3601539D01*
X4499216Y3599039D02*
X4524616D01*
X4550016Y3624439D01*
X4575416Y3599039D01*
X4600816D01*
Y3624439D01*
X4575416Y3649839D01*
X4600816Y3675239D01*
Y3700639D01*
X4575416D01*
X4550016Y3675239D01*
X4524616Y3700639D01*
X4499216D01*
Y3675239D01*
X4524616Y3649839D01*
X4499216Y3624439D01*
Y3599039D01*
X4149215D02*
X4174615D01*
X4200015Y3624439D01*
X4225415Y3599039D01*
X4250815D01*
Y3624439D01*
X4225415Y3649839D01*
X4250815Y3675239D01*
Y3700639D01*
X4225415D01*
X4200015Y3675239D01*
X4174615Y3700639D01*
X4149215D01*
Y3675239D01*
X4174615Y3649839D01*
X4149215Y3624439D01*
Y3599039D01*
Y3376539D02*
X4174615D01*
X4200015Y3401939D01*
X4225415Y3376539D01*
X4250815D01*
Y3401939D01*
X4225415Y3427339D01*
X4250815Y3452739D01*
Y3478139D01*
X4225415D01*
X4200015Y3452739D01*
X4174615Y3478139D01*
X4149215D01*
Y3452739D01*
X4174615Y3427339D01*
X4149215Y3401939D01*
Y3376539D01*
X4499216D02*
X4524616D01*
X4550016Y3401939D01*
X4575416Y3376539D01*
X4600816D01*
Y3401939D01*
X4575416Y3427339D01*
X4600816Y3452739D01*
Y3478139D01*
X4575416D01*
X4550016Y3452739D01*
X4524616Y3478139D01*
X4499216D01*
Y3452739D01*
X4524616Y3427339D01*
X4499216Y3401939D01*
Y3376539D01*
X4326319Y3376324D02*
X4351719D01*
X4377119Y3401724D01*
X4402519Y3376324D01*
X4427919D01*
Y3401724D01*
X4402519Y3427124D01*
X4427919Y3452524D01*
Y3477924D01*
X4402519D01*
X4377119Y3452524D01*
X4351719Y3477924D01*
X4326319D01*
Y3452524D01*
X4351719Y3427124D01*
X4326319Y3401724D01*
Y3376324D01*
X4324198Y3599200D02*
X4349598D01*
X4374998Y3624600D01*
X4400398Y3599200D01*
X4425798D01*
Y3624600D01*
X4400398Y3650000D01*
X4425798Y3675400D01*
Y3700800D01*
X4400398D01*
X4374998Y3675400D01*
X4349598Y3700800D01*
X4324198D01*
Y3675400D01*
X4349598Y3650000D01*
X4324198Y3624600D01*
Y3599200D01*
X5208448Y4108445D02*
X5233848D01*
X5259248Y4133845D01*
X5284648Y4108445D01*
X5310048D01*
Y4133845D01*
X5284648Y4159245D01*
X5310048Y4184645D01*
Y4210045D01*
X5284648D01*
X5259248Y4184645D01*
X5233848Y4210045D01*
X5208448D01*
Y4184645D01*
X5233848Y4159245D01*
X5208448Y4133845D01*
Y4108445D01*
X5454198Y4094201D02*
X5479598D01*
X5504998Y4119601D01*
X5530398Y4094201D01*
X5555798D01*
Y4119601D01*
X5530398Y4145001D01*
X5555798Y4170401D01*
Y4195801D01*
X5530398D01*
X5504998Y4170401D01*
X5479598Y4195801D01*
X5454198D01*
Y4170401D01*
X5479598Y4145001D01*
X5454198Y4119601D01*
Y4094201D01*
X5759201Y4084823D02*
X5784601D01*
X5810001Y4110223D01*
X5835401Y4084823D01*
X5860801D01*
Y4110223D01*
X5835401Y4135623D01*
X5860801Y4161023D01*
Y4186423D01*
X5835401D01*
X5810001Y4161023D01*
X5784601Y4186423D01*
X5759201D01*
Y4161023D01*
X5784601Y4135623D01*
X5759201Y4110223D01*
Y4084823D01*
X5809200Y4053002D02*
X5834600D01*
X5860000Y4078402D01*
X5885400Y4053002D01*
X5910800D01*
Y4078402D01*
X5885400Y4103802D01*
X5910800Y4129202D01*
Y4154602D01*
X5885400D01*
X5860000Y4129202D01*
X5834600Y4154602D01*
X5809200D01*
Y4129202D01*
X5834600Y4103802D01*
X5809200Y4078402D01*
Y4053002D01*
X5679201Y3793072D02*
X5704601D01*
X5730001Y3818472D01*
X5755401Y3793072D01*
X5780801D01*
Y3818472D01*
X5755401Y3843872D01*
X5780801Y3869272D01*
Y3894672D01*
X5755401D01*
X5730001Y3869272D01*
X5704601Y3894672D01*
X5679201D01*
Y3869272D01*
X5704601Y3843872D01*
X5679201Y3818472D01*
Y3793072D01*
X5676351Y3848999D02*
X5701751D01*
X5727151Y3874399D01*
X5752551Y3848999D01*
X5777951D01*
Y3874399D01*
X5752551Y3899799D01*
X5777951Y3925199D01*
Y3950599D01*
X5752551D01*
X5727151Y3925199D01*
X5701751Y3950599D01*
X5676351D01*
Y3925199D01*
X5701751Y3899799D01*
X5676351Y3874399D01*
Y3848999D01*
X6598847Y3998847D02*
X6624247D01*
X6649647Y4024247D01*
X6675047Y3998847D01*
X6700447D01*
Y4024247D01*
X6675047Y4049647D01*
X6700447Y4075047D01*
Y4100447D01*
X6675047D01*
X6649647Y4075047D01*
X6624247Y4100447D01*
X6598847D01*
Y4075047D01*
X6624247Y4049647D01*
X6598847Y4024247D01*
Y3998847D01*
X6529202Y3999200D02*
X6554602D01*
X6580002Y4024600D01*
X6605402Y3999200D01*
X6630802D01*
Y4024600D01*
X6605402Y4050000D01*
X6630802Y4075400D01*
Y4100800D01*
X6605402D01*
X6580002Y4075400D01*
X6554602Y4100800D01*
X6529202D01*
Y4075400D01*
X6554602Y4050000D01*
X6529202Y4024600D01*
Y3999200D01*
Y3919200D02*
X6554602D01*
X6580002Y3944600D01*
X6605402Y3919200D01*
X6630802D01*
Y3944600D01*
X6605402Y3970000D01*
X6630802Y3995400D01*
Y4020800D01*
X6605402D01*
X6580002Y3995400D01*
X6554602Y4020800D01*
X6529202D01*
Y3995400D01*
X6554602Y3970000D01*
X6529202Y3944600D01*
Y3919200D01*
X6627602Y3604199D02*
X6653002D01*
X6678402Y3629599D01*
X6703802Y3604199D01*
X6729202D01*
Y3629599D01*
X6703802Y3654999D01*
X6729202Y3680399D01*
Y3705799D01*
X6703802D01*
X6678402Y3680399D01*
X6653002Y3705799D01*
X6627602D01*
Y3680399D01*
X6653002Y3654999D01*
X6627602Y3629599D01*
Y3604199D01*
X6459200Y3555911D02*
X6484600D01*
X6510000Y3581311D01*
X6535400Y3555911D01*
X6560800D01*
Y3581311D01*
X6535400Y3606711D01*
X6560800Y3632111D01*
Y3657511D01*
X6535400D01*
X6510000Y3632111D01*
X6484600Y3657511D01*
X6459200D01*
Y3632111D01*
X6484600Y3606711D01*
X6459200Y3581311D01*
Y3555911D01*
X6363711Y3864691D02*
X6389111D01*
X6414511Y3890091D01*
X6439911Y3864691D01*
X6465311D01*
Y3890091D01*
X6439911Y3915491D01*
X6465311Y3940891D01*
Y3966291D01*
X6439911D01*
X6414511Y3940891D01*
X6389111Y3966291D01*
X6363711D01*
Y3940891D01*
X6389111Y3915491D01*
X6363711Y3890091D01*
Y3864691D01*
X6369202Y3789202D02*
X6394602D01*
X6420002Y3814602D01*
X6445402Y3789202D01*
X6470802D01*
Y3814602D01*
X6445402Y3840002D01*
X6470802Y3865402D01*
Y3890802D01*
X6445402D01*
X6420002Y3865402D01*
X6394602Y3890802D01*
X6369202D01*
Y3865402D01*
X6394602Y3840002D01*
X6369202Y3814602D01*
Y3789202D01*
X5921361Y4000657D02*
X5946761D01*
X5972161Y4026057D01*
X5997561Y4000657D01*
X6022961D01*
Y4026057D01*
X5997561Y4051457D01*
X6022961Y4076857D01*
Y4102257D01*
X5997561D01*
X5972161Y4076857D01*
X5946761Y4102257D01*
X5921361D01*
Y4076857D01*
X5946761Y4051457D01*
X5921361Y4026057D01*
Y4000657D01*
X6349202Y3729203D02*
X6374602D01*
X6400002Y3754603D01*
X6425402Y3729203D01*
X6450802D01*
Y3754603D01*
X6425402Y3780003D01*
X6450802Y3805403D01*
Y3830803D01*
X6425402D01*
X6400002Y3805403D01*
X6374602Y3830803D01*
X6349202D01*
Y3805403D01*
X6374602Y3780003D01*
X6349202Y3754603D01*
Y3729203D01*
X6145560Y3735563D02*
X6170960D01*
X6196360Y3760963D01*
X6221760Y3735563D01*
X6247160D01*
Y3760963D01*
X6221760Y3786363D01*
X6247160Y3811763D01*
Y3837163D01*
X6221760D01*
X6196360Y3811763D01*
X6170960Y3837163D01*
X6145560D01*
Y3811763D01*
X6170960Y3786363D01*
X6145560Y3760963D01*
Y3735563D01*
X6059200Y3649200D02*
X6084600D01*
X6110000Y3674600D01*
X6135400Y3649200D01*
X6160800D01*
Y3674600D01*
X6135400Y3700000D01*
X6160800Y3725400D01*
Y3750800D01*
X6135400D01*
X6110000Y3725400D01*
X6084600Y3750800D01*
X6059200D01*
Y3725400D01*
X6084600Y3700000D01*
X6059200Y3674600D01*
Y3649200D01*
X6049198Y3567200D02*
X6074598D01*
X6099998Y3592600D01*
X6125398Y3567200D01*
X6150798D01*
Y3592600D01*
X6125398Y3618000D01*
X6150798Y3643400D01*
Y3668800D01*
X6125398D01*
X6099998Y3643400D01*
X6074598Y3668800D01*
X6049198D01*
Y3643400D01*
X6074598Y3618000D01*
X6049198Y3592600D01*
Y3567200D01*
X6479200Y3338704D02*
X6504600D01*
X6530000Y3364104D01*
X6555400Y3338704D01*
X6580800D01*
Y3364104D01*
X6555400Y3389504D01*
X6580800Y3414904D01*
Y3440304D01*
X6555400D01*
X6530000Y3414904D01*
X6504600Y3440304D01*
X6479200D01*
Y3414904D01*
X6504600Y3389504D01*
X6479200Y3364104D01*
Y3338704D01*
X6186003Y3304816D02*
X6211403D01*
X6236803Y3330216D01*
X6262203Y3304816D01*
X6287603D01*
Y3330216D01*
X6262203Y3355616D01*
X6287603Y3381016D01*
Y3406416D01*
X6262203D01*
X6236803Y3381016D01*
X6211403Y3406416D01*
X6186003D01*
Y3381016D01*
X6211403Y3355616D01*
X6186003Y3330216D01*
Y3304816D01*
X5643202Y3312138D02*
X5668602D01*
X5694002Y3337538D01*
X5719402Y3312138D01*
X5744802D01*
Y3337538D01*
X5719402Y3362938D01*
X5744802Y3388338D01*
Y3413738D01*
X5719402D01*
X5694002Y3388338D01*
X5668602Y3413738D01*
X5643202D01*
Y3388338D01*
X5668602Y3362938D01*
X5643202Y3337538D01*
Y3312138D01*
X5706700Y3317654D02*
X5732100D01*
X5757500Y3343054D01*
X5782900Y3317654D01*
X5808300D01*
Y3343054D01*
X5782900Y3368454D01*
X5808300Y3393854D01*
Y3419254D01*
X5782900D01*
X5757500Y3393854D01*
X5732100Y3419254D01*
X5706700D01*
Y3393854D01*
X5732100Y3368454D01*
X5706700Y3343054D01*
Y3317654D01*
X5790774Y3289097D02*
X5816174D01*
X5841574Y3314497D01*
X5866974Y3289097D01*
X5892374D01*
Y3314497D01*
X5866974Y3339897D01*
X5892374Y3365297D01*
Y3390697D01*
X5866974D01*
X5841574Y3365297D01*
X5816174Y3390697D01*
X5790774D01*
Y3365297D01*
X5816174Y3339897D01*
X5790774Y3314497D01*
Y3289097D01*
X5892200Y3259549D02*
X5917600D01*
X5943000Y3284949D01*
X5968400Y3259549D01*
X5993800D01*
Y3284949D01*
X5968400Y3310349D01*
X5993800Y3335749D01*
Y3361149D01*
X5968400D01*
X5943000Y3335749D01*
X5917600Y3361149D01*
X5892200D01*
Y3335749D01*
X5917600Y3310349D01*
X5892200Y3284949D01*
Y3259549D01*
X6529202Y3558698D02*
X6554602D01*
X6580002Y3584098D01*
X6605402Y3558698D01*
X6630802D01*
Y3584098D01*
X6605402Y3609498D01*
X6630802Y3634898D01*
Y3660298D01*
X6605402D01*
X6580002Y3634898D01*
X6554602Y3660298D01*
X6529202D01*
Y3634898D01*
X6554602Y3609498D01*
X6529202Y3584098D01*
Y3558698D01*
X6688091Y3474295D02*
X6713491D01*
X6738891Y3499695D01*
X6764291Y3474295D01*
X6789691D01*
Y3499695D01*
X6764291Y3525095D01*
X6789691Y3550495D01*
Y3575895D01*
X6764291D01*
X6738891Y3550495D01*
X6713491Y3575895D01*
X6688091D01*
Y3550495D01*
X6713491Y3525095D01*
X6688091Y3499695D01*
Y3474295D01*
X6831081Y3581080D02*
X6856481D01*
X6881881Y3606480D01*
X6907281Y3581080D01*
X6932681D01*
Y3606480D01*
X6907281Y3631880D01*
X6932681Y3657280D01*
Y3682680D01*
X6907281D01*
X6881881Y3657280D01*
X6856481Y3682680D01*
X6831081D01*
Y3657280D01*
X6856481Y3631880D01*
X6831081Y3606480D01*
Y3581080D01*
X6899199Y3732201D02*
X6924599D01*
X6949999Y3757601D01*
X6975399Y3732201D01*
X7000799D01*
Y3757601D01*
X6975399Y3783001D01*
X7000799Y3808401D01*
Y3833801D01*
X6975399D01*
X6949999Y3808401D01*
X6924599Y3833801D01*
X6899199D01*
Y3808401D01*
X6924599Y3783001D01*
X6899199Y3757601D01*
Y3732201D01*
X7344629Y4014525D02*
X7370029D01*
X7395429Y4039925D01*
X7420829Y4014525D01*
X7446229D01*
Y4039925D01*
X7420829Y4065325D01*
X7446229Y4090725D01*
Y4116125D01*
X7420829D01*
X7395429Y4090725D01*
X7370029Y4116125D01*
X7344629D01*
Y4090725D01*
X7370029Y4065325D01*
X7344629Y4039925D01*
Y4014525D01*
X7129201Y3866201D02*
X7154601D01*
X7180001Y3891601D01*
X7205401Y3866201D01*
X7230801D01*
Y3891601D01*
X7205401Y3917001D01*
X7230801Y3942401D01*
Y3967801D01*
X7205401D01*
X7180001Y3942401D01*
X7154601Y3967801D01*
X7129201D01*
Y3942401D01*
X7154601Y3917001D01*
X7129201Y3891601D01*
Y3866201D01*
X7069408D02*
X7094808D01*
X7120208Y3891601D01*
X7145608Y3866201D01*
X7171008D01*
Y3891601D01*
X7145608Y3917001D01*
X7171008Y3942401D01*
Y3967801D01*
X7145608D01*
X7120208Y3942401D01*
X7094808Y3967801D01*
X7069408D01*
Y3942401D01*
X7094808Y3917001D01*
X7069408Y3891601D01*
Y3866201D01*
X7131761Y4011202D02*
X7157161D01*
X7182561Y4036602D01*
X7207961Y4011202D01*
X7233361D01*
Y4036602D01*
X7207961Y4062002D01*
X7233361Y4087402D01*
Y4112802D01*
X7207961D01*
X7182561Y4087402D01*
X7157161Y4112802D01*
X7131761D01*
Y4087402D01*
X7157161Y4062002D01*
X7131761Y4036602D01*
Y4011202D01*
X7040077Y4019315D02*
X7065477D01*
X7090877Y4044715D01*
X7116277Y4019315D01*
X7141677D01*
Y4044715D01*
X7116277Y4070115D01*
X7141677Y4095515D01*
Y4120915D01*
X7116277D01*
X7090877Y4095515D01*
X7065477Y4120915D01*
X7040077D01*
Y4095515D01*
X7065477Y4070115D01*
X7040077Y4044715D01*
Y4019315D01*
X6859200Y4045315D02*
X6884600D01*
X6910000Y4070715D01*
X6935400Y4045315D01*
X6960800D01*
Y4070715D01*
X6935400Y4096115D01*
X6960800Y4121515D01*
Y4146915D01*
X6935400D01*
X6910000Y4121515D01*
X6884600Y4146915D01*
X6859200D01*
Y4121515D01*
X6884600Y4096115D01*
X6859200Y4070715D01*
Y4045315D01*
X6854932Y3911316D02*
X6880332D01*
X6905732Y3936716D01*
X6931132Y3911316D01*
X6956532D01*
Y3936716D01*
X6931132Y3962116D01*
X6956532Y3987516D01*
Y4012916D01*
X6931132D01*
X6905732Y3987516D01*
X6880332Y4012916D01*
X6854932D01*
Y3987516D01*
X6880332Y3962116D01*
X6854932Y3936716D01*
Y3911316D01*
X6830498Y4095027D02*
X6855898D01*
X6881298Y4120427D01*
X6906698Y4095027D01*
X6932098D01*
Y4120427D01*
X6906698Y4145827D01*
X6932098Y4171227D01*
Y4196627D01*
X6906698D01*
X6881298Y4171227D01*
X6855898Y4196627D01*
X6830498D01*
Y4171227D01*
X6855898Y4145827D01*
X6830498Y4120427D01*
Y4095027D01*
X6888712Y4229688D02*
X6914112D01*
X6939512Y4255088D01*
X6964912Y4229688D01*
X6990312D01*
Y4255088D01*
X6964912Y4280488D01*
X6990312Y4305888D01*
Y4331288D01*
X6964912D01*
X6939512Y4305888D01*
X6914112Y4331288D01*
X6888712D01*
Y4305888D01*
X6914112Y4280488D01*
X6888712Y4255088D01*
Y4229688D01*
X7029201Y4330201D02*
X7054601D01*
X7080001Y4355601D01*
X7105401Y4330201D01*
X7130801D01*
Y4355601D01*
X7105401Y4381001D01*
X7130801Y4406401D01*
Y4431801D01*
X7105401D01*
X7080001Y4406401D01*
X7054601Y4431801D01*
X7029201D01*
Y4406401D01*
X7054601Y4381001D01*
X7029201Y4355601D01*
Y4330201D01*
X8099200Y4319200D02*
X8124600D01*
X8150000Y4344600D01*
X8175400Y4319200D01*
X8200800D01*
Y4344600D01*
X8175400Y4370000D01*
X8200800Y4395400D01*
Y4420800D01*
X8175400D01*
X8150000Y4395400D01*
X8124600Y4420800D01*
X8099200D01*
Y4395400D01*
X8124600Y4370000D01*
X8099200Y4344600D01*
Y4319200D01*
X7969200Y4604202D02*
X7994600D01*
X8020000Y4629602D01*
X8045400Y4604202D01*
X8070800D01*
Y4629602D01*
X8045400Y4655002D01*
X8070800Y4680402D01*
Y4705802D01*
X8045400D01*
X8020000Y4680402D01*
X7994600Y4705802D01*
X7969200D01*
Y4680402D01*
X7994600Y4655002D01*
X7969200Y4629602D01*
Y4604202D01*
X7809200Y4799200D02*
X7834600D01*
X7860000Y4824600D01*
X7885400Y4799200D01*
X7910800D01*
Y4824600D01*
X7885400Y4850000D01*
X7910800Y4875400D01*
Y4900800D01*
X7885400D01*
X7860000Y4875400D01*
X7834600Y4900800D01*
X7809200D01*
Y4875400D01*
X7834600Y4850000D01*
X7809200Y4824600D01*
Y4799200D01*
X7869199Y4799198D02*
X7894599D01*
X7919999Y4824598D01*
X7945399Y4799198D01*
X7970799D01*
Y4824598D01*
X7945399Y4849998D01*
X7970799Y4875398D01*
Y4900798D01*
X7945399D01*
X7919999Y4875398D01*
X7894599Y4900798D01*
X7869199D01*
Y4875398D01*
X7894599Y4849998D01*
X7869199Y4824598D01*
Y4799198D01*
X7929199D02*
X7954599D01*
X7979999Y4824598D01*
X8005399Y4799198D01*
X8030799D01*
Y4824598D01*
X8005399Y4849998D01*
X8030799Y4875398D01*
Y4900798D01*
X8005399D01*
X7979999Y4875398D01*
X7954599Y4900798D01*
X7929199D01*
Y4875398D01*
X7954599Y4849998D01*
X7929199Y4824598D01*
Y4799198D01*
Y4859198D02*
X7954599D01*
X7979999Y4884598D01*
X8005399Y4859198D01*
X8030799D01*
Y4884598D01*
X8005399Y4909998D01*
X8030799Y4935398D01*
Y4960798D01*
X8005399D01*
X7979999Y4935398D01*
X7954599Y4960798D01*
X7929199D01*
Y4935398D01*
X7954599Y4909998D01*
X7929199Y4884598D01*
Y4859198D01*
X7869200Y4859200D02*
X7894600D01*
X7920000Y4884600D01*
X7945400Y4859200D01*
X7970800D01*
Y4884600D01*
X7945400Y4910000D01*
X7970800Y4935400D01*
Y4960800D01*
X7945400D01*
X7920000Y4935400D01*
X7894600Y4960800D01*
X7869200D01*
Y4935400D01*
X7894600Y4910000D01*
X7869200Y4884600D01*
Y4859200D01*
X7809200Y4924200D02*
X7834600D01*
X7860000Y4949600D01*
X7885400Y4924200D01*
X7910800D01*
Y4949600D01*
X7885400Y4975000D01*
X7910800Y5000400D01*
Y5025800D01*
X7885400D01*
X7860000Y5000400D01*
X7834600Y5025800D01*
X7809200D01*
Y5000400D01*
X7834600Y4975000D01*
X7809200Y4949600D01*
Y4924200D01*
X7869200Y4919200D02*
X7894600D01*
X7920000Y4944600D01*
X7945400Y4919200D01*
X7970800D01*
Y4944600D01*
X7945400Y4970000D01*
X7970800Y4995400D01*
Y5020800D01*
X7945400D01*
X7920000Y4995400D01*
X7894600Y5020800D01*
X7869200D01*
Y4995400D01*
X7894600Y4970000D01*
X7869200Y4944600D01*
Y4919200D01*
X7809200Y4859198D02*
X7834600D01*
X7860000Y4884598D01*
X7885400Y4859198D01*
X7910800D01*
Y4884598D01*
X7885400Y4909998D01*
X7910800Y4935398D01*
Y4960798D01*
X7885400D01*
X7860000Y4935398D01*
X7834600Y4960798D01*
X7809200D01*
Y4935398D01*
X7834600Y4909998D01*
X7809200Y4884598D01*
Y4859198D01*
X7929200Y4919200D02*
X7954600D01*
X7980000Y4944600D01*
X8005400Y4919200D01*
X8030800D01*
Y4944600D01*
X8005400Y4970000D01*
X8030800Y4995400D01*
Y5020800D01*
X8005400D01*
X7980000Y4995400D01*
X7954600Y5020800D01*
X7929200D01*
Y4995400D01*
X7954600Y4970000D01*
X7929200Y4944600D01*
Y4919200D01*
X7702766Y5382201D02*
X7728166D01*
X7753566Y5407601D01*
X7778966Y5382201D01*
X7804366D01*
Y5407601D01*
X7778966Y5433001D01*
X7804366Y5458401D01*
Y5483801D01*
X7778966D01*
X7753566Y5458401D01*
X7728166Y5483801D01*
X7702766D01*
Y5458401D01*
X7728166Y5433001D01*
X7702766Y5407601D01*
Y5382201D01*
X7740382Y5428702D02*
X7765782D01*
X7791182Y5454102D01*
X7816582Y5428702D01*
X7841982D01*
Y5454102D01*
X7816582Y5479502D01*
X7841982Y5504902D01*
Y5530302D01*
X7816582D01*
X7791182Y5504902D01*
X7765782Y5530302D01*
X7740382D01*
Y5504902D01*
X7765782Y5479502D01*
X7740382Y5454102D01*
Y5428702D01*
X7794062Y5471324D02*
X7819462D01*
X7844862Y5496724D01*
X7870262Y5471324D01*
X7895662D01*
Y5496724D01*
X7870262Y5522124D01*
X7895662Y5547524D01*
Y5572924D01*
X7870262D01*
X7844862Y5547524D01*
X7819462Y5572924D01*
X7794062D01*
Y5547524D01*
X7819462Y5522124D01*
X7794062Y5496724D01*
Y5471324D01*
X7200043Y5664545D02*
X7225443D01*
X7250843Y5689945D01*
X7276243Y5664545D01*
X7301643D01*
Y5689945D01*
X7276243Y5715345D01*
X7301643Y5740745D01*
Y5766145D01*
X7276243D01*
X7250843Y5740745D01*
X7225443Y5766145D01*
X7200043D01*
Y5740745D01*
X7225443Y5715345D01*
X7200043Y5689945D01*
Y5664545D01*
X7321118Y5662735D02*
X7346518D01*
X7371918Y5688135D01*
X7397318Y5662735D01*
X7422718D01*
Y5688135D01*
X7397318Y5713535D01*
X7422718Y5738935D01*
Y5764335D01*
X7397318D01*
X7371918Y5738935D01*
X7346518Y5764335D01*
X7321118D01*
Y5738935D01*
X7346518Y5713535D01*
X7321118Y5688135D01*
Y5662735D01*
X6981700Y5609200D02*
X7007100D01*
X7032500Y5634600D01*
X7057900Y5609200D01*
X7083300D01*
Y5634600D01*
X7057900Y5660000D01*
X7083300Y5685400D01*
Y5710800D01*
X7057900D01*
X7032500Y5685400D01*
X7007100Y5710800D01*
X6981700D01*
Y5685400D01*
X7007100Y5660000D01*
X6981700Y5634600D01*
Y5609200D01*
X7149200Y6129200D02*
X7174600D01*
X7200000Y6154600D01*
X7225400Y6129200D01*
X7250800D01*
Y6154600D01*
X7225400Y6180000D01*
X7250800Y6205400D01*
Y6230800D01*
X7225400D01*
X7200000Y6205400D01*
X7174600Y6230800D01*
X7149200D01*
Y6205400D01*
X7174600Y6180000D01*
X7149200Y6154600D01*
Y6129200D01*
X7321698Y5834702D02*
X7347098D01*
X7372498Y5860102D01*
X7397898Y5834702D01*
X7423298D01*
Y5860102D01*
X7397898Y5885502D01*
X7423298Y5910902D01*
Y5936302D01*
X7397898D01*
X7372498Y5910902D01*
X7347098Y5936302D01*
X7321698D01*
Y5910902D01*
X7347098Y5885502D01*
X7321698Y5860102D01*
Y5834702D01*
X7425406Y5614287D02*
X7450806D01*
X7476206Y5639687D01*
X7501606Y5614287D01*
X7527006D01*
Y5639687D01*
X7501606Y5665087D01*
X7527006Y5690487D01*
Y5715887D01*
X7501606D01*
X7476206Y5690487D01*
X7450806Y5715887D01*
X7425406D01*
Y5690487D01*
X7450806Y5665087D01*
X7425406Y5639687D01*
Y5614287D01*
X7451528Y5695255D02*
X7476928D01*
X7502328Y5720655D01*
X7527728Y5695255D01*
X7553128D01*
Y5720655D01*
X7527728Y5746055D01*
X7553128Y5771455D01*
Y5796855D01*
X7527728D01*
X7502328Y5771455D01*
X7476928Y5796855D01*
X7451528D01*
Y5771455D01*
X7476928Y5746055D01*
X7451528Y5720655D01*
Y5695255D01*
X7443698Y5760522D02*
X7469098D01*
X7494498Y5785922D01*
X7519898Y5760522D01*
X7545298D01*
Y5785922D01*
X7519898Y5811322D01*
X7545298Y5836722D01*
Y5862122D01*
X7519898D01*
X7494498Y5836722D01*
X7469098Y5862122D01*
X7443698D01*
Y5836722D01*
X7469098Y5811322D01*
X7443698Y5785922D01*
Y5760522D01*
X7485299Y5879698D02*
X7510699D01*
X7536099Y5905098D01*
X7561499Y5879698D01*
X7586899D01*
Y5905098D01*
X7561499Y5930498D01*
X7586899Y5955898D01*
Y5981298D01*
X7561499D01*
X7536099Y5955898D01*
X7510699Y5981298D01*
X7485299D01*
Y5955898D01*
X7510699Y5930498D01*
X7485299Y5905098D01*
Y5879698D01*
X7429702Y5865358D02*
X7455102D01*
X7480502Y5890758D01*
X7505902Y5865358D01*
X7531302D01*
Y5890758D01*
X7505902Y5916158D01*
X7531302Y5941558D01*
Y5966958D01*
X7505902D01*
X7480502Y5941558D01*
X7455102Y5966958D01*
X7429702D01*
Y5941558D01*
X7455102Y5916158D01*
X7429702Y5890758D01*
Y5865358D01*
X7852252Y6134750D02*
X7877652D01*
X7903052Y6160150D01*
X7928452Y6134750D01*
X7953852D01*
Y6160150D01*
X7928452Y6185550D01*
X7953852Y6210950D01*
Y6236350D01*
X7928452D01*
X7903052Y6210950D01*
X7877652Y6236350D01*
X7852252D01*
Y6210950D01*
X7877652Y6185550D01*
X7852252Y6160150D01*
Y6134750D01*
X7949199Y6229198D02*
X7974599D01*
X7999999Y6254598D01*
X8025399Y6229198D01*
X8050799D01*
Y6254598D01*
X8025399Y6279998D01*
X8050799Y6305398D01*
Y6330798D01*
X8025399D01*
X7999999Y6305398D01*
X7974599Y6330798D01*
X7949199D01*
Y6305398D01*
X7974599Y6279998D01*
X7949199Y6254598D01*
Y6229198D01*
X7841200Y6237202D02*
X7866600D01*
X7892000Y6262602D01*
X7917400Y6237202D01*
X7942800D01*
Y6262602D01*
X7917400Y6288002D01*
X7942800Y6313402D01*
Y6338802D01*
X7917400D01*
X7892000Y6313402D01*
X7866600Y6338802D01*
X7841200D01*
Y6313402D01*
X7866600Y6288002D01*
X7841200Y6262602D01*
Y6237202D01*
X7780644Y6246313D02*
X7806044D01*
X7831444Y6271713D01*
X7856844Y6246313D01*
X7882244D01*
Y6271713D01*
X7856844Y6297113D01*
X7882244Y6322513D01*
Y6347913D01*
X7856844D01*
X7831444Y6322513D01*
X7806044Y6347913D01*
X7780644D01*
Y6322513D01*
X7806044Y6297113D01*
X7780644Y6271713D01*
Y6246313D01*
X7716704Y6237202D02*
X7742104D01*
X7767504Y6262602D01*
X7792904Y6237202D01*
X7818304D01*
Y6262602D01*
X7792904Y6288002D01*
X7818304Y6313402D01*
Y6338802D01*
X7792904D01*
X7767504Y6313402D01*
X7742104Y6338802D01*
X7716704D01*
Y6313402D01*
X7742104Y6288002D01*
X7716704Y6262602D01*
Y6237202D01*
X7649702Y6229198D02*
X7675102D01*
X7700502Y6254598D01*
X7725902Y6229198D01*
X7751302D01*
Y6254598D01*
X7725902Y6279998D01*
X7751302Y6305398D01*
Y6330798D01*
X7725902D01*
X7700502Y6305398D01*
X7675102Y6330798D01*
X7649702D01*
Y6305398D01*
X7675102Y6279998D01*
X7649702Y6254598D01*
Y6229198D01*
X7383699Y6221141D02*
X7409099D01*
X7434499Y6246541D01*
X7459899Y6221141D01*
X7485299D01*
Y6246541D01*
X7459899Y6271941D01*
X7485299Y6297341D01*
Y6322741D01*
X7459899D01*
X7434499Y6297341D01*
X7409099Y6322741D01*
X7383699D01*
Y6297341D01*
X7409099Y6271941D01*
X7383699Y6246541D01*
Y6221141D01*
X7395214Y6490470D02*
X7420614D01*
X7446014Y6515870D01*
X7471414Y6490470D01*
X7496814D01*
Y6515870D01*
X7471414Y6541270D01*
X7496814Y6566670D01*
Y6592070D01*
X7471414D01*
X7446014Y6566670D01*
X7420614Y6592070D01*
X7395214D01*
Y6566670D01*
X7420614Y6541270D01*
X7395214Y6515870D01*
Y6490470D01*
X7437915Y6526700D02*
X7463315D01*
X7488715Y6552100D01*
X7514115Y6526700D01*
X7539515D01*
Y6552100D01*
X7514115Y6577500D01*
X7539515Y6602900D01*
Y6628300D01*
X7514115D01*
X7488715Y6602900D01*
X7463315Y6628300D01*
X7437915D01*
Y6602900D01*
X7463315Y6577500D01*
X7437915Y6552100D01*
Y6526700D01*
X7450200Y6426700D02*
X7475600D01*
X7501000Y6452100D01*
X7526400Y6426700D01*
X7551800D01*
Y6452100D01*
X7526400Y6477500D01*
X7551800Y6502900D01*
Y6528300D01*
X7526400D01*
X7501000Y6502900D01*
X7475600Y6528300D01*
X7450200D01*
Y6502900D01*
X7475600Y6477500D01*
X7450200Y6452100D01*
Y6426700D01*
X7454044Y6632336D02*
X7479444D01*
X7504844Y6657736D01*
X7530244Y6632336D01*
X7555644D01*
Y6657736D01*
X7530244Y6683136D01*
X7555644Y6708536D01*
Y6733936D01*
X7530244D01*
X7504844Y6708536D01*
X7479444Y6733936D01*
X7454044D01*
Y6708536D01*
X7479444Y6683136D01*
X7454044Y6657736D01*
Y6632336D01*
X7331093Y6494562D02*
X7356493D01*
X7381893Y6519962D01*
X7407293Y6494562D01*
X7432693D01*
Y6519962D01*
X7407293Y6545362D01*
X7432693Y6570762D01*
Y6596162D01*
X7407293D01*
X7381893Y6570762D01*
X7356493Y6596162D01*
X7331093D01*
Y6570762D01*
X7356493Y6545362D01*
X7331093Y6519962D01*
Y6494562D01*
X6328700Y6689700D02*
X6354100D01*
X6379500Y6715100D01*
X6404900Y6689700D01*
X6430300D01*
Y6715100D01*
X6404900Y6740500D01*
X6430300Y6765900D01*
Y6791300D01*
X6404900D01*
X6379500Y6765900D01*
X6354100Y6791300D01*
X6328700D01*
Y6765900D01*
X6354100Y6740500D01*
X6328700Y6715100D01*
Y6689700D01*
X6373652Y6393652D02*
X6399052D01*
X6424452Y6419052D01*
X6449852Y6393652D01*
X6475252D01*
Y6419052D01*
X6449852Y6444452D01*
X6475252Y6469852D01*
Y6495252D01*
X6449852D01*
X6424452Y6469852D01*
X6399052Y6495252D01*
X6373652D01*
Y6469852D01*
X6399052Y6444452D01*
X6373652Y6419052D01*
Y6393652D01*
X6663720Y6403721D02*
X6689120D01*
X6714520Y6429121D01*
X6739920Y6403721D01*
X6765320D01*
Y6429121D01*
X6739920Y6454521D01*
X6765320Y6479921D01*
Y6505321D01*
X6739920D01*
X6714520Y6479921D01*
X6689120Y6505321D01*
X6663720D01*
Y6479921D01*
X6689120Y6454521D01*
X6663720Y6429121D01*
Y6403721D01*
X6439200Y6411700D02*
X6464600D01*
X6490000Y6437100D01*
X6515400Y6411700D01*
X6540800D01*
Y6437100D01*
X6515400Y6462500D01*
X6540800Y6487900D01*
Y6513300D01*
X6515400D01*
X6490000Y6487900D01*
X6464600Y6513300D01*
X6439200D01*
Y6487900D01*
X6464600Y6462500D01*
X6439200Y6437100D01*
Y6411700D01*
X6527784Y6143125D02*
X6553184D01*
X6578584Y6168525D01*
X6603984Y6143125D01*
X6629384D01*
Y6168525D01*
X6603984Y6193925D01*
X6629384Y6219325D01*
Y6244725D01*
X6603984D01*
X6578584Y6219325D01*
X6553184Y6244725D01*
X6527784D01*
Y6219325D01*
X6553184Y6193925D01*
X6527784Y6168525D01*
Y6143125D01*
X6472029Y6137892D02*
X6497429D01*
X6522829Y6163292D01*
X6548229Y6137892D01*
X6573629D01*
Y6163292D01*
X6548229Y6188692D01*
X6573629Y6214092D01*
Y6239492D01*
X6548229D01*
X6522829Y6214092D01*
X6497429Y6239492D01*
X6472029D01*
Y6214092D01*
X6497429Y6188692D01*
X6472029Y6163292D01*
Y6137892D01*
X5615198Y5864494D02*
X5640598D01*
X5665998Y5889894D01*
X5691398Y5864494D01*
X5716798D01*
Y5889894D01*
X5691398Y5915294D01*
X5716798Y5940694D01*
Y5966094D01*
X5691398D01*
X5665998Y5940694D01*
X5640598Y5966094D01*
X5615198D01*
Y5940694D01*
X5640598Y5915294D01*
X5615198Y5889894D01*
Y5864494D01*
X5598699Y5289702D02*
X5624099D01*
X5649499Y5315102D01*
X5674899Y5289702D01*
X5700299D01*
Y5315102D01*
X5674899Y5340502D01*
X5700299Y5365902D01*
Y5391302D01*
X5674899D01*
X5649499Y5365902D01*
X5624099Y5391302D01*
X5598699D01*
Y5365902D01*
X5624099Y5340502D01*
X5598699Y5315102D01*
Y5289702D01*
X4727669Y5652734D02*
X4753069D01*
X4778469Y5678134D01*
X4803869Y5652734D01*
X4829269D01*
Y5678134D01*
X4803869Y5703534D01*
X4829269Y5728934D01*
Y5754334D01*
X4803869D01*
X4778469Y5728934D01*
X4753069Y5754334D01*
X4727669D01*
Y5728934D01*
X4753069Y5703534D01*
X4727669Y5678134D01*
Y5652734D01*
X4679701Y5774202D02*
X4705101D01*
X4730501Y5799602D01*
X4755901Y5774202D01*
X4781301D01*
Y5799602D01*
X4755901Y5825002D01*
X4781301Y5850402D01*
Y5875802D01*
X4755901D01*
X4730501Y5850402D01*
X4705101Y5875802D01*
X4679701D01*
Y5850402D01*
X4705101Y5825002D01*
X4679701Y5799602D01*
Y5774202D01*
X4801146Y6882255D02*
X4826546D01*
X4851946Y6907655D01*
X4877346Y6882255D01*
X4902746D01*
Y6907655D01*
X4877346Y6933055D01*
X4902746Y6958455D01*
Y6983855D01*
X4877346D01*
X4851946Y6958455D01*
X4826546Y6983855D01*
X4801146D01*
Y6958455D01*
X4826546Y6933055D01*
X4801146Y6907655D01*
Y6882255D01*
X5274143Y7649699D02*
X5299543D01*
X5324943Y7675099D01*
X5350343Y7649699D01*
X5375743D01*
Y7675099D01*
X5350343Y7700499D01*
X5375743Y7725899D01*
Y7751299D01*
X5350343D01*
X5324943Y7725899D01*
X5299543Y7751299D01*
X5274143D01*
Y7725899D01*
X5299543Y7700499D01*
X5274143Y7675099D01*
Y7649699D01*
X2772948Y7502952D02*
X2798348D01*
X2823748Y7528352D01*
X2849148Y7502952D01*
X2874548D01*
Y7528352D01*
X2849148Y7553752D01*
X2874548Y7579152D01*
Y7604552D01*
X2849148D01*
X2823748Y7579152D01*
X2798348Y7604552D01*
X2772948D01*
Y7579152D01*
X2798348Y7553752D01*
X2772948Y7528352D01*
Y7502952D01*
X2559202Y6779199D02*
X2584602D01*
X2610002Y6804599D01*
X2635402Y6779199D01*
X2660802D01*
Y6804599D01*
X2635402Y6829999D01*
X2660802Y6855399D01*
Y6880799D01*
X2635402D01*
X2610002Y6855399D01*
X2584602Y6880799D01*
X2559202D01*
Y6855399D01*
X2584602Y6829999D01*
X2559202Y6804599D01*
Y6779199D01*
X2588199Y6909258D02*
X2613599D01*
X2638999Y6934658D01*
X2664399Y6909258D01*
X2689799D01*
Y6934658D01*
X2664399Y6960058D01*
X2689799Y6985458D01*
Y7010858D01*
X2664399D01*
X2638999Y6985458D01*
X2613599Y7010858D01*
X2588199D01*
Y6985458D01*
X2613599Y6960058D01*
X2588199Y6934658D01*
Y6909258D01*
Y7031700D02*
X2613599D01*
X2638999Y7057100D01*
X2664399Y7031700D01*
X2689799D01*
Y7057100D01*
X2664399Y7082500D01*
X2689799Y7107900D01*
Y7133300D01*
X2664399D01*
X2638999Y7107900D01*
X2613599Y7133300D01*
X2588199D01*
Y7107900D01*
X2613599Y7082500D01*
X2588199Y7057100D01*
Y7031700D01*
X2567396Y7160199D02*
X2592796D01*
X2618196Y7185599D01*
X2643596Y7160199D01*
X2668996D01*
Y7185599D01*
X2643596Y7210999D01*
X2668996Y7236399D01*
Y7261799D01*
X2643596D01*
X2618196Y7236399D01*
X2592796Y7261799D01*
X2567396D01*
Y7236399D01*
X2592796Y7210999D01*
X2567396Y7185599D01*
Y7160199D01*
X3496700Y7176700D02*
X3522100D01*
X3547500Y7202100D01*
X3572900Y7176700D01*
X3598300D01*
Y7202100D01*
X3572900Y7227500D01*
X3598300Y7252900D01*
Y7278300D01*
X3572900D01*
X3547500Y7252900D01*
X3522100Y7278300D01*
X3496700D01*
Y7252900D01*
X3522100Y7227500D01*
X3496700Y7202100D01*
Y7176700D01*
X3713247Y6267735D02*
X3738647D01*
X3764047Y6293135D01*
X3789447Y6267735D01*
X3814847D01*
Y6293135D01*
X3789447Y6318535D01*
X3814847Y6343935D01*
Y6369335D01*
X3789447D01*
X3764047Y6343935D01*
X3738647Y6369335D01*
X3713247D01*
Y6343935D01*
X3738647Y6318535D01*
X3713247Y6293135D01*
Y6267735D01*
X3869200Y6574200D02*
X3894600D01*
X3920000Y6599600D01*
X3945400Y6574200D01*
X3970800D01*
Y6599600D01*
X3945400Y6625000D01*
X3970800Y6650400D01*
Y6675800D01*
X3945400D01*
X3920000Y6650400D01*
X3894600Y6675800D01*
X3869200D01*
Y6650400D01*
X3894600Y6625000D01*
X3869200Y6599600D01*
Y6574200D01*
X4172839Y6162838D02*
X4198239D01*
X4223639Y6188238D01*
X4249039Y6162838D01*
X4274439D01*
Y6188238D01*
X4249039Y6213638D01*
X4274439Y6239038D01*
Y6264438D01*
X4249039D01*
X4223639Y6239038D01*
X4198239Y6264438D01*
X4172839D01*
Y6239038D01*
X4198239Y6213638D01*
X4172839Y6188238D01*
Y6162838D01*
X3917523Y5987522D02*
X3942923D01*
X3968323Y6012922D01*
X3993723Y5987522D01*
X4019123D01*
Y6012922D01*
X3993723Y6038322D01*
X4019123Y6063722D01*
Y6089122D01*
X3993723D01*
X3968323Y6063722D01*
X3942923Y6089122D01*
X3917523D01*
Y6063722D01*
X3942923Y6038322D01*
X3917523Y6012922D01*
Y5987522D01*
X3933297Y6229396D02*
X3958697D01*
X3984097Y6254796D01*
X4009497Y6229396D01*
X4034897D01*
Y6254796D01*
X4009497Y6280196D01*
X4034897Y6305596D01*
Y6330996D01*
X4009497D01*
X3984097Y6305596D01*
X3958697Y6330996D01*
X3933297D01*
Y6305596D01*
X3958697Y6280196D01*
X3933297Y6254796D01*
Y6229396D01*
X3732198Y5999201D02*
X3757598D01*
X3782998Y6024601D01*
X3808398Y5999201D01*
X3833798D01*
Y6024601D01*
X3808398Y6050001D01*
X3833798Y6075401D01*
Y6100801D01*
X3808398D01*
X3782998Y6075401D01*
X3757598Y6100801D01*
X3732198D01*
Y6075401D01*
X3757598Y6050001D01*
X3732198Y6024601D01*
Y5999201D01*
X3722421Y5934346D02*
X3747821D01*
X3773221Y5959746D01*
X3798621Y5934346D01*
X3824021D01*
Y5959746D01*
X3798621Y5985146D01*
X3824021Y6010546D01*
Y6035946D01*
X3798621D01*
X3773221Y6010546D01*
X3747821Y6035946D01*
X3722421D01*
Y6010546D01*
X3747821Y5985146D01*
X3722421Y5959746D01*
Y5934346D01*
X3712088Y5735813D02*
X3737488D01*
X3762888Y5761213D01*
X3788288Y5735813D01*
X3813688D01*
Y5761213D01*
X3788288Y5786613D01*
X3813688Y5812013D01*
Y5837413D01*
X3788288D01*
X3762888Y5812013D01*
X3737488Y5837413D01*
X3712088D01*
Y5812013D01*
X3737488Y5786613D01*
X3712088Y5761213D01*
Y5735813D01*
X3319555Y5658847D02*
X3344955D01*
X3370355Y5684247D01*
X3395755Y5658847D01*
X3421155D01*
Y5684247D01*
X3395755Y5709647D01*
X3421155Y5735047D01*
Y5760447D01*
X3395755D01*
X3370355Y5735047D01*
X3344955Y5760447D01*
X3319555D01*
Y5735047D01*
X3344955Y5709647D01*
X3319555Y5684247D01*
Y5658847D01*
X3346700Y5349200D02*
X3372100D01*
X3397500Y5374600D01*
X3422900Y5349200D01*
X3448300D01*
Y5374600D01*
X3422900Y5400000D01*
X3448300Y5425400D01*
Y5450800D01*
X3422900D01*
X3397500Y5425400D01*
X3372100Y5450800D01*
X3346700D01*
Y5425400D01*
X3372100Y5400000D01*
X3346700Y5374600D01*
Y5349200D01*
X3820084Y5238318D02*
X3845484D01*
X3870884Y5263718D01*
X3896284Y5238318D01*
X3921684D01*
Y5263718D01*
X3896284Y5289118D01*
X3921684Y5314518D01*
Y5339918D01*
X3896284D01*
X3870884Y5314518D01*
X3845484Y5339918D01*
X3820084D01*
Y5314518D01*
X3845484Y5289118D01*
X3820084Y5263718D01*
Y5238318D01*
X3768278Y5259582D02*
X3793678D01*
X3819078Y5284982D01*
X3844478Y5259582D01*
X3869878D01*
Y5284982D01*
X3844478Y5310382D01*
X3869878Y5335782D01*
Y5361182D01*
X3844478D01*
X3819078Y5335782D01*
X3793678Y5361182D01*
X3768278D01*
Y5335782D01*
X3793678Y5310382D01*
X3768278Y5284982D01*
Y5259582D01*
X3849804Y5139306D02*
X3875204D01*
X3900604Y5164706D01*
X3926004Y5139306D01*
X3951404D01*
Y5164706D01*
X3926004Y5190106D01*
X3951404Y5215506D01*
Y5240906D01*
X3926004D01*
X3900604Y5215506D01*
X3875204Y5240906D01*
X3849804D01*
Y5215506D01*
X3875204Y5190106D01*
X3849804Y5164706D01*
Y5139306D01*
X3764768Y4805868D02*
X3790168D01*
X3815568Y4831268D01*
X3840968Y4805868D01*
X3866368D01*
Y4831268D01*
X3840968Y4856668D01*
X3866368Y4882068D01*
Y4907468D01*
X3840968D01*
X3815568Y4882068D01*
X3790168Y4907468D01*
X3764768D01*
Y4882068D01*
X3790168Y4856668D01*
X3764768Y4831268D01*
Y4805868D01*
X3649315Y4716075D02*
X3674715D01*
X3700115Y4741475D01*
X3725515Y4716075D01*
X3750915D01*
Y4741475D01*
X3725515Y4766875D01*
X3750915Y4792275D01*
Y4817675D01*
X3725515D01*
X3700115Y4792275D01*
X3674715Y4817675D01*
X3649315D01*
Y4792275D01*
X3674715Y4766875D01*
X3649315Y4741475D01*
Y4716075D01*
X3631680Y4634081D02*
X3657080D01*
X3682480Y4659481D01*
X3707880Y4634081D01*
X3733280D01*
Y4659481D01*
X3707880Y4684881D01*
X3733280Y4710281D01*
Y4735681D01*
X3707880D01*
X3682480Y4710281D01*
X3657080Y4735681D01*
X3631680D01*
Y4710281D01*
X3657080Y4684881D01*
X3631680Y4659481D01*
Y4634081D01*
X3474202Y4657200D02*
X3499602D01*
X3525002Y4682600D01*
X3550402Y4657200D01*
X3575802D01*
Y4682600D01*
X3550402Y4708000D01*
X3575802Y4733400D01*
Y4758800D01*
X3550402D01*
X3525002Y4733400D01*
X3499602Y4758800D01*
X3474202D01*
Y4733400D01*
X3499602Y4708000D01*
X3474202Y4682600D01*
Y4657200D01*
X3530202D02*
X3555602D01*
X3581002Y4682600D01*
X3606402Y4657200D01*
X3631802D01*
Y4682600D01*
X3606402Y4708000D01*
X3631802Y4733400D01*
Y4758800D01*
X3606402D01*
X3581002Y4733400D01*
X3555602Y4758800D01*
X3530202D01*
Y4733400D01*
X3555602Y4708000D01*
X3530202Y4682600D01*
Y4657200D01*
X3428185Y4621083D02*
X3453585D01*
X3478985Y4646483D01*
X3504385Y4621083D01*
X3529785D01*
Y4646483D01*
X3504385Y4671883D01*
X3529785Y4697283D01*
Y4722683D01*
X3504385D01*
X3478985Y4697283D01*
X3453585Y4722683D01*
X3428185D01*
Y4697283D01*
X3453585Y4671883D01*
X3428185Y4646483D01*
Y4621083D01*
X3450240Y4709641D02*
X3475640D01*
X3501040Y4735041D01*
X3526440Y4709641D01*
X3551840D01*
Y4735041D01*
X3526440Y4760441D01*
X3551840Y4785841D01*
Y4811241D01*
X3526440D01*
X3501040Y4785841D01*
X3475640Y4811241D01*
X3450240D01*
Y4785841D01*
X3475640Y4760441D01*
X3450240Y4735041D01*
Y4709641D01*
X3507964Y4713044D02*
X3533364D01*
X3558764Y4738444D01*
X3584164Y4713044D01*
X3609564D01*
Y4738444D01*
X3584164Y4763844D01*
X3609564Y4789244D01*
Y4814644D01*
X3584164D01*
X3558764Y4789244D01*
X3533364Y4814644D01*
X3507964D01*
Y4789244D01*
X3533364Y4763844D01*
X3507964Y4738444D01*
Y4713044D01*
X3102220Y4754720D02*
X3127620D01*
X3153020Y4780120D01*
X3178420Y4754720D01*
X3203820D01*
Y4780120D01*
X3178420Y4805520D01*
X3203820Y4830920D01*
Y4856320D01*
X3178420D01*
X3153020Y4830920D01*
X3127620Y4856320D01*
X3102220D01*
Y4830920D01*
X3127620Y4805520D01*
X3102220Y4780120D01*
Y4754720D01*
Y4860332D02*
X3127620D01*
X3153020Y4885732D01*
X3178420Y4860332D01*
X3203820D01*
Y4885732D01*
X3178420Y4911132D01*
X3203820Y4936532D01*
Y4961932D01*
X3178420D01*
X3153020Y4936532D01*
X3127620Y4961932D01*
X3102220D01*
Y4936532D01*
X3127620Y4911132D01*
X3102220Y4885732D01*
Y4860332D01*
X3107292Y4929441D02*
X3132692D01*
X3158092Y4954841D01*
X3183492Y4929441D01*
X3208892D01*
Y4954841D01*
X3183492Y4980241D01*
X3208892Y5005641D01*
Y5031041D01*
X3183492D01*
X3158092Y5005641D01*
X3132692Y5031041D01*
X3107292D01*
Y5005641D01*
X3132692Y4980241D01*
X3107292Y4954841D01*
Y4929441D01*
X3100378Y4985012D02*
X3125778D01*
X3151178Y5010412D01*
X3176578Y4985012D01*
X3201978D01*
Y5010412D01*
X3176578Y5035812D01*
X3201978Y5061212D01*
Y5086612D01*
X3176578D01*
X3151178Y5061212D01*
X3125778Y5086612D01*
X3100378D01*
Y5061212D01*
X3125778Y5035812D01*
X3100378Y5010412D01*
Y4985012D01*
X3085224Y5038923D02*
X3110624D01*
X3136024Y5064323D01*
X3161424Y5038923D01*
X3186824D01*
Y5064323D01*
X3161424Y5089723D01*
X3186824Y5115123D01*
Y5140523D01*
X3161424D01*
X3136024Y5115123D01*
X3110624Y5140523D01*
X3085224D01*
Y5115123D01*
X3110624Y5089723D01*
X3085224Y5064323D01*
Y5038923D01*
X3059200Y5094200D02*
X3084600D01*
X3110000Y5119600D01*
X3135400Y5094200D01*
X3160800D01*
Y5119600D01*
X3135400Y5145000D01*
X3160800Y5170400D01*
Y5195800D01*
X3135400D01*
X3110000Y5170400D01*
X3084600Y5195800D01*
X3059200D01*
Y5170400D01*
X3084600Y5145000D01*
X3059200Y5119600D01*
Y5094200D01*
X7829199Y5159202D02*
X7854599D01*
X7879999Y5184602D01*
X7905399Y5159202D01*
X7930799D01*
Y5184602D01*
X7905399Y5210002D01*
X7930799Y5235402D01*
Y5260802D01*
X7905399D01*
X7879999Y5235402D01*
X7854599Y5260802D01*
X7829199D01*
Y5235402D01*
X7854599Y5210002D01*
X7829199Y5184602D01*
Y5159202D01*
X4879198Y2829199D02*
X4904598D01*
X4929998Y2854599D01*
X4955398Y2829199D01*
X4980798D01*
Y2854599D01*
X4955398Y2879999D01*
X4980798Y2905399D01*
Y2930799D01*
X4955398D01*
X4929998Y2905399D01*
X4904598Y2930799D01*
X4879198D01*
Y2905399D01*
X4904598Y2879999D01*
X4879198Y2854599D01*
Y2829199D01*
X5499202Y7339198D02*
X5524602D01*
X5550002Y7364598D01*
X5575402Y7339198D01*
X5600802D01*
Y7364598D01*
X5575402Y7389998D01*
X5600802Y7415398D01*
Y7440798D01*
X5575402D01*
X5550002Y7415398D01*
X5524602Y7440798D01*
X5499202D01*
Y7415398D01*
X5524602Y7389998D01*
X5499202Y7364598D01*
Y7339198D01*
X2824602Y4924598D02*
Y4899198D01*
X2875402D01*
Y4924598D01*
X2900802D01*
Y4975398D01*
X2875402D01*
Y5000798D01*
X2824602D01*
Y4975398D01*
X2799202D01*
Y4924598D01*
X2824602D01*
X8174599Y2824602D02*
Y2799202D01*
X8225399D01*
Y2824602D01*
X8250799D01*
Y2875402D01*
X8225399D01*
Y2900802D01*
X8174599D01*
Y2875402D01*
X8149199D01*
Y2824602D01*
X8174599D01*
X7949601Y7249602D02*
Y7224202D01*
X8000401D01*
Y7249602D01*
X8025801D01*
Y7300402D01*
X8000401D01*
Y7325802D01*
X7949601D01*
Y7300402D01*
X7924201D01*
Y7249602D01*
X7949601D01*
D138*
X3525799Y3850000D02*
G03*
X3525799Y3850000I-50800J0D01*
G01*
X3025800D02*
G03*
X3025800Y3850000I-50800J0D01*
G01*
X6300800Y7200001D02*
G03*
X6300800Y7200001I-50800J0D01*
G01*
X6800799D02*
G03*
X6800799Y7200001I-50800J0D01*
G01*
X4400799D02*
G03*
X4400799Y7200001I-50800J0D01*
G01*
X4900798D02*
G03*
X4900798Y7200001I-50800J0D01*
G01*
%TF.MD5,968ea2ad2a16e1c00aadd1a161a28e74*%
M02*
