%TF.GenerationSoftware,Altium Limited,Altium Designer,24.7.2 (38)*%
G04 Layer_Color=128*
%FSLAX45Y45*%
%MOMM*%
%TF.SameCoordinates,0E07C861-06C4-4886-B41C-83883A41DA48*%
%TF.FilePolarity,Positive*%
%TF.FileFunction,Paste,Bot*%
%TF.Part,Single*%
G01*
G75*
%TA.AperFunction,SMDPad,CuDef*%
%ADD19R,1.05000X1.00000*%
%ADD21R,1.00000X0.95000*%
%ADD22R,1.00000X1.05000*%
%ADD32R,3.35000X1.65000*%
%ADD53O,1.50000X0.60000*%
%ADD54R,1.90000X1.50000*%
%ADD55R,5.60000X6.80000*%
%ADD56R,1.00000X3.00000*%
%ADD57R,1.50000X1.90000*%
%ADD58R,1.65000X3.35000*%
%ADD61O,0.60000X1.00000*%
%TA.AperFunction,Conductor*%
%ADD64C,2.50000*%
%ADD65C,2.00000*%
%ADD67C,1.80000*%
G36*
X5927500Y3540000D02*
X5757500D01*
Y3660000D01*
X5927500D01*
Y3540000D01*
D02*
G37*
G36*
X6197500D02*
X6028300D01*
Y3660000D01*
X6197500D01*
Y3540000D01*
D02*
G37*
D19*
X6505000Y4530000D02*
D03*
X6355000D02*
D03*
X7725000Y5905000D02*
D03*
X7575000D02*
D03*
X3550000Y4625000D02*
D03*
X3700000D02*
D03*
X5840000Y4100000D02*
D03*
X5990000D02*
D03*
X5825000Y3800000D02*
D03*
X5975000D02*
D03*
D21*
X7880000Y4725000D02*
D03*
X8025000D02*
D03*
X5447500Y3900000D02*
D03*
X5302500D02*
D03*
X7555000Y4725000D02*
D03*
X7700000D02*
D03*
X4172500Y4000000D02*
D03*
X4027500D02*
D03*
X4172500Y4200000D02*
D03*
X4027500D02*
D03*
X7222500Y3000000D02*
D03*
X7077500D02*
D03*
X7427500D02*
D03*
X7572500D02*
D03*
D22*
X3675000Y4950000D02*
D03*
Y4800000D02*
D03*
X8325000Y4925000D02*
D03*
Y5075000D02*
D03*
X7975000Y6480000D02*
D03*
Y6330000D02*
D03*
X3700000Y4075000D02*
D03*
Y4225000D02*
D03*
X7975000Y5530000D02*
D03*
Y5680000D02*
D03*
X5175000Y5400000D02*
D03*
Y5550000D02*
D03*
D32*
X5550000Y7002500D02*
D03*
Y7597500D02*
D03*
X3700000Y6802500D02*
D03*
Y7397500D02*
D03*
D53*
X7537500Y4934500D02*
D03*
Y5061500D02*
D03*
Y5188500D02*
D03*
Y5315500D02*
D03*
X8112500Y4934500D02*
D03*
Y5061500D02*
D03*
Y5188500D02*
D03*
Y5315500D02*
D03*
X3625000Y5548000D02*
D03*
Y5675000D02*
D03*
Y5802000D02*
D03*
Y5929000D02*
D03*
X4200000Y5548000D02*
D03*
Y5675000D02*
D03*
Y5802000D02*
D03*
Y5929000D02*
D03*
X6262500Y6359500D02*
D03*
Y6486500D02*
D03*
Y6613500D02*
D03*
Y6740500D02*
D03*
X6837500Y6359500D02*
D03*
Y6486500D02*
D03*
Y6613500D02*
D03*
Y6740500D02*
D03*
X4087500Y6590500D02*
D03*
Y6463500D02*
D03*
Y6336500D02*
D03*
Y6209500D02*
D03*
X3512500Y6590500D02*
D03*
Y6463500D02*
D03*
Y6336500D02*
D03*
Y6209500D02*
D03*
X5537500Y5534500D02*
D03*
Y5661500D02*
D03*
Y5788500D02*
D03*
Y5915500D02*
D03*
X6112500Y5534500D02*
D03*
Y5661500D02*
D03*
Y5788500D02*
D03*
Y5915500D02*
D03*
X5962500Y6615500D02*
D03*
Y6488500D02*
D03*
Y6361500D02*
D03*
Y6234500D02*
D03*
X5387500Y6615500D02*
D03*
Y6488500D02*
D03*
Y6361500D02*
D03*
Y6234500D02*
D03*
X4987500Y6065500D02*
D03*
Y5938500D02*
D03*
Y5811500D02*
D03*
Y5684500D02*
D03*
X4412500Y6065500D02*
D03*
Y5938500D02*
D03*
Y5811500D02*
D03*
Y5684500D02*
D03*
X4362500Y6334500D02*
D03*
Y6461500D02*
D03*
Y6588500D02*
D03*
Y6715500D02*
D03*
X4937500Y6334500D02*
D03*
Y6461500D02*
D03*
Y6588500D02*
D03*
Y6715500D02*
D03*
X6912500Y6040500D02*
D03*
Y5913500D02*
D03*
Y5786500D02*
D03*
Y5659500D02*
D03*
X6337500Y6040500D02*
D03*
Y5913500D02*
D03*
Y5786500D02*
D03*
Y5659500D02*
D03*
D54*
X7325000Y4785000D02*
D03*
Y5065000D02*
D03*
X7050000Y5110000D02*
D03*
Y5390000D02*
D03*
X5425000Y4915000D02*
D03*
Y4635000D02*
D03*
X6750000Y5110000D02*
D03*
Y5390000D02*
D03*
X7325000Y5565000D02*
D03*
Y5285000D02*
D03*
X5700000Y4635000D02*
D03*
Y4915000D02*
D03*
D55*
X4929000Y4365000D02*
D03*
D56*
X5158000Y5000000D02*
D03*
X4700000D02*
D03*
D57*
X4300000Y5275000D02*
D03*
X4020000D02*
D03*
D58*
X6522500Y4825000D02*
D03*
X5927500D02*
D03*
D61*
X7432500Y3330000D02*
D03*
X7242500D02*
D03*
X7337500Y3570000D02*
D03*
D64*
X6337500Y5759500D02*
Y5886500D01*
X6200000Y5761500D02*
Y5888500D01*
Y6000000D01*
Y5634500D02*
Y5761500D01*
X5904000Y5154000D02*
X6200000Y5450000D01*
Y5634500D01*
X4412500Y5811500D02*
Y5938500D01*
X4325000Y5975000D02*
X4412500Y5887500D01*
X4200000Y5548000D02*
X4402001D01*
X4954000Y5154000D02*
X5175000D01*
X6337500Y5659500D02*
Y5759500D01*
X5175000Y5154000D02*
X5904000D01*
X3322900Y4700606D02*
Y5175171D01*
X6337500Y5587500D02*
Y5659500D01*
X2975000Y7450000D02*
X3175000Y7650000D01*
X3350000D01*
X2975000Y5523071D02*
Y7450000D01*
Y5523071D02*
X3322900Y5175171D01*
X4954000Y5154000D02*
Y5246000D01*
X4800000Y5400000D02*
X4954000Y5246000D01*
X4708000Y5400000D02*
X4800000D01*
X4450000Y7650000D02*
X4600000Y7500000D01*
X3350000Y7650000D02*
X4450000D01*
X6300000Y5951000D02*
X6337500Y5913500D01*
X6300000Y6003000D02*
X6337500Y6040500D01*
X6300000Y5951000D02*
Y6003000D01*
X2976913Y4354619D02*
X3322900Y4700606D01*
X6200000Y5450000D02*
X6337500Y5587500D01*
X4954000Y5154000D02*
X5108000Y5000000D01*
X4200000Y5548000D02*
Y5675000D01*
X4412500Y5887500D02*
Y5938500D01*
Y5684500D02*
Y5811500D01*
Y5558499D02*
Y5684500D01*
X4402001Y5548000D02*
X4412500Y5558499D01*
X4200000Y5802000D02*
Y5929000D01*
Y5675000D02*
Y5802000D01*
X4402001Y5548000D02*
X4550000Y5400000D01*
X4708000D01*
X5108000Y5000000D02*
X5158000D01*
X2976913Y3851913D02*
Y4354619D01*
X2975000Y3850000D02*
X2976913Y3851913D01*
X4050000Y2925000D02*
Y3275000D01*
Y2925000D02*
X4225000Y2750000D01*
X3475000Y3850000D02*
X4050000Y3275000D01*
D65*
X3542500Y5618124D02*
Y5754368D01*
X3400000Y6642500D02*
X3532500Y6775000D01*
X3400000Y5896868D02*
Y6642500D01*
X7000000Y5850000D02*
Y6300000D01*
X6900000Y6400000D02*
Y7033764D01*
X4150000Y6400000D02*
Y6685000D01*
X4250000Y6400000D02*
Y6570868D01*
X6067500Y6417500D02*
Y6488500D01*
Y6600000D02*
Y6802632D01*
X6050500Y6400500D02*
X6067500Y6417500D01*
Y6600000D02*
X6117500Y6550000D01*
X3532500Y6775000D02*
Y6780660D01*
X4750000Y7650000D02*
X5050000D01*
X4600000Y7500000D02*
X4750000Y7650000D01*
X5050000D02*
X5250000Y7850000D01*
X4162700Y7387300D02*
X4350000Y7200000D01*
X3900000Y7387300D02*
X4162700D01*
X5475000Y5595726D02*
Y5720868D01*
X5342500Y5853368D02*
X5475000Y5720868D01*
X5342500Y5977632D02*
X5350000Y5985132D01*
Y6197000D01*
X5342500Y5853368D02*
Y5977632D01*
X5350000Y6615500D02*
Y6852500D01*
Y6488500D02*
Y6615500D01*
Y6361500D02*
Y6488500D01*
Y6234500D02*
Y6361500D01*
X5500000Y7002500D02*
X5550000D01*
X5350000Y6852500D02*
X5500000Y7002500D01*
X6900000Y6400000D02*
X7000000Y6300000D01*
X6750000Y7183764D02*
Y7200000D01*
Y7183764D02*
X6900000Y7033764D01*
X6050000Y6400000D02*
X6150000D01*
X6117500Y6550000D02*
X6180000D01*
X6067500Y6802632D02*
X6195369Y6930501D01*
X6200000Y7850000D02*
X6500000Y7550000D01*
X5250000Y7850000D02*
X6200000D01*
X5947500Y7597500D02*
X6220000Y7325000D01*
Y7230000D02*
X6250000Y7200000D01*
X5550000Y7597500D02*
X5947500D01*
X6220000Y7230000D02*
Y7325000D01*
X3400000Y5896868D02*
X3542500Y5754368D01*
X4150000Y6700000D02*
Y6832843D01*
Y6700000D02*
X4167500Y6682500D01*
Y6653368D02*
Y6682500D01*
Y6653368D02*
X4250000Y6570868D01*
D67*
X4491629Y6950000D02*
X4600000Y7058371D01*
Y7500000D01*
X4267158Y6950000D02*
X4491629D01*
X6372131Y6930501D02*
X6500000Y7058371D01*
X6195369Y6930501D02*
X6372131D01*
X6500000Y7058371D02*
Y7550000D01*
X4150000Y6832843D02*
X4267158Y6950000D01*
%TF.MD5,a6b565bb70376eb1efa31497e5fe1613*%
M02*
