%TF.GenerationSoftware,Altium Limited,Altium Designer,24.7.2 (38)*%
G04 Layer_Physical_Order=2*
G04 Layer_Color=36540*
%FSLAX45Y45*%
%MOMM*%
%TF.SameCoordinates,0E07C861-06C4-4886-B41C-83883A41DA48*%
%TF.FilePolarity,Positive*%
%TF.FileFunction,Copper,L2,Inr,Signal*%
%TF.Part,Single*%
G01*
G75*
%TA.AperFunction,Conductor*%
%ADD38C,0.25400*%
%ADD39C,0.16000*%
%TA.AperFunction,ComponentPad*%
%ADD42C,1.40000*%
G04:AMPARAMS|DCode=43|XSize=1.4mm|YSize=1.4mm|CornerRadius=0.35mm|HoleSize=0mm|Usage=FLASHONLY|Rotation=0.000|XOffset=0mm|YOffset=0mm|HoleType=Round|Shape=RoundedRectangle|*
%AMROUNDEDRECTD43*
21,1,1.40000,0.70000,0,0,0.0*
21,1,0.70000,1.40000,0,0,0.0*
1,1,0.70000,0.35000,-0.35000*
1,1,0.70000,-0.35000,-0.35000*
1,1,0.70000,-0.35000,0.35000*
1,1,0.70000,0.35000,0.35000*
%
%ADD43ROUNDEDRECTD43*%
%ADD44R,6.00000X6.00000*%
G04:AMPARAMS|DCode=45|XSize=2.6mm|YSize=2.6mm|CornerRadius=0.65mm|HoleSize=0mm|Usage=FLASHONLY|Rotation=180.000|XOffset=0mm|YOffset=0mm|HoleType=Round|Shape=RoundedRectangle|*
%AMROUNDEDRECTD45*
21,1,2.60000,1.30000,0,0,180.0*
21,1,1.30000,2.60000,0,0,180.0*
1,1,1.30000,-0.65000,0.65000*
1,1,1.30000,0.65000,0.65000*
1,1,1.30000,0.65000,-0.65000*
1,1,1.30000,-0.65000,-0.65000*
%
%ADD45ROUNDEDRECTD45*%
%ADD46C,1.60000*%
%ADD47C,2.60000*%
%TA.AperFunction,ViaPad*%
%ADD48C,0.35000*%
%ADD49C,0.45000*%
%ADD50C,5.45000*%
%TA.AperFunction,NonConductor*%
%ADD51C,0.25400*%
%ADD52C,0.15240*%
D38*
X5270700Y8220700D02*
X5295789Y8245789D01*
X5270700Y7351100D02*
Y8220700D01*
X5342196Y8267500D02*
X5347500D01*
X5320485Y8245789D02*
X5342196Y8267500D01*
X5295789Y8245789D02*
X5320485D01*
X4783521Y6800000D02*
X5332500Y7348979D01*
X3960000Y6800000D02*
X4783521D01*
X4852300Y6932700D02*
X5270700Y7351100D01*
X5332500Y7348979D02*
Y7702500D01*
D39*
X7812208Y4401000D02*
G03*
X7822883Y4405082I0J16000D01*
G01*
X6355000Y4729319D02*
Y5925000D01*
Y4729319D02*
X6388570Y4695750D01*
X6355000Y5925000D02*
X6650000Y6220000D01*
X7279500Y5867250D02*
Y8208087D01*
X7250500Y5829500D02*
X7370000Y5710000D01*
X7098818Y8352000D02*
X7250500Y8200318D01*
Y5829500D02*
Y8200318D01*
X3195000Y4065896D02*
Y4075000D01*
Y3974500D02*
Y4065896D01*
X7480112Y5915659D02*
X7482834D01*
X7508994Y5889500D01*
X7586329D01*
X7373000Y5877153D02*
Y6499231D01*
X7413500Y5882455D02*
Y5950269D01*
X7369362Y6502868D02*
Y6520638D01*
Y6502868D02*
X7373000Y6499231D01*
X3834402Y5825598D02*
X3911382Y5748618D01*
X3819542Y5825598D02*
X3834402D01*
X3737013Y5908126D02*
X3819542Y5825598D01*
X5461864Y5174378D02*
X5652500Y5365014D01*
X3683550Y3900000D02*
X3690000D01*
X3820000Y3770000D01*
X4343138D01*
X3168862Y4106138D02*
Y4155040D01*
X3154500Y4091775D02*
X3168862Y4106138D01*
X3195801Y4075801D02*
Y4121500D01*
X3195000Y4075000D02*
X3195801Y4075801D01*
X3154500Y3375500D02*
Y4091775D01*
X3287500Y4020731D02*
Y4232587D01*
X3221000Y4030000D02*
X3235500Y4044500D01*
Y4182448D01*
X3162612Y4255336D02*
X3235500Y4182448D01*
X3247000Y3952961D02*
Y4017000D01*
X3221000Y3963731D02*
Y4030000D01*
X3182958Y4337130D02*
X3287500Y4232587D01*
X3273000Y3942192D02*
Y4006231D01*
X3247000Y4017000D02*
X3261500Y4031500D01*
Y4193217D01*
X3273000Y4006231D02*
X3287500Y4020731D01*
X3207662Y4247054D02*
X3261500Y4193217D01*
X3513698Y4112802D02*
X3570000Y4056500D01*
X3058000Y4265903D02*
X3168862Y4155040D01*
X3880000Y4410000D02*
X4485912D01*
X4690000Y4614088D01*
X3880000Y4355000D02*
X4467681D01*
X4716000Y4603319D01*
X3885955Y4200000D02*
X5124551D01*
X3714500Y4371455D02*
X3885955Y4200000D01*
X3740500Y4382225D02*
X3882225Y4240500D01*
X3740500Y4382225D02*
Y4626656D01*
X3882225Y4240500D02*
X5235270D01*
X4449450Y4300000D02*
X4756500Y4607050D01*
X3880000Y4300000D02*
X4449450D01*
X3714500Y4371455D02*
Y4637425D01*
X6960731Y3528455D02*
X7180000Y3747725D01*
X6741545Y3528455D02*
X6960731D01*
X7180000Y3747725D02*
Y3917500D01*
X6200000Y4425000D02*
X6250000Y4475000D01*
X3600000Y6970000D02*
Y7233231D01*
X3547978Y7227978D02*
X3550000Y7225955D01*
Y6700000D02*
Y7225955D01*
X3283231Y7550000D02*
X3600000Y7233231D01*
X3450000Y7493922D02*
X3715200Y7228722D01*
Y6980878D02*
X3941278Y6754800D01*
X3663200Y6959339D02*
X3867758Y6754781D01*
X3689200Y6970108D02*
Y7217953D01*
X3715200Y6980878D02*
Y7228722D01*
X3663200Y6959339D02*
Y7206800D01*
X3689200Y6970108D02*
X3886233Y6773076D01*
X3634060Y7235940D02*
X3663200Y7206800D01*
X3424000Y7483153D02*
X3689200Y7217953D01*
X3064000Y7806000D02*
X3634060Y7235940D01*
X2820000Y7550000D02*
X3283231D01*
X3380000Y6796461D02*
Y7020000D01*
X3802862Y6491517D02*
X3857048Y6437332D01*
X3805048Y6284344D02*
Y6415793D01*
X3747713Y6465517D02*
X3792093D01*
X3831048Y6382183D02*
Y6426562D01*
X3792093Y6465517D02*
X3831048Y6426562D01*
X3370000Y5710000D02*
Y5849296D01*
X3380000Y6796461D02*
X3736944Y6439517D01*
X3524000Y6689231D02*
X3747713Y6465517D01*
X3831048Y6382183D02*
X3918747Y6294483D01*
X3550000Y6700000D02*
X3758483Y6491517D01*
X3781324Y6439517D02*
X3805048Y6415793D01*
X3857048Y6392952D02*
X3929517Y6320483D01*
X3370000Y5849296D02*
X3805048Y6284344D01*
X3857048Y6392952D02*
Y6437332D01*
X3736944Y6439517D02*
X3781324D01*
X3758483Y6491517D02*
X3802862D01*
X2770000Y6870000D02*
X3240983Y6399017D01*
X2770000Y6870000D02*
Y7809591D01*
X3240983Y6399017D02*
X3764548D01*
X3524000Y6689231D02*
Y7056000D01*
X3929517Y6320483D02*
X3931528D01*
X3970484Y6281528D01*
X3920759Y6294483D02*
X3944484Y6270759D01*
X3918747Y6294483D02*
X3920759D01*
X3970484Y6279517D02*
Y6281528D01*
X3944484Y5765517D02*
Y6270759D01*
X3970484Y6279517D02*
X4147500Y6102500D01*
X3352000Y5625000D02*
X3399500D01*
X3593000Y4261189D02*
Y4591462D01*
X3480400Y4702699D02*
X3481763D01*
X3402087Y5497412D02*
X3431173D01*
X3399500Y5500000D02*
X3402087Y5497412D01*
X3481763Y4702699D02*
X3593000Y4591462D01*
X3253500Y5723500D02*
X3352000Y5625000D01*
X3431173Y5497412D02*
X3740500Y5188086D01*
Y4813044D02*
Y5188086D01*
X2816263Y5450000D02*
X3441817D01*
X3710000Y5181817D01*
Y4806774D02*
Y5181817D01*
X3513698Y4112802D02*
Y4149431D01*
X3462945Y4200184D02*
X3513698Y4149431D01*
X3480549Y4019451D02*
X3498273D01*
X3600724Y4005129D02*
X3648627D01*
X3434005Y4200184D02*
X3462945D01*
X3589854Y4016000D02*
X3600724Y4005129D01*
X3475000Y4025000D02*
X3480549Y4019451D01*
X3501725Y4016000D02*
X3589854D01*
X3498273Y4019451D02*
X3501725Y4016000D01*
X5951791Y3688500D02*
X6207961D01*
X5928107Y3648000D02*
X6298725D01*
X5854015Y3722092D02*
X5928107Y3648000D01*
X6207961Y3688500D02*
X6222461Y3674000D01*
X6330000Y4000000D02*
X6431138Y3898862D01*
Y3691138D02*
Y3898862D01*
X6382138Y3642138D02*
X6431138Y3691138D01*
X6371369Y3668138D02*
X6405138Y3701907D01*
Y3882138D01*
X6327776Y3959500D02*
X6405138Y3882138D01*
X6315356Y3668138D02*
X6371369D01*
X6333089Y3703089D02*
X6338638Y3708638D01*
X6303226Y3703089D02*
X6333089D01*
X6298725Y3648000D02*
X6304587Y3642138D01*
X6309494Y3674000D02*
X6315356Y3668138D01*
X6304587Y3642138D02*
X6382138D01*
X6222461Y3674000D02*
X6309494D01*
X5787908Y3722092D02*
X5854015D01*
X5719500Y3790500D02*
X5787908Y3722092D01*
X6192500Y3847500D02*
X6288867Y3751134D01*
X6270000Y3700000D02*
X6300137D01*
X6303226Y3703089D01*
X6170449Y3496000D02*
X6281949Y3607500D01*
X6288867Y3751134D02*
X6290393D01*
X5938724Y3496000D02*
X6170449D01*
X6148500Y3821500D02*
X6270000Y3700000D01*
X6276770Y3800000D02*
X6330000D01*
X6203270Y3873500D02*
X6276770Y3800000D01*
X4363638Y3790500D02*
X5719500D01*
X4343138Y3770000D02*
X4363638Y3790500D01*
X3648627Y4005129D02*
X3658000Y4014502D01*
Y4196189D01*
X3593000Y4261189D02*
X3658000Y4196189D01*
X3377165Y4025000D02*
X3475000D01*
X7279500Y5867250D02*
X7477223Y5669527D01*
X5581539Y3982000D02*
X5690039Y3873500D01*
X6203270D01*
X5560000Y3930000D02*
X5668500Y3821500D01*
X6148500D01*
X5679270Y3847500D02*
X6192500D01*
X5711578Y3925500D02*
X6224808D01*
X5570769Y3956000D02*
X5679270Y3847500D01*
X5603077Y4034000D02*
X5711578Y3925500D01*
X5700808Y3899500D02*
X6214039D01*
X5592308Y4008000D02*
X5700808Y3899500D01*
X5945725Y3959500D02*
X6327776D01*
X5768263Y4136961D02*
X5945725Y3959500D01*
X5554462Y4136961D02*
X5768263D01*
X5461864Y4229560D02*
X5554462Y4136961D01*
X5461864Y4229560D02*
Y5174378D01*
X5541308Y4008000D02*
X5592308D01*
X5519770Y3956000D02*
X5570769D01*
X5552078Y4034000D02*
X5603077D01*
X5394551Y3930000D02*
X5560000D01*
X5530539Y3982000D02*
X5581539D01*
X5560000Y4210000D02*
X5660000D01*
X5800000Y4350000D01*
X3559264Y4762458D02*
Y4871790D01*
X4147500Y5540500D02*
Y6102500D01*
Y5459500D02*
X4163995D01*
X4187720Y5483224D01*
Y5516775D01*
X4163995Y5540500D02*
X4187720Y5516775D01*
X4147500Y5275000D02*
Y5459500D01*
Y5540500D02*
X4163995D01*
X7224500Y7560000D02*
Y8189549D01*
X7088049Y8326000D02*
X7224500Y8189549D01*
X7131126Y8430000D02*
X7331500Y8229626D01*
X3099283Y8430000D02*
X7131126D01*
X3142360Y8326000D02*
X7088049D01*
X3120822Y8378000D02*
X7109588D01*
X3110052Y8404000D02*
X7120357D01*
X3131591Y8352000D02*
X7098818D01*
X7120357Y8404000D02*
X7305500Y8218857D01*
X2811591Y8032000D02*
X3131591Y8352000D01*
X2800822Y8058000D02*
X3120822Y8378000D01*
X2779283Y8110000D02*
X3099283Y8430000D01*
X7109588Y8378000D02*
X7279500Y8208087D01*
X2790052Y8084000D02*
X3110052Y8404000D01*
X2822360Y8006000D02*
X3142360Y8326000D01*
X2785591Y8006000D02*
X2822360D01*
X2774822Y8032000D02*
X2811591D01*
X2753283Y8084000D02*
X2790052D01*
X2764052Y8058000D02*
X2800822D01*
X2640000Y7792513D02*
X2655696Y7776817D01*
X2640000Y8007486D02*
X2650796Y8018282D01*
X2666000Y7803283D02*
X2681696Y7787587D01*
X2692000Y7814052D02*
X2707696Y7798356D01*
X2681696Y6811696D02*
Y7787587D01*
X2692000Y7985948D02*
X2702796Y7996743D01*
X2666000Y7996717D02*
X2676796Y8007513D01*
X2718000Y7824822D02*
X2744000Y7798822D01*
X2666000Y7803283D02*
Y7996717D01*
X2718000Y7975178D02*
X2728796Y7985974D01*
X2744000Y7964409D02*
X2785591Y8006000D01*
X2692000Y7814052D02*
Y7985948D01*
X2744000Y7835591D02*
Y7964409D01*
X2640000Y7792513D02*
Y8007486D01*
X2707696Y6789198D02*
Y7798356D01*
X2655696Y7118198D02*
Y7776817D01*
X2744000Y7835591D02*
X2770000Y7809591D01*
X2744000Y6520045D02*
Y7798822D01*
X2718000Y7824822D02*
Y7975178D01*
X2728796Y7985974D02*
X2774822Y8032000D01*
X2650796Y8018282D02*
X2742514Y8110000D01*
X2702796Y7996743D02*
X2764052Y8058000D01*
X2676796Y8007513D02*
X2753283Y8084000D01*
X2742514Y8110000D02*
X2779283D01*
X7331500Y6798500D02*
Y8229626D01*
X7305500Y6787731D02*
Y8218857D01*
Y6787731D02*
X7395362Y6697868D01*
X7510005Y6627505D02*
X7542500Y6595010D01*
X7331500Y6798500D02*
X7502495Y6627505D01*
X7510005D01*
X7395362Y6513638D02*
Y6697868D01*
X7205549Y7541049D02*
X7224500Y7560000D01*
X7205549Y7505549D02*
Y7541049D01*
X7200000Y7500000D02*
X7205549Y7505549D01*
X3253500Y5723500D02*
Y6010545D01*
X2744000Y6520045D02*
X3253500Y6010545D01*
X3162500Y5752000D02*
X3227500Y5817000D01*
X2577999Y6649277D02*
X3227500Y5999775D01*
X3164000Y5948939D02*
Y6006000D01*
X3227500Y5817000D02*
Y5999775D01*
X2625459Y6764236D02*
X2634236D01*
X2577999Y6649277D02*
Y6716775D01*
X2634236Y6764236D02*
X2681696Y6811696D01*
X2618499Y6700000D02*
X2707696Y6789198D01*
X2577999Y6716775D02*
X2625459Y6764236D01*
X2618499Y7081000D02*
X2655696Y7118198D01*
X7460000Y6497275D02*
X7496225Y6533500D01*
X7460000Y6450000D02*
Y6497275D01*
X7507023Y6487023D02*
X7542500Y6522500D01*
X7399000Y6434231D02*
Y6510000D01*
Y6434231D02*
X7435000Y6398231D01*
X7320000Y6570000D02*
X7369362Y6520638D01*
X7395362Y6513638D02*
X7399000Y6510000D01*
X7434000Y6436000D02*
Y6528551D01*
X7435000Y6279500D02*
Y6398231D01*
X7434000Y6528551D02*
X7435862Y6530413D01*
X7373000Y5877153D02*
X7427500Y5822653D01*
Y5776526D02*
Y5822653D01*
X3164000Y5948939D02*
X3201500Y5911439D01*
Y5861500D02*
Y5911439D01*
X7542500Y6522500D02*
Y6595010D01*
X7496225Y6573807D02*
X7501326Y6578908D01*
X7503638Y6683638D02*
X7697500Y6877500D01*
X7496225Y6533500D02*
Y6573807D01*
X3170000Y5830000D02*
X3201500Y5861500D01*
X2749000Y5879000D02*
X3161000D01*
X2750000Y5830000D02*
X3170000D01*
X2680000Y5760000D02*
X2750000Y5830000D01*
X2650000Y5780000D02*
X2749000Y5879000D01*
X2680000Y5549494D02*
X2863351Y5366142D01*
X2680000Y5549494D02*
Y5760000D01*
X3518811Y5032000D02*
X3568000Y4982811D01*
X3470000Y5069189D02*
Y5080811D01*
X3568000Y4880526D02*
Y4982811D01*
X3251829Y5142000D02*
X3408811D01*
X2863351Y5366142D02*
X3027687D01*
X3251829Y5142000D01*
X2852582Y5340142D02*
X3016918D01*
X3559264Y4871790D02*
X3568000Y4880526D01*
X3470000Y5069189D02*
X3507189Y5032000D01*
X3016918Y5340142D02*
X3285000Y5072060D01*
X3507189Y5032000D02*
X3518811D01*
X3408811Y5142000D02*
X3470000Y5080811D01*
X2760000Y5506263D02*
Y5560500D01*
Y5506263D02*
X2816263Y5450000D01*
X2650000Y5542724D02*
X2852582Y5340142D01*
X2650000Y5542724D02*
Y5780000D01*
X3285000Y4349189D02*
Y5072060D01*
X3246021Y4605713D02*
Y5038024D01*
X3102191Y5138040D02*
X3146005D01*
X3136021Y5089724D02*
X3157551D01*
X3220021Y4616482D02*
Y5027255D01*
X3130473Y5095273D02*
X3136021Y5089724D01*
X3099505Y5140726D02*
X3102191Y5138040D01*
X3157551Y5089724D02*
X3220021Y5027255D01*
X3146005Y5138040D02*
X3246021Y5038024D01*
X3285000Y4349189D02*
X3434005Y4200184D01*
X5800000Y4370000D02*
X6050000Y4620000D01*
X4756500Y4607050D02*
Y5688267D01*
X5800000Y4350000D02*
Y4370000D01*
X5063661Y6702800D02*
X5379164Y6387298D01*
X3941278Y6754800D02*
X5085200D01*
X3930508Y6728800D02*
X5074431D01*
X3919739Y6702800D02*
X5063661D01*
X5074431Y6728800D02*
X5405164Y6398067D01*
X5085200Y6754800D02*
X5431164Y6408836D01*
X3867758Y6754781D02*
X3919739Y6702800D01*
X3886232Y6773076D02*
X3930508Y6728800D01*
X5379164Y4133375D02*
Y6387298D01*
X5405164Y4144145D02*
Y6398067D01*
X5431164Y4154914D02*
Y6408836D01*
X5710000Y3110308D02*
Y3267275D01*
X5647692Y3048000D02*
X5710000Y3110308D01*
Y3267275D02*
X5938724Y3496000D01*
X3299000Y3946835D02*
X3377165Y4025000D01*
X3299000Y3931423D02*
Y3946835D01*
X3284500Y3916923D02*
X3299000Y3931423D01*
X3284500Y3429346D02*
Y3916923D01*
Y3429346D02*
X3369147Y3344700D01*
X4668354D01*
X4835054Y3178000D01*
X4942308D01*
X5072308Y3048000D01*
X5647692D01*
X5905549Y3368108D02*
X6007441Y3470000D01*
X6552275D01*
X5124551Y4200000D02*
X5394551Y3930000D01*
X5235270Y4240500D02*
X5519770Y3956000D01*
X3710000Y4806774D02*
X3740500Y4776274D01*
Y4813044D02*
X3766500Y4787044D01*
X3740500Y4626656D02*
X3766500Y4652656D01*
Y4787044D01*
X3714500Y4637425D02*
X3740500Y4663425D01*
Y4776274D01*
X5431164Y4154914D02*
X5552078Y4034000D01*
X5405164Y4144145D02*
X5541308Y4008000D01*
X5379164Y4133375D02*
X5530539Y3982000D01*
X6224808Y3925500D02*
X6250308Y3900000D01*
X6214039Y3899500D02*
X6239539Y3874000D01*
X4690000Y4614088D02*
Y6520000D01*
X4716000Y4603319D02*
Y5705042D01*
X4560000Y6650000D02*
X4690000Y6520000D01*
X4716000Y5705042D02*
X4730500Y5719542D01*
X4510000Y6650000D02*
X4560000D01*
X6258153Y3874000D02*
X6282153Y3850000D01*
X6250308Y3900000D02*
X6330000D01*
X6282153Y3850000D02*
X6290000D01*
X6239539Y3874000D02*
X6258153D01*
X3064000Y7806000D02*
Y7886000D01*
X3050000Y7900000D02*
X3064000Y7886000D01*
X3450000Y7493922D02*
Y7900000D01*
X3424000Y7483153D02*
Y7726000D01*
X3250000Y7900000D02*
X3424000Y7726000D01*
X3944484Y5765517D02*
X4020000Y5690000D01*
X3372000Y7208000D02*
X3524000Y7056000D01*
X6205304Y3325000D02*
X6230304Y3300000D01*
X6200000Y3325000D02*
X6205304D01*
X6250000Y3350000D02*
X8010000D01*
X6600000Y4050000D02*
X6920314Y4370314D01*
X4065775Y5136000D02*
X4220000Y5290225D01*
Y6210000D01*
X3896724Y5136000D02*
X4065775D01*
X3820000Y5212725D02*
Y5310000D01*
Y5212725D02*
X3896724Y5136000D01*
X3911382Y5257561D02*
Y5748618D01*
X3740000Y5810000D02*
X3870882Y5679118D01*
Y5289118D02*
Y5679118D01*
X3900000Y5246180D02*
X3911382Y5257561D01*
X3900000Y5190000D02*
Y5246180D01*
X4730500Y5719542D02*
Y5825000D01*
X3207662Y4247054D02*
Y4267561D01*
X3084000Y4276672D02*
Y4517230D01*
X3155210Y4205463D02*
X3175716D01*
X3058000Y4265903D02*
Y4327101D01*
X3195801Y4121500D02*
X3208814Y4134513D01*
X3175716Y4205463D02*
X3208814Y4172365D01*
X3084000Y4276672D02*
X3155210Y4205463D01*
X3208814Y4134513D02*
Y4172365D01*
X3166975Y4295836D02*
X3179387D01*
X3207662Y4267561D01*
X3142458Y4320354D02*
X3166975Y4295836D01*
X3142458Y4320354D02*
Y4502149D01*
X3232500Y3407808D02*
X3347608Y3292700D01*
X3206500Y3397038D02*
X3336839Y3266700D01*
X3258500Y3927692D02*
X3273000Y3942192D01*
X3258500Y3418577D02*
Y3927692D01*
Y3418577D02*
X3358377Y3318700D01*
X4657585D01*
X4824284Y3152000D01*
X4931539D01*
X5061539Y3022000D01*
X5658461D01*
X5820615Y3184154D01*
Y3259386D01*
X5790001Y3290000D02*
X5820615Y3259386D01*
X5790000Y3290000D02*
X5790001D01*
X5050770Y2996000D02*
X5669230D01*
X5022769Y2944000D02*
X5694000D01*
X5012000Y2918000D02*
X5708000D01*
X5040000Y2970000D02*
X5680000D01*
X3142458Y4502149D02*
X3246021Y4605713D01*
X3110000Y4307948D02*
Y4506461D01*
Y4307948D02*
X3162612Y4255336D01*
X3058000Y4528000D02*
X3082500Y4552500D01*
X3058000Y4327101D02*
Y4528000D01*
X3110000Y4506461D02*
X3220021Y4616482D01*
X3084000Y4517230D02*
X3194021Y4627251D01*
X3082500Y4552500D02*
X3140000Y4610000D01*
X5846615Y3346615D02*
X5850000Y3350000D01*
X5846615Y3173385D02*
Y3346615D01*
X5669230Y2996000D02*
X5846615Y3173385D01*
X4920770Y3126000D02*
X5050770Y2996000D01*
X4813515Y3126000D02*
X4920770D01*
X4646815Y3292700D02*
X4813515Y3126000D01*
X3347608Y3292700D02*
X4646815D01*
X3232500Y3407808D02*
Y3938461D01*
X3247000Y3952961D01*
X3206500Y3949231D02*
X3221000Y3963731D01*
X3206500Y3397038D02*
Y3949231D01*
X5900000Y3325000D02*
X5905549Y3330549D01*
X5900000Y3190000D02*
Y3325000D01*
X5905549Y3330549D02*
Y3368108D01*
X6230304Y3300000D02*
X7996769D01*
X8487700Y3790930D01*
X8461700Y3801700D02*
Y5108300D01*
X7697500Y6877500D02*
X8011397D01*
X8487700Y3790930D02*
Y6401197D01*
X8010000Y3350000D02*
X8461700Y3801700D01*
X8011397Y6877500D02*
X8487700Y6401197D01*
X6691500Y3645994D02*
X7029506Y3984000D01*
X7583920Y4010000D02*
X7603920Y3990000D01*
X7593151Y3964000D02*
X8030462D01*
X8019692Y3990000D02*
X8383700Y4354008D01*
X8030462Y3964000D02*
X8409700Y4343238D01*
X7603920Y3990000D02*
X8019692D01*
X7029506Y3984000D02*
X7573151D01*
X6665500Y3656763D02*
X7018737Y4010000D01*
X7103225Y3958000D02*
X7562382D01*
X7582382Y3938000D01*
X7062949Y3917724D02*
X7103225Y3958000D01*
X7120000Y3917500D02*
X7125000Y3912500D01*
X7582382Y3938000D02*
X8041231D01*
X7573151Y3984000D02*
X7593151Y3964000D01*
X6717500Y3635224D02*
X7000000Y3917724D01*
X7062949D01*
X8041231Y3938000D02*
X8435700Y4332469D01*
X7125000Y3789500D02*
Y3912500D01*
Y3789500D02*
X7130000Y3784500D01*
X7018737Y4010000D02*
X7583920D01*
X8435700Y4332469D02*
Y5097531D01*
X8383700Y4354008D02*
Y5075992D01*
X8409700Y4343238D02*
Y5086761D01*
X8022500Y5547500D02*
X8461700Y5108300D01*
X8022500Y5547500D02*
Y5668311D01*
X7874000Y5805189D02*
Y5816811D01*
X7732811Y5958000D02*
X7782000Y5908811D01*
X7654829Y5958000D02*
X7732811D01*
X7586329Y5889500D02*
X7654829Y5958000D01*
X7782000Y5897189D02*
X7819189Y5860000D01*
X7874000Y5805189D02*
X7920189Y5759000D01*
X7931811D02*
X8022500Y5668311D01*
X7819189Y5860000D02*
X7830811D01*
X7920189Y5759000D02*
X7931811D01*
X7782000Y5897189D02*
Y5908811D01*
X7830811Y5860000D02*
X7874000Y5816811D01*
X7528000Y5848000D02*
X7732811D01*
X7781890Y5798920D01*
X7842592Y5738218D02*
X7891626Y5689185D01*
X7940566Y5628623D02*
X7947685D01*
X7996500Y5579808D01*
X7949539Y5590000D02*
X7970500Y5569039D01*
X7830970Y5738218D02*
X7842592D01*
X7781890Y5787298D02*
X7830970Y5738218D01*
X7858419Y5564000D02*
X7895692D01*
X7996500Y5536731D02*
Y5579808D01*
X7869189Y5590000D02*
X7949539D01*
X7970500Y5525961D02*
X8409700Y5086761D01*
X7895692Y5564000D02*
X8383700Y5075992D01*
X7996500Y5536731D02*
X8435700Y5097531D01*
X7891626Y5677563D02*
X7940566Y5628623D01*
X7891626Y5677563D02*
Y5689185D01*
X7781890Y5787298D02*
Y5798920D01*
X7970500Y5525961D02*
Y5569039D01*
X6057331Y3418000D02*
X6573814D01*
X6038717Y3444000D02*
X6563045D01*
X7413500Y5950269D02*
X7475500Y6012269D01*
Y6394500D01*
X7439500Y5893225D02*
X7479500Y5853225D01*
Y5833671D02*
Y5853225D01*
X7413500Y5882455D02*
X7453500Y5842456D01*
X7494000Y5811323D02*
Y5819170D01*
X7479500Y5833671D02*
X7494000Y5819170D01*
X7453500Y5794069D02*
Y5842456D01*
X7439500Y5939500D02*
X7501500Y6001500D01*
X7478069Y5769500D02*
X7483952D01*
X7503354Y5750098D02*
Y5756646D01*
X7521564Y5719231D02*
Y5731888D01*
X7483952Y5769500D02*
X7496203Y5757249D01*
X7503354Y5750098D02*
X7521564Y5731888D01*
X7526026Y5678000D02*
X7632000D01*
X7427500Y5776526D02*
X7526026Y5678000D01*
X7496203Y5757249D02*
X7504050D01*
X7434000Y6436000D02*
X7475500Y6394500D01*
X7501500Y6001500D02*
Y6408500D01*
X7460000Y6450000D02*
X7501500Y6408500D01*
X7439500Y5893225D02*
Y5939500D01*
X7632000Y5678000D02*
X7664800Y5645200D01*
X7617803Y5704000D02*
X7651803Y5738000D01*
X7521564Y5719231D02*
X7536795Y5704000D01*
X7617803D01*
X7651803Y5738000D02*
X7732811D01*
X7772595Y5698216D01*
Y5686594D02*
Y5698216D01*
X7494000Y5814000D02*
X7528000Y5848000D01*
X7453500Y5794069D02*
X7478069Y5769500D01*
X6563045Y3444000D02*
X6691500Y3572455D01*
X6552275Y3470000D02*
X6665500Y3583224D01*
X6573814Y3418000D02*
X6717500Y3561686D01*
X6691500Y3572455D02*
Y3645994D01*
X6665500Y3583224D02*
Y3656763D01*
X6005549Y3366218D02*
X6057331Y3418000D01*
X7777220Y5645200D02*
X7858419Y5564000D01*
X7772595Y5686594D02*
X7869189Y5590000D01*
X5947479Y3352762D02*
X6038717Y3444000D01*
X6717500Y3561686D02*
Y3635224D01*
X7664800Y5645200D02*
X7777220D01*
X6920314Y4370314D02*
X6933569D01*
X7850000Y4320812D02*
X7868708Y4346037D01*
X7850000Y4225000D02*
Y4320812D01*
X7846310Y4401986D02*
X7868708Y4379588D01*
X7822883Y4405082D02*
X7846310Y4401986D01*
X6933569Y4370314D02*
X7828208Y4362813D01*
X7868708Y4346037D02*
Y4379588D01*
X6914231Y4401000D02*
X7812208D01*
X6713231Y4200000D02*
X6914231Y4401000D01*
X6250000Y4475000D02*
X7650000D01*
X6005549Y3330549D02*
Y3366218D01*
X6000000Y3325000D02*
X6005549Y3330549D01*
X6350000Y4400000D02*
X6550000Y4200000D01*
X6713231D01*
X3194021Y4627251D02*
Y4945979D01*
X3140000Y4610000D02*
Y4786579D01*
X3143421Y4790000D01*
X3160000Y4980000D02*
X3194021Y4945979D01*
X5680000Y2970000D02*
X5900000Y3190000D01*
X5708000Y2918000D02*
X6000000Y3210000D01*
X5694000Y2944000D02*
X5947479Y3197478D01*
X4910000Y3100000D02*
X5040000Y2970000D01*
X4892769Y3074000D02*
X5022769Y2944000D01*
X4882000Y3048000D02*
X5012000Y2918000D01*
X4625276Y3240700D02*
X4791976Y3074000D01*
X4892769D01*
X4612560Y3210000D02*
X4774560Y3048000D01*
X4636046Y3266700D02*
X4802746Y3100000D01*
X4910000D01*
X4774560Y3048000D02*
X4882000D01*
X6000000Y3210000D02*
Y3325000D01*
X5947479Y3197478D02*
Y3352762D01*
X3336839Y3266700D02*
X4636046D01*
X3180500Y3960000D02*
X3195000Y3974500D01*
X3326069Y3240700D02*
X4625276D01*
X3180500Y3386269D02*
X3326069Y3240700D01*
X3180500Y3386269D02*
Y3960000D01*
X3154500Y3375500D02*
X3320000Y3210000D01*
X4612560D01*
D42*
X7650000Y7900000D02*
D03*
X7850000D02*
D03*
X8050000D02*
D03*
X8250000D02*
D03*
X3050000D02*
D03*
X3250000D02*
D03*
X3450000D02*
D03*
X3650000D02*
D03*
X7225000Y3175000D02*
D03*
X7425000D02*
D03*
X7025000D02*
D03*
D43*
X7450000Y7900000D02*
D03*
X2850000D02*
D03*
X7625000Y3175000D02*
D03*
D44*
X4225000Y2850000D02*
D03*
Y4800000D02*
D03*
D45*
X3475000Y3850000D02*
D03*
X6250000Y7200000D02*
D03*
X4350000D02*
D03*
D46*
X3775000Y2850000D02*
D03*
X2675000D02*
D03*
X5950000Y8200000D02*
D03*
X7050000D02*
D03*
X4050000D02*
D03*
X5150000D02*
D03*
D47*
X2975000Y3850000D02*
D03*
X6750000Y7200000D02*
D03*
X4850000D02*
D03*
D48*
X3575000Y2850000D02*
D03*
X3400000D02*
D03*
X3225000D02*
D03*
X3050000D02*
D03*
X2875000D02*
D03*
X4200000Y3425000D02*
D03*
X4550000D02*
D03*
X4375000D02*
D03*
Y3900000D02*
D03*
Y3650000D02*
D03*
X4200000D02*
D03*
X4675000D02*
D03*
X4550000D02*
D03*
X4675000Y3900000D02*
D03*
X4550000D02*
D03*
X4160000Y3910000D02*
D03*
X7893650Y6185552D02*
D03*
X6650000Y6220000D02*
D03*
X7800000Y6940000D02*
D03*
X7850000D02*
D03*
X8000000Y6280000D02*
D03*
X4826000Y4920000D02*
D03*
X7400000Y4075000D02*
D03*
X7100000D02*
D03*
X7175000Y4100000D02*
D03*
X6980731Y4625838D02*
D03*
X7050838D02*
D03*
X6830731D02*
D03*
X6900838D02*
D03*
X6761675Y4637500D02*
D03*
X6691568D02*
D03*
X7100000Y5075000D02*
D03*
X7000000D02*
D03*
X7100000Y5150000D02*
D03*
X7000000D02*
D03*
X6800000Y5075000D02*
D03*
Y5150000D02*
D03*
X6700000D02*
D03*
D49*
X5307696Y3959579D02*
D03*
X6388570Y4695750D02*
D03*
X7700000Y6278452D02*
D03*
X7882196Y6287500D02*
D03*
X7764790D02*
D03*
X7825000Y6292500D02*
D03*
X7205000Y6155000D02*
D03*
X7480112Y5915659D02*
D03*
X7715000Y5915000D02*
D03*
X7825000D02*
D03*
X7935000D02*
D03*
X7715000Y5805000D02*
D03*
X7825000D02*
D03*
X7935000D02*
D03*
X7715000Y5695000D02*
D03*
X7825000D02*
D03*
X7935000D02*
D03*
X7247500Y5720000D02*
D03*
X7373000Y5885000D02*
D03*
X7536097Y5930000D02*
D03*
X3140000Y6830000D02*
D03*
X3737013Y5908126D02*
D03*
X3812600Y6040000D02*
D03*
X3903000D02*
D03*
X5652500Y5365014D02*
D03*
X3775000Y4000000D02*
D03*
X3683550Y3900000D02*
D03*
X3195000Y4065896D02*
D03*
X3168314Y4155589D02*
D03*
X3570000Y4056500D02*
D03*
X3475000Y4025000D02*
D03*
X4030700Y4459300D02*
D03*
X3880000Y4410000D02*
D03*
Y4355000D02*
D03*
Y4300000D02*
D03*
X5890743Y4397841D02*
D03*
X6001973Y4411973D02*
D03*
X6741545Y3528455D02*
D03*
X6625000Y3600000D02*
D03*
X6200000Y4425000D02*
D03*
X6151405Y4398742D02*
D03*
X7990000Y4810000D02*
D03*
X3635000Y4965000D02*
D03*
X3525000D02*
D03*
X3415000D02*
D03*
X3635000Y5075000D02*
D03*
X3525000D02*
D03*
X3415000D02*
D03*
X3635000Y5185000D02*
D03*
X3525000D02*
D03*
X3415000D02*
D03*
X3600000Y6970000D02*
D03*
X3547978Y7227978D02*
D03*
X2820000Y7550000D02*
D03*
X3903984Y6253983D02*
D03*
X3370000Y5710000D02*
D03*
X3399500Y5625000D02*
D03*
X3480500Y4646687D02*
D03*
X3480400Y4702699D02*
D03*
X3399500Y5381820D02*
D03*
Y5500000D02*
D03*
X5951791Y3688500D02*
D03*
X6338638Y3708638D02*
D03*
X6290393Y3751134D02*
D03*
X6281949Y3607500D02*
D03*
X3504265Y4754961D02*
D03*
X6330000Y4000000D02*
D03*
X6565000Y6192275D02*
D03*
X6511938Y6177801D02*
D03*
X7370000Y5710000D02*
D03*
X7750000Y5455000D02*
D03*
X5925000Y3781000D02*
D03*
X5560000Y4210000D02*
D03*
X3561400Y4707500D02*
D03*
X3559264Y4762458D02*
D03*
X3812135Y4856667D02*
D03*
X4147220Y5500000D02*
D03*
X5347500Y8267500D02*
D03*
X3764548Y6399017D02*
D03*
X7200000Y7500000D02*
D03*
X3164000Y6006000D02*
D03*
X2618499Y6700000D02*
D03*
X2609500Y6830000D02*
D03*
X7507023Y6487023D02*
D03*
X7435862Y6530413D02*
D03*
X7435000Y6279500D02*
D03*
X2615196Y7208000D02*
D03*
X7320000Y6570000D02*
D03*
X2618499Y7081000D02*
D03*
Y6950000D02*
D03*
X7503638Y6683638D02*
D03*
X7501326Y6578908D02*
D03*
X3161000Y5879000D02*
D03*
X3162500Y5752000D02*
D03*
X2760000Y5560500D02*
D03*
X3150000Y5040000D02*
D03*
X5939120Y4182500D02*
D03*
X4756500Y5688267D02*
D03*
X6055549Y4431726D02*
D03*
X6110424Y4435424D02*
D03*
X3960000Y6800000D02*
D03*
X5665500Y5915500D02*
D03*
X4852300Y6932700D02*
D03*
X5550000Y3600000D02*
D03*
X4025000Y4159500D02*
D03*
X3700000Y4759499D02*
D03*
X5533862Y3883862D02*
D03*
X4510000Y6650000D02*
D03*
X3920000Y6620000D02*
D03*
X5812500Y4150000D02*
D03*
X6290000Y3850000D02*
D03*
X6250000Y3350000D02*
D03*
X6200000Y3325000D02*
D03*
X4950000Y2670000D02*
D03*
X3163000Y6567500D02*
D03*
X3160000Y6700500D02*
D03*
X5832022Y3772022D02*
D03*
X6330000Y3800000D02*
D03*
Y3900000D02*
D03*
X6600000Y4050000D02*
D03*
Y3950000D02*
D03*
X6050000Y4620000D02*
D03*
X4220000Y6210000D02*
D03*
X4147500Y5275000D02*
D03*
X4020000Y5690000D02*
D03*
X3825000Y5645000D02*
D03*
X3740000Y5810000D02*
D03*
X3900000Y5190000D02*
D03*
X3870882Y5289118D02*
D03*
X3820000Y5310000D02*
D03*
X4730500Y5825000D02*
D03*
X3162612Y4255336D02*
D03*
X3328000Y4060000D02*
D03*
X5790000Y3290000D02*
D03*
X6100000Y3325000D02*
D03*
X3182958Y4337130D02*
D03*
X5525000Y3650000D02*
D03*
X3372000Y7208000D02*
D03*
X6000000Y3325000D02*
D03*
X5947479Y3352762D02*
D03*
X5900000Y3325000D02*
D03*
X7120000Y3917500D02*
D03*
X7130000Y3784500D02*
D03*
X8063000Y5582272D02*
D03*
X6430000Y3212070D02*
D03*
X8145955Y5883231D02*
D03*
X7504050Y5757249D02*
D03*
X7494000Y5811323D02*
D03*
X7477223Y5669527D02*
D03*
X7856014Y5520500D02*
D03*
X7828208Y4362813D02*
D03*
X7850000Y4225000D02*
D03*
X7650000Y4475000D02*
D03*
X7180000Y3917500D02*
D03*
X6350000Y4400000D02*
D03*
X6250000D02*
D03*
X6300000Y4425000D02*
D03*
X8178916Y6475000D02*
D03*
X6410000Y6390500D02*
D03*
X6497500D02*
D03*
X6380000Y6740000D02*
D03*
X8148728Y5764326D02*
D03*
X6100000Y6230000D02*
D03*
X8169500Y5815253D02*
D03*
X8150000Y6580000D02*
D03*
X8178916Y6530000D02*
D03*
X7029500Y5659500D02*
D03*
X7800000Y5480000D02*
D03*
X3143421Y4790000D02*
D03*
X3153521Y4920000D02*
D03*
X5850000Y3350000D02*
D03*
X5190000Y4890000D02*
D03*
X5332500Y7702500D02*
D03*
X5550000Y7390000D02*
D03*
X3380000Y7020000D02*
D03*
X8150000Y6680000D02*
D03*
X8175000Y6630000D02*
D03*
X3099505Y5140726D02*
D03*
X3130473Y5095273D02*
D03*
X3160000Y4980000D02*
D03*
X3525000Y5075000D02*
D03*
X3675000Y5450000D02*
D03*
X3698298Y4678499D02*
D03*
X4850000Y3750000D02*
D03*
X5550000Y3700000D02*
D03*
X6048163Y3351557D02*
D03*
X7715000Y6715000D02*
D03*
X7825000D02*
D03*
X7935000D02*
D03*
X7715000Y6605000D02*
D03*
X7825000D02*
D03*
X7935000D02*
D03*
X7715000Y6495000D02*
D03*
X7825000D02*
D03*
X7935000D02*
D03*
X3440000Y4475000D02*
D03*
X3550000D02*
D03*
X3660000D02*
D03*
X3440000Y4365000D02*
D03*
X3550000D02*
D03*
X3660000D02*
D03*
X3440000Y4255000D02*
D03*
X3550000D02*
D03*
X3660000D02*
D03*
D50*
X2850000Y4950000D02*
D03*
X7975000Y7275000D02*
D03*
X8200000Y2850000D02*
D03*
D51*
X9519200Y2679611D02*
X9570000Y2527211D01*
X9620800Y2679611D01*
X9570000Y8527211D02*
X9620800Y8374811D01*
X9519200D02*
X9570000Y8527211D01*
Y2527211D02*
Y5090445D01*
Y5882696D02*
Y8527211D01*
X8165000Y2527211D02*
X9595400D01*
X8165000Y8527211D02*
X9595400D01*
X2550000Y9890000D02*
X2702400Y9940800D01*
X2550000Y9890000D02*
X2702400Y9839200D01*
X8397600D02*
X8550000Y9890000D01*
X8397600Y9940800D02*
X8550000Y9890000D01*
X2550000D02*
X5113235D01*
X5905485D02*
X8550000D01*
X2550000Y8525000D02*
Y9915400D01*
X8550000Y8525000D02*
Y9915400D01*
D52*
X9534456Y5232653D02*
X9559848Y5181869D01*
X9610632Y5131085D01*
X9661415D01*
X9686807Y5156477D01*
Y5207261D01*
X9661415Y5232653D01*
X9636023D01*
X9610632Y5207261D01*
Y5131085D01*
X9559848Y5283436D02*
X9534456Y5308828D01*
Y5359612D01*
X9559848Y5385003D01*
X9661415D01*
X9686807Y5359612D01*
Y5308828D01*
X9661415Y5283436D01*
X9559848D01*
X9712199Y5461179D02*
X9686807Y5486570D01*
X9661415D01*
Y5461179D01*
X9686807D01*
Y5486570D01*
X9712199Y5461179D01*
X9737590Y5435787D01*
X9559848Y5588138D02*
X9534456Y5613530D01*
Y5664313D01*
X9559848Y5689705D01*
X9661415D01*
X9686807Y5664313D01*
Y5613530D01*
X9661415Y5588138D01*
X9559848D01*
Y5740488D02*
X9534456Y5765880D01*
Y5816664D01*
X9559848Y5842056D01*
X9661415D01*
X9686807Y5816664D01*
Y5765880D01*
X9661415Y5740488D01*
X9559848D01*
X5255442Y9925544D02*
X5204658Y9900152D01*
X5153875Y9849368D01*
Y9798585D01*
X5179267Y9773193D01*
X5230050D01*
X5255442Y9798585D01*
Y9823977D01*
X5230050Y9849368D01*
X5153875D01*
X5306226Y9900152D02*
X5331617Y9925544D01*
X5382401D01*
X5407793Y9900152D01*
Y9798585D01*
X5382401Y9773193D01*
X5331617D01*
X5306226Y9798585D01*
Y9900152D01*
X5483968Y9747801D02*
X5509360Y9773193D01*
Y9798585D01*
X5483968D01*
Y9773193D01*
X5509360D01*
X5483968Y9747801D01*
X5458576Y9722410D01*
X5610927Y9900152D02*
X5636319Y9925544D01*
X5687102D01*
X5712494Y9900152D01*
Y9798585D01*
X5687102Y9773193D01*
X5636319D01*
X5610927Y9798585D01*
Y9900152D01*
X5763278D02*
X5788670Y9925544D01*
X5839453D01*
X5864845Y9900152D01*
Y9798585D01*
X5839453Y9773193D01*
X5788670D01*
X5763278Y9798585D01*
Y9900152D01*
%TF.MD5,0eb9b9d0a4e35c538e117956d3745b14*%
M02*
