%TF.GenerationSoftware,Altium Limited,Altium Designer,24.7.2 (38)*%
G04 Layer_Color=16711935*
%FSLAX45Y45*%
%MOMM*%
%TF.SameCoordinates,0E07C861-06C4-4886-B41C-83883A41DA48*%
%TF.FilePolarity,Negative*%
%TF.FileFunction,Soldermask,Bot*%
%TF.Part,Single*%
G01*
G75*
%TA.AperFunction,ViaPad*%
%ADD49C,0.45000*%
%TA.AperFunction,SMDPad,CuDef*%
%ADD83R,1.15000X1.10000*%
%ADD84R,1.10000X1.05000*%
%ADD85R,1.10000X1.15000*%
%ADD92R,3.45000X1.75000*%
%TA.AperFunction,ComponentPad*%
%ADD96C,1.50000*%
G04:AMPARAMS|DCode=97|XSize=1.5mm|YSize=1.5mm|CornerRadius=0.4mm|HoleSize=0mm|Usage=FLASHONLY|Rotation=0.000|XOffset=0mm|YOffset=0mm|HoleType=Round|Shape=RoundedRectangle|*
%AMROUNDEDRECTD97*
21,1,1.50000,0.70000,0,0,0.0*
21,1,0.70000,1.50000,0,0,0.0*
1,1,0.80000,0.35000,-0.35000*
1,1,0.80000,-0.35000,-0.35000*
1,1,0.80000,-0.35000,0.35000*
1,1,0.80000,0.35000,0.35000*
%
%ADD97ROUNDEDRECTD97*%
%ADD98R,6.10000X6.10000*%
G04:AMPARAMS|DCode=99|XSize=2.7mm|YSize=2.7mm|CornerRadius=0.7mm|HoleSize=0mm|Usage=FLASHONLY|Rotation=180.000|XOffset=0mm|YOffset=0mm|HoleType=Round|Shape=RoundedRectangle|*
%AMROUNDEDRECTD99*
21,1,2.70000,1.30000,0,0,180.0*
21,1,1.30000,2.70000,0,0,180.0*
1,1,1.40000,-0.65000,0.65000*
1,1,1.40000,0.65000,0.65000*
1,1,1.40000,0.65000,-0.65000*
1,1,1.40000,-0.65000,-0.65000*
%
%ADD99ROUNDEDRECTD99*%
%ADD100C,1.70000*%
%ADD101C,2.70000*%
%TA.AperFunction,ViaPad*%
%ADD102C,0.55000*%
%ADD103C,5.55000*%
%TA.AperFunction,SMDPad,CuDef*%
%ADD104O,1.60000X0.70000*%
%ADD105R,2.00000X1.60000*%
%ADD106R,5.70000X6.90000*%
%ADD107R,1.10000X3.10000*%
%ADD108R,1.60000X2.00000*%
%ADD109R,1.75000X3.45000*%
%ADD110O,0.70000X1.10000*%
%TA.AperFunction,Conductor*%
%ADD111C,2.60000*%
%ADD112C,2.10000*%
%ADD113C,1.90000*%
G36*
X5928480Y3664928D02*
X5929422Y3664642D01*
X5930291Y3664177D01*
X5931053Y3663553D01*
X5931677Y3662791D01*
X5932142Y3661923D01*
X5932428Y3660980D01*
X5932524Y3660000D01*
Y3540000D01*
X5932428Y3539020D01*
X5932142Y3538077D01*
X5931677Y3537209D01*
X5931053Y3536447D01*
X5930291Y3535822D01*
X5929422Y3535358D01*
X5928480Y3535072D01*
X5927500Y3534976D01*
X5757500D01*
X5756520Y3535072D01*
X5755577Y3535358D01*
X5754709Y3535822D01*
X5753947Y3536447D01*
X5753323Y3537209D01*
X5752858Y3538077D01*
X5752572Y3539020D01*
X5752476Y3540000D01*
Y3660000D01*
X5752572Y3660980D01*
X5752858Y3661923D01*
X5753323Y3662791D01*
X5753947Y3663553D01*
X5754709Y3664177D01*
X5755577Y3664642D01*
X5756520Y3664928D01*
X5757500Y3665024D01*
X5927500D01*
X5928480Y3664928D01*
D02*
G37*
G36*
X6198480D02*
X6199423Y3664642D01*
X6200291Y3664177D01*
X6201053Y3663553D01*
X6201677Y3662791D01*
X6202142Y3661923D01*
X6202428Y3660980D01*
X6202524Y3660000D01*
Y3540000D01*
X6202428Y3539020D01*
X6202142Y3538077D01*
X6201677Y3537209D01*
X6201053Y3536447D01*
X6200291Y3535822D01*
X6199423Y3535358D01*
X6198480Y3535072D01*
X6197500Y3534976D01*
X6028300D01*
X6027320Y3535072D01*
X6026377Y3535358D01*
X6025509Y3535822D01*
X6024747Y3536447D01*
X6024123Y3537209D01*
X6023658Y3538077D01*
X6023372Y3539020D01*
X6023276Y3540000D01*
Y3660000D01*
X6023372Y3660980D01*
X6023658Y3661923D01*
X6024123Y3662791D01*
X6024747Y3663553D01*
X6025509Y3664177D01*
X6026377Y3664642D01*
X6027320Y3664928D01*
X6028300Y3665024D01*
X6197500D01*
X6198480Y3664928D01*
D02*
G37*
D49*
X3575000Y2850000D02*
D03*
X3400000D02*
D03*
X3225000D02*
D03*
X3050000D02*
D03*
X2875000D02*
D03*
X4200000Y3425000D02*
D03*
X4550000D02*
D03*
X4375000D02*
D03*
Y3900000D02*
D03*
Y3650000D02*
D03*
X4200000D02*
D03*
X4675000D02*
D03*
X4550000D02*
D03*
X4675000Y3900000D02*
D03*
X4550000D02*
D03*
X4160000Y3910000D02*
D03*
X7893650Y6185552D02*
D03*
X6650000Y6220000D02*
D03*
X7800000Y6940000D02*
D03*
X7850000D02*
D03*
X8000000Y6280000D02*
D03*
X4826000Y4920000D02*
D03*
X7400000Y4075000D02*
D03*
X7100000D02*
D03*
X7175000Y4100000D02*
D03*
X6980731Y4625838D02*
D03*
X7050838D02*
D03*
X6830731D02*
D03*
X6900838D02*
D03*
X6761675Y4637500D02*
D03*
X6691568D02*
D03*
X7100000Y5075000D02*
D03*
X7000000D02*
D03*
X7100000Y5150000D02*
D03*
X7000000D02*
D03*
X6800000Y5075000D02*
D03*
Y5150000D02*
D03*
X6700000D02*
D03*
D83*
X6505000Y4530000D02*
D03*
X6355000D02*
D03*
X7725000Y5905000D02*
D03*
X7575000D02*
D03*
X3550000Y4625000D02*
D03*
X3700000D02*
D03*
X5840000Y4100000D02*
D03*
X5990000D02*
D03*
X5825000Y3800000D02*
D03*
X5975000D02*
D03*
D84*
X7880000Y4725000D02*
D03*
X8025000D02*
D03*
X5447500Y3900000D02*
D03*
X5302500D02*
D03*
X7555000Y4725000D02*
D03*
X7700000D02*
D03*
X4172500Y4000000D02*
D03*
X4027500D02*
D03*
X4172500Y4200000D02*
D03*
X4027500D02*
D03*
X7222500Y3000000D02*
D03*
X7077500D02*
D03*
X7427500D02*
D03*
X7572500D02*
D03*
D85*
X3675000Y4950000D02*
D03*
Y4800000D02*
D03*
X8325000Y4925000D02*
D03*
Y5075000D02*
D03*
X7975000Y6480000D02*
D03*
Y6330000D02*
D03*
X3700000Y4075000D02*
D03*
Y4225000D02*
D03*
X7975000Y5530000D02*
D03*
Y5680000D02*
D03*
X5175000Y5400000D02*
D03*
Y5550000D02*
D03*
D92*
X5550000Y7002500D02*
D03*
Y7597500D02*
D03*
X3700000Y6802500D02*
D03*
Y7397500D02*
D03*
D96*
X7650000Y7900000D02*
D03*
X7850000D02*
D03*
X8050000D02*
D03*
X8250000D02*
D03*
X3050000D02*
D03*
X3250000D02*
D03*
X3450000D02*
D03*
X3650000D02*
D03*
X7225000Y3175000D02*
D03*
X7425000D02*
D03*
X7025000D02*
D03*
D97*
X7450000Y7900000D02*
D03*
X2850000D02*
D03*
X7625000Y3175000D02*
D03*
D98*
X4225000Y2850000D02*
D03*
Y4800000D02*
D03*
D99*
X3475000Y3850000D02*
D03*
X6250000Y7200000D02*
D03*
X4350000D02*
D03*
D100*
X3775000Y2850000D02*
D03*
X2675000D02*
D03*
X5950000Y8200000D02*
D03*
X7050000D02*
D03*
X4050000D02*
D03*
X5150000D02*
D03*
D101*
X2975000Y3850000D02*
D03*
X6750000Y7200000D02*
D03*
X4850000D02*
D03*
D102*
X5307696Y3959579D02*
D03*
X6388570Y4695750D02*
D03*
X7700000Y6278452D02*
D03*
X7882196Y6287500D02*
D03*
X7764790D02*
D03*
X7825000Y6292500D02*
D03*
X7205000Y6155000D02*
D03*
X7480112Y5915659D02*
D03*
X7715000Y5915000D02*
D03*
X7825000D02*
D03*
X7935000D02*
D03*
X7715000Y5805000D02*
D03*
X7825000D02*
D03*
X7935000D02*
D03*
X7715000Y5695000D02*
D03*
X7825000D02*
D03*
X7935000D02*
D03*
X7247500Y5720000D02*
D03*
X7373000Y5885000D02*
D03*
X7536097Y5930000D02*
D03*
X3140000Y6830000D02*
D03*
X3737013Y5908126D02*
D03*
X3812600Y6040000D02*
D03*
X3903000D02*
D03*
X5652500Y5365014D02*
D03*
X3775000Y4000000D02*
D03*
X3683550Y3900000D02*
D03*
X3195000Y4065896D02*
D03*
X3168314Y4155589D02*
D03*
X3570000Y4056500D02*
D03*
X3475000Y4025000D02*
D03*
X4030700Y4459300D02*
D03*
X3880000Y4410000D02*
D03*
Y4355000D02*
D03*
Y4300000D02*
D03*
X5890743Y4397841D02*
D03*
X6001973Y4411973D02*
D03*
X6741545Y3528455D02*
D03*
X6625000Y3600000D02*
D03*
X6200000Y4425000D02*
D03*
X6151405Y4398742D02*
D03*
X7990000Y4810000D02*
D03*
X3635000Y4965000D02*
D03*
X3525000D02*
D03*
X3415000D02*
D03*
X3635000Y5075000D02*
D03*
X3525000D02*
D03*
X3415000D02*
D03*
X3635000Y5185000D02*
D03*
X3525000D02*
D03*
X3415000D02*
D03*
X3600000Y6970000D02*
D03*
X3547978Y7227978D02*
D03*
X2820000Y7550000D02*
D03*
X3903984Y6253983D02*
D03*
X3370000Y5710000D02*
D03*
X3399500Y5625000D02*
D03*
X3480500Y4646687D02*
D03*
X3480400Y4702699D02*
D03*
X3399500Y5381820D02*
D03*
Y5500000D02*
D03*
X5951791Y3688500D02*
D03*
X6338638Y3708638D02*
D03*
X6290393Y3751134D02*
D03*
X6281949Y3607500D02*
D03*
X3504265Y4754961D02*
D03*
X6330000Y4000000D02*
D03*
X6565000Y6192275D02*
D03*
X6511938Y6177801D02*
D03*
X7370000Y5710000D02*
D03*
X7750000Y5455000D02*
D03*
X5925000Y3781000D02*
D03*
X5560000Y4210000D02*
D03*
X3561400Y4707500D02*
D03*
X3559264Y4762458D02*
D03*
X3812135Y4856667D02*
D03*
X4147220Y5500000D02*
D03*
X5347500Y8267500D02*
D03*
X3764548Y6399017D02*
D03*
X7200000Y7500000D02*
D03*
X3164000Y6006000D02*
D03*
X2618499Y6700000D02*
D03*
X2609500Y6830000D02*
D03*
X7507023Y6487023D02*
D03*
X7435862Y6530413D02*
D03*
X7435000Y6279500D02*
D03*
X2615196Y7208000D02*
D03*
X7320000Y6570000D02*
D03*
X2618499Y7081000D02*
D03*
Y6950000D02*
D03*
X7503638Y6683638D02*
D03*
X7501326Y6578908D02*
D03*
X3161000Y5879000D02*
D03*
X3162500Y5752000D02*
D03*
X2760000Y5560500D02*
D03*
X3150000Y5040000D02*
D03*
X5939120Y4182500D02*
D03*
X4756500Y5688267D02*
D03*
X6055549Y4431726D02*
D03*
X6110424Y4435424D02*
D03*
X3960000Y6800000D02*
D03*
X5665500Y5915500D02*
D03*
X4852300Y6932700D02*
D03*
X5550000Y3600000D02*
D03*
X4025000Y4159500D02*
D03*
X3700000Y4759499D02*
D03*
X5533862Y3883862D02*
D03*
X4510000Y6650000D02*
D03*
X3920000Y6620000D02*
D03*
X5812500Y4150000D02*
D03*
X6290000Y3850000D02*
D03*
X6250000Y3350000D02*
D03*
X6200000Y3325000D02*
D03*
X4950000Y2670000D02*
D03*
X3163000Y6567500D02*
D03*
X3160000Y6700500D02*
D03*
X5832022Y3772022D02*
D03*
X6330000Y3800000D02*
D03*
Y3900000D02*
D03*
X6600000Y4050000D02*
D03*
Y3950000D02*
D03*
X6050000Y4620000D02*
D03*
X4220000Y6210000D02*
D03*
X4147500Y5275000D02*
D03*
X4020000Y5690000D02*
D03*
X3825000Y5645000D02*
D03*
X3740000Y5810000D02*
D03*
X3900000Y5190000D02*
D03*
X3870882Y5289118D02*
D03*
X3820000Y5310000D02*
D03*
X4730500Y5825000D02*
D03*
X3162612Y4255336D02*
D03*
X3328000Y4060000D02*
D03*
X5790000Y3290000D02*
D03*
X6100000Y3325000D02*
D03*
X3182958Y4337130D02*
D03*
X5525000Y3650000D02*
D03*
X3372000Y7208000D02*
D03*
X6000000Y3325000D02*
D03*
X5947479Y3352762D02*
D03*
X5900000Y3325000D02*
D03*
X7120000Y3917500D02*
D03*
X7130000Y3784500D02*
D03*
X8063000Y5582272D02*
D03*
X6430000Y3212070D02*
D03*
X8145955Y5883231D02*
D03*
X7504050Y5757249D02*
D03*
X7494000Y5811323D02*
D03*
X7477223Y5669527D02*
D03*
X7856014Y5520500D02*
D03*
X7828208Y4362813D02*
D03*
X7850000Y4225000D02*
D03*
X7650000Y4475000D02*
D03*
X7180000Y3917500D02*
D03*
X6350000Y4400000D02*
D03*
X6250000D02*
D03*
X6300000Y4425000D02*
D03*
X8178916Y6475000D02*
D03*
X6410000Y6390500D02*
D03*
X6497500D02*
D03*
X6380000Y6740000D02*
D03*
X8148728Y5764326D02*
D03*
X6100000Y6230000D02*
D03*
X8169500Y5815253D02*
D03*
X8150000Y6580000D02*
D03*
X8178916Y6530000D02*
D03*
X7029500Y5659500D02*
D03*
X7800000Y5480000D02*
D03*
X3143421Y4790000D02*
D03*
X3153521Y4920000D02*
D03*
X5850000Y3350000D02*
D03*
X5190000Y4890000D02*
D03*
X5332500Y7702500D02*
D03*
X5550000Y7390000D02*
D03*
X3380000Y7020000D02*
D03*
X8150000Y6680000D02*
D03*
X8175000Y6630000D02*
D03*
X3099505Y5140726D02*
D03*
X3130473Y5095273D02*
D03*
X3160000Y4980000D02*
D03*
X3525000Y5075000D02*
D03*
X3675000Y5450000D02*
D03*
X3698298Y4678499D02*
D03*
X4850000Y3750000D02*
D03*
X5550000Y3700000D02*
D03*
X6048163Y3351557D02*
D03*
X7715000Y6715000D02*
D03*
X7825000D02*
D03*
X7935000D02*
D03*
X7715000Y6605000D02*
D03*
X7825000D02*
D03*
X7935000D02*
D03*
X7715000Y6495000D02*
D03*
X7825000D02*
D03*
X7935000D02*
D03*
X3440000Y4475000D02*
D03*
X3550000D02*
D03*
X3660000D02*
D03*
X3440000Y4365000D02*
D03*
X3550000D02*
D03*
X3660000D02*
D03*
X3440000Y4255000D02*
D03*
X3550000D02*
D03*
X3660000D02*
D03*
D103*
X2850000Y4950000D02*
D03*
X7975000Y7275000D02*
D03*
X8200000Y2850000D02*
D03*
D104*
X7537500Y4934500D02*
D03*
Y5061500D02*
D03*
Y5188500D02*
D03*
Y5315500D02*
D03*
X8112500Y4934500D02*
D03*
Y5061500D02*
D03*
Y5188500D02*
D03*
Y5315500D02*
D03*
X3625000Y5548000D02*
D03*
Y5675000D02*
D03*
Y5802000D02*
D03*
Y5929000D02*
D03*
X4200000Y5548000D02*
D03*
Y5675000D02*
D03*
Y5802000D02*
D03*
Y5929000D02*
D03*
X6262500Y6359500D02*
D03*
Y6486500D02*
D03*
Y6613500D02*
D03*
Y6740500D02*
D03*
X6837500Y6359500D02*
D03*
Y6486500D02*
D03*
Y6613500D02*
D03*
Y6740500D02*
D03*
X4087500Y6590500D02*
D03*
Y6463500D02*
D03*
Y6336500D02*
D03*
Y6209500D02*
D03*
X3512500Y6590500D02*
D03*
Y6463500D02*
D03*
Y6336500D02*
D03*
Y6209500D02*
D03*
X5537500Y5534500D02*
D03*
Y5661500D02*
D03*
Y5788500D02*
D03*
Y5915500D02*
D03*
X6112500Y5534500D02*
D03*
Y5661500D02*
D03*
Y5788500D02*
D03*
Y5915500D02*
D03*
X5962500Y6615500D02*
D03*
Y6488500D02*
D03*
Y6361500D02*
D03*
Y6234500D02*
D03*
X5387500Y6615500D02*
D03*
Y6488500D02*
D03*
Y6361500D02*
D03*
Y6234500D02*
D03*
X4987500Y6065500D02*
D03*
Y5938500D02*
D03*
Y5811500D02*
D03*
Y5684500D02*
D03*
X4412500Y6065500D02*
D03*
Y5938500D02*
D03*
Y5811500D02*
D03*
Y5684500D02*
D03*
X4362500Y6334500D02*
D03*
Y6461500D02*
D03*
Y6588500D02*
D03*
Y6715500D02*
D03*
X4937500Y6334500D02*
D03*
Y6461500D02*
D03*
Y6588500D02*
D03*
Y6715500D02*
D03*
X6912500Y6040500D02*
D03*
Y5913500D02*
D03*
Y5786500D02*
D03*
Y5659500D02*
D03*
X6337500Y6040500D02*
D03*
Y5913500D02*
D03*
Y5786500D02*
D03*
Y5659500D02*
D03*
D105*
X7325000Y4785000D02*
D03*
Y5065000D02*
D03*
X7050000Y5110000D02*
D03*
Y5390000D02*
D03*
X5425000Y4915000D02*
D03*
Y4635000D02*
D03*
X6750000Y5110000D02*
D03*
Y5390000D02*
D03*
X7325000Y5565000D02*
D03*
Y5285000D02*
D03*
X5700000Y4635000D02*
D03*
Y4915000D02*
D03*
D106*
X4929000Y4365000D02*
D03*
D107*
X5158000Y5000000D02*
D03*
X4700000D02*
D03*
D108*
X4300000Y5275000D02*
D03*
X4020000D02*
D03*
D109*
X6522500Y4825000D02*
D03*
X5927500D02*
D03*
D110*
X7432500Y3330000D02*
D03*
X7242500D02*
D03*
X7337500Y3570000D02*
D03*
D111*
X6337500Y5759500D02*
Y5886500D01*
X6200000Y5761500D02*
Y5888500D01*
Y6000000D01*
Y5634500D02*
Y5761500D01*
X5904000Y5154000D02*
X6200000Y5450000D01*
Y5634500D01*
X4412500Y5811500D02*
Y5938500D01*
X4325000Y5975000D02*
X4412500Y5887500D01*
X4200000Y5548000D02*
X4402001D01*
X4954000Y5154000D02*
X5175000D01*
X6337500Y5659500D02*
Y5759500D01*
X5175000Y5154000D02*
X5904000D01*
X3322900Y4700606D02*
Y5175171D01*
X6337500Y5587500D02*
Y5659500D01*
X2975000Y7450000D02*
X3175000Y7650000D01*
X3350000D01*
X2975000Y5523071D02*
Y7450000D01*
Y5523071D02*
X3322900Y5175171D01*
X4954000Y5154000D02*
Y5246000D01*
X4800000Y5400000D02*
X4954000Y5246000D01*
X4708000Y5400000D02*
X4800000D01*
X4450000Y7650000D02*
X4600000Y7500000D01*
X3350000Y7650000D02*
X4450000D01*
X6300000Y5951000D02*
X6337500Y5913500D01*
X6300000Y6003000D02*
X6337500Y6040500D01*
X6300000Y5951000D02*
Y6003000D01*
X2976913Y4354619D02*
X3322900Y4700606D01*
X6200000Y5450000D02*
X6337500Y5587500D01*
X4954000Y5154000D02*
X5108000Y5000000D01*
X4200000Y5548000D02*
Y5675000D01*
X4412500Y5887500D02*
Y5938500D01*
Y5684500D02*
Y5811500D01*
Y5558499D02*
Y5684500D01*
X4402001Y5548000D02*
X4412500Y5558499D01*
X4200000Y5802000D02*
Y5929000D01*
Y5675000D02*
Y5802000D01*
X4402001Y5548000D02*
X4550000Y5400000D01*
X4708000D01*
X5108000Y5000000D02*
X5158000D01*
X2976913Y3851913D02*
Y4354619D01*
X2975000Y3850000D02*
X2976913Y3851913D01*
X4050000Y2925000D02*
Y3275000D01*
Y2925000D02*
X4225000Y2750000D01*
X3475000Y3850000D02*
X4050000Y3275000D01*
D112*
X3542500Y5618124D02*
Y5754368D01*
X3400000Y6642500D02*
X3532500Y6775000D01*
X3400000Y5896868D02*
Y6642500D01*
X7000000Y5850000D02*
Y6300000D01*
X6900000Y6400000D02*
Y7033764D01*
X4150000Y6400000D02*
Y6685000D01*
X4250000Y6400000D02*
Y6570868D01*
X6067500Y6417500D02*
Y6488500D01*
Y6600000D02*
Y6802632D01*
X6050500Y6400500D02*
X6067500Y6417500D01*
Y6600000D02*
X6117500Y6550000D01*
X3532500Y6775000D02*
Y6780660D01*
X4750000Y7650000D02*
X5050000D01*
X4600000Y7500000D02*
X4750000Y7650000D01*
X5050000D02*
X5250000Y7850000D01*
X4162700Y7387300D02*
X4350000Y7200000D01*
X3900000Y7387300D02*
X4162700D01*
X5475000Y5595726D02*
Y5720868D01*
X5342500Y5853368D02*
X5475000Y5720868D01*
X5342500Y5977632D02*
X5350000Y5985132D01*
Y6197000D01*
X5342500Y5853368D02*
Y5977632D01*
X5350000Y6615500D02*
Y6852500D01*
Y6488500D02*
Y6615500D01*
Y6361500D02*
Y6488500D01*
Y6234500D02*
Y6361500D01*
X5500000Y7002500D02*
X5550000D01*
X5350000Y6852500D02*
X5500000Y7002500D01*
X6900000Y6400000D02*
X7000000Y6300000D01*
X6750000Y7183764D02*
Y7200000D01*
Y7183764D02*
X6900000Y7033764D01*
X6050000Y6400000D02*
X6150000D01*
X6117500Y6550000D02*
X6180000D01*
X6067500Y6802632D02*
X6195369Y6930501D01*
X6200000Y7850000D02*
X6500000Y7550000D01*
X5250000Y7850000D02*
X6200000D01*
X5947500Y7597500D02*
X6220000Y7325000D01*
Y7230000D02*
X6250000Y7200000D01*
X5550000Y7597500D02*
X5947500D01*
X6220000Y7230000D02*
Y7325000D01*
X3400000Y5896868D02*
X3542500Y5754368D01*
X4150000Y6700000D02*
Y6832843D01*
Y6700000D02*
X4167500Y6682500D01*
Y6653368D02*
Y6682500D01*
Y6653368D02*
X4250000Y6570868D01*
D113*
X4491629Y6950000D02*
X4600000Y7058371D01*
Y7500000D01*
X4267158Y6950000D02*
X4491629D01*
X6372131Y6930501D02*
X6500000Y7058371D01*
X6195369Y6930501D02*
X6372131D01*
X6500000Y7058371D02*
Y7550000D01*
X4150000Y6832843D02*
X4267158Y6950000D01*
%TF.MD5,a399c73d54d395e51bac9952b5e0bfb5*%
M02*
