%TF.GenerationSoftware,Altium Limited,Altium Designer,24.7.2 (38)*%
G04 Layer_Color=32896*
%FSLAX45Y45*%
%MOMM*%
%TF.SameCoordinates,4E20714E-E0DB-4EF4-9D00-32C5CA98EF25*%
%TF.FilePolarity,Positive*%
%TF.FileFunction,Legend,Bot*%
%TF.Part,Single*%
G01*
G75*
%TA.AperFunction,NonConductor*%
%ADD61C,0.25400*%
%ADD80C,0.25000*%
%ADD81C,0.20000*%
%ADD82C,0.60000*%
%ADD83C,0.10000*%
%ADD85C,0.12700*%
G36*
X7772079Y4406442D02*
X7777409D01*
Y4404665D01*
X7782739D01*
Y4402889D01*
X7788068D01*
Y4401112D01*
X7791622D01*
Y4399335D01*
X7796952D01*
Y4397559D01*
X7802282D01*
Y4395782D01*
X7805835D01*
Y4394005D01*
X7811165D01*
Y4392229D01*
X7816495D01*
Y4390452D01*
X7821825D01*
Y4388675D01*
X7825378D01*
Y4386899D01*
X7830708D01*
Y4385122D01*
X7836038D01*
Y4383345D01*
X7839591D01*
Y4381569D01*
X7844921D01*
Y4379792D01*
X7850251D01*
Y4378015D01*
X7855581D01*
Y4376239D01*
X7859135D01*
Y4374462D01*
X7864465D01*
Y4372685D01*
X7869795D01*
Y4370909D01*
X7873348D01*
Y4369132D01*
X7878678D01*
Y4367356D01*
X7884008D01*
Y4365579D01*
X7889338D01*
Y4363802D01*
X7892891D01*
Y4202127D01*
X7889338D01*
Y4200351D01*
X7884008D01*
Y4198574D01*
X7880454D01*
Y4196797D01*
X7875124D01*
Y4195021D01*
X7869795D01*
Y4193244D01*
X7866241D01*
Y4191467D01*
X7860911D01*
Y4189691D01*
X7855581D01*
Y4187914D01*
X7852028D01*
Y4186137D01*
X7846698D01*
Y4184361D01*
X7841368D01*
Y4182584D01*
X7836038D01*
Y4180807D01*
X7832485D01*
Y4179031D01*
X7827155D01*
Y4177254D01*
X7821825D01*
Y4175477D01*
X7818272D01*
Y4173701D01*
X7812942D01*
Y4171924D01*
X7811165D01*
Y4170147D01*
X7816495D01*
Y4168371D01*
X7820048D01*
Y4166594D01*
X7825378D01*
Y4164817D01*
X7830708D01*
Y4163041D01*
X7836038D01*
Y4161264D01*
X7839591D01*
Y4159487D01*
X7844921D01*
Y4157711D01*
X7850251D01*
Y4155934D01*
X7853805D01*
Y4154158D01*
X7859135D01*
Y4152381D01*
X7864465D01*
Y4150604D01*
X7869795D01*
Y4148828D01*
X7873348D01*
Y4147051D01*
X7878678D01*
Y4145274D01*
X7884008D01*
Y4143498D01*
X7887561D01*
Y4141721D01*
X7892891D01*
Y4138168D01*
X7891114D01*
Y4134614D01*
X7889338D01*
Y4132838D01*
X7887561D01*
Y4131061D01*
X7885784D01*
Y4127508D01*
X7884008D01*
Y4125731D01*
X7882231D01*
Y4122178D01*
X7880454D01*
Y4120401D01*
X7878678D01*
Y4118624D01*
X7876901D01*
Y4115071D01*
X7875124D01*
Y4113295D01*
X7873348D01*
Y4109741D01*
X7871571D01*
Y4107965D01*
X7869795D01*
Y4104411D01*
X7868018D01*
Y4102635D01*
X7866241D01*
Y4100858D01*
X7864465D01*
Y4097305D01*
X7862688D01*
Y4095528D01*
X7860911D01*
Y4093752D01*
X7857358D01*
Y4091975D01*
X7846698D01*
Y4093752D01*
X7837815D01*
Y4095528D01*
X7830708D01*
Y4097305D01*
X7823602D01*
Y4099081D01*
X7814718D01*
Y4100858D01*
X7807612D01*
Y4102635D01*
X7800505D01*
Y4104411D01*
X7793398D01*
Y4106188D01*
X7784515D01*
Y4107965D01*
X7777409D01*
Y4109741D01*
X7764972D01*
Y4107965D01*
X7763196D01*
Y4106188D01*
X7759642D01*
Y4102635D01*
X7757866D01*
Y4100858D01*
X7756089D01*
Y4099081D01*
X7754312D01*
Y4097305D01*
X7752536D01*
Y4095528D01*
X7750759D01*
Y4093752D01*
X7748982D01*
Y4091975D01*
X7747206D01*
Y4090198D01*
X7745429D01*
Y4088422D01*
X7743652D01*
Y4086645D01*
X7741876D01*
Y4084868D01*
X7740099D01*
Y4081315D01*
X7738322D01*
Y4079538D01*
X7736546D01*
Y4077762D01*
X7734769D01*
Y4075985D01*
X7732992D01*
Y4074208D01*
X7731216D01*
Y4072432D01*
X7729439D01*
Y4070655D01*
X7727662D01*
Y4067102D01*
X7725886D01*
Y4063548D01*
X7727662D01*
Y4059995D01*
X7729439D01*
Y4058218D01*
X7731216D01*
Y4056442D01*
X7732992D01*
Y4054665D01*
X7734769D01*
Y4052889D01*
X7736546D01*
Y4051112D01*
X7738322D01*
Y4047559D01*
X7740099D01*
Y4045782D01*
X7741876D01*
Y4044005D01*
X7743652D01*
Y4042229D01*
X7745429D01*
Y4040452D01*
X7747206D01*
Y4038675D01*
X7748982D01*
Y4036899D01*
X7750759D01*
Y4035122D01*
X7752536D01*
Y4033345D01*
X7754312D01*
Y4031569D01*
X7756089D01*
Y4029792D01*
X7757866D01*
Y4026239D01*
X7759642D01*
Y4024462D01*
X7763196D01*
Y4022685D01*
X7764972D01*
Y4020909D01*
X7777409D01*
Y4022685D01*
X7786292D01*
Y4024462D01*
X7793398D01*
Y4026239D01*
X7800505D01*
Y4028015D01*
X7807612D01*
Y4029792D01*
X7816495D01*
Y4031569D01*
X7823602D01*
Y4033345D01*
X7830708D01*
Y4035122D01*
X7839591D01*
Y4036899D01*
X7846698D01*
Y4038675D01*
X7857358D01*
Y4036899D01*
X7860911D01*
Y4035122D01*
X7862688D01*
Y4033345D01*
X7864465D01*
Y4029792D01*
X7866241D01*
Y4028015D01*
X7868018D01*
Y4026239D01*
X7869795D01*
Y4022685D01*
X7871571D01*
Y4020909D01*
X7873348D01*
Y4017355D01*
X7875124D01*
Y4015579D01*
X7876901D01*
Y4013802D01*
X7878678D01*
Y4010249D01*
X7880454D01*
Y4008472D01*
X7882231D01*
Y4004919D01*
X7884008D01*
Y4003142D01*
X7885784D01*
Y3999589D01*
X7887561D01*
Y3997812D01*
X7889338D01*
Y3996036D01*
X7891114D01*
Y3992482D01*
X7892891D01*
Y3988929D01*
X7887561D01*
Y3987153D01*
X7882231D01*
Y3985376D01*
X7878678D01*
Y3983599D01*
X7873348D01*
Y3981823D01*
X7868018D01*
Y3980046D01*
X7862688D01*
Y3978269D01*
X7859135D01*
Y3976492D01*
X7853805D01*
Y3974716D01*
X7848475D01*
Y3972939D01*
X7844921D01*
Y3971162D01*
X7839591D01*
Y3969386D01*
X7834261D01*
Y3967609D01*
X7830708D01*
Y3965833D01*
X7825378D01*
Y3964056D01*
X7820048D01*
Y3962279D01*
X7814718D01*
Y3960503D01*
X7811165D01*
Y3958726D01*
X7805835D01*
Y3955173D01*
X7811165D01*
Y3953396D01*
X7814718D01*
Y3951619D01*
X7820048D01*
Y3949843D01*
X7825378D01*
Y3948066D01*
X7828932D01*
Y3946290D01*
X7834261D01*
Y3944513D01*
X7837815D01*
Y3942736D01*
X7843145D01*
Y3940960D01*
X7848475D01*
Y3939183D01*
X7852028D01*
Y3937406D01*
X7857358D01*
Y3935630D01*
X7862688D01*
Y3933853D01*
X7866241D01*
Y3932076D01*
X7871571D01*
Y3930300D01*
X7875124D01*
Y3928523D01*
X7880454D01*
Y3926746D01*
X7885784D01*
Y3924970D01*
X7889338D01*
Y3923193D01*
X7892891D01*
Y3919640D01*
X7891114D01*
Y3917863D01*
X7889338D01*
Y3914310D01*
X7887561D01*
Y3912533D01*
X7885784D01*
Y3908980D01*
X7884008D01*
Y3907203D01*
X7882231D01*
Y3903650D01*
X7880454D01*
Y3901873D01*
X7878678D01*
Y3898320D01*
X7876901D01*
Y3896543D01*
X7875124D01*
Y3892990D01*
X7873348D01*
Y3891213D01*
X7871571D01*
Y3887660D01*
X7869795D01*
Y3885884D01*
X7868018D01*
Y3882330D01*
X7866241D01*
Y3880553D01*
X7864465D01*
Y3878777D01*
X7862688D01*
Y3877000D01*
X7860911D01*
Y3875223D01*
X7859135D01*
Y3873447D01*
X7855581D01*
Y3871670D01*
X7848475D01*
Y3873447D01*
X7841368D01*
Y3875223D01*
X7832485D01*
Y3877000D01*
X7825378D01*
Y3878777D01*
X7818272D01*
Y3880553D01*
X7811165D01*
Y3882330D01*
X7804059D01*
Y3884107D01*
X7796952D01*
Y3885884D01*
X7789845D01*
Y3887660D01*
X7782739D01*
Y3889437D01*
X7773855D01*
Y3891213D01*
X7768525D01*
Y3889437D01*
X7763196D01*
Y3887660D01*
X7761419D01*
Y3885884D01*
X7759642D01*
Y3884107D01*
X7757866D01*
Y3882330D01*
X7756089D01*
Y3880553D01*
X7754312D01*
Y3878777D01*
X7752536D01*
Y3875223D01*
X7750759D01*
Y3873447D01*
X7748982D01*
Y3871670D01*
X7747206D01*
Y3869893D01*
X7745429D01*
Y3868117D01*
X7743652D01*
Y3866340D01*
X7741876D01*
Y3864564D01*
X7740099D01*
Y3862787D01*
X7738322D01*
Y3859234D01*
X7736546D01*
Y3857457D01*
X7734769D01*
Y3855680D01*
X7732992D01*
Y3853904D01*
X7731216D01*
Y3852127D01*
X7729439D01*
Y3850350D01*
X7727662D01*
Y3846797D01*
X7725886D01*
Y3841467D01*
X7727662D01*
Y3839691D01*
X7729439D01*
Y3837914D01*
X7731216D01*
Y3834361D01*
X7732992D01*
Y3832584D01*
X7734769D01*
Y3830807D01*
X7736546D01*
Y3829031D01*
X7738322D01*
Y3827254D01*
X7740099D01*
Y3825477D01*
X7741876D01*
Y3823701D01*
X7743652D01*
Y3821924D01*
X7745429D01*
Y3818371D01*
X7747206D01*
Y3816594D01*
X7748982D01*
Y3814817D01*
X7750759D01*
Y3813041D01*
X7752536D01*
Y3811264D01*
X7754312D01*
Y3809487D01*
X7756089D01*
Y3807711D01*
X7757866D01*
Y3804157D01*
X7759642D01*
Y3802381D01*
X7761419D01*
Y3800604D01*
X7764972D01*
Y3798828D01*
X7779185D01*
Y3800604D01*
X7786292D01*
Y3802381D01*
X7793398D01*
Y3804157D01*
X7800505D01*
Y3805934D01*
X7807612D01*
Y3807711D01*
X7814718D01*
Y3809487D01*
X7821825D01*
Y3811264D01*
X7830708D01*
Y3813041D01*
X7837815D01*
Y3814817D01*
X7844921D01*
Y3816594D01*
X7857358D01*
Y3814817D01*
X7860911D01*
Y3813041D01*
X7862688D01*
Y3811264D01*
X7864465D01*
Y3807711D01*
X7866241D01*
Y3805934D01*
X7868018D01*
Y3802381D01*
X7869795D01*
Y3800604D01*
X7871571D01*
Y3798828D01*
X7873348D01*
Y3795274D01*
X7875124D01*
Y3793498D01*
X7876901D01*
Y3789944D01*
X7878678D01*
Y3788168D01*
X7880454D01*
Y3784614D01*
X7882231D01*
Y3782838D01*
X7884008D01*
Y3779284D01*
X7885784D01*
Y3777508D01*
X7887561D01*
Y3773954D01*
X7889338D01*
Y3772178D01*
X7891114D01*
Y3768624D01*
X7892891D01*
Y3766848D01*
X7891114D01*
Y3765071D01*
X7887561D01*
Y3763294D01*
X7882231D01*
Y3761518D01*
X7878678D01*
Y3759741D01*
X7873348D01*
Y3757965D01*
X7868018D01*
Y3756188D01*
X7864465D01*
Y3754411D01*
X7859135D01*
Y3752635D01*
X7855581D01*
Y3750858D01*
X7850251D01*
Y3749081D01*
X7844921D01*
Y3747305D01*
X7841368D01*
Y3745528D01*
X7836038D01*
Y3743751D01*
X7832485D01*
Y3741975D01*
X7827155D01*
Y3740198D01*
X7821825D01*
Y3738422D01*
X7818272D01*
Y3736645D01*
X7812942D01*
Y3734868D01*
X7809388D01*
Y3733092D01*
X7804059D01*
Y3731315D01*
X7798729D01*
Y3729538D01*
X7795175D01*
Y3727762D01*
X7789845D01*
Y3725985D01*
X7784515D01*
Y3724208D01*
X7780962D01*
Y3722431D01*
X7773855D01*
Y3724208D01*
X7768525D01*
Y3725985D01*
X7764972D01*
Y3727762D01*
X7759642D01*
Y3729538D01*
X7756089D01*
Y3731315D01*
X7750759D01*
Y3733092D01*
X7745429D01*
Y3734868D01*
X7741876D01*
Y3736645D01*
X7736546D01*
Y3738422D01*
X7732992D01*
Y3740198D01*
X7727662D01*
Y3741975D01*
X7722333D01*
Y3743751D01*
X7718779D01*
Y3745528D01*
X7713449D01*
Y3747305D01*
X7709896D01*
Y3749081D01*
X7704566D01*
Y3750858D01*
X7699236D01*
Y3752635D01*
X7695683D01*
Y3754411D01*
X7690353D01*
Y3756188D01*
X7686799D01*
Y3757965D01*
X7681470D01*
Y3759741D01*
X7676140D01*
Y3761518D01*
X7672586D01*
Y3763294D01*
X7665480D01*
Y3761518D01*
X7660150D01*
Y3759741D01*
X7654820D01*
Y3757965D01*
X7649490D01*
Y3756188D01*
X7645937D01*
Y3754411D01*
X7640607D01*
Y3752635D01*
X7635277D01*
Y3750858D01*
X7629947D01*
Y3749081D01*
X7624617D01*
Y3747305D01*
X7621063D01*
Y3745528D01*
X7615734D01*
Y3743751D01*
X7610404D01*
Y3741975D01*
X7605074D01*
Y3740198D01*
X7601520D01*
Y3738422D01*
X7596190D01*
Y3736645D01*
X7590860D01*
Y3734868D01*
X7585530D01*
Y3733092D01*
X7581977D01*
Y3731315D01*
X7576647D01*
Y3729538D01*
X7571317D01*
Y3727762D01*
X7565987D01*
Y3725985D01*
X7560657D01*
Y3724208D01*
X7557104D01*
Y3722431D01*
X7549998D01*
Y3724208D01*
X7544668D01*
Y3725985D01*
X7539337D01*
Y3727762D01*
X7535784D01*
Y3729538D01*
X7530454D01*
Y3731315D01*
X7525124D01*
Y3733092D01*
X7519794D01*
Y3734868D01*
X7516241D01*
Y3736645D01*
X7510911D01*
Y3738422D01*
X7505581D01*
Y3740198D01*
X7502028D01*
Y3741975D01*
X7496698D01*
Y3743751D01*
X7491368D01*
Y3745528D01*
X7487815D01*
Y3747305D01*
X7482485D01*
Y3749081D01*
X7477155D01*
Y3750858D01*
X7473602D01*
Y3752635D01*
X7468272D01*
Y3754411D01*
X7462942D01*
Y3756188D01*
X7459388D01*
Y3757965D01*
X7454058D01*
Y3759741D01*
X7448729D01*
Y3761518D01*
X7443398D01*
Y3763294D01*
X7434515D01*
Y3761518D01*
X7429185D01*
Y3759741D01*
X7425632D01*
Y3757965D01*
X7420302D01*
Y3756188D01*
X7414972D01*
Y3754411D01*
X7411419D01*
Y3752635D01*
X7406089D01*
Y3750858D01*
X7400759D01*
Y3749081D01*
X7397206D01*
Y3747305D01*
X7391876D01*
Y3745528D01*
X7388322D01*
Y3743751D01*
X7382992D01*
Y3741975D01*
X7377662D01*
Y3740198D01*
X7374109D01*
Y3738422D01*
X7368779D01*
Y3736645D01*
X7365226D01*
Y3734868D01*
X7359896D01*
Y3733092D01*
X7354566D01*
Y3731315D01*
X7351013D01*
Y3729538D01*
X7345683D01*
Y3727762D01*
X7340353D01*
Y3725985D01*
X7336799D01*
Y3724208D01*
X7331469D01*
Y3722431D01*
X7324363D01*
Y3724208D01*
X7320810D01*
Y3725985D01*
X7315480D01*
Y3727762D01*
X7310150D01*
Y3729538D01*
X7306597D01*
Y3731315D01*
X7301267D01*
Y3733092D01*
X7297713D01*
Y3734868D01*
X7292383D01*
Y3736645D01*
X7287053D01*
Y3738422D01*
X7283500D01*
Y3740198D01*
X7278170D01*
Y3741975D01*
X7274617D01*
Y3743751D01*
X7269287D01*
Y3745528D01*
X7263957D01*
Y3747305D01*
X7260404D01*
Y3749081D01*
X7255074D01*
Y3750858D01*
X7251520D01*
Y3752635D01*
X7246190D01*
Y3754411D01*
X7240860D01*
Y3756188D01*
X7237307D01*
Y3757965D01*
X7231977D01*
Y3759741D01*
X7228424D01*
Y3761518D01*
X7223094D01*
Y3763294D01*
X7217764D01*
Y3765071D01*
X7214211D01*
Y3766848D01*
X7212434D01*
Y3768624D01*
X7214211D01*
Y3772178D01*
X7215987D01*
Y3773954D01*
X7217764D01*
Y3775731D01*
X7219541D01*
Y3779284D01*
X7221317D01*
Y3781061D01*
X7223094D01*
Y3784614D01*
X7224870D01*
Y3786391D01*
X7226647D01*
Y3789944D01*
X7228424D01*
Y3791721D01*
X7230200D01*
Y3795274D01*
X7231977D01*
Y3797051D01*
X7233754D01*
Y3800604D01*
X7235530D01*
Y3802381D01*
X7237307D01*
Y3805934D01*
X7239084D01*
Y3807711D01*
X7240860D01*
Y3809487D01*
X7242637D01*
Y3813041D01*
X7246190D01*
Y3814817D01*
X7247967D01*
Y3816594D01*
X7260404D01*
Y3814817D01*
X7267510D01*
Y3813041D01*
X7276393D01*
Y3811264D01*
X7283500D01*
Y3809487D01*
X7290607D01*
Y3807711D01*
X7297713D01*
Y3805934D01*
X7304820D01*
Y3804157D01*
X7311926D01*
Y3802381D01*
X7319033D01*
Y3800604D01*
X7327916D01*
Y3798828D01*
X7340353D01*
Y3800604D01*
X7343906D01*
Y3802381D01*
X7345683D01*
Y3804157D01*
X7347459D01*
Y3805934D01*
X7349236D01*
Y3807711D01*
X7351013D01*
Y3811264D01*
X7352789D01*
Y3813041D01*
X7354566D01*
Y3814817D01*
X7356343D01*
Y3816594D01*
X7358119D01*
Y3818371D01*
X7359896D01*
Y3820147D01*
X7361673D01*
Y3821924D01*
X7363449D01*
Y3823701D01*
X7365226D01*
Y3827254D01*
X7367003D01*
Y3829031D01*
X7368779D01*
Y3830807D01*
X7370556D01*
Y3832584D01*
X7372332D01*
Y3834361D01*
X7374109D01*
Y3836137D01*
X7375886D01*
Y3837914D01*
X7377662D01*
Y3841467D01*
X7379439D01*
Y3848574D01*
X7377662D01*
Y3850350D01*
X7375886D01*
Y3852127D01*
X7374109D01*
Y3853904D01*
X7372332D01*
Y3857457D01*
X7370556D01*
Y3859234D01*
X7368779D01*
Y3861010D01*
X7367003D01*
Y3862787D01*
X7365226D01*
Y3864564D01*
X7363449D01*
Y3866340D01*
X7361673D01*
Y3868117D01*
X7359896D01*
Y3869893D01*
X7358119D01*
Y3873447D01*
X7356343D01*
Y3875223D01*
X7354566D01*
Y3877000D01*
X7352789D01*
Y3878777D01*
X7351013D01*
Y3880553D01*
X7349236D01*
Y3882330D01*
X7347459D01*
Y3884107D01*
X7345683D01*
Y3885884D01*
X7343906D01*
Y3887660D01*
X7342129D01*
Y3889437D01*
X7336799D01*
Y3891213D01*
X7331469D01*
Y3889437D01*
X7324363D01*
Y3887660D01*
X7317256D01*
Y3885884D01*
X7308373D01*
Y3884107D01*
X7301267D01*
Y3882330D01*
X7294160D01*
Y3880553D01*
X7287053D01*
Y3878777D01*
X7279947D01*
Y3877000D01*
X7272840D01*
Y3875223D01*
X7263957D01*
Y3873447D01*
X7256850D01*
Y3871670D01*
X7249744D01*
Y3873447D01*
X7246190D01*
Y3875223D01*
X7244414D01*
Y3877000D01*
X7242637D01*
Y3878777D01*
X7240860D01*
Y3880553D01*
X7239084D01*
Y3884107D01*
X7237307D01*
Y3885884D01*
X7235530D01*
Y3889437D01*
X7233754D01*
Y3891213D01*
X7231977D01*
Y3894767D01*
X7230200D01*
Y3896543D01*
X7228424D01*
Y3900097D01*
X7226647D01*
Y3901873D01*
X7224870D01*
Y3903650D01*
X7223094D01*
Y3907203D01*
X7221317D01*
Y3908980D01*
X7219541D01*
Y3912533D01*
X7217764D01*
Y3914310D01*
X7215987D01*
Y3917863D01*
X7214211D01*
Y3919640D01*
X7212434D01*
Y3923193D01*
X7215987D01*
Y3924970D01*
X7219541D01*
Y3926746D01*
X7224870D01*
Y3928523D01*
X7230200D01*
Y3930300D01*
X7233754D01*
Y3932076D01*
X7239084D01*
Y3933853D01*
X7242637D01*
Y3935630D01*
X7247967D01*
Y3937406D01*
X7253297D01*
Y3939183D01*
X7256850D01*
Y3940960D01*
X7262180D01*
Y3942736D01*
X7267510D01*
Y3944513D01*
X7271063D01*
Y3946290D01*
X7276393D01*
Y3948066D01*
X7279947D01*
Y3949843D01*
X7285277D01*
Y3951619D01*
X7290607D01*
Y3953396D01*
X7294160D01*
Y3955173D01*
X7299490D01*
Y3956949D01*
X7297713D01*
Y3958726D01*
X7294160D01*
Y3960503D01*
X7288830D01*
Y3962279D01*
X7283500D01*
Y3964056D01*
X7278170D01*
Y3965833D01*
X7274617D01*
Y3967609D01*
X7269287D01*
Y3969386D01*
X7263957D01*
Y3971162D01*
X7260404D01*
Y3972939D01*
X7255074D01*
Y3974716D01*
X7249744D01*
Y3976492D01*
X7244414D01*
Y3978269D01*
X7240860D01*
Y3980046D01*
X7235530D01*
Y3981823D01*
X7230200D01*
Y3983599D01*
X7226647D01*
Y3985376D01*
X7221317D01*
Y3987153D01*
X7215987D01*
Y3988929D01*
X7212434D01*
Y3992482D01*
X7214211D01*
Y3994259D01*
X7215987D01*
Y3996036D01*
X7217764D01*
Y3999589D01*
X7219541D01*
Y4001366D01*
X7221317D01*
Y4004919D01*
X7223094D01*
Y4006696D01*
X7224870D01*
Y4008472D01*
X7226647D01*
Y4012026D01*
X7228424D01*
Y4013802D01*
X7230200D01*
Y4017355D01*
X7231977D01*
Y4019132D01*
X7233754D01*
Y4020909D01*
X7235530D01*
Y4024462D01*
X7237307D01*
Y4026239D01*
X7239084D01*
Y4029792D01*
X7240860D01*
Y4031569D01*
X7242637D01*
Y4033345D01*
X7244414D01*
Y4035122D01*
X7246190D01*
Y4036899D01*
X7249744D01*
Y4038675D01*
X7256850D01*
Y4036899D01*
X7265734D01*
Y4035122D01*
X7272840D01*
Y4033345D01*
X7279947D01*
Y4031569D01*
X7288830D01*
Y4029792D01*
X7295937D01*
Y4028015D01*
X7303043D01*
Y4026239D01*
X7310150D01*
Y4024462D01*
X7319033D01*
Y4022685D01*
X7326140D01*
Y4020909D01*
X7340353D01*
Y4022685D01*
X7343906D01*
Y4024462D01*
X7345683D01*
Y4026239D01*
X7347459D01*
Y4028015D01*
X7349236D01*
Y4029792D01*
X7351013D01*
Y4031569D01*
X7352789D01*
Y4033345D01*
X7354566D01*
Y4035122D01*
X7356343D01*
Y4036899D01*
X7358119D01*
Y4040452D01*
X7359896D01*
Y4042229D01*
X7361673D01*
Y4044005D01*
X7363449D01*
Y4045782D01*
X7365226D01*
Y4047559D01*
X7367003D01*
Y4049335D01*
X7368779D01*
Y4051112D01*
X7370556D01*
Y4052889D01*
X7372332D01*
Y4054665D01*
X7374109D01*
Y4056442D01*
X7375886D01*
Y4058218D01*
X7377662D01*
Y4061772D01*
X7379439D01*
Y4068878D01*
X7377662D01*
Y4070655D01*
X7375886D01*
Y4072432D01*
X7374109D01*
Y4074208D01*
X7372332D01*
Y4075985D01*
X7370556D01*
Y4077762D01*
X7368779D01*
Y4079538D01*
X7367003D01*
Y4083092D01*
X7365226D01*
Y4084868D01*
X7363449D01*
Y4086645D01*
X7361673D01*
Y4088422D01*
X7359896D01*
Y4090198D01*
X7358119D01*
Y4091975D01*
X7356343D01*
Y4093752D01*
X7354566D01*
Y4095528D01*
X7352789D01*
Y4097305D01*
X7351013D01*
Y4099081D01*
X7349236D01*
Y4100858D01*
X7347459D01*
Y4104411D01*
X7345683D01*
Y4106188D01*
X7342129D01*
Y4107965D01*
X7338576D01*
Y4109741D01*
X7329693D01*
Y4107965D01*
X7322586D01*
Y4106188D01*
X7315480D01*
Y4104411D01*
X7306597D01*
Y4102635D01*
X7299490D01*
Y4100858D01*
X7292383D01*
Y4099081D01*
X7283500D01*
Y4097305D01*
X7276393D01*
Y4095528D01*
X7267510D01*
Y4093752D01*
X7260404D01*
Y4091975D01*
X7247967D01*
Y4093752D01*
X7246190D01*
Y4095528D01*
X7242637D01*
Y4099081D01*
X7240860D01*
Y4100858D01*
X7239084D01*
Y4102635D01*
X7237307D01*
Y4106188D01*
X7235530D01*
Y4107965D01*
X7233754D01*
Y4111518D01*
X7231977D01*
Y4113295D01*
X7230200D01*
Y4115071D01*
X7228424D01*
Y4118624D01*
X7226647D01*
Y4120401D01*
X7224870D01*
Y4123954D01*
X7223094D01*
Y4125731D01*
X7221317D01*
Y4127508D01*
X7219541D01*
Y4131061D01*
X7217764D01*
Y4132838D01*
X7215987D01*
Y4136391D01*
X7214211D01*
Y4138168D01*
X7212434D01*
Y4139944D01*
X7214211D01*
Y4141721D01*
X7217764D01*
Y4143498D01*
X7223094D01*
Y4145274D01*
X7228424D01*
Y4147051D01*
X7231977D01*
Y4148828D01*
X7237307D01*
Y4150604D01*
X7242637D01*
Y4152381D01*
X7247967D01*
Y4154158D01*
X7251520D01*
Y4155934D01*
X7256850D01*
Y4157711D01*
X7262180D01*
Y4159487D01*
X7265734D01*
Y4161264D01*
X7271063D01*
Y4163041D01*
X7276393D01*
Y4164817D01*
X7281723D01*
Y4166594D01*
X7285277D01*
Y4168371D01*
X7290607D01*
Y4170147D01*
X7295937D01*
Y4171924D01*
X7294160D01*
Y4173701D01*
X7288830D01*
Y4175477D01*
X7285277D01*
Y4177254D01*
X7279947D01*
Y4179031D01*
X7274617D01*
Y4180807D01*
X7269287D01*
Y4182584D01*
X7265734D01*
Y4184361D01*
X7260404D01*
Y4186137D01*
X7255074D01*
Y4187914D01*
X7249744D01*
Y4189691D01*
X7244414D01*
Y4191467D01*
X7240860D01*
Y4193244D01*
X7235530D01*
Y4195021D01*
X7230200D01*
Y4196797D01*
X7224870D01*
Y4198574D01*
X7221317D01*
Y4200351D01*
X7215987D01*
Y4202127D01*
X7212434D01*
Y4363802D01*
X7217764D01*
Y4365579D01*
X7221317D01*
Y4367356D01*
X7226647D01*
Y4369132D01*
X7231977D01*
Y4370909D01*
X7235530D01*
Y4372685D01*
X7240860D01*
Y4374462D01*
X7246190D01*
Y4376239D01*
X7251520D01*
Y4378015D01*
X7255074D01*
Y4379792D01*
X7260404D01*
Y4381569D01*
X7265734D01*
Y4383345D01*
X7269287D01*
Y4385122D01*
X7274617D01*
Y4386899D01*
X7279947D01*
Y4388675D01*
X7285277D01*
Y4390452D01*
X7288830D01*
Y4392229D01*
X7294160D01*
Y4394005D01*
X7299490D01*
Y4395782D01*
X7303043D01*
Y4397559D01*
X7308373D01*
Y4399335D01*
X7313703D01*
Y4401112D01*
X7319033D01*
Y4402889D01*
X7322586D01*
Y4404665D01*
X7327916D01*
Y4406442D01*
X7333246D01*
Y4408219D01*
X7340353D01*
Y4406442D01*
X7343906D01*
Y4404665D01*
X7349236D01*
Y4402889D01*
X7354566D01*
Y4401112D01*
X7359896D01*
Y4399335D01*
X7363449D01*
Y4397559D01*
X7368779D01*
Y4395782D01*
X7374109D01*
Y4394005D01*
X7377662D01*
Y4392229D01*
X7382992D01*
Y4390452D01*
X7388322D01*
Y4388675D01*
X7393652D01*
Y4386899D01*
X7397206D01*
Y4385122D01*
X7402536D01*
Y4383345D01*
X7407866D01*
Y4381569D01*
X7413195D01*
Y4379792D01*
X7416749D01*
Y4378015D01*
X7422079D01*
Y4376239D01*
X7427409D01*
Y4374462D01*
X7430962D01*
Y4372685D01*
X7436292D01*
Y4370909D01*
X7441622D01*
Y4369132D01*
X7446952D01*
Y4370909D01*
X7452282D01*
Y4372685D01*
X7457612D01*
Y4374462D01*
X7461165D01*
Y4376239D01*
X7466495D01*
Y4378015D01*
X7471825D01*
Y4379792D01*
X7477155D01*
Y4381569D01*
X7480708D01*
Y4383345D01*
X7486038D01*
Y4385122D01*
X7491368D01*
Y4386899D01*
X7496698D01*
Y4388675D01*
X7500251D01*
Y4390452D01*
X7505581D01*
Y4392229D01*
X7510911D01*
Y4394005D01*
X7514465D01*
Y4395782D01*
X7519794D01*
Y4397559D01*
X7525124D01*
Y4399335D01*
X7530454D01*
Y4401112D01*
X7534008D01*
Y4402889D01*
X7539337D01*
Y4404665D01*
X7544668D01*
Y4406442D01*
X7549998D01*
Y4408219D01*
X7557104D01*
Y4406442D01*
X7560657D01*
Y4404665D01*
X7565987D01*
Y4402889D01*
X7571317D01*
Y4401112D01*
X7576647D01*
Y4399335D01*
X7580200D01*
Y4397559D01*
X7585530D01*
Y4395782D01*
X7590860D01*
Y4394005D01*
X7594414D01*
Y4392229D01*
X7599744D01*
Y4390452D01*
X7605074D01*
Y4388675D01*
X7610404D01*
Y4386899D01*
X7613957D01*
Y4385122D01*
X7619287D01*
Y4383345D01*
X7624617D01*
Y4381569D01*
X7628170D01*
Y4379792D01*
X7633500D01*
Y4378015D01*
X7638830D01*
Y4376239D01*
X7644160D01*
Y4374462D01*
X7647713D01*
Y4372685D01*
X7653043D01*
Y4370909D01*
X7658373D01*
Y4369132D01*
X7663703D01*
Y4370909D01*
X7669033D01*
Y4372685D01*
X7674363D01*
Y4374462D01*
X7677916D01*
Y4376239D01*
X7683246D01*
Y4378015D01*
X7688576D01*
Y4379792D01*
X7693906D01*
Y4381569D01*
X7697459D01*
Y4383345D01*
X7702790D01*
Y4385122D01*
X7708119D01*
Y4386899D01*
X7711673D01*
Y4388675D01*
X7717003D01*
Y4390452D01*
X7722333D01*
Y4392229D01*
X7727662D01*
Y4394005D01*
X7731216D01*
Y4395782D01*
X7736546D01*
Y4397559D01*
X7741876D01*
Y4399335D01*
X7747206D01*
Y4401112D01*
X7750759D01*
Y4402889D01*
X7756089D01*
Y4404665D01*
X7761419D01*
Y4406442D01*
X7764972D01*
Y4408219D01*
X7772079D01*
Y4406442D01*
D02*
G37*
%LPC*%
G36*
X7558881Y4390452D02*
X7548221D01*
Y4388675D01*
X7542891D01*
Y4386899D01*
X7537561D01*
Y4385122D01*
X7532231D01*
Y4383345D01*
X7528678D01*
Y4381569D01*
X7523348D01*
Y4379792D01*
X7518018D01*
Y4378015D01*
X7512688D01*
Y4376239D01*
X7509135D01*
Y4374462D01*
X7503805D01*
Y4372685D01*
X7498475D01*
Y4370909D01*
X7494921D01*
Y4369132D01*
X7489591D01*
Y4367356D01*
X7484261D01*
Y4365579D01*
X7478931D01*
Y4363802D01*
X7475378D01*
Y4362026D01*
X7470048D01*
Y4360249D01*
X7464718D01*
Y4358472D01*
X7459388D01*
Y4356696D01*
X7455835D01*
Y4354919D01*
X7450505D01*
Y4353142D01*
X7446952D01*
Y4351366D01*
X7450505D01*
Y4349589D01*
X7455835D01*
Y4347812D01*
X7459388D01*
Y4346036D01*
X7464718D01*
Y4344259D01*
X7470048D01*
Y4342483D01*
X7475378D01*
Y4340706D01*
X7478931D01*
Y4338929D01*
X7484261D01*
Y4337153D01*
X7489591D01*
Y4335376D01*
X7493145D01*
Y4333599D01*
X7498475D01*
Y4331823D01*
X7503805D01*
Y4330046D01*
X7509135D01*
Y4328269D01*
X7512688D01*
Y4326492D01*
X7518018D01*
Y4324716D01*
X7523348D01*
Y4322939D01*
X7528678D01*
Y4321163D01*
X7532231D01*
Y4319386D01*
X7537561D01*
Y4317609D01*
X7542891D01*
Y4315833D01*
X7548221D01*
Y4314056D01*
X7558881D01*
Y4315833D01*
X7562434D01*
Y4317609D01*
X7567764D01*
Y4319386D01*
X7573094D01*
Y4321163D01*
X7578424D01*
Y4322939D01*
X7581977D01*
Y4324716D01*
X7587307D01*
Y4326492D01*
X7592637D01*
Y4328269D01*
X7596190D01*
Y4330046D01*
X7601520D01*
Y4331823D01*
X7606850D01*
Y4333599D01*
X7612180D01*
Y4335376D01*
X7615734D01*
Y4337153D01*
X7621063D01*
Y4338929D01*
X7626393D01*
Y4340706D01*
X7631723D01*
Y4342483D01*
X7635277D01*
Y4344259D01*
X7640607D01*
Y4346036D01*
X7645937D01*
Y4347812D01*
X7651267D01*
Y4349589D01*
X7654820D01*
Y4351366D01*
X7658373D01*
Y4353142D01*
X7656597D01*
Y4354919D01*
X7651267D01*
Y4356696D01*
X7645937D01*
Y4358472D01*
X7640607D01*
Y4360249D01*
X7637053D01*
Y4362026D01*
X7631723D01*
Y4363802D01*
X7626393D01*
Y4365579D01*
X7621063D01*
Y4367356D01*
X7617510D01*
Y4369132D01*
X7612180D01*
Y4370909D01*
X7606850D01*
Y4372685D01*
X7601520D01*
Y4374462D01*
X7597967D01*
Y4376239D01*
X7592637D01*
Y4378015D01*
X7587307D01*
Y4379792D01*
X7583754D01*
Y4381569D01*
X7578424D01*
Y4383345D01*
X7573094D01*
Y4385122D01*
X7567764D01*
Y4386899D01*
X7564211D01*
Y4388675D01*
X7558881D01*
Y4390452D01*
D02*
G37*
G36*
X7336799Y4392229D02*
X7335023D01*
Y4390452D01*
X7331469D01*
Y4388675D01*
X7326140D01*
Y4386899D01*
X7320810D01*
Y4385122D01*
X7315480D01*
Y4383345D01*
X7311926D01*
Y4381569D01*
X7306597D01*
Y4379792D01*
X7301267D01*
Y4378015D01*
X7295937D01*
Y4376239D01*
X7292383D01*
Y4374462D01*
X7287053D01*
Y4372685D01*
X7281723D01*
Y4370909D01*
X7278170D01*
Y4369132D01*
X7272840D01*
Y4367356D01*
X7267510D01*
Y4365579D01*
X7262180D01*
Y4363802D01*
X7258627D01*
Y4362026D01*
X7253297D01*
Y4360249D01*
X7247967D01*
Y4358472D01*
X7242637D01*
Y4356696D01*
X7239084D01*
Y4354919D01*
X7233754D01*
Y4353142D01*
X7230200D01*
Y4351366D01*
X7233754D01*
Y4349589D01*
X7239084D01*
Y4347812D01*
X7242637D01*
Y4346036D01*
X7247967D01*
Y4344259D01*
X7253297D01*
Y4342483D01*
X7258627D01*
Y4340706D01*
X7262180D01*
Y4338929D01*
X7267510D01*
Y4337153D01*
X7272840D01*
Y4335376D01*
X7278170D01*
Y4333599D01*
X7281723D01*
Y4331823D01*
X7287053D01*
Y4330046D01*
X7292383D01*
Y4328269D01*
X7297713D01*
Y4326492D01*
X7301267D01*
Y4324716D01*
X7306597D01*
Y4322939D01*
X7311926D01*
Y4321163D01*
X7317256D01*
Y4319386D01*
X7320810D01*
Y4317609D01*
X7326140D01*
Y4315833D01*
X7331469D01*
Y4314056D01*
X7342129D01*
Y4315833D01*
X7345683D01*
Y4317609D01*
X7351013D01*
Y4319386D01*
X7356343D01*
Y4321163D01*
X7361673D01*
Y4322939D01*
X7365226D01*
Y4324716D01*
X7370556D01*
Y4326492D01*
X7375886D01*
Y4328269D01*
X7381216D01*
Y4330046D01*
X7384769D01*
Y4331823D01*
X7390099D01*
Y4333599D01*
X7395429D01*
Y4335376D01*
X7398982D01*
Y4337153D01*
X7404312D01*
Y4338929D01*
X7409642D01*
Y4340706D01*
X7414972D01*
Y4342483D01*
X7418525D01*
Y4344259D01*
X7423855D01*
Y4346036D01*
X7429185D01*
Y4347812D01*
X7434515D01*
Y4349589D01*
X7438068D01*
Y4351366D01*
X7441622D01*
Y4353142D01*
X7438068D01*
Y4354919D01*
X7434515D01*
Y4356696D01*
X7429185D01*
Y4358472D01*
X7423855D01*
Y4360249D01*
X7420302D01*
Y4362026D01*
X7414972D01*
Y4363802D01*
X7409642D01*
Y4365579D01*
X7404312D01*
Y4367356D01*
X7400759D01*
Y4369132D01*
X7395429D01*
Y4370909D01*
X7390099D01*
Y4372685D01*
X7384769D01*
Y4374462D01*
X7381216D01*
Y4376239D01*
X7375886D01*
Y4378015D01*
X7370556D01*
Y4379792D01*
X7365226D01*
Y4381569D01*
X7361673D01*
Y4383345D01*
X7356343D01*
Y4385122D01*
X7351013D01*
Y4386899D01*
X7347459D01*
Y4388675D01*
X7342129D01*
Y4390452D01*
X7336799D01*
Y4392229D01*
D02*
G37*
G36*
X7775632Y4390452D02*
X7764972D01*
Y4388675D01*
X7759642D01*
Y4386899D01*
X7754312D01*
Y4385122D01*
X7748982D01*
Y4383345D01*
X7745429D01*
Y4381569D01*
X7740099D01*
Y4379792D01*
X7734769D01*
Y4378015D01*
X7729439D01*
Y4376239D01*
X7725886D01*
Y4374462D01*
X7720556D01*
Y4372685D01*
X7715226D01*
Y4370909D01*
X7711673D01*
Y4369132D01*
X7706343D01*
Y4367356D01*
X7701013D01*
Y4365579D01*
X7695683D01*
Y4363802D01*
X7692129D01*
Y4362026D01*
X7686799D01*
Y4360249D01*
X7681470D01*
Y4358472D01*
X7676140D01*
Y4356696D01*
X7672586D01*
Y4354919D01*
X7667256D01*
Y4353142D01*
X7663703D01*
Y4351366D01*
X7667256D01*
Y4349589D01*
X7670810D01*
Y4347812D01*
X7676140D01*
Y4346036D01*
X7681470D01*
Y4344259D01*
X7686799D01*
Y4342483D01*
X7690353D01*
Y4340706D01*
X7695683D01*
Y4338929D01*
X7701013D01*
Y4337153D01*
X7704566D01*
Y4335376D01*
X7709896D01*
Y4333599D01*
X7715226D01*
Y4331823D01*
X7720556D01*
Y4330046D01*
X7724109D01*
Y4328269D01*
X7729439D01*
Y4326492D01*
X7734769D01*
Y4324716D01*
X7740099D01*
Y4322939D01*
X7743652D01*
Y4321163D01*
X7748982D01*
Y4319386D01*
X7754312D01*
Y4317609D01*
X7757866D01*
Y4315833D01*
X7763196D01*
Y4314056D01*
X7768525D01*
Y4312279D01*
X7770302D01*
Y4314056D01*
X7775632D01*
Y4315833D01*
X7780962D01*
Y4317609D01*
X7784515D01*
Y4319386D01*
X7789845D01*
Y4321163D01*
X7795175D01*
Y4322939D01*
X7798729D01*
Y4324716D01*
X7804059D01*
Y4326492D01*
X7809388D01*
Y4328269D01*
X7814718D01*
Y4330046D01*
X7818272D01*
Y4331823D01*
X7823602D01*
Y4333599D01*
X7828932D01*
Y4335376D01*
X7834261D01*
Y4337153D01*
X7837815D01*
Y4338929D01*
X7843145D01*
Y4340706D01*
X7848475D01*
Y4342483D01*
X7853805D01*
Y4344259D01*
X7857358D01*
Y4346036D01*
X7862688D01*
Y4347812D01*
X7868018D01*
Y4349589D01*
X7871571D01*
Y4351366D01*
X7876901D01*
Y4353142D01*
X7873348D01*
Y4354919D01*
X7868018D01*
Y4356696D01*
X7862688D01*
Y4358472D01*
X7857358D01*
Y4360249D01*
X7853805D01*
Y4362026D01*
X7848475D01*
Y4363802D01*
X7843145D01*
Y4365579D01*
X7837815D01*
Y4367356D01*
X7834261D01*
Y4369132D01*
X7828932D01*
Y4370909D01*
X7823602D01*
Y4372685D01*
X7818272D01*
Y4374462D01*
X7814718D01*
Y4376239D01*
X7809388D01*
Y4378015D01*
X7804059D01*
Y4379792D01*
X7800505D01*
Y4381569D01*
X7795175D01*
Y4383345D01*
X7789845D01*
Y4385122D01*
X7784515D01*
Y4386899D01*
X7780962D01*
Y4388675D01*
X7775632D01*
Y4390452D01*
D02*
G37*
G36*
X7578424Y4164817D02*
X7569541D01*
Y4163041D01*
X7564211D01*
Y4161264D01*
X7558881D01*
Y4159487D01*
X7553551D01*
Y4157711D01*
X7549998D01*
Y4159487D01*
X7544668D01*
Y4161264D01*
X7539337D01*
Y4163041D01*
X7535784D01*
Y4164817D01*
X7525124D01*
Y4163041D01*
X7521571D01*
Y4161264D01*
X7516241D01*
Y4159487D01*
X7510911D01*
Y4157711D01*
X7505581D01*
Y4155934D01*
X7502028D01*
Y4154158D01*
X7496698D01*
Y4152381D01*
X7491368D01*
Y4150604D01*
X7487815D01*
Y4148828D01*
X7482485D01*
Y4147051D01*
X7477155D01*
Y4145274D01*
X7473602D01*
Y4143498D01*
X7468272D01*
Y4141721D01*
X7462942D01*
Y4139944D01*
X7457612D01*
Y4138168D01*
X7454058D01*
Y4136391D01*
X7448729D01*
Y4134614D01*
X7446952D01*
Y4132838D01*
X7452282D01*
Y4131061D01*
X7457612D01*
Y4129284D01*
X7461165D01*
Y4127508D01*
X7466495D01*
Y4125731D01*
X7471825D01*
Y4123954D01*
X7475378D01*
Y4122178D01*
X7480708D01*
Y4120401D01*
X7486038D01*
Y4118624D01*
X7491368D01*
Y4116848D01*
X7494921D01*
Y4115071D01*
X7500251D01*
Y4113295D01*
X7505581D01*
Y4111518D01*
X7510911D01*
Y4109741D01*
X7514465D01*
Y4107965D01*
X7519794D01*
Y4106188D01*
X7525124D01*
Y4104411D01*
X7530454D01*
Y4102635D01*
X7534008D01*
Y4100858D01*
X7539337D01*
Y4099081D01*
X7544668D01*
Y4097305D01*
X7549998D01*
Y4095528D01*
X7557104D01*
Y4097305D01*
X7562434D01*
Y4099081D01*
X7565987D01*
Y4100858D01*
X7571317D01*
Y4102635D01*
X7576647D01*
Y4104411D01*
X7580200D01*
Y4106188D01*
X7585530D01*
Y4107965D01*
X7590860D01*
Y4109741D01*
X7594414D01*
Y4111518D01*
X7599744D01*
Y4113295D01*
X7605074D01*
Y4115071D01*
X7610404D01*
Y4116848D01*
X7613957D01*
Y4118624D01*
X7619287D01*
Y4120401D01*
X7624617D01*
Y4122178D01*
X7628170D01*
Y4123954D01*
X7633500D01*
Y4125731D01*
X7638830D01*
Y4127508D01*
X7644160D01*
Y4129284D01*
X7647713D01*
Y4131061D01*
X7653043D01*
Y4132838D01*
X7658373D01*
Y4134614D01*
X7656597D01*
Y4136391D01*
X7653043D01*
Y4138168D01*
X7647713D01*
Y4139944D01*
X7642383D01*
Y4141721D01*
X7637053D01*
Y4143498D01*
X7633500D01*
Y4145274D01*
X7628170D01*
Y4147051D01*
X7622840D01*
Y4148828D01*
X7617510D01*
Y4150604D01*
X7613957D01*
Y4152381D01*
X7608627D01*
Y4154158D01*
X7603297D01*
Y4155934D01*
X7597967D01*
Y4157711D01*
X7592637D01*
Y4159487D01*
X7589084D01*
Y4161264D01*
X7583754D01*
Y4163041D01*
X7578424D01*
Y4164817D01*
D02*
G37*
G36*
X7446952Y4196797D02*
X7441622D01*
Y4195021D01*
X7436292D01*
Y4193244D01*
X7432738D01*
Y4191467D01*
X7427409D01*
Y4189691D01*
X7422079D01*
Y4187914D01*
X7416749D01*
Y4186137D01*
X7411419D01*
Y4184361D01*
X7407866D01*
Y4182584D01*
X7402536D01*
Y4180807D01*
X7397206D01*
Y4179031D01*
X7391876D01*
Y4177254D01*
X7388322D01*
Y4175477D01*
X7382992D01*
Y4173701D01*
X7377662D01*
Y4171924D01*
X7372332D01*
Y4170147D01*
X7368779D01*
Y4168371D01*
X7370556D01*
Y4166594D01*
X7375886D01*
Y4164817D01*
X7381216D01*
Y4163041D01*
X7386546D01*
Y4161264D01*
X7390099D01*
Y4159487D01*
X7395429D01*
Y4157711D01*
X7400759D01*
Y4155934D01*
X7404312D01*
Y4154158D01*
X7409642D01*
Y4152381D01*
X7414972D01*
Y4150604D01*
X7420302D01*
Y4148828D01*
X7423855D01*
Y4147051D01*
X7434515D01*
Y4148828D01*
X7439845D01*
Y4150604D01*
X7443398D01*
Y4152381D01*
X7448729D01*
Y4154158D01*
X7454058D01*
Y4155934D01*
X7459388D01*
Y4157711D01*
X7462942D01*
Y4159487D01*
X7468272D01*
Y4161264D01*
X7473602D01*
Y4163041D01*
X7478931D01*
Y4164817D01*
X7482485D01*
Y4166594D01*
X7487815D01*
Y4168371D01*
X7493145D01*
Y4170147D01*
X7498475D01*
Y4171924D01*
X7502028D01*
Y4173701D01*
X7505581D01*
Y4175477D01*
X7502028D01*
Y4177254D01*
X7496698D01*
Y4179031D01*
X7491368D01*
Y4180807D01*
X7486038D01*
Y4182584D01*
X7482485D01*
Y4184361D01*
X7477155D01*
Y4186137D01*
X7471825D01*
Y4187914D01*
X7466495D01*
Y4189691D01*
X7462942D01*
Y4191467D01*
X7457612D01*
Y4193244D01*
X7452282D01*
Y4195021D01*
X7446952D01*
Y4196797D01*
D02*
G37*
G36*
X7665480Y4195021D02*
X7656597D01*
Y4193244D01*
X7651267D01*
Y4191467D01*
X7645937D01*
Y4189691D01*
X7642383D01*
Y4187914D01*
X7637053D01*
Y4186137D01*
X7631723D01*
Y4184361D01*
X7626393D01*
Y4182584D01*
X7621063D01*
Y4180807D01*
X7617510D01*
Y4179031D01*
X7612180D01*
Y4177254D01*
X7606850D01*
Y4175477D01*
X7601520D01*
Y4173701D01*
X7599744D01*
Y4171924D01*
X7603297D01*
Y4170147D01*
X7608627D01*
Y4168371D01*
X7613957D01*
Y4166594D01*
X7619287D01*
Y4164817D01*
X7622840D01*
Y4163041D01*
X7628170D01*
Y4161264D01*
X7633500D01*
Y4159487D01*
X7638830D01*
Y4157711D01*
X7642383D01*
Y4155934D01*
X7647713D01*
Y4154158D01*
X7653043D01*
Y4152381D01*
X7658373D01*
Y4150604D01*
X7661927D01*
Y4148828D01*
X7667256D01*
Y4147051D01*
X7672586D01*
Y4145274D01*
X7676140D01*
Y4147051D01*
X7681470D01*
Y4148828D01*
X7686799D01*
Y4150604D01*
X7690353D01*
Y4152381D01*
X7695683D01*
Y4154158D01*
X7701013D01*
Y4155934D01*
X7706343D01*
Y4157711D01*
X7709896D01*
Y4159487D01*
X7715226D01*
Y4161264D01*
X7720556D01*
Y4163041D01*
X7724109D01*
Y4164817D01*
X7729439D01*
Y4166594D01*
X7734769D01*
Y4168371D01*
X7732992D01*
Y4170147D01*
X7729439D01*
Y4171924D01*
X7724109D01*
Y4173701D01*
X7718779D01*
Y4175477D01*
X7713449D01*
Y4177254D01*
X7708119D01*
Y4179031D01*
X7704566D01*
Y4180807D01*
X7699236D01*
Y4182584D01*
X7693906D01*
Y4184361D01*
X7688576D01*
Y4186137D01*
X7685023D01*
Y4187914D01*
X7679693D01*
Y4189691D01*
X7674363D01*
Y4191467D01*
X7669033D01*
Y4193244D01*
X7665480D01*
Y4195021D01*
D02*
G37*
G36*
X7780962Y4164817D02*
X7773855D01*
Y4163041D01*
X7768525D01*
Y4161264D01*
X7763196D01*
Y4159487D01*
X7757866D01*
Y4157711D01*
X7754312D01*
Y4155934D01*
X7748982D01*
Y4154158D01*
X7743652D01*
Y4152381D01*
X7738322D01*
Y4150604D01*
X7734769D01*
Y4148828D01*
X7729439D01*
Y4147051D01*
X7724109D01*
Y4145274D01*
X7718779D01*
Y4143498D01*
X7715226D01*
Y4141721D01*
X7709896D01*
Y4139944D01*
X7704566D01*
Y4138168D01*
X7701013D01*
Y4136391D01*
X7695683D01*
Y4134614D01*
X7690353D01*
Y4132838D01*
X7685023D01*
Y4131061D01*
X7681470D01*
Y4129284D01*
X7677916D01*
Y4001366D01*
X7679693D01*
Y3999589D01*
X7685023D01*
Y3997812D01*
X7690353D01*
Y3996036D01*
X7693906D01*
Y3994259D01*
X7699236D01*
Y3992482D01*
X7704566D01*
Y3990706D01*
X7708119D01*
Y3988929D01*
X7713449D01*
Y3987153D01*
X7718779D01*
Y3985376D01*
X7724109D01*
Y3983599D01*
X7727662D01*
Y3981823D01*
X7732992D01*
Y3980046D01*
X7738322D01*
Y3978269D01*
X7741876D01*
Y3976492D01*
X7747206D01*
Y3974716D01*
X7752536D01*
Y3972939D01*
X7757866D01*
Y3971162D01*
X7761419D01*
Y3969386D01*
X7766749D01*
Y3967609D01*
X7772079D01*
Y3965833D01*
X7782739D01*
Y3967609D01*
X7788068D01*
Y3969386D01*
X7793398D01*
Y3971162D01*
X7796952D01*
Y3972939D01*
X7802282D01*
Y3974716D01*
X7807612D01*
Y3976492D01*
X7812942D01*
Y3978269D01*
X7816495D01*
Y3980046D01*
X7821825D01*
Y3981823D01*
X7827155D01*
Y3983599D01*
X7830708D01*
Y3985376D01*
X7836038D01*
Y3987153D01*
X7841368D01*
Y3988929D01*
X7844921D01*
Y3990706D01*
X7850251D01*
Y3992482D01*
X7855581D01*
Y3994259D01*
X7860911D01*
Y3996036D01*
X7864465D01*
Y3997812D01*
X7868018D01*
Y3999589D01*
X7866241D01*
Y4001366D01*
X7864465D01*
Y4004919D01*
X7862688D01*
Y4006696D01*
X7860911D01*
Y4010249D01*
X7859135D01*
Y4012026D01*
X7857358D01*
Y4013802D01*
X7855581D01*
Y4017355D01*
X7853805D01*
Y4019132D01*
X7852028D01*
Y4020909D01*
X7843145D01*
Y4019132D01*
X7834261D01*
Y4017355D01*
X7827155D01*
Y4015579D01*
X7820048D01*
Y4013802D01*
X7812942D01*
Y4012026D01*
X7804059D01*
Y4010249D01*
X7796952D01*
Y4008472D01*
X7789845D01*
Y4006696D01*
X7780962D01*
Y4004919D01*
X7761419D01*
Y4006696D01*
X7757866D01*
Y4008472D01*
X7754312D01*
Y4010249D01*
X7752536D01*
Y4012026D01*
X7748982D01*
Y4013802D01*
X7747206D01*
Y4015579D01*
X7745429D01*
Y4019132D01*
X7743652D01*
Y4020909D01*
X7741876D01*
Y4022685D01*
X7740099D01*
Y4024462D01*
X7738322D01*
Y4026239D01*
X7736546D01*
Y4028015D01*
X7734769D01*
Y4029792D01*
X7732992D01*
Y4031569D01*
X7731216D01*
Y4033345D01*
X7729439D01*
Y4035122D01*
X7727662D01*
Y4036899D01*
X7725886D01*
Y4038675D01*
X7724109D01*
Y4042229D01*
X7722333D01*
Y4044005D01*
X7720556D01*
Y4045782D01*
X7718779D01*
Y4047559D01*
X7717003D01*
Y4049335D01*
X7715226D01*
Y4051112D01*
X7713449D01*
Y4054665D01*
X7711673D01*
Y4058218D01*
X7709896D01*
Y4070655D01*
X7711673D01*
Y4075985D01*
X7713449D01*
Y4079538D01*
X7715226D01*
Y4081315D01*
X7717003D01*
Y4083092D01*
X7718779D01*
Y4084868D01*
X7720556D01*
Y4086645D01*
X7722333D01*
Y4088422D01*
X7724109D01*
Y4090198D01*
X7725886D01*
Y4091975D01*
X7727662D01*
Y4093752D01*
X7729439D01*
Y4097305D01*
X7731216D01*
Y4099081D01*
X7732992D01*
Y4100858D01*
X7734769D01*
Y4102635D01*
X7736546D01*
Y4104411D01*
X7738322D01*
Y4106188D01*
X7740099D01*
Y4107965D01*
X7741876D01*
Y4109741D01*
X7743652D01*
Y4111518D01*
X7745429D01*
Y4113295D01*
X7747206D01*
Y4115071D01*
X7748982D01*
Y4116848D01*
X7750759D01*
Y4118624D01*
X7752536D01*
Y4120401D01*
X7754312D01*
Y4122178D01*
X7757866D01*
Y4123954D01*
X7763196D01*
Y4125731D01*
X7779185D01*
Y4123954D01*
X7788068D01*
Y4122178D01*
X7795175D01*
Y4120401D01*
X7802282D01*
Y4118624D01*
X7809388D01*
Y4116848D01*
X7818272D01*
Y4115071D01*
X7825378D01*
Y4113295D01*
X7832485D01*
Y4111518D01*
X7841368D01*
Y4109741D01*
X7848475D01*
Y4107965D01*
X7852028D01*
Y4111518D01*
X7853805D01*
Y4113295D01*
X7855581D01*
Y4115071D01*
X7857358D01*
Y4118624D01*
X7859135D01*
Y4120401D01*
X7860911D01*
Y4123954D01*
X7862688D01*
Y4125731D01*
X7864465D01*
Y4127508D01*
X7866241D01*
Y4131061D01*
X7868018D01*
Y4132838D01*
X7864465D01*
Y4134614D01*
X7859135D01*
Y4136391D01*
X7853805D01*
Y4138168D01*
X7850251D01*
Y4139944D01*
X7844921D01*
Y4141721D01*
X7839591D01*
Y4143498D01*
X7834261D01*
Y4145274D01*
X7830708D01*
Y4147051D01*
X7825378D01*
Y4148828D01*
X7820048D01*
Y4150604D01*
X7816495D01*
Y4152381D01*
X7811165D01*
Y4154158D01*
X7805835D01*
Y4155934D01*
X7800505D01*
Y4157711D01*
X7796952D01*
Y4159487D01*
X7791622D01*
Y4161264D01*
X7786292D01*
Y4163041D01*
X7780962D01*
Y4164817D01*
D02*
G37*
G36*
X7331469D02*
X7324363D01*
Y4163041D01*
X7319033D01*
Y4161264D01*
X7313703D01*
Y4159487D01*
X7308373D01*
Y4157711D01*
X7304820D01*
Y4155934D01*
X7299490D01*
Y4154158D01*
X7294160D01*
Y4152381D01*
X7290607D01*
Y4150604D01*
X7285277D01*
Y4148828D01*
X7279947D01*
Y4147051D01*
X7274617D01*
Y4145274D01*
X7271063D01*
Y4143498D01*
X7265734D01*
Y4141721D01*
X7260404D01*
Y4139944D01*
X7256850D01*
Y4138168D01*
X7251520D01*
Y4136391D01*
X7246190D01*
Y4134614D01*
X7240860D01*
Y4132838D01*
X7239084D01*
Y4129284D01*
X7240860D01*
Y4127508D01*
X7242637D01*
Y4123954D01*
X7244414D01*
Y4122178D01*
X7246190D01*
Y4118624D01*
X7247967D01*
Y4116848D01*
X7249744D01*
Y4115071D01*
X7251520D01*
Y4111518D01*
X7253297D01*
Y4109741D01*
X7255074D01*
Y4107965D01*
X7256850D01*
Y4109741D01*
X7263957D01*
Y4111518D01*
X7272840D01*
Y4113295D01*
X7279947D01*
Y4115071D01*
X7287053D01*
Y4116848D01*
X7295937D01*
Y4118624D01*
X7303043D01*
Y4120401D01*
X7310150D01*
Y4122178D01*
X7317256D01*
Y4123954D01*
X7326140D01*
Y4125731D01*
X7343906D01*
Y4123954D01*
X7347459D01*
Y4122178D01*
X7351013D01*
Y4120401D01*
X7354566D01*
Y4118624D01*
X7356343D01*
Y4116848D01*
X7358119D01*
Y4115071D01*
X7359896D01*
Y4113295D01*
X7361673D01*
Y4111518D01*
X7363449D01*
Y4109741D01*
X7365226D01*
Y4106188D01*
X7367003D01*
Y4104411D01*
X7368779D01*
Y4102635D01*
X7370556D01*
Y4100858D01*
X7372332D01*
Y4099081D01*
X7374109D01*
Y4097305D01*
X7375886D01*
Y4095528D01*
X7377662D01*
Y4093752D01*
X7379439D01*
Y4091975D01*
X7381216D01*
Y4090198D01*
X7382992D01*
Y4088422D01*
X7384769D01*
Y4084868D01*
X7386546D01*
Y4083092D01*
X7388322D01*
Y4081315D01*
X7390099D01*
Y4079538D01*
X7391876D01*
Y4077762D01*
X7393652D01*
Y4072432D01*
X7395429D01*
Y4058218D01*
X7393652D01*
Y4052889D01*
X7391876D01*
Y4051112D01*
X7390099D01*
Y4049335D01*
X7388322D01*
Y4047559D01*
X7386546D01*
Y4045782D01*
X7384769D01*
Y4042229D01*
X7382992D01*
Y4040452D01*
X7381216D01*
Y4038675D01*
X7379439D01*
Y4036899D01*
X7377662D01*
Y4035122D01*
X7375886D01*
Y4033345D01*
X7374109D01*
Y4031569D01*
X7372332D01*
Y4029792D01*
X7370556D01*
Y4028015D01*
X7368779D01*
Y4026239D01*
X7367003D01*
Y4024462D01*
X7365226D01*
Y4022685D01*
X7363449D01*
Y4019132D01*
X7361673D01*
Y4017355D01*
X7359896D01*
Y4015579D01*
X7358119D01*
Y4013802D01*
X7356343D01*
Y4012026D01*
X7354566D01*
Y4010249D01*
X7351013D01*
Y4008472D01*
X7347459D01*
Y4006696D01*
X7343906D01*
Y4004919D01*
X7324363D01*
Y4006696D01*
X7317256D01*
Y4008472D01*
X7310150D01*
Y4010249D01*
X7301267D01*
Y4012026D01*
X7294160D01*
Y4013802D01*
X7287053D01*
Y4015579D01*
X7278170D01*
Y4017355D01*
X7271063D01*
Y4019132D01*
X7263957D01*
Y4020909D01*
X7256850D01*
Y4022685D01*
X7255074D01*
Y4020909D01*
X7253297D01*
Y4019132D01*
X7251520D01*
Y4015579D01*
X7249744D01*
Y4013802D01*
X7247967D01*
Y4012026D01*
X7246190D01*
Y4008472D01*
X7244414D01*
Y4006696D01*
X7242637D01*
Y4003142D01*
X7240860D01*
Y4001366D01*
X7239084D01*
Y3997812D01*
X7240860D01*
Y3996036D01*
X7246190D01*
Y3994259D01*
X7249744D01*
Y3992482D01*
X7255074D01*
Y3990706D01*
X7260404D01*
Y3988929D01*
X7265734D01*
Y3987153D01*
X7269287D01*
Y3985376D01*
X7274617D01*
Y3983599D01*
X7279947D01*
Y3981823D01*
X7283500D01*
Y3980046D01*
X7288830D01*
Y3978269D01*
X7294160D01*
Y3976492D01*
X7299490D01*
Y3974716D01*
X7303043D01*
Y3972939D01*
X7308373D01*
Y3971162D01*
X7313703D01*
Y3969386D01*
X7317256D01*
Y3967609D01*
X7322586D01*
Y3965833D01*
X7335023D01*
Y3967609D01*
X7338576D01*
Y3969386D01*
X7343906D01*
Y3971162D01*
X7349236D01*
Y3972939D01*
X7354566D01*
Y3974716D01*
X7358119D01*
Y3976492D01*
X7363449D01*
Y3978269D01*
X7368779D01*
Y3980046D01*
X7372332D01*
Y3981823D01*
X7377662D01*
Y3983599D01*
X7382992D01*
Y3985376D01*
X7386546D01*
Y3987153D01*
X7391876D01*
Y3988929D01*
X7397206D01*
Y3990706D01*
X7402536D01*
Y3992482D01*
X7406089D01*
Y3994259D01*
X7411419D01*
Y3996036D01*
X7416749D01*
Y3997812D01*
X7420302D01*
Y3999589D01*
X7425632D01*
Y4001366D01*
X7429185D01*
Y4079538D01*
X7427409D01*
Y4129284D01*
X7423855D01*
Y4131061D01*
X7420302D01*
Y4132838D01*
X7414972D01*
Y4134614D01*
X7409642D01*
Y4136391D01*
X7406089D01*
Y4138168D01*
X7400759D01*
Y4139944D01*
X7395429D01*
Y4141721D01*
X7390099D01*
Y4143498D01*
X7386546D01*
Y4145274D01*
X7381216D01*
Y4147051D01*
X7375886D01*
Y4148828D01*
X7372332D01*
Y4150604D01*
X7367003D01*
Y4152381D01*
X7361673D01*
Y4154158D01*
X7356343D01*
Y4155934D01*
X7352789D01*
Y4157711D01*
X7347459D01*
Y4159487D01*
X7342129D01*
Y4161264D01*
X7336799D01*
Y4163041D01*
X7331469D01*
Y4164817D01*
D02*
G37*
G36*
X7576647Y3948066D02*
X7573094D01*
Y3946290D01*
X7567764D01*
Y3944513D01*
X7562434D01*
Y3942736D01*
X7558881D01*
Y3940960D01*
X7553551D01*
Y3939183D01*
X7551774D01*
Y3940960D01*
X7546444D01*
Y3942736D01*
X7541114D01*
Y3944513D01*
X7537561D01*
Y3946290D01*
X7532231D01*
Y3948066D01*
X7528678D01*
Y3946290D01*
X7523348D01*
Y3944513D01*
X7519794D01*
Y3942736D01*
X7514465D01*
Y3940960D01*
X7509135D01*
Y3939183D01*
X7503805D01*
Y3937406D01*
X7500251D01*
Y3935630D01*
X7494921D01*
Y3933853D01*
X7489591D01*
Y3932076D01*
X7486038D01*
Y3930300D01*
X7480708D01*
Y3928523D01*
X7475378D01*
Y3926746D01*
X7470048D01*
Y3924970D01*
X7466495D01*
Y3923193D01*
X7461165D01*
Y3921416D01*
X7455835D01*
Y3919640D01*
X7452282D01*
Y3917863D01*
X7446952D01*
Y3916086D01*
X7448729D01*
Y3914310D01*
X7454058D01*
Y3912533D01*
X7457612D01*
Y3910756D01*
X7462942D01*
Y3908980D01*
X7468272D01*
Y3907203D01*
X7473602D01*
Y3905427D01*
X7477155D01*
Y3903650D01*
X7482485D01*
Y3901873D01*
X7487815D01*
Y3900097D01*
X7493145D01*
Y3898320D01*
X7496698D01*
Y3896543D01*
X7502028D01*
Y3894767D01*
X7507358D01*
Y3892990D01*
X7512688D01*
Y3891213D01*
X7516241D01*
Y3889437D01*
X7521571D01*
Y3887660D01*
X7526901D01*
Y3885884D01*
X7530454D01*
Y3884107D01*
X7535784D01*
Y3882330D01*
X7541114D01*
Y3880553D01*
X7546444D01*
Y3878777D01*
X7549998D01*
Y3877000D01*
X7555328D01*
Y3878777D01*
X7560657D01*
Y3880553D01*
X7564211D01*
Y3882330D01*
X7569541D01*
Y3884107D01*
X7574871D01*
Y3885884D01*
X7578424D01*
Y3887660D01*
X7583754D01*
Y3889437D01*
X7589084D01*
Y3891213D01*
X7594414D01*
Y3892990D01*
X7597967D01*
Y3894767D01*
X7603297D01*
Y3896543D01*
X7608627D01*
Y3898320D01*
X7612180D01*
Y3900097D01*
X7617510D01*
Y3901873D01*
X7622840D01*
Y3903650D01*
X7628170D01*
Y3905427D01*
X7631723D01*
Y3907203D01*
X7637053D01*
Y3908980D01*
X7642383D01*
Y3910756D01*
X7645937D01*
Y3912533D01*
X7651267D01*
Y3914310D01*
X7656597D01*
Y3916086D01*
X7658373D01*
Y3917863D01*
X7654820D01*
Y3919640D01*
X7649490D01*
Y3921416D01*
X7644160D01*
Y3923193D01*
X7640607D01*
Y3924970D01*
X7635277D01*
Y3926746D01*
X7629947D01*
Y3928523D01*
X7624617D01*
Y3930300D01*
X7621063D01*
Y3932076D01*
X7615734D01*
Y3933853D01*
X7610404D01*
Y3935630D01*
X7605074D01*
Y3937406D01*
X7601520D01*
Y3939183D01*
X7596190D01*
Y3940960D01*
X7590860D01*
Y3942736D01*
X7587307D01*
Y3944513D01*
X7581977D01*
Y3946290D01*
X7576647D01*
Y3948066D01*
D02*
G37*
G36*
X7681470Y3983599D02*
X7672586D01*
Y3981823D01*
X7667256D01*
Y3980046D01*
X7663703D01*
Y3978269D01*
X7658373D01*
Y3976492D01*
X7653043D01*
Y3974716D01*
X7647713D01*
Y3972939D01*
X7642383D01*
Y3971162D01*
X7638830D01*
Y3969386D01*
X7633500D01*
Y3967609D01*
X7628170D01*
Y3965833D01*
X7622840D01*
Y3964056D01*
X7619287D01*
Y3962279D01*
X7613957D01*
Y3960503D01*
X7608627D01*
Y3958726D01*
X7603297D01*
Y3956949D01*
X7599744D01*
Y3955173D01*
X7601520D01*
Y3953396D01*
X7606850D01*
Y3951619D01*
X7612180D01*
Y3949843D01*
X7617510D01*
Y3948066D01*
X7621063D01*
Y3946290D01*
X7626393D01*
Y3944513D01*
X7631723D01*
Y3942736D01*
X7637053D01*
Y3940960D01*
X7640607D01*
Y3939183D01*
X7645937D01*
Y3937406D01*
X7651267D01*
Y3935630D01*
X7656597D01*
Y3933853D01*
X7660150D01*
Y3932076D01*
X7665480D01*
Y3930300D01*
X7670810D01*
Y3928523D01*
X7677916D01*
Y3930300D01*
X7683246D01*
Y3932076D01*
X7688576D01*
Y3933853D01*
X7692129D01*
Y3935630D01*
X7697459D01*
Y3937406D01*
X7702790D01*
Y3939183D01*
X7706343D01*
Y3940960D01*
X7711673D01*
Y3942736D01*
X7715226D01*
Y3944513D01*
X7720556D01*
Y3946290D01*
X7725886D01*
Y3948066D01*
X7729439D01*
Y3949843D01*
X7734769D01*
Y3951619D01*
X7740099D01*
Y3953396D01*
X7743652D01*
Y3955173D01*
X7748982D01*
Y3958726D01*
X7743652D01*
Y3960503D01*
X7738322D01*
Y3962279D01*
X7734769D01*
Y3964056D01*
X7729439D01*
Y3965833D01*
X7724109D01*
Y3967609D01*
X7720556D01*
Y3969386D01*
X7715226D01*
Y3971162D01*
X7709896D01*
Y3972939D01*
X7704566D01*
Y3974716D01*
X7701013D01*
Y3976492D01*
X7695683D01*
Y3978269D01*
X7690353D01*
Y3980046D01*
X7686799D01*
Y3981823D01*
X7681470D01*
Y3983599D01*
D02*
G37*
G36*
X7436292D02*
X7425632D01*
Y3981823D01*
X7422079D01*
Y3980046D01*
X7416749D01*
Y3978269D01*
X7411419D01*
Y3976492D01*
X7406089D01*
Y3974716D01*
X7402536D01*
Y3972939D01*
X7397206D01*
Y3971162D01*
X7391876D01*
Y3969386D01*
X7388322D01*
Y3967609D01*
X7382992D01*
Y3965833D01*
X7377662D01*
Y3964056D01*
X7374109D01*
Y3962279D01*
X7368779D01*
Y3960503D01*
X7363449D01*
Y3958726D01*
X7358119D01*
Y3956949D01*
X7356343D01*
Y3955173D01*
X7361673D01*
Y3953396D01*
X7367003D01*
Y3951619D01*
X7370556D01*
Y3949843D01*
X7375886D01*
Y3948066D01*
X7381216D01*
Y3946290D01*
X7384769D01*
Y3944513D01*
X7390099D01*
Y3942736D01*
X7393652D01*
Y3940960D01*
X7398982D01*
Y3939183D01*
X7404312D01*
Y3937406D01*
X7407866D01*
Y3935630D01*
X7413195D01*
Y3933853D01*
X7416749D01*
Y3932076D01*
X7422079D01*
Y3930300D01*
X7427409D01*
Y3928523D01*
X7432738D01*
Y3930300D01*
X7436292D01*
Y3932076D01*
X7441622D01*
Y3933853D01*
X7446952D01*
Y3935630D01*
X7452282D01*
Y3937406D01*
X7455835D01*
Y3939183D01*
X7461165D01*
Y3940960D01*
X7466495D01*
Y3942736D01*
X7471825D01*
Y3944513D01*
X7475378D01*
Y3946290D01*
X7480708D01*
Y3948066D01*
X7486038D01*
Y3949843D01*
X7491368D01*
Y3951619D01*
X7494921D01*
Y3953396D01*
X7500251D01*
Y3955173D01*
X7505581D01*
Y3958726D01*
X7500251D01*
Y3960503D01*
X7496698D01*
Y3962279D01*
X7491368D01*
Y3964056D01*
X7486038D01*
Y3965833D01*
X7480708D01*
Y3967609D01*
X7475378D01*
Y3969386D01*
X7471825D01*
Y3971162D01*
X7466495D01*
Y3972939D01*
X7461165D01*
Y3974716D01*
X7455835D01*
Y3976492D01*
X7452282D01*
Y3978269D01*
X7446952D01*
Y3980046D01*
X7441622D01*
Y3981823D01*
X7436292D01*
Y3983599D01*
D02*
G37*
G36*
X7782739Y3948066D02*
X7772079D01*
Y3946290D01*
X7768525D01*
Y3944513D01*
X7763196D01*
Y3942736D01*
X7757866D01*
Y3940960D01*
X7754312D01*
Y3939183D01*
X7748982D01*
Y3937406D01*
X7745429D01*
Y3935630D01*
X7740099D01*
Y3933853D01*
X7734769D01*
Y3932076D01*
X7731216D01*
Y3930300D01*
X7725886D01*
Y3928523D01*
X7722333D01*
Y3926746D01*
X7717003D01*
Y3924970D01*
X7711673D01*
Y3923193D01*
X7708119D01*
Y3921416D01*
X7702790D01*
Y3919640D01*
X7699236D01*
Y3917863D01*
X7693906D01*
Y3916086D01*
X7688576D01*
Y3914310D01*
X7685023D01*
Y3912533D01*
X7679693D01*
Y3910756D01*
X7677916D01*
Y3777508D01*
X7681470D01*
Y3775731D01*
X7686799D01*
Y3773954D01*
X7692129D01*
Y3772178D01*
X7695683D01*
Y3770401D01*
X7701013D01*
Y3768624D01*
X7704566D01*
Y3766848D01*
X7709896D01*
Y3765071D01*
X7715226D01*
Y3763294D01*
X7718779D01*
Y3761518D01*
X7724109D01*
Y3759741D01*
X7727662D01*
Y3757965D01*
X7732992D01*
Y3756188D01*
X7738322D01*
Y3754411D01*
X7741876D01*
Y3752635D01*
X7747206D01*
Y3750858D01*
X7750759D01*
Y3749081D01*
X7756089D01*
Y3747305D01*
X7761419D01*
Y3745528D01*
X7764972D01*
Y3743751D01*
X7770302D01*
Y3741975D01*
X7773855D01*
Y3740198D01*
X7779185D01*
Y3741975D01*
X7784515D01*
Y3743751D01*
X7789845D01*
Y3745528D01*
X7793398D01*
Y3747305D01*
X7798729D01*
Y3749081D01*
X7802282D01*
Y3750858D01*
X7807612D01*
Y3752635D01*
X7812942D01*
Y3754411D01*
X7816495D01*
Y3756188D01*
X7821825D01*
Y3757965D01*
X7827155D01*
Y3759741D01*
X7830708D01*
Y3761518D01*
X7836038D01*
Y3763294D01*
X7839591D01*
Y3765071D01*
X7844921D01*
Y3766848D01*
X7850251D01*
Y3768624D01*
X7853805D01*
Y3770401D01*
X7859135D01*
Y3772178D01*
X7862688D01*
Y3773954D01*
X7868018D01*
Y3775731D01*
X7866241D01*
Y3779284D01*
X7864465D01*
Y3781061D01*
X7862688D01*
Y3784614D01*
X7860911D01*
Y3786391D01*
X7859135D01*
Y3789944D01*
X7857358D01*
Y3791721D01*
X7855581D01*
Y3793498D01*
X7853805D01*
Y3797051D01*
X7852028D01*
Y3798828D01*
X7843145D01*
Y3797051D01*
X7836038D01*
Y3795274D01*
X7828932D01*
Y3793498D01*
X7821825D01*
Y3791721D01*
X7814718D01*
Y3789944D01*
X7807612D01*
Y3788168D01*
X7800505D01*
Y3786391D01*
X7793398D01*
Y3784614D01*
X7786292D01*
Y3782838D01*
X7777409D01*
Y3781061D01*
X7764972D01*
Y3782838D01*
X7759642D01*
Y3784614D01*
X7756089D01*
Y3786391D01*
X7752536D01*
Y3788168D01*
X7750759D01*
Y3789944D01*
X7748982D01*
Y3791721D01*
X7747206D01*
Y3793498D01*
X7745429D01*
Y3795274D01*
X7743652D01*
Y3797051D01*
X7741876D01*
Y3800604D01*
X7740099D01*
Y3802381D01*
X7738322D01*
Y3804157D01*
X7736546D01*
Y3805934D01*
X7734769D01*
Y3807711D01*
X7732992D01*
Y3809487D01*
X7731216D01*
Y3811264D01*
X7729439D01*
Y3813041D01*
X7727662D01*
Y3816594D01*
X7725886D01*
Y3818371D01*
X7724109D01*
Y3820147D01*
X7722333D01*
Y3821924D01*
X7720556D01*
Y3823701D01*
X7718779D01*
Y3825477D01*
X7717003D01*
Y3827254D01*
X7715226D01*
Y3830807D01*
X7713449D01*
Y3832584D01*
X7711673D01*
Y3837914D01*
X7709896D01*
Y3850350D01*
X7711673D01*
Y3855680D01*
X7713449D01*
Y3859234D01*
X7715226D01*
Y3861010D01*
X7717003D01*
Y3862787D01*
X7718779D01*
Y3864564D01*
X7720556D01*
Y3866340D01*
X7722333D01*
Y3868117D01*
X7724109D01*
Y3871670D01*
X7725886D01*
Y3873447D01*
X7727662D01*
Y3875223D01*
X7729439D01*
Y3877000D01*
X7731216D01*
Y3878777D01*
X7732992D01*
Y3880553D01*
X7734769D01*
Y3882330D01*
X7736546D01*
Y3885884D01*
X7738322D01*
Y3887660D01*
X7740099D01*
Y3889437D01*
X7741876D01*
Y3891213D01*
X7743652D01*
Y3892990D01*
X7745429D01*
Y3894767D01*
X7747206D01*
Y3896543D01*
X7748982D01*
Y3898320D01*
X7750759D01*
Y3900097D01*
X7752536D01*
Y3901873D01*
X7754312D01*
Y3903650D01*
X7757866D01*
Y3905427D01*
X7763196D01*
Y3907203D01*
X7780962D01*
Y3905427D01*
X7788068D01*
Y3903650D01*
X7795175D01*
Y3901873D01*
X7802282D01*
Y3900097D01*
X7809388D01*
Y3898320D01*
X7816495D01*
Y3896543D01*
X7823602D01*
Y3894767D01*
X7830708D01*
Y3892990D01*
X7839591D01*
Y3891213D01*
X7846698D01*
Y3889437D01*
X7852028D01*
Y3891213D01*
X7853805D01*
Y3894767D01*
X7855581D01*
Y3896543D01*
X7857358D01*
Y3900097D01*
X7859135D01*
Y3901873D01*
X7860911D01*
Y3905427D01*
X7862688D01*
Y3907203D01*
X7864465D01*
Y3910756D01*
X7866241D01*
Y3912533D01*
X7868018D01*
Y3914310D01*
X7864465D01*
Y3916086D01*
X7860911D01*
Y3917863D01*
X7855581D01*
Y3919640D01*
X7852028D01*
Y3921416D01*
X7846698D01*
Y3923193D01*
X7841368D01*
Y3924970D01*
X7837815D01*
Y3926746D01*
X7832485D01*
Y3928523D01*
X7828932D01*
Y3930300D01*
X7823602D01*
Y3932076D01*
X7818272D01*
Y3933853D01*
X7814718D01*
Y3935630D01*
X7809388D01*
Y3937406D01*
X7805835D01*
Y3939183D01*
X7800505D01*
Y3940960D01*
X7795175D01*
Y3942736D01*
X7791622D01*
Y3944513D01*
X7786292D01*
Y3946290D01*
X7782739D01*
Y3948066D01*
D02*
G37*
G36*
X7333246D02*
X7322586D01*
Y3946290D01*
X7319033D01*
Y3944513D01*
X7313703D01*
Y3942736D01*
X7310150D01*
Y3940960D01*
X7304820D01*
Y3939183D01*
X7299490D01*
Y3937406D01*
X7295937D01*
Y3935630D01*
X7290607D01*
Y3933853D01*
X7287053D01*
Y3932076D01*
X7281723D01*
Y3930300D01*
X7276393D01*
Y3928523D01*
X7272840D01*
Y3926746D01*
X7267510D01*
Y3924970D01*
X7263957D01*
Y3923193D01*
X7258627D01*
Y3921416D01*
X7253297D01*
Y3919640D01*
X7249744D01*
Y3917863D01*
X7244414D01*
Y3916086D01*
X7239084D01*
Y3910756D01*
X7240860D01*
Y3908980D01*
X7242637D01*
Y3905427D01*
X7244414D01*
Y3903650D01*
X7246190D01*
Y3900097D01*
X7247967D01*
Y3898320D01*
X7249744D01*
Y3894767D01*
X7251520D01*
Y3892990D01*
X7253297D01*
Y3889437D01*
X7258627D01*
Y3891213D01*
X7265734D01*
Y3892990D01*
X7272840D01*
Y3894767D01*
X7279947D01*
Y3896543D01*
X7288830D01*
Y3898320D01*
X7295937D01*
Y3900097D01*
X7303043D01*
Y3901873D01*
X7310150D01*
Y3903650D01*
X7317256D01*
Y3905427D01*
X7324363D01*
Y3907203D01*
X7343906D01*
Y3905427D01*
X7347459D01*
Y3903650D01*
X7351013D01*
Y3901873D01*
X7352789D01*
Y3900097D01*
X7356343D01*
Y3898320D01*
X7358119D01*
Y3894767D01*
X7359896D01*
Y3892990D01*
X7361673D01*
Y3891213D01*
X7363449D01*
Y3889437D01*
X7365226D01*
Y3887660D01*
X7367003D01*
Y3885884D01*
X7368779D01*
Y3884107D01*
X7370556D01*
Y3880553D01*
X7372332D01*
Y3878777D01*
X7374109D01*
Y3877000D01*
X7375886D01*
Y3875223D01*
X7377662D01*
Y3873447D01*
X7379439D01*
Y3871670D01*
X7381216D01*
Y3869893D01*
X7382992D01*
Y3868117D01*
X7384769D01*
Y3864564D01*
X7386546D01*
Y3862787D01*
X7388322D01*
Y3861010D01*
X7390099D01*
Y3859234D01*
X7391876D01*
Y3855680D01*
X7393652D01*
Y3850350D01*
X7395429D01*
Y3837914D01*
X7393652D01*
Y3832584D01*
X7391876D01*
Y3830807D01*
X7390099D01*
Y3827254D01*
X7388322D01*
Y3825477D01*
X7386546D01*
Y3823701D01*
X7384769D01*
Y3821924D01*
X7382992D01*
Y3820147D01*
X7381216D01*
Y3818371D01*
X7379439D01*
Y3816594D01*
X7377662D01*
Y3813041D01*
X7375886D01*
Y3811264D01*
X7374109D01*
Y3809487D01*
X7372332D01*
Y3807711D01*
X7370556D01*
Y3805934D01*
X7368779D01*
Y3804157D01*
X7367003D01*
Y3802381D01*
X7365226D01*
Y3800604D01*
X7363449D01*
Y3797051D01*
X7361673D01*
Y3795274D01*
X7359896D01*
Y3793498D01*
X7358119D01*
Y3791721D01*
X7356343D01*
Y3789944D01*
X7354566D01*
Y3788168D01*
X7352789D01*
Y3786391D01*
X7349236D01*
Y3784614D01*
X7345683D01*
Y3782838D01*
X7340353D01*
Y3781061D01*
X7327916D01*
Y3782838D01*
X7320810D01*
Y3784614D01*
X7313703D01*
Y3786391D01*
X7306597D01*
Y3788168D01*
X7299490D01*
Y3789944D01*
X7292383D01*
Y3791721D01*
X7285277D01*
Y3793498D01*
X7276393D01*
Y3795274D01*
X7269287D01*
Y3797051D01*
X7262180D01*
Y3798828D01*
X7253297D01*
Y3797051D01*
X7251520D01*
Y3793498D01*
X7249744D01*
Y3791721D01*
X7247967D01*
Y3789944D01*
X7246190D01*
Y3786391D01*
X7244414D01*
Y3784614D01*
X7242637D01*
Y3781061D01*
X7240860D01*
Y3779284D01*
X7239084D01*
Y3775731D01*
X7237307D01*
Y3773954D01*
X7242637D01*
Y3772178D01*
X7247967D01*
Y3770401D01*
X7251520D01*
Y3768624D01*
X7256850D01*
Y3766848D01*
X7260404D01*
Y3765071D01*
X7265734D01*
Y3763294D01*
X7271063D01*
Y3761518D01*
X7274617D01*
Y3759741D01*
X7279947D01*
Y3757965D01*
X7283500D01*
Y3756188D01*
X7288830D01*
Y3754411D01*
X7294160D01*
Y3752635D01*
X7297713D01*
Y3750858D01*
X7303043D01*
Y3749081D01*
X7306597D01*
Y3747305D01*
X7311926D01*
Y3745528D01*
X7317256D01*
Y3743751D01*
X7320810D01*
Y3741975D01*
X7326140D01*
Y3740198D01*
X7329693D01*
Y3741975D01*
X7335023D01*
Y3743751D01*
X7340353D01*
Y3745528D01*
X7343906D01*
Y3747305D01*
X7349236D01*
Y3749081D01*
X7352789D01*
Y3750858D01*
X7358119D01*
Y3752635D01*
X7363449D01*
Y3754411D01*
X7367003D01*
Y3756188D01*
X7372332D01*
Y3757965D01*
X7377662D01*
Y3759741D01*
X7381216D01*
Y3761518D01*
X7386546D01*
Y3763294D01*
X7390099D01*
Y3765071D01*
X7395429D01*
Y3766848D01*
X7400759D01*
Y3768624D01*
X7404312D01*
Y3770401D01*
X7409642D01*
Y3772178D01*
X7413195D01*
Y3773954D01*
X7418525D01*
Y3775731D01*
X7423855D01*
Y3777508D01*
X7427409D01*
Y3910756D01*
X7425632D01*
Y3912533D01*
X7422079D01*
Y3914310D01*
X7416749D01*
Y3916086D01*
X7411419D01*
Y3917863D01*
X7407866D01*
Y3919640D01*
X7402536D01*
Y3921416D01*
X7398982D01*
Y3923193D01*
X7393652D01*
Y3924970D01*
X7388322D01*
Y3926746D01*
X7384769D01*
Y3928523D01*
X7379439D01*
Y3930300D01*
X7375886D01*
Y3932076D01*
X7370556D01*
Y3933853D01*
X7365226D01*
Y3935630D01*
X7361673D01*
Y3937406D01*
X7356343D01*
Y3939183D01*
X7352789D01*
Y3940960D01*
X7347459D01*
Y3942736D01*
X7342129D01*
Y3944513D01*
X7338576D01*
Y3946290D01*
X7333246D01*
Y3948066D01*
D02*
G37*
%LPD*%
D61*
X2752500Y7797500D02*
X2952500D01*
X2752500Y8512500D02*
X2952500D01*
Y7797500D02*
Y8512500D01*
X2752500Y7797500D02*
Y8512500D01*
X7550000Y7777500D02*
X7750000D01*
X7550000Y8515000D02*
X7750000D01*
Y7777500D02*
Y8515000D01*
X7550000Y7777500D02*
Y8515000D01*
X7352500Y7777500D02*
X7552500D01*
X7352500Y8515000D02*
X7552500D01*
Y7777500D02*
Y8515000D01*
X7352500Y7777500D02*
Y8515000D01*
X7750000Y7777500D02*
X7950000D01*
X7750000Y8515000D02*
X7950000D01*
Y7777500D02*
Y8515000D01*
X7750000Y7777500D02*
Y8515000D01*
X2950000Y7797500D02*
X3150000D01*
X2950000Y8512500D02*
X3150000D01*
Y7797500D02*
Y8512500D01*
X2950000Y7797500D02*
Y8512500D01*
X3150000Y7797500D02*
X3350000D01*
X3150000Y8512500D02*
X3350000D01*
Y7797500D02*
Y8512500D01*
X3150000Y7797500D02*
Y8512500D01*
X7950000Y7777500D02*
X8149999D01*
X7950000Y8515000D02*
X8149999D01*
Y7777500D02*
Y8515000D01*
X7950000Y7777500D02*
Y8515000D01*
X3350000Y7797500D02*
X3550000D01*
X3350000Y8512500D02*
X3550000D01*
Y7797500D02*
Y8512500D01*
X3350000Y7797500D02*
Y8512500D01*
X8149999Y7777500D02*
X8349999D01*
X8149999Y8515000D02*
X8349999D01*
Y7777500D02*
Y8515000D01*
X8149999Y7777500D02*
Y8515000D01*
X3550000Y7797500D02*
X3750000D01*
X3550000Y8512500D02*
X3750000D01*
Y7797500D02*
Y8512500D01*
X3550000Y7797500D02*
Y8512500D01*
X6718529Y3209402D02*
Y3285282D01*
X6878528Y3209417D02*
Y3285282D01*
X6718529Y3085277D02*
Y3161157D01*
X6878528Y3085277D02*
Y3161142D01*
X5459999Y4120002D02*
Y4195862D01*
X5300000Y4120002D02*
Y4195882D01*
X5459999Y4244142D02*
Y4320002D01*
X5300000Y4244122D02*
Y4320002D01*
X4720001Y3970000D02*
X4920000D01*
X4720001Y3830000D02*
X4920000D01*
X6174415Y2810586D02*
X6374414D01*
X6174415Y2950586D02*
X6374414D01*
X5934141Y3860002D02*
X6010001D01*
X5934121Y3699998D02*
X6010001D01*
X5810001Y3860002D02*
X5885861D01*
X5810001Y3699998D02*
X5885881D01*
X6480002Y3799139D02*
Y3874999D01*
X6640002Y3799119D02*
Y3874999D01*
X6480002Y3674999D02*
Y3750859D01*
X6640002Y3674999D02*
Y3750879D01*
X7520000Y2564999D02*
Y2732502D01*
X7324999Y2562499D02*
Y2735001D01*
X7122500Y2552502D02*
Y2732502D01*
X7520000Y3102498D02*
Y3279999D01*
X7324999Y3102498D02*
Y3279999D01*
X7125000Y3099999D02*
Y3282498D01*
X7852501Y4795002D02*
X8052501D01*
X7852501Y4655002D02*
X8052501D01*
X3754999Y4775002D02*
Y4850862D01*
X3594999Y4775002D02*
Y4850882D01*
X3754999Y4899142D02*
Y4975001D01*
X3594999Y4899122D02*
Y4975001D01*
X7549998Y5825002D02*
X7625862D01*
X7549998Y5985002D02*
X7625878D01*
X7674138Y5825002D02*
X7750002D01*
X7674122Y5985002D02*
X7750002D01*
X3649142Y4704999D02*
X3725001D01*
X3649121Y4545000D02*
X3725001D01*
X3525002Y4704999D02*
X3600861D01*
X3525002Y4545000D02*
X3600882D01*
X7527498Y4795002D02*
X7727498D01*
X7527498Y4655002D02*
X7727498D01*
X8244997Y5024140D02*
Y5100000D01*
X8405002Y5024120D02*
Y5100000D01*
X8244997Y4900000D02*
Y4975860D01*
X8405002Y4900000D02*
Y4975880D01*
X8055000Y6305001D02*
Y6380861D01*
X7895001Y6305001D02*
Y6380881D01*
X8055000Y6429141D02*
Y6505001D01*
X7895001Y6429121D02*
Y6505001D01*
X3619998Y4174119D02*
Y4249999D01*
X3780003Y4174139D02*
Y4249999D01*
X3619998Y4050000D02*
Y4125879D01*
X3780003Y4050000D02*
Y4125859D01*
X5924118Y4429999D02*
X5999998D01*
X5924139Y4269999D02*
X5999998D01*
X5799999Y4429999D02*
X5875879D01*
X5799999Y4269999D02*
X5875858D01*
X4000002Y3930000D02*
X4200002D01*
X4000002Y4069999D02*
X4200002D01*
X4000002Y4129999D02*
X4200002D01*
X4000002Y4269999D02*
X4200002D01*
X5934121Y4030000D02*
X6010001D01*
X5934141Y3870000D02*
X6010001D01*
X5810001Y4030000D02*
X5885881D01*
X5810001Y3870000D02*
X5885861D01*
X5639999Y3659998D02*
Y3679998D01*
Y3479998D02*
Y3499998D01*
X7049999Y2930002D02*
X7249998D01*
X7049999Y3070001D02*
X7249998D01*
X7895001Y5629118D02*
Y5704997D01*
X8055000Y5629138D02*
Y5704997D01*
X7895001Y5504998D02*
Y5580878D01*
X8055000Y5504998D02*
Y5580858D01*
X5095001Y5499120D02*
Y5575000D01*
X5255001Y5499141D02*
Y5575000D01*
X5095001Y5375001D02*
Y5450881D01*
X5255001Y5375001D02*
Y5450860D01*
X7400000Y3070001D02*
X7600000D01*
X7400000Y2930002D02*
X7600000D01*
X8108690Y3215400D02*
X8008723D01*
X8042045D01*
X8108690Y3282045D01*
X8058707Y3232061D01*
X8008723Y3282045D01*
X8108690Y3315368D02*
X8008723D01*
X8058707D01*
X8075368Y3332029D01*
Y3365352D01*
X8058707Y3382013D01*
X8008723D01*
X8075368Y3415336D02*
X8008723D01*
X8042045D01*
X8058707Y3431997D01*
X8075368Y3448658D01*
Y3465319D01*
X8008723Y3515303D02*
Y3548626D01*
Y3531965D01*
X8075368D01*
Y3515303D01*
X7975400Y3598610D02*
X8075368D01*
Y3648594D01*
X8058707Y3665255D01*
X8025384D01*
X8008723Y3648594D01*
Y3598610D01*
Y3698578D02*
X8108690D01*
X8042045D02*
X8075368Y3748561D01*
X8042045Y3698578D02*
X8008723Y3748561D01*
Y3798545D02*
Y3831868D01*
Y3815207D01*
X8075368D01*
Y3798545D01*
X8008723Y3881852D02*
X8075368D01*
Y3931836D01*
X8058707Y3948497D01*
X8008723D01*
X8438690Y3205400D02*
X8338722D01*
Y3255384D01*
X8355384Y3272045D01*
X8422029D01*
X8438690Y3255384D01*
Y3205400D01*
X8338722Y3355352D02*
Y3322029D01*
X8355384Y3305368D01*
X8388706D01*
X8405367Y3322029D01*
Y3355352D01*
X8388706Y3372013D01*
X8372045D01*
Y3305368D01*
X8338722Y3405336D02*
Y3455320D01*
X8355384Y3471981D01*
X8372045Y3455320D01*
Y3421997D01*
X8388706Y3405336D01*
X8405367Y3421997D01*
Y3471981D01*
X8338722Y3505304D02*
Y3538626D01*
Y3521965D01*
X8405367D01*
Y3505304D01*
X8305400Y3621933D02*
Y3638594D01*
X8322061Y3655255D01*
X8405367D01*
Y3605271D01*
X8388706Y3588610D01*
X8355384D01*
X8338722Y3605271D01*
Y3655255D01*
Y3688578D02*
X8405367D01*
Y3738562D01*
X8388706Y3755223D01*
X8338722D01*
Y3838530D02*
Y3805207D01*
X8355384Y3788546D01*
X8388706D01*
X8405367Y3805207D01*
Y3838530D01*
X8388706Y3855191D01*
X8372045D01*
Y3788546D01*
X8438690Y3955158D02*
X8338722D01*
Y3905175D01*
X8355384Y3888513D01*
X8388706D01*
X8405367Y3905175D01*
Y3955158D01*
X8438690Y4088449D02*
X8338722D01*
Y4138433D01*
X8355384Y4155094D01*
X8372045D01*
X8388706D01*
X8405367Y4138433D01*
Y4088449D01*
Y4188417D02*
X8355384D01*
X8338722Y4205078D01*
Y4255062D01*
X8322061D01*
X8305400Y4238401D01*
Y4221739D01*
X8338722Y4255062D02*
X8405367D01*
X8265368Y3215400D02*
X8198722D01*
X8165400Y3248722D01*
X8198722Y3282045D01*
X8265368D01*
X8165400Y3315368D02*
Y3348690D01*
Y3332029D01*
X8265368D01*
Y3315368D01*
X8232045Y3415336D02*
Y3448658D01*
X8215384Y3465319D01*
X8165400D01*
Y3415336D01*
X8182061Y3398674D01*
X8198722Y3415336D01*
Y3465319D01*
X8265368Y3565287D02*
X8165400D01*
Y3515303D01*
X8182061Y3498642D01*
X8215384D01*
X8232045Y3515303D01*
Y3565287D01*
X8165400Y3598610D02*
Y3631932D01*
Y3615271D01*
X8232045D01*
Y3598610D01*
X8165400Y3681916D02*
X8232045D01*
Y3698578D01*
X8215384Y3715239D01*
X8165400D01*
X8215384D01*
X8232045Y3731900D01*
X8215384Y3748561D01*
X8165400D01*
Y3781884D02*
Y3815206D01*
Y3798545D01*
X8232045D01*
Y3781884D01*
Y3865190D02*
X8165400D01*
X8198722D01*
X8215384Y3881852D01*
X8232045Y3898513D01*
Y3915174D01*
X7457100Y2685368D02*
Y2585400D01*
X7407116D01*
X7390455Y2602061D01*
Y2618722D01*
X7407116Y2635384D01*
X7457100D01*
X7407116D01*
X7390455Y2652045D01*
Y2668706D01*
X7407116Y2685368D01*
X7457100D01*
X7257100Y2587900D02*
Y2654545D01*
X7223778Y2687868D01*
X7190455Y2654545D01*
Y2587900D01*
Y2637884D01*
X7257100D01*
X2878768Y8000248D02*
X2895429Y8016909D01*
Y8050232D01*
X2878768Y8066893D01*
X2862106D01*
X2845445Y8050232D01*
Y8033570D01*
Y8050232D01*
X2828784Y8066893D01*
X2812123D01*
X2795461Y8050232D01*
Y8016909D01*
X2812123Y8000248D01*
X2895429Y8100215D02*
X2828784D01*
X2795461Y8133538D01*
X2828784Y8166860D01*
X2895429D01*
X2878768Y8200183D02*
X2895429Y8216845D01*
Y8250167D01*
X2878768Y8266828D01*
X2862106D01*
X2845445Y8250167D01*
Y8233506D01*
Y8250167D01*
X2828784Y8266828D01*
X2812123D01*
X2795461Y8250167D01*
Y8216845D01*
X2812123Y8200183D01*
X3678767Y8059393D02*
X3695429Y8042731D01*
Y8009409D01*
X3678767Y7992748D01*
X3612122D01*
X3595461Y8009409D01*
Y8042731D01*
X3612122Y8059393D01*
X3645445D01*
Y8026070D01*
X3595461Y8092715D02*
X3695429D01*
X3595461Y8159360D01*
X3695429D01*
Y8192683D02*
X3595461D01*
Y8242667D01*
X3612122Y8259328D01*
X3678767D01*
X3695429Y8242667D01*
Y8192683D01*
X3492929Y8061892D02*
Y7995247D01*
X3392961D01*
Y8061892D01*
X3442945Y7995247D02*
Y8028570D01*
X3392961Y8095215D02*
Y8128538D01*
Y8111877D01*
X3492929D01*
X3476268Y8095215D01*
X3492929Y8178522D02*
Y8245167D01*
X3476268D01*
X3409623Y8178522D01*
X3392961D01*
Y8245167D01*
X3295429Y8056892D02*
Y7990247D01*
X3195461D01*
Y8056892D01*
X3245445Y7990247D02*
Y8023569D01*
X3195461Y8090215D02*
Y8123537D01*
Y8106876D01*
X3295429D01*
X3278768Y8090215D01*
Y8240166D02*
X3295429Y8223505D01*
Y8190183D01*
X3278768Y8173521D01*
X3212123D01*
X3195461Y8190183D01*
Y8223505D01*
X3212123Y8240166D01*
X3295429Y8273489D02*
X3195461D01*
X3245445D01*
Y8340134D01*
X3295429D01*
X3195461D01*
Y8440102D02*
Y8373457D01*
X3262107Y8440102D01*
X3278768D01*
X3295429Y8423441D01*
Y8390118D01*
X3278768Y8373457D01*
X3097930Y8056892D02*
Y7990247D01*
X2997962D01*
Y8056892D01*
X3047946Y7990247D02*
Y8023570D01*
X2997962Y8090215D02*
Y8123537D01*
Y8106876D01*
X3097930D01*
X3081268Y8090215D01*
Y8240166D02*
X3097930Y8223505D01*
Y8190183D01*
X3081268Y8173521D01*
X3014623D01*
X2997962Y8190183D01*
Y8223505D01*
X3014623Y8240166D01*
X3097930Y8273489D02*
X2997962D01*
X3047946D01*
Y8340134D01*
X3097930D01*
X2997962D01*
Y8373457D02*
Y8406779D01*
Y8390118D01*
X3097930D01*
X3081268Y8373457D01*
X7702868Y8064545D02*
Y7997900D01*
X7602900D01*
Y8064545D01*
X7652884Y7997900D02*
Y8031222D01*
X7602900Y8164513D02*
Y8097868D01*
X7669545Y8164513D01*
X7686206D01*
X7702868Y8147852D01*
Y8114529D01*
X7686206Y8097868D01*
Y8264481D02*
X7702868Y8247819D01*
Y8214497D01*
X7686206Y8197836D01*
X7619561D01*
X7602900Y8214497D01*
Y8247819D01*
X7619561Y8264481D01*
X7702868Y8297803D02*
X7602900D01*
X7652884D01*
Y8364448D01*
X7702868D01*
X7602900D01*
Y8397771D02*
Y8431094D01*
Y8414432D01*
X7702868D01*
X7686206Y8397771D01*
X7900367Y8064545D02*
Y7997900D01*
X7800400D01*
Y8064545D01*
X7850384Y7997900D02*
Y8031222D01*
X7800400Y8164512D02*
Y8097867D01*
X7867045Y8164512D01*
X7883706D01*
X7900367Y8147851D01*
Y8114529D01*
X7883706Y8097867D01*
Y8264480D02*
X7900367Y8247819D01*
Y8214497D01*
X7883706Y8197835D01*
X7817061D01*
X7800400Y8214497D01*
Y8247819D01*
X7817061Y8264480D01*
X7900367Y8297803D02*
X7800400D01*
X7850384D01*
Y8364448D01*
X7900367D01*
X7800400D01*
Y8464416D02*
Y8397771D01*
X7867045Y8464416D01*
X7883706D01*
X7900367Y8447755D01*
Y8414432D01*
X7883706Y8397771D01*
X8097868Y8069545D02*
Y8002900D01*
X7997900D01*
Y8069545D01*
X8047884Y8002900D02*
Y8036222D01*
X7997900Y8169512D02*
Y8102867D01*
X8064545Y8169512D01*
X8081207D01*
X8097868Y8152851D01*
Y8119529D01*
X8081207Y8102867D01*
X8097868Y8202835D02*
Y8269480D01*
X8081207D01*
X8014562Y8202835D01*
X7997900D01*
Y8269480D01*
X8283706Y8067045D02*
X8300367Y8050384D01*
Y8017061D01*
X8283706Y8000400D01*
X8217061D01*
X8200400Y8017061D01*
Y8050384D01*
X8217061Y8067045D01*
X8250384D01*
Y8033722D01*
X8200400Y8100368D02*
X8300367D01*
X8200400Y8167013D01*
X8300367D01*
Y8200335D02*
X8200400D01*
Y8250319D01*
X8217061Y8266980D01*
X8283706D01*
X8300367Y8250319D01*
Y8200335D01*
X7483706Y8007900D02*
X7500368Y8024561D01*
Y8057884D01*
X7483706Y8074545D01*
X7467045D01*
X7450384Y8057884D01*
Y8041222D01*
Y8057884D01*
X7433722Y8074545D01*
X7417061D01*
X7400400Y8057884D01*
Y8024561D01*
X7417061Y8007900D01*
X7500368Y8107868D02*
X7433722D01*
X7400400Y8141190D01*
X7433722Y8174513D01*
X7500368D01*
X7483706Y8207836D02*
X7500368Y8224497D01*
Y8257819D01*
X7483706Y8274481D01*
X7467045D01*
X7450384Y8257819D01*
Y8241158D01*
Y8257819D01*
X7433722Y8274481D01*
X7417061D01*
X7400400Y8257819D01*
Y8224497D01*
X7417061Y8207836D01*
X6474600Y7984561D02*
Y8084529D01*
X6441277Y8051206D01*
X6407955Y8084529D01*
Y7984561D01*
X6324648Y8084529D02*
X6357971D01*
X6374632Y8067868D01*
Y8001223D01*
X6357971Y7984561D01*
X6324648D01*
X6307987Y8001223D01*
Y8067868D01*
X6324648Y8084529D01*
X6274664D02*
X6208019D01*
X6241342D01*
Y7984561D01*
X6124713Y8084529D02*
X6158035D01*
X6174697Y8067868D01*
Y8001223D01*
X6158035Y7984561D01*
X6124713D01*
X6108052Y8001223D01*
Y8067868D01*
X6124713Y8084529D01*
X6008084Y7984561D02*
X6074729D01*
X6008084Y8051206D01*
Y8067868D01*
X6024745Y8084529D01*
X6058067D01*
X6074729Y8067868D01*
X5974761Y7967900D02*
X5908116D01*
X5874793Y7984561D02*
Y8051206D01*
X5841471Y8084529D01*
X5808148Y8051206D01*
Y7984561D01*
Y8034545D01*
X5874793D01*
X6687061Y7465400D02*
X6787029D01*
X6753706Y7498722D01*
X6787029Y7532045D01*
X6687061D01*
X6787029Y7615351D02*
Y7582029D01*
X6770368Y7565367D01*
X6703723D01*
X6687061Y7582029D01*
Y7615351D01*
X6703723Y7632012D01*
X6770368D01*
X6787029Y7615351D01*
Y7665335D02*
Y7731980D01*
Y7698658D01*
X6687061D01*
X6787029Y7815287D02*
Y7781964D01*
X6770368Y7765303D01*
X6703723D01*
X6687061Y7781964D01*
Y7815287D01*
X6703723Y7831948D01*
X6770368D01*
X6787029Y7815287D01*
X6687061Y7931916D02*
Y7865271D01*
X6753706Y7931916D01*
X6770368D01*
X6787029Y7915255D01*
Y7881932D01*
X6770368Y7865271D01*
X6670400Y7965239D02*
Y8031884D01*
X6787029Y8065206D02*
X6687061D01*
Y8115190D01*
X6703723Y8131851D01*
X6720384D01*
X6737045Y8115190D01*
Y8065206D01*
Y8115190D01*
X6753706Y8131851D01*
X6770368D01*
X6787029Y8115190D01*
Y8065206D01*
X4792062Y7810400D02*
X4892029D01*
X4858707Y7843722D01*
X4892029Y7877045D01*
X4792062D01*
X4892029Y7960351D02*
Y7927029D01*
X4875368Y7910367D01*
X4808723D01*
X4792062Y7927029D01*
Y7960351D01*
X4808723Y7977012D01*
X4875368D01*
X4892029Y7960351D01*
Y8010335D02*
Y8076980D01*
Y8043658D01*
X4792062D01*
X4892029Y8160287D02*
Y8126964D01*
X4875368Y8110303D01*
X4808723D01*
X4792062Y8126964D01*
Y8160287D01*
X4808723Y8176948D01*
X4875368D01*
X4892029Y8160287D01*
X4792062Y8210271D02*
Y8243593D01*
Y8226932D01*
X4892029D01*
X4875368Y8210271D01*
X4775400Y8293577D02*
Y8360222D01*
X4892029Y8393545D02*
X4792062D01*
Y8443529D01*
X4808723Y8460190D01*
X4825384D01*
X4842045Y8443529D01*
Y8393545D01*
Y8443529D01*
X4858707Y8460190D01*
X4875368D01*
X4892029Y8443529D01*
Y8393545D01*
X4299562Y7820400D02*
X4399529D01*
X4366207Y7853722D01*
X4399529Y7887045D01*
X4299562D01*
X4399529Y7970351D02*
Y7937029D01*
X4382868Y7920367D01*
X4316223D01*
X4299562Y7937029D01*
Y7970351D01*
X4316223Y7987012D01*
X4382868D01*
X4399529Y7970351D01*
Y8020335D02*
Y8086980D01*
Y8053658D01*
X4299562D01*
X4399529Y8170287D02*
Y8136964D01*
X4382868Y8120303D01*
X4316223D01*
X4299562Y8136964D01*
Y8170287D01*
X4316223Y8186948D01*
X4382868D01*
X4399529Y8170287D01*
X4299562Y8220271D02*
Y8253593D01*
Y8236932D01*
X4399529D01*
X4382868Y8220271D01*
X4282900Y8303577D02*
Y8370222D01*
X4299562Y8403545D02*
X4366207D01*
X4399529Y8436868D01*
X4366207Y8470190D01*
X4299562D01*
X4349546D01*
Y8403545D01*
X3017900Y3647900D02*
X3084545D01*
X3362900Y3646223D02*
X3429545D01*
X3396223Y3679545D02*
Y3612900D01*
X7048707Y2649545D02*
X7065368Y2632884D01*
Y2599561D01*
X7048707Y2582900D01*
X6982062D01*
X6965400Y2599561D01*
Y2632884D01*
X6982062Y2649545D01*
X7015384D01*
Y2616222D01*
X6965400Y2682868D02*
X7065368D01*
X6965400Y2749513D01*
X7065368D01*
Y2782835D02*
X6965400D01*
Y2832819D01*
X6982062Y2849480D01*
X7048707D01*
X7065368Y2832819D01*
Y2782835D01*
X7646206Y2577900D02*
X7662868Y2594561D01*
Y2627884D01*
X7646206Y2644545D01*
X7629545D01*
X7612884Y2627884D01*
Y2611223D01*
Y2627884D01*
X7596223Y2644545D01*
X7579561D01*
X7562900Y2627884D01*
Y2594561D01*
X7579561Y2577900D01*
X7662868Y2677868D02*
X7596223D01*
X7562900Y2711190D01*
X7596223Y2744513D01*
X7662868D01*
X7646206Y2777836D02*
X7662868Y2794497D01*
Y2827820D01*
X7646206Y2844481D01*
X7629545D01*
X7612884Y2827820D01*
Y2811158D01*
Y2827820D01*
X7596223Y2844481D01*
X7579561D01*
X7562900Y2827820D01*
Y2794497D01*
X7579561Y2777836D01*
X3344600Y2937751D02*
Y2785400D01*
X3268425D01*
X3243033Y2810792D01*
Y2912359D01*
X3268425Y2937751D01*
X3344600D01*
X3090682Y2912359D02*
X3116074Y2937751D01*
X3166858D01*
X3192249Y2912359D01*
Y2810792D01*
X3166858Y2785400D01*
X3116074D01*
X3090682Y2810792D01*
X3714600Y2995400D02*
X3663816D01*
X3689208D01*
Y3147751D01*
X3714600Y3122359D01*
X3486074Y2995400D02*
X3587641D01*
X3486074Y3096967D01*
Y3122359D01*
X3511466Y3147751D01*
X3562249D01*
X3587641Y3122359D01*
X3435290Y3147751D02*
Y3046183D01*
X3384507Y2995400D01*
X3333723Y3046183D01*
Y3147751D01*
X3282940Y3071575D02*
X3181372D01*
X3130589Y3122359D02*
X3105197Y3147751D01*
X3054413D01*
X3029022Y3122359D01*
Y3096967D01*
X3054413Y3071575D01*
X3079805D01*
X3054413D01*
X3029022Y3046183D01*
Y3020792D01*
X3054413Y2995400D01*
X3105197D01*
X3130589Y3020792D01*
X2876671Y3147751D02*
X2927455Y3122359D01*
X2978238Y3071575D01*
Y3020792D01*
X2952846Y2995400D01*
X2902063D01*
X2876671Y3020792D01*
Y3046183D01*
X2902063Y3071575D01*
X2978238D01*
X2825887Y3147751D02*
Y3046183D01*
X2775104Y2995400D01*
X2724320Y3046183D01*
Y3147751D01*
X3624600Y3205400D02*
Y3357751D01*
X3548425D01*
X3523033Y3332359D01*
Y3281575D01*
X3548425Y3256183D01*
X3624600D01*
X3472249Y3357751D02*
Y3205400D01*
X3421466Y3256183D01*
X3370682Y3205400D01*
Y3357751D01*
X3319899Y3205400D02*
Y3357751D01*
X3243723D01*
X3218331Y3332359D01*
Y3281575D01*
X3243723Y3256183D01*
X3319899D01*
X3269115D02*
X3218331Y3205400D01*
X3015197Y3357751D02*
X2964414D01*
X2989805D01*
Y3205400D01*
X3015197D01*
X2964414D01*
X2888238D02*
Y3357751D01*
X2786671Y3205400D01*
Y3357751D01*
X2655400Y5305400D02*
X2755368D01*
Y5355384D01*
X2738707Y5372045D01*
X2705384D01*
X2688723Y5355384D01*
Y5305400D01*
X2655400Y5405368D02*
X2722045Y5472013D01*
X2655400Y5505335D02*
X2755368D01*
X2655400Y5571980D01*
X2755368D01*
X2722045Y5605303D02*
Y5621965D01*
X2705384D01*
Y5605303D01*
X2722045D01*
X2672062D02*
Y5621965D01*
X2655400D01*
Y5605303D01*
X2672062D01*
X6474960Y5080016D02*
Y5179984D01*
X6424976D01*
X6408315Y5163322D01*
Y5130000D01*
X6424976Y5113339D01*
X6474960D01*
X6441637D02*
X6408315Y5080016D01*
X6374992D02*
X6341669D01*
X6358330D01*
Y5179984D01*
X6374992Y5163322D01*
X6241702Y5080016D02*
Y5179984D01*
X6291685Y5130000D01*
X6225040D01*
X5989984Y4573323D02*
X6006645Y4589984D01*
X6039968D01*
X6056629Y4573323D01*
Y4506678D01*
X6039968Y4490016D01*
X6006645D01*
X5989984Y4506678D01*
X5956661Y4573323D02*
X5940000Y4589984D01*
X5906677D01*
X5890016Y4573323D01*
Y4556661D01*
X5906677Y4540000D01*
X5923339D01*
X5906677D01*
X5890016Y4523339D01*
Y4506678D01*
X5906677Y4490016D01*
X5940000D01*
X5956661Y4506678D01*
X5856693Y4490016D02*
X5823371D01*
X5840032D01*
Y4589984D01*
X5856693Y4573323D01*
X5939984Y2876709D02*
X5873339D01*
X5840016Y2910032D01*
X5873339Y2943354D01*
X5939984D01*
Y2976677D02*
X5840016D01*
Y3026661D01*
X5856677Y3043322D01*
X5923322D01*
X5939984Y3026661D01*
Y2976677D01*
Y3143290D02*
X5923322Y3109967D01*
X5890000Y3076645D01*
X5856677D01*
X5840016Y3093306D01*
Y3126629D01*
X5856677Y3143290D01*
X5873339D01*
X5890000Y3126629D01*
Y3076645D01*
X5683290Y2819984D02*
Y2753339D01*
X5649968Y2720016D01*
X5616645Y2753339D01*
Y2819984D01*
X5583323D02*
Y2720016D01*
X5533339D01*
X5516678Y2736678D01*
Y2803323D01*
X5533339Y2819984D01*
X5583323D01*
X5416710D02*
X5483355D01*
Y2770000D01*
X5450032Y2786661D01*
X5433371D01*
X5416710Y2770000D01*
Y2736678D01*
X5433371Y2720016D01*
X5466693D01*
X5483355Y2736678D01*
X6411575Y3844983D02*
Y3778337D01*
X6378253Y3745015D01*
X6344930Y3778337D01*
Y3844983D01*
X6311607Y3745015D02*
X6278285D01*
X6294946D01*
Y3844983D01*
X6311607Y3828321D01*
X6374960Y2650016D02*
Y2749984D01*
X6324976D01*
X6308315Y2733322D01*
Y2700000D01*
X6324976Y2683339D01*
X6374960D01*
X6341637D02*
X6308315Y2650016D01*
X6274992D02*
X6241669D01*
X6258330D01*
Y2749984D01*
X6274992Y2733322D01*
X6125040Y2749984D02*
X6191685D01*
Y2700000D01*
X6158363Y2716661D01*
X6141701D01*
X6125040Y2700000D01*
Y2666677D01*
X6141701Y2650016D01*
X6175024D01*
X6191685Y2666677D01*
X6866645Y3453323D02*
X6883307Y3469984D01*
X6916629D01*
X6933290Y3453323D01*
Y3386678D01*
X6916629Y3370016D01*
X6883307D01*
X6866645Y3386678D01*
X6766678Y3370016D02*
X6833323D01*
X6766678Y3436661D01*
Y3453323D01*
X6783339Y3469984D01*
X6816661D01*
X6833323Y3453323D01*
X6683371Y3370016D02*
Y3469984D01*
X6733355Y3420000D01*
X6666710D01*
X5076645Y3400016D02*
Y3466661D01*
X5043322Y3499984D01*
X5010000Y3466661D01*
Y3400016D01*
Y3450000D01*
X5076645D01*
X4976677Y3400016D02*
X4943355D01*
X4960016D01*
Y3499984D01*
X4976677Y3483322D01*
X7893298Y2950016D02*
Y3049984D01*
X7843314D01*
X7826653Y3033323D01*
Y3000000D01*
X7843314Y2983339D01*
X7893298D01*
X7859976D02*
X7826653Y2950016D01*
X7793330D02*
X7760008D01*
X7776669D01*
Y3049984D01*
X7793330Y3033323D01*
X7710024Y2950016D02*
X7676701D01*
X7693363D01*
Y3049984D01*
X7710024Y3033323D01*
X7364960Y2780016D02*
Y2879984D01*
X7314976D01*
X7298315Y2863322D01*
Y2830000D01*
X7314976Y2813339D01*
X7364960D01*
X7331637D02*
X7298315Y2780016D01*
X7264992D02*
X7231669D01*
X7248330D01*
Y2879984D01*
X7264992Y2863322D01*
X7181685D02*
X7165024Y2879984D01*
X7131702D01*
X7115040Y2863322D01*
Y2796677D01*
X7131702Y2780016D01*
X7165024D01*
X7181685Y2796677D01*
Y2863322D01*
X6783290Y6949984D02*
Y6883339D01*
X6749968Y6850016D01*
X6716645Y6883339D01*
Y6949984D01*
X6683322D02*
X6616677D01*
X6650000D01*
Y6850016D01*
X6583355Y6866677D02*
X6566693Y6850016D01*
X6533371D01*
X6516710Y6866677D01*
Y6933322D01*
X6533371Y6949984D01*
X6566693D01*
X6583355Y6933322D01*
Y6916661D01*
X6566693Y6900000D01*
X6516710D01*
X6873290Y6247484D02*
Y6180839D01*
X6839968Y6147516D01*
X6806645Y6180839D01*
Y6247484D01*
X6773322D02*
X6706677D01*
X6740000D01*
Y6147516D01*
X6673355Y6230822D02*
X6656693Y6247484D01*
X6623371D01*
X6606710Y6230822D01*
Y6214161D01*
X6623371Y6197500D01*
X6606710Y6180839D01*
Y6164177D01*
X6623371Y6147516D01*
X6656693D01*
X6673355Y6164177D01*
Y6180839D01*
X6656693Y6197500D01*
X6673355Y6214161D01*
Y6230822D01*
X6656693Y6197500D02*
X6623371D01*
X5850790Y6849984D02*
Y6783339D01*
X5817468Y6750016D01*
X5784145Y6783339D01*
Y6849984D01*
X5750823D02*
X5684178D01*
X5717500D01*
Y6750016D01*
X5650855Y6849984D02*
X5584210D01*
Y6833323D01*
X5650855Y6766678D01*
Y6750016D01*
X6035790Y6122484D02*
Y6055839D01*
X6002468Y6022516D01*
X5969145Y6055839D01*
Y6122484D01*
X5935823D02*
X5869177D01*
X5902500D01*
Y6022516D01*
X5769210Y6122484D02*
X5802532Y6105822D01*
X5835855Y6072500D01*
Y6039177D01*
X5819193Y6022516D01*
X5785871D01*
X5769210Y6039177D01*
Y6055839D01*
X5785871Y6072500D01*
X5835855D01*
X4908290Y6924984D02*
Y6858339D01*
X4874968Y6825016D01*
X4841645Y6858339D01*
Y6924984D01*
X4808323D02*
X4741678D01*
X4775000D01*
Y6825016D01*
X4641710Y6924984D02*
X4708355D01*
Y6875000D01*
X4675032Y6891661D01*
X4658371D01*
X4641710Y6875000D01*
Y6841677D01*
X4658371Y6825016D01*
X4691693D01*
X4708355Y6841677D01*
X5171536Y6244527D02*
Y6177881D01*
X5138214Y6144559D01*
X5104891Y6177881D01*
Y6244527D01*
X5071568D02*
X5004923D01*
X5038246D01*
Y6144559D01*
X4921617D02*
Y6244527D01*
X4971601Y6194543D01*
X4904956D01*
X4019984Y6701710D02*
X3953339D01*
X3920016Y6735032D01*
X3953339Y6768355D01*
X4019984D01*
Y6801678D02*
Y6868323D01*
Y6835000D01*
X3920016D01*
X4003322Y6901645D02*
X4019984Y6918307D01*
Y6951629D01*
X4003322Y6968290D01*
X3986661D01*
X3970000Y6951629D01*
Y6934968D01*
Y6951629D01*
X3953339Y6968290D01*
X3936677D01*
X3920016Y6951629D01*
Y6918307D01*
X3936677Y6901645D01*
X3763290Y5429984D02*
Y5363339D01*
X3729968Y5330016D01*
X3696645Y5363339D01*
Y5429984D01*
X3663323D02*
X3596678D01*
X3630000D01*
Y5330016D01*
X3496710D02*
X3563355D01*
X3496710Y5396661D01*
Y5413322D01*
X3513371Y5429984D01*
X3546693D01*
X3563355Y5413322D01*
X5256629Y3979984D02*
Y3913339D01*
X5223306Y3880016D01*
X5189984Y3913339D01*
Y3979984D01*
X5156661D02*
X5090016D01*
X5123338D01*
Y3880016D01*
X5056693D02*
X5023371D01*
X5040032D01*
Y3979984D01*
X5056693Y3963323D01*
X7233290Y3699984D02*
Y3633339D01*
X7199968Y3600016D01*
X7166645Y3633339D01*
Y3699984D01*
X7133323D02*
Y3600016D01*
X7083339D01*
X7066678Y3616678D01*
Y3683323D01*
X7083339Y3699984D01*
X7133323D01*
X7033355Y3683323D02*
X7016693Y3699984D01*
X6983371D01*
X6966710Y3683323D01*
Y3666661D01*
X6983371Y3650000D01*
X7000032D01*
X6983371D01*
X6966710Y3633339D01*
Y3616678D01*
X6983371Y3600016D01*
X7016693D01*
X7033355Y3616678D01*
X5800016Y7191710D02*
X5899984D01*
Y7241693D01*
X5883323Y7258355D01*
X5850000D01*
X5833339Y7241693D01*
Y7191710D01*
Y7225032D02*
X5800016Y7258355D01*
Y7358322D02*
Y7291677D01*
X5866661Y7358322D01*
X5883323D01*
X5899984Y7341661D01*
Y7308339D01*
X5883323Y7291677D01*
X5800016Y7458290D02*
Y7391645D01*
X5866661Y7458290D01*
X5883323D01*
X5899984Y7441629D01*
Y7408306D01*
X5883323Y7391645D01*
X4233290Y3775016D02*
Y3874984D01*
X4183306D01*
X4166645Y3858322D01*
Y3825000D01*
X4183306Y3808339D01*
X4233290D01*
X4199968D02*
X4166645Y3775016D01*
X4066677D02*
X4133322D01*
X4066677Y3841661D01*
Y3858322D01*
X4083339Y3874984D01*
X4116661D01*
X4133322Y3858322D01*
X4033355D02*
X4016693Y3874984D01*
X3983371D01*
X3966710Y3858322D01*
Y3791677D01*
X3983371Y3775016D01*
X4016693D01*
X4033355Y3791677D01*
Y3858322D01*
X3375016Y6975040D02*
X3474984D01*
Y7025024D01*
X3458322Y7041685D01*
X3425000D01*
X3408338Y7025024D01*
Y6975040D01*
Y7008363D02*
X3375016Y7041685D01*
Y7075008D02*
Y7108330D01*
Y7091669D01*
X3474984D01*
X3458322Y7075008D01*
Y7158314D02*
X3474984Y7174976D01*
Y7208298D01*
X3458322Y7224959D01*
X3441661D01*
X3425000Y7208298D01*
X3408338Y7224959D01*
X3391677D01*
X3375016Y7208298D01*
Y7174976D01*
X3391677Y7158314D01*
X3408338D01*
X3425000Y7174976D01*
X3441661Y7158314D01*
X3458322D01*
X3425000Y7174976D02*
Y7208298D01*
X4275016Y4050040D02*
X4374984D01*
Y4100024D01*
X4358322Y4116685D01*
X4325000D01*
X4308339Y4100024D01*
Y4050040D01*
Y4083363D02*
X4275016Y4116685D01*
Y4150008D02*
Y4183330D01*
Y4166669D01*
X4374984D01*
X4358322Y4150008D01*
X4374984Y4299959D02*
X4358322Y4266637D01*
X4325000Y4233314D01*
X4291677D01*
X4275016Y4249976D01*
Y4283298D01*
X4291677Y4299959D01*
X4308339D01*
X4325000Y4283298D01*
Y4233314D01*
X7762460Y4510016D02*
Y4609984D01*
X7712476D01*
X7695815Y4593323D01*
Y4560000D01*
X7712476Y4543339D01*
X7762460D01*
X7729137D02*
X7695815Y4510016D01*
X7662492D02*
X7629169D01*
X7645831D01*
Y4609984D01*
X7662492Y4593323D01*
X7579186D02*
X7562524Y4609984D01*
X7529202D01*
X7512540Y4593323D01*
Y4576661D01*
X7529202Y4560000D01*
X7545863D01*
X7529202D01*
X7512540Y4543339D01*
Y4526678D01*
X7529202Y4510016D01*
X7562524D01*
X7579186Y4526678D01*
X8082460Y4510016D02*
Y4609984D01*
X8032476D01*
X8015815Y4593323D01*
Y4560000D01*
X8032476Y4543339D01*
X8082460D01*
X8049137D02*
X8015815Y4510016D01*
X7982492D02*
X7949169D01*
X7965830D01*
Y4609984D01*
X7982492Y4593323D01*
X7832540Y4510016D02*
X7899185D01*
X7832540Y4576661D01*
Y4593323D01*
X7849201Y4609984D01*
X7882524D01*
X7899185Y4593323D01*
X4893306Y3680016D02*
Y3779984D01*
X4843323D01*
X4826661Y3763322D01*
Y3730000D01*
X4843323Y3713339D01*
X4893306D01*
X4859984D02*
X4826661Y3680016D01*
X4726694Y3779984D02*
X4760016Y3763322D01*
X4793339Y3730000D01*
Y3696677D01*
X4776677Y3680016D01*
X4743355D01*
X4726694Y3696677D01*
Y3713339D01*
X4743355Y3730000D01*
X4793339D01*
X7831629Y5549984D02*
Y5450016D01*
X7781645D01*
X7764984Y5466677D01*
Y5533322D01*
X7781645Y5549984D01*
X7831629D01*
X7731661Y5450016D02*
Y5516661D01*
X7698339Y5549984D01*
X7665016Y5516661D01*
Y5450016D01*
Y5500000D01*
X7731661D01*
X7631693Y5450016D02*
X7598371D01*
X7615032D01*
Y5549984D01*
X7631693Y5533322D01*
X7806645Y6138322D02*
X7823306Y6154984D01*
X7856629D01*
X7873290Y6138322D01*
Y6071677D01*
X7856629Y6055016D01*
X7823306D01*
X7806645Y6071677D01*
X7723339Y6055016D02*
Y6154984D01*
X7773323Y6105000D01*
X7706678D01*
X7606710Y6055016D02*
X7673355D01*
X7606710Y6121661D01*
Y6138322D01*
X7623371Y6154984D01*
X7656693D01*
X7673355Y6138322D01*
X8059984Y5843323D02*
X8076645Y5859984D01*
X8109968D01*
X8126629Y5843323D01*
Y5776678D01*
X8109968Y5760016D01*
X8076645D01*
X8059984Y5776678D01*
X7976677Y5760016D02*
Y5859984D01*
X8026661Y5810000D01*
X7960016D01*
X7926693Y5760016D02*
X7893371D01*
X7910032D01*
Y5859984D01*
X7926693Y5843323D01*
X8174238Y6370354D02*
X8190900Y6353693D01*
Y6320371D01*
X8174238Y6303709D01*
X8107593D01*
X8090932Y6320371D01*
Y6353693D01*
X8107593Y6370354D01*
X8174238Y6403677D02*
X8190900Y6420338D01*
Y6453661D01*
X8174238Y6470322D01*
X8157577D01*
X8140916Y6453661D01*
Y6437000D01*
Y6453661D01*
X8124255Y6470322D01*
X8107593D01*
X8090932Y6453661D01*
Y6420338D01*
X8107593Y6403677D01*
X8190900Y6503645D02*
Y6570290D01*
X8174238D01*
X8107593Y6503645D01*
X8090932D01*
X3873322Y4493354D02*
X3889984Y4476693D01*
Y4443371D01*
X3873322Y4426709D01*
X3806677D01*
X3790016Y4443371D01*
Y4476693D01*
X3806677Y4493354D01*
X3873322Y4526677D02*
X3889984Y4543338D01*
Y4576661D01*
X3873322Y4593322D01*
X3856661D01*
X3840000Y4576661D01*
Y4560000D01*
Y4576661D01*
X3823339Y4593322D01*
X3806677D01*
X3790016Y4576661D01*
Y4543338D01*
X3806677Y4526677D01*
X3889984Y4693290D02*
Y4626645D01*
X3840000D01*
X3856661Y4659967D01*
Y4676629D01*
X3840000Y4693290D01*
X3806677D01*
X3790016Y4676629D01*
Y4643306D01*
X3806677Y4626645D01*
X3890657Y4831787D02*
X3907319Y4815126D01*
Y4781803D01*
X3890657Y4765142D01*
X3824012D01*
X3807351Y4781803D01*
Y4815126D01*
X3824012Y4831787D01*
X3890657Y4865110D02*
X3907319Y4881771D01*
Y4915094D01*
X3890657Y4931755D01*
X3873996D01*
X3857335Y4915094D01*
Y4898432D01*
Y4915094D01*
X3840674Y4931755D01*
X3824012D01*
X3807351Y4915094D01*
Y4881771D01*
X3824012Y4865110D01*
X3890657Y4965077D02*
X3907319Y4981739D01*
Y5015061D01*
X3890657Y5031722D01*
X3873996D01*
X3857335Y5015061D01*
Y4998400D01*
Y5015061D01*
X3840674Y5031722D01*
X3824012D01*
X3807351Y5015061D01*
Y4981739D01*
X3824012Y4965077D01*
X3904204Y5175665D02*
X3920865Y5159003D01*
Y5125681D01*
X3904204Y5109019D01*
X3837559D01*
X3820897Y5125681D01*
Y5159003D01*
X3837559Y5175665D01*
X3904204Y5208987D02*
X3920865Y5225649D01*
Y5258971D01*
X3904204Y5275632D01*
X3887542D01*
X3870881Y5258971D01*
Y5242310D01*
Y5258971D01*
X3854220Y5275632D01*
X3837559D01*
X3820897Y5258971D01*
Y5225649D01*
X3837559Y5208987D01*
X3820897Y5375600D02*
Y5308955D01*
X3887542Y5375600D01*
X3904204D01*
X3920865Y5358939D01*
Y5325616D01*
X3904204Y5308955D01*
X5497809Y4508322D02*
X5514470Y4524984D01*
X5547793D01*
X5564454Y4508322D01*
Y4441677D01*
X5547793Y4425016D01*
X5514470D01*
X5497809Y4441677D01*
X5464486Y4508322D02*
X5447825Y4524984D01*
X5414502D01*
X5397841Y4508322D01*
Y4491661D01*
X5414502Y4475000D01*
X5431164D01*
X5414502D01*
X5397841Y4458339D01*
Y4441677D01*
X5414502Y4425016D01*
X5447825D01*
X5464486Y4441677D01*
X5364518Y4508322D02*
X5347857Y4524984D01*
X5314534D01*
X5297873Y4508322D01*
Y4441677D01*
X5314534Y4425016D01*
X5347857D01*
X5364518Y4441677D01*
Y4508322D01*
X5496645Y5378322D02*
X5513306Y5394984D01*
X5546629D01*
X5563290Y5378322D01*
Y5311677D01*
X5546629Y5295016D01*
X5513306D01*
X5496645Y5311677D01*
X5396678Y5295016D02*
X5463323D01*
X5396678Y5361661D01*
Y5378322D01*
X5413339Y5394984D01*
X5446661D01*
X5463323Y5378322D01*
X5363355Y5394984D02*
X5296710D01*
Y5378322D01*
X5363355Y5311677D01*
Y5295016D01*
X3910823Y4058354D02*
X3927484Y4041693D01*
Y4008371D01*
X3910823Y3991709D01*
X3844178D01*
X3827516Y4008371D01*
Y4041693D01*
X3844178Y4058354D01*
X3827516Y4158322D02*
Y4091677D01*
X3894161Y4158322D01*
X3910823D01*
X3927484Y4141661D01*
Y4108338D01*
X3910823Y4091677D01*
X3927484Y4258290D02*
Y4191645D01*
X3877500D01*
X3894161Y4224967D01*
Y4241629D01*
X3877500Y4258290D01*
X3844178D01*
X3827516Y4241629D01*
Y4208306D01*
X3844178Y4191645D01*
X7374145Y4643322D02*
X7390806Y4659984D01*
X7424129D01*
X7440790Y4643322D01*
Y4576677D01*
X7424129Y4560016D01*
X7390806D01*
X7374145Y4576677D01*
X7274177Y4560016D02*
X7340823D01*
X7274177Y4626661D01*
Y4643322D01*
X7290839Y4659984D01*
X7324161D01*
X7340823Y4643322D01*
X7240855D02*
X7224193Y4659984D01*
X7190871D01*
X7174210Y4643322D01*
Y4626661D01*
X7190871Y4610000D01*
X7207532D01*
X7190871D01*
X7174210Y4593339D01*
Y4576677D01*
X7190871Y4560016D01*
X7224193D01*
X7240855Y4576677D01*
X7404916Y5826246D02*
X7421577Y5842908D01*
X7454900D01*
X7471561Y5826246D01*
Y5759601D01*
X7454900Y5742940D01*
X7421577D01*
X7404916Y5759601D01*
X7304949Y5742940D02*
X7371594D01*
X7304949Y5809585D01*
Y5826246D01*
X7321610Y5842908D01*
X7354932D01*
X7371594Y5826246D01*
X7204981Y5742940D02*
X7271626D01*
X7204981Y5809585D01*
Y5826246D01*
X7221642Y5842908D01*
X7254964D01*
X7271626Y5826246D01*
X8376645Y4803323D02*
X8393306Y4819984D01*
X8426629D01*
X8443290Y4803323D01*
Y4736678D01*
X8426629Y4720016D01*
X8393306D01*
X8376645Y4736678D01*
X8276677Y4720016D02*
X8343322D01*
X8276677Y4786661D01*
Y4803323D01*
X8293339Y4819984D01*
X8326661D01*
X8343322Y4803323D01*
X8243355D02*
X8226693Y4819984D01*
X8193371D01*
X8176710Y4803323D01*
Y4736678D01*
X8193371Y4720016D01*
X8226693D01*
X8243355Y4736678D01*
Y4803323D01*
X8398315Y5843323D02*
X8414976Y5859984D01*
X8448298D01*
X8464960Y5843323D01*
Y5776678D01*
X8448298Y5760016D01*
X8414976D01*
X8398315Y5776678D01*
X8364992Y5760016D02*
X8331669D01*
X8348331D01*
Y5859984D01*
X8364992Y5843323D01*
X8281685Y5859984D02*
X8215040D01*
Y5843323D01*
X8281685Y5776678D01*
Y5760016D01*
X5521678Y4278315D02*
X5505016Y4294976D01*
Y4328298D01*
X5521678Y4344960D01*
X5588323D01*
X5604984Y4328298D01*
Y4294976D01*
X5588323Y4278315D01*
X5604984Y4244992D02*
Y4211669D01*
Y4228330D01*
X5505016D01*
X5521678Y4244992D01*
X5604984Y4111701D02*
X5505016D01*
X5555000Y4161685D01*
Y4095040D01*
X5806661Y3403323D02*
X5823323Y3419984D01*
X5856645D01*
X5873307Y3403323D01*
Y3336678D01*
X5856645Y3320016D01*
X5823323D01*
X5806661Y3336678D01*
X5773339Y3419984D02*
X5706694D01*
Y3403323D01*
X5773339Y3336678D01*
Y3320016D01*
X6184161Y4383322D02*
X6200822Y4399984D01*
X6234145D01*
X6250806Y4383322D01*
Y4316677D01*
X6234145Y4300016D01*
X6200822D01*
X6184161Y4316677D01*
X6084193Y4399984D02*
X6117516Y4383322D01*
X6150838Y4350000D01*
Y4316677D01*
X6134177Y4300016D01*
X6100854D01*
X6084193Y4316677D01*
Y4333338D01*
X6100854Y4350000D01*
X6150838D01*
X6701677Y3841661D02*
X6685016Y3858322D01*
Y3891645D01*
X6701677Y3908306D01*
X6768322D01*
X6784984Y3891645D01*
Y3858322D01*
X6768322Y3841661D01*
X6701677Y3808339D02*
X6685016Y3791677D01*
Y3758355D01*
X6701677Y3741694D01*
X6718339D01*
X6735000Y3758355D01*
Y3775016D01*
Y3758355D01*
X6751661Y3741694D01*
X6768322D01*
X6784984Y3758355D01*
Y3791677D01*
X6768322Y3808339D01*
X6153323Y3763338D02*
X6169984Y3746677D01*
Y3713355D01*
X6153323Y3696693D01*
X6086678D01*
X6070016Y3713355D01*
Y3746677D01*
X6086678Y3763338D01*
X6070016Y3863306D02*
Y3796661D01*
X6136661Y3863306D01*
X6153323D01*
X6169984Y3846645D01*
Y3813323D01*
X6153323Y3796661D01*
X6027260Y4158422D02*
X6043921Y4175084D01*
X6077244D01*
X6093905Y4158422D01*
Y4091777D01*
X6077244Y4075116D01*
X6043921D01*
X6027260Y4091777D01*
X5993937Y4075116D02*
X5960615D01*
X5977276D01*
Y4175084D01*
X5993937Y4158422D01*
D80*
X5310000Y3310000D02*
G03*
X5310000Y3310000I-12500J0D01*
G01*
X6492500Y3430000D02*
G03*
X6492500Y3430000I-12500J0D01*
G01*
X8125000Y5400500D02*
G03*
X8125000Y5400500I-12500J0D01*
G01*
X4607500Y5000000D02*
G03*
X4607500Y5000000I-12500J0D01*
G01*
X3637500Y5463000D02*
G03*
X3637500Y5463000I-12500J0D01*
G01*
X6275000Y6274500D02*
G03*
X6275000Y6274500I-12500J0D01*
G01*
X4100000Y6675500D02*
G03*
X4100000Y6675500I-12500J0D01*
G01*
X5550000Y5449500D02*
G03*
X5550000Y5449500I-12500J0D01*
G01*
X5975000Y6700500D02*
G03*
X5975000Y6700500I-12500J0D01*
G01*
X5000000Y6150500D02*
G03*
X5000000Y6150500I-12500J0D01*
G01*
X4375000Y6249500D02*
G03*
X4375000Y6249500I-12500J0D01*
G01*
X6925000Y6125500D02*
G03*
X6925000Y6125500I-12500J0D01*
G01*
X7530000Y3330000D02*
G03*
X7530000Y3330000I-12500J0D01*
G01*
D81*
X4835002Y2635001D02*
X5164999D01*
X4835002Y3325002D02*
X5164999D01*
X4835002Y2635001D02*
Y3325002D01*
X5164999Y2635001D02*
Y3325002D01*
X5982503Y2827498D02*
Y2952501D01*
X6097499Y2827498D02*
Y2952501D01*
X5479999Y2959999D02*
Y3239999D01*
X5659999Y2959999D02*
Y3239999D01*
X5479999D02*
X5502499D01*
X5479999Y2959999D02*
X5502499D01*
X5637500Y3239999D02*
X5659999D01*
X5637500Y2959999D02*
X5659999D01*
X6150000Y3619998D02*
X6230000D01*
X6150000Y3519998D02*
Y3619998D01*
X6370000D02*
X6450000D01*
Y3519998D02*
Y3619998D01*
X6025002Y5015001D02*
X6425001D01*
X6025002Y4635002D02*
X6425001D01*
X5544998D02*
Y4744999D01*
Y4804999D02*
Y4915002D01*
X5304998Y4635002D02*
Y4744999D01*
Y4804999D02*
Y4915002D01*
X5584998Y4802942D02*
Y4912939D01*
Y4632940D02*
Y4742942D01*
X5825002Y4802942D02*
Y4912939D01*
Y4632940D02*
Y4742942D01*
X8015000Y4864999D02*
Y5384998D01*
X7635001Y4864999D02*
Y5384998D01*
X8015000D01*
X7635001Y4864999D02*
X8015000D01*
X7444999Y4784999D02*
Y4895002D01*
Y4955002D02*
Y5064999D01*
X7205000Y4784999D02*
Y4895002D01*
Y4955002D02*
Y5064999D01*
X5269001Y4744999D02*
Y4809998D01*
X4588998D02*
X5269001D01*
X4588998Y4744999D02*
Y4809998D01*
X3722502Y5478501D02*
Y5998500D01*
X4102501Y5478501D02*
Y5998500D01*
X3722502Y5478501D02*
X4102501D01*
X3722502Y5998500D02*
X4102501D01*
X8470001Y5359999D02*
Y5470002D01*
Y5530002D02*
Y5639999D01*
X8230001Y5359999D02*
Y5470002D01*
Y5530002D02*
Y5639999D01*
X6360003Y6290000D02*
Y6809999D01*
X6740002Y6290000D02*
Y6809999D01*
X6360003Y6290000D02*
X6740002D01*
X6360003Y6809999D02*
X6740002D01*
X3990000Y6139998D02*
Y6660002D01*
X3610000Y6139998D02*
Y6660002D01*
X3990000D01*
X3610000Y6139998D02*
X3990000D01*
X5635000Y5464998D02*
Y5985002D01*
X6014999Y5464998D02*
Y5985002D01*
X5635000Y5464998D02*
X6014999D01*
X5635000Y5985002D02*
X6014999D01*
X5865002Y6165002D02*
Y6685001D01*
X5484998Y6165002D02*
Y6685001D01*
X5865002D01*
X5484998Y6165002D02*
X5865002D01*
X4889998Y5615000D02*
Y6134999D01*
X4509999Y5615000D02*
Y6134999D01*
X4889998D01*
X4509999Y5615000D02*
X4889998D01*
X4189999Y5395001D02*
X4300002D01*
X4020002D02*
X4129999D01*
X4189999Y5155001D02*
X4300002D01*
X4020002D02*
X4129999D01*
X4460001Y6265001D02*
Y6785000D01*
X4840000Y6265001D02*
Y6785000D01*
X4460001Y6265001D02*
X4840000D01*
X4460001Y6785000D02*
X4840000D01*
X6814998Y5590002D02*
Y6110000D01*
X6434999Y5590002D02*
Y6110000D01*
X6814998D01*
X6434999Y5590002D02*
X6814998D01*
X5599999Y3690000D02*
X5939998D01*
X5599999Y3470001D02*
X5939998D01*
X7487498Y3419998D02*
Y3519998D01*
X7407499D02*
X7487498D01*
X7187499Y3419998D02*
Y3519998D01*
X7267499D01*
X7205000Y5455001D02*
Y5564998D01*
Y5284998D02*
Y5395001D01*
X7444999Y5455001D02*
Y5564998D01*
Y5284998D02*
Y5395001D01*
X5359999Y7100001D02*
Y7500000D01*
X5739999Y7100001D02*
Y7500000D01*
X3510001Y6900001D02*
Y7300001D01*
X3890000Y6900001D02*
Y7300001D01*
D82*
X7945000Y5285000D02*
G03*
X7945000Y5285000I-30000J0D01*
G01*
X3852500Y5578500D02*
G03*
X3852500Y5578500I-30000J0D01*
G01*
X6490000Y6390000D02*
G03*
X6490000Y6390000I-30000J0D01*
G01*
X3920000Y6560000D02*
G03*
X3920000Y6560000I-30000J0D01*
G01*
X5765000Y5565000D02*
G03*
X5765000Y5565000I-30000J0D01*
G01*
X5795000Y6585000D02*
G03*
X5795000Y6585000I-30000J0D01*
G01*
X4820000Y6035000D02*
G03*
X4820000Y6035000I-30000J0D01*
G01*
X4590000Y6365000D02*
G03*
X4590000Y6365000I-30000J0D01*
G01*
X6745000Y6010000D02*
G03*
X6745000Y6010000I-30000J0D01*
G01*
D83*
X5980000Y2980000D02*
G03*
X5980000Y2980000I-5000J0D01*
G01*
X5507500Y3325000D02*
G03*
X5507500Y3325000I-5000J0D01*
G01*
X5565000Y3490000D02*
G03*
X5565000Y3490000I-5000J0D01*
G01*
D85*
X5570002Y3130001D02*
Y3162498D01*
Y3050002D02*
Y3077500D01*
X5515000Y3130001D02*
X5619999D01*
X5570002D02*
X5622498Y3077500D01*
X5517500D02*
X5622498D01*
X5517500D02*
X5570002Y3130001D01*
X5424998Y4742500D02*
Y4762500D01*
X5375001D02*
X5475000D01*
X5424998Y4787499D02*
Y4807499D01*
X5375001Y4787499D02*
X5475000D01*
X5655000Y4785441D02*
X5755000D01*
X5705003D02*
Y4805441D01*
X5655000Y4760438D02*
X5755000D01*
X5705003Y4740438D02*
Y4760438D01*
X7324999Y4892502D02*
Y4912502D01*
X7275002D02*
X7375002D01*
X7324999Y4937501D02*
Y4957501D01*
X7275002Y4937501D02*
X7375002D01*
X8299999Y5487502D02*
X8399998D01*
X8350001Y5467502D02*
Y5487502D01*
X8299999Y5512501D02*
X8399998D01*
X8350001D02*
Y5532501D01*
X4172499Y5224998D02*
Y5324998D01*
Y5275001D02*
X4192499D01*
X4147500Y5224998D02*
Y5324998D01*
X4127500Y5275001D02*
X4147500D01*
X5779999Y3530001D02*
Y3630000D01*
X5759999Y3530001D02*
Y3630000D01*
X7324999Y5437500D02*
Y5457500D01*
X7275002Y5437500D02*
X7375002D01*
X7324999Y5392501D02*
Y5412501D01*
X7275002D02*
X7375002D01*
%TF.MD5,2eab3cb1c80a373823ffffd4e66b7eb3*%
M02*
