%TF.GenerationSoftware,Altium Limited,Altium Designer,24.7.2 (38)*%
G04 Layer_Physical_Order=3*
G04 Layer_Color=16440176*
%FSLAX45Y45*%
%MOMM*%
%TF.SameCoordinates,4E20714E-E0DB-4EF4-9D00-32C5CA98EF25*%
%TF.FilePolarity,Positive*%
%TF.FileFunction,Copper,L3,Inr,Signal*%
%TF.Part,Single*%
G01*
G75*
%TA.AperFunction,Conductor*%
%ADD40C,0.25400*%
%ADD41C,0.16000*%
%TA.AperFunction,ComponentPad*%
%ADD49O,1.70000X2.70000*%
%ADD50C,1.10000*%
%ADD51C,1.40000*%
G04:AMPARAMS|DCode=52|XSize=1.4mm|YSize=1.4mm|CornerRadius=0.35mm|HoleSize=0mm|Usage=FLASHONLY|Rotation=0.000|XOffset=0mm|YOffset=0mm|HoleType=Round|Shape=RoundedRectangle|*
%AMROUNDEDRECTD52*
21,1,1.40000,0.70000,0,0,0.0*
21,1,0.70000,1.40000,0,0,0.0*
1,1,0.70000,0.35000,-0.35000*
1,1,0.70000,-0.35000,-0.35000*
1,1,0.70000,-0.35000,0.35000*
1,1,0.70000,0.35000,0.35000*
%
%ADD52ROUNDEDRECTD52*%
%ADD53R,6.00000X6.00000*%
G04:AMPARAMS|DCode=54|XSize=2.6mm|YSize=2.6mm|CornerRadius=0.65mm|HoleSize=0mm|Usage=FLASHONLY|Rotation=180.000|XOffset=0mm|YOffset=0mm|HoleType=Round|Shape=RoundedRectangle|*
%AMROUNDEDRECTD54*
21,1,2.60000,1.30000,0,0,180.0*
21,1,1.30000,2.60000,0,0,180.0*
1,1,1.30000,-0.65000,0.65000*
1,1,1.30000,0.65000,0.65000*
1,1,1.30000,0.65000,-0.65000*
1,1,1.30000,-0.65000,-0.65000*
%
%ADD54ROUNDEDRECTD54*%
%ADD55C,1.60000*%
%ADD56C,2.60000*%
%TA.AperFunction,ViaPad*%
%ADD57C,0.46000*%
%ADD58C,0.56000*%
%ADD59C,5.45000*%
D40*
X6949999Y3256552D02*
Y3783001D01*
X6914300Y3220853D02*
X6949999Y3256552D01*
X6914300Y3201800D02*
Y3220853D01*
X6230701Y2989301D02*
X6255356D01*
X6255359Y2989298D02*
X6334639D01*
X6701801Y2989301D02*
X6914300Y3201800D01*
X6334639Y2989298D02*
X6334642Y2989301D01*
X6701801D01*
X6255356D02*
X6255359Y2989298D01*
X6134999Y3084998D02*
X6230701Y2989301D01*
D41*
X6052001Y3644000D02*
X6108001Y3700000D01*
X5807939Y3644000D02*
X6052001D01*
X5797438Y3654501D02*
X5807939Y3644000D01*
X3457500Y4942447D02*
X3461000Y4945946D01*
X3457500Y4749999D02*
Y4942447D01*
X3453547Y5211506D02*
X3461000Y5204054D01*
X3453547Y5211506D02*
Y6276954D01*
X3461000Y4945946D02*
Y5204054D01*
X3394000Y4494053D02*
X3421154Y4521207D01*
Y4713653D02*
X3457500Y4749999D01*
X3421154Y4521207D02*
Y4713653D01*
X3394000Y4235946D02*
Y4494053D01*
X3421154Y4153156D02*
Y4208793D01*
X3394000Y4235946D02*
X3421154Y4208793D01*
X6098875Y6231125D02*
X6189251Y6321501D01*
X7642454D01*
X3117427Y6649025D02*
X3328699D01*
X3338225Y6639499D01*
X2610002Y6829999D02*
X2816976Y6623025D01*
X3303882Y6426619D02*
X3453547Y6276954D01*
X3293192Y6426619D02*
X3303882D01*
X3164295Y6613500D02*
X3327456D01*
X3119501Y6684398D02*
X3128874Y6675025D01*
X3170001Y6720002D02*
X3210001Y6760002D01*
X3128874Y6675025D02*
X3339469D01*
X2816976Y6623025D02*
X3154769D01*
X3119501Y6684398D02*
Y6742689D01*
X3338225Y6639499D02*
X3338225D01*
X3339469Y6675025D02*
X3968323Y6046170D01*
X3137786Y6582025D02*
X3293192Y6426619D01*
X3154769Y6623025D02*
X3164295Y6613500D01*
X2856956Y6909496D02*
X3117427Y6649025D01*
X3170001Y6716025D02*
Y6720002D01*
X3139999Y6795000D02*
X3147999Y6803000D01*
X3139999Y6763187D02*
Y6795000D01*
X3147999Y6803000D02*
Y6847999D01*
X3150000Y6850000D01*
X8186862Y5848579D02*
Y5899597D01*
X8008487Y5624087D02*
X8145912Y5761512D01*
X8161655Y5815254D02*
Y5823372D01*
X8186862Y5848579D01*
X6608882Y6080857D02*
X6718241Y5971498D01*
X8056979D01*
X8139238Y5889238D01*
X8155597Y6674449D02*
X8187822D01*
X8149958Y6680088D02*
X8155597Y6674449D01*
X8152304Y6577700D02*
X8154607Y6575397D01*
X8197001D01*
X8177913Y6474000D02*
X8184416D01*
X8197001Y6575397D02*
X8225416Y6546982D01*
X8176641Y6530000D02*
X8184416D01*
X7657186Y6373002D02*
X8141401D01*
X8071642Y6425001D02*
X8176641Y6530000D01*
X8102915Y6399002D02*
X8177913Y6474000D01*
X8225416Y6457017D02*
Y6546982D01*
X8141401Y6373002D02*
X8225416Y6457017D01*
X5812998Y4447708D02*
X5815706Y4444999D01*
X5812998Y4447708D02*
Y4504273D01*
X3989837Y6234100D02*
X5731200Y4492737D01*
X5766258D02*
X5771998Y4486997D01*
X5731200Y4492737D02*
X5766258D01*
X6012501Y4480001D02*
X6015000Y4482500D01*
X6056376Y4465894D02*
Y6076376D01*
X6090001Y4462749D02*
Y5512374D01*
X6030001Y4439518D02*
X6056376Y4465894D01*
X5910814Y4480001D02*
X6012501D01*
X6059500Y4432248D02*
X6090001Y4462749D01*
X6030001Y4300002D02*
Y4439518D01*
X6059500Y4289501D02*
Y4432248D01*
X6317562Y4361500D02*
X6579060Y4100002D01*
X6323240Y4396760D02*
X6360013D01*
X6317500Y4402500D02*
X6323240Y4396760D01*
X6360013D02*
X6624731Y4132042D01*
X6266251Y4363750D02*
X6268502Y4361500D01*
X6317562D01*
X6579060Y4100002D02*
X6657274D01*
X6197908Y4440498D02*
X6231411Y4474002D01*
X6356309D01*
X6189790Y4440498D02*
X6197908D01*
X6129850Y4452997D02*
X6132032D01*
X6175490Y4485140D02*
X6190351Y4500001D01*
X6164175Y4485140D02*
X6175490D01*
X6132032Y4452997D02*
X6164175Y4485140D01*
X6100500Y4405305D02*
X6167420D01*
X6173226Y4399498D01*
X5398298Y3763955D02*
X5407500Y3754752D01*
X5262464Y3944000D02*
X5268983D01*
X5512985Y3699998D02*
X5751937D01*
X5407500Y3747500D02*
Y3754752D01*
X4588002Y4618461D02*
Y5124679D01*
Y4618461D02*
X5262464Y3944000D01*
X5268983D02*
X5512985Y3699998D01*
X5398298Y3763955D02*
Y3767658D01*
X4561002Y4604954D02*
X5398298Y3767658D01*
X4024061Y5688620D02*
X4145682Y5566999D01*
X4018620Y5688620D02*
X4024061D01*
X4163493Y5540999D02*
X4187718Y5516773D01*
X4134912Y5540999D02*
X4163493D01*
X4030914Y5644998D02*
X4134912Y5540999D01*
X4145682Y5566999D02*
X4174267D01*
X4174764Y5566501D01*
X3378665Y4121247D02*
X3389244D01*
X3323559Y4066140D02*
X3378665Y4121247D01*
X5509997Y4149999D02*
X5766395D01*
X5504998Y4145001D02*
X5509997Y4149999D01*
X5833760Y4216238D02*
X5899998Y4282476D01*
X5766395Y4149999D02*
X5832633Y4216238D01*
X5860000Y4103802D02*
X5867095D01*
X5815741Y4141363D02*
X5839579D01*
X5832633Y4216238D02*
X5833760D01*
X5874801Y4144802D02*
X6030001Y4300002D01*
X5867095Y4103802D02*
X5881096Y4117802D01*
X5843017Y4144802D02*
X5874801D01*
X5810001Y4135623D02*
X5815741Y4141363D01*
X5839579D02*
X5843017Y4144802D01*
X5881096Y4117802D02*
X5887801D01*
X6059500Y4289501D01*
X6649647Y4049647D02*
X6651815D01*
X6877461Y3824001D01*
X6530005Y4000002D02*
X6580002Y4050000D01*
X5280000Y4000002D02*
X6530005D01*
X6108001Y3700000D02*
X6110000D01*
X8438000Y4245914D02*
Y7438457D01*
X8068087Y3876001D02*
X8438000Y4245914D01*
X8490000Y4215002D02*
Y7459996D01*
X8464000Y4235144D02*
Y7449226D01*
X8176457Y7700000D02*
X8438000Y7438457D01*
X8050002Y7899999D02*
X8490000Y7459996D01*
X8098999Y3824001D02*
X8490000Y4215002D01*
X6918044Y3876001D02*
X8068087D01*
X8078857Y3850001D02*
X8464000Y4235144D01*
X6907275Y3850001D02*
X8078857D01*
X8187227Y7725999D02*
X8464000Y7449226D01*
X7850002Y7700000D02*
X8176457D01*
X8024002Y7725999D02*
X8187227D01*
X6827699Y4003115D02*
X7333219D01*
X7395429Y4065325D01*
X7120208Y3917001D02*
X7161208Y3958001D01*
X7196775D01*
X7180498Y3917498D02*
X7354270D01*
X7180001Y3917001D02*
X7180498Y3917498D01*
X6657274Y4100002D02*
X6907275Y3850001D01*
X6662003Y4132042D02*
X6918044Y3876001D01*
X6877461Y3824001D02*
X8098999D01*
X7181866Y4062002D02*
X7182561D01*
X7148980Y4029115D02*
X7181866Y4062002D01*
X6838468Y4029115D02*
X7148980D01*
X7082759Y4070115D02*
X7090877D01*
X6886902Y4055115D02*
X7067759D01*
X7082759Y4070115D01*
X6731977Y4210040D02*
X6886902Y4055115D01*
X6672773Y4158041D02*
X6827699Y4003115D01*
X6683543Y4184040D02*
X6838468Y4029115D01*
X6657035Y4210040D02*
X6731977D01*
X7753566Y5433001D02*
X7756566Y5436001D01*
X8065999D01*
X7349998Y3950000D02*
X7732041Y4332042D01*
Y5408629D02*
X7753566Y5430154D01*
Y5433001D01*
X7732041Y4332042D02*
Y5408629D01*
X7700000Y5446889D02*
X7732613Y5479502D01*
X7526315Y4340001D02*
X7700000Y4513687D01*
Y5446889D01*
X7732613Y5479502D02*
X7791182D01*
X7791679Y5479999D01*
X8069997D02*
X8212862Y5622865D01*
X7791679Y5479999D02*
X8069997D01*
X7776002Y4339229D02*
Y5324012D01*
X7861992Y5410002D02*
X8076768D01*
X7776002Y5324012D02*
X7861992Y5410002D01*
X7320001Y5659999D02*
X7371918Y5711916D01*
Y5713535D01*
X7074369Y5624087D02*
X8008487D01*
X7038456Y5660000D02*
X7074369Y5624087D01*
X7032500Y5660000D02*
X7038456D01*
X6090001Y5512374D02*
X6286126Y5708500D01*
X7051500D02*
X7100001Y5659999D01*
X6286126Y5708500D02*
X7051500D01*
X7892000Y6282698D02*
Y6288002D01*
Y6282698D02*
X8053852Y6120847D01*
X8075924D01*
X8276001Y5609229D02*
Y5920770D01*
X8075924Y6120847D02*
X8276001Y5920770D01*
X7748015Y6299373D02*
X7759386Y6288002D01*
X7767504D01*
X7742900Y6299373D02*
X7748015D01*
X7700000Y6279495D02*
X7700502Y6279998D01*
X7659502Y6172423D02*
Y6301776D01*
Y6172423D02*
X7779928Y6051998D01*
X8071230D02*
X8212862Y5910366D01*
X7700000Y6168695D02*
Y6279495D01*
X7779928Y6051998D02*
X8071230D01*
X8212862Y5622865D02*
Y5910366D01*
X6846720Y6271941D02*
X7434499D01*
X6839161Y6279500D02*
X6846720Y6271941D01*
X6259500Y6279500D02*
X6839161D01*
X6379500Y6740500D02*
X6430000Y6689999D01*
X6468964Y6781500D02*
X6866463Y6384000D01*
X5550002Y7389998D02*
X6158500Y6781500D01*
X6468964D01*
X6424452Y6444452D02*
X6430000Y6450000D01*
Y6689999D01*
X6522829Y6187986D02*
Y6188692D01*
X6657015Y6100257D02*
Y6115494D01*
X6522829Y6187986D02*
X6608882Y6101933D01*
X6578584Y6193925D02*
X6657015Y6115494D01*
Y6100257D02*
X6731274Y6025998D01*
X5665998Y5915294D02*
Y5916000D01*
X6099998Y6350000D01*
X5430002Y5120000D02*
X5649499Y5339497D01*
Y5340502D01*
X2638999Y6960058D02*
X3225905D01*
X4640001Y5545963D01*
X2624020Y6909496D02*
X2856956D01*
X2597999Y6935517D02*
X2624020Y6909496D01*
X2597999Y6935517D02*
Y7099483D01*
X2618196Y7119680D01*
Y7210999D01*
X3920000Y6625000D02*
X4319636Y6225364D01*
Y5941070D02*
Y6225364D01*
X3984097Y6280196D02*
X3989837Y6274456D01*
Y6234100D02*
Y6274456D01*
X3782998Y6050001D02*
X3784498Y6051501D01*
Y6156457D01*
X3369647Y5709647D02*
X3370355D01*
X3265099Y5605099D02*
X3369647Y5709647D01*
X3658617Y4719000D02*
X3665497Y4725881D01*
X3699463D02*
X3706343Y4719000D01*
X3771001D01*
X3642050D02*
X3658617D01*
X3665497Y4725881D02*
X3699463D01*
X3631050Y4708000D02*
X3642050Y4719000D01*
X3581002Y4708000D02*
X3631050D01*
X3771001Y4719000D02*
X3870000Y4620001D01*
X3112020Y4815877D02*
Y4822502D01*
X3153522Y4864004D02*
Y4910630D01*
X3153020Y4805520D02*
X3158944D01*
X3112020Y4822502D02*
X3153522Y4864004D01*
X3158944Y4805520D02*
X3200502Y4847077D01*
X3102920Y4806777D02*
X3112020Y4815877D01*
X3153020Y4911132D02*
X3153522Y4910630D01*
X3174108Y5021000D02*
X3176276D01*
X3159296Y5035812D02*
X3174108Y5021000D01*
X3151178Y5035812D02*
X3159296D01*
X3176276Y5021000D02*
X3200502Y4996774D01*
X3389244Y4121247D02*
X3421154Y4153156D01*
X3160197Y4749500D02*
X3265099Y4854402D01*
X3102920Y4771873D02*
X3125292Y4749500D01*
X3200502Y4847077D02*
Y4996774D01*
X3125292Y4749500D02*
X3160197D01*
X6190351Y4500001D02*
X6367079D01*
X6495547Y4408297D02*
Y4444451D01*
X6490000Y4449999D02*
X6495547Y4444451D01*
X6608882Y6080857D02*
Y6101933D01*
X5899998Y4282476D02*
Y4454042D01*
X8065999Y5436001D02*
X8250001Y5619999D01*
X7354270Y3917498D02*
X7776002Y4339229D01*
X7060001Y4340001D02*
X7526315D01*
X6956039Y4236039D02*
X7060001Y4340001D01*
X6667805Y4236039D02*
X6956039D01*
X6495547Y4408297D02*
X6667805Y4236039D01*
X6367079Y4500001D02*
X6657035Y4210040D01*
X5273233Y3970000D02*
X6580002D01*
X4640001Y4640001D02*
X5280000Y4000002D01*
X4614001Y4629231D02*
X5273233Y3970000D01*
X5751937Y3699998D02*
X5797438Y3654501D01*
X7100001Y5659999D02*
X7320001D01*
X6056376Y6076376D02*
X6259500Y6279500D01*
X5800044Y4554002D02*
X5899998Y4454042D01*
X6206774Y4399498D02*
X6255273Y4448002D01*
X6345540D01*
X6173226Y4399498D02*
X6206774D01*
X6345540Y4448002D02*
X6635501Y4158041D01*
X4614001Y4629231D02*
Y5535193D01*
X4640001Y4640001D02*
Y5545963D01*
X3210001Y6760002D02*
X3389193D01*
X4614001Y5535193D01*
X4213718Y5498963D02*
X4588002Y5124679D01*
X4561002Y4604954D02*
Y5114910D01*
X3119501Y6742689D02*
X3139999Y6763187D01*
X3825001Y5644998D02*
Y6152723D01*
X3338225Y6639499D02*
X3825001Y6152723D01*
X3327456Y6613500D02*
X3784498Y6156457D01*
X3968323Y6038322D02*
Y6046170D01*
X6635501Y4158041D02*
X6672773D01*
X6356309Y4474002D02*
X6646266Y4184040D01*
X6624731Y4132042D02*
X6662003D01*
X6646266Y4184040D02*
X6683543D01*
X5810814Y4580001D02*
X5910814Y4480001D01*
X5754248Y4580001D02*
X5810814D01*
X5456001Y4878248D02*
X5754248Y4580001D01*
X5456001Y4878248D02*
Y5109230D01*
X5483382Y5136617D01*
X5483388D01*
X5646273Y5299502D01*
X5666776D01*
X5690499Y5323225D01*
Y5595000D01*
X5624998Y5660502D02*
X5690499Y5595000D01*
X5624998Y5660502D02*
Y5932277D01*
X6075355Y6382629D01*
X6642628D01*
X6714520Y6454521D01*
X6099998Y6350000D02*
X7109998D01*
X5743478Y4554002D02*
X5800044D01*
X5430002Y4867478D02*
X5743478Y4554002D01*
X5430002Y4867478D02*
Y5120000D01*
X5732709Y4527997D02*
X5789275D01*
X4319636Y5941070D02*
X5732709Y4527997D01*
X5789275D02*
X5812998Y4504273D01*
X7204776Y3950000D02*
X7349998D01*
X5057277Y3599998D02*
X5499999D01*
X6268629Y7018604D02*
X6877233Y6410000D01*
X7620645D01*
X6268629Y7018604D02*
Y7181372D01*
X6866463Y6384000D02*
X7631415D01*
X3265099Y4854402D02*
Y5605099D01*
X3102920Y4771873D02*
Y4806777D01*
X4213718Y5498963D02*
Y5527543D01*
X4174764Y5566501D02*
X4213718Y5527543D01*
X4187718Y5488193D02*
Y5516773D01*
Y5488193D02*
X4561002Y5114910D01*
X3825001Y5644998D02*
X4030914D01*
X3883823Y4486178D02*
X3885418D01*
X3909141Y4460860D02*
Y4462450D01*
X3885418Y4486178D02*
X3909141Y4462450D01*
X3870000Y4500001D02*
X3883823Y4486178D01*
X3870000Y4500001D02*
Y4620001D01*
X3909141Y4460860D02*
X4315181Y4054820D01*
X4602455D01*
X5057277Y3599998D01*
X7196775Y3958001D02*
X7204776Y3950000D01*
X8076768Y5410002D02*
X8276001Y5609229D01*
X7650002Y7899999D02*
X7850002Y7700000D01*
Y7899999D02*
X8024002Y7725999D01*
X8259999Y6440002D02*
Y6602278D01*
X8187822Y6674449D02*
X8259999Y6602278D01*
X6731274Y6025998D02*
X8060461D01*
X8186862Y5899597D01*
X7642454Y6321501D02*
X7667955Y6347003D01*
X7659502Y6301776D02*
X7678725Y6320998D01*
X7721275D01*
X8166999Y6347003D02*
X8259999Y6440002D01*
X7646416Y6399002D02*
X8102915D01*
X7631415Y6384000D02*
X7646416Y6399002D01*
X7635687Y6351499D02*
X7657186Y6373002D01*
X7721275Y6320998D02*
X7742900Y6299373D01*
X7635646Y6425001D02*
X8071642D01*
X7620645Y6410000D02*
X7635646Y6425001D01*
X7667955Y6347003D02*
X8166999D01*
X7111502Y6351499D02*
X7635687D01*
X7109998Y6350000D02*
X7111502Y6351499D01*
X6250000Y7200001D02*
X6268629Y7181372D01*
X8250001Y5619999D02*
Y5910001D01*
X8065150Y6094847D02*
X8250001Y5910001D01*
X7773848Y6094847D02*
X8065150D01*
X7700000Y6168695D02*
X7773848Y6094847D01*
D49*
X6580000Y2700000D02*
D03*
X5850000D02*
D03*
D50*
X6055000Y3205000D02*
D03*
X6215000D02*
D03*
X6135000Y3085000D02*
D03*
X6295000D02*
D03*
X6375000Y3205000D02*
D03*
D51*
X7650002Y7899999D02*
D03*
X7850002D02*
D03*
X8050002D02*
D03*
X8250001D02*
D03*
X3050002D02*
D03*
X3250001D02*
D03*
X3450001D02*
D03*
X3650000D02*
D03*
X7225000Y3175000D02*
D03*
X7424999D02*
D03*
X7025000D02*
D03*
D52*
X7449998Y7899999D02*
D03*
X2850002D02*
D03*
X7624999Y3175000D02*
D03*
D53*
X4225000Y2850002D02*
D03*
Y4800000D02*
D03*
D54*
X3474999Y3850000D02*
D03*
X6250000Y7200001D02*
D03*
X4349999D02*
D03*
D55*
X3774999Y2850002D02*
D03*
X2675001D02*
D03*
X5950001Y8199999D02*
D03*
X7049999D02*
D03*
X4050000D02*
D03*
X5150002D02*
D03*
D56*
X2975000Y3850000D02*
D03*
X6749999Y7200001D02*
D03*
X4849998D02*
D03*
D57*
X5920000Y3685000D02*
D03*
X4732700Y2672700D02*
D03*
X5330000Y8220000D02*
D03*
X2610000Y6660000D02*
D03*
X3500000Y3000000D02*
D03*
X3350000D02*
D03*
X3200000D02*
D03*
X3050000D02*
D03*
X2900000D02*
D03*
X3500000Y2850000D02*
D03*
X3350000D02*
D03*
X3200000D02*
D03*
X3050000D02*
D03*
X2900000D02*
D03*
X6098875Y6231125D02*
D03*
X7800000Y6950000D02*
D03*
X7850000D02*
D03*
X7200001Y7500000D02*
D03*
X8150941Y4225000D02*
D03*
X6490000Y4449999D02*
D03*
X6287737Y3326003D02*
D03*
X6126323Y3352000D02*
D03*
X6347257Y2879695D02*
D03*
X4960000Y4909998D02*
D03*
X4829998Y4920000D02*
D03*
X4509999Y6651099D02*
D03*
X3960002Y6800002D02*
D03*
X3404217Y7186477D02*
D03*
X3599998Y6969999D02*
D03*
X3379998Y7020001D02*
D03*
X3170001Y6716025D02*
D03*
X3137786Y6582025D02*
D03*
X3150000Y6850000D02*
D03*
X8060304Y5580858D02*
D03*
X8161655Y5815254D02*
D03*
X8145912Y5761512D02*
D03*
X8139238Y5889238D02*
D03*
X8149958Y6680088D02*
D03*
X8174645Y6629645D02*
D03*
X8152304Y6577700D02*
D03*
X8184416Y6530000D02*
D03*
Y6474000D02*
D03*
X6721511Y7705103D02*
D03*
X6200000Y7600000D02*
D03*
X5200000Y7000000D02*
D03*
Y5700000D02*
D03*
X5350000Y5400000D02*
D03*
X4300000Y3900000D02*
D03*
X4450000D02*
D03*
X4390173Y3775400D02*
D03*
X4150000Y3750000D02*
D03*
X5815706Y4444999D02*
D03*
X5730001Y4395003D02*
D03*
X7110000Y4660000D02*
D03*
X6666796Y4682499D02*
D03*
X5655000Y4760438D02*
D03*
X5755000D02*
D03*
X5771998Y4486997D02*
D03*
X6015000Y4482500D02*
D03*
X6317500Y4402500D02*
D03*
X6266251Y4363750D02*
D03*
X6189790Y4440498D02*
D03*
X6129850Y4452997D02*
D03*
X6100500Y4405305D02*
D03*
X5847939Y3699998D02*
D03*
X5499999Y3599998D02*
D03*
X5407500Y3747500D02*
D03*
X3687072Y5447502D02*
D03*
X3825001Y5644998D02*
D03*
X4018620Y5688620D02*
D03*
X4142501Y5499999D02*
D03*
X4147147Y5275354D02*
D03*
X4030701Y4459300D02*
D03*
X3880002Y4410998D02*
D03*
Y4354998D02*
D03*
Y4298998D02*
D03*
X3183489Y4337699D02*
D03*
X3162786Y4255869D02*
D03*
X3187500Y4057500D02*
D03*
X3167607Y4155590D02*
D03*
X3531814Y4058666D02*
D03*
X3474999Y4024499D02*
D03*
X3323559Y4066140D02*
D03*
X3645000Y3987500D02*
D03*
X3774999Y4000002D02*
D03*
X4030000Y4109999D02*
D03*
X4162500Y3900000D02*
D03*
X4645701Y3900000D02*
D03*
X4601654Y3831455D02*
D03*
X4692515Y3652339D02*
D03*
X4550016Y3649839D02*
D03*
X4200015D02*
D03*
Y3427339D02*
D03*
X4550016D02*
D03*
X4377119Y3427124D02*
D03*
X4374998Y3650000D02*
D03*
X5259248Y4159245D02*
D03*
X5504998Y4145001D02*
D03*
X5810001Y4135623D02*
D03*
X5860000Y4103802D02*
D03*
X5730001Y3843872D02*
D03*
X5727151Y3899799D02*
D03*
X6649647Y4049647D02*
D03*
X6580002Y4050000D02*
D03*
Y3970000D02*
D03*
X6678402Y3654999D02*
D03*
X6510000Y3606711D02*
D03*
X6414511Y3915491D02*
D03*
X6420002Y3840002D02*
D03*
X5972161Y4051457D02*
D03*
X6400002Y3780003D02*
D03*
X6196360Y3786363D02*
D03*
X6110000Y3700000D02*
D03*
X6099998Y3618000D02*
D03*
X6530000Y3389504D02*
D03*
X6236803Y3355616D02*
D03*
X5694002Y3362938D02*
D03*
X5757500Y3368454D02*
D03*
X5841574Y3339897D02*
D03*
X5943000Y3310349D02*
D03*
X6580002Y3609498D02*
D03*
X6738891Y3525095D02*
D03*
X6881881Y3631880D02*
D03*
X6949999Y3783001D02*
D03*
X7395429Y4065325D02*
D03*
X7180001Y3917001D02*
D03*
X7120208D02*
D03*
X7182561Y4062002D02*
D03*
X7090877Y4070115D02*
D03*
X6910000Y4096115D02*
D03*
X6905732Y3962116D02*
D03*
X6881298Y4145827D02*
D03*
X6939512Y4280488D02*
D03*
X7080001Y4381001D02*
D03*
X8150000Y4370000D02*
D03*
X8020000Y4655002D02*
D03*
X7860000Y4850000D02*
D03*
X7919999Y4849998D02*
D03*
X7979999D02*
D03*
Y4909998D02*
D03*
X7920000Y4910000D02*
D03*
X7860000Y4975000D02*
D03*
X7920000Y4970000D02*
D03*
X7860000Y4909998D02*
D03*
X7980000Y4970000D02*
D03*
X7753566Y5433001D02*
D03*
X7791182Y5479502D02*
D03*
X7844862Y5522124D02*
D03*
X7250843Y5715345D02*
D03*
X7371918Y5713535D02*
D03*
X7032500Y5660000D02*
D03*
X7200000Y6180000D02*
D03*
X7372498Y5885502D02*
D03*
X7476206Y5665087D02*
D03*
X7502328Y5746055D02*
D03*
X7494498Y5811322D02*
D03*
X7536099Y5930498D02*
D03*
X7480502Y5916158D02*
D03*
X7903052Y6185550D02*
D03*
X7999999Y6279998D02*
D03*
X7892000Y6288002D02*
D03*
X7831444Y6297113D02*
D03*
X7767504Y6288002D02*
D03*
X7700502Y6279998D02*
D03*
X7434499Y6271941D02*
D03*
X7446014Y6541270D02*
D03*
X7488715Y6577500D02*
D03*
X7501000Y6477500D02*
D03*
X7504844Y6683136D02*
D03*
X7381893Y6545362D02*
D03*
X6379500Y6740500D02*
D03*
X6424452Y6444452D02*
D03*
X6714520Y6454521D02*
D03*
X6490000Y6462500D02*
D03*
X6578584Y6193925D02*
D03*
X6522829Y6188692D02*
D03*
X5665998Y5915294D02*
D03*
X5649499Y5340502D02*
D03*
X4778469Y5703534D02*
D03*
X4730501Y5825002D02*
D03*
X4851946Y6933055D02*
D03*
X5324943Y7700499D02*
D03*
X2823748Y7553752D02*
D03*
X2610002Y6829999D02*
D03*
X2638999Y6960058D02*
D03*
Y7082500D02*
D03*
X2618196Y7210999D02*
D03*
X3547500Y7227500D02*
D03*
X3764047Y6318535D02*
D03*
X3920000Y6625000D02*
D03*
X4223639Y6213638D02*
D03*
X3968323Y6038322D02*
D03*
X3984097Y6280196D02*
D03*
X3782998Y6050001D02*
D03*
X3773221Y5985146D02*
D03*
X3762888Y5786613D02*
D03*
X3370355Y5709647D02*
D03*
X3397500Y5400000D02*
D03*
X3870884Y5289118D02*
D03*
X3819078Y5310382D02*
D03*
X3900604Y5190106D02*
D03*
X3815568Y4856668D02*
D03*
X3700115Y4766875D02*
D03*
X3682480Y4684881D02*
D03*
X3525002Y4708000D02*
D03*
X3581002D02*
D03*
X3478985Y4671883D02*
D03*
X3501040Y4760441D02*
D03*
X3558764Y4763844D02*
D03*
X3153020Y4805520D02*
D03*
Y4911132D02*
D03*
X3158092Y4980241D02*
D03*
X3151178Y5035812D02*
D03*
X3136024Y5089723D02*
D03*
X3110000Y5145000D02*
D03*
X7879999Y5210002D02*
D03*
X4929998Y2879999D02*
D03*
X5550002Y7389998D02*
D03*
D58*
X3415000Y5185000D02*
D03*
X3525000D02*
D03*
X3635000D02*
D03*
X3415000Y5075000D02*
D03*
X3525000D02*
D03*
X3635000D02*
D03*
X3415000Y4965000D02*
D03*
X3525000D02*
D03*
X3635000D02*
D03*
X3660000Y4255000D02*
D03*
X3550000D02*
D03*
X3440000D02*
D03*
X3660000Y4365000D02*
D03*
X3550000D02*
D03*
X3440000D02*
D03*
X3660000Y4475000D02*
D03*
X3550000D02*
D03*
X3440000D02*
D03*
X7715000Y6715000D02*
D03*
X7825000D02*
D03*
X7935000D02*
D03*
X7715000Y6605000D02*
D03*
X7825000D02*
D03*
X7935000D02*
D03*
X7715000Y6495000D02*
D03*
X7825000D02*
D03*
X7935000D02*
D03*
X7935000Y5695000D02*
D03*
X7825000D02*
D03*
X7715000D02*
D03*
X7935000Y5805000D02*
D03*
X7825000D02*
D03*
X7715000D02*
D03*
X7935000Y5915000D02*
D03*
X7825000D02*
D03*
X7715000D02*
D03*
D59*
X2850002Y4949998D02*
D03*
X8199999Y2850002D02*
D03*
X7975001Y7275002D02*
D03*
%TF.MD5,4f976cd11f320c069121b71c98ea3911*%
M02*
