%TF.GenerationSoftware,Altium Limited,Altium Designer,24.7.2 (38)*%
G04 Layer_Physical_Order=4*
G04 Layer_Color=16711680*
%FSLAX45Y45*%
%MOMM*%
%TF.SameCoordinates,4E20714E-E0DB-4EF4-9D00-32C5CA98EF25*%
%TF.FilePolarity,Positive*%
%TF.FileFunction,Copper,L4,Bot,Signal*%
%TF.Part,Single*%
G01*
G75*
%TA.AperFunction,SMDPad,CuDef*%
%ADD17R,3.35000X1.65000*%
%ADD20R,1.90000X1.50000*%
%ADD21R,1.00000X0.95000*%
%ADD24R,1.00000X1.05000*%
%ADD30R,1.05000X1.00000*%
%TA.AperFunction,Conductor*%
%ADD40C,0.25400*%
%ADD41C,0.16000*%
%ADD42C,0.30000*%
%ADD44C,0.38100*%
%ADD45C,0.50000*%
%ADD46C,0.40000*%
%ADD48C,0.80000*%
%TA.AperFunction,ComponentPad*%
%ADD49O,1.70000X2.70000*%
%ADD50C,1.10000*%
%ADD51C,1.40000*%
G04:AMPARAMS|DCode=52|XSize=1.4mm|YSize=1.4mm|CornerRadius=0.35mm|HoleSize=0mm|Usage=FLASHONLY|Rotation=0.000|XOffset=0mm|YOffset=0mm|HoleType=Round|Shape=RoundedRectangle|*
%AMROUNDEDRECTD52*
21,1,1.40000,0.70000,0,0,0.0*
21,1,0.70000,1.40000,0,0,0.0*
1,1,0.70000,0.35000,-0.35000*
1,1,0.70000,-0.35000,-0.35000*
1,1,0.70000,-0.35000,0.35000*
1,1,0.70000,0.35000,0.35000*
%
%ADD52ROUNDEDRECTD52*%
%ADD53R,6.00000X6.00000*%
G04:AMPARAMS|DCode=54|XSize=2.6mm|YSize=2.6mm|CornerRadius=0.65mm|HoleSize=0mm|Usage=FLASHONLY|Rotation=180.000|XOffset=0mm|YOffset=0mm|HoleType=Round|Shape=RoundedRectangle|*
%AMROUNDEDRECTD54*
21,1,2.60000,1.30000,0,0,180.0*
21,1,1.30000,2.60000,0,0,180.0*
1,1,1.30000,-0.65000,0.65000*
1,1,1.30000,0.65000,0.65000*
1,1,1.30000,0.65000,-0.65000*
1,1,1.30000,-0.65000,-0.65000*
%
%ADD54ROUNDEDRECTD54*%
%ADD55C,1.60000*%
%ADD56C,2.60000*%
%TA.AperFunction,ViaPad*%
%ADD57C,0.46000*%
%ADD58C,0.56000*%
%ADD59C,5.45000*%
%TA.AperFunction,SMDPad,CuDef*%
%ADD63R,2.10000X3.25000*%
%ADD64R,2.10000X0.90000*%
%ADD65R,0.70000X0.60000*%
%AMCUSTOMSHAPE66*
4,1,4,0.37500,0.50000,0.37500,-0.50000,-0.37500,-0.50000,-0.37500,0.50000,0.37500,0.50000,0.0*%
%ADD66CUSTOMSHAPE66*%

%ADD67O,0.60000X1.00000*%
%ADD68R,1.65000X3.35000*%
%ADD69O,1.50000X0.60000*%
%ADD70R,5.60000X6.80000*%
%ADD71R,1.00000X3.00000*%
%ADD72R,1.50000X1.90000*%
%AMCUSTOMSHAPE73*
4,1,4,-0.97500,0.60000,0.72500,0.60000,0.72500,-0.60000,-0.97500,-0.60000,-0.97500,0.60000,0.0*%
%ADD73CUSTOMSHAPE73*%

%AMCUSTOMSHAPE74*
4,1,4,-0.71700,0.60000,0.97500,0.60000,0.97500,-0.60000,-0.71700,-0.60000,-0.71700,0.60000,0.0*%
%ADD74CUSTOMSHAPE74*%

%TA.AperFunction,Conductor*%
%ADD75C,2.50000*%
%ADD76C,0.60000*%
%ADD77C,2.00000*%
%ADD78C,1.00000*%
%ADD79C,1.80000*%
G36*
X6235634Y7650328D02*
X6227416Y7641031D01*
X6212700Y7647127D01*
Y7612700D01*
X6247127D01*
X6241031Y7627416D01*
X6250328Y7635634D01*
X6394096Y7491865D01*
Y7314197D01*
X6381396Y7309886D01*
X6372057Y7322057D01*
X6355345Y7334881D01*
X6335884Y7342942D01*
X6333593Y7343243D01*
X6332043Y7355020D01*
X6320455Y7382996D01*
X6302022Y7407018D01*
X6302021Y7407019D01*
X6029521Y7679520D01*
X6005498Y7697953D01*
X5977522Y7709541D01*
X5947501Y7713493D01*
X5947499Y7713493D01*
X5550002D01*
X5519981Y7709541D01*
X5492005Y7697953D01*
X5488157Y7695001D01*
X5367502D01*
X5362943Y7705812D01*
Y7708058D01*
X5357158Y7722024D01*
X5363133Y7734010D01*
X6151952D01*
X6235634Y7650328D01*
D02*
G37*
G36*
X4494095Y7406208D02*
Y7314197D01*
X4481395Y7309886D01*
X4472056Y7322057D01*
X4455344Y7334881D01*
X4435883Y7342942D01*
X4414999Y7345691D01*
X4368347D01*
X4244718Y7469320D01*
X4220696Y7487753D01*
X4200557Y7496094D01*
X4203084Y7508794D01*
X4391508D01*
X4494095Y7406208D01*
D02*
G37*
G36*
X8473220Y8501550D02*
X8487709Y8495549D01*
X8500747Y8486837D01*
X8511837Y8475747D01*
X8520548Y8462709D01*
X8526550Y8448221D01*
X8529609Y8432841D01*
Y8425000D01*
Y2625000D01*
Y2617159D01*
X8526550Y2601780D01*
X8520549Y2587291D01*
X8511837Y2574252D01*
X8500747Y2563163D01*
X8487709Y2554451D01*
X8473222Y2548450D01*
X8457840Y2545391D01*
X6645885D01*
X6641574Y2558091D01*
X6658738Y2571262D01*
X6676434Y2594323D01*
X6687558Y2621180D01*
X6691353Y2650000D01*
Y2687300D01*
X6580000D01*
X6468647D01*
Y2661236D01*
X5961353D01*
Y2687300D01*
X5850000D01*
X5738647D01*
Y2650000D01*
X5742442Y2621180D01*
X5753566Y2594323D01*
X5771262Y2571262D01*
X5788426Y2558091D01*
X5784115Y2545391D01*
X4540000D01*
Y2784994D01*
X4552700Y2790254D01*
X4568127Y2774828D01*
X4568128Y2774827D01*
X4577290Y2768705D01*
X4588099Y2766555D01*
X4844801D01*
X4844802Y2766555D01*
X4850963Y2767781D01*
X4855609Y2768705D01*
X4855610Y2768705D01*
X4864772Y2774827D01*
X4864772Y2774828D01*
X4931940Y2841999D01*
X4937556D01*
X4951523Y2847785D01*
X4955495Y2851757D01*
X5348301D01*
X5378322Y2821735D01*
X5373462Y2810002D01*
X5177500D01*
Y2690002D01*
X5417500D01*
Y2709219D01*
X5654836D01*
X5654837Y2709218D01*
X5670445Y2712323D01*
X5683675Y2721163D01*
X5727858Y2765344D01*
X5739886Y2759412D01*
X5738647Y2750000D01*
Y2712700D01*
X5850000D01*
X5961353D01*
Y2750000D01*
X5957558Y2778820D01*
X5946434Y2805676D01*
X5928738Y2828738D01*
X5921208Y2834517D01*
X5925519Y2847217D01*
X5979598D01*
Y2832699D01*
X6039998D01*
Y2819999D01*
X6052698D01*
Y2764600D01*
X6100398D01*
X6100398Y2764599D01*
X6113098Y2766226D01*
X6121810Y2760405D01*
X6137417Y2757301D01*
X6411411D01*
X6411412Y2757301D01*
X6427019Y2760405D01*
X6440251Y2769246D01*
X6464968Y2793963D01*
X6475734Y2786769D01*
X6472442Y2778820D01*
X6468647Y2750000D01*
Y2712700D01*
X6567300D01*
Y2859681D01*
X6551180Y2857558D01*
X6524324Y2846434D01*
X6501262Y2828738D01*
X6491391Y2815874D01*
X6479513Y2821256D01*
X6480542Y2826431D01*
Y3124007D01*
X6480542Y3124008D01*
X6478413Y3134710D01*
X6477438Y3139614D01*
X6477437Y3139615D01*
X6477437Y3139616D01*
X6474205Y3144452D01*
X6468597Y3152845D01*
X6468596Y3152846D01*
X6441663Y3179776D01*
X6442883Y3182722D01*
Y3184385D01*
X6443808Y3185768D01*
X6445924Y3196406D01*
X6445600Y3198038D01*
X6446236Y3199574D01*
Y3204997D01*
X6446236Y3204998D01*
X6446236Y3204998D01*
X6446235Y3218562D01*
X6487031Y3259358D01*
X6498764Y3254498D01*
Y3025000D01*
X6503519Y3013519D01*
X6515000Y3008764D01*
X6655000D01*
X6666480Y3013519D01*
X6671236Y3025000D01*
Y3159940D01*
X6683936Y3165200D01*
X6705194Y3143942D01*
X6705194Y3143942D01*
X6718425Y3135101D01*
X6718557Y3135075D01*
X6733529Y3120103D01*
Y3042781D01*
X6863528D01*
Y3123382D01*
X6875262Y3128242D01*
X6990211Y3013294D01*
X6990212Y3013293D01*
X6999374Y3007171D01*
X7010182Y3005021D01*
X7012502D01*
Y2937499D01*
X7142502D01*
Y3062499D01*
X7028411D01*
X7025283Y3066900D01*
X7031837Y3079600D01*
X7037559D01*
X7061823Y3086102D01*
X7083577Y3098661D01*
X7101339Y3116423D01*
X7113898Y3138177D01*
X7120362Y3162300D01*
X7025000D01*
Y3175000D01*
X7012300D01*
Y3270362D01*
X6988177Y3263898D01*
X6966423Y3251339D01*
X6948661Y3233577D01*
X6936101Y3211823D01*
X6929600Y3187560D01*
Y3171747D01*
X6916900Y3166486D01*
X6899471Y3183915D01*
Y3457391D01*
X6899471Y3457393D01*
X6897321Y3468201D01*
X6891199Y3477363D01*
X6891198Y3477363D01*
X6777585Y3590971D01*
X6777585Y3590972D01*
X6768422Y3597094D01*
X6757614Y3599244D01*
X6757612Y3599244D01*
X6651750D01*
X6646490Y3611944D01*
X6652672Y3618127D01*
X6652673Y3618127D01*
X6653197Y3618912D01*
X6656877Y3622784D01*
X6670843Y3616999D01*
X6685960D01*
X6699927Y3622784D01*
X6710617Y3633474D01*
X6716402Y3647441D01*
Y3662558D01*
X6710617Y3676524D01*
X6699927Y3687214D01*
X6685960Y3692999D01*
X6670844D01*
X6660945Y3699613D01*
Y3774801D01*
X6658795Y3785609D01*
X6652673Y3794771D01*
X6652672Y3794772D01*
X6625002Y3822442D01*
Y3917500D01*
X6495002D01*
Y3782500D01*
X6484602Y3777898D01*
Y3712698D01*
X6560002D01*
Y3687298D01*
X6484602D01*
Y3648579D01*
X6482583Y3647743D01*
X6468968Y3634127D01*
X6462873Y3619411D01*
X6510000D01*
Y3606711D01*
X6522700D01*
Y3559584D01*
X6537416Y3565680D01*
X6544768Y3573032D01*
X6558477Y3577283D01*
X6572444Y3571498D01*
X6583556D01*
X6604024Y3551031D01*
X6604024Y3551030D01*
X6613187Y3544908D01*
X6623995Y3542758D01*
X6694139D01*
X6700891Y3532654D01*
Y3517537D01*
X6706676Y3503570D01*
X6717366Y3492880D01*
X6731332Y3487095D01*
X6746450D01*
X6760416Y3492880D01*
X6771106Y3503570D01*
X6782783Y3505893D01*
X6842986Y3445693D01*
Y3338178D01*
X6811228D01*
Y3260278D01*
X6785828D01*
Y3338178D01*
X6723129D01*
Y3338178D01*
X6716064Y3335252D01*
X6702478Y3348838D01*
X6689247Y3357679D01*
X6673639Y3360784D01*
X6673638Y3360783D01*
X6571613D01*
X6564495Y3373484D01*
X6568000Y3381945D01*
Y3397062D01*
X6562215Y3411029D01*
X6551525Y3421718D01*
X6537558Y3427503D01*
X6522441D01*
X6513486Y3423794D01*
X6500786Y3430623D01*
Y3490001D01*
X6497681Y3505608D01*
X6488841Y3518839D01*
X6488840Y3518840D01*
X6412119Y3595561D01*
X6415837Y3609803D01*
X6427442Y3617557D01*
X6437388Y3632442D01*
X6440880Y3650000D01*
Y3690000D01*
X6437388Y3707558D01*
X6429716Y3719040D01*
Y3755976D01*
X6432217Y3758477D01*
X6438002Y3772444D01*
Y3787561D01*
X6436228Y3791846D01*
X6441528Y3807788D01*
X6452217Y3818477D01*
X6458002Y3832444D01*
Y3847561D01*
X6452217Y3861528D01*
X6441528Y3872217D01*
X6440636Y3874013D01*
X6439545Y3886785D01*
X6446726Y3893966D01*
X6452511Y3907933D01*
Y3923050D01*
X6446726Y3937017D01*
X6436036Y3947706D01*
X6422069Y3953491D01*
X6406952D01*
X6392986Y3947706D01*
X6382296Y3937017D01*
X6376511Y3923050D01*
Y3907933D01*
X6382296Y3893966D01*
X6392985Y3883277D01*
X6393877Y3881481D01*
X6394968Y3868709D01*
X6387788Y3861528D01*
X6382002Y3847561D01*
Y3832444D01*
X6387788Y3818478D01*
X6387266Y3815858D01*
X6378477Y3812217D01*
X6367788Y3801528D01*
X6362003Y3787561D01*
Y3781786D01*
X6361629Y3779906D01*
X6360282Y3773152D01*
X6360283Y3773143D01*
X6360282Y3773134D01*
Y3719040D01*
X6354557Y3710472D01*
X6350795Y3709571D01*
X6344206D01*
X6340445Y3710472D01*
X6332446Y3722443D01*
X6317561Y3732389D01*
X6300003Y3735882D01*
X6282445Y3732389D01*
X6267559Y3722443D01*
X6259558Y3710468D01*
X6255782Y3709565D01*
X6249222D01*
X6245446Y3710468D01*
X6239719Y3719040D01*
Y3775857D01*
X6239718Y3775862D01*
X6239719Y3775867D01*
X6238369Y3782644D01*
X6237076Y3789143D01*
X6237073Y3789147D01*
X6237072Y3789152D01*
X6234360Y3793208D01*
Y3793921D01*
X6228575Y3807888D01*
X6217886Y3818578D01*
X6203919Y3824363D01*
X6188802D01*
X6174835Y3818578D01*
X6164146Y3807888D01*
X6158361Y3793921D01*
Y3778804D01*
X6164146Y3764838D01*
X6170285Y3758699D01*
Y3719040D01*
X6162613Y3707558D01*
X6160700Y3697943D01*
X6148000Y3699194D01*
Y3707558D01*
X6142215Y3721525D01*
X6131525Y3732215D01*
X6117559Y3738000D01*
X6102441D01*
X6101144Y3737462D01*
X6088444Y3745949D01*
Y3877300D01*
X6086294Y3888108D01*
X6080172Y3897271D01*
X6080171Y3897271D01*
X6062902Y3914540D01*
Y3937300D01*
X5985002D01*
Y3962700D01*
X6062902D01*
Y4025400D01*
X6016245D01*
X6007759Y4038100D01*
X6010161Y4043898D01*
Y4059016D01*
X6004376Y4072982D01*
X5993686Y4083672D01*
X5991364Y4095348D01*
X6181826Y4285810D01*
X6554046D01*
X6554048Y4285810D01*
X6564856Y4287960D01*
X6574019Y4294082D01*
X6574020Y4294083D01*
X6684971Y4405029D01*
X6684971Y4405029D01*
X6687471Y4407529D01*
X6693593Y4416691D01*
X6695743Y4427499D01*
X6695743Y4427501D01*
Y4657705D01*
X6699011Y4660973D01*
X6704796Y4674940D01*
Y4690057D01*
X6699011Y4704024D01*
X6688321Y4714713D01*
X6674354Y4720499D01*
X6659237D01*
X6645271Y4714713D01*
X6634581Y4704024D01*
X6632701Y4699486D01*
X6620001Y4702012D01*
Y4829413D01*
X7129997D01*
X7129998Y4829412D01*
X7141704Y4831741D01*
X7151627Y4838372D01*
X7191900Y4878644D01*
X7204600Y4873383D01*
Y4797699D01*
X7312299D01*
Y4885399D01*
X7216615D01*
X7211355Y4898099D01*
X7220169Y4906913D01*
X7417718D01*
X7417719Y4906913D01*
X7429425Y4909242D01*
X7437607Y4914708D01*
X7441224Y4915354D01*
X7453423Y4911986D01*
X7460058Y4902055D01*
X7474943Y4892110D01*
X7492501Y4888617D01*
X7543869D01*
X7556004Y4887752D01*
X7558154Y4876944D01*
X7564276Y4867782D01*
X7621458Y4810599D01*
X7616198Y4797899D01*
X7567701D01*
Y4724999D01*
Y4652099D01*
X7629447D01*
X7629447Y4652099D01*
X7630402D01*
X7635954Y4662499D01*
X7643102Y4662499D01*
X7765000D01*
Y4779598D01*
X7777700Y4784858D01*
X7815000Y4747559D01*
Y4662499D01*
X7944999D01*
Y4787499D01*
X7860385D01*
X7857400Y4791687D01*
X7858227Y4795641D01*
X7863622Y4804839D01*
X7877558Y4807611D01*
X7892443Y4817557D01*
X7898140Y4818118D01*
X7898474Y4817783D01*
X7912441Y4811998D01*
X7927558D01*
X7941525Y4817783D01*
X7949999Y4826258D01*
X7958474Y4817783D01*
X7972441Y4811998D01*
X7987558D01*
X8001525Y4817783D01*
X8012214Y4828473D01*
X8017999Y4842439D01*
Y4857556D01*
X8012214Y4871523D01*
X8003739Y4879998D01*
X8012214Y4888473D01*
X8013797Y4892295D01*
X8027173Y4894494D01*
X8028281Y4894075D01*
X8045885Y4882313D01*
X8067501Y4878013D01*
X8099801D01*
Y4934499D01*
X8125201D01*
Y4878013D01*
X8157501D01*
X8179117Y4882313D01*
X8197442Y4894557D01*
X8205259Y4906256D01*
X8249603D01*
Y4847099D01*
X8312302D01*
Y4924999D01*
X8325002D01*
Y4937699D01*
X8400402D01*
Y5002899D01*
X8390002Y5007502D01*
Y5142501D01*
X8260003D01*
Y5091657D01*
X8191471D01*
X8189944Y5093942D01*
X8175059Y5103888D01*
X8157501Y5107380D01*
X8069229D01*
X8066120Y5111469D01*
X8063402Y5119514D01*
X8086506Y5142617D01*
X8157501D01*
X8175059Y5146110D01*
X8189944Y5156055D01*
X8199890Y5170941D01*
X8203382Y5188499D01*
X8201072Y5200113D01*
X8209487Y5212813D01*
X8218500D01*
X8232157Y5215529D01*
X8243734Y5223265D01*
X8290469Y5270000D01*
X8460001D01*
Y5449999D01*
X8240001D01*
Y5320467D01*
X8210457Y5290923D01*
X8200577Y5297484D01*
X8199983Y5298409D01*
X8203382Y5315499D01*
X8199890Y5333057D01*
X8189944Y5347942D01*
X8175059Y5357888D01*
X8157501Y5361380D01*
X7492501D01*
X7474943Y5357888D01*
X7460058Y5347942D01*
X7450112Y5333057D01*
X7447699Y5320927D01*
X7434999Y5322178D01*
Y5374998D01*
X7303858D01*
Y5400352D01*
X7303858Y5400353D01*
X7303858Y5400355D01*
X7300754Y5415960D01*
X7300753Y5415961D01*
X7300753Y5415962D01*
X7294539Y5425262D01*
X7291914Y5429192D01*
X7291913Y5429193D01*
X7291912Y5429194D01*
X7268243Y5452865D01*
X7273104Y5464598D01*
X7312299D01*
Y5564998D01*
X7324999D01*
Y5577698D01*
X7445399D01*
Y5588153D01*
X7457132Y5593013D01*
X7546225Y5503921D01*
X7546226Y5503920D01*
X7553834Y5498837D01*
X7562808Y5497051D01*
X7746506D01*
X7753182Y5487060D01*
Y5471944D01*
X7752552Y5471001D01*
X7746007D01*
X7732041Y5465216D01*
X7721351Y5454527D01*
X7715566Y5440560D01*
Y5425443D01*
X7721351Y5411476D01*
X7732041Y5400787D01*
X7746007Y5395001D01*
X7761124D01*
X7775091Y5400787D01*
X7785781Y5411476D01*
X7791566Y5425443D01*
Y5440560D01*
X7792196Y5441502D01*
X7798740D01*
X7812707Y5447287D01*
X7823396Y5457977D01*
X7829181Y5471944D01*
Y5473742D01*
X7837304Y5484124D01*
X7840915Y5484124D01*
X7852421D01*
X7866388Y5489909D01*
X7877077Y5500599D01*
X7882862Y5514566D01*
Y5529683D01*
X7882318Y5530996D01*
X7889374Y5541556D01*
X7910001D01*
Y5462502D01*
X8040000D01*
Y5529895D01*
X8042067Y5536462D01*
X8052746Y5542858D01*
X8067862D01*
X8081829Y5548643D01*
X8092519Y5559332D01*
X8098304Y5573299D01*
Y5588416D01*
X8092519Y5602383D01*
X8081829Y5613072D01*
X8067862Y5618857D01*
X8052746D01*
X8050400Y5620424D01*
Y5667299D01*
X7975001D01*
Y5692699D01*
X8050400D01*
Y5757899D01*
X7981378D01*
X7976118Y5770599D01*
X7980270Y5774751D01*
X7987539Y5792300D01*
X7935000D01*
Y5817700D01*
X7987539D01*
X7980270Y5835248D01*
X7965248Y5850270D01*
X7958353Y5853126D01*
Y5866873D01*
X7965248Y5869729D01*
X7980270Y5884751D01*
X7987539Y5902300D01*
X7935000D01*
Y5915000D01*
X7922300D01*
Y5967539D01*
X7904751Y5960270D01*
X7889729Y5945248D01*
X7888899Y5943243D01*
X7871101D01*
X7870270Y5945248D01*
X7855248Y5960270D01*
X7837700Y5967539D01*
Y5915000D01*
X7812300D01*
Y5968793D01*
X7802899Y5975075D01*
Y5980402D01*
X7737699D01*
Y5905002D01*
X7712299D01*
Y5980402D01*
X7647098D01*
X7642501Y5970002D01*
X7507501D01*
Y5959493D01*
X7496939Y5950481D01*
X7488061Y5954158D01*
X7472944D01*
X7458977Y5948373D01*
X7448288Y5937683D01*
X7442503Y5923717D01*
Y5908600D01*
X7448288Y5894633D01*
X7439386Y5885574D01*
X7418933Y5865121D01*
X7408167Y5872315D01*
X7410498Y5877944D01*
Y5893061D01*
X7404713Y5907028D01*
X7394023Y5917717D01*
X7391137Y5918913D01*
X7388659Y5931369D01*
X7602059Y6144767D01*
X8115548D01*
X8115549Y6144766D01*
X8131156Y6147871D01*
X8144387Y6156712D01*
X8328836Y6341161D01*
X8328837Y6341162D01*
X8337678Y6354393D01*
X8340782Y6370000D01*
X8340782Y6370001D01*
Y6789997D01*
X8340782Y6789998D01*
X8337678Y6805606D01*
X8328838Y6818837D01*
X8178840Y6968839D01*
X8178840Y6968840D01*
X8168841Y6978838D01*
X8155610Y6987679D01*
X8140003Y6990784D01*
X8140001Y6990784D01*
X8071734D01*
X8069722Y7003484D01*
X8085362Y7008565D01*
X8125683Y7029110D01*
X8162294Y7055709D01*
X8194293Y7087708D01*
X8220892Y7124319D01*
X8241437Y7164640D01*
X8255421Y7207679D01*
X8262500Y7252375D01*
Y7297629D01*
X8255421Y7342325D01*
X8241437Y7385364D01*
X8220892Y7425685D01*
X8194293Y7462295D01*
X8162294Y7494295D01*
X8125683Y7520894D01*
X8085362Y7541439D01*
X8042324Y7555423D01*
X7997627Y7562502D01*
X7952374D01*
X7907678Y7555423D01*
X7864639Y7541439D01*
X7824318Y7520894D01*
X7787707Y7494295D01*
X7755708Y7462295D01*
X7729109Y7425685D01*
X7708564Y7385364D01*
X7694580Y7342325D01*
X7687501Y7297629D01*
Y7252375D01*
X7694580Y7207679D01*
X7708564Y7164640D01*
X7729109Y7124319D01*
X7755708Y7087708D01*
X7787707Y7055709D01*
X7824318Y7029110D01*
X7864639Y7008565D01*
X7880279Y7003484D01*
X7878267Y6990784D01*
X7800000D01*
X7784393Y6987679D01*
X7771161Y6978838D01*
X7762321Y6965607D01*
X7759216Y6950000D01*
X7762321Y6934393D01*
X7771161Y6921162D01*
X7784393Y6912321D01*
X7800000Y6909217D01*
X8123109D01*
X8259215Y6773107D01*
Y6596762D01*
X8247441Y6589281D01*
X8246515Y6589405D01*
X8241998Y6596166D01*
X8241997Y6596166D01*
X8212645Y6625519D01*
Y6637203D01*
X8206860Y6651170D01*
X8196171Y6661859D01*
X8185388Y6666326D01*
X8187958Y6672530D01*
Y6687647D01*
X8182173Y6701613D01*
X8171483Y6712303D01*
X8157517Y6718088D01*
X8142400D01*
X8128433Y6712303D01*
X8117743Y6701613D01*
X8111958Y6687647D01*
Y6672530D01*
X8117743Y6658563D01*
X8128433Y6647873D01*
X8139215Y6643407D01*
X8136645Y6637203D01*
Y6622086D01*
X8140090Y6613771D01*
X8130779Y6609914D01*
X8120089Y6599225D01*
X8114304Y6585258D01*
Y6570141D01*
X8120089Y6556174D01*
X8130779Y6545485D01*
X8144746Y6539700D01*
X8144985D01*
X8146416Y6537558D01*
Y6522441D01*
X8152201Y6508474D01*
X8158676Y6502000D01*
X8152201Y6495525D01*
X8146416Y6481558D01*
Y6466441D01*
X8152201Y6452475D01*
X8162891Y6441785D01*
X8176857Y6436000D01*
X8191974D01*
X8205941Y6441785D01*
X8216631Y6452475D01*
X8222416Y6466441D01*
Y6476853D01*
X8241997Y6496434D01*
X8241998Y6496435D01*
X8246515Y6503195D01*
X8247442Y6503320D01*
X8259215Y6495840D01*
Y6386893D01*
X8098656Y6226334D01*
X8014165D01*
X8006147Y6239034D01*
X8006179Y6239101D01*
X8009752Y6242907D01*
X8021524Y6247783D01*
X8032214Y6258472D01*
X8033882Y6262500D01*
X8040000D01*
X8040001Y6396550D01*
X8050401Y6402102D01*
X8050401Y6403053D01*
X8050400Y6403053D01*
Y6467302D01*
X7975001D01*
Y6492702D01*
X8050400D01*
Y6557902D01*
X7981382D01*
X7976121Y6570602D01*
X7980271Y6574751D01*
X7987539Y6592300D01*
X7935000D01*
Y6617700D01*
X7987539D01*
X7980271Y6635249D01*
X7965249Y6650270D01*
X7958353Y6653127D01*
Y6666873D01*
X7965249Y6669730D01*
X7980271Y6684751D01*
X7987539Y6702300D01*
X7935000D01*
Y6715000D01*
X7922300D01*
Y6767539D01*
X7904752Y6760270D01*
X7889730Y6745249D01*
X7888899Y6743243D01*
X7871101D01*
X7870271Y6745249D01*
X7855249Y6760270D01*
X7837700Y6767539D01*
Y6715000D01*
X7812300D01*
Y6767539D01*
X7794751Y6760270D01*
X7779730Y6745249D01*
X7776873Y6738353D01*
X7763127D01*
X7760270Y6745249D01*
X7745249Y6760270D01*
X7727700Y6767539D01*
Y6715000D01*
X7715000D01*
Y6702300D01*
X7662461D01*
X7669730Y6684751D01*
X7684751Y6669730D01*
X7686757Y6668899D01*
Y6651101D01*
X7684751Y6650270D01*
X7669730Y6635249D01*
X7662461Y6617700D01*
X7715000D01*
Y6592300D01*
X7662461D01*
X7669730Y6574751D01*
X7684751Y6559730D01*
X7691647Y6556873D01*
Y6543127D01*
X7684751Y6540270D01*
X7669730Y6525249D01*
X7662461Y6507700D01*
X7715000D01*
Y6495000D01*
X7727700D01*
Y6442461D01*
X7745249Y6449730D01*
X7760270Y6464751D01*
X7761101Y6466757D01*
X7778899D01*
X7779730Y6464751D01*
X7794751Y6449730D01*
X7812300Y6442461D01*
Y6495000D01*
X7837700D01*
Y6442461D01*
X7855249Y6449730D01*
X7870271Y6464751D01*
X7873127Y6471647D01*
X7886873D01*
X7889730Y6464751D01*
X7899601Y6454880D01*
Y6403053D01*
X7899600Y6403053D01*
Y6402102D01*
X7910000Y6396550D01*
X7910001Y6389402D01*
Y6332979D01*
X7899559Y6326002D01*
X7884442D01*
X7870475Y6320216D01*
X7868028Y6317769D01*
X7863658Y6318638D01*
X7852969Y6329328D01*
X7839002Y6335113D01*
X7823918D01*
X7813447Y6345584D01*
X7805839Y6350667D01*
X7796865Y6352452D01*
X7796863Y6352452D01*
X7640232D01*
X7640231Y6352452D01*
X7631257Y6350667D01*
X7623649Y6345584D01*
X7623648Y6345583D01*
X7573457Y6295392D01*
X7464789D01*
X7456025Y6304156D01*
X7442058Y6309941D01*
X7426941D01*
X7412974Y6304156D01*
X7402285Y6293466D01*
X7396500Y6279500D01*
Y6264383D01*
X7389885Y6254484D01*
X7246241D01*
X7235433Y6252334D01*
X7226271Y6246212D01*
X7226270Y6246211D01*
X7198059Y6218000D01*
X7192442D01*
X7178475Y6212215D01*
X7167785Y6201525D01*
X7162000Y6187559D01*
Y6172442D01*
X7167785Y6158475D01*
X7178475Y6147785D01*
X7192442Y6142000D01*
X7207559D01*
X7221525Y6147785D01*
X7232215Y6158475D01*
X7238000Y6172442D01*
Y6178059D01*
X7257940Y6197999D01*
X7523344D01*
X7528204Y6186265D01*
X7161161Y5819226D01*
X7161160Y5819226D01*
X7152319Y5805994D01*
X7149215Y5790387D01*
X7149215Y5790386D01*
Y5473431D01*
X7149215Y5473429D01*
X7149215Y5473426D01*
X7151105Y5463928D01*
X7152319Y5457823D01*
X7152320Y5457822D01*
X7152321Y5457819D01*
X7156609Y5451403D01*
X7161160Y5444592D01*
X7161162Y5444591D01*
X7161163Y5444589D01*
X7184596Y5421162D01*
X7218056Y5387698D01*
X7214999Y5374998D01*
X7215000D01*
Y5290880D01*
X6424006D01*
X6332290Y5382596D01*
X6437347Y5487653D01*
X6459788Y5516898D01*
X6473895Y5550955D01*
X6478706Y5587502D01*
Y5659501D01*
Y5759501D01*
Y5886501D01*
X6476929Y5900000D01*
X6478706Y5913492D01*
X6473897Y5950039D01*
X6462731Y5977001D01*
X6473897Y6003963D01*
X6478706Y6040510D01*
X6473892Y6077058D01*
X6459783Y6111113D01*
X6437340Y6140357D01*
X6408094Y6162795D01*
X6374036Y6176900D01*
X6337488Y6181709D01*
X6300941Y6176895D01*
X6266886Y6162786D01*
X6237642Y6140343D01*
X6234026Y6136726D01*
X6199998Y6141206D01*
X6163450Y6136395D01*
X6129394Y6122288D01*
X6100149Y6099847D01*
X6077708Y6070602D01*
X6063601Y6036545D01*
X6058790Y5999998D01*
Y5959652D01*
X6049942Y5957892D01*
X6035057Y5947946D01*
X6025111Y5933061D01*
X6021618Y5915503D01*
X6025111Y5897945D01*
X6035057Y5883059D01*
X6049942Y5873113D01*
X6058790Y5871354D01*
Y5832652D01*
X6049942Y5830892D01*
X6035057Y5820946D01*
X6025111Y5806061D01*
X6021618Y5788503D01*
X6025111Y5770945D01*
X6035057Y5756059D01*
X6049942Y5746113D01*
X6058790Y5744354D01*
Y5705652D01*
X6049942Y5703892D01*
X6035057Y5693946D01*
X6025111Y5679061D01*
X6021618Y5661503D01*
X6025111Y5643945D01*
X6035057Y5629059D01*
X6049942Y5619113D01*
X6058790Y5617354D01*
Y5578652D01*
X6049942Y5576892D01*
X6035057Y5566946D01*
X6025111Y5552061D01*
X6021618Y5534503D01*
X6025111Y5516945D01*
X6035057Y5502059D01*
X6037105Y5500691D01*
X6038350Y5488052D01*
X5845511Y5295208D01*
X5672637D01*
X5670111Y5307908D01*
X5671024Y5308287D01*
X5681714Y5318976D01*
X5687499Y5332943D01*
Y5348060D01*
X5681714Y5362027D01*
X5671024Y5372716D01*
X5657058Y5378502D01*
X5641941D01*
X5627974Y5372716D01*
X5617284Y5362027D01*
X5611499Y5348060D01*
Y5332943D01*
X5617284Y5318976D01*
X5627974Y5308287D01*
X5628888Y5307908D01*
X5626361Y5295208D01*
X5215785D01*
Y5332499D01*
X5240001D01*
X5240001Y5466549D01*
X5250402Y5472101D01*
X5250401Y5473052D01*
X5250401Y5473053D01*
Y5537302D01*
X5175001D01*
X5099601D01*
Y5473053D01*
X5099601Y5473052D01*
Y5472101D01*
X5110001Y5466549D01*
X5110001Y5459401D01*
Y5332499D01*
X5134218D01*
Y5295208D01*
X5085153D01*
X5076291Y5316603D01*
X5053850Y5345848D01*
X4899850Y5499849D01*
X4870605Y5522289D01*
X4836548Y5536396D01*
X4800001Y5541207D01*
X4608490D01*
X4553706Y5595993D01*
Y5684500D01*
Y5811500D01*
Y5938500D01*
X4548895Y5975047D01*
X4534788Y6009104D01*
X4512347Y6038349D01*
X4499873Y6047921D01*
X4499887Y6047942D01*
X4503380Y6065500D01*
X4499887Y6083058D01*
X4489941Y6097943D01*
X4475056Y6107889D01*
X4457498Y6111381D01*
X4367498D01*
X4363502Y6110586D01*
X4361548Y6111396D01*
X4325000Y6116207D01*
X4288453Y6111396D01*
X4254396Y6097289D01*
X4225151Y6074849D01*
X4219610Y6067627D01*
X4200002Y6070208D01*
X4163454Y6065397D01*
X4129398Y6051290D01*
X4100153Y6028849D01*
X4077712Y5999604D01*
X4063605Y5965547D01*
X4058794Y5929000D01*
Y5802000D01*
Y5720147D01*
X4046094Y5714886D01*
X4040146Y5720834D01*
X4026179Y5726619D01*
X4011062D01*
X3997095Y5720834D01*
X3986406Y5710145D01*
X3980620Y5696178D01*
Y5681061D01*
X3986406Y5667094D01*
X3997095Y5656405D01*
X4011062Y5650620D01*
X4026179D01*
X4040146Y5656405D01*
X4046094Y5662353D01*
X4058794Y5657092D01*
Y5612234D01*
X4042652Y5599848D01*
X4020211Y5570603D01*
X4006105Y5536546D01*
X4001293Y5499999D01*
X4006105Y5463452D01*
X4020211Y5429395D01*
X4036551Y5408101D01*
X4032702Y5400296D01*
Y5275001D01*
X4007302D01*
Y5395401D01*
X3919602D01*
Y5303987D01*
X3906902Y5301461D01*
X3903099Y5310643D01*
X3892409Y5321333D01*
X3878442Y5327118D01*
X3863325D01*
X3854748Y5323565D01*
X3851293Y5331907D01*
X3840603Y5342596D01*
X3826636Y5348381D01*
X3811519D01*
X3797552Y5342596D01*
X3786863Y5331907D01*
X3781078Y5317940D01*
Y5302823D01*
X3786863Y5288856D01*
X3797552Y5278167D01*
X3800715Y5276857D01*
X3803695Y5261876D01*
X3792163Y5250344D01*
X3786041Y5241181D01*
X3783891Y5230373D01*
X3783891Y5230372D01*
Y4878731D01*
X3783353Y4878193D01*
X3777568Y4864226D01*
Y4849109D01*
X3783353Y4835143D01*
X3792061Y4826434D01*
X3796259Y4812671D01*
X3751732Y4768145D01*
X3739999Y4773005D01*
Y4867500D01*
X3750399Y4872098D01*
Y4937298D01*
X3674999D01*
Y4962698D01*
X3750399D01*
Y5027898D01*
X3681377D01*
X3676117Y5040598D01*
X3680271Y5044751D01*
X3687539Y5062300D01*
X3635000D01*
Y5087700D01*
X3687539D01*
X3680271Y5105249D01*
X3665249Y5120270D01*
X3658353Y5123127D01*
Y5136873D01*
X3665249Y5139730D01*
X3680271Y5154751D01*
X3687539Y5172300D01*
X3635000D01*
Y5185000D01*
X3622300D01*
Y5237539D01*
X3604751Y5230270D01*
X3589730Y5215249D01*
X3588899Y5213243D01*
X3571101D01*
X3570270Y5215249D01*
X3555249Y5230270D01*
X3537700Y5237539D01*
Y5185000D01*
X3512300D01*
Y5237539D01*
X3494751Y5230270D01*
X3479730Y5215249D01*
X3476873Y5208353D01*
X3463127D01*
X3460270Y5215249D01*
X3456108Y5219411D01*
X3445189Y5245773D01*
X3422749Y5275017D01*
X3116208Y5581562D01*
Y6536086D01*
X3128909Y6544572D01*
X3130228Y6544025D01*
X3145345D01*
X3159312Y6549810D01*
X3170001Y6560500D01*
X3175786Y6574467D01*
Y6589584D01*
X3170001Y6603550D01*
X3159312Y6614240D01*
X3145345Y6620025D01*
X3130228D01*
X3128909Y6619479D01*
X3116208Y6627965D01*
Y6812091D01*
X3128475Y6817785D01*
X3142442Y6812000D01*
X3157559D01*
X3171525Y6817785D01*
X3182215Y6828475D01*
X3188000Y6842441D01*
Y6857559D01*
X3182215Y6871525D01*
X3171525Y6882215D01*
X3157559Y6888000D01*
X3142442D01*
X3128475Y6882215D01*
X3116208Y6887909D01*
Y7391508D01*
X3233491Y7508794D01*
X3844373D01*
X3850324Y7496094D01*
X3849413Y7495001D01*
X3517498D01*
Y7300001D01*
X3526550D01*
Y7259953D01*
X3525975Y7259715D01*
X3515285Y7249025D01*
X3509500Y7235058D01*
Y7219941D01*
X3515285Y7205975D01*
X3525975Y7195285D01*
X3539941Y7189500D01*
X3555058D01*
X3569025Y7195285D01*
X3579715Y7205975D01*
X3585500Y7219941D01*
Y7235058D01*
X3579715Y7249025D01*
X3573451Y7255289D01*
Y7300001D01*
X3824865D01*
X3842006Y7286848D01*
X3869981Y7275260D01*
X3900002Y7271308D01*
X4114653D01*
X4204309Y7181653D01*
Y7135001D01*
X4207058Y7114117D01*
X4215119Y7094656D01*
X4227942Y7077944D01*
X4243952Y7065659D01*
X4244127Y7062818D01*
X4241782Y7052564D01*
X4239751Y7052297D01*
X4239750Y7052296D01*
X4239749Y7052296D01*
X4226824Y7046942D01*
X4214208Y7041717D01*
X4214207Y7041716D01*
X4214206Y7041716D01*
X4192273Y7024886D01*
X4192272Y7024885D01*
X4106815Y6939432D01*
X4092003Y6933296D01*
X4067980Y6914863D01*
X4049547Y6890840D01*
X4037959Y6862865D01*
X4034007Y6832844D01*
Y6700004D01*
X4034007Y6700002D01*
X4034994Y6692500D01*
X4034007Y6685001D01*
Y6645298D01*
X4020884Y6642688D01*
X4002559Y6630444D01*
X3990315Y6612118D01*
X3988541Y6603202D01*
X4087500D01*
Y6577802D01*
X3988541D01*
X3990315Y6568887D01*
X4002559Y6550561D01*
X4020884Y6538317D01*
X4034007Y6535707D01*
Y6518298D01*
X4020884Y6515688D01*
X4002559Y6503444D01*
X3990315Y6485118D01*
X3988541Y6476202D01*
X4087500D01*
Y6450802D01*
X3988541D01*
X3990315Y6441887D01*
X4002559Y6423561D01*
X4020884Y6411317D01*
X4034007Y6408707D01*
Y6400002D01*
X4035124Y6391520D01*
X4020884Y6388688D01*
X4002559Y6376444D01*
X3990315Y6358118D01*
X3988541Y6349202D01*
X4087500D01*
Y6336502D01*
X4100200D01*
Y6280017D01*
X4132500D01*
X4154116Y6284317D01*
X4154554Y6284610D01*
X4180020Y6287962D01*
X4199999Y6296238D01*
X4219978Y6287962D01*
X4249999Y6284010D01*
X4280020Y6287962D01*
X4284596Y6289858D01*
X4295885Y6282315D01*
X4317501Y6278016D01*
X4349801D01*
Y6334501D01*
X4362501D01*
Y6347201D01*
X4461460D01*
X4459686Y6356117D01*
X4447442Y6374442D01*
X4429117Y6386686D01*
X4407501Y6390986D01*
X4386074D01*
X4377885Y6403686D01*
X4378487Y6405016D01*
X4407501D01*
X4429117Y6409315D01*
X4447442Y6421560D01*
X4459686Y6439885D01*
X4461460Y6448801D01*
X4362501D01*
Y6474201D01*
X4461460D01*
X4459686Y6483117D01*
X4447442Y6501442D01*
X4429117Y6513686D01*
X4407501Y6517986D01*
X4365992D01*
Y6532016D01*
X4407501D01*
X4429117Y6536315D01*
X4447442Y6548560D01*
X4459686Y6566885D01*
X4461460Y6575801D01*
X4362501D01*
Y6588501D01*
X4349801D01*
Y6644986D01*
X4338081D01*
X4332018Y6652887D01*
X4332017Y6652888D01*
X4327986Y6656919D01*
X4333247Y6669619D01*
X4407501D01*
X4425059Y6673112D01*
X4439944Y6683057D01*
X4445435Y6683599D01*
X4471999Y6657035D01*
Y6643541D01*
X4477784Y6629574D01*
X4488473Y6618884D01*
X4502440Y6613099D01*
X4517557D01*
X4531524Y6618884D01*
X4542213Y6629574D01*
X4547999Y6643541D01*
Y6658658D01*
X4542213Y6672624D01*
X4531524Y6683314D01*
X4517557Y6689099D01*
X4506263D01*
X4465865Y6729497D01*
X4458257Y6734581D01*
X4449282Y6736366D01*
X4449281Y6736366D01*
X4447680D01*
X4439944Y6747944D01*
X4425059Y6757890D01*
X4407501Y6761382D01*
X4317501D01*
X4299943Y6757890D01*
X4285058Y6747944D01*
X4281080Y6741991D01*
X4278112Y6741654D01*
X4265992Y6749694D01*
Y6799061D01*
X4311026Y6844093D01*
X4491627D01*
X4491629Y6844093D01*
X4519040Y6847702D01*
X4544582Y6858282D01*
X4566516Y6875112D01*
X4674887Y6983483D01*
X4674888Y6983484D01*
X4691718Y7005417D01*
X4702298Y7030960D01*
X4705907Y7058370D01*
Y7134174D01*
X4718607Y7137577D01*
X4733969Y7110969D01*
X4760966Y7083972D01*
X4794030Y7064882D01*
X4827282Y7055972D01*
X4934010Y6949247D01*
Y6761382D01*
X4892501D01*
X4874943Y6757890D01*
X4860058Y6747944D01*
X4850112Y6733059D01*
X4846619Y6715501D01*
X4850112Y6697943D01*
X4860058Y6683058D01*
X4874943Y6673112D01*
X4892501Y6669619D01*
X4934010D01*
Y6634382D01*
X4892501D01*
X4874943Y6630890D01*
X4860058Y6620944D01*
X4850112Y6606059D01*
X4846619Y6588501D01*
X4850112Y6570943D01*
X4860058Y6556058D01*
X4874943Y6546112D01*
X4892501Y6542619D01*
X4934010D01*
Y6507382D01*
X4892501D01*
X4874943Y6503890D01*
X4860058Y6493944D01*
X4850112Y6479059D01*
X4846619Y6461501D01*
X4850112Y6443943D01*
X4860058Y6429058D01*
X4874943Y6419112D01*
X4892501Y6415619D01*
X4934010D01*
Y6380382D01*
X4892501D01*
X4874943Y6376890D01*
X4860058Y6366944D01*
X4850112Y6352059D01*
X4846619Y6334501D01*
X4850112Y6316943D01*
X4860058Y6302058D01*
X4874943Y6292112D01*
X4892501Y6288619D01*
X4934010D01*
Y6109693D01*
X4924940Y6107889D01*
X4910055Y6097943D01*
X4900109Y6083058D01*
X4896617Y6065500D01*
X4900109Y6047942D01*
X4910055Y6033057D01*
X4924940Y6023111D01*
X4934010Y6021306D01*
Y5982693D01*
X4924940Y5980889D01*
X4910055Y5970943D01*
X4900109Y5956058D01*
X4896617Y5938500D01*
X4900109Y5920942D01*
X4910055Y5906057D01*
X4924940Y5896111D01*
X4934780Y5894154D01*
X4937962Y5869977D01*
X4938173Y5869470D01*
X4930428Y5854980D01*
X4924940Y5853889D01*
X4910055Y5843943D01*
X4909359Y5842900D01*
X4764218D01*
X4762716Y5846528D01*
X4752026Y5857217D01*
X4738060Y5863002D01*
X4722943D01*
X4708976Y5857217D01*
X4698286Y5846528D01*
X4692501Y5832561D01*
Y5817444D01*
X4698286Y5803477D01*
X4708976Y5792788D01*
X4722943Y5787002D01*
X4738060D01*
X4752026Y5792788D01*
X4755238Y5795999D01*
X4899700D01*
X4900109Y5793942D01*
X4910055Y5779057D01*
X4924940Y5769111D01*
X4942498Y5765618D01*
X5032498D01*
X5050056Y5769111D01*
X5064941Y5779057D01*
X5070008Y5786640D01*
X5080024Y5787958D01*
X5107999Y5799546D01*
X5132022Y5817979D01*
X5150455Y5842002D01*
X5162043Y5869977D01*
X5165995Y5899998D01*
Y6948964D01*
X5178695Y6956437D01*
X5187300Y6952873D01*
Y7000000D01*
Y7047127D01*
X5172584Y7041031D01*
X5169195Y7037643D01*
X5156739Y7040120D01*
X5150455Y7055290D01*
X5150454Y7055291D01*
X5132022Y7079313D01*
X5132020Y7079314D01*
X4994998Y7216333D01*
Y7219090D01*
X4985116Y7255969D01*
X4966027Y7289033D01*
X4939030Y7316030D01*
X4905966Y7335119D01*
X4869088Y7345001D01*
X4830908D01*
X4794030Y7335119D01*
X4760966Y7316030D01*
X4733969Y7289033D01*
X4718607Y7262425D01*
X4705907Y7265827D01*
Y7408044D01*
X4722291Y7429396D01*
X4736397Y7463453D01*
X4737748Y7473711D01*
X4798045Y7534010D01*
X5049994D01*
X5049996Y7534010D01*
X5080017Y7537962D01*
X5107993Y7549549D01*
X5107994Y7549550D01*
X5132017Y7567983D01*
X5132017Y7567984D01*
X5275210Y7711173D01*
X5277813Y7710482D01*
X5286943Y7704945D01*
Y7692941D01*
X5292728Y7678974D01*
X5303418Y7668284D01*
X5317384Y7662499D01*
X5332501D01*
X5346468Y7668284D01*
X5354802Y7676618D01*
X5365859Y7673716D01*
X5367502Y7672724D01*
Y7500001D01*
X5488157D01*
X5492005Y7497048D01*
X5519981Y7485461D01*
X5550002Y7481508D01*
X5899456D01*
X6104010Y7276954D01*
Y7230000D01*
X6104010Y7229998D01*
X6104310Y7227722D01*
Y7135001D01*
X6107059Y7114117D01*
X6115120Y7094656D01*
X6127944Y7077944D01*
X6144655Y7065121D01*
X6164116Y7057060D01*
X6171222Y7056125D01*
Y7043315D01*
X6165349Y7042542D01*
X6137374Y7030954D01*
X6113351Y7012521D01*
X5985482Y6884652D01*
X5967049Y6860629D01*
X5955461Y6832654D01*
X5951509Y6802633D01*
X5951509Y6802631D01*
Y6671986D01*
X5917498D01*
X5895882Y6667687D01*
X5877556Y6655442D01*
X5865312Y6637117D01*
X5863539Y6628201D01*
X5962498D01*
Y6602801D01*
X5863539D01*
X5865312Y6593885D01*
X5877556Y6575560D01*
X5895882Y6563316D01*
X5917498Y6559016D01*
X5947511D01*
X5949013Y6557686D01*
X5947236Y6550626D01*
X5942107Y6544986D01*
X5917498D01*
X5895882Y6540687D01*
X5877556Y6528442D01*
X5865312Y6510117D01*
X5863539Y6501201D01*
X5962498D01*
Y6475801D01*
X5863539D01*
X5865312Y6466885D01*
X5877556Y6448560D01*
X5895882Y6436316D01*
X5913701Y6432771D01*
X5919981Y6424166D01*
X5921514Y6419316D01*
X5920907Y6417986D01*
X5917498D01*
X5895882Y6413687D01*
X5877556Y6401442D01*
X5865312Y6383117D01*
X5863539Y6374201D01*
X5962498D01*
Y6361501D01*
X5975198D01*
Y6305016D01*
X5984881D01*
X5992004Y6299550D01*
X6008780Y6292601D01*
X6007497Y6280383D01*
X5917498D01*
X5899940Y6276890D01*
X5885055Y6266944D01*
X5875109Y6252059D01*
X5871616Y6234501D01*
X5875109Y6216943D01*
X5885055Y6202058D01*
X5899940Y6192112D01*
X5917498Y6188620D01*
X6007498D01*
X6025056Y6192112D01*
X6039941Y6202058D01*
X6044822Y6209363D01*
X6066898D01*
X6077350Y6198911D01*
X6091317Y6193126D01*
X6106434D01*
X6120401Y6198911D01*
X6131090Y6209600D01*
X6136875Y6223567D01*
Y6238684D01*
X6131090Y6252651D01*
X6120401Y6263340D01*
X6106434Y6269125D01*
X6091317D01*
X6077350Y6263340D01*
X6070274Y6256264D01*
X6047077D01*
X6039941Y6266944D01*
X6029540Y6273894D01*
X6034133Y6286099D01*
X6050001Y6284010D01*
X6150000D01*
X6180021Y6287962D01*
X6207997Y6299550D01*
X6213539Y6303803D01*
X6217502Y6303014D01*
X6249802D01*
Y6359500D01*
X6262502D01*
Y6372200D01*
X6361461D01*
X6359688Y6381116D01*
X6347443Y6399441D01*
X6329118Y6411685D01*
X6307502Y6415985D01*
X6276261D01*
X6275659Y6417314D01*
X6283847Y6430014D01*
X6307502D01*
X6329118Y6434314D01*
X6347443Y6446558D01*
X6359688Y6464884D01*
X6361461Y6473800D01*
X6262502D01*
Y6499200D01*
X6361461D01*
X6359688Y6508116D01*
X6347443Y6526441D01*
X6329118Y6538685D01*
X6311859Y6542118D01*
X6307754Y6550000D01*
X6311859Y6557881D01*
X6329118Y6561314D01*
X6347443Y6573558D01*
X6359688Y6591884D01*
X6361461Y6600800D01*
X6262502D01*
Y6613500D01*
X6249802D01*
Y6669985D01*
X6217502D01*
X6195887Y6665685D01*
X6183494Y6670107D01*
Y6693828D01*
X6196194Y6700617D01*
X6199944Y6698111D01*
X6217502Y6694618D01*
X6307502D01*
X6325060Y6698111D01*
X6339945Y6708056D01*
X6340124Y6708324D01*
X6356414Y6709845D01*
X6357974Y6708285D01*
X6371941Y6702500D01*
X6387058D01*
X6401025Y6708285D01*
X6411714Y6718974D01*
X6417499Y6732941D01*
Y6748058D01*
X6411714Y6762025D01*
X6401025Y6772714D01*
X6387058Y6778500D01*
X6371941D01*
X6357974Y6772714D01*
X6356414Y6771154D01*
X6340124Y6772675D01*
X6339945Y6772943D01*
X6325060Y6782889D01*
X6307502Y6786381D01*
X6233248D01*
X6227988Y6799081D01*
X6253502Y6824596D01*
X6372124D01*
X6372126Y6824596D01*
X6399537Y6828204D01*
X6399538Y6828204D01*
X6399539Y6828205D01*
X6413436Y6833961D01*
X6425080Y6838784D01*
X6425080Y6838784D01*
X6425081Y6838785D01*
X6447015Y6855615D01*
X6447016Y6855616D01*
X6574888Y6983482D01*
X6574889Y6983484D01*
X6585189Y6996907D01*
X6591718Y7005416D01*
X6591719Y7005417D01*
X6591719Y7005418D01*
X6596541Y7017059D01*
X6602299Y7030958D01*
X6602299Y7030959D01*
X6602299Y7030960D01*
X6603438Y7039609D01*
X6605908Y7058368D01*
X6605908Y7058370D01*
Y7134174D01*
X6618608Y7137577D01*
X6633970Y7110969D01*
X6660967Y7083972D01*
X6694031Y7064882D01*
X6708801Y7060925D01*
X6784009Y6985717D01*
Y6784692D01*
X6774944Y6782889D01*
X6760059Y6772943D01*
X6750113Y6758058D01*
X6746621Y6740500D01*
X6750113Y6722942D01*
X6760059Y6708056D01*
X6774944Y6698111D01*
X6784009Y6696307D01*
Y6657692D01*
X6774944Y6655889D01*
X6760059Y6645943D01*
X6750113Y6631058D01*
X6746621Y6613500D01*
X6750113Y6595942D01*
X6760059Y6581056D01*
X6774944Y6571111D01*
X6784009Y6569307D01*
Y6530692D01*
X6774944Y6528889D01*
X6760059Y6518943D01*
X6750113Y6504058D01*
X6747885Y6492857D01*
X6742221Y6489929D01*
X6734482Y6487384D01*
X6722079Y6492521D01*
X6706962D01*
X6692995Y6486736D01*
X6682306Y6476046D01*
X6676521Y6462080D01*
Y6446962D01*
X6682306Y6432996D01*
X6692995Y6422306D01*
X6706962Y6416521D01*
X6722079D01*
X6736046Y6422306D01*
X6746735Y6432996D01*
X6751819Y6445269D01*
X6759500Y6448966D01*
X6765220Y6450608D01*
X6774944Y6444111D01*
X6784009Y6442307D01*
Y6403692D01*
X6774944Y6401889D01*
X6760059Y6391943D01*
X6750113Y6377058D01*
X6746621Y6359500D01*
X6750113Y6341942D01*
X6760059Y6327056D01*
X6774944Y6317111D01*
X6792502Y6313618D01*
X6822348D01*
X6884009Y6251954D01*
Y6086383D01*
X6867498D01*
X6849940Y6082890D01*
X6835055Y6072944D01*
X6825109Y6058059D01*
X6821617Y6040501D01*
X6825109Y6022943D01*
X6835055Y6008058D01*
X6849940Y5998112D01*
X6867498Y5994619D01*
X6884009D01*
Y5959383D01*
X6867498D01*
X6849940Y5955890D01*
X6835055Y5945944D01*
X6825109Y5931059D01*
X6821617Y5913501D01*
X6825109Y5895943D01*
X6835055Y5881058D01*
X6849940Y5871112D01*
X6867498Y5867619D01*
X6884009D01*
Y5850001D01*
X6885071Y5841931D01*
X6876697Y5832383D01*
X6867498D01*
X6849940Y5828890D01*
X6835055Y5818944D01*
X6825109Y5804059D01*
X6821617Y5786501D01*
X6825109Y5768943D01*
X6835055Y5754058D01*
X6849940Y5744112D01*
X6867498Y5740619D01*
X6957498D01*
X6961595Y5741434D01*
X6969980Y5737961D01*
X7000001Y5734009D01*
X7030022Y5737961D01*
X7057998Y5749549D01*
X7082020Y5767982D01*
X7100454Y5792005D01*
X7112041Y5819980D01*
X7115994Y5850001D01*
Y6299992D01*
X7115994Y6299995D01*
X7115994Y6299998D01*
X7112042Y6330016D01*
X7112042Y6330017D01*
X7112041Y6330019D01*
X7106760Y6342768D01*
X7100455Y6357991D01*
X7100454Y6357993D01*
X7100454Y6357994D01*
X7089310Y6372517D01*
X7082022Y6382014D01*
X7082020Y6382017D01*
X7082019Y6382017D01*
X7015994Y6448046D01*
Y7033761D01*
X7015994Y7033763D01*
X7012042Y7063784D01*
X7000454Y7091759D01*
X6982021Y7115782D01*
X6982020Y7115783D01*
X6894999Y7202803D01*
Y7219090D01*
X6885118Y7255969D01*
X6866028Y7289033D01*
X6839031Y7316030D01*
X6805967Y7335119D01*
X6769089Y7345001D01*
X6730910D01*
X6694031Y7335119D01*
X6660967Y7316030D01*
X6633970Y7289033D01*
X6618608Y7262425D01*
X6605908Y7265827D01*
Y7505167D01*
X6612042Y7519977D01*
X6615995Y7549998D01*
X6612042Y7580019D01*
X6600455Y7607994D01*
X6582021Y7632016D01*
X6282017Y7932021D01*
X6257994Y7950455D01*
X6230019Y7962042D01*
X6199998Y7965995D01*
X6199996Y7965994D01*
X5250006D01*
X5250004Y7965995D01*
X5219983Y7962043D01*
X5192007Y7950455D01*
X5192006Y7950455D01*
X5167983Y7932021D01*
X5167982Y7932020D01*
X5001953Y7765995D01*
X4749998D01*
X4749996Y7765995D01*
X4730314Y7763403D01*
X4719977Y7762043D01*
X4719975Y7762042D01*
X4709552Y7757725D01*
X4692002Y7750455D01*
X4667979Y7732022D01*
X4667978Y7732020D01*
X4624179Y7688220D01*
X4611479D01*
X4549848Y7749852D01*
X4520603Y7772292D01*
X4486546Y7786399D01*
X4449999Y7791210D01*
X3174998D01*
X3158158Y7788993D01*
X3138453Y7786399D01*
X3138451Y7786398D01*
X3104396Y7772292D01*
X3104395Y7772292D01*
X3104394Y7772291D01*
X3088573Y7760151D01*
X3075151Y7749852D01*
X2875150Y7549846D01*
X2874448Y7548932D01*
X2861748Y7553242D01*
Y7561310D01*
X2855963Y7575277D01*
X2845274Y7585967D01*
X2831307Y7591752D01*
X2816190D01*
X2802223Y7585967D01*
X2791534Y7575277D01*
X2785749Y7561310D01*
Y7546193D01*
X2791534Y7532226D01*
X2802223Y7521537D01*
X2816190Y7515752D01*
X2831307D01*
X2838125Y7518576D01*
X2847845Y7508855D01*
X2838603Y7486544D01*
X2835872Y7465796D01*
X2833792Y7449998D01*
Y5523073D01*
X2838604Y5486526D01*
X2852710Y5452469D01*
X2875150Y5423224D01*
X3103638Y5194733D01*
X3098884Y5181527D01*
X3088475Y5177215D01*
X3077785Y5166525D01*
X3072000Y5152559D01*
Y5152546D01*
X3059300Y5147286D01*
X3037295Y5169290D01*
X3000685Y5195890D01*
X2960364Y5216434D01*
X2917325Y5230418D01*
X2872629Y5237498D01*
X2827375D01*
X2782679Y5230418D01*
X2739640Y5216434D01*
X2699319Y5195890D01*
X2662708Y5169290D01*
X2630709Y5137291D01*
X2604110Y5100680D01*
X2583565Y5060359D01*
X2582934Y5058417D01*
X2570391Y5060404D01*
Y6627909D01*
X2583091Y6633169D01*
X2588475Y6627785D01*
X2602442Y6622000D01*
X2617559D01*
X2631525Y6627785D01*
X2642215Y6638475D01*
X2648000Y6652441D01*
Y6667558D01*
X2642215Y6681525D01*
X2631525Y6692215D01*
X2617559Y6698000D01*
X2602442D01*
X2588475Y6692215D01*
X2583091Y6686830D01*
X2570391Y6692091D01*
Y6797910D01*
X2583091Y6803171D01*
X2588477Y6797784D01*
X2602444Y6791999D01*
X2617561D01*
X2631528Y6797784D01*
X2642217Y6808474D01*
X2648002Y6822441D01*
Y6837558D01*
X2642217Y6851524D01*
X2631528Y6862214D01*
X2617561Y6867999D01*
X2602444D01*
X2588477Y6862214D01*
X2583091Y6856827D01*
X2570391Y6862088D01*
Y7193927D01*
X2583091Y7196453D01*
X2585982Y7189474D01*
X2596671Y7178784D01*
X2610638Y7172999D01*
X2625755D01*
X2639722Y7178784D01*
X2650411Y7189474D01*
X2656196Y7203441D01*
Y7218558D01*
X2650411Y7232524D01*
X2639722Y7243214D01*
X2625755Y7248999D01*
X2610638D01*
X2596671Y7243214D01*
X2585982Y7232524D01*
X2583091Y7225545D01*
X2570391Y7228071D01*
Y8425000D01*
Y8432840D01*
X2573450Y8448221D01*
X2579451Y8462709D01*
X2588163Y8475747D01*
X2599252Y8486837D01*
X2612290Y8495548D01*
X2626779Y8501550D01*
X2642159Y8504609D01*
X8457841D01*
X8473220Y8501550D01*
D02*
G37*
G36*
X7586555Y5695203D02*
X7586555Y5695202D01*
X7588705Y5684394D01*
X7594827Y5675231D01*
X7713406Y5556653D01*
X7708146Y5543953D01*
X7572522D01*
X7495387Y5621087D01*
X7497731Y5632872D01*
X7508421Y5643562D01*
X7514206Y5657528D01*
Y5672645D01*
X7508421Y5686612D01*
X7499677Y5695355D01*
X7501673Y5704560D01*
X7503571Y5708055D01*
X7509886D01*
X7523853Y5713840D01*
X7534542Y5724530D01*
X7540328Y5738497D01*
Y5753614D01*
X7534542Y5767581D01*
X7523853Y5778270D01*
X7527079Y5790681D01*
X7532498Y5803763D01*
Y5818880D01*
X7529009Y5827302D01*
X7536151Y5840002D01*
X7586555D01*
Y5695203D01*
D02*
G37*
G36*
X3537700Y4912461D02*
X3555249Y4919730D01*
X3570270Y4934751D01*
X3573127Y4941647D01*
X3586873D01*
X3589730Y4934751D01*
X3599599Y4924882D01*
Y4872098D01*
X3609999Y4867500D01*
Y4794197D01*
X3598303Y4784505D01*
X3590979Y4785370D01*
X3580290Y4796059D01*
X3566323Y4801844D01*
X3551206D01*
X3537239Y4796059D01*
X3528200Y4787020D01*
X3522565Y4792656D01*
X3508598Y4798441D01*
X3493481D01*
X3479515Y4792656D01*
X3476807Y4789948D01*
X3464107Y4795209D01*
Y4936757D01*
X3478899D01*
X3479730Y4934751D01*
X3494751Y4919730D01*
X3512300Y4912461D01*
Y4965000D01*
X3537700D01*
Y4912461D01*
D02*
G37*
G36*
X6372558Y5212555D02*
X6387443Y5202609D01*
X6405001Y5199117D01*
X7215000D01*
Y5194998D01*
X7279118D01*
Y5154999D01*
X7215000D01*
Y4977189D01*
X7210169Y4971329D01*
X7205340Y4967659D01*
X7195794Y4965760D01*
X7185870Y4959130D01*
X7117328Y4890588D01*
X6620001D01*
Y5007499D01*
X6425002D01*
Y4642499D01*
X6571294D01*
X6581756Y4629998D01*
X6581757Y4629997D01*
Y4451699D01*
X6513322Y4383261D01*
X6486677D01*
X6464081Y4405857D01*
X6471275Y4416624D01*
X6482441Y4411999D01*
X6497558D01*
X6511525Y4417784D01*
X6522215Y4428473D01*
X6528000Y4442440D01*
Y4457557D01*
X6522215Y4471524D01*
X6511525Y4482214D01*
X6497558Y4487999D01*
X6482441D01*
X6468474Y4482214D01*
X6457785Y4471524D01*
X6452000Y4457557D01*
Y4442440D01*
X6456625Y4431275D01*
X6445858Y4424081D01*
X6309971Y4559972D01*
X6300808Y4566094D01*
X6290001Y4568244D01*
X6289999Y4568244D01*
X5987872D01*
X5977064Y4566094D01*
X5967901Y4559972D01*
X5967900Y4559971D01*
X5934329Y4526400D01*
X5928207Y4517238D01*
X5926057Y4506429D01*
X5926057Y4506428D01*
Y4488496D01*
X5862115Y4424554D01*
X5851348Y4431747D01*
X5853706Y4437441D01*
Y4452558D01*
X5847921Y4466525D01*
X5837232Y4477214D01*
X5823265Y4482999D01*
X5809998D01*
Y4494556D01*
X5804213Y4508522D01*
X5793524Y4519212D01*
X5792008Y4519840D01*
X5794534Y4532540D01*
X5825402D01*
Y4631704D01*
X5830002Y4642499D01*
X5838103Y4642499D01*
X6025001D01*
Y5007499D01*
X5949341D01*
X5946815Y5020199D01*
X5974605Y5031711D01*
X5974607Y5031711D01*
X6003851Y5054151D01*
X6003851Y5054152D01*
X6261054Y5311359D01*
X6273754D01*
X6372558Y5212555D01*
D02*
G37*
G36*
X7877417Y5257884D02*
X7864063Y5244532D01*
X7858474Y5242217D01*
X7847785Y5231528D01*
X7842000Y5217561D01*
Y5202444D01*
X7847785Y5188477D01*
X7858474Y5177787D01*
X7872441Y5172002D01*
X7887558D01*
X7901525Y5177787D01*
X7912214Y5188477D01*
X7914527Y5194062D01*
X7933281Y5212813D01*
X8010335D01*
X8015195Y5201080D01*
X7963643Y5149527D01*
X7922126D01*
X7904568Y5146035D01*
X7889683Y5136089D01*
X7827557Y5073963D01*
X7817611Y5059078D01*
X7814118Y5041520D01*
Y4975002D01*
X7814118Y4974999D01*
Y4850000D01*
X7815041Y4845361D01*
X7803336Y4839105D01*
X7787752Y4854690D01*
X7782719Y4862222D01*
X7782718Y4862222D01*
X7727672Y4917269D01*
X7718509Y4923391D01*
X7707701Y4925541D01*
X7707700Y4925541D01*
X7640761D01*
X7627533Y4938769D01*
X7624890Y4952057D01*
X7618407Y4961759D01*
X7619586Y4976648D01*
X7620410Y4978372D01*
X7659129Y5017091D01*
X7659129Y5017091D01*
X7665760Y5027015D01*
X7668089Y5038720D01*
X7668088Y5038721D01*
Y5133503D01*
X7668089Y5133504D01*
X7666540Y5141286D01*
X7665760Y5145208D01*
X7665760Y5145208D01*
X7665759Y5145209D01*
X7663095Y5149197D01*
X7659129Y5155131D01*
X7659128Y5155132D01*
X7627947Y5186311D01*
X7628382Y5188499D01*
X7624890Y5206057D01*
X7614944Y5220942D01*
X7600059Y5230888D01*
X7583382Y5234205D01*
Y5269617D01*
X7872557D01*
X7877417Y5257884D01*
D02*
G37*
G36*
X4450148Y5300152D02*
X4450149Y5300150D01*
X4466436Y5287653D01*
X4479392Y5277711D01*
X4479394Y5277710D01*
X4479395Y5277710D01*
X4492081Y5272455D01*
X4513449Y5263603D01*
X4513451Y5263603D01*
X4513451Y5263603D01*
X4549996Y5258791D01*
X4549998Y5258792D01*
X4549999Y5258791D01*
X4741510D01*
X4812793Y5187509D01*
Y5154000D01*
X4817604Y5117453D01*
X4831711Y5083396D01*
X4854152Y5054151D01*
X4948572Y4959731D01*
X4945302Y4945040D01*
X4938475Y4942213D01*
X4927785Y4931523D01*
X4922000Y4917556D01*
Y4902439D01*
X4927785Y4888473D01*
X4938475Y4877783D01*
X4952442Y4871998D01*
X4967559D01*
X4981525Y4877783D01*
X4985498Y4881755D01*
X5032126D01*
X5037397Y4877710D01*
X5071453Y4863604D01*
X5092998Y4860767D01*
Y4835000D01*
X5222998D01*
Y4854119D01*
X5314998D01*
Y4825002D01*
X5534998D01*
Y4854119D01*
X5595003D01*
Y4822939D01*
X5815002D01*
Y4854119D01*
X5830002D01*
Y4744135D01*
X5825402Y4733340D01*
X5807593Y4733340D01*
X5800537Y4743899D01*
X5802127Y4747738D01*
X5755000D01*
Y4760438D01*
X5742300D01*
Y4807565D01*
X5727584Y4801469D01*
X5713969Y4787854D01*
X5711873Y4782796D01*
X5698127D01*
X5696032Y4787854D01*
X5682416Y4801469D01*
X5667700Y4807565D01*
Y4760438D01*
X5655000D01*
Y4747738D01*
X5607873D01*
X5609463Y4743899D01*
X5602407Y4733340D01*
X5584603D01*
Y4645640D01*
X5705003D01*
Y4632940D01*
X5717703D01*
Y4532540D01*
X5749463D01*
X5751989Y4519840D01*
X5750473Y4519212D01*
X5739784Y4508522D01*
X5733998Y4494556D01*
Y4479439D01*
X5739784Y4465472D01*
X5750473Y4454782D01*
X5764440Y4448997D01*
X5777707D01*
Y4437441D01*
X5781516Y4428244D01*
X5775428Y4416682D01*
X5774357Y4415781D01*
X5762216Y4416528D01*
X5751526Y4427217D01*
X5737560Y4433003D01*
X5722443D01*
X5708476Y4427217D01*
X5697786Y4416528D01*
X5692001Y4402561D01*
Y4387444D01*
X5697786Y4373477D01*
X5708476Y4362788D01*
X5722443Y4357003D01*
X5737560D01*
X5742523Y4359059D01*
X5757502D01*
Y4284999D01*
X5892502D01*
X5897099Y4274599D01*
X5962299D01*
Y4349999D01*
Y4425399D01*
X5959437D01*
X5954576Y4437132D01*
X5972305Y4454861D01*
X5975452Y4456696D01*
X5988499Y4455261D01*
X5993475Y4450285D01*
X6007441Y4444500D01*
X6022558D01*
X6036525Y4450285D01*
X6047215Y4460975D01*
X6053000Y4474942D01*
Y4490059D01*
X6049272Y4499058D01*
X6056075Y4511758D01*
X6278301D01*
X6343415Y4446643D01*
X6336221Y4435876D01*
X6325058Y4440500D01*
X6309941D01*
X6295975Y4434715D01*
X6285285Y4424025D01*
X6279500Y4410058D01*
Y4405553D01*
X6273809Y4401750D01*
X6258693D01*
X6244726Y4395965D01*
X6234036Y4385276D01*
X6228251Y4371309D01*
Y4356192D01*
X6229633Y4352855D01*
X6222577Y4342296D01*
X6170129D01*
X6170127Y4342296D01*
X6159319Y4340146D01*
X6150157Y4334024D01*
X6150156Y4334023D01*
X5909733Y4093600D01*
X5908713Y4093830D01*
X5898000Y4099827D01*
Y4111361D01*
X5892215Y4125327D01*
X5881525Y4136017D01*
X5867558Y4141802D01*
X5852441D01*
X5850975Y4141195D01*
X5848001Y4143182D01*
X5842216Y4157148D01*
X5831526Y4167838D01*
X5817560Y4173623D01*
X5802443D01*
X5788476Y4167838D01*
X5777786Y4157148D01*
X5772001Y4143182D01*
Y4128065D01*
X5777786Y4114098D01*
X5788476Y4103408D01*
X5799010Y4099045D01*
X5796484Y4086345D01*
X5743103D01*
X5732294Y4084195D01*
X5723132Y4078073D01*
X5723131Y4078072D01*
X5661481Y4016422D01*
X5655359Y4007259D01*
X5653208Y3996451D01*
X5653209Y3996450D01*
Y3880871D01*
X5653208Y3880870D01*
X5655359Y3870062D01*
X5661481Y3860899D01*
X5688251Y3834129D01*
X5688251Y3834128D01*
X5694687Y3829828D01*
X5697786Y3822346D01*
X5701758Y3818374D01*
Y3674196D01*
X5683797Y3656234D01*
X5550002D01*
X5538521Y3651479D01*
X5533766Y3639998D01*
Y3637932D01*
X5521524Y3632213D01*
X5507558Y3637998D01*
X5492441D01*
X5478474Y3632213D01*
X5467784Y3621523D01*
X5461999Y3607556D01*
Y3592439D01*
X5467784Y3578473D01*
X5478474Y3567783D01*
X5492441Y3561998D01*
X5507558D01*
X5521524Y3567783D01*
X5533766Y3562064D01*
Y3537766D01*
X5532322Y3535605D01*
X5529218Y3519998D01*
X5529218Y3519997D01*
Y3349878D01*
X5521021Y3346483D01*
X5516266Y3335002D01*
Y3235003D01*
X5516264Y3235000D01*
Y3210000D01*
X5518073Y3205632D01*
X5518990Y3200994D01*
X5520380Y3200063D01*
X5521019Y3198519D01*
X5525385Y3196711D01*
X5529316Y3194079D01*
X5529316Y3194079D01*
X5534236Y3191909D01*
X5541559Y3184085D01*
X5541759Y3183594D01*
Y3120000D01*
X5541759Y3119999D01*
X5543909Y3109191D01*
X5550031Y3100028D01*
X5631756Y3018303D01*
Y2978829D01*
X5619056Y2976303D01*
X5618982Y2976481D01*
X5617435Y2977122D01*
X5616506Y2978509D01*
X5579006Y3003509D01*
X5575854Y3004133D01*
X5573184Y3005921D01*
X5570000Y3005291D01*
X5566816Y3005921D01*
X5564146Y3004133D01*
X5560994Y3003509D01*
X5542749Y2991346D01*
X5529545Y3004549D01*
X5525065Y3007542D01*
X5518284Y3012073D01*
X5518283Y3012074D01*
X5518282Y3012074D01*
X5504998Y3014716D01*
X5417500D01*
Y3039999D01*
X5177500D01*
Y3036076D01*
X4822500D01*
Y3157499D01*
X4593944D01*
Y3173912D01*
X4593944Y3173913D01*
X4591794Y3184721D01*
X4585672Y3193884D01*
X4585671Y3193884D01*
X4402699Y3376857D01*
X4404536Y3386093D01*
X4418151Y3399707D01*
X4424246Y3414424D01*
X4377119D01*
Y3427124D01*
X4364419D01*
Y3476690D01*
X4356113Y3482240D01*
Y3595415D01*
X4362298Y3599547D01*
Y3650000D01*
Y3700453D01*
X4356113Y3704586D01*
Y3724419D01*
X4368813Y3731860D01*
X4377473Y3728273D01*
Y3775400D01*
Y3822527D01*
X4362757Y3816432D01*
X4349141Y3802816D01*
X4341773Y3785027D01*
Y3784764D01*
X4330040Y3779904D01*
X4270878Y3839065D01*
X4261715Y3845188D01*
X4256146Y3846296D01*
X4200500Y3901942D01*
Y3907559D01*
X4194715Y3921525D01*
X4191438Y3924802D01*
X4192421Y3937502D01*
X4237499D01*
Y4062502D01*
X4200741D01*
Y4137502D01*
X4237499D01*
Y4262502D01*
X4200741D01*
Y4308337D01*
X4213441Y4313597D01*
X4513519Y4013520D01*
X4525000Y4008764D01*
X4650000D01*
X4652985Y4010000D01*
X4804566D01*
X4808419Y3997300D01*
X4805227Y3995167D01*
X4805226Y3995167D01*
X4772560Y3962502D01*
X4682499D01*
Y3948243D01*
X4669799Y3942406D01*
X4658401Y3947127D01*
Y3900000D01*
X4645701D01*
Y3887300D01*
X4598574D01*
X4600705Y3882156D01*
X4594772Y3870754D01*
X4592494Y3868792D01*
X4580129Y3863670D01*
X4569440Y3852981D01*
X4563655Y3839014D01*
Y3823897D01*
X4569440Y3809930D01*
X4580129Y3799241D01*
X4594096Y3793455D01*
X4609213D01*
X4623180Y3799241D01*
X4625498Y3801559D01*
X4819802D01*
X4819803Y3801559D01*
X4826273Y3802846D01*
X4830610Y3803709D01*
X4830611Y3803709D01*
X4839773Y3809831D01*
X4839774Y3809832D01*
X4867442Y3837502D01*
X4957502D01*
Y3946954D01*
X5191303D01*
X5191304Y3946953D01*
X5197773Y3948241D01*
X5202111Y3949104D01*
X5202112Y3949104D01*
X5211274Y3955226D01*
X5279218Y4023175D01*
X5279219Y4023176D01*
X5285341Y4032339D01*
X5287491Y4043147D01*
Y4133748D01*
X5291463Y4137720D01*
X5297248Y4151686D01*
Y4166803D01*
X5291463Y4180770D01*
X5280773Y4191460D01*
X5266806Y4197245D01*
X5251689D01*
X5237723Y4191460D01*
X5236702Y4190439D01*
X5224002Y4195700D01*
Y4720000D01*
X4702961D01*
X4561481Y4861480D01*
X4541236Y4881725D01*
Y5100000D01*
X4540000Y5102983D01*
Y5115000D01*
X4527983D01*
X4525000Y5116236D01*
X4219139D01*
X4213878Y5128936D01*
X4249943Y5165001D01*
X4390001D01*
Y5343707D01*
X4401735Y5348567D01*
X4450148Y5300152D01*
D02*
G37*
G36*
X2583565Y4839636D02*
X2604110Y4799315D01*
X2630709Y4762704D01*
X2662708Y4730705D01*
X2699319Y4704106D01*
X2739640Y4683561D01*
X2782679Y4669577D01*
X2827375Y4662498D01*
X2872629D01*
X2917325Y4669577D01*
X2960364Y4683561D01*
X3000685Y4704106D01*
X3037295Y4730705D01*
X3069295Y4762704D01*
X3095894Y4799315D01*
X3102320Y4811926D01*
X3115020Y4808877D01*
Y4797961D01*
X3120805Y4783994D01*
X3131494Y4773305D01*
X3145461Y4767520D01*
X3160578D01*
X3161189Y4767773D01*
X3174565Y4759985D01*
X3175413Y4752818D01*
X2877066Y4454471D01*
X2854626Y4425226D01*
X2840519Y4391169D01*
X2835708Y4354622D01*
Y3919797D01*
X2825572Y3895329D01*
X2819600Y3865305D01*
Y3862700D01*
X2975000D01*
X3130400D01*
Y3865305D01*
X3124428Y3895329D01*
X3118124Y3910550D01*
Y4142567D01*
X3130824Y4145093D01*
X3135392Y4134065D01*
X3146081Y4123375D01*
X3160048Y4117590D01*
X3175165D01*
X3189132Y4123375D01*
X3199821Y4134065D01*
X3205606Y4148031D01*
Y4163148D01*
X3199821Y4177115D01*
X3189132Y4187805D01*
X3175165Y4193590D01*
X3160048D01*
X3146081Y4187805D01*
X3135392Y4177115D01*
X3130824Y4166086D01*
X3118124Y4168613D01*
Y4231208D01*
X3129412Y4234051D01*
X3130824Y4234091D01*
X3141261Y4223654D01*
X3155227Y4217869D01*
X3170344D01*
X3184311Y4223654D01*
X3195001Y4234344D01*
X3200786Y4248311D01*
Y4263428D01*
X3195001Y4277394D01*
X3185395Y4287000D01*
X3186003Y4292032D01*
X3189289Y4299700D01*
X3191048D01*
X3205015Y4305485D01*
X3215704Y4316174D01*
X3221489Y4330141D01*
Y4345258D01*
X3215704Y4359225D01*
X3207441Y4367488D01*
X3204318Y4382326D01*
X3422748Y4600756D01*
X3445189Y4630001D01*
X3448451Y4637877D01*
X3457460Y4639669D01*
X3471426Y4633884D01*
X3482501D01*
Y4560000D01*
X3607548D01*
X3607832Y4558570D01*
X3612916Y4550962D01*
X3632050Y4531827D01*
X3629751Y4520270D01*
X3614730Y4505249D01*
X3613899Y4503243D01*
X3596102D01*
X3595271Y4505249D01*
X3580249Y4520270D01*
X3562700Y4527539D01*
Y4475000D01*
X3537300D01*
Y4527539D01*
X3519752Y4520270D01*
X3504730Y4505249D01*
X3501874Y4498353D01*
X3488127D01*
X3485271Y4505249D01*
X3470249Y4520270D01*
X3452700Y4527539D01*
Y4475000D01*
X3440000D01*
Y4462300D01*
X3387461D01*
X3394730Y4444751D01*
X3409752Y4429730D01*
X3411757Y4428899D01*
Y4411101D01*
X3409752Y4410270D01*
X3394730Y4395249D01*
X3387461Y4377700D01*
X3440000D01*
Y4352300D01*
X3387461D01*
X3394730Y4334751D01*
X3409752Y4319729D01*
X3416647Y4316873D01*
Y4303127D01*
X3409752Y4300270D01*
X3394730Y4285248D01*
X3387461Y4267700D01*
X3440000D01*
Y4255000D01*
X3452700D01*
Y4202461D01*
X3470249Y4209729D01*
X3485271Y4224751D01*
X3486101Y4226757D01*
X3503899D01*
X3504730Y4224751D01*
X3519752Y4209729D01*
X3537300Y4202461D01*
Y4255000D01*
X3562700D01*
Y4202461D01*
X3580249Y4209729D01*
X3595271Y4224751D01*
X3598127Y4231647D01*
X3611874D01*
X3614730Y4224751D01*
X3624598Y4214883D01*
Y4148052D01*
X3624597Y4148051D01*
Y4147100D01*
X3634998Y4141548D01*
X3634998Y4134400D01*
Y4024488D01*
X3623475Y4019715D01*
X3612785Y4009025D01*
X3607000Y3995059D01*
Y3979942D01*
X3597492Y3972797D01*
X3596270Y3972660D01*
X3580344Y3984880D01*
X3560883Y3992941D01*
X3539999Y3995690D01*
X3516525D01*
X3509458Y4008391D01*
X3511105Y4012367D01*
X3524256Y4020666D01*
X3539373D01*
X3553339Y4026451D01*
X3564029Y4037141D01*
X3569814Y4051107D01*
Y4066225D01*
X3564029Y4080191D01*
X3553339Y4090881D01*
X3539373Y4096666D01*
X3524256D01*
X3510289Y4090881D01*
X3499599Y4080191D01*
X3495709Y4070798D01*
X3482558Y4062499D01*
X3467441D01*
X3453474Y4056714D01*
X3442785Y4046024D01*
X3436999Y4032057D01*
Y4016940D01*
X3440541Y4008391D01*
X3433474Y3995690D01*
X3410000D01*
X3389115Y3992941D01*
X3369654Y3984880D01*
X3352943Y3972057D01*
X3340120Y3955345D01*
X3332059Y3935884D01*
X3329309Y3915000D01*
Y3785000D01*
X3332059Y3764116D01*
X3340120Y3744655D01*
X3352943Y3727943D01*
X3369654Y3715120D01*
X3389115Y3707059D01*
X3410000Y3704310D01*
X3420991D01*
X3908792Y3216509D01*
Y2924998D01*
X3908792Y2924997D01*
X3908792Y2924996D01*
X3910001Y2915813D01*
Y2545391D01*
X2642160D01*
X2626779Y2548450D01*
X2612291Y2554451D01*
X2599252Y2563163D01*
X2588163Y2574252D01*
X2579451Y2587290D01*
X2573450Y2601778D01*
X2570391Y2617160D01*
Y2824293D01*
X2583091Y2825965D01*
X2586475Y2813333D01*
X2598982Y2791671D01*
X2616670Y2773983D01*
X2638333Y2761476D01*
X2662494Y2755002D01*
X2687508D01*
X2711669Y2761476D01*
X2733332Y2773983D01*
X2751020Y2791671D01*
X2763527Y2813333D01*
X2770001Y2837495D01*
Y2862509D01*
X2763527Y2886670D01*
X2751020Y2908333D01*
X2733332Y2926021D01*
X2711669Y2938528D01*
X2687508Y2945002D01*
X2662494D01*
X2638333Y2938528D01*
X2616670Y2926021D01*
X2598982Y2908333D01*
X2586475Y2886670D01*
X2583091Y2874039D01*
X2570391Y2875711D01*
Y4839592D01*
X2582934Y4841578D01*
X2583565Y4839636D01*
D02*
G37*
G36*
X4525000Y4875000D02*
X4550000Y4850000D01*
X4700000Y4700000D01*
X4650000Y4025000D01*
X4525000D01*
X4050000Y4500000D01*
Y5100000D01*
X4525000D01*
Y4875000D01*
D02*
G37*
G36*
X3887477Y4200377D02*
X3895085Y4195293D01*
X3904059Y4193508D01*
X3962500D01*
Y4137502D01*
X3987168D01*
X3995000Y4124802D01*
X3992000Y4117558D01*
Y4102441D01*
X3997785Y4088474D01*
X4008474Y4077785D01*
X4014709Y4075202D01*
X4012183Y4062502D01*
X3962500D01*
Y3948452D01*
X3717213D01*
X3683000Y3982664D01*
Y3995059D01*
X3682221Y3996938D01*
X3689277Y4007498D01*
X3725060D01*
X3736999Y3995560D01*
Y3992444D01*
X3742784Y3978477D01*
X3753474Y3967787D01*
X3767440Y3962002D01*
X3782557D01*
X3796524Y3967787D01*
X3807214Y3978477D01*
X3812999Y3992444D01*
Y4007561D01*
X3807214Y4021527D01*
X3796524Y4032217D01*
X3782557Y4038002D01*
X3774439D01*
X3764998Y4047443D01*
X3764998Y4141548D01*
X3775398Y4147100D01*
X3775398Y4148051D01*
X3775398Y4148051D01*
Y4212300D01*
X3699998D01*
Y4237700D01*
X3775398D01*
Y4294495D01*
X3788098Y4299756D01*
X3887477Y4200377D01*
D02*
G37*
G36*
X3910001Y5086026D02*
Y4485000D01*
X3986469D01*
X3994955Y4472300D01*
X3992701Y4466859D01*
Y4451742D01*
X3998486Y4437775D01*
X4009175Y4427085D01*
X4023142Y4421300D01*
X4028759D01*
X4144256Y4305803D01*
Y4262502D01*
X4107499D01*
Y4137502D01*
X4144256D01*
Y4062502D01*
X4107499D01*
Y3937502D01*
X4132579D01*
X4133562Y3924802D01*
X4130285Y3921525D01*
X4124500Y3907559D01*
Y3892442D01*
X4130285Y3878475D01*
X4140975Y3867785D01*
X4154941Y3862000D01*
X4160558D01*
X4223434Y3799125D01*
X4223435Y3799124D01*
X4232597Y3793002D01*
X4238166Y3791894D01*
X4299628Y3730433D01*
Y3411745D01*
X4299627Y3411743D01*
X4301778Y3400935D01*
X4307900Y3391772D01*
X4522937Y3176735D01*
X4518077Y3165002D01*
X4191208D01*
Y3275000D01*
X4186396Y3311547D01*
X4172289Y3345604D01*
X4149849Y3374849D01*
X3620690Y3904008D01*
Y3915000D01*
X3617940Y3935884D01*
X3613008Y3947791D01*
X3622833Y3954826D01*
X3623687Y3955197D01*
X3637442Y3949500D01*
X3649836D01*
X3690917Y3908419D01*
X3698525Y3903336D01*
X3707499Y3901550D01*
X3707500Y3901550D01*
X3974993D01*
X3974994Y3901550D01*
X3974995Y3901550D01*
X3974998D01*
X3978954Y3902337D01*
X3983969Y3903334D01*
X3983970Y3903335D01*
X3983972Y3903336D01*
X3988338Y3906252D01*
X3991577Y3908416D01*
X3991580Y3908418D01*
X3991581Y3908419D01*
X3991581Y3908420D01*
X4005608Y3922442D01*
X4005609Y3922443D01*
X4005611Y3922445D01*
X4008443Y3926683D01*
X4010693Y3930049D01*
X4010694Y3930051D01*
X4010695Y3930053D01*
X4011525Y3934227D01*
X4012177Y3937502D01*
X4092500D01*
Y4062502D01*
X4047816D01*
X4045290Y4075202D01*
X4051525Y4077785D01*
X4062214Y4088474D01*
X4067999Y4102441D01*
Y4117558D01*
X4064999Y4124802D01*
X4072831Y4137502D01*
X4092500D01*
Y4262502D01*
X3962500D01*
Y4240409D01*
X3913772D01*
X3899184Y4254998D01*
X3899389Y4256032D01*
X3903444Y4268699D01*
X3912217Y4277473D01*
X3918002Y4291439D01*
Y4306556D01*
X3912217Y4320523D01*
X3905743Y4326998D01*
X3912217Y4333472D01*
X3918002Y4347439D01*
Y4362556D01*
X3912217Y4376523D01*
X3905743Y4382998D01*
X3912217Y4389472D01*
X3918002Y4403439D01*
Y4418556D01*
X3912217Y4432523D01*
X3901528Y4443212D01*
X3887561Y4448997D01*
X3872444D01*
X3858477Y4443212D01*
X3847788Y4432523D01*
X3842002Y4418556D01*
Y4403439D01*
X3847788Y4389472D01*
X3854262Y4382998D01*
X3847788Y4376523D01*
X3842002Y4362556D01*
Y4347439D01*
X3847788Y4333472D01*
X3849018Y4332242D01*
X3845887Y4324978D01*
X3831910Y4322272D01*
X3726451Y4427731D01*
Y4445154D01*
X3727666Y4446972D01*
X3729451Y4455946D01*
X3729451Y4455948D01*
Y4494053D01*
X3727666Y4503028D01*
X3722582Y4510636D01*
X3695636Y4537582D01*
X3688028Y4542665D01*
X3686515Y4547417D01*
X3694785Y4560000D01*
X3767498D01*
Y4659564D01*
X3768042Y4662302D01*
Y4704572D01*
X3881238Y4817767D01*
X3881238Y4817768D01*
X3887361Y4826931D01*
X3889511Y4837739D01*
X3889510Y4837740D01*
Y5082129D01*
X3898267Y5090886D01*
X3910001Y5086026D01*
D02*
G37*
G36*
X5799539Y3690370D02*
X5806907Y3672582D01*
X5802925Y3658603D01*
X5802488Y3658310D01*
X5796874Y3649909D01*
X5794903Y3639998D01*
Y3592698D01*
X5892500D01*
X6015898D01*
Y3636353D01*
X6062276Y3682731D01*
X6077257Y3679751D01*
X6077785Y3678475D01*
X6088475Y3667785D01*
X6088600Y3667733D01*
X6088089Y3654198D01*
X6078473Y3650215D01*
X6067783Y3639525D01*
X6061998Y3625559D01*
Y3610442D01*
X6067783Y3596475D01*
X6078473Y3585785D01*
X6092439Y3580000D01*
X6107556D01*
X6121523Y3585785D01*
X6132213Y3596475D01*
X6137998Y3610442D01*
Y3625559D01*
X6132213Y3639525D01*
X6121523Y3650215D01*
X6121398Y3650267D01*
X6121909Y3663802D01*
X6131525Y3667785D01*
X6142215Y3678475D01*
X6146420Y3688627D01*
X6159120Y3686101D01*
Y3650000D01*
X6162613Y3632442D01*
X6172558Y3617557D01*
X6187444Y3607611D01*
X6205002Y3604119D01*
X6222560Y3607611D01*
X6237445Y3617557D01*
X6245446Y3629532D01*
X6249222Y3630435D01*
X6255782D01*
X6259558Y3629532D01*
X6267559Y3617557D01*
X6282445Y3607611D01*
X6285279Y3607048D01*
X6385404Y3506923D01*
X6381223Y3493142D01*
X6377441Y3492390D01*
X6362555Y3482444D01*
X6361392Y3480702D01*
X6346118D01*
X6339944Y3489942D01*
X6321619Y3502186D01*
X6312703Y3503960D01*
Y3430001D01*
X6287303D01*
Y3503960D01*
X6278387Y3502186D01*
X6260061Y3489942D01*
X6253885Y3480698D01*
X6238611D01*
X6237445Y3482444D01*
X6222560Y3492390D01*
X6205002Y3495882D01*
X6187444Y3492390D01*
X6172558Y3482444D01*
X6162613Y3467559D01*
X6159120Y3450001D01*
Y3419142D01*
X6129976Y3390000D01*
X6118764D01*
X6104797Y3384215D01*
X6094108Y3373525D01*
X6088323Y3359558D01*
Y3344441D01*
X6092035Y3335479D01*
X6082097Y3326283D01*
X6076547Y3328433D01*
X6074885Y3328395D01*
X6073481Y3329286D01*
X6063035Y3331114D01*
X6061412Y3330753D01*
X6059861Y3331353D01*
X6054937Y3331239D01*
X6050014Y3331355D01*
X6048463Y3330756D01*
X6046841Y3331118D01*
X6036389Y3329295D01*
X6034984Y3328404D01*
X6033322Y3328443D01*
X6023427Y3324615D01*
X6022224Y3323467D01*
X6020585Y3323181D01*
X6011627Y3317496D01*
X6010671Y3316136D01*
X6009120Y3315536D01*
X6001443Y3308213D01*
X6000771Y3306692D01*
X5999367Y3305801D01*
X5993266Y3297121D01*
X5992903Y3295498D01*
X5991700Y3294350D01*
X5987410Y3284646D01*
X5987371Y3282984D01*
X5986414Y3281623D01*
X5984100Y3271270D01*
X5984386Y3269631D01*
X5983713Y3268110D01*
X5983588Y3262807D01*
X5983662Y3262615D01*
X5983583Y3262424D01*
Y3242102D01*
X5980079Y3236033D01*
X5975167Y3217700D01*
X5999819D01*
Y3262424D01*
X5999944Y3267727D01*
X6002259Y3278081D01*
X6006549Y3287785D01*
X6012650Y3296465D01*
X6020327Y3303788D01*
X6029285Y3309472D01*
X6039180Y3313300D01*
X6049631Y3315124D01*
X6054935Y3314999D01*
X6054936D01*
X6060237Y3315122D01*
X6070682Y3313294D01*
X6080571Y3309463D01*
X6089521Y3303777D01*
X6097191Y3296453D01*
X6103284Y3287774D01*
X6107567Y3278073D01*
X6109875Y3267723D01*
X6109997Y3262422D01*
X6109997Y3262423D01*
X6110000Y3204997D01*
Y3199574D01*
X6107884Y3188935D01*
X6103733Y3178914D01*
X6097707Y3169896D01*
X6090037Y3162226D01*
X6081018Y3156200D01*
X6070997Y3152049D01*
X6067700Y3151393D01*
Y3116511D01*
X6068263Y3115716D01*
X6069252Y3112434D01*
X6067116Y3107278D01*
Y3105615D01*
X6066192Y3104232D01*
X6064076Y3093593D01*
X6064400Y3091962D01*
X6063764Y3090426D01*
Y3085002D01*
X6063764Y3085002D01*
X6063764Y3085002D01*
X6063765Y3062861D01*
X6031152Y3030247D01*
X6023626Y3018985D01*
X6020983Y3005699D01*
Y3004999D01*
X5989998D01*
Y2928784D01*
X5792841D01*
X5777234Y2925679D01*
X5764002Y2916839D01*
X5764002Y2916838D01*
X5698126Y2850965D01*
X5698118Y2850967D01*
X5686792Y2857591D01*
X5688242Y2864881D01*
Y3030002D01*
X5686092Y3040810D01*
X5679970Y3049972D01*
X5598244Y3131698D01*
Y3183851D01*
X5605214Y3191316D01*
X5609796Y3193927D01*
X5609796Y3193926D01*
X5618981Y3198519D01*
X5619445Y3199640D01*
X5620489Y3200258D01*
X5620556Y3200521D01*
X5621767Y3205245D01*
X5623736Y3210000D01*
Y3234999D01*
X5623738Y3235002D01*
Y3335002D01*
X5618982Y3346483D01*
X5610785Y3349878D01*
Y3503105D01*
X5611442Y3503762D01*
X5720002D01*
X5731483Y3508517D01*
X5736238Y3519998D01*
Y3628793D01*
X5749971Y3642526D01*
X5749972Y3642526D01*
X5756094Y3651689D01*
X5758244Y3662497D01*
X5758244Y3662498D01*
Y3704603D01*
X5799539D01*
Y3690370D01*
D02*
G37*
G36*
X5607500Y3210000D02*
X5597500Y3217500D01*
X5570000Y3235000D01*
X5607500D01*
Y3210000D01*
D02*
G37*
G36*
X5540000Y3215000D02*
X5532500Y3210000D01*
Y3235000D01*
X5570000D01*
X5540000Y3215000D01*
D02*
G37*
G36*
X6374934Y3314999D02*
X6374936D01*
X6380236Y3315122D01*
X6390682Y3313294D01*
X6400570Y3309463D01*
X6409521Y3303777D01*
X6417191Y3296453D01*
X6423284Y3287774D01*
X6427567Y3278073D01*
X6429875Y3267723D01*
X6429997Y3262422D01*
X6429997Y3262423D01*
X6430000Y3204997D01*
Y3199574D01*
X6427884Y3188935D01*
X6423733Y3178914D01*
X6417706Y3169896D01*
X6410037Y3162226D01*
X6401018Y3156200D01*
X6390997Y3152049D01*
X6380358Y3149933D01*
X6369507D01*
X6358858Y3152051D01*
X6348828Y3156206D01*
X6339801Y3162237D01*
X6332124Y3169914D01*
X6326092Y3178941D01*
X6321937Y3188972D01*
X6319819Y3199620D01*
Y3205049D01*
Y3262424D01*
X6319944Y3267727D01*
X6322259Y3278081D01*
X6326549Y3287785D01*
X6332650Y3296465D01*
X6340327Y3303788D01*
X6349285Y3309472D01*
X6359180Y3313300D01*
X6369631Y3315124D01*
X6374934Y3314999D01*
D02*
G37*
G36*
X6214934D02*
X6214936D01*
X6220236Y3315122D01*
X6230682Y3313294D01*
X6240570Y3309463D01*
X6249521Y3303777D01*
X6257191Y3296453D01*
X6263284Y3287774D01*
X6267567Y3278073D01*
X6269875Y3267723D01*
X6269997Y3262422D01*
X6269997Y3262423D01*
X6270000Y3204997D01*
Y3199574D01*
X6267884Y3188935D01*
X6263733Y3178914D01*
X6257707Y3169896D01*
X6250037Y3162226D01*
X6241018Y3156200D01*
X6230997Y3152049D01*
X6220358Y3149933D01*
X6209507D01*
X6198858Y3152051D01*
X6188828Y3156206D01*
X6179801Y3162237D01*
X6172124Y3169914D01*
X6166092Y3178941D01*
X6161937Y3188972D01*
X6159819Y3199620D01*
Y3205049D01*
Y3262424D01*
X6159944Y3267727D01*
X6162259Y3278081D01*
X6166549Y3287785D01*
X6172650Y3296465D01*
X6180327Y3303788D01*
X6189285Y3309472D01*
X6199180Y3313300D01*
X6209631Y3315124D01*
X6214934Y3314999D01*
D02*
G37*
G36*
X6311142Y3137949D02*
X6321172Y3133794D01*
X6330199Y3127762D01*
X6337876Y3120085D01*
X6343908Y3111058D01*
X6348063Y3101028D01*
X6350181Y3090379D01*
Y3084951D01*
X6350181Y3027576D01*
X6350056Y3022272D01*
X6347741Y3011918D01*
X6343451Y3002215D01*
X6337350Y2993535D01*
X6329673Y2986212D01*
X6320715Y2980527D01*
X6310820Y2976699D01*
X6300369Y2974876D01*
X6295065Y2975001D01*
X6295064D01*
X6289763Y2974878D01*
X6279318Y2976706D01*
X6269429Y2980537D01*
X6260479Y2986223D01*
X6252809Y2993546D01*
X6246716Y3002225D01*
X6242433Y3011926D01*
X6240125Y3022276D01*
X6240003Y3027577D01*
X6240003D01*
X6240000Y3085002D01*
Y3090426D01*
X6242116Y3101064D01*
X6246267Y3111085D01*
X6252293Y3120104D01*
X6259963Y3127774D01*
X6268982Y3133800D01*
X6279003Y3137951D01*
X6289641Y3140067D01*
X6300493D01*
X6311142Y3137949D01*
D02*
G37*
G36*
X6151141D02*
X6161172Y3133794D01*
X6170199Y3127762D01*
X6177876Y3120085D01*
X6183908Y3111058D01*
X6188063Y3101028D01*
X6190181Y3090379D01*
Y3084951D01*
X6190180Y3027576D01*
X6190055Y3022272D01*
X6187741Y3011918D01*
X6183451Y3002215D01*
X6177350Y2993535D01*
X6169673Y2986212D01*
X6160715Y2980527D01*
X6150820Y2976699D01*
X6140368Y2974876D01*
X6135065Y2975001D01*
X6135064D01*
X6129763Y2974878D01*
X6119317Y2976706D01*
X6109429Y2980537D01*
X6100479Y2986223D01*
X6092809Y2993546D01*
X6086716Y3002225D01*
X6082433Y3011926D01*
X6080125Y3022276D01*
X6080003Y3027577D01*
X6080003D01*
X6080000Y3085002D01*
Y3090426D01*
X6082116Y3101064D01*
X6086267Y3111085D01*
X6092293Y3120104D01*
X6099963Y3127774D01*
X6108982Y3133800D01*
X6119003Y3137951D01*
X6129641Y3140067D01*
X6140493D01*
X6151141Y3137949D01*
D02*
G37*
G36*
X5607500Y2965000D02*
X5532500D01*
X5570000Y2990000D01*
X5607500Y2965000D01*
D02*
G37*
%LPC*%
G36*
X6187300Y7647127D02*
X6172584Y7641031D01*
X6158969Y7627416D01*
X6152873Y7612700D01*
X6187300D01*
Y7647127D01*
D02*
G37*
G36*
X6247127Y7587300D02*
X6212700D01*
Y7552873D01*
X6227416Y7558969D01*
X6241031Y7572584D01*
X6247127Y7587300D01*
D02*
G37*
G36*
X6187300D02*
X6152873D01*
X6158969Y7572584D01*
X6172584Y7558969D01*
X6187300Y7552873D01*
Y7587300D01*
D02*
G37*
G36*
X5337559Y8258000D02*
X5322441D01*
X5308475Y8252215D01*
X5297785Y8241525D01*
X5292000Y8227559D01*
Y8212442D01*
X5297785Y8198475D01*
X5308475Y8187785D01*
X5322441Y8182000D01*
X5337559D01*
X5351525Y8187785D01*
X5362215Y8198475D01*
X5368000Y8212442D01*
Y8227559D01*
X5362215Y8241525D01*
X5351525Y8252215D01*
X5337559Y8258000D01*
D02*
G37*
G36*
X7062506Y8294999D02*
X7037492D01*
X7013330Y8288524D01*
X6991667Y8276017D01*
X6973980Y8258330D01*
X6961473Y8236667D01*
X6954999Y8212506D01*
Y8187492D01*
X6961473Y8163330D01*
X6973980Y8141668D01*
X6991667Y8123980D01*
X7013330Y8111473D01*
X7037492Y8104999D01*
X7062506D01*
X7086667Y8111473D01*
X7108330Y8123980D01*
X7126017Y8141668D01*
X7138524Y8163330D01*
X7144998Y8187492D01*
Y8212506D01*
X7138524Y8236667D01*
X7126017Y8258330D01*
X7108330Y8276017D01*
X7086667Y8288524D01*
X7062506Y8294999D01*
D02*
G37*
G36*
X5962508D02*
X5937494D01*
X5913332Y8288524D01*
X5891670Y8276017D01*
X5873982Y8258330D01*
X5861475Y8236667D01*
X5855001Y8212506D01*
Y8187492D01*
X5861475Y8163330D01*
X5873982Y8141668D01*
X5891670Y8123980D01*
X5913332Y8111473D01*
X5937494Y8104999D01*
X5962508D01*
X5986669Y8111473D01*
X6008332Y8123980D01*
X6026019Y8141668D01*
X6038526Y8163330D01*
X6045001Y8187492D01*
Y8212506D01*
X6038526Y8236667D01*
X6026019Y8258330D01*
X6008332Y8276017D01*
X5986669Y8288524D01*
X5962508Y8294999D01*
D02*
G37*
G36*
X5162509D02*
X5137495D01*
X5113334Y8288524D01*
X5091671Y8276017D01*
X5073984Y8258330D01*
X5061477Y8236667D01*
X5055003Y8212506D01*
Y8187492D01*
X5061477Y8163330D01*
X5073984Y8141668D01*
X5091671Y8123980D01*
X5113334Y8111473D01*
X5137495Y8104999D01*
X5162509D01*
X5186671Y8111473D01*
X5208333Y8123980D01*
X5226021Y8141668D01*
X5238528Y8163330D01*
X5245002Y8187492D01*
Y8212506D01*
X5238528Y8236667D01*
X5226021Y8258330D01*
X5208333Y8276017D01*
X5186671Y8288524D01*
X5162509Y8294999D01*
D02*
G37*
G36*
X4062506D02*
X4037493D01*
X4013331Y8288524D01*
X3991668Y8276017D01*
X3973981Y8258330D01*
X3961474Y8236667D01*
X3955000Y8212506D01*
Y8187492D01*
X3961474Y8163330D01*
X3973981Y8141668D01*
X3991668Y8123980D01*
X4013331Y8111473D01*
X4037493Y8104999D01*
X4062506D01*
X4086668Y8111473D01*
X4108331Y8123980D01*
X4126018Y8141668D01*
X4138525Y8163330D01*
X4144999Y8187492D01*
Y8212506D01*
X4138525Y8236667D01*
X4126018Y8258330D01*
X4108331Y8276017D01*
X4086668Y8288524D01*
X4062506Y8294999D01*
D02*
G37*
G36*
X8262701Y7995362D02*
Y7912699D01*
X8345364D01*
X8338900Y7936822D01*
X8326340Y7958576D01*
X8308578Y7976338D01*
X8286824Y7988898D01*
X8262701Y7995362D01*
D02*
G37*
G36*
X8237301D02*
X8213178Y7988898D01*
X8191424Y7976338D01*
X8173662Y7958576D01*
X8161103Y7936822D01*
X8154639Y7912699D01*
X8237301D01*
Y7995362D01*
D02*
G37*
G36*
X3662700D02*
Y7912699D01*
X3745363D01*
X3738899Y7936822D01*
X3726339Y7958576D01*
X3708577Y7976338D01*
X3686823Y7988898D01*
X3662700Y7995362D01*
D02*
G37*
G36*
X3637300D02*
X3613177Y7988898D01*
X3591423Y7976338D01*
X3573661Y7958576D01*
X3561102Y7936822D01*
X3554638Y7912699D01*
X3637300D01*
Y7995362D01*
D02*
G37*
G36*
X8061192Y7984999D02*
X8038811D01*
X8017193Y7979207D01*
X7997811Y7968016D01*
X7981985Y7952191D01*
X7970794Y7932808D01*
X7965002Y7911190D01*
Y7888809D01*
X7970794Y7867191D01*
X7981985Y7847808D01*
X7997811Y7831983D01*
X8017193Y7820792D01*
X8038811Y7815000D01*
X8061192D01*
X8082810Y7820792D01*
X8102193Y7831983D01*
X8118019Y7847808D01*
X8129209Y7867191D01*
X8135002Y7888809D01*
Y7911190D01*
X8129209Y7932808D01*
X8118019Y7952191D01*
X8102193Y7968016D01*
X8082810Y7979207D01*
X8061192Y7984999D01*
D02*
G37*
G36*
X7861193D02*
X7838812D01*
X7817193Y7979207D01*
X7797811Y7968016D01*
X7781985Y7952191D01*
X7770795Y7932808D01*
X7765002Y7911190D01*
Y7888809D01*
X7770795Y7867191D01*
X7781985Y7847808D01*
X7797811Y7831983D01*
X7817193Y7820792D01*
X7838812Y7815000D01*
X7861193D01*
X7882811Y7820792D01*
X7902193Y7831983D01*
X7918019Y7847808D01*
X7929209Y7867191D01*
X7935002Y7888809D01*
Y7911190D01*
X7929209Y7932808D01*
X7918019Y7952191D01*
X7902193Y7968016D01*
X7882811Y7979207D01*
X7861193Y7984999D01*
D02*
G37*
G36*
X7661193D02*
X7638812D01*
X7617194Y7979207D01*
X7597811Y7968016D01*
X7581986Y7952191D01*
X7570795Y7932808D01*
X7565003Y7911190D01*
Y7888809D01*
X7570795Y7867191D01*
X7581986Y7847808D01*
X7597811Y7831983D01*
X7617194Y7820792D01*
X7638812Y7815000D01*
X7661193D01*
X7682811Y7820792D01*
X7702194Y7831983D01*
X7718019Y7847808D01*
X7729210Y7867191D01*
X7735002Y7888809D01*
Y7911190D01*
X7729210Y7932808D01*
X7718019Y7952191D01*
X7702194Y7968016D01*
X7682811Y7979207D01*
X7661193Y7984999D01*
D02*
G37*
G36*
X3461191D02*
X3438810D01*
X3417192Y7979207D01*
X3397810Y7968016D01*
X3381984Y7952191D01*
X3370793Y7932808D01*
X3365001Y7911190D01*
Y7888809D01*
X3370793Y7867191D01*
X3381984Y7847808D01*
X3397810Y7831983D01*
X3417192Y7820792D01*
X3438810Y7815000D01*
X3461191D01*
X3482809Y7820792D01*
X3502192Y7831983D01*
X3518018Y7847808D01*
X3529208Y7867191D01*
X3535001Y7888809D01*
Y7911190D01*
X3529208Y7932808D01*
X3518018Y7952191D01*
X3502192Y7968016D01*
X3482809Y7979207D01*
X3461191Y7984999D01*
D02*
G37*
G36*
X3261192D02*
X3238811D01*
X3217192Y7979207D01*
X3197810Y7968016D01*
X3181984Y7952191D01*
X3170794Y7932808D01*
X3165001Y7911190D01*
Y7888809D01*
X3170794Y7867191D01*
X3181984Y7847808D01*
X3197810Y7831983D01*
X3217192Y7820792D01*
X3238811Y7815000D01*
X3261192D01*
X3282810Y7820792D01*
X3302192Y7831983D01*
X3318018Y7847808D01*
X3329208Y7867191D01*
X3335001Y7888809D01*
Y7911190D01*
X3329208Y7932808D01*
X3318018Y7952191D01*
X3302192Y7968016D01*
X3282810Y7979207D01*
X3261192Y7984999D01*
D02*
G37*
G36*
X3061192D02*
X3038811D01*
X3017193Y7979207D01*
X2997810Y7968016D01*
X2981985Y7952191D01*
X2970794Y7932808D01*
X2965002Y7911190D01*
Y7888809D01*
X2970794Y7867191D01*
X2981985Y7847808D01*
X2997810Y7831983D01*
X3017193Y7820792D01*
X3038811Y7815000D01*
X3061192D01*
X3082810Y7820792D01*
X3102193Y7831983D01*
X3118018Y7847808D01*
X3129209Y7867191D01*
X3135001Y7888809D01*
Y7911190D01*
X3129209Y7932808D01*
X3118018Y7952191D01*
X3102193Y7968016D01*
X3082810Y7979207D01*
X3061192Y7984999D01*
D02*
G37*
G36*
X7484998Y7985979D02*
X7414998D01*
X7395489Y7982098D01*
X7378950Y7971047D01*
X7367899Y7954508D01*
X7364018Y7934999D01*
Y7865000D01*
X7367899Y7845491D01*
X7378950Y7828952D01*
X7395489Y7817901D01*
X7414998Y7814020D01*
X7484998D01*
X7504507Y7817901D01*
X7521046Y7828952D01*
X7532097Y7845491D01*
X7535977Y7865000D01*
Y7934999D01*
X7532097Y7954508D01*
X7521046Y7971047D01*
X7504507Y7982098D01*
X7484998Y7985979D01*
D02*
G37*
G36*
X2885002D02*
X2815002D01*
X2795493Y7982098D01*
X2778954Y7971047D01*
X2767903Y7954508D01*
X2764022Y7934999D01*
Y7865000D01*
X2767903Y7845491D01*
X2778954Y7828952D01*
X2795493Y7817901D01*
X2815002Y7814020D01*
X2885002D01*
X2904511Y7817901D01*
X2921050Y7828952D01*
X2932101Y7845491D01*
X2935981Y7865000D01*
Y7934999D01*
X2932101Y7954508D01*
X2921050Y7971047D01*
X2904511Y7982098D01*
X2885002Y7985979D01*
D02*
G37*
G36*
X8345364Y7887299D02*
X8262701D01*
Y7804637D01*
X8286824Y7811101D01*
X8308578Y7823661D01*
X8326340Y7841422D01*
X8338900Y7863177D01*
X8345364Y7887299D01*
D02*
G37*
G36*
X8237301D02*
X8154639D01*
X8161103Y7863177D01*
X8173662Y7841422D01*
X8191424Y7823661D01*
X8213178Y7811101D01*
X8237301Y7804637D01*
Y7887299D01*
D02*
G37*
G36*
X3745363D02*
X3662700D01*
Y7804637D01*
X3686823Y7811101D01*
X3708577Y7823661D01*
X3726339Y7841422D01*
X3738899Y7863177D01*
X3745363Y7887299D01*
D02*
G37*
G36*
X3637300D02*
X3554638D01*
X3561102Y7863177D01*
X3573661Y7841422D01*
X3591423Y7823661D01*
X3613177Y7811101D01*
X3637300Y7804637D01*
Y7887299D01*
D02*
G37*
G36*
X6734211Y7752230D02*
Y7717803D01*
X6768638D01*
X6762542Y7732519D01*
X6748927Y7746135D01*
X6734211Y7752230D01*
D02*
G37*
G36*
X6708811D02*
X6694094Y7746135D01*
X6680479Y7732519D01*
X6674383Y7717803D01*
X6708811D01*
Y7752230D01*
D02*
G37*
G36*
X6768638Y7692403D02*
X6734211D01*
Y7657976D01*
X6748927Y7664072D01*
X6762542Y7677687D01*
X6768638Y7692403D01*
D02*
G37*
G36*
X6708811D02*
X6674383D01*
X6680479Y7677687D01*
X6694094Y7664072D01*
X6708811Y7657976D01*
Y7692403D01*
D02*
G37*
G36*
X7207559Y7538000D02*
X7192442D01*
X7178476Y7532215D01*
X7167786Y7521525D01*
X7162001Y7507559D01*
Y7492442D01*
X7167786Y7478475D01*
X7178476Y7467785D01*
X7192442Y7462000D01*
X7207559D01*
X7221526Y7467785D01*
X7232216Y7478475D01*
X7238001Y7492442D01*
Y7507559D01*
X7232216Y7521525D01*
X7221526Y7532215D01*
X7207559Y7538000D01*
D02*
G37*
G36*
X3411776Y7224477D02*
X3396659D01*
X3382692Y7218691D01*
X3372002Y7208002D01*
X3366217Y7194035D01*
Y7178918D01*
X3372002Y7164951D01*
X3382692Y7154262D01*
X3396659Y7148477D01*
X3411776D01*
X3425742Y7154262D01*
X3436432Y7164951D01*
X3442217Y7178918D01*
Y7194035D01*
X3436432Y7208002D01*
X3425742Y7218691D01*
X3411776Y7224477D01*
D02*
G37*
G36*
X5557560Y7427998D02*
X5542443D01*
X5528476Y7422213D01*
X5517787Y7411523D01*
X5512002Y7397556D01*
Y7382439D01*
X5517787Y7368473D01*
X5521759Y7364501D01*
Y7118493D01*
X5499999D01*
X5499997Y7118493D01*
X5480315Y7115901D01*
X5469978Y7114541D01*
X5469976Y7114540D01*
X5459553Y7110223D01*
X5442003Y7102953D01*
X5438155Y7100001D01*
X5367502D01*
Y7034039D01*
X5267984Y6934518D01*
X5267983Y6934517D01*
X5249550Y6910495D01*
X5249549Y6910494D01*
X5249549Y6910493D01*
X5244267Y6897740D01*
X5237962Y6882519D01*
X5237962Y6882518D01*
X5237961Y6882517D01*
X5234009Y6852496D01*
X5234010Y6852494D01*
Y6615501D01*
Y6488501D01*
Y6361501D01*
Y6234501D01*
X5236478Y6215751D01*
X5234010Y6197001D01*
Y6016225D01*
X5230459Y6007652D01*
X5226506Y5977631D01*
X5226506Y5977629D01*
Y5853371D01*
X5226506Y5853369D01*
X5230459Y5823348D01*
X5242046Y5795373D01*
X5260480Y5771350D01*
X5359008Y5672822D01*
Y5595727D01*
X5362960Y5565706D01*
X5374548Y5537730D01*
X5392981Y5513708D01*
X5417004Y5495274D01*
X5444979Y5483687D01*
X5475000Y5479734D01*
X5505022Y5483687D01*
X5516934Y5488621D01*
X5582500D01*
X5600058Y5492113D01*
X5614943Y5502059D01*
X5624889Y5516945D01*
X5628381Y5534503D01*
X5624889Y5552061D01*
X5614943Y5566946D01*
X5600058Y5576892D01*
X5588808Y5579129D01*
X5590993Y5595727D01*
Y5617310D01*
X5600058Y5619113D01*
X5614943Y5629059D01*
X5624889Y5643945D01*
X5628381Y5661503D01*
X5624889Y5679061D01*
X5614943Y5693946D01*
X5600058Y5703892D01*
X5590993Y5705695D01*
Y5720865D01*
X5590993Y5720867D01*
X5587986Y5743712D01*
X5600058Y5746113D01*
X5614943Y5756059D01*
X5624889Y5770945D01*
X5628381Y5788503D01*
X5624889Y5806061D01*
X5614943Y5820946D01*
X5600058Y5830892D01*
X5582500Y5834384D01*
X5525522D01*
X5502985Y5856921D01*
X5508246Y5869621D01*
X5582500D01*
X5600058Y5873113D01*
X5614943Y5883059D01*
X5620882Y5891948D01*
X5635604D01*
X5644472Y5883079D01*
X5658439Y5877294D01*
X5673556D01*
X5687523Y5883079D01*
X5698212Y5893769D01*
X5703997Y5907735D01*
Y5922852D01*
X5698212Y5936819D01*
X5687523Y5947509D01*
X5673556Y5953294D01*
X5658439D01*
X5644472Y5947509D01*
X5635812Y5938849D01*
X5621021D01*
X5614943Y5947946D01*
X5600058Y5957892D01*
X5582500Y5961384D01*
X5492500D01*
X5474942Y5957892D01*
X5463404Y5965456D01*
X5465995Y5985134D01*
X5465994Y5985136D01*
Y6197001D01*
X5465265Y6202543D01*
X5474886Y6216943D01*
X5478379Y6234501D01*
X5474886Y6252059D01*
X5465994Y6265367D01*
Y6330635D01*
X5474886Y6343943D01*
X5478379Y6361501D01*
X5474886Y6379059D01*
X5465994Y6392367D01*
Y6457635D01*
X5474886Y6470943D01*
X5478379Y6488501D01*
X5474886Y6506059D01*
X5465994Y6519367D01*
Y6584635D01*
X5474886Y6597943D01*
X5478379Y6615501D01*
X5474886Y6633059D01*
X5465994Y6646367D01*
Y6804454D01*
X5548046Y6886508D01*
X5550002D01*
X5580023Y6890460D01*
X5607998Y6902048D01*
X5611846Y6905001D01*
X5732502D01*
Y7100001D01*
X5611846D01*
X5607998Y7102953D01*
X5580023Y7114541D01*
X5578244Y7114775D01*
Y7364501D01*
X5582216Y7368473D01*
X5588002Y7382439D01*
Y7397556D01*
X5582216Y7411523D01*
X5571527Y7422213D01*
X5557560Y7427998D01*
D02*
G37*
G36*
X2646557Y7120500D02*
X2631440D01*
X2617473Y7114715D01*
X2606784Y7104025D01*
X2600999Y7090058D01*
Y7074941D01*
X2606784Y7060975D01*
X2617473Y7050285D01*
X2631440Y7044500D01*
X2646557D01*
X2660524Y7050285D01*
X2671213Y7060975D01*
X2676998Y7074941D01*
Y7090058D01*
X2671213Y7104025D01*
X2660524Y7114715D01*
X2646557Y7120500D01*
D02*
G37*
G36*
X5212700Y7047127D02*
Y7012700D01*
X5247127D01*
X5241031Y7027416D01*
X5227416Y7041031D01*
X5212700Y7047127D01*
D02*
G37*
G36*
X3387557Y7058001D02*
X3372440D01*
X3358473Y7052216D01*
X3347783Y7041526D01*
X3341998Y7027560D01*
Y7012443D01*
X3347783Y6998476D01*
X3358473Y6987786D01*
X3372440Y6982001D01*
X3387557D01*
X3401524Y6987786D01*
X3412213Y6998476D01*
X3417998Y7012443D01*
Y7027560D01*
X3412213Y7041526D01*
X3401524Y7052216D01*
X3387557Y7058001D01*
D02*
G37*
G36*
X5247127Y6987300D02*
X5212700D01*
Y6952873D01*
X5227416Y6958969D01*
X5241031Y6972584D01*
X5247127Y6987300D01*
D02*
G37*
G36*
X3607556Y7007999D02*
X3592439D01*
X3578473Y7002214D01*
X3567783Y6991524D01*
X3561998Y6977557D01*
Y6962440D01*
X3567783Y6948474D01*
X3578473Y6937784D01*
X3592439Y6931999D01*
X3607556D01*
X3621523Y6937784D01*
X3632213Y6948474D01*
X3637998Y6962440D01*
Y6977557D01*
X3632213Y6991524D01*
X3621523Y7002214D01*
X3607556Y7007999D01*
D02*
G37*
G36*
X2646557Y6998058D02*
X2631440D01*
X2617473Y6992273D01*
X2606784Y6981584D01*
X2600999Y6967617D01*
Y6952500D01*
X2606784Y6938533D01*
X2617473Y6927844D01*
X2631440Y6922059D01*
X2646557D01*
X2660524Y6927844D01*
X2671213Y6938533D01*
X2676998Y6952500D01*
Y6967617D01*
X2671213Y6981584D01*
X2660524Y6992273D01*
X2646557Y6998058D01*
D02*
G37*
G36*
X4859504Y6971055D02*
X4844387D01*
X4830420Y6965270D01*
X4819731Y6954580D01*
X4813946Y6940613D01*
Y6925496D01*
X4819731Y6911529D01*
X4830420Y6900840D01*
X4844387Y6895055D01*
X4859504D01*
X4873471Y6900840D01*
X4884160Y6911529D01*
X4889946Y6925496D01*
Y6940613D01*
X4884160Y6954580D01*
X4873471Y6965270D01*
X4859504Y6971055D01*
D02*
G37*
G36*
X3882498Y6900001D02*
X3517498D01*
Y6894679D01*
X3502479Y6892702D01*
X3474504Y6881115D01*
X3450481Y6862681D01*
X3432047Y6838658D01*
X3431995Y6838532D01*
X3317981Y6724522D01*
X3317979Y6724520D01*
X3306257Y6709243D01*
X3299547Y6700499D01*
X3299546Y6700498D01*
X3299546Y6700498D01*
X3294264Y6687747D01*
X3287959Y6672524D01*
X3287958Y6672523D01*
X3287958Y6672522D01*
X3286764Y6663448D01*
X3284006Y6642504D01*
X3284006Y6642502D01*
Y5896869D01*
X3284006Y5896867D01*
X3286711Y5876321D01*
X3287958Y5866848D01*
X3287958Y5866847D01*
X3287959Y5866846D01*
X3294264Y5851623D01*
X3299546Y5838873D01*
X3299546Y5838872D01*
X3299547Y5838871D01*
X3306698Y5829551D01*
X3317979Y5814850D01*
X3317980Y5814849D01*
X3372484Y5760347D01*
X3367223Y5747647D01*
X3362796D01*
X3348829Y5741862D01*
X3338140Y5731173D01*
X3332355Y5717206D01*
Y5702089D01*
X3338140Y5688122D01*
X3348829Y5677433D01*
X3362796Y5671648D01*
X3377913D01*
X3391880Y5677433D01*
X3402570Y5688122D01*
X3407242Y5699402D01*
X3416554Y5703807D01*
X3421055Y5704751D01*
X3426510Y5700640D01*
Y5618124D01*
X3430462Y5588103D01*
X3442050Y5560128D01*
X3460483Y5536105D01*
X3484506Y5517672D01*
X3512481Y5506084D01*
X3542502Y5502132D01*
X3565027Y5505097D01*
X3580002Y5502119D01*
X3670002D01*
X3687560Y5505611D01*
X3702445Y5515557D01*
X3712391Y5530442D01*
X3715883Y5548000D01*
X3712391Y5565558D01*
X3702445Y5580443D01*
X3687560Y5590389D01*
X3670002Y5593882D01*
X3664934D01*
X3656560Y5603430D01*
X3658495Y5618124D01*
Y5629119D01*
X3670002D01*
X3687560Y5632611D01*
X3702445Y5642557D01*
X3712391Y5657442D01*
X3715883Y5675000D01*
X3712391Y5692558D01*
X3702445Y5707443D01*
X3687560Y5717389D01*
X3670002Y5720882D01*
X3658495D01*
Y5754370D01*
X3670002Y5756119D01*
X3687560Y5759611D01*
X3702445Y5769557D01*
X3708453Y5778550D01*
X3725097D01*
X3730673Y5765087D01*
X3741363Y5754398D01*
X3755330Y5748613D01*
X3770447D01*
X3784413Y5754398D01*
X3795103Y5765087D01*
X3800888Y5779054D01*
Y5794171D01*
X3795103Y5808138D01*
X3784413Y5818827D01*
X3770447Y5824612D01*
X3755330D01*
X3750627Y5822665D01*
X3749129Y5823666D01*
X3740155Y5825451D01*
X3740154Y5825451D01*
X3708453D01*
X3702445Y5834443D01*
X3687560Y5844389D01*
X3670002Y5847882D01*
X3613028D01*
X3590491Y5870419D01*
X3595751Y5883119D01*
X3670002D01*
X3687560Y5886611D01*
X3702444Y5896557D01*
X3712585Y5891544D01*
X3720193Y5886461D01*
X3729167Y5884676D01*
X3742419D01*
X3742421Y5884676D01*
X3751395Y5886461D01*
X3759003Y5891544D01*
X3789021Y5921563D01*
X3789022Y5921563D01*
X3794105Y5929172D01*
X3795891Y5938146D01*
Y5954075D01*
X3805436Y5963620D01*
X3811221Y5977587D01*
Y5992704D01*
X3805436Y6006671D01*
X3802830Y6009276D01*
X3804523Y6017786D01*
X3815213Y6028475D01*
X3820998Y6042442D01*
Y6057559D01*
X3815213Y6071526D01*
X3804523Y6082215D01*
X3790556Y6088001D01*
X3775439D01*
X3761473Y6082215D01*
X3750783Y6071526D01*
X3744998Y6057559D01*
Y6042442D01*
X3750783Y6028476D01*
X3747816Y6013481D01*
X3741006Y6006671D01*
X3735221Y5992704D01*
Y5977587D01*
X3741006Y5963620D01*
X3745509Y5959118D01*
Y5944379D01*
X3735794Y5934664D01*
X3733293Y5937165D01*
X3725685Y5942248D01*
X3716711Y5944033D01*
X3712390Y5946558D01*
X3702445Y5961443D01*
X3687560Y5971389D01*
X3670002Y5974882D01*
X3580002D01*
X3562444Y5971389D01*
X3547559Y5961443D01*
X3537613Y5946558D01*
X3537025Y5943606D01*
X3525244Y5939752D01*
X3515991Y5947420D01*
Y6163621D01*
X3557500D01*
X3575058Y6167113D01*
X3589943Y6177059D01*
X3599889Y6191944D01*
X3603381Y6209502D01*
X3599889Y6227060D01*
X3589943Y6241946D01*
X3575058Y6251891D01*
X3557500Y6255384D01*
X3515991D01*
Y6290621D01*
X3557500D01*
X3575058Y6294113D01*
X3589943Y6304059D01*
X3599889Y6318944D01*
X3603381Y6336502D01*
X3599889Y6354060D01*
X3589943Y6368946D01*
X3575058Y6378891D01*
X3557500Y6382384D01*
X3515991D01*
Y6417621D01*
X3557500D01*
X3575058Y6421113D01*
X3589943Y6431059D01*
X3599889Y6445944D01*
X3603381Y6463502D01*
X3599889Y6481060D01*
X3589943Y6495946D01*
X3575058Y6505891D01*
X3557500Y6509384D01*
X3515991D01*
Y6544621D01*
X3557500D01*
X3575058Y6548113D01*
X3589943Y6558059D01*
X3599889Y6572944D01*
X3603381Y6590502D01*
X3599889Y6608060D01*
X3589943Y6622946D01*
X3575058Y6632891D01*
X3571064Y6633686D01*
X3567377Y6645839D01*
X3614518Y6692977D01*
X3614519Y6692979D01*
X3623744Y6705001D01*
X3882498D01*
Y6771759D01*
X3934505D01*
X3938477Y6767787D01*
X3952444Y6762002D01*
X3967561D01*
X3981527Y6767787D01*
X3992217Y6778476D01*
X3998002Y6792443D01*
Y6807560D01*
X3992217Y6821527D01*
X3981527Y6832216D01*
X3967561Y6838002D01*
X3952444D01*
X3938477Y6832216D01*
X3934505Y6828244D01*
X3882498D01*
Y6900001D01*
D02*
G37*
G36*
X7947700Y6767539D02*
Y6727700D01*
X7987539D01*
X7980271Y6745249D01*
X7965249Y6760270D01*
X7947700Y6767539D01*
D02*
G37*
G36*
X7702300D02*
X7684751Y6760270D01*
X7669730Y6745249D01*
X7662461Y6727700D01*
X7702300D01*
Y6767539D01*
D02*
G37*
G36*
X3177560Y6754025D02*
X3162443D01*
X3148476Y6748240D01*
X3137786Y6737550D01*
X3132001Y6723583D01*
Y6708466D01*
X3137786Y6694500D01*
X3148476Y6683810D01*
X3162443Y6678025D01*
X3177560D01*
X3191527Y6683810D01*
X3202216Y6694500D01*
X3208001Y6708466D01*
Y6723583D01*
X3202216Y6737550D01*
X3191527Y6748240D01*
X3177560Y6754025D01*
D02*
G37*
G36*
X7512402Y6721136D02*
X7497285D01*
X7483319Y6715351D01*
X7472629Y6704661D01*
X7466844Y6690695D01*
Y6675577D01*
X7472629Y6661611D01*
X7483319Y6650921D01*
X7497285Y6645136D01*
X7512402D01*
X7526369Y6650921D01*
X7537059Y6661611D01*
X7542844Y6675577D01*
Y6690695D01*
X7537059Y6704661D01*
X7526369Y6715351D01*
X7512402Y6721136D01*
D02*
G37*
G36*
X6307502Y6669985D02*
X6275202D01*
Y6626200D01*
X6361461D01*
X6359688Y6635116D01*
X6347443Y6653441D01*
X6329118Y6665685D01*
X6307502Y6669985D01*
D02*
G37*
G36*
X4407501Y6644986D02*
X4375201D01*
Y6601201D01*
X4461460D01*
X4459686Y6610117D01*
X4447442Y6628442D01*
X4429117Y6640686D01*
X4407501Y6644986D01*
D02*
G37*
G36*
X3927559Y6663000D02*
X3912442D01*
X3898475Y6657215D01*
X3887785Y6646525D01*
X3882000Y6632558D01*
Y6617441D01*
X3887785Y6603475D01*
X3898475Y6592785D01*
X3912442Y6587000D01*
X3927559D01*
X3941525Y6592785D01*
X3952215Y6603475D01*
X3958000Y6617441D01*
Y6632558D01*
X3952215Y6646525D01*
X3941525Y6657215D01*
X3927559Y6663000D01*
D02*
G37*
G36*
X7496274Y6615500D02*
X7481156D01*
X7467190Y6609715D01*
X7456500Y6599025D01*
X7450715Y6585058D01*
Y6579270D01*
X7438455D01*
X7424488Y6573485D01*
X7417263Y6566260D01*
X7414107Y6566888D01*
X7403418Y6577577D01*
X7389451Y6583362D01*
X7374334D01*
X7360368Y6577577D01*
X7349678Y6566887D01*
X7343893Y6552921D01*
Y6537804D01*
X7349678Y6523837D01*
X7360368Y6513147D01*
X7374334Y6507362D01*
X7389451D01*
X7403418Y6513147D01*
X7410643Y6520373D01*
X7413799Y6519745D01*
X7424488Y6509055D01*
X7438455Y6503270D01*
X7453572D01*
X7458463Y6505296D01*
X7467185Y6495163D01*
X7463000Y6485059D01*
Y6469942D01*
X7468785Y6455975D01*
X7479475Y6445285D01*
X7493442Y6439500D01*
X7508559D01*
X7522525Y6445285D01*
X7533215Y6455975D01*
X7539000Y6469942D01*
Y6485059D01*
X7533215Y6499025D01*
X7522525Y6509715D01*
X7508559Y6515500D01*
X7493442D01*
X7488551Y6513474D01*
X7479828Y6523608D01*
X7484013Y6533712D01*
Y6539500D01*
X7496274D01*
X7510240Y6545285D01*
X7520930Y6555975D01*
X7526715Y6569941D01*
Y6585058D01*
X7520930Y6599025D01*
X7510240Y6609715D01*
X7496274Y6615500D01*
D02*
G37*
G36*
X6497559Y6500500D02*
X6482441D01*
X6468475Y6494715D01*
X6457785Y6484025D01*
X6457032Y6482206D01*
X6443791Y6477573D01*
X6432011Y6482452D01*
X6416894D01*
X6402927Y6476667D01*
X6392238Y6465978D01*
X6386453Y6452011D01*
Y6436894D01*
X6392238Y6422927D01*
X6393418Y6421747D01*
Y6412490D01*
X6388334Y6404882D01*
X6386549Y6395908D01*
X6386549Y6395907D01*
Y6382656D01*
X6386549Y6382654D01*
X6388334Y6373680D01*
X6393418Y6366072D01*
X6406549Y6352941D01*
Y6271917D01*
X6406549Y6271915D01*
X6408334Y6262941D01*
X6413418Y6255333D01*
X6475116Y6193635D01*
X6479600Y6190639D01*
X6484829Y6185410D01*
Y6181133D01*
X6490614Y6167167D01*
X6501304Y6156477D01*
X6515270Y6150692D01*
X6530387D01*
X6544354Y6156477D01*
X6553323Y6165446D01*
X6557059Y6161710D01*
X6571025Y6155925D01*
X6586142D01*
X6600109Y6161710D01*
X6610799Y6172400D01*
X6616584Y6186367D01*
Y6201484D01*
X6610799Y6215450D01*
X6600109Y6226140D01*
X6586142Y6231925D01*
X6573748D01*
X6513451Y6292223D01*
Y6432210D01*
X6522215Y6440975D01*
X6528000Y6454941D01*
Y6470058D01*
X6522215Y6484025D01*
X6511525Y6494715D01*
X6497559Y6500500D01*
D02*
G37*
G36*
X7702300Y6482300D02*
X7662461D01*
X7669730Y6464751D01*
X7684751Y6449730D01*
X7702300Y6442461D01*
Y6482300D01*
D02*
G37*
G36*
X5949798Y6348801D02*
X5863539D01*
X5865312Y6339885D01*
X5877556Y6321560D01*
X5895882Y6309316D01*
X5917498Y6305016D01*
X5949798D01*
Y6348801D01*
D02*
G37*
G36*
X6361461Y6346800D02*
X6275202D01*
Y6303014D01*
X6307502D01*
X6329118Y6307314D01*
X6347443Y6319558D01*
X6359688Y6337884D01*
X6361461Y6346800D01*
D02*
G37*
G36*
X3771606Y6356535D02*
X3756489D01*
X3742522Y6350750D01*
X3731832Y6340061D01*
X3726047Y6326094D01*
Y6310977D01*
X3731832Y6297010D01*
X3742522Y6286321D01*
X3756489Y6280536D01*
X3771606D01*
X3785572Y6286321D01*
X3796262Y6297010D01*
X3802047Y6310977D01*
Y6326094D01*
X3796262Y6340061D01*
X3785572Y6350750D01*
X3771606Y6356535D01*
D02*
G37*
G36*
X4074800Y6323802D02*
X3984248D01*
X3979647Y6318196D01*
X3976538D01*
X3962572Y6312411D01*
X3951882Y6301721D01*
X3946097Y6287755D01*
Y6272637D01*
X3951882Y6258671D01*
X3962572Y6247981D01*
X3976538Y6242196D01*
X3991655D01*
X3996211Y6244083D01*
X4004630Y6233824D01*
X4000111Y6227060D01*
X3996619Y6209502D01*
X4000111Y6191944D01*
X4010057Y6177059D01*
X4024942Y6167113D01*
X4042500Y6163621D01*
X4132500D01*
X4150058Y6167113D01*
X4164943Y6177059D01*
X4172333Y6188119D01*
X4195417D01*
X4202114Y6181423D01*
X4216080Y6175638D01*
X4231198D01*
X4245164Y6181423D01*
X4255854Y6192112D01*
X4261639Y6206079D01*
Y6221196D01*
X4255854Y6235163D01*
X4245164Y6245852D01*
X4231198Y6251637D01*
X4216080D01*
X4202114Y6245852D01*
X4191424Y6235163D01*
X4191365Y6235021D01*
X4169570D01*
X4164943Y6241946D01*
X4150058Y6251891D01*
X4132500Y6255384D01*
X4042500D01*
X4026420Y6252185D01*
X4021906Y6256424D01*
X4017874Y6262443D01*
X4022097Y6272637D01*
Y6274066D01*
X4031914Y6282123D01*
X4042500Y6280017D01*
X4074800D01*
Y6323802D01*
D02*
G37*
G36*
X4461460Y6321801D02*
X4375201D01*
Y6278016D01*
X4407501D01*
X4429117Y6282315D01*
X4447442Y6294560D01*
X4459686Y6312885D01*
X4461460Y6321801D01*
D02*
G37*
G36*
X3975882Y6076322D02*
X3960765D01*
X3946798Y6070537D01*
X3936108Y6059847D01*
X3930323Y6045880D01*
Y6030763D01*
X3936108Y6016796D01*
X3946798Y6006107D01*
X3960765Y6000322D01*
X3975882D01*
X3989849Y6006107D01*
X4000538Y6016796D01*
X4006323Y6030763D01*
Y6045880D01*
X4000538Y6059847D01*
X3989849Y6070537D01*
X3975882Y6076322D01*
D02*
G37*
G36*
X7947700Y5967539D02*
Y5927700D01*
X7987539D01*
X7980270Y5945248D01*
X7965248Y5960270D01*
X7947700Y5967539D01*
D02*
G37*
G36*
X8146797Y5927238D02*
X8131680D01*
X8117713Y5921453D01*
X8107023Y5910763D01*
X8101238Y5896797D01*
Y5881680D01*
X8107023Y5867713D01*
X8117713Y5857023D01*
X8127620Y5852920D01*
X8131422Y5841701D01*
X8131340Y5838679D01*
X8129440Y5836779D01*
X8123655Y5822812D01*
Y5807695D01*
X8128701Y5795514D01*
X8124387Y5793727D01*
X8113697Y5783037D01*
X8107912Y5769071D01*
Y5753954D01*
X8113697Y5739987D01*
X8124387Y5729297D01*
X8138353Y5723512D01*
X8153470D01*
X8167437Y5729297D01*
X8178127Y5739987D01*
X8183912Y5753954D01*
Y5769071D01*
X8178866Y5781252D01*
X8183180Y5783039D01*
X8193870Y5793729D01*
X8199655Y5807695D01*
Y5822812D01*
X8193870Y5836779D01*
X8183180Y5847469D01*
X8173273Y5851572D01*
X8169472Y5862791D01*
X8169553Y5865813D01*
X8171453Y5867713D01*
X8177238Y5881680D01*
Y5896797D01*
X8171453Y5910763D01*
X8160763Y5921453D01*
X8146797Y5927238D01*
D02*
G37*
G36*
X5212700Y5747127D02*
Y5712700D01*
X5247127D01*
X5241031Y5727416D01*
X5227416Y5741031D01*
X5212700Y5747127D01*
D02*
G37*
G36*
X5187300D02*
X5172584Y5741031D01*
X5158969Y5727416D01*
X5152873Y5712700D01*
X5187300D01*
Y5747127D01*
D02*
G37*
G36*
X5247127Y5687300D02*
X5212700D01*
Y5652873D01*
X5227416Y5658969D01*
X5241031Y5672584D01*
X5247127Y5687300D01*
D02*
G37*
G36*
X5187300D02*
X5152873D01*
X5158969Y5672584D01*
X5172584Y5658969D01*
X5187300Y5652873D01*
Y5687300D01*
D02*
G37*
G36*
X8470401Y5740399D02*
X8362701D01*
Y5652699D01*
X8470401D01*
Y5740399D01*
D02*
G37*
G36*
X8337301D02*
X8229601D01*
Y5652699D01*
X8337301D01*
Y5740399D01*
D02*
G37*
G36*
X4786028Y5741534D02*
X4770911D01*
X4756944Y5735749D01*
X4746254Y5725060D01*
X4740469Y5711093D01*
Y5695976D01*
X4746254Y5682009D01*
X4756944Y5671320D01*
X4770911Y5665535D01*
X4784379D01*
X4788420Y5662834D01*
X4797395Y5661049D01*
X4797396Y5661049D01*
X4904047D01*
X4910055Y5652057D01*
X4924940Y5642111D01*
X4942498Y5638618D01*
X5032498D01*
X5050056Y5642111D01*
X5064941Y5652057D01*
X5074887Y5666942D01*
X5078380Y5684500D01*
X5074887Y5702058D01*
X5064941Y5716943D01*
X5050056Y5726889D01*
X5032498Y5730381D01*
X4942498D01*
X4924940Y5726889D01*
X4910055Y5716943D01*
X4904047Y5707950D01*
X4816469D01*
Y5711093D01*
X4810684Y5725060D01*
X4799994Y5735749D01*
X4786028Y5741534D01*
D02*
G37*
G36*
X6957498Y5705383D02*
X6867498D01*
X6849940Y5701890D01*
X6835055Y5691944D01*
X6825109Y5677059D01*
X6821617Y5659501D01*
X6825109Y5641943D01*
X6835055Y5627058D01*
X6849940Y5617112D01*
X6867498Y5613619D01*
X6957498D01*
X6975056Y5617112D01*
X6989941Y5627058D01*
X6992193Y5630427D01*
X7007148Y5631613D01*
X7010975Y5627785D01*
X7024941Y5622000D01*
X7040059D01*
X7054025Y5627785D01*
X7064715Y5638475D01*
X7070500Y5652442D01*
Y5667559D01*
X7064715Y5681525D01*
X7054025Y5692215D01*
X7040059Y5698000D01*
X7024941D01*
X7010975Y5692215D01*
X7006787Y5688027D01*
X6991757Y5689227D01*
X6989941Y5691944D01*
X6975056Y5701890D01*
X6957498Y5705383D01*
D02*
G37*
G36*
X3832560Y5682998D02*
X3817443D01*
X3803476Y5677212D01*
X3792786Y5666523D01*
X3787001Y5652556D01*
Y5637439D01*
X3792786Y5623472D01*
X3803476Y5612783D01*
X3817443Y5606998D01*
X3832560D01*
X3846526Y5612783D01*
X3857216Y5623472D01*
X3863001Y5637439D01*
Y5652556D01*
X3857216Y5666523D01*
X3846526Y5677212D01*
X3832560Y5682998D01*
D02*
G37*
G36*
X5250401Y5627902D02*
X5187701D01*
Y5562702D01*
X5250401D01*
Y5627902D01*
D02*
G37*
G36*
X5162301D02*
X5099601D01*
Y5562702D01*
X5162301D01*
Y5627902D01*
D02*
G37*
G36*
X8470401Y5627299D02*
X8362701D01*
Y5539599D01*
X8470401D01*
Y5627299D01*
D02*
G37*
G36*
X8337301D02*
X8229601D01*
Y5539599D01*
X8337301D01*
Y5627299D01*
D02*
G37*
G36*
X3694630Y5485502D02*
X3679513D01*
X3665546Y5479716D01*
X3656782Y5470952D01*
X3483859D01*
X3483858Y5470952D01*
X3474884Y5469167D01*
X3467276Y5464084D01*
X3432383Y5429191D01*
X3422049D01*
X3419025Y5432215D01*
X3405058Y5438000D01*
X3389941D01*
X3375975Y5432215D01*
X3365285Y5421525D01*
X3359500Y5407559D01*
Y5392442D01*
X3365285Y5378475D01*
X3375975Y5367785D01*
X3389941Y5362000D01*
X3405058D01*
X3419025Y5367785D01*
X3429715Y5378475D01*
X3431295Y5382290D01*
X3442095D01*
X3442097Y5382289D01*
X3451071Y5384075D01*
X3458679Y5389158D01*
X3493572Y5424051D01*
X3656782D01*
X3665546Y5415287D01*
X3679513Y5409502D01*
X3694630D01*
X3708597Y5415287D01*
X3719286Y5425976D01*
X3725072Y5439943D01*
Y5455060D01*
X3719286Y5469027D01*
X3708597Y5479716D01*
X3694630Y5485502D01*
D02*
G37*
G36*
X7445399Y5552298D02*
X7337699D01*
Y5464598D01*
X7445399D01*
Y5552298D01*
D02*
G37*
G36*
X5362700Y5447127D02*
Y5412700D01*
X5397127D01*
X5391031Y5427416D01*
X5377416Y5441032D01*
X5362700Y5447127D01*
D02*
G37*
G36*
X5337300D02*
X5322584Y5441032D01*
X5308969Y5427416D01*
X5302873Y5412700D01*
X5337300D01*
Y5447127D01*
D02*
G37*
G36*
X5397127Y5387300D02*
X5362700D01*
Y5352873D01*
X5377416Y5358969D01*
X5391031Y5372584D01*
X5397127Y5387300D01*
D02*
G37*
G36*
X5337300D02*
X5302873D01*
X5308969Y5372584D01*
X5322584Y5358969D01*
X5337300Y5352873D01*
Y5387300D01*
D02*
G37*
G36*
X3647700Y5237539D02*
Y5197700D01*
X3687539D01*
X3680271Y5215249D01*
X3665249Y5230270D01*
X3647700Y5237539D01*
D02*
G37*
G36*
X8400402Y4912299D02*
X8337702D01*
Y4847099D01*
X8400402D01*
Y4912299D01*
D02*
G37*
G36*
X7445399Y4885399D02*
X7337699D01*
Y4797699D01*
X7445399D01*
Y4885399D01*
D02*
G37*
G36*
X7542301Y4797899D02*
X7479601D01*
Y4737699D01*
X7542301D01*
Y4797899D01*
D02*
G37*
G36*
X7445399Y4772299D02*
X7337699D01*
Y4684599D01*
X7445399D01*
Y4772299D01*
D02*
G37*
G36*
X7312299D02*
X7204600D01*
Y4684599D01*
X7312299D01*
Y4772299D01*
D02*
G37*
G36*
X7122700Y4707127D02*
Y4672700D01*
X7157127D01*
X7151031Y4687416D01*
X7137416Y4701031D01*
X7122700Y4707127D01*
D02*
G37*
G36*
X7097300D02*
X7082584Y4701031D01*
X7068969Y4687416D01*
X7062873Y4672700D01*
X7097300D01*
Y4707127D01*
D02*
G37*
G36*
X7542301Y4712299D02*
X7479601D01*
Y4652099D01*
X7542301D01*
Y4712299D01*
D02*
G37*
G36*
X8089998Y4787499D02*
X7959998D01*
Y4662499D01*
X7979216D01*
Y4655002D01*
X7982321Y4639395D01*
X7991162Y4626164D01*
X8004393Y4617323D01*
X8020000Y4614219D01*
X8035607Y4617323D01*
X8048838Y4626164D01*
X8057679Y4639395D01*
X8060783Y4655002D01*
Y4662499D01*
X8089998D01*
Y4787499D01*
D02*
G37*
G36*
X7157127Y4647300D02*
X7122700D01*
Y4612873D01*
X7137416Y4618969D01*
X7151031Y4632584D01*
X7157127Y4647300D01*
D02*
G37*
G36*
X7097300D02*
X7062873D01*
X7068969Y4632584D01*
X7082584Y4618969D01*
X7097300Y4612873D01*
Y4647300D01*
D02*
G37*
G36*
X7087560Y4419001D02*
X7072443D01*
X7058476Y4413216D01*
X7047786Y4402527D01*
X7042001Y4388560D01*
Y4373443D01*
X7047786Y4359476D01*
X7058476Y4348787D01*
X7072443Y4343001D01*
X7087560D01*
X7101526Y4348787D01*
X7112216Y4359476D01*
X7118001Y4373443D01*
Y4388560D01*
X7112216Y4402527D01*
X7101526Y4413216D01*
X7087560Y4419001D01*
D02*
G37*
G36*
X8157558Y4408000D02*
X8142441D01*
X8128475Y4402215D01*
X8117785Y4391525D01*
X8112000Y4377558D01*
Y4362441D01*
X8117785Y4348475D01*
X8128475Y4337785D01*
X8142441Y4332000D01*
X8157558D01*
X8171525Y4337785D01*
X8182215Y4348475D01*
X8188000Y4362441D01*
Y4377558D01*
X8182215Y4391525D01*
X8171525Y4402215D01*
X8157558Y4408000D01*
D02*
G37*
G36*
X6947070Y4318488D02*
X6931953D01*
X6917986Y4312703D01*
X6907297Y4302013D01*
X6901512Y4288047D01*
Y4272930D01*
X6907297Y4258963D01*
X6917986Y4248273D01*
X6931953Y4242488D01*
X6947070D01*
X6961037Y4248273D01*
X6971726Y4258963D01*
X6977512Y4272930D01*
Y4288047D01*
X6971726Y4302013D01*
X6961037Y4312703D01*
X6947070Y4318488D01*
D02*
G37*
G36*
X8158500Y4263000D02*
X8143383D01*
X8129416Y4257215D01*
X8118726Y4246526D01*
X8112941Y4232559D01*
Y4217442D01*
X8118726Y4203475D01*
X8129416Y4192786D01*
X8143383Y4187001D01*
X8158500D01*
X8172467Y4192786D01*
X8183156Y4203475D01*
X8188941Y4217442D01*
Y4232559D01*
X8183156Y4246526D01*
X8172467Y4257215D01*
X8158500Y4263000D01*
D02*
G37*
G36*
X6888857Y4183827D02*
X6873740D01*
X6859773Y4178042D01*
X6849084Y4167352D01*
X6843298Y4153385D01*
Y4138268D01*
X6849084Y4124302D01*
X6859773Y4113612D01*
X6873723Y4107834D01*
X6872000Y4103674D01*
Y4088557D01*
X6877785Y4074590D01*
X6888475Y4063900D01*
X6902441Y4058115D01*
X6917558D01*
X6931525Y4063900D01*
X6942215Y4074590D01*
X6948000Y4088557D01*
Y4103674D01*
X6942215Y4117640D01*
X6931525Y4128330D01*
X6917575Y4134108D01*
X6919298Y4138268D01*
Y4153385D01*
X6913513Y4167352D01*
X6902824Y4178042D01*
X6888857Y4183827D01*
D02*
G37*
G36*
X7098435Y4108115D02*
X7083318D01*
X7069352Y4102330D01*
X7058662Y4091641D01*
X7052877Y4077674D01*
Y4062557D01*
X7058662Y4048590D01*
X7069352Y4037900D01*
X7083318Y4032115D01*
X7098435D01*
X7112402Y4037900D01*
X7123092Y4048590D01*
X7128877Y4062557D01*
Y4077674D01*
X7123092Y4091641D01*
X7112402Y4102330D01*
X7098435Y4108115D01*
D02*
G37*
G36*
X7402987Y4103325D02*
X7387870D01*
X7373904Y4097540D01*
X7363214Y4086850D01*
X7357429Y4072884D01*
Y4057767D01*
X7363214Y4043800D01*
X7373904Y4033110D01*
X7387870Y4027325D01*
X7402987D01*
X7416954Y4033110D01*
X7427644Y4043800D01*
X7433429Y4057767D01*
Y4072884D01*
X7427644Y4086850D01*
X7416954Y4097540D01*
X7402987Y4103325D01*
D02*
G37*
G36*
X7190119Y4100002D02*
X7175002D01*
X7161035Y4094217D01*
X7150346Y4083527D01*
X7144561Y4069561D01*
Y4054444D01*
X7150346Y4040477D01*
X7161035Y4029787D01*
X7175002Y4024002D01*
X7190119D01*
X7204086Y4029787D01*
X7214776Y4040477D01*
X7220561Y4054444D01*
Y4069561D01*
X7214776Y4083527D01*
X7204086Y4094217D01*
X7190119Y4100002D01*
D02*
G37*
G36*
X6587561Y4087999D02*
X6572444D01*
X6558477Y4082214D01*
X6547787Y4071525D01*
X6542002Y4057558D01*
Y4042441D01*
X6547787Y4028474D01*
X6558477Y4017785D01*
X6560678Y4016873D01*
Y4003126D01*
X6558477Y4002215D01*
X6547787Y3991525D01*
X6542002Y3977558D01*
Y3962441D01*
X6547787Y3948474D01*
X6558477Y3937785D01*
X6572444Y3932000D01*
X6587561D01*
X6601527Y3937785D01*
X6612217Y3948474D01*
X6618002Y3962441D01*
Y3977558D01*
X6612217Y3991525D01*
X6601527Y4002215D01*
X6599326Y4003126D01*
Y4016873D01*
X6601527Y4017785D01*
X6606351Y4022609D01*
X6615039Y4026931D01*
X6622945Y4022609D01*
X6628121Y4017432D01*
X6642088Y4011647D01*
X6657205D01*
X6671172Y4017432D01*
X6681861Y4028121D01*
X6687647Y4042088D01*
Y4057205D01*
X6681861Y4071172D01*
X6671172Y4081862D01*
X6657205Y4087647D01*
X6642088D01*
X6628121Y4081862D01*
X6623297Y4077038D01*
X6614610Y4072715D01*
X6606704Y4077038D01*
X6601527Y4082214D01*
X6587561Y4087999D01*
D02*
G37*
G36*
X7187559Y3955001D02*
X7172442D01*
X7158476Y3949216D01*
X7150105Y3940845D01*
X7141733Y3949216D01*
X7127767Y3955001D01*
X7112649D01*
X7098683Y3949216D01*
X7087993Y3938526D01*
X7082208Y3924559D01*
Y3909442D01*
X7087993Y3895476D01*
X7098683Y3884786D01*
X7112649Y3879001D01*
X7127767D01*
X7141733Y3884786D01*
X7150105Y3893157D01*
X7158476Y3884786D01*
X7172442Y3879001D01*
X7187559D01*
X7201526Y3884786D01*
X7212216Y3895476D01*
X7218001Y3909442D01*
Y3924559D01*
X7212216Y3938526D01*
X7201526Y3949216D01*
X7187559Y3955001D01*
D02*
G37*
G36*
X6913290Y4000115D02*
X6898173D01*
X6884206Y3994330D01*
X6873517Y3983641D01*
X6867732Y3969674D01*
Y3954557D01*
X6873517Y3940590D01*
X6884206Y3929901D01*
X6898173Y3924116D01*
X6913290D01*
X6927257Y3929901D01*
X6937946Y3940590D01*
X6943732Y3954557D01*
Y3969674D01*
X6937946Y3983641D01*
X6927257Y3994330D01*
X6913290Y4000115D01*
D02*
G37*
G36*
X6957557Y3821001D02*
X6942440D01*
X6928474Y3815216D01*
X6917784Y3804526D01*
X6911999Y3790560D01*
Y3775443D01*
X6917784Y3761476D01*
X6928474Y3750786D01*
X6942440Y3745001D01*
X6957557D01*
X6971524Y3750786D01*
X6982214Y3761476D01*
X6987999Y3775443D01*
Y3790560D01*
X6982214Y3804526D01*
X6971524Y3815216D01*
X6957557Y3821001D01*
D02*
G37*
G36*
X6889440Y3669880D02*
X6874323D01*
X6860356Y3664095D01*
X6849666Y3653405D01*
X6843881Y3639438D01*
Y3624321D01*
X6849666Y3610355D01*
X6860356Y3599665D01*
X6874323Y3593880D01*
X6889440D01*
X6903406Y3599665D01*
X6914096Y3610355D01*
X6919881Y3624321D01*
Y3639438D01*
X6914096Y3653405D01*
X6903406Y3664095D01*
X6889440Y3669880D01*
D02*
G37*
G36*
X7350201Y3643959D02*
Y3582700D01*
X7393986D01*
Y3590000D01*
X7389687Y3611616D01*
X7377442Y3629942D01*
X7359117Y3642186D01*
X7350201Y3643959D01*
D02*
G37*
G36*
X7324801D02*
X7315885Y3642186D01*
X7297560Y3629942D01*
X7285316Y3611616D01*
X7281016Y3590000D01*
Y3582700D01*
X7324801D01*
Y3643959D01*
D02*
G37*
G36*
X6497300Y3594011D02*
X6462873D01*
X6468968Y3579295D01*
X6482583Y3565680D01*
X6497300Y3559584D01*
Y3594011D01*
D02*
G37*
G36*
X7393986Y3557300D02*
X7350201D01*
Y3496042D01*
X7359117Y3497815D01*
X7377442Y3510059D01*
X7389687Y3528385D01*
X7393986Y3550001D01*
Y3557300D01*
D02*
G37*
G36*
X7324801D02*
X7281016D01*
Y3550001D01*
X7285316Y3528385D01*
X7297560Y3510059D01*
X7315885Y3497815D01*
X7324801Y3496042D01*
Y3557300D01*
D02*
G37*
G36*
X7037700Y3270362D02*
Y3187700D01*
X7120362D01*
X7113898Y3211823D01*
X7101339Y3233577D01*
X7083577Y3251339D01*
X7061823Y3263898D01*
X7037700Y3270362D01*
D02*
G37*
G36*
X7659999Y3260980D02*
X7589999D01*
X7570490Y3257099D01*
X7553951Y3246048D01*
X7542900Y3229509D01*
X7539019Y3210000D01*
Y3140000D01*
X7542900Y3120491D01*
X7553951Y3103952D01*
X7570490Y3092901D01*
X7589999Y3089020D01*
X7659999D01*
X7679508Y3092901D01*
X7696047Y3103952D01*
X7707098Y3120491D01*
X7710978Y3140000D01*
Y3210000D01*
X7707098Y3229509D01*
X7696047Y3246048D01*
X7679508Y3257099D01*
X7659999Y3260980D01*
D02*
G37*
G36*
X7647902Y3072899D02*
X7585202D01*
Y3012699D01*
X7647902D01*
Y3072899D01*
D02*
G37*
G36*
X7242500Y3395882D02*
X7224942Y3392390D01*
X7210057Y3382444D01*
X7200111Y3367559D01*
X7196619Y3350001D01*
Y3310001D01*
X7200111Y3292443D01*
X7207638Y3281178D01*
Y3258346D01*
X7192191Y3254207D01*
X7172808Y3243017D01*
X7156983Y3227191D01*
X7145792Y3207809D01*
X7140000Y3186190D01*
Y3163810D01*
X7145792Y3142191D01*
X7156983Y3122809D01*
X7172808Y3106983D01*
X7192191Y3095793D01*
X7196757Y3094569D01*
Y3062499D01*
X7157500D01*
Y2937499D01*
X7287500D01*
Y3062499D01*
X7253242D01*
Y3094569D01*
X7257808Y3095793D01*
X7277191Y3106983D01*
X7293016Y3122809D01*
X7304207Y3142191D01*
X7309999Y3163810D01*
Y3186190D01*
X7304207Y3207809D01*
X7293016Y3227191D01*
X7277191Y3243017D01*
X7264124Y3250561D01*
Y3270328D01*
X7274943Y3277558D01*
X7284889Y3292443D01*
X7288382Y3310001D01*
Y3350001D01*
X7284889Y3367559D01*
X7274943Y3382444D01*
X7260058Y3392390D01*
X7242500Y3395882D01*
D02*
G37*
G36*
X7647902Y2987299D02*
X7585202D01*
Y2927099D01*
X7647902D01*
Y2987299D01*
D02*
G37*
G36*
X7432502Y3395882D02*
X7414944Y3392390D01*
X7400059Y3382444D01*
X7390113Y3367559D01*
X7386621Y3350001D01*
Y3310001D01*
X7390113Y3292443D01*
X7400059Y3277558D01*
X7400505Y3277260D01*
Y3256435D01*
X7392190Y3254207D01*
X7372808Y3243017D01*
X7356982Y3227191D01*
X7345792Y3207809D01*
X7339999Y3186190D01*
Y3163810D01*
X7345792Y3142191D01*
X7356982Y3122809D01*
X7372808Y3106983D01*
X7392190Y3095793D01*
X7396756Y3094569D01*
Y3062499D01*
X7362499D01*
Y2937499D01*
X7491549Y2937499D01*
X7497102Y2927098D01*
X7498051Y2927099D01*
X7498052Y2927099D01*
X7559802D01*
Y2999999D01*
Y3072899D01*
X7498052D01*
X7498051Y3072900D01*
X7497102D01*
X7491549Y3062499D01*
X7484402Y3062499D01*
X7453242D01*
Y3094569D01*
X7457808Y3095793D01*
X7477190Y3106983D01*
X7493016Y3122809D01*
X7504206Y3142191D01*
X7509999Y3163810D01*
Y3186190D01*
X7504206Y3207809D01*
X7493016Y3227191D01*
X7477190Y3243017D01*
X7457808Y3254207D01*
X7456991Y3254426D01*
Y3272243D01*
X7464945Y3277558D01*
X7474891Y3292443D01*
X7478384Y3310001D01*
Y3350001D01*
X7474891Y3367559D01*
X7464945Y3382444D01*
X7450060Y3392390D01*
X7432502Y3395882D01*
D02*
G37*
G36*
X6027298Y2807299D02*
X5979598D01*
Y2764600D01*
X6027298D01*
Y2807299D01*
D02*
G37*
G36*
X6592700Y2859681D02*
Y2712700D01*
X6691353D01*
Y2750000D01*
X6687558Y2778820D01*
X6676434Y2805676D01*
X6658738Y2828738D01*
X6635676Y2846434D01*
X6608820Y2857558D01*
X6592700Y2859681D01*
D02*
G37*
G36*
X4745400Y2719827D02*
Y2685400D01*
X4779827D01*
X4773731Y2700116D01*
X4760116Y2713731D01*
X4745400Y2719827D01*
D02*
G37*
G36*
X4720000D02*
X4705284Y2713731D01*
X4691669Y2700116D01*
X4685573Y2685400D01*
X4720000D01*
Y2719827D01*
D02*
G37*
G36*
X4779827Y2660000D02*
X4745400D01*
Y2625573D01*
X4760116Y2631669D01*
X4773731Y2645284D01*
X4779827Y2660000D01*
D02*
G37*
G36*
X4720000D02*
X4685573D01*
X4691669Y2645284D01*
X4705284Y2631669D01*
X4720000Y2625573D01*
Y2660000D01*
D02*
G37*
G36*
X8222626Y3137502D02*
X8177372D01*
X8132676Y3130422D01*
X8089637Y3116439D01*
X8049316Y3095894D01*
X8012705Y3069295D01*
X7980706Y3037295D01*
X7954107Y3000685D01*
X7933562Y2960364D01*
X7919578Y2917325D01*
X7912499Y2872629D01*
Y2827375D01*
X7919578Y2782679D01*
X7933562Y2739640D01*
X7954107Y2699319D01*
X7980706Y2662708D01*
X8012705Y2630709D01*
X8049316Y2604110D01*
X8089637Y2583565D01*
X8132676Y2569581D01*
X8177372Y2562502D01*
X8222626D01*
X8267322Y2569581D01*
X8310361Y2583565D01*
X8350682Y2604110D01*
X8387292Y2630709D01*
X8419292Y2662708D01*
X8445891Y2699319D01*
X8466435Y2739640D01*
X8480419Y2782679D01*
X8487499Y2827375D01*
Y2872629D01*
X8480419Y2917325D01*
X8466435Y2960364D01*
X8445891Y3000685D01*
X8419292Y3037295D01*
X8387292Y3069295D01*
X8350682Y3095894D01*
X8310361Y3116439D01*
X8267322Y3130422D01*
X8222626Y3137502D01*
D02*
G37*
G36*
X4765001Y5165000D02*
X4635001D01*
Y4835000D01*
X4765001D01*
Y4891758D01*
X4804501D01*
X4808473Y4887785D01*
X4822439Y4882000D01*
X4837556D01*
X4851523Y4887785D01*
X4862213Y4898475D01*
X4867998Y4912442D01*
Y4927559D01*
X4862213Y4941526D01*
X4851523Y4952215D01*
X4837556Y4958000D01*
X4822439D01*
X4808473Y4952215D01*
X4804501Y4948243D01*
X4765001D01*
Y5165000D01*
D02*
G37*
G36*
X5767700Y4807565D02*
Y4773138D01*
X5802127D01*
X5796031Y4787854D01*
X5782416Y4801469D01*
X5767700Y4807565D01*
D02*
G37*
G36*
X5642300D02*
X5627584Y4801469D01*
X5613969Y4787854D01*
X5607873Y4773138D01*
X5642300D01*
Y4807565D01*
D02*
G37*
G36*
X5545398Y4735402D02*
X5437698D01*
Y4647702D01*
X5545398D01*
Y4735402D01*
D02*
G37*
G36*
X5412298D02*
X5304598D01*
Y4647702D01*
X5412298D01*
Y4735402D01*
D02*
G37*
G36*
X5545398Y4622302D02*
X5437698D01*
Y4534602D01*
X5545398D01*
Y4622302D01*
D02*
G37*
G36*
X5412298D02*
X5304598D01*
Y4534602D01*
X5412298D01*
Y4622302D01*
D02*
G37*
G36*
X5692303Y4620240D02*
X5584603D01*
Y4532540D01*
X5692303D01*
Y4620240D01*
D02*
G37*
G36*
X6137409Y4490997D02*
X6122292D01*
X6108325Y4485212D01*
X6097636Y4474522D01*
X6091850Y4460555D01*
Y4445438D01*
X6092765Y4443231D01*
X6078975Y4437520D01*
X6068285Y4426830D01*
X6065600Y4420346D01*
X6052900Y4422872D01*
Y4425399D01*
X5987699D01*
Y4362699D01*
X6052900D01*
Y4387737D01*
X6065600Y4390264D01*
X6068285Y4383780D01*
X6078975Y4373090D01*
X6092942Y4367305D01*
X6108059D01*
X6122025Y4373090D01*
X6132715Y4383780D01*
X6138500Y4397746D01*
Y4412863D01*
X6149873Y4418594D01*
X6157576Y4418973D01*
X6168265Y4408284D01*
X6182232Y4402498D01*
X6197349D01*
X6211315Y4408284D01*
X6222005Y4418973D01*
X6227790Y4432940D01*
Y4448057D01*
X6222005Y4462024D01*
X6211315Y4472713D01*
X6197349Y4478498D01*
X6182232D01*
X6174058Y4475113D01*
X6162065Y4474522D01*
X6151376Y4485212D01*
X6137409Y4490997D01*
D02*
G37*
G36*
X5455399Y4372898D02*
X5392699D01*
Y4307698D01*
X5455399D01*
Y4372898D01*
D02*
G37*
G36*
X5367299D02*
X5304599D01*
Y4307698D01*
X5367299D01*
Y4372898D01*
D02*
G37*
G36*
X6052900Y4337299D02*
X5987699D01*
Y4274599D01*
X6052900D01*
Y4337299D01*
D02*
G37*
G36*
X5455399Y4282298D02*
X5379999D01*
X5304599D01*
Y4218054D01*
X5304599Y4218054D01*
Y4217097D01*
X5314999Y4211545D01*
X5315000Y4204397D01*
Y4077501D01*
X5444999D01*
Y4114413D01*
X5481846D01*
X5483473Y4112786D01*
X5497439Y4107001D01*
X5512556D01*
X5526523Y4112786D01*
X5537213Y4123475D01*
X5542998Y4137442D01*
Y4152559D01*
X5537213Y4166526D01*
X5526523Y4177215D01*
X5512556Y4183001D01*
X5497439D01*
X5483473Y4177215D01*
X5481846Y4175588D01*
X5453980D01*
X5444999Y4184569D01*
X5445000Y4211545D01*
X5455400Y4217097D01*
X5455400Y4218054D01*
X5455399Y4218054D01*
Y4282298D01*
D02*
G37*
G36*
X4462700Y3947127D02*
Y3912700D01*
X4497127D01*
X4491031Y3927416D01*
X4477416Y3941031D01*
X4462700Y3947127D01*
D02*
G37*
G36*
X4437300D02*
X4422584Y3941031D01*
X4408969Y3927416D01*
X4402873Y3912700D01*
X4437300D01*
Y3947127D01*
D02*
G37*
G36*
X4312700D02*
Y3912700D01*
X4347127D01*
X4341031Y3927416D01*
X4327416Y3941031D01*
X4312700Y3947127D01*
D02*
G37*
G36*
X4287300D02*
X4272584Y3941031D01*
X4258969Y3927416D01*
X4252873Y3912700D01*
X4287300D01*
Y3947127D01*
D02*
G37*
G36*
X4633001Y3947127D02*
X4618285Y3941031D01*
X4604669Y3927416D01*
X4598574Y3912700D01*
X4633001D01*
Y3947127D01*
D02*
G37*
G36*
X4497127Y3887300D02*
X4462700D01*
Y3852873D01*
X4477416Y3858969D01*
X4491031Y3872584D01*
X4497127Y3887300D01*
D02*
G37*
G36*
X4437300D02*
X4402873D01*
X4408969Y3872584D01*
X4422584Y3858969D01*
X4437300Y3852873D01*
Y3887300D01*
D02*
G37*
G36*
X4347127D02*
X4312700D01*
Y3852873D01*
X4327416Y3858969D01*
X4341031Y3872584D01*
X4347127Y3887300D01*
D02*
G37*
G36*
X4287300D02*
X4252873D01*
X4258969Y3872584D01*
X4272584Y3858969D01*
X4287300Y3852873D01*
Y3887300D01*
D02*
G37*
G36*
X4402873Y3822527D02*
Y3788100D01*
X4437300D01*
X4431204Y3802816D01*
X4417589Y3816432D01*
X4402873Y3822527D01*
D02*
G37*
G36*
X4437300Y3762700D02*
X4402873D01*
Y3728273D01*
X4417589Y3734369D01*
X4431204Y3747984D01*
X4437300Y3762700D01*
D02*
G37*
G36*
X5415059Y3785500D02*
X5399941D01*
X5385975Y3779715D01*
X5375285Y3769025D01*
X5369500Y3755059D01*
Y3739941D01*
X5375285Y3725975D01*
X5385975Y3715285D01*
X5399941Y3709500D01*
X5415059D01*
X5429025Y3715285D01*
X5439715Y3725975D01*
X5445500Y3739941D01*
Y3755059D01*
X5439715Y3769025D01*
X5429025Y3779715D01*
X5415059Y3785500D01*
D02*
G37*
G36*
X4705215Y3699466D02*
Y3665039D01*
X4739643D01*
X4733547Y3679755D01*
X4719932Y3693371D01*
X4705215Y3699466D01*
D02*
G37*
G36*
X4679815D02*
X4665099Y3693371D01*
X4651484Y3679755D01*
X4645388Y3665039D01*
X4679815D01*
Y3699466D01*
D02*
G37*
G36*
X4387698Y3697127D02*
Y3662700D01*
X4422125D01*
X4416029Y3677417D01*
X4402414Y3691032D01*
X4387698Y3697127D01*
D02*
G37*
G36*
X4562716Y3696966D02*
Y3662539D01*
X4597143D01*
X4591047Y3677256D01*
X4577432Y3690871D01*
X4562716Y3696966D01*
D02*
G37*
G36*
X4537316D02*
X4522599Y3690871D01*
X4508984Y3677256D01*
X4502888Y3662539D01*
X4537316D01*
Y3696966D01*
D02*
G37*
G36*
X4739643Y3639639D02*
X4705215D01*
Y3605212D01*
X4719932Y3611308D01*
X4733547Y3624923D01*
X4739643Y3639639D01*
D02*
G37*
G36*
X4679815D02*
X4645388D01*
X4651484Y3624923D01*
X4665099Y3611308D01*
X4679815Y3605212D01*
Y3639639D01*
D02*
G37*
G36*
X4422125Y3637300D02*
X4387698D01*
Y3602873D01*
X4402414Y3608969D01*
X4416029Y3622584D01*
X4422125Y3637300D01*
D02*
G37*
G36*
X4597143Y3637139D02*
X4562716D01*
Y3602712D01*
X4577432Y3608808D01*
X4591047Y3622423D01*
X4597143Y3637139D01*
D02*
G37*
G36*
X4537316D02*
X4502888D01*
X4508984Y3622423D01*
X4522599Y3608808D01*
X4537316Y3602712D01*
Y3637139D01*
D02*
G37*
G36*
X4562716Y3474466D02*
Y3440039D01*
X4597143D01*
X4591047Y3454755D01*
X4577432Y3468371D01*
X4562716Y3474466D01*
D02*
G37*
G36*
X4537316D02*
X4522599Y3468371D01*
X4508984Y3454755D01*
X4502888Y3440039D01*
X4537316D01*
Y3474466D01*
D02*
G37*
G36*
X4389819Y3474251D02*
Y3439824D01*
X4424246D01*
X4418151Y3454540D01*
X4404536Y3468155D01*
X4389819Y3474251D01*
D02*
G37*
G36*
X4597143Y3414639D02*
X4562716D01*
Y3380212D01*
X4577432Y3386308D01*
X4591047Y3399923D01*
X4597143Y3414639D01*
D02*
G37*
G36*
X4537316D02*
X4502888D01*
X4508984Y3399923D01*
X4522599Y3386308D01*
X4537316Y3380212D01*
Y3414639D01*
D02*
G37*
G36*
X5427900Y3280401D02*
X5310200D01*
Y3222701D01*
X5427900D01*
Y3280401D01*
D02*
G37*
G36*
X5284800D02*
X5167100D01*
Y3222701D01*
X5284800D01*
Y3280401D01*
D02*
G37*
G36*
X5427900Y3197301D02*
X5310200D01*
Y3139601D01*
X5427900D01*
Y3197301D01*
D02*
G37*
G36*
X5284800D02*
X5167100D01*
Y3139601D01*
X5284800D01*
Y3197301D01*
D02*
G37*
G36*
X3427300Y4527539D02*
X3409752Y4520270D01*
X3394730Y4505249D01*
X3387461Y4487700D01*
X3427300D01*
Y4527539D01*
D02*
G37*
G36*
Y4242300D02*
X3387461D01*
X3394730Y4224751D01*
X3409752Y4209729D01*
X3427300Y4202461D01*
Y4242300D01*
D02*
G37*
G36*
X3331117Y4104140D02*
X3316000D01*
X3302034Y4098355D01*
X3291344Y4087666D01*
X3285559Y4073699D01*
Y4058582D01*
X3291344Y4044615D01*
X3302034Y4033926D01*
X3316000Y4028141D01*
X3331117D01*
X3345084Y4033926D01*
X3355774Y4044615D01*
X3361559Y4058582D01*
Y4073699D01*
X3355774Y4087666D01*
X3345084Y4098355D01*
X3331117Y4104140D01*
D02*
G37*
G36*
X3195059Y4095500D02*
X3179942D01*
X3165975Y4089715D01*
X3155285Y4079025D01*
X3149500Y4065058D01*
Y4049941D01*
X3155285Y4035975D01*
X3165975Y4025285D01*
X3179942Y4019500D01*
X3195059D01*
X3209025Y4025285D01*
X3219715Y4035975D01*
X3225500Y4049941D01*
Y4065058D01*
X3219715Y4079025D01*
X3209025Y4089715D01*
X3195059Y4095500D01*
D02*
G37*
G36*
X3130400Y3837300D02*
X2987700D01*
Y3694600D01*
X2990306D01*
X3020329Y3700572D01*
X3048610Y3712286D01*
X3074062Y3729293D01*
X3095707Y3750938D01*
X3112714Y3776390D01*
X3124428Y3804671D01*
X3130400Y3834694D01*
Y3837300D01*
D02*
G37*
G36*
X2962300D02*
X2819600D01*
Y3834694D01*
X2825572Y3804671D01*
X2837287Y3776390D01*
X2854294Y3750938D01*
X2875939Y3729293D01*
X2901391Y3712286D01*
X2929672Y3700572D01*
X2959695Y3694600D01*
X2962300D01*
Y3837300D01*
D02*
G37*
G36*
X3512700Y3047127D02*
Y3012700D01*
X3547127D01*
X3541032Y3027416D01*
X3527416Y3041032D01*
X3512700Y3047127D01*
D02*
G37*
G36*
X3487300D02*
X3472584Y3041032D01*
X3458969Y3027416D01*
X3452873Y3012700D01*
X3487300D01*
Y3047127D01*
D02*
G37*
G36*
X3362700D02*
Y3012700D01*
X3397127D01*
X3391031Y3027416D01*
X3377416Y3041032D01*
X3362700Y3047127D01*
D02*
G37*
G36*
X3337300D02*
X3322584Y3041032D01*
X3308968Y3027416D01*
X3302873Y3012700D01*
X3337300D01*
Y3047127D01*
D02*
G37*
G36*
X3212700D02*
Y3012700D01*
X3247127D01*
X3241031Y3027416D01*
X3227416Y3041032D01*
X3212700Y3047127D01*
D02*
G37*
G36*
X3187300D02*
X3172584Y3041032D01*
X3158969Y3027416D01*
X3152873Y3012700D01*
X3187300D01*
Y3047127D01*
D02*
G37*
G36*
X3062700D02*
Y3012700D01*
X3097127D01*
X3091031Y3027416D01*
X3077416Y3041032D01*
X3062700Y3047127D01*
D02*
G37*
G36*
X3037300D02*
X3022584Y3041032D01*
X3008969Y3027416D01*
X3002873Y3012700D01*
X3037300D01*
Y3047127D01*
D02*
G37*
G36*
X2912700D02*
Y3012700D01*
X2947127D01*
X2941031Y3027416D01*
X2927416Y3041032D01*
X2912700Y3047127D01*
D02*
G37*
G36*
X2887300D02*
X2872584Y3041032D01*
X2858969Y3027416D01*
X2852873Y3012700D01*
X2887300D01*
Y3047127D01*
D02*
G37*
G36*
X3547127Y2987300D02*
X3512700D01*
Y2952873D01*
X3527416Y2958969D01*
X3541032Y2972584D01*
X3547127Y2987300D01*
D02*
G37*
G36*
X3487300D02*
X3452873D01*
X3458969Y2972584D01*
X3472584Y2958969D01*
X3487300Y2952873D01*
Y2987300D01*
D02*
G37*
G36*
X3397127D02*
X3362700D01*
Y2952873D01*
X3377416Y2958969D01*
X3391031Y2972584D01*
X3397127Y2987300D01*
D02*
G37*
G36*
X3337300D02*
X3302873D01*
X3308968Y2972584D01*
X3322584Y2958969D01*
X3337300Y2952873D01*
Y2987300D01*
D02*
G37*
G36*
X3247127D02*
X3212700D01*
Y2952873D01*
X3227416Y2958969D01*
X3241031Y2972584D01*
X3247127Y2987300D01*
D02*
G37*
G36*
X3187300D02*
X3152873D01*
X3158969Y2972584D01*
X3172584Y2958969D01*
X3187300Y2952873D01*
Y2987300D01*
D02*
G37*
G36*
X3097127D02*
X3062700D01*
Y2952873D01*
X3077416Y2958969D01*
X3091031Y2972584D01*
X3097127Y2987300D01*
D02*
G37*
G36*
X3037300D02*
X3002873D01*
X3008969Y2972584D01*
X3022584Y2958969D01*
X3037300Y2952873D01*
Y2987300D01*
D02*
G37*
G36*
X2947127D02*
X2912700D01*
Y2952873D01*
X2927416Y2958969D01*
X2941031Y2972584D01*
X2947127Y2987300D01*
D02*
G37*
G36*
X2887300D02*
X2852873D01*
X2858969Y2972584D01*
X2872584Y2958969D01*
X2887300Y2952873D01*
Y2987300D01*
D02*
G37*
G36*
X3512700Y2897127D02*
Y2862700D01*
X3547127D01*
X3541032Y2877416D01*
X3527416Y2891031D01*
X3512700Y2897127D01*
D02*
G37*
G36*
X3487300D02*
X3472584Y2891031D01*
X3458969Y2877416D01*
X3452873Y2862700D01*
X3487300D01*
Y2897127D01*
D02*
G37*
G36*
X3362700D02*
Y2862700D01*
X3397127D01*
X3391031Y2877416D01*
X3377416Y2891031D01*
X3362700Y2897127D01*
D02*
G37*
G36*
X3337300D02*
X3322584Y2891031D01*
X3308968Y2877416D01*
X3302873Y2862700D01*
X3337300D01*
Y2897127D01*
D02*
G37*
G36*
X3212700D02*
Y2862700D01*
X3247127D01*
X3241031Y2877416D01*
X3227416Y2891031D01*
X3212700Y2897127D01*
D02*
G37*
G36*
X3187300D02*
X3172584Y2891031D01*
X3158969Y2877416D01*
X3152873Y2862700D01*
X3187300D01*
Y2897127D01*
D02*
G37*
G36*
X3062700D02*
Y2862700D01*
X3097127D01*
X3091031Y2877416D01*
X3077416Y2891031D01*
X3062700Y2897127D01*
D02*
G37*
G36*
X3037300D02*
X3022584Y2891031D01*
X3008969Y2877416D01*
X3002873Y2862700D01*
X3037300D01*
Y2897127D01*
D02*
G37*
G36*
X2912700D02*
Y2862700D01*
X2947127D01*
X2941031Y2877416D01*
X2927416Y2891031D01*
X2912700Y2897127D01*
D02*
G37*
G36*
X2887300D02*
X2872584Y2891031D01*
X2858969Y2877416D01*
X2852873Y2862700D01*
X2887300D01*
Y2897127D01*
D02*
G37*
G36*
X3547127Y2837300D02*
X3512700D01*
Y2802873D01*
X3527416Y2808968D01*
X3541032Y2822584D01*
X3547127Y2837300D01*
D02*
G37*
G36*
X3487300D02*
X3452873D01*
X3458969Y2822584D01*
X3472584Y2808968D01*
X3487300Y2802873D01*
Y2837300D01*
D02*
G37*
G36*
X3397127D02*
X3362700D01*
Y2802873D01*
X3377416Y2808968D01*
X3391031Y2822584D01*
X3397127Y2837300D01*
D02*
G37*
G36*
X3337300D02*
X3302873D01*
X3308968Y2822584D01*
X3322584Y2808968D01*
X3337300Y2802873D01*
Y2837300D01*
D02*
G37*
G36*
X3247127D02*
X3212700D01*
Y2802873D01*
X3227416Y2808968D01*
X3241031Y2822584D01*
X3247127Y2837300D01*
D02*
G37*
G36*
X3187300D02*
X3152873D01*
X3158969Y2822584D01*
X3172584Y2808968D01*
X3187300Y2802873D01*
Y2837300D01*
D02*
G37*
G36*
X3097127D02*
X3062700D01*
Y2802873D01*
X3077416Y2808968D01*
X3091031Y2822584D01*
X3097127Y2837300D01*
D02*
G37*
G36*
X3037300D02*
X3002873D01*
X3008969Y2822584D01*
X3022584Y2808968D01*
X3037300Y2802873D01*
Y2837300D01*
D02*
G37*
G36*
X2947127D02*
X2912700D01*
Y2802873D01*
X2927416Y2808968D01*
X2941031Y2822584D01*
X2947127Y2837300D01*
D02*
G37*
G36*
X2887300D02*
X2852873D01*
X2858969Y2822584D01*
X2872584Y2808968D01*
X2887300Y2802873D01*
Y2837300D01*
D02*
G37*
G36*
X3787506Y2945002D02*
X3762492D01*
X3738330Y2938528D01*
X3716668Y2926021D01*
X3698980Y2908333D01*
X3686473Y2886670D01*
X3679999Y2862509D01*
Y2837495D01*
X3686473Y2813333D01*
X3698980Y2791671D01*
X3716668Y2773983D01*
X3738330Y2761476D01*
X3762492Y2755002D01*
X3787506D01*
X3811667Y2761476D01*
X3833330Y2773983D01*
X3851017Y2791671D01*
X3863524Y2813333D01*
X3869999Y2837495D01*
Y2862509D01*
X3863524Y2886670D01*
X3851017Y2908333D01*
X3833330Y2926021D01*
X3811667Y2938528D01*
X3787506Y2945002D01*
D02*
G37*
G36*
X4162700Y3797127D02*
Y3762700D01*
X4197127D01*
X4191031Y3777416D01*
X4177416Y3791032D01*
X4162700Y3797127D01*
D02*
G37*
G36*
X4137300D02*
X4122584Y3791032D01*
X4108969Y3777416D01*
X4102873Y3762700D01*
X4137300D01*
Y3797127D01*
D02*
G37*
G36*
X4197127Y3737300D02*
X4162700D01*
Y3702873D01*
X4177416Y3708969D01*
X4191031Y3722584D01*
X4197127Y3737300D01*
D02*
G37*
G36*
X4137300D02*
X4102873D01*
X4108969Y3722584D01*
X4122584Y3708969D01*
X4137300Y3702873D01*
Y3737300D01*
D02*
G37*
G36*
X4212715Y3696966D02*
Y3662539D01*
X4247143D01*
X4241047Y3677256D01*
X4227432Y3690871D01*
X4212715Y3696966D01*
D02*
G37*
G36*
X4187315D02*
X4172599Y3690871D01*
X4158984Y3677256D01*
X4152888Y3662539D01*
X4187315D01*
Y3696966D01*
D02*
G37*
G36*
X4247143Y3637139D02*
X4212715D01*
Y3602712D01*
X4227432Y3608808D01*
X4241047Y3622423D01*
X4247143Y3637139D01*
D02*
G37*
G36*
X4187315D02*
X4152888D01*
X4158984Y3622423D01*
X4172599Y3608808D01*
X4187315Y3602712D01*
Y3637139D01*
D02*
G37*
G36*
X4212715Y3474466D02*
Y3440039D01*
X4247143D01*
X4241047Y3454755D01*
X4227432Y3468371D01*
X4212715Y3474466D01*
D02*
G37*
G36*
X4187315D02*
X4172599Y3468371D01*
X4158984Y3454755D01*
X4152888Y3440039D01*
X4187315D01*
Y3474466D01*
D02*
G37*
G36*
X4247143Y3414639D02*
X4212715D01*
Y3380212D01*
X4227432Y3386308D01*
X4241047Y3399923D01*
X4247143Y3414639D01*
D02*
G37*
G36*
X4187315D02*
X4152888D01*
X4158984Y3399923D01*
X4172599Y3386308D01*
X4187315Y3380212D01*
Y3414639D01*
D02*
G37*
G36*
X6015898Y3567298D02*
X5905200D01*
Y3494100D01*
X5990000D01*
X5999911Y3496071D01*
X6008313Y3501685D01*
X6013927Y3510087D01*
X6015898Y3519998D01*
Y3567298D01*
D02*
G37*
G36*
X5879800D02*
X5794903D01*
Y3519998D01*
X5796874Y3510087D01*
X5802488Y3501685D01*
X5810890Y3496071D01*
X5820800Y3494100D01*
X5879800D01*
Y3567298D01*
D02*
G37*
G36*
X5765059Y3406453D02*
X5749942D01*
X5735975Y3400668D01*
X5731974Y3396667D01*
X5715527Y3395152D01*
X5701560Y3400938D01*
X5686443D01*
X5672477Y3395152D01*
X5661787Y3384463D01*
X5656002Y3370496D01*
Y3355379D01*
X5661787Y3341412D01*
X5672477Y3330723D01*
X5686443Y3324938D01*
X5701560D01*
X5715527Y3330723D01*
X5719529Y3334724D01*
X5735975Y3336239D01*
X5749942Y3330454D01*
X5765059D01*
X5779026Y3336239D01*
X5789715Y3346928D01*
X5791841Y3352060D01*
X5803574Y3347455D01*
X5803574Y3344486D01*
Y3332338D01*
X5809359Y3318371D01*
X5820049Y3307682D01*
X5829092Y3303936D01*
X5826566Y3291236D01*
X5775000D01*
X5763520Y3286481D01*
X5758764Y3275000D01*
Y3025000D01*
X5763520Y3013519D01*
X5775000Y3008764D01*
X5915000D01*
X5926481Y3013519D01*
X5931236Y3025000D01*
Y3269539D01*
X5935442Y3272349D01*
X5950559D01*
X5964525Y3278134D01*
X5975215Y3288824D01*
X5981000Y3302790D01*
Y3317908D01*
X5975215Y3331874D01*
X5964525Y3342564D01*
X5950559Y3348349D01*
X5935442D01*
X5921475Y3342564D01*
X5910785Y3331874D01*
X5905000Y3317908D01*
Y3302790D01*
X5905412Y3301796D01*
X5898356Y3291236D01*
X5856583D01*
X5854057Y3303936D01*
X5863100Y3307682D01*
X5873789Y3318371D01*
X5879574Y3332338D01*
Y3347455D01*
X5873789Y3361422D01*
X5863100Y3372111D01*
X5849133Y3377896D01*
X5834016D01*
X5820049Y3372111D01*
X5809359Y3361422D01*
X5807233Y3356290D01*
X5795501Y3360895D01*
X5795500Y3363864D01*
Y3376012D01*
X5789715Y3389979D01*
X5779026Y3400668D01*
X5765059Y3406453D01*
D02*
G37*
G36*
X6001275Y3192300D02*
X5975167D01*
X5980079Y3173967D01*
X5990664Y3155633D01*
X6005633Y3140664D01*
X6023967Y3130079D01*
X6042300Y3125167D01*
Y3151366D01*
X6038858Y3152051D01*
X6028828Y3156206D01*
X6019801Y3162237D01*
X6012124Y3169914D01*
X6006092Y3178941D01*
X6001937Y3188972D01*
X6001275Y3192300D01*
D02*
G37*
%LPD*%
D17*
X3699998Y7397501D02*
D03*
Y6802501D02*
D03*
X5550002Y7597501D02*
D03*
Y7002501D02*
D03*
D20*
X5424998Y4635002D02*
D03*
Y4915002D02*
D03*
X5705003Y4912939D02*
D03*
Y4632940D02*
D03*
X7324999Y4784999D02*
D03*
Y5064999D02*
D03*
X8350001Y5359999D02*
D03*
Y5639999D02*
D03*
X7324999Y5564998D02*
D03*
Y5284998D02*
D03*
D21*
X4747499Y3900002D02*
D03*
X4892502D02*
D03*
X6346916Y2880584D02*
D03*
X6201918D02*
D03*
X7879999Y4724999D02*
D03*
X8024998D02*
D03*
X7555001D02*
D03*
X7700000D02*
D03*
X4172499Y4000002D02*
D03*
X4027500D02*
D03*
X4172499Y4200002D02*
D03*
X4027500D02*
D03*
X7222500Y2999999D02*
D03*
X7077502D02*
D03*
X7427498D02*
D03*
X7572502D02*
D03*
D24*
X6798528Y3110281D02*
D03*
Y3260278D02*
D03*
X5379999Y4294998D02*
D03*
Y4145001D02*
D03*
X6560002Y3699998D02*
D03*
Y3850000D02*
D03*
X3674999Y4949998D02*
D03*
Y4800001D02*
D03*
X8325002Y4924999D02*
D03*
Y5075001D02*
D03*
X7975001Y6480002D02*
D03*
Y6330000D02*
D03*
X3699998Y4074998D02*
D03*
Y4225000D02*
D03*
X7975001Y5530002D02*
D03*
Y5679999D02*
D03*
X5175001Y5399999D02*
D03*
Y5550002D02*
D03*
D30*
X5835000Y3780003D02*
D03*
X5985002D02*
D03*
X7724999Y5905002D02*
D03*
X7575001D02*
D03*
X3550001Y4625000D02*
D03*
X3699998D02*
D03*
X5825002Y4349999D02*
D03*
X5974999D02*
D03*
X5835000Y3950000D02*
D03*
X5985002D02*
D03*
D40*
X5982502Y3780003D02*
X5982503D01*
X5923942Y3688942D02*
Y3721442D01*
X5982502Y3780003D01*
X5920000Y3685000D02*
X5923942Y3688942D01*
X8054730Y5580858D02*
X8060304D01*
X8043670Y5569798D02*
X8054730Y5580858D01*
X8012298Y5569798D02*
X8043670D01*
X7536099Y5930001D02*
Y5930498D01*
Y5930001D02*
X7561097Y5905002D01*
X7569299Y5913203D02*
X7576250Y5906251D01*
X7552502Y5930001D02*
X7569299Y5913203D01*
X7540457Y5870458D02*
X7575001Y5905002D01*
X6609999Y4629998D02*
X6662500Y4682499D01*
X6666796D01*
X6665001Y4425000D02*
X6667500Y4427499D01*
Y4682500D01*
X5827502Y4349999D02*
X5954300Y4476797D01*
Y4506429D01*
X5825002Y4349999D02*
X5827502D01*
X5954300Y4506429D02*
X5987872Y4540001D01*
X6290000D01*
X5835000Y3780003D02*
X5847939Y3767064D01*
Y3699998D02*
Y3767064D01*
X3699998Y4072499D02*
Y4074998D01*
X3772499Y4000002D02*
X3774999D01*
X3699998Y4072499D02*
X3772499Y4000002D01*
X4250907Y3819095D02*
X4327870Y3742131D01*
X4162500Y3900000D02*
X4243405Y3819095D01*
X4162500Y3900000D02*
Y3990003D01*
X4172499Y4000002D01*
X4243405Y3819095D02*
X4250907D01*
X4327870Y3411743D02*
Y3742131D01*
X4603308Y3829802D02*
X4819802D01*
X4601654Y3831455D02*
X4603308Y3829802D01*
X4327870Y3411743D02*
X4565701Y3173913D01*
X5724427Y3843872D02*
X5730001D01*
X5647502Y3579998D02*
X5730001Y3662497D01*
Y3843872D01*
X5714199Y3854099D02*
X5724427Y3843872D01*
X5681451Y3880870D02*
Y3996451D01*
X5745803Y3854099D02*
X5748020D01*
X5730001Y3843872D02*
X5735576D01*
X5708222Y3854099D02*
X5714199D01*
X5727151Y3976754D02*
X5773097Y4022700D01*
X5681451Y3996451D02*
X5743103Y4058102D01*
X5735576Y3843872D02*
X5745803Y3854099D01*
X5727151Y3899799D02*
Y3976754D01*
X5681451Y3880870D02*
X5708222Y3854099D01*
X5773097Y4022700D02*
X5909803D01*
X5748020Y3854099D02*
X5775198Y3881277D01*
X6510000Y3612285D02*
X6522700Y3624985D01*
Y3662700D01*
X6510000Y3606711D02*
Y3612285D01*
X6580002Y3609498D02*
X6585498D01*
X6623995Y3571001D01*
X7309098Y5715345D02*
X7464212Y5870458D01*
X7250843Y5715345D02*
X7309098D01*
X7464212Y5870458D02*
X7540457D01*
X7576250Y5906251D02*
X7614798Y5867700D01*
X7975001Y6330000D02*
X7999999Y6305001D01*
Y6279998D02*
Y6305001D01*
Y6279998D02*
Y6305001D01*
X7975001Y6330000D02*
X7999999Y6305001D01*
X7953252Y6233250D02*
X7999999Y6279998D01*
X7565403Y6233250D02*
X7953252D01*
X7200000Y6180000D02*
X7246241Y6226241D01*
X7558395D01*
X7565403Y6233250D01*
X3870879Y5289118D02*
X3870884D01*
X3812134Y5230373D02*
X3870879Y5289118D01*
X3908735Y5141295D02*
X3908740D01*
X3812134Y4860102D02*
Y5230373D01*
Y4860102D02*
X3815568Y4856668D01*
X3739799Y4716270D02*
X3861268Y4837739D01*
Y5093828D01*
X3908735Y5141295D01*
X3739799Y4662302D02*
Y4716270D01*
X3660000Y4255000D02*
Y4365000D01*
X3635000Y4965000D02*
Y5075000D01*
X3415000D02*
Y5185000D01*
X3525000Y5075000D02*
X3635000D01*
X3415000D02*
X3525000D01*
X3415000Y4965000D02*
X3525000D01*
Y5075000D02*
Y5185000D01*
Y4965000D02*
Y5075000D01*
Y5185000D02*
X3635000D01*
X3440000Y4365000D02*
Y4475000D01*
X3550000Y4365000D02*
X3660000D01*
X3440000D02*
X3550000D01*
X3440000Y4255000D02*
X3550000D01*
Y4365000D02*
Y4475000D01*
Y4255000D02*
Y4365000D01*
Y4475000D02*
X3660000D01*
X7825000Y5915000D02*
X7935000D01*
Y5695000D02*
Y5805000D01*
X7715000Y6495000D02*
X7825000D01*
X7715000Y6605000D02*
Y6715000D01*
X7825000D02*
X7935000D01*
Y6495000D02*
Y6605000D01*
X7715000Y5805000D02*
Y5915000D01*
X7825000Y5805000D02*
X7935000D01*
X7715000D02*
X7825000D01*
X7715000Y5695000D02*
X7825000D01*
Y5805000D02*
Y5915000D01*
Y5695000D02*
Y5805000D01*
X7825000Y6605000D02*
Y6715000D01*
Y6495000D02*
Y6605000D01*
X7935000D01*
X7715000D02*
X7825000D01*
X7614798Y5695202D02*
Y5867700D01*
Y5695202D02*
X7740202Y5569798D01*
X7937698D01*
X5755000Y4682937D02*
Y4760438D01*
X5705003Y4632940D02*
X5755000Y4682937D01*
X5655000Y4682942D02*
Y4760438D01*
Y4682942D02*
X5705003Y4632940D01*
X7010182Y3033264D02*
X7044236D01*
X7077502Y2999999D01*
X6871228Y3172216D02*
X7010182Y3033264D01*
X6871228Y3172216D02*
Y3457392D01*
X6757614Y3571001D02*
X6871228Y3457392D01*
X6623995Y3571001D02*
X6757614D01*
X4172499Y4000002D02*
Y4200002D01*
X4565701Y2817195D02*
Y3173913D01*
Y2817195D02*
X4588099Y2794798D01*
X4844801D01*
X4929998Y2879999D01*
X6290000Y4540001D02*
X6474978Y4355018D01*
X6525021D01*
X6609999Y4440001D01*
Y4629998D01*
X6554048Y4314053D02*
X6665001Y4425000D01*
X6170127Y4314053D02*
X6554048D01*
X5743103Y4058102D02*
X5914177D01*
X6170127Y4314053D01*
X5909803Y4022700D02*
X5982503Y3950000D01*
X5985002D01*
X5987501D01*
X5874802Y3887699D02*
X5982503Y3780003D01*
X5837499Y3950000D02*
X5874802Y3912702D01*
X5982503Y3780003D02*
X5985002D01*
X5874802Y3887699D02*
Y3912702D01*
X5835000Y3950000D02*
X5837499D01*
X5359999Y2879999D02*
X5419999Y2819999D01*
X4929998Y2879999D02*
X5359999D01*
X5419999Y2819999D02*
X5615122D01*
X5659999Y2864881D01*
Y3030002D01*
X5570002Y3119999D02*
X5659999Y3030002D01*
X5570002Y3119999D02*
Y3285002D01*
X5775198Y3881277D02*
Y3892697D01*
X5832500Y3950000D01*
X5835000D01*
X6560002Y3847501D02*
X6632702Y3774801D01*
Y3638098D02*
Y3774801D01*
X6608049Y3613445D02*
X6632702Y3638098D01*
X4737298Y4920000D02*
X4829998D01*
X6560002Y3847501D02*
Y3850000D01*
X6522700Y3662700D02*
X6560002Y3699998D01*
X5730001Y4395003D02*
X5737703Y4387301D01*
X5787700D01*
X5825002Y4349999D01*
X5892500Y3579998D02*
X5919602D01*
X6060201Y3720597D02*
Y3877300D01*
X5987501Y3950000D02*
X6060201Y3877300D01*
X5919602Y3579998D02*
X6060201Y3720597D01*
X5259248Y4043147D02*
Y4159245D01*
X5191303Y3975197D02*
X5259248Y4043147D01*
X4700001Y4957298D02*
X4737298Y4920000D01*
X5120701Y4909998D02*
X5157998Y4947300D01*
Y5000000D01*
X4960000Y4909998D02*
X5120701D01*
X4700001Y4957298D02*
Y5000000D01*
X4889998Y3900002D02*
X4892502D01*
X4819802Y3829802D02*
X4889998Y3900002D01*
X4825197Y3975197D02*
X5191303D01*
X4749998Y3900002D02*
X4825197Y3975197D01*
X4747499Y3900002D02*
X4749998D01*
X7707701Y4897298D02*
X7762748Y4842251D01*
Y4839752D02*
X7877500Y4724999D01*
X7629063Y4897298D02*
X7707701D01*
X7762748Y4839752D02*
Y4842251D01*
X7591862Y4934499D02*
X7629063Y4897298D01*
X7579624Y4934499D02*
X7591862D01*
X7675001Y4747499D02*
Y4796998D01*
X7579624Y4934499D02*
X7584247Y4929881D01*
X7675001Y4747499D02*
X7697500Y4724999D01*
X7584247Y4887752D02*
X7675001Y4796998D01*
X7537501Y4934499D02*
X7579624D01*
X7584247Y4887752D02*
Y4929881D01*
X7877500Y4724999D02*
X7879999D01*
X7937698Y5569798D02*
X7975001Y5532501D01*
Y5530002D02*
Y5532501D01*
X4030701Y4459300D02*
X4172499Y4317502D01*
Y4200002D02*
Y4317502D01*
X3908740Y5141295D02*
X4186296D01*
X4300002Y5255001D01*
Y5275001D01*
X3702502Y4625000D02*
X3739799Y4662302D01*
X3699998Y4625000D02*
X3702502D01*
Y6800002D02*
X3960002D01*
X3699998Y6802501D02*
X3702502Y6800002D01*
X7975001Y5532501D02*
X8012298Y5569798D01*
X5550002Y7002501D02*
Y7389998D01*
X7697500Y4724999D02*
X7700000D01*
X8315498Y4934499D02*
X8325002Y4924999D01*
X8112501Y4934499D02*
X8315498D01*
X8114411Y5063414D02*
X8313415D01*
X8325002Y5075001D01*
X8112501Y5061499D02*
X8114411Y5063414D01*
X7225000Y3175000D02*
X7235881Y3185881D01*
Y3323382D02*
X7242500Y3330001D01*
X7235881Y3185881D02*
Y3323382D01*
X7428748Y3326252D02*
X7432502Y3330001D01*
X7428748Y3178749D02*
Y3326252D01*
X7424999Y3175000D02*
X7428748Y3178749D01*
X7225000Y3002498D02*
Y3175000D01*
X7424999Y3002498D02*
X7427498Y2999999D01*
X7424999Y3002498D02*
Y3175000D01*
X7222500Y2999999D02*
X7225000Y3002498D01*
D41*
X3679054Y4521000D02*
X3706000Y4494053D01*
X3703000Y4452946D02*
X3706000Y4455946D01*
X3703000Y4418018D02*
Y4452946D01*
X3629498Y4567544D02*
X3676042Y4521000D01*
X3706000Y4455946D02*
Y4494053D01*
X3676042Y4521000D02*
X3679054D01*
X6097187Y6232813D02*
X6098875Y6231125D01*
X5962498Y6234501D02*
X5964185Y6232813D01*
X6097187D01*
X4509999Y6651099D02*
Y6652199D01*
X4449282Y6712915D02*
X4509999Y6652199D01*
X8175355Y6629645D02*
X8225416Y6579584D01*
X8174645Y6629645D02*
X8175355D01*
X8184416Y6474000D02*
X8186399D01*
X8225416Y6513017D01*
Y6579584D01*
X3442097Y5405740D02*
X3483858Y5447502D01*
X3687072D01*
X3403240Y5405740D02*
X3442097D01*
X3703000Y4418018D02*
X3904059Y4216959D01*
X4008044D01*
X3707499Y3925001D02*
X3974998D01*
X3645000Y3987500D02*
X3707499Y3925001D01*
X7437999Y5645311D02*
X7562808Y5520502D01*
X7843240D01*
X7844862Y5522124D01*
X7371918Y5713535D02*
X7437999Y5647453D01*
Y5645311D02*
Y5647453D01*
X6912498Y5659501D02*
X6912748Y5659750D01*
X7032250D01*
X7032500Y5660000D01*
X7828753Y6297113D02*
X7831444D01*
X7796865Y6329002D02*
X7828753Y6297113D01*
X7640231Y6329002D02*
X7796865D01*
X7590729Y6279500D02*
X7640231Y6329002D01*
X7434499Y6271941D02*
X7583171D01*
X7590729Y6279500D01*
X6490000Y6282509D02*
X6578584Y6193925D01*
X6490000Y6282509D02*
Y6462500D01*
X6491698Y6210217D02*
X6493186D01*
X6430000Y6271915D02*
X6491698Y6210217D01*
X6493186D02*
X6514711Y6188692D01*
X6430000Y6271915D02*
Y6362654D01*
X6514711Y6188692D02*
X6522829D01*
X5665893Y5915398D02*
X5665998Y5915294D01*
X5537500Y5915503D02*
X5537604Y5915398D01*
X5665893D01*
X4778469Y5703425D02*
Y5703534D01*
Y5703425D02*
X4797395Y5684500D01*
X4987498D01*
X4736054Y5819450D02*
X4979548D01*
X4730501Y5825002D02*
X4736054Y5819450D01*
X3550001Y7230001D02*
Y7322998D01*
X3547500Y7227500D02*
X3550001Y7230001D01*
Y7322998D02*
X3624499Y7397501D01*
X3699998D01*
X4089568Y6211570D02*
X4221571D01*
X4223639Y6213638D01*
X3772440Y5938146D02*
Y5984365D01*
X3773221Y5985146D01*
X3742421Y5908126D02*
X3772440Y5938146D01*
X3755543Y5786613D02*
X3762888D01*
X3740155Y5802000D02*
X3755543Y5786613D01*
X3397500Y5400000D02*
X3403240Y5405740D01*
X3588880Y4758104D02*
X3629498Y4717486D01*
Y4567544D02*
Y4717486D01*
X3558764Y4763844D02*
X3564504Y4758104D01*
X3588880D01*
X4025001Y4200002D02*
X4030000Y4194998D01*
X3633038Y5793964D02*
X3641075Y5802000D01*
X3989029Y3961531D02*
X4027500Y4000002D01*
X3989029Y3939027D02*
Y3961531D01*
X3974998Y3925001D02*
X3989029Y3939027D01*
X4030000Y4109999D02*
Y4194998D01*
X6424452Y6410361D02*
Y6444452D01*
X6410000Y6395908D02*
X6424452Y6410361D01*
X6410000Y6382654D02*
Y6395908D01*
Y6382654D02*
X6430000Y6362654D01*
X4087500Y6209502D02*
X4089568Y6211570D01*
X3641075Y5802000D02*
X3740155D01*
X3729167Y5908126D02*
X3742421D01*
X3625002Y5802000D02*
X3633038Y5793964D01*
X3625002Y5929000D02*
X3633419Y5920583D01*
X3716711D01*
X3729167Y5908126D01*
X4008044Y4216959D02*
X4025001Y4200002D01*
X4362501Y6715501D02*
X4365081Y6712915D01*
X4449282D01*
X4979548Y5819450D02*
X4987498Y5811500D01*
X6262502Y6740500D02*
X6379500D01*
X4025001Y4200002D02*
X4027500D01*
D42*
X7417719Y4937501D02*
X7480219Y5000000D01*
X7207499Y4937501D02*
X7417719D01*
X7129998Y4860000D02*
X7207499Y4937501D01*
X5379999Y4145001D02*
X5504998D01*
X7480219Y5000000D02*
X7598781D01*
X7637501Y5038720D01*
Y5133503D01*
X6557498Y4860000D02*
X7129998D01*
X6522502Y4824999D02*
X6557498Y4860000D01*
X7582499Y5188499D02*
X7637501Y5133503D01*
X7537501Y5188499D02*
X7582499D01*
D44*
X6127834Y3353511D02*
X6142584D01*
X6147892Y3358820D01*
X6126323Y3352000D02*
X6127834Y3353511D01*
X6134999Y3078185D02*
X6201918Y3011267D01*
Y2880584D02*
Y3011267D01*
X6289604Y3326003D02*
X6311978Y3348377D01*
X6333374D01*
X6387845Y3402848D01*
X6287737Y3326003D02*
X6289604D01*
X6387845Y3402848D02*
Y3422847D01*
X6394999Y3430001D01*
X6205002Y3670000D02*
Y3775857D01*
X6196360Y3784493D02*
X6205002Y3775857D01*
X6196360Y3784493D02*
Y3786363D01*
X6147892Y3358820D02*
X6205002Y3415924D01*
Y3430001D01*
X6394999Y3670000D02*
Y3773134D01*
X6400002Y3778133D01*
Y3780003D01*
X6134999Y3078185D02*
Y3084998D01*
X6044748Y2959999D02*
X6055700Y2970952D01*
Y3005699D01*
X6134999Y3084998D01*
X6039998Y2959999D02*
X6044748D01*
X5297500Y2979999D02*
X5504998D01*
X5570002Y2915001D01*
D45*
X7800000Y6950000D02*
X8140003D01*
X8150001Y6940001D01*
X8020000Y4720001D02*
X8024998Y4724999D01*
X8020000Y4655002D02*
Y4720001D01*
X7585166Y6185550D02*
X8115549D01*
X8299999Y6370000D01*
X7189998Y5790387D02*
X7585166Y6185550D01*
X6374999Y3205002D02*
X6479997Y3310001D01*
X6486361D01*
X6703836Y3202977D02*
Y3289803D01*
X6773528Y3137781D02*
X6773528D01*
X6798528Y3110281D02*
Y3112781D01*
X6703836Y3202977D02*
X6734033Y3172780D01*
X6673639Y3320000D02*
X6703836Y3289803D01*
X6738529Y3172780D02*
X6773528Y3137781D01*
X6486361Y3310001D02*
X6496360Y3320000D01*
X6773528Y3137781D02*
X6798528Y3112781D01*
X6496360Y3320000D02*
X6673639D01*
X5570002Y3519998D02*
X5610001Y3559998D01*
X5570002Y3285002D02*
Y3519998D01*
X6734033Y3172780D02*
X6738529D01*
X6300003Y3650000D02*
X6460002Y3490001D01*
X6300003Y3650000D02*
Y3670000D01*
X6460002Y3303849D02*
Y3490001D01*
X6439759Y2826431D02*
Y3124007D01*
X6374999Y3188762D02*
X6439759Y3124007D01*
X6374999Y3188762D02*
Y3205002D01*
X6411412Y2798084D02*
X6439759Y2826431D01*
X6137417Y2798084D02*
X6411412D01*
X6110000Y2825501D02*
X6137417Y2798084D01*
X6110000Y2825501D02*
Y2864495D01*
X6089498Y2884998D02*
X6110000Y2864495D01*
X6086495Y2888000D02*
X6089498Y2884998D01*
X5792841Y2888000D02*
X6086495D01*
X5654838Y2750002D02*
X5792841Y2888000D01*
X5297500Y2750002D02*
X5654838D01*
X8150001Y6940001D02*
X8299999Y6789999D01*
Y6370000D02*
Y6789999D01*
X7263074Y5330002D02*
X7271537Y5321539D01*
X7263074Y5330002D02*
Y5400355D01*
X7213432Y5450002D02*
X7263074Y5400355D01*
X7189998Y5473431D02*
Y5790387D01*
Y5473431D02*
X7213432Y5450002D01*
X5175001Y5158999D02*
Y5399999D01*
D46*
X7879999Y5210002D02*
X7918501Y5248499D01*
X8218500D01*
X8330001Y5359999D01*
X8350001D01*
D48*
X4702500Y2979999D02*
X5297500D01*
D49*
X6580000Y2700000D02*
D03*
X5850000D02*
D03*
D50*
X6055000Y3205000D02*
D03*
X6215000D02*
D03*
X6135000Y3085000D02*
D03*
X6295000D02*
D03*
X6375000Y3205000D02*
D03*
D51*
X7650002Y7899999D02*
D03*
X7850002D02*
D03*
X8050002D02*
D03*
X8250001D02*
D03*
X3050002D02*
D03*
X3250001D02*
D03*
X3450001D02*
D03*
X3650000D02*
D03*
X7225000Y3175000D02*
D03*
X7424999D02*
D03*
X7025000D02*
D03*
D52*
X7449998Y7899999D02*
D03*
X2850002D02*
D03*
X7624999Y3175000D02*
D03*
D53*
X4225000Y2850002D02*
D03*
Y4800000D02*
D03*
D54*
X3474999Y3850000D02*
D03*
X6250000Y7200001D02*
D03*
X4349999D02*
D03*
D55*
X3774999Y2850002D02*
D03*
X2675001D02*
D03*
X5950001Y8199999D02*
D03*
X7049999D02*
D03*
X4050000D02*
D03*
X5150002D02*
D03*
D56*
X2975000Y3850000D02*
D03*
X6749999Y7200001D02*
D03*
X4849998D02*
D03*
D57*
X5920000Y3685000D02*
D03*
X4732700Y2672700D02*
D03*
X5330000Y8220000D02*
D03*
X2610000Y6660000D02*
D03*
X3500000Y3000000D02*
D03*
X3350000D02*
D03*
X3200000D02*
D03*
X3050000D02*
D03*
X2900000D02*
D03*
X3500000Y2850000D02*
D03*
X3350000D02*
D03*
X3200000D02*
D03*
X3050000D02*
D03*
X2900000D02*
D03*
X6098875Y6231125D02*
D03*
X7800000Y6950000D02*
D03*
X7850000D02*
D03*
X7200001Y7500000D02*
D03*
X8150941Y4225000D02*
D03*
X6490000Y4449999D02*
D03*
X6287737Y3326003D02*
D03*
X6126323Y3352000D02*
D03*
X6347257Y2879695D02*
D03*
X4960000Y4909998D02*
D03*
X4829998Y4920000D02*
D03*
X4509999Y6651099D02*
D03*
X3960002Y6800002D02*
D03*
X3404217Y7186477D02*
D03*
X3599998Y6969999D02*
D03*
X3379998Y7020001D02*
D03*
X3170001Y6716025D02*
D03*
X3137786Y6582025D02*
D03*
X3150000Y6850000D02*
D03*
X8060304Y5580858D02*
D03*
X8161655Y5815254D02*
D03*
X8145912Y5761512D02*
D03*
X8139238Y5889238D02*
D03*
X8149958Y6680088D02*
D03*
X8174645Y6629645D02*
D03*
X8152304Y6577700D02*
D03*
X8184416Y6530000D02*
D03*
Y6474000D02*
D03*
X6721511Y7705103D02*
D03*
X6200000Y7600000D02*
D03*
X5200000Y7000000D02*
D03*
Y5700000D02*
D03*
X5350000Y5400000D02*
D03*
X4300000Y3900000D02*
D03*
X4450000D02*
D03*
X4390173Y3775400D02*
D03*
X4150000Y3750000D02*
D03*
X5815706Y4444999D02*
D03*
X5730001Y4395003D02*
D03*
X7110000Y4660000D02*
D03*
X6666796Y4682499D02*
D03*
X5655000Y4760438D02*
D03*
X5755000D02*
D03*
X5771998Y4486997D02*
D03*
X6015000Y4482500D02*
D03*
X6317500Y4402500D02*
D03*
X6266251Y4363750D02*
D03*
X6189790Y4440498D02*
D03*
X6129850Y4452997D02*
D03*
X6100500Y4405305D02*
D03*
X5847939Y3699998D02*
D03*
X5499999Y3599998D02*
D03*
X5407500Y3747500D02*
D03*
X3687072Y5447502D02*
D03*
X3825001Y5644998D02*
D03*
X4018620Y5688620D02*
D03*
X4142501Y5499999D02*
D03*
X4147147Y5275354D02*
D03*
X4030701Y4459300D02*
D03*
X3880002Y4410998D02*
D03*
Y4354998D02*
D03*
Y4298998D02*
D03*
X3183489Y4337699D02*
D03*
X3162786Y4255869D02*
D03*
X3187500Y4057500D02*
D03*
X3167607Y4155590D02*
D03*
X3531814Y4058666D02*
D03*
X3474999Y4024499D02*
D03*
X3323559Y4066140D02*
D03*
X3645000Y3987500D02*
D03*
X3774999Y4000002D02*
D03*
X4030000Y4109999D02*
D03*
X4162500Y3900000D02*
D03*
X4645701Y3900000D02*
D03*
X4601654Y3831455D02*
D03*
X4692515Y3652339D02*
D03*
X4550016Y3649839D02*
D03*
X4200015D02*
D03*
Y3427339D02*
D03*
X4550016D02*
D03*
X4377119Y3427124D02*
D03*
X4374998Y3650000D02*
D03*
X5259248Y4159245D02*
D03*
X5504998Y4145001D02*
D03*
X5810001Y4135623D02*
D03*
X5860000Y4103802D02*
D03*
X5730001Y3843872D02*
D03*
X5727151Y3899799D02*
D03*
X6649647Y4049647D02*
D03*
X6580002Y4050000D02*
D03*
Y3970000D02*
D03*
X6678402Y3654999D02*
D03*
X6510000Y3606711D02*
D03*
X6414511Y3915491D02*
D03*
X6420002Y3840002D02*
D03*
X5972161Y4051457D02*
D03*
X6400002Y3780003D02*
D03*
X6196360Y3786363D02*
D03*
X6110000Y3700000D02*
D03*
X6099998Y3618000D02*
D03*
X6530000Y3389504D02*
D03*
X6236803Y3355616D02*
D03*
X5694002Y3362938D02*
D03*
X5757500Y3368454D02*
D03*
X5841574Y3339897D02*
D03*
X5943000Y3310349D02*
D03*
X6580002Y3609498D02*
D03*
X6738891Y3525095D02*
D03*
X6881881Y3631880D02*
D03*
X6949999Y3783001D02*
D03*
X7395429Y4065325D02*
D03*
X7180001Y3917001D02*
D03*
X7120208D02*
D03*
X7182561Y4062002D02*
D03*
X7090877Y4070115D02*
D03*
X6910000Y4096115D02*
D03*
X6905732Y3962116D02*
D03*
X6881298Y4145827D02*
D03*
X6939512Y4280488D02*
D03*
X7080001Y4381001D02*
D03*
X8150000Y4370000D02*
D03*
X8020000Y4655002D02*
D03*
X7860000Y4850000D02*
D03*
X7919999Y4849998D02*
D03*
X7979999D02*
D03*
Y4909998D02*
D03*
X7920000Y4910000D02*
D03*
X7860000Y4975000D02*
D03*
X7920000Y4970000D02*
D03*
X7860000Y4909998D02*
D03*
X7980000Y4970000D02*
D03*
X7753566Y5433001D02*
D03*
X7791182Y5479502D02*
D03*
X7844862Y5522124D02*
D03*
X7250843Y5715345D02*
D03*
X7371918Y5713535D02*
D03*
X7032500Y5660000D02*
D03*
X7200000Y6180000D02*
D03*
X7372498Y5885502D02*
D03*
X7476206Y5665087D02*
D03*
X7502328Y5746055D02*
D03*
X7494498Y5811322D02*
D03*
X7536099Y5930498D02*
D03*
X7480502Y5916158D02*
D03*
X7903052Y6185550D02*
D03*
X7999999Y6279998D02*
D03*
X7892000Y6288002D02*
D03*
X7831444Y6297113D02*
D03*
X7767504Y6288002D02*
D03*
X7700502Y6279998D02*
D03*
X7434499Y6271941D02*
D03*
X7446014Y6541270D02*
D03*
X7488715Y6577500D02*
D03*
X7501000Y6477500D02*
D03*
X7504844Y6683136D02*
D03*
X7381893Y6545362D02*
D03*
X6379500Y6740500D02*
D03*
X6424452Y6444452D02*
D03*
X6714520Y6454521D02*
D03*
X6490000Y6462500D02*
D03*
X6578584Y6193925D02*
D03*
X6522829Y6188692D02*
D03*
X5665998Y5915294D02*
D03*
X5649499Y5340502D02*
D03*
X4778469Y5703534D02*
D03*
X4730501Y5825002D02*
D03*
X4851946Y6933055D02*
D03*
X5324943Y7700499D02*
D03*
X2823748Y7553752D02*
D03*
X2610002Y6829999D02*
D03*
X2638999Y6960058D02*
D03*
Y7082500D02*
D03*
X2618196Y7210999D02*
D03*
X3547500Y7227500D02*
D03*
X3764047Y6318535D02*
D03*
X3920000Y6625000D02*
D03*
X4223639Y6213638D02*
D03*
X3968323Y6038322D02*
D03*
X3984097Y6280196D02*
D03*
X3782998Y6050001D02*
D03*
X3773221Y5985146D02*
D03*
X3762888Y5786613D02*
D03*
X3370355Y5709647D02*
D03*
X3397500Y5400000D02*
D03*
X3870884Y5289118D02*
D03*
X3819078Y5310382D02*
D03*
X3900604Y5190106D02*
D03*
X3815568Y4856668D02*
D03*
X3700115Y4766875D02*
D03*
X3682480Y4684881D02*
D03*
X3525002Y4708000D02*
D03*
X3581002D02*
D03*
X3478985Y4671883D02*
D03*
X3501040Y4760441D02*
D03*
X3558764Y4763844D02*
D03*
X3153020Y4805520D02*
D03*
Y4911132D02*
D03*
X3158092Y4980241D02*
D03*
X3151178Y5035812D02*
D03*
X3136024Y5089723D02*
D03*
X3110000Y5145000D02*
D03*
X7879999Y5210002D02*
D03*
X4929998Y2879999D02*
D03*
X5550002Y7389998D02*
D03*
D58*
X3415000Y5185000D02*
D03*
X3525000D02*
D03*
X3635000D02*
D03*
X3415000Y5075000D02*
D03*
X3525000D02*
D03*
X3635000D02*
D03*
X3415000Y4965000D02*
D03*
X3525000D02*
D03*
X3635000D02*
D03*
X3660000Y4255000D02*
D03*
X3550000D02*
D03*
X3440000D02*
D03*
X3660000Y4365000D02*
D03*
X3550000D02*
D03*
X3440000D02*
D03*
X3660000Y4475000D02*
D03*
X3550000D02*
D03*
X3440000D02*
D03*
X7715000Y6715000D02*
D03*
X7825000D02*
D03*
X7935000D02*
D03*
X7715000Y6605000D02*
D03*
X7825000D02*
D03*
X7935000D02*
D03*
X7715000Y6495000D02*
D03*
X7825000D02*
D03*
X7935000D02*
D03*
X7935000Y5695000D02*
D03*
X7825000D02*
D03*
X7715000D02*
D03*
X7935000Y5805000D02*
D03*
X7825000D02*
D03*
X7715000D02*
D03*
X7935000Y5915000D02*
D03*
X7825000D02*
D03*
X7715000D02*
D03*
D59*
X2850002Y4949998D02*
D03*
X8199999Y2850002D02*
D03*
X7975001Y7275002D02*
D03*
D63*
X4702500Y2979999D02*
D03*
D64*
X5297500Y2750002D02*
D03*
Y2979999D02*
D03*
Y3210001D02*
D03*
D65*
X6039998Y2959999D02*
D03*
Y2819999D02*
D03*
D66*
X5570002Y3285002D02*
D03*
Y2915001D02*
D03*
D67*
X6300003Y3430001D02*
D03*
X6205002D02*
D03*
X6394999D02*
D03*
X6300003Y3670000D02*
D03*
X6205002D02*
D03*
X6394999D02*
D03*
X7432502Y3330001D02*
D03*
X7242500D02*
D03*
X7337501Y3570000D02*
D03*
D68*
X5927501Y4824999D02*
D03*
X6522502D02*
D03*
D69*
X8112501Y5315499D02*
D03*
Y5188499D02*
D03*
Y5061499D02*
D03*
Y4934499D02*
D03*
X7537501Y5315499D02*
D03*
Y5188499D02*
D03*
Y5061499D02*
D03*
Y4934499D02*
D03*
X3625002Y5548000D02*
D03*
Y5675000D02*
D03*
Y5802000D02*
D03*
Y5929000D02*
D03*
X4200002Y5548000D02*
D03*
Y5675000D02*
D03*
Y5802000D02*
D03*
Y5929000D02*
D03*
X6262502Y6359500D02*
D03*
Y6486500D02*
D03*
Y6613500D02*
D03*
Y6740500D02*
D03*
X6837502Y6359500D02*
D03*
Y6486500D02*
D03*
Y6613500D02*
D03*
Y6740500D02*
D03*
X4087500Y6590502D02*
D03*
Y6463502D02*
D03*
Y6336502D02*
D03*
Y6209502D02*
D03*
X3512500Y6590502D02*
D03*
Y6463502D02*
D03*
Y6336502D02*
D03*
Y6209502D02*
D03*
X5537500Y5534503D02*
D03*
Y5661503D02*
D03*
Y5788503D02*
D03*
Y5915503D02*
D03*
X6112500Y5534503D02*
D03*
Y5661503D02*
D03*
Y5788503D02*
D03*
Y5915503D02*
D03*
X5962498Y6615501D02*
D03*
Y6488501D02*
D03*
Y6361501D02*
D03*
Y6234501D02*
D03*
X5387497Y6615501D02*
D03*
Y6488501D02*
D03*
Y6361501D02*
D03*
Y6234501D02*
D03*
X4987498Y6065500D02*
D03*
Y5938500D02*
D03*
Y5811500D02*
D03*
Y5684500D02*
D03*
X4412498Y6065500D02*
D03*
Y5938500D02*
D03*
Y5811500D02*
D03*
Y5684500D02*
D03*
X4362501Y6334501D02*
D03*
Y6461501D02*
D03*
Y6588501D02*
D03*
Y6715501D02*
D03*
X4937501Y6334501D02*
D03*
Y6461501D02*
D03*
Y6588501D02*
D03*
Y6715501D02*
D03*
X6912498Y6040501D02*
D03*
Y5913501D02*
D03*
Y5786501D02*
D03*
Y5659501D02*
D03*
X6337498Y6040501D02*
D03*
Y5913501D02*
D03*
Y5786501D02*
D03*
Y5659501D02*
D03*
D70*
X4929002Y4365000D02*
D03*
D71*
X5157998Y5000000D02*
D03*
X4700001D02*
D03*
D72*
X4300002Y5275001D02*
D03*
X4020002D02*
D03*
D73*
X5647502Y3579998D02*
D03*
D74*
X5892500D02*
D03*
D75*
X4152001Y5499999D02*
X4200002Y5548000D01*
X4142501Y5499999D02*
X4152001D01*
X3322899Y4700605D02*
Y5175169D01*
X4954001Y5154000D02*
X5175001D01*
X4200002Y5548000D02*
X4402003D01*
X4325000Y5974999D02*
X4412498Y5887502D01*
Y5811500D02*
Y5938500D01*
X5904001Y5154000D02*
X6199998Y5450002D01*
Y5761502D02*
Y5888502D01*
Y5450002D02*
Y5634502D01*
Y5761502D01*
X6337498Y5759501D02*
Y5886501D01*
X6199998Y5888502D02*
Y5999998D01*
X4412498Y5887502D02*
Y5938500D01*
X6337498Y5759501D02*
Y5886501D01*
X6199998Y5761502D02*
Y5888502D01*
Y5634502D02*
Y5761502D01*
Y5888502D02*
Y5999998D01*
Y5450002D02*
Y5634502D01*
X4412498Y5811500D02*
Y5938500D01*
X4325000Y5974999D02*
X4412498Y5887502D01*
X4200002Y5548000D02*
X4402003D01*
X5904001Y5154000D02*
X6199998Y5450002D01*
X4954001Y5154000D02*
X5175001D01*
X6337498Y5659501D02*
Y5759501D01*
X5175001Y5154000D02*
X5904001D01*
X6337498Y5587502D02*
Y5659501D01*
X2975000Y7449998D02*
X3175000Y7650002D01*
X3350001D01*
X2975000Y5523073D02*
Y7449998D01*
Y5523073D02*
X3322899Y5175169D01*
X4954001Y5154000D02*
Y5245999D01*
X4800001Y5399999D02*
X4954001Y5245999D01*
X4708002Y5399999D02*
X4800001D01*
X4449999Y7650002D02*
X4600001Y7500000D01*
X3350001Y7650002D02*
X4449999D01*
X6300003Y5951002D02*
X6337498Y5913501D01*
X6300003Y6003000D02*
X6337498Y6040501D01*
X6300003Y5951002D02*
Y6003000D01*
X2976916Y4354622D02*
X3322899Y4700605D01*
X6199998Y5450002D02*
X6337498Y5587502D01*
X4954001Y5154000D02*
X5108001Y5000000D01*
X4200002Y5548000D02*
Y5675000D01*
X4412498Y5684500D02*
Y5811500D01*
Y5558500D02*
Y5684500D01*
X4402003Y5548000D02*
X4412498Y5558500D01*
X4200002Y5802000D02*
Y5929000D01*
Y5675000D02*
Y5802000D01*
X4402003Y5548000D02*
X4549999Y5399999D01*
X4708002D01*
X5108001Y5000000D02*
X5157998D01*
X2976916Y3851915D02*
Y4354622D01*
X2975000Y3850000D02*
X2976916Y3851915D01*
X4050000Y2924998D02*
Y3275000D01*
Y2924998D02*
X4225000Y2750002D01*
X3474999Y3850000D02*
X4050000Y3275000D01*
D76*
X7860000Y4850000D02*
Y4974999D01*
Y4850000D02*
X7860000Y4850000D01*
X7860000Y4974999D02*
X7860000Y4975000D01*
Y5041520D01*
X7922126Y5103646D01*
X7982648D02*
X8067501Y5188499D01*
X7922126Y5103646D02*
X7982648D01*
X8067501Y5188499D02*
X8112501D01*
X5424998Y4900000D02*
X5705003D01*
X5178593D02*
X5424998D01*
X5705003D02*
X5875000D01*
X5157998Y4920000D02*
Y4947300D01*
X5927501Y4824999D02*
Y4847499D01*
X7308078Y5284998D02*
X7324999D01*
X7271537Y5321539D02*
X7308078Y5284998D01*
X5875000Y4900000D02*
X5927501Y4847499D01*
X7284999Y5244998D02*
X7324999Y5284998D01*
X6405001Y5244998D02*
X7284999D01*
X6199998Y5450002D02*
X6405001Y5244998D01*
X7324999Y5064999D02*
Y5284998D01*
X7489002Y5064999D02*
X7492502Y5061499D01*
X7324999Y5064999D02*
X7489002D01*
X7492502Y5061499D02*
X7537501D01*
Y5188499D02*
Y5315499D01*
X8112501D01*
D77*
X4149999Y6400002D02*
Y6685001D01*
X6067501Y6417498D02*
Y6488501D01*
Y6600002D02*
X6117499Y6550000D01*
X5350002Y6234501D02*
Y6361501D01*
X5342499Y5853369D02*
X5475000Y5720867D01*
Y5595727D02*
Y5720867D01*
X5350002Y6361501D02*
Y6488501D01*
Y6615501D02*
Y6852498D01*
Y6488501D02*
Y6615501D01*
X3542502Y5618124D02*
Y5754370D01*
X3399998Y5896869D02*
Y6642501D01*
X3532500Y6774998D01*
X7000001Y5850001D02*
Y6299998D01*
X6900001Y6400002D02*
Y7033763D01*
X5050003Y5899998D02*
Y6997294D01*
Y5899998D02*
Y6997294D01*
X6900001Y6400002D02*
Y7033763D01*
X7000001Y5850001D02*
Y6299998D01*
X3399998Y6642501D02*
X3532500Y6774998D01*
X3399998Y5896869D02*
Y6642501D01*
X3542502Y5618124D02*
Y5754370D01*
X5350002Y6615501D02*
Y6852498D01*
Y6488501D02*
Y6615501D01*
X5475000Y5595727D02*
Y5720867D01*
X5342499Y5853369D02*
X5475000Y5720867D01*
X5350002Y6361501D02*
Y6488501D01*
Y6234501D02*
Y6361501D01*
X6067501Y6600002D02*
Y6802633D01*
X6117499Y6550000D02*
X6179998D01*
X4249999Y6400002D02*
Y6570868D01*
X6050498Y6400500D02*
X6067501Y6417498D01*
X3532500Y6774998D02*
Y6780662D01*
X4749998Y7650002D02*
X5049998D01*
X4600001Y7500000D02*
X4749998Y7650002D01*
X5049998D02*
X5250002Y7850002D01*
X4162699Y7387300D02*
X4349999Y7200001D01*
X3900002Y7387300D02*
X4162699D01*
X5342499Y5977631D02*
X5350002Y5985134D01*
Y6197001D01*
X5342499Y5853369D02*
Y5977631D01*
X5499999Y7002501D02*
X5550002D01*
X5350002Y6852498D02*
X5499999Y7002501D01*
X4849998Y7197293D02*
Y7200001D01*
Y7197293D02*
X5050003Y6997294D01*
X6900001Y6400002D02*
X7000001Y6299998D01*
X6749999Y7183765D02*
Y7200001D01*
Y7183765D02*
X6900001Y7033763D01*
X6050001Y6400002D02*
X6150000D01*
X6067501Y6802633D02*
X6195370Y6930502D01*
X6199998Y7850002D02*
X6500002Y7549998D01*
X5250002Y7850002D02*
X6199998D01*
X5947501Y7597501D02*
X6220003Y7324999D01*
Y7229998D02*
X6250000Y7200001D01*
X5550002Y7597501D02*
X5947501D01*
X6220003Y7229998D02*
Y7324999D01*
X3399998Y5896869D02*
X3542502Y5754370D01*
X4149999Y6700002D02*
Y6832844D01*
Y6700002D02*
X4167500Y6682501D01*
Y6653367D02*
Y6682501D01*
Y6653367D02*
X4249999Y6570868D01*
D78*
X4274998Y5300000D02*
X4300002Y5275001D01*
X4274998Y5300000D02*
Y5477998D01*
D79*
X4491629Y6949999D02*
X4600001Y7058370D01*
Y7500000D01*
X4267159Y6949999D02*
X4491629D01*
X6372128Y6930502D02*
X6500002Y7058370D01*
X6195370Y6930502D02*
X6372128D01*
X6500002Y7058370D02*
Y7549998D01*
X4149999Y6832844D02*
X4267159Y6949999D01*
%TF.MD5,11bdf41f2cb18effd1afcd143fbd3efd*%
M02*
