%TF.GenerationSoftware,Altium Limited,Altium Designer,24.7.2 (38)*%
G04 Layer_Color=128*
%FSLAX45Y45*%
%MOMM*%
%TF.SameCoordinates,4E20714E-E0DB-4EF4-9D00-32C5CA98EF25*%
%TF.FilePolarity,Positive*%
%TF.FileFunction,Drillmap*%
%TF.Part,Single*%
G01*
G75*
%TA.AperFunction,NonConductor*%
%ADD85C,0.12700*%
D85*
X6535000Y2700000D02*
X6625000D01*
X6580000Y2655000D02*
Y2745000D01*
X5805000Y2700000D02*
X5895000D01*
X5850000Y2655000D02*
Y2745000D01*
X6020000Y3205000D02*
X6090000D01*
X6055000Y3170000D02*
Y3240000D01*
X6180000Y3205000D02*
X6250000D01*
X6215000Y3170000D02*
Y3240000D01*
X6100000Y3085000D02*
X6170000D01*
X6135000Y3050000D02*
Y3120000D01*
X6260000Y3085000D02*
X6330000D01*
X6295000Y3050000D02*
Y3120000D01*
X6340000Y3205000D02*
X6410000D01*
X6375000Y3170000D02*
Y3240000D01*
X7615003Y7899999D02*
X7685002D01*
X7650002Y7865000D02*
Y7934999D01*
X7815002Y7899999D02*
X7885002D01*
X7850002Y7865000D02*
Y7934999D01*
X8015002Y7899999D02*
X8085002D01*
X8050002Y7865000D02*
Y7934999D01*
X8215001Y7899999D02*
X8285001D01*
X8250001Y7865000D02*
Y7934999D01*
X7414998Y7899999D02*
X7484998D01*
X7449998Y7865000D02*
Y7934999D01*
X3015002Y7899999D02*
X3085001D01*
X3050002Y7865000D02*
Y7934999D01*
X3215001Y7899999D02*
X3285001D01*
X3250001Y7865000D02*
Y7934999D01*
X3415001Y7899999D02*
X3485001D01*
X3450001Y7865000D02*
Y7934999D01*
X3615000Y7899999D02*
X3685000D01*
X3650000Y7865000D02*
Y7934999D01*
X2815002Y7899999D02*
X2885002D01*
X2850002Y7865000D02*
Y7934999D01*
X7190000Y3175000D02*
X7259999D01*
X7225000Y3140000D02*
Y3210000D01*
X7389999Y3175000D02*
X7459999D01*
X7424999Y3140000D02*
Y3210000D01*
X7589999Y3175000D02*
X7659999D01*
X7624999Y3140000D02*
Y3210000D01*
X6990000Y3175000D02*
X7060000D01*
X7025000Y3140000D02*
Y3210000D01*
X4150001Y2750002D02*
X4300000D01*
X4225000Y2675002D02*
Y2825002D01*
X4150001Y4900000D02*
X4300000D01*
X4225000Y4825001D02*
Y4975000D01*
X3390000Y3850000D02*
X3559999D01*
X3474999Y3765000D02*
Y3935000D01*
X3724999Y2850002D02*
X3824999D01*
X3774999Y2800002D02*
Y2900002D01*
X2625001Y2850002D02*
X2725001D01*
X2675001Y2800002D02*
Y2900002D01*
X2890001Y3850000D02*
X3060000D01*
X2975000Y3765000D02*
Y3935000D01*
X6165000Y7200001D02*
X6335000D01*
X6250000Y7115001D02*
Y7285001D01*
X6664999Y7200001D02*
X6834999D01*
X6749999Y7115001D02*
Y7285001D01*
X5900001Y8199999D02*
X6000001D01*
X5950001Y8149999D02*
Y8249999D01*
X6999999Y8199999D02*
X7099998D01*
X7049999Y8149999D02*
Y8249999D01*
X4264999Y7200001D02*
X4434999D01*
X4349999Y7115001D02*
Y7285001D01*
X4764998Y7200001D02*
X4934998D01*
X4849998Y7115001D02*
Y7285001D01*
X4000000Y8199999D02*
X4099999D01*
X4050000Y8149999D02*
Y8249999D01*
X5100003Y8199999D02*
X5200002D01*
X5150002Y8149999D02*
Y8249999D01*
X5910000Y3685000D02*
X5930000D01*
X5920000Y3675000D02*
Y3695000D01*
X4722700Y2672700D02*
X4742700D01*
X4732700Y2662700D02*
Y2682700D01*
X3400000Y5185000D02*
X3430000D01*
X3415000Y5170000D02*
Y5200000D01*
X3510000Y5185000D02*
X3540000D01*
X3525000Y5170000D02*
Y5200000D01*
X3620000Y5185000D02*
X3650000D01*
X3635000Y5170000D02*
Y5200000D01*
X3400000Y5075000D02*
X3430000D01*
X3415000Y5060000D02*
Y5090000D01*
X3510000Y5075000D02*
X3540000D01*
X3525000Y5060000D02*
Y5090000D01*
X3620000Y5075000D02*
X3650000D01*
X3635000Y5060000D02*
Y5090000D01*
X3400000Y4965000D02*
X3430000D01*
X3415000Y4950000D02*
Y4980000D01*
X3510000Y4965000D02*
X3540000D01*
X3525000Y4950000D02*
Y4980000D01*
X3620000Y4965000D02*
X3650000D01*
X3635000Y4950000D02*
Y4980000D01*
X3645000Y4255000D02*
X3675000D01*
X3660000Y4240000D02*
Y4270000D01*
X3535000Y4255000D02*
X3565000D01*
X3550000Y4240000D02*
Y4270000D01*
X3425000Y4255000D02*
X3455000D01*
X3440000Y4240000D02*
Y4270000D01*
X3645000Y4365000D02*
X3675000D01*
X3660000Y4350000D02*
Y4380000D01*
X3535000Y4365000D02*
X3565000D01*
X3550000Y4350000D02*
Y4380000D01*
X3425000Y4365000D02*
X3455000D01*
X3440000Y4350000D02*
Y4380000D01*
X3645000Y4475000D02*
X3675000D01*
X3660000Y4460000D02*
Y4490000D01*
X3535000Y4475000D02*
X3565000D01*
X3550000Y4460000D02*
Y4490000D01*
X3425000Y4475000D02*
X3455000D01*
X3440000Y4460000D02*
Y4490000D01*
X7700000Y6715000D02*
X7730000D01*
X7715000Y6700000D02*
Y6730000D01*
X7810000Y6715000D02*
X7840000D01*
X7825000Y6700000D02*
Y6730000D01*
X7920000Y6715000D02*
X7950000D01*
X7935000Y6700000D02*
Y6730000D01*
X7700000Y6605000D02*
X7730000D01*
X7715000Y6590000D02*
Y6620000D01*
X7810000Y6605000D02*
X7840000D01*
X7825000Y6590000D02*
Y6620000D01*
X7920000Y6605000D02*
X7950000D01*
X7935000Y6590000D02*
Y6620000D01*
X7700000Y6495000D02*
X7730000D01*
X7715000Y6480000D02*
Y6510000D01*
X7810000Y6495000D02*
X7840000D01*
X7825000Y6480000D02*
Y6510000D01*
X7920000Y6495000D02*
X7950000D01*
X7935000Y6480000D02*
Y6510000D01*
X7920000Y5695000D02*
X7950000D01*
X7935000Y5680000D02*
Y5710000D01*
X7810000Y5695000D02*
X7840000D01*
X7825000Y5680000D02*
Y5710000D01*
X7700000Y5695000D02*
X7730000D01*
X7715000Y5680000D02*
Y5710000D01*
X7920000Y5805000D02*
X7950000D01*
X7935000Y5790000D02*
Y5820000D01*
X7810000Y5805000D02*
X7840000D01*
X7825000Y5790000D02*
Y5820000D01*
X7700000Y5805000D02*
X7730000D01*
X7715000Y5790000D02*
Y5820000D01*
X7920000Y5915000D02*
X7950000D01*
X7935000Y5900000D02*
Y5930000D01*
X7810000Y5915000D02*
X7840000D01*
X7825000Y5900000D02*
Y5930000D01*
X7700000Y5915000D02*
X7730000D01*
X7715000Y5900000D02*
Y5930000D01*
X5320000Y8220000D02*
X5340000D01*
X5330000Y8210000D02*
Y8230000D01*
X2600000Y6660000D02*
X2620000D01*
X2610000Y6650000D02*
Y6670000D01*
X3490000Y3000000D02*
X3510000D01*
X3500000Y2990000D02*
Y3010000D01*
X3340000Y3000000D02*
X3360000D01*
X3350000Y2990000D02*
Y3010000D01*
X3190000Y3000000D02*
X3210000D01*
X3200000Y2990000D02*
Y3010000D01*
X3040000Y3000000D02*
X3060000D01*
X3050000Y2990000D02*
Y3010000D01*
X2890000Y3000000D02*
X2910000D01*
X2900000Y2990000D02*
Y3010000D01*
X3490000Y2850000D02*
X3510000D01*
X3500000Y2840000D02*
Y2860000D01*
X3340000Y2850000D02*
X3360000D01*
X3350000Y2840000D02*
Y2860000D01*
X3190000Y2850000D02*
X3210000D01*
X3200000Y2840000D02*
Y2860000D01*
X3040000Y2850000D02*
X3060000D01*
X3050000Y2840000D02*
Y2860000D01*
X2890000Y2850000D02*
X2910000D01*
X2900000Y2840000D02*
Y2860000D01*
X6088875Y6231125D02*
X6108875D01*
X6098875Y6221125D02*
Y6241125D01*
X7790000Y6950000D02*
X7810000D01*
X7800000Y6940000D02*
Y6960000D01*
X7840000Y6950000D02*
X7860000D01*
X7850000Y6940000D02*
Y6960000D01*
X7190001Y7500000D02*
X7210001D01*
X7200001Y7490000D02*
Y7510000D01*
X8140941Y4225000D02*
X8160941D01*
X8150941Y4215000D02*
Y4235000D01*
X6480000Y4449999D02*
X6500000D01*
X6490000Y4439999D02*
Y4459999D01*
X6277737Y3326003D02*
X6297737D01*
X6287737Y3316003D02*
Y3336003D01*
X6116323Y3352000D02*
X6136322D01*
X6126323Y3342000D02*
Y3362000D01*
X6337257Y2879695D02*
X6357257D01*
X6347257Y2869695D02*
Y2889695D01*
X4950000Y4909998D02*
X4970000D01*
X4960000Y4899998D02*
Y4919998D01*
X4819998Y4920000D02*
X4839998D01*
X4829998Y4910000D02*
Y4930000D01*
X4499999Y6651099D02*
X4519999D01*
X4509999Y6641099D02*
Y6661099D01*
X3950002Y6800002D02*
X3970002D01*
X3960002Y6790002D02*
Y6810002D01*
X3394217Y7186477D02*
X3414217D01*
X3404217Y7176477D02*
Y7196477D01*
X3589998Y6969999D02*
X3609998D01*
X3599998Y6959999D02*
Y6979999D01*
X3369998Y7020001D02*
X3389998D01*
X3379998Y7010001D02*
Y7030001D01*
X3160001Y6716025D02*
X3180001D01*
X3170001Y6706025D02*
Y6726025D01*
X3127786Y6582025D02*
X3147786D01*
X3137786Y6572025D02*
Y6592025D01*
X3140000Y6850000D02*
X3160000D01*
X3150000Y6840000D02*
Y6860000D01*
X8050304Y5580858D02*
X8070304D01*
X8060304Y5570858D02*
Y5590857D01*
X8151655Y5815254D02*
X8171655D01*
X8161655Y5805254D02*
Y5825254D01*
X8135912Y5761512D02*
X8155912D01*
X8145912Y5751512D02*
Y5771512D01*
X8129238Y5889238D02*
X8149238D01*
X8139238Y5879238D02*
Y5899238D01*
X8139958Y6680088D02*
X8159958D01*
X8149958Y6670088D02*
Y6690088D01*
X8164645Y6629645D02*
X8184645D01*
X8174645Y6619645D02*
Y6639645D01*
X8142304Y6577700D02*
X8162304D01*
X8152304Y6567700D02*
Y6587700D01*
X8174416Y6530000D02*
X8194416D01*
X8184416Y6520000D02*
Y6540000D01*
X8174416Y6474000D02*
X8194416D01*
X8184416Y6464000D02*
Y6484000D01*
X6711511Y7705103D02*
X6731511D01*
X6721511Y7695103D02*
Y7715103D01*
X6190000Y7600000D02*
X6210000D01*
X6200000Y7590000D02*
Y7610000D01*
X5190000Y7000000D02*
X5210000D01*
X5200000Y6990000D02*
Y7010000D01*
X5190000Y5700000D02*
X5210000D01*
X5200000Y5690000D02*
Y5710000D01*
X5340000Y5400000D02*
X5360000D01*
X5350000Y5390000D02*
Y5410000D01*
X4290000Y3900000D02*
X4310000D01*
X4300000Y3890000D02*
Y3910000D01*
X4440000Y3900000D02*
X4460000D01*
X4450000Y3890000D02*
Y3910000D01*
X4380173Y3775400D02*
X4400173D01*
X4390173Y3765400D02*
Y3785400D01*
X4140000Y3750000D02*
X4160000D01*
X4150000Y3740000D02*
Y3760000D01*
X5805706Y4444999D02*
X5825706D01*
X5815706Y4435000D02*
Y4454999D01*
X5720001Y4395003D02*
X5740001D01*
X5730001Y4385003D02*
Y4405003D01*
X7100000Y4660000D02*
X7120000D01*
X7110000Y4650000D02*
Y4670000D01*
X6656796Y4682499D02*
X6676796D01*
X6666796Y4672499D02*
Y4692499D01*
X5645000Y4760438D02*
X5665000D01*
X5655000Y4750438D02*
Y4770437D01*
X5745000Y4760438D02*
X5765000D01*
X5755000Y4750438D02*
Y4770437D01*
X5761998Y4486997D02*
X5781998D01*
X5771998Y4476997D02*
Y4496997D01*
X6005000Y4482500D02*
X6025000D01*
X6015000Y4472500D02*
Y4492500D01*
X6307500Y4402500D02*
X6327500D01*
X6317500Y4392500D02*
Y4412500D01*
X6256251Y4363750D02*
X6276251D01*
X6266251Y4353750D02*
Y4373750D01*
X6179790Y4440498D02*
X6199790D01*
X6189790Y4430498D02*
Y4450498D01*
X6119850Y4452997D02*
X6139850D01*
X6129850Y4442997D02*
Y4462997D01*
X6090500Y4405305D02*
X6110500D01*
X6100500Y4395305D02*
Y4415305D01*
X5837939Y3699998D02*
X5857938D01*
X5847939Y3689998D02*
Y3709998D01*
X5489999Y3599998D02*
X5509999D01*
X5499999Y3589998D02*
Y3609998D01*
X5397500Y3747500D02*
X5417500D01*
X5407500Y3737500D02*
Y3757500D01*
X3677072Y5447502D02*
X3697072D01*
X3687072Y5437502D02*
Y5457502D01*
X3815001Y5644998D02*
X3835001D01*
X3825001Y5634998D02*
Y5654998D01*
X4008620Y5688620D02*
X4028620D01*
X4018620Y5678620D02*
Y5698620D01*
X4132501Y5499999D02*
X4152501D01*
X4142501Y5489999D02*
Y5509999D01*
X4137147Y5275354D02*
X4157147D01*
X4147147Y5265354D02*
Y5285354D01*
X4020701Y4459300D02*
X4040701D01*
X4030701Y4449300D02*
Y4469300D01*
X3870002Y4410998D02*
X3890002D01*
X3880002Y4400998D02*
Y4420998D01*
X3870002Y4354998D02*
X3890002D01*
X3880002Y4344998D02*
Y4364998D01*
X3870002Y4298998D02*
X3890002D01*
X3880002Y4288998D02*
Y4308998D01*
X3173489Y4337699D02*
X3193489D01*
X3183489Y4327699D02*
Y4347699D01*
X3152786Y4255869D02*
X3172786D01*
X3162786Y4245869D02*
Y4265869D01*
X3177500Y4057500D02*
X3197500D01*
X3187500Y4047500D02*
Y4067500D01*
X3157607Y4155590D02*
X3177607D01*
X3167607Y4145590D02*
Y4165590D01*
X3521814Y4058666D02*
X3541814D01*
X3531814Y4048666D02*
Y4068666D01*
X3464999Y4024499D02*
X3484999D01*
X3474999Y4014499D02*
Y4034499D01*
X3313559Y4066140D02*
X3333559D01*
X3323559Y4056140D02*
Y4076140D01*
X3635000Y3987500D02*
X3655000D01*
X3645000Y3977500D02*
Y3997500D01*
X3764999Y4000002D02*
X3784999D01*
X3774999Y3990002D02*
Y4010002D01*
X4020000Y4109999D02*
X4040000D01*
X4030000Y4099999D02*
Y4119999D01*
X4152500Y3900000D02*
X4172500D01*
X4162500Y3890000D02*
Y3910000D01*
X4635701Y3900000D02*
X4655701D01*
X4645701Y3890000D02*
Y3910000D01*
X4591655Y3831455D02*
X4611654D01*
X4601654Y3821455D02*
Y3841455D01*
X4682515Y3652339D02*
X4702515D01*
X4692515Y3642339D02*
Y3662339D01*
X4540016Y3649839D02*
X4560016D01*
X4550016Y3639839D02*
Y3659839D01*
X4190015Y3649839D02*
X4210015D01*
X4200015Y3639839D02*
Y3659839D01*
X4190015Y3427339D02*
X4210015D01*
X4200015Y3417339D02*
Y3437339D01*
X4540016Y3427339D02*
X4560016D01*
X4550016Y3417339D02*
Y3437339D01*
X4367119Y3427124D02*
X4387119D01*
X4377119Y3417124D02*
Y3437124D01*
X4364998Y3650000D02*
X4384998D01*
X4374998Y3640000D02*
Y3660000D01*
X5249248Y4159245D02*
X5269248D01*
X5259248Y4149245D02*
Y4169245D01*
X5494998Y4145001D02*
X5514998D01*
X5504998Y4135001D02*
Y4155001D01*
X5800001Y4135623D02*
X5820001D01*
X5810001Y4125623D02*
Y4145623D01*
X5850000Y4103802D02*
X5870000D01*
X5860000Y4093802D02*
Y4113802D01*
X5720001Y3843872D02*
X5740001D01*
X5730001Y3833872D02*
Y3853872D01*
X5717151Y3899799D02*
X5737151D01*
X5727151Y3889799D02*
Y3909799D01*
X6639647Y4049647D02*
X6659647D01*
X6649647Y4039647D02*
Y4059647D01*
X6570002Y4050000D02*
X6590002D01*
X6580002Y4040000D02*
Y4059999D01*
X6570002Y3970000D02*
X6590002D01*
X6580002Y3960000D02*
Y3980000D01*
X6668402Y3654999D02*
X6688402D01*
X6678402Y3644999D02*
Y3664999D01*
X6500000Y3606711D02*
X6520000D01*
X6510000Y3596711D02*
Y3616711D01*
X6404511Y3915491D02*
X6424511D01*
X6414511Y3905491D02*
Y3925491D01*
X6410002Y3840002D02*
X6430002D01*
X6420002Y3830002D02*
Y3850002D01*
X5962161Y4051457D02*
X5982161D01*
X5972161Y4041457D02*
Y4061457D01*
X6390002Y3780003D02*
X6410002D01*
X6400002Y3770003D02*
Y3790003D01*
X6186360Y3786363D02*
X6206360D01*
X6196360Y3776363D02*
Y3796363D01*
X6100000Y3700000D02*
X6120000D01*
X6110000Y3690000D02*
Y3710000D01*
X6089998Y3618000D02*
X6109998D01*
X6099998Y3608000D02*
Y3628000D01*
X6520000Y3389504D02*
X6540000D01*
X6530000Y3379504D02*
Y3399503D01*
X6226803Y3355616D02*
X6246803D01*
X6236803Y3345616D02*
Y3365616D01*
X5684002Y3362938D02*
X5704002D01*
X5694002Y3352938D02*
Y3372938D01*
X5747500Y3368454D02*
X5767500D01*
X5757500Y3358454D02*
Y3378453D01*
X5831574Y3339897D02*
X5851574D01*
X5841574Y3329897D02*
Y3349897D01*
X5933000Y3310349D02*
X5953000D01*
X5943000Y3300349D02*
Y3320349D01*
X6570002Y3609498D02*
X6590002D01*
X6580002Y3599498D02*
Y3619498D01*
X6728891Y3525095D02*
X6748891D01*
X6738891Y3515095D02*
Y3535095D01*
X6871881Y3631880D02*
X6891881D01*
X6881881Y3621880D02*
Y3641880D01*
X6939999Y3783001D02*
X6959999D01*
X6949999Y3773001D02*
Y3793001D01*
X7385429Y4065325D02*
X7405429D01*
X7395429Y4055325D02*
Y4075325D01*
X7170001Y3917001D02*
X7190001D01*
X7180001Y3907001D02*
Y3927001D01*
X7110208Y3917001D02*
X7130208D01*
X7120208Y3907001D02*
Y3927001D01*
X7172561Y4062002D02*
X7192561D01*
X7182561Y4052002D02*
Y4072002D01*
X7080877Y4070115D02*
X7100877D01*
X7090877Y4060115D02*
Y4080115D01*
X6900000Y4096115D02*
X6920000D01*
X6910000Y4086115D02*
Y4106115D01*
X6895732Y3962116D02*
X6915732D01*
X6905732Y3952116D02*
Y3972115D01*
X6871298Y4145827D02*
X6891298D01*
X6881298Y4135827D02*
Y4155827D01*
X6929512Y4280488D02*
X6949512D01*
X6939512Y4270488D02*
Y4290488D01*
X7070001Y4381001D02*
X7090001D01*
X7080001Y4371001D02*
Y4391001D01*
X8140000Y4370000D02*
X8160000D01*
X8150000Y4360000D02*
Y4380000D01*
X8010000Y4655002D02*
X8030000D01*
X8020000Y4645002D02*
Y4665002D01*
X7850000Y4850000D02*
X7870000D01*
X7860000Y4840000D02*
Y4860000D01*
X7909999Y4849998D02*
X7929999D01*
X7919999Y4839998D02*
Y4859998D01*
X7969999Y4849998D02*
X7989999D01*
X7979999Y4839998D02*
Y4859998D01*
X7969999Y4909998D02*
X7989999D01*
X7979999Y4899998D02*
Y4919998D01*
X7910000Y4910000D02*
X7930000D01*
X7920000Y4900000D02*
Y4920000D01*
X7850000Y4975000D02*
X7870000D01*
X7860000Y4965000D02*
Y4985000D01*
X7910000Y4970000D02*
X7930000D01*
X7920000Y4960000D02*
Y4980000D01*
X7850000Y4909998D02*
X7870000D01*
X7860000Y4899998D02*
Y4919998D01*
X7970000Y4970000D02*
X7990000D01*
X7980000Y4960000D02*
Y4980000D01*
X7743566Y5433001D02*
X7763566D01*
X7753566Y5423001D02*
Y5443001D01*
X7781182Y5479502D02*
X7801182D01*
X7791182Y5469502D02*
Y5489502D01*
X7834862Y5522124D02*
X7854862D01*
X7844862Y5512124D02*
Y5532124D01*
X7240843Y5715345D02*
X7260843D01*
X7250843Y5705345D02*
Y5725345D01*
X7361918Y5713535D02*
X7381918D01*
X7371918Y5703535D02*
Y5723535D01*
X7022500Y5660000D02*
X7042500D01*
X7032500Y5650000D02*
Y5670000D01*
X7190000Y6180000D02*
X7210000D01*
X7200000Y6170000D02*
Y6190000D01*
X7362498Y5885502D02*
X7382498D01*
X7372498Y5875502D02*
Y5895502D01*
X7466206Y5665087D02*
X7486206D01*
X7476206Y5655087D02*
Y5675087D01*
X7492328Y5746055D02*
X7512328D01*
X7502328Y5736055D02*
Y5756055D01*
X7484498Y5811322D02*
X7504498D01*
X7494498Y5801322D02*
Y5821322D01*
X7526099Y5930498D02*
X7546099D01*
X7536099Y5920498D02*
Y5940498D01*
X7470502Y5916158D02*
X7490502D01*
X7480502Y5906158D02*
Y5926158D01*
X7893052Y6185550D02*
X7913051D01*
X7903052Y6175550D02*
Y6195550D01*
X7989999Y6279998D02*
X8009999D01*
X7999999Y6269998D02*
Y6289998D01*
X7882000Y6288002D02*
X7902000D01*
X7892000Y6278002D02*
Y6298002D01*
X7821444Y6297113D02*
X7841444D01*
X7831444Y6287113D02*
Y6307113D01*
X7757504Y6288002D02*
X7777504D01*
X7767504Y6278002D02*
Y6298002D01*
X7690502Y6279998D02*
X7710502D01*
X7700502Y6269998D02*
Y6289998D01*
X7424500Y6271941D02*
X7444499D01*
X7434499Y6261941D02*
Y6281941D01*
X7436014Y6541270D02*
X7456014D01*
X7446014Y6531270D02*
Y6551270D01*
X7478715Y6577500D02*
X7498715D01*
X7488715Y6567500D02*
Y6587500D01*
X7491000Y6477500D02*
X7511000D01*
X7501000Y6467500D02*
Y6487500D01*
X7494844Y6683136D02*
X7514844D01*
X7504844Y6673136D02*
Y6693136D01*
X7371893Y6545362D02*
X7391893D01*
X7381893Y6535362D02*
Y6555362D01*
X6369500Y6740500D02*
X6389500D01*
X6379500Y6730500D02*
Y6750500D01*
X6414453Y6444452D02*
X6434452D01*
X6424452Y6434452D02*
Y6454452D01*
X6704520Y6454521D02*
X6724520D01*
X6714520Y6444521D02*
Y6464521D01*
X6480000Y6462500D02*
X6500000D01*
X6490000Y6452500D02*
Y6472500D01*
X6568584Y6193925D02*
X6588584D01*
X6578584Y6183925D02*
Y6203925D01*
X6512829Y6188692D02*
X6532829D01*
X6522829Y6178692D02*
Y6198692D01*
X5655998Y5915294D02*
X5675998D01*
X5665998Y5905294D02*
Y5925294D01*
X5639499Y5340502D02*
X5659499D01*
X5649499Y5330502D02*
Y5350502D01*
X4768469Y5703534D02*
X4788469D01*
X4778469Y5693534D02*
Y5713534D01*
X4720501Y5825002D02*
X4740501D01*
X4730501Y5815002D02*
Y5835002D01*
X4841946Y6933055D02*
X4861946D01*
X4851946Y6923055D02*
Y6943055D01*
X5314943Y7700499D02*
X5334943D01*
X5324943Y7690499D02*
Y7710499D01*
X2813748Y7553752D02*
X2833748D01*
X2823748Y7543752D02*
Y7563752D01*
X2600002Y6829999D02*
X2620002D01*
X2610002Y6819999D02*
Y6839999D01*
X2628999Y6960058D02*
X2648999D01*
X2638999Y6950058D02*
Y6970058D01*
X2628999Y7082500D02*
X2648999D01*
X2638999Y7072500D02*
Y7092500D01*
X2608196Y7210999D02*
X2628196D01*
X2618196Y7200999D02*
Y7220999D01*
X3537500Y7227500D02*
X3557500D01*
X3547500Y7217500D02*
Y7237500D01*
X3754047Y6318535D02*
X3774047D01*
X3764047Y6308536D02*
Y6328535D01*
X3910000Y6625000D02*
X3930000D01*
X3920000Y6615000D02*
Y6635000D01*
X4213639Y6213638D02*
X4233639D01*
X4223639Y6203638D02*
Y6223638D01*
X3958323Y6038322D02*
X3978323D01*
X3968323Y6028322D02*
Y6048322D01*
X3974097Y6280196D02*
X3994097D01*
X3984097Y6270196D02*
Y6290196D01*
X3772998Y6050001D02*
X3792998D01*
X3782998Y6040001D02*
Y6060001D01*
X3763221Y5985146D02*
X3783221D01*
X3773221Y5975146D02*
Y5995145D01*
X3752888Y5786613D02*
X3772888D01*
X3762888Y5776613D02*
Y5796612D01*
X3360355Y5709647D02*
X3380355D01*
X3370355Y5699647D02*
Y5719647D01*
X3387500Y5400000D02*
X3407500D01*
X3397500Y5390000D02*
Y5410000D01*
X3860884Y5289118D02*
X3880884D01*
X3870884Y5279118D02*
Y5299118D01*
X3809078Y5310382D02*
X3829078D01*
X3819078Y5300382D02*
Y5320382D01*
X3890604Y5190106D02*
X3910604D01*
X3900604Y5180106D02*
Y5200106D01*
X3805568Y4856668D02*
X3825568D01*
X3815568Y4846668D02*
Y4866668D01*
X3690115Y4766875D02*
X3710115D01*
X3700115Y4756875D02*
Y4776875D01*
X3672480Y4684881D02*
X3692480D01*
X3682480Y4674881D02*
Y4694881D01*
X3515002Y4708000D02*
X3535002D01*
X3525002Y4698000D02*
Y4718000D01*
X3571002Y4708000D02*
X3591002D01*
X3581002Y4698000D02*
Y4718000D01*
X3468985Y4671883D02*
X3488985D01*
X3478985Y4661883D02*
Y4681883D01*
X3491040Y4760441D02*
X3511040D01*
X3501040Y4750441D02*
Y4770441D01*
X3548764Y4763844D02*
X3568764D01*
X3558764Y4753844D02*
Y4773844D01*
X3143020Y4805520D02*
X3163020D01*
X3153020Y4795520D02*
Y4815520D01*
X3143020Y4911132D02*
X3163020D01*
X3153020Y4901132D02*
Y4921132D01*
X3148092Y4980241D02*
X3168092D01*
X3158092Y4970241D02*
Y4990241D01*
X3141178Y5035812D02*
X3161178D01*
X3151178Y5025812D02*
Y5045812D01*
X3126024Y5089723D02*
X3146024D01*
X3136024Y5079723D02*
Y5099723D01*
X3100000Y5145000D02*
X3120000D01*
X3110000Y5135000D02*
Y5155000D01*
X7870000Y5210002D02*
X7889999D01*
X7879999Y5200002D02*
Y5220002D01*
X4919998Y2879999D02*
X4939998D01*
X4929998Y2869999D02*
Y2889999D01*
X5540002Y7389998D02*
X5560002D01*
X5550002Y7379998D02*
Y7399998D01*
X2720002Y4949998D02*
X2980002D01*
X2850002Y4819998D02*
Y5079998D01*
X8069999Y2850002D02*
X8329999D01*
X8199999Y2720002D02*
Y2980002D01*
X7845001Y7275002D02*
X8105001D01*
X7975001Y7145002D02*
Y7405002D01*
%TF.MD5,e3f3909a2350486bc16d43cad7679540*%
M02*
