%TF.GenerationSoftware,Altium Limited,Altium Designer,24.7.2 (38)*%
G04 Layer_Color=8388736*
%FSLAX45Y45*%
%MOMM*%
%TF.SameCoordinates,0E07C861-06C4-4886-B41C-83883A41DA48*%
%TF.FilePolarity,Negative*%
%TF.FileFunction,Soldermask,Top*%
%TF.Part,Single*%
G01*
G75*
%TA.AperFunction,SMDPad,CuDef*%
%ADD20R,0.16000X0.16000*%
%TA.AperFunction,ViaPad*%
%ADD49C,0.45000*%
%TA.AperFunction,SMDPad,CuDef*%
%ADD74R,2.10000X6.10000*%
%ADD75O,1.05000X0.35000*%
%ADD76O,0.35000X1.05000*%
%ADD77R,3.55000X3.55000*%
%ADD78O,1.55000X0.70000*%
%ADD79O,0.45000X1.50000*%
%ADD80O,1.50000X0.45000*%
G04:AMPARAMS|DCode=81|XSize=1.1mm|YSize=1.9mm|CornerRadius=0.3mm|HoleSize=0mm|Usage=FLASHONLY|Rotation=270.000|XOffset=0mm|YOffset=0mm|HoleType=Round|Shape=RoundedRectangle|*
%AMROUNDEDRECTD81*
21,1,1.10000,1.30000,0,0,270.0*
21,1,0.50000,1.90000,0,0,270.0*
1,1,0.60000,-0.65000,-0.25000*
1,1,0.60000,-0.65000,0.25000*
1,1,0.60000,0.65000,0.25000*
1,1,0.60000,0.65000,-0.25000*
%
%ADD81ROUNDEDRECTD81*%
%ADD82R,1.50000X2.10000*%
%ADD83R,1.15000X1.10000*%
%ADD84R,1.10000X1.05000*%
%ADD85R,1.10000X1.15000*%
%ADD86O,1.10000X0.70000*%
%ADD87O,0.45000X0.95000*%
%ADD88R,1.05000X1.10000*%
%TA.AperFunction,ConnectorPad*%
G04:AMPARAMS|DCode=89|XSize=1.1mm|YSize=1.3mm|CornerRadius=0.2mm|HoleSize=0mm|Usage=FLASHONLY|Rotation=0.000|XOffset=0mm|YOffset=0mm|HoleType=Round|Shape=RoundedRectangle|*
%AMROUNDEDRECTD89*
21,1,1.10000,0.90000,0,0,0.0*
21,1,0.70000,1.30000,0,0,0.0*
1,1,0.40000,0.35000,-0.45000*
1,1,0.40000,-0.35000,-0.45000*
1,1,0.40000,-0.35000,0.45000*
1,1,0.40000,0.35000,0.45000*
%
%ADD89ROUNDEDRECTD89*%
%TA.AperFunction,SMDPad,CuDef*%
G04:AMPARAMS|DCode=90|XSize=1.1mm|YSize=1.3mm|CornerRadius=0.2mm|HoleSize=0mm|Usage=FLASHONLY|Rotation=0.000|XOffset=0mm|YOffset=0mm|HoleType=Round|Shape=RoundedRectangle|*
%AMROUNDEDRECTD90*
21,1,1.10000,0.90000,0,0,0.0*
21,1,0.70000,1.30000,0,0,0.0*
1,1,0.40000,0.35000,-0.45000*
1,1,0.40000,-0.35000,-0.45000*
1,1,0.40000,-0.35000,0.45000*
1,1,0.40000,0.35000,0.45000*
%
%ADD90ROUNDEDRECTD90*%
%ADD91O,0.70000X1.60000*%
%ADD92R,3.45000X1.75000*%
G04:AMPARAMS|DCode=93|XSize=5.1mm|YSize=2.25mm|CornerRadius=0.5875mm|HoleSize=0mm|Usage=FLASHONLY|Rotation=0.000|XOffset=0mm|YOffset=0mm|HoleType=Round|Shape=RoundedRectangle|*
%AMROUNDEDRECTD93*
21,1,5.10000,1.07500,0,0,0.0*
21,1,3.92500,2.25000,0,0,0.0*
1,1,1.17500,1.96250,-0.53750*
1,1,1.17500,-1.96250,-0.53750*
1,1,1.17500,-1.96250,0.53750*
1,1,1.17500,1.96250,0.53750*
%
%ADD93ROUNDEDRECTD93*%
%ADD94R,2.00000X1.40000*%
%ADD95O,3.10000X0.80000*%
%TA.AperFunction,ComponentPad*%
%ADD96C,1.50000*%
G04:AMPARAMS|DCode=97|XSize=1.5mm|YSize=1.5mm|CornerRadius=0.4mm|HoleSize=0mm|Usage=FLASHONLY|Rotation=0.000|XOffset=0mm|YOffset=0mm|HoleType=Round|Shape=RoundedRectangle|*
%AMROUNDEDRECTD97*
21,1,1.50000,0.70000,0,0,0.0*
21,1,0.70000,1.50000,0,0,0.0*
1,1,0.80000,0.35000,-0.35000*
1,1,0.80000,-0.35000,-0.35000*
1,1,0.80000,-0.35000,0.35000*
1,1,0.80000,0.35000,0.35000*
%
%ADD97ROUNDEDRECTD97*%
%ADD98R,6.10000X6.10000*%
G04:AMPARAMS|DCode=99|XSize=2.7mm|YSize=2.7mm|CornerRadius=0.7mm|HoleSize=0mm|Usage=FLASHONLY|Rotation=180.000|XOffset=0mm|YOffset=0mm|HoleType=Round|Shape=RoundedRectangle|*
%AMROUNDEDRECTD99*
21,1,2.70000,1.30000,0,0,180.0*
21,1,1.30000,2.70000,0,0,180.0*
1,1,1.40000,-0.65000,0.65000*
1,1,1.40000,0.65000,0.65000*
1,1,1.40000,0.65000,-0.65000*
1,1,1.40000,-0.65000,-0.65000*
%
%ADD99ROUNDEDRECTD99*%
%ADD100C,1.70000*%
%ADD101C,2.70000*%
%TA.AperFunction,ViaPad*%
%ADD102C,0.55000*%
%ADD103C,5.55000*%
G36*
X6570981Y5414928D02*
X6571923Y5414642D01*
X6572792Y5414177D01*
X6573553Y5413553D01*
X6574178Y5412791D01*
X6574642Y5411923D01*
X6574928Y5410980D01*
X6575024Y5410000D01*
Y5290000D01*
X6574928Y5289020D01*
X6574642Y5288077D01*
X6574178Y5287209D01*
X6573553Y5286447D01*
X6572792Y5285823D01*
X6571923Y5285358D01*
X6570981Y5285072D01*
X6570000Y5284976D01*
X6400800D01*
X6399820Y5285072D01*
X6398877Y5285358D01*
X6398009Y5285823D01*
X6397247Y5286447D01*
X6396623Y5287209D01*
X6396158Y5288077D01*
X6395872Y5289020D01*
X6395776Y5290000D01*
Y5410000D01*
X6395872Y5410980D01*
X6396158Y5411923D01*
X6396623Y5412791D01*
X6397247Y5413553D01*
X6398009Y5414177D01*
X6398877Y5414642D01*
X6399820Y5414928D01*
X6400800Y5415024D01*
X6570000D01*
X6570981Y5414928D01*
D02*
G37*
G36*
X6300980D02*
X6301923Y5414642D01*
X6302791Y5414177D01*
X6303553Y5413553D01*
X6304177Y5412791D01*
X6304642Y5411923D01*
X6304928Y5410980D01*
X6305024Y5410000D01*
Y5290000D01*
X6304928Y5289020D01*
X6304642Y5288077D01*
X6304177Y5287209D01*
X6303553Y5286447D01*
X6302791Y5285823D01*
X6301923Y5285358D01*
X6300980Y5285072D01*
X6300000Y5284976D01*
X6130000D01*
X6129020Y5285072D01*
X6128077Y5285358D01*
X6127209Y5285823D01*
X6126447Y5286447D01*
X6125823Y5287209D01*
X6125358Y5288077D01*
X6125072Y5289020D01*
X6124976Y5290000D01*
Y5410000D01*
X6125072Y5410980D01*
X6125358Y5411923D01*
X6125823Y5412791D01*
X6126447Y5413553D01*
X6127209Y5414177D01*
X6128077Y5414642D01*
X6129020Y5414928D01*
X6130000Y5415024D01*
X6300000D01*
X6300980Y5414928D01*
D02*
G37*
G36*
X6585980Y5142428D02*
X6586923Y5142142D01*
X6587791Y5141677D01*
X6588553Y5141053D01*
X6589178Y5140291D01*
X6589642Y5139423D01*
X6589928Y5138480D01*
X6590024Y5137500D01*
Y5062500D01*
X6589928Y5061520D01*
X6589642Y5060577D01*
X6589178Y5059709D01*
X6588553Y5058947D01*
X6587791Y5058323D01*
X6586923Y5057858D01*
X6585980Y5057572D01*
X6585000Y5057476D01*
X6485000D01*
X6484996Y5057476D01*
X6484995Y5057476D01*
X6484657Y5057510D01*
X6484020Y5057572D01*
X6484017Y5057573D01*
X6484015Y5057573D01*
X6483562Y5057711D01*
X6483077Y5057858D01*
X6483075Y5057860D01*
X6483073Y5057860D01*
X6482704Y5058058D01*
X6482209Y5058323D01*
X6482206Y5058325D01*
X6482204Y5058326D01*
X6481934Y5058548D01*
X6481447Y5058947D01*
X6481445Y5058950D01*
X6481444Y5058951D01*
X6481153Y5059306D01*
X6480823Y5059709D01*
X6480822Y5059710D01*
X6480820Y5059713D01*
X6455820Y5097213D01*
X6455527Y5097762D01*
X6455360Y5098073D01*
X6455359Y5098076D01*
X6455356Y5098082D01*
X6455200Y5098598D01*
X6455073Y5099015D01*
X6455073Y5099020D01*
X6455071Y5099025D01*
X6455019Y5099568D01*
X6454976Y5099995D01*
X6454977Y5099999D01*
X6454976Y5100005D01*
X6455046Y5100708D01*
X6455072Y5100975D01*
X6455072Y5100978D01*
X6455073Y5100985D01*
X6455246Y5101553D01*
X6455356Y5101918D01*
X6455359Y5101922D01*
X6455360Y5101928D01*
X6455604Y5102383D01*
X6455820Y5102787D01*
X6455825Y5102795D01*
X6455826Y5102796D01*
X6455826Y5102796D01*
X6480820Y5140287D01*
X6480822Y5140289D01*
X6480823Y5140291D01*
X6481153Y5140694D01*
X6481444Y5141049D01*
X6481445Y5141050D01*
X6481447Y5141053D01*
X6481858Y5141390D01*
X6482204Y5141675D01*
X6482207Y5141676D01*
X6482209Y5141677D01*
X6482214Y5141680D01*
X6482613Y5141893D01*
X6483073Y5142140D01*
X6483075Y5142140D01*
X6483077Y5142142D01*
X6483469Y5142260D01*
X6484015Y5142427D01*
X6484019Y5142427D01*
X6484020Y5142428D01*
X6484341Y5142459D01*
X6484995Y5142524D01*
X6484997Y5142524D01*
X6485000Y5142524D01*
X6585000D01*
X6585980Y5142428D01*
D02*
G37*
G36*
X6240728Y5142453D02*
X6240975Y5142428D01*
X6240976Y5142428D01*
X6240980Y5142428D01*
X6241521Y5142264D01*
X6241918Y5142144D01*
X6241920Y5142142D01*
X6241922Y5142142D01*
X6242287Y5141947D01*
X6242787Y5141680D01*
X6242789Y5141678D01*
X6242791Y5141677D01*
X6243194Y5141347D01*
X6243549Y5141056D01*
X6243550Y5141055D01*
X6243553Y5141053D01*
X6243952Y5140566D01*
X6244174Y5140296D01*
X6244175Y5140294D01*
X6244177Y5140291D01*
X6244442Y5139796D01*
X6244640Y5139427D01*
X6244640Y5139425D01*
X6244642Y5139423D01*
X6244788Y5138938D01*
X6244927Y5138485D01*
X6244927Y5138483D01*
X6244928Y5138480D01*
X6244990Y5137843D01*
X6245024Y5137505D01*
X6245024Y5137504D01*
X6245024Y5137500D01*
X6244952Y5136772D01*
X6244928Y5136525D01*
X6244928Y5136524D01*
X6244928Y5136520D01*
X6244763Y5135979D01*
X6244644Y5135582D01*
X6244642Y5135580D01*
X6244642Y5135577D01*
X6244446Y5135213D01*
X6244180Y5134713D01*
X6239180Y5127213D01*
X6220996Y5099936D01*
X6236636Y5075358D01*
X6244019Y5065514D01*
X6244091Y5065397D01*
X6244177Y5065291D01*
X6244344Y5064978D01*
X6244530Y5064672D01*
X6244577Y5064543D01*
X6244642Y5064422D01*
X6244745Y5064082D01*
X6244867Y5063747D01*
X6244888Y5063612D01*
X6244928Y5063480D01*
X6244963Y5063123D01*
X6245016Y5062773D01*
X6245011Y5062637D01*
X6245024Y5062500D01*
X6244989Y5062146D01*
X6244974Y5061789D01*
X6244941Y5061655D01*
X6244928Y5061520D01*
X6244824Y5061179D01*
X6244739Y5060833D01*
X6244681Y5060709D01*
X6244642Y5060577D01*
X6244473Y5060262D01*
X6244323Y5059940D01*
X6244242Y5059830D01*
X6244177Y5059709D01*
X6243951Y5059433D01*
X6243741Y5059146D01*
X6243640Y5059054D01*
X6243553Y5058947D01*
X6243277Y5058721D01*
X6243014Y5058481D01*
X6242897Y5058409D01*
X6242791Y5058323D01*
X6242478Y5058155D01*
X6242172Y5057970D01*
X6242043Y5057923D01*
X6241922Y5057858D01*
X6241579Y5057754D01*
X6241247Y5057633D01*
X6241113Y5057613D01*
X6240980Y5057572D01*
X6240621Y5057537D01*
X6240273Y5057483D01*
X6240137Y5057489D01*
X6240000Y5057476D01*
X6115000D01*
X6114020Y5057572D01*
X6113077Y5057858D01*
X6112209Y5058323D01*
X6111447Y5058947D01*
X6110823Y5059709D01*
X6110358Y5060577D01*
X6110072Y5061520D01*
X6109976Y5062500D01*
Y5137500D01*
X6110072Y5138480D01*
X6110358Y5139423D01*
X6110823Y5140291D01*
X6111447Y5141053D01*
X6112209Y5141677D01*
X6113077Y5142142D01*
X6114020Y5142428D01*
X6115000Y5142524D01*
X6240000D01*
X6240728Y5142453D01*
D02*
G37*
G36*
X5230980Y4849928D02*
X5231923Y4849642D01*
X5232791Y4849177D01*
X5233553Y4848553D01*
X5234177Y4847791D01*
X5234642Y4846922D01*
X5234928Y4845980D01*
X5235024Y4845000D01*
Y4805000D01*
X5234928Y4804020D01*
X5234642Y4803078D01*
X5234177Y4802209D01*
X5233553Y4801447D01*
X5232791Y4800823D01*
X5231923Y4800358D01*
X5230980Y4800072D01*
X5230000Y4799976D01*
X5137500D01*
X5136862Y4800039D01*
X5136525Y4800072D01*
X5136524Y4800072D01*
X5136520Y4800072D01*
X5136009Y4800228D01*
X5135582Y4800356D01*
X5135579Y4800358D01*
X5135577Y4800358D01*
X5135271Y4800522D01*
X5134713Y4800820D01*
X5134711Y4800822D01*
X5134709Y4800823D01*
X5134381Y4801092D01*
X5133951Y4801444D01*
X5133949Y4801446D01*
X5133947Y4801447D01*
X5133663Y4801795D01*
X5133326Y4802205D01*
X5133324Y4802207D01*
X5133323Y4802209D01*
X5133107Y4802613D01*
X5132860Y4803073D01*
X5132860Y4803075D01*
X5132858Y4803078D01*
X5132740Y4803469D01*
X5132573Y4804015D01*
X5132573Y4804019D01*
X5132572Y4804020D01*
X5132540Y4804352D01*
X5132476Y4804995D01*
X5132476Y4804998D01*
X5132476Y4805000D01*
X5132539Y4805638D01*
X5132572Y4805975D01*
X5132572Y4805976D01*
X5132572Y4805980D01*
X5132728Y4806491D01*
X5132856Y4806918D01*
X5132858Y4806921D01*
X5132858Y4806923D01*
X5133022Y4807229D01*
X5133320Y4807787D01*
X5138253Y4815186D01*
X5144141Y4825000D01*
X5138254Y4834812D01*
X5133320Y4842213D01*
X5133022Y4842771D01*
X5132858Y4843077D01*
X5132858Y4843079D01*
X5132856Y4843082D01*
X5132728Y4843509D01*
X5132572Y4844020D01*
X5132572Y4844024D01*
X5132572Y4844025D01*
X5132539Y4844362D01*
X5132476Y4845000D01*
X5132476Y4845003D01*
X5132476Y4845005D01*
X5132540Y4845648D01*
X5132572Y4845980D01*
X5132573Y4845981D01*
X5132573Y4845985D01*
X5132740Y4846531D01*
X5132858Y4846922D01*
X5132860Y4846925D01*
X5132860Y4846927D01*
X5133107Y4847387D01*
X5133323Y4847791D01*
X5133324Y4847793D01*
X5133326Y4847795D01*
X5133663Y4848205D01*
X5133947Y4848553D01*
X5133949Y4848554D01*
X5133951Y4848556D01*
X5134478Y4848988D01*
X5134709Y4849177D01*
X5134710Y4849178D01*
X5134713Y4849180D01*
X5135304Y4849496D01*
X5135577Y4849642D01*
X5135579Y4849642D01*
X5135582Y4849644D01*
X5136033Y4849780D01*
X5136520Y4849928D01*
X5136523Y4849928D01*
X5136525Y4849928D01*
X5136882Y4849963D01*
X5137500Y4850024D01*
X5230000D01*
X5230980Y4849928D01*
D02*
G37*
G36*
X5000316Y4849993D02*
X5000628Y4849984D01*
X5000801Y4849945D01*
X5000980Y4849928D01*
X5001281Y4849836D01*
X5001589Y4849767D01*
X5001753Y4849693D01*
X5001923Y4849642D01*
X5002200Y4849493D01*
X5002488Y4849365D01*
X5002633Y4849262D01*
X5002791Y4849177D01*
X5003038Y4848975D01*
X5003292Y4848795D01*
X5003412Y4848668D01*
X5003553Y4848553D01*
X5003755Y4848307D01*
X5003969Y4848080D01*
X5004064Y4847930D01*
X5004177Y4847791D01*
X5004326Y4847513D01*
X5004494Y4847247D01*
X5014494Y4827247D01*
X5014621Y4826915D01*
X5014766Y4826589D01*
X5014797Y4826454D01*
X5014846Y4826327D01*
X5014906Y4825975D01*
X5014984Y4825628D01*
X5014988Y4825492D01*
X5015011Y4825356D01*
X5015002Y4825000D01*
X5015011Y4824644D01*
X5014988Y4824508D01*
X5014984Y4824372D01*
X5014906Y4824025D01*
X5014846Y4823673D01*
X5014797Y4823546D01*
X5014766Y4823411D01*
X5014621Y4823085D01*
X5014494Y4822753D01*
X5004494Y4802753D01*
X5004326Y4802487D01*
X5004177Y4802209D01*
X5004064Y4802070D01*
X5003969Y4801920D01*
X5003755Y4801693D01*
X5003553Y4801447D01*
X5003412Y4801332D01*
X5003292Y4801205D01*
X5003038Y4801025D01*
X5002791Y4800823D01*
X5002633Y4800738D01*
X5002488Y4800635D01*
X5002200Y4800507D01*
X5001923Y4800358D01*
X5001753Y4800307D01*
X5001589Y4800233D01*
X5001281Y4800164D01*
X5000980Y4800072D01*
X5000801Y4800055D01*
X5000628Y4800016D01*
X5000316Y4800007D01*
X5000000Y4799976D01*
X4920000D01*
X4919020Y4800072D01*
X4918077Y4800358D01*
X4917209Y4800823D01*
X4916447Y4801447D01*
X4915823Y4802209D01*
X4915358Y4803078D01*
X4915072Y4804020D01*
X4914976Y4805000D01*
Y4845000D01*
X4915072Y4845980D01*
X4915358Y4846922D01*
X4915823Y4847791D01*
X4916447Y4848553D01*
X4917209Y4849177D01*
X4918077Y4849642D01*
X4919020Y4849928D01*
X4920000Y4850024D01*
X5000000D01*
X5000316Y4849993D01*
D02*
G37*
G36*
X7135980Y4467428D02*
X7136923Y4467142D01*
X7137791Y4466677D01*
X7138553Y4466053D01*
X7139177Y4465291D01*
X7139642Y4464423D01*
X7139928Y4463480D01*
X7140024Y4462500D01*
Y4387500D01*
X7139928Y4386520D01*
X7139642Y4385577D01*
X7139177Y4384709D01*
X7138553Y4383947D01*
X7137791Y4383323D01*
X7136923Y4382858D01*
X7135980Y4382572D01*
X7135000Y4382476D01*
X7035000D01*
X7034996Y4382476D01*
X7034995Y4382476D01*
X7034657Y4382510D01*
X7034020Y4382572D01*
X7034017Y4382573D01*
X7034015Y4382573D01*
X7033561Y4382712D01*
X7033077Y4382858D01*
X7033075Y4382860D01*
X7033073Y4382860D01*
X7032703Y4383058D01*
X7032209Y4383323D01*
X7032206Y4383325D01*
X7032204Y4383326D01*
X7031934Y4383548D01*
X7031447Y4383947D01*
X7031445Y4383950D01*
X7031444Y4383951D01*
X7031153Y4384306D01*
X7030823Y4384709D01*
X7030822Y4384711D01*
X7030820Y4384713D01*
X7005820Y4422213D01*
X7005527Y4422762D01*
X7005360Y4423073D01*
X7005359Y4423076D01*
X7005356Y4423082D01*
X7005200Y4423598D01*
X7005073Y4424015D01*
X7005073Y4424020D01*
X7005071Y4424025D01*
X7005019Y4424568D01*
X7004976Y4424995D01*
X7004977Y4424999D01*
X7004976Y4425005D01*
X7005046Y4425708D01*
X7005072Y4425975D01*
X7005072Y4425978D01*
X7005073Y4425986D01*
X7005246Y4426553D01*
X7005356Y4426918D01*
X7005359Y4426922D01*
X7005360Y4426928D01*
X7005604Y4427383D01*
X7005820Y4427787D01*
X7005825Y4427795D01*
X7005825Y4427796D01*
X7005826Y4427796D01*
X7030820Y4465287D01*
X7030822Y4465290D01*
X7030823Y4465291D01*
X7031153Y4465694D01*
X7031444Y4466049D01*
X7031445Y4466050D01*
X7031447Y4466053D01*
X7031858Y4466390D01*
X7032204Y4466675D01*
X7032207Y4466676D01*
X7032209Y4466677D01*
X7032214Y4466680D01*
X7032613Y4466893D01*
X7033073Y4467140D01*
X7033075Y4467140D01*
X7033077Y4467142D01*
X7033469Y4467261D01*
X7034015Y4467427D01*
X7034018Y4467427D01*
X7034020Y4467428D01*
X7034341Y4467459D01*
X7034995Y4467524D01*
X7034997Y4467524D01*
X7035000Y4467524D01*
X7135000D01*
X7135980Y4467428D01*
D02*
G37*
G36*
X6790728Y4467453D02*
X6790975Y4467428D01*
X6790976Y4467428D01*
X6790980Y4467428D01*
X6791521Y4467264D01*
X6791918Y4467144D01*
X6791920Y4467142D01*
X6791922Y4467142D01*
X6792287Y4466947D01*
X6792787Y4466680D01*
X6792789Y4466678D01*
X6792791Y4466677D01*
X6793194Y4466347D01*
X6793549Y4466056D01*
X6793550Y4466055D01*
X6793553Y4466053D01*
X6793952Y4465566D01*
X6794174Y4465296D01*
X6794175Y4465294D01*
X6794177Y4465291D01*
X6794442Y4464797D01*
X6794639Y4464427D01*
X6794640Y4464425D01*
X6794641Y4464423D01*
X6794788Y4463938D01*
X6794926Y4463485D01*
X6794927Y4463483D01*
X6794927Y4463480D01*
X6794990Y4462843D01*
X6795024Y4462505D01*
X6795023Y4462504D01*
X6795024Y4462500D01*
X6794952Y4461772D01*
X6794928Y4461525D01*
X6794928Y4461524D01*
X6794927Y4461520D01*
X6794763Y4460979D01*
X6794644Y4460582D01*
X6794642Y4460580D01*
X6794641Y4460578D01*
X6794446Y4460213D01*
X6794180Y4459713D01*
X6789180Y4452213D01*
X6770996Y4424936D01*
X6786636Y4400358D01*
X6794019Y4390514D01*
X6794091Y4390397D01*
X6794177Y4390291D01*
X6794344Y4389979D01*
X6794530Y4389672D01*
X6794577Y4389543D01*
X6794641Y4389423D01*
X6794745Y4389082D01*
X6794867Y4388747D01*
X6794888Y4388612D01*
X6794927Y4388480D01*
X6794963Y4388123D01*
X6795016Y4387773D01*
X6795011Y4387637D01*
X6795024Y4387500D01*
X6794989Y4387146D01*
X6794974Y4386790D01*
X6794941Y4386655D01*
X6794927Y4386520D01*
X6794824Y4386179D01*
X6794739Y4385833D01*
X6794681Y4385709D01*
X6794641Y4385577D01*
X6794473Y4385262D01*
X6794323Y4384940D01*
X6794242Y4384830D01*
X6794177Y4384709D01*
X6793951Y4384433D01*
X6793741Y4384146D01*
X6793640Y4384054D01*
X6793553Y4383947D01*
X6793277Y4383721D01*
X6793014Y4383481D01*
X6792897Y4383409D01*
X6792791Y4383323D01*
X6792478Y4383156D01*
X6792172Y4382970D01*
X6792043Y4382923D01*
X6791922Y4382858D01*
X6791579Y4382754D01*
X6791247Y4382633D01*
X6791113Y4382613D01*
X6790980Y4382572D01*
X6790621Y4382537D01*
X6790273Y4382483D01*
X6790137Y4382489D01*
X6790000Y4382476D01*
X6665000D01*
X6664020Y4382572D01*
X6663077Y4382858D01*
X6662209Y4383323D01*
X6661447Y4383947D01*
X6660823Y4384709D01*
X6660358Y4385577D01*
X6660072Y4386520D01*
X6659976Y4387500D01*
Y4462500D01*
X6660072Y4463480D01*
X6660358Y4464423D01*
X6660823Y4465291D01*
X6661447Y4466053D01*
X6662209Y4466677D01*
X6663077Y4467142D01*
X6664020Y4467428D01*
X6665000Y4467524D01*
X6790000D01*
X6790728Y4467453D01*
D02*
G37*
G36*
X8020980Y3739928D02*
X8021923Y3739642D01*
X8022791Y3739177D01*
X8023553Y3738553D01*
X8024178Y3737791D01*
X8024642Y3736923D01*
X8024928Y3735980D01*
X8025024Y3735000D01*
Y3615000D01*
X8024928Y3614020D01*
X8024642Y3613077D01*
X8024178Y3612209D01*
X8023553Y3611447D01*
X8022791Y3610823D01*
X8021923Y3610358D01*
X8020980Y3610072D01*
X8020000Y3609976D01*
X7850800D01*
X7849820Y3610072D01*
X7848877Y3610358D01*
X7848009Y3610823D01*
X7847247Y3611447D01*
X7846623Y3612209D01*
X7846158Y3613077D01*
X7845872Y3614020D01*
X7845776Y3615000D01*
Y3735000D01*
X7845872Y3735980D01*
X7846158Y3736923D01*
X7846623Y3737791D01*
X7847247Y3738553D01*
X7848009Y3739177D01*
X7848877Y3739642D01*
X7849820Y3739928D01*
X7850800Y3740024D01*
X8020000D01*
X8020980Y3739928D01*
D02*
G37*
G36*
X7750980D02*
X7751923Y3739642D01*
X7752791Y3739177D01*
X7753553Y3738553D01*
X7754177Y3737791D01*
X7754642Y3736923D01*
X7754928Y3735980D01*
X7755024Y3735000D01*
Y3615000D01*
X7754928Y3614020D01*
X7754642Y3613077D01*
X7754177Y3612209D01*
X7753553Y3611447D01*
X7752791Y3610823D01*
X7751923Y3610358D01*
X7750980Y3610072D01*
X7750000Y3609976D01*
X7580000D01*
X7579020Y3610072D01*
X7578077Y3610358D01*
X7577209Y3610823D01*
X7576447Y3611447D01*
X7575823Y3612209D01*
X7575358Y3613077D01*
X7575072Y3614020D01*
X7574976Y3615000D01*
Y3735000D01*
X7575072Y3735980D01*
X7575358Y3736923D01*
X7575823Y3737791D01*
X7576447Y3738553D01*
X7577209Y3739177D01*
X7578077Y3739642D01*
X7579020Y3739928D01*
X7580000Y3740024D01*
X7750000D01*
X7750980Y3739928D01*
D02*
G37*
G36*
X7935980Y3467428D02*
X7936922Y3467142D01*
X7937791Y3466677D01*
X7938553Y3466053D01*
X7939177Y3465291D01*
X7939641Y3464423D01*
X7939927Y3463480D01*
X7940024Y3462500D01*
Y3387500D01*
X7939927Y3386520D01*
X7939641Y3385577D01*
X7939177Y3384709D01*
X7938553Y3383947D01*
X7937791Y3383323D01*
X7936922Y3382858D01*
X7935980Y3382572D01*
X7935000Y3382476D01*
X7810000D01*
X7809271Y3382547D01*
X7809025Y3382572D01*
X7809023Y3382572D01*
X7809020Y3382572D01*
X7808479Y3382736D01*
X7808082Y3382856D01*
X7808080Y3382858D01*
X7808077Y3382858D01*
X7807713Y3383053D01*
X7807213Y3383320D01*
X7807210Y3383322D01*
X7807209Y3383323D01*
X7806806Y3383653D01*
X7806451Y3383944D01*
X7806450Y3383945D01*
X7806447Y3383947D01*
X7806048Y3384434D01*
X7805826Y3384704D01*
X7805825Y3384706D01*
X7805823Y3384709D01*
X7805558Y3385204D01*
X7805360Y3385573D01*
X7805360Y3385575D01*
X7805358Y3385577D01*
X7805211Y3386062D01*
X7805073Y3386515D01*
X7805073Y3386517D01*
X7805072Y3386520D01*
X7805010Y3387157D01*
X7804976Y3387495D01*
X7804976Y3387496D01*
X7804976Y3387500D01*
X7805047Y3388228D01*
X7805072Y3388475D01*
X7805072Y3388476D01*
X7805072Y3388480D01*
X7805236Y3389021D01*
X7805356Y3389418D01*
X7805358Y3389420D01*
X7805358Y3389422D01*
X7805553Y3389787D01*
X7805820Y3390287D01*
X7810820Y3397787D01*
X7829004Y3425064D01*
X7813363Y3449642D01*
X7805981Y3459486D01*
X7805909Y3459603D01*
X7805823Y3459709D01*
X7805655Y3460022D01*
X7805470Y3460328D01*
X7805423Y3460457D01*
X7805358Y3460578D01*
X7805255Y3460918D01*
X7805133Y3461253D01*
X7805112Y3461388D01*
X7805072Y3461520D01*
X7805037Y3461877D01*
X7804983Y3462227D01*
X7804989Y3462363D01*
X7804976Y3462500D01*
X7805011Y3462854D01*
X7805026Y3463210D01*
X7805059Y3463345D01*
X7805072Y3463480D01*
X7805176Y3463821D01*
X7805260Y3464167D01*
X7805318Y3464291D01*
X7805358Y3464423D01*
X7805527Y3464738D01*
X7805677Y3465060D01*
X7805758Y3465170D01*
X7805823Y3465291D01*
X7806049Y3465567D01*
X7806259Y3465854D01*
X7806360Y3465946D01*
X7806447Y3466053D01*
X7806723Y3466279D01*
X7806985Y3466519D01*
X7807103Y3466591D01*
X7807209Y3466677D01*
X7807521Y3466844D01*
X7807827Y3467030D01*
X7807957Y3467077D01*
X7808077Y3467142D01*
X7808421Y3467246D01*
X7808753Y3467367D01*
X7808887Y3467387D01*
X7809020Y3467428D01*
X7809379Y3467463D01*
X7809727Y3467517D01*
X7809863Y3467511D01*
X7810000Y3467524D01*
X7935000D01*
X7935980Y3467428D01*
D02*
G37*
G36*
X7565004Y3467524D02*
X7565005Y3467524D01*
X7565343Y3467490D01*
X7565980Y3467428D01*
X7565983Y3467427D01*
X7565985Y3467427D01*
X7566438Y3467288D01*
X7566579Y3467246D01*
X7566922Y3467142D01*
X7566925Y3467140D01*
X7566927Y3467140D01*
X7567296Y3466942D01*
X7567785Y3466680D01*
X7567791Y3466677D01*
X7567794Y3466675D01*
X7567795Y3466674D01*
X7568066Y3466452D01*
X7568553Y3466053D01*
X7568555Y3466050D01*
X7568556Y3466049D01*
X7568847Y3465694D01*
X7569177Y3465291D01*
X7569178Y3465289D01*
X7569180Y3465287D01*
X7594180Y3427787D01*
X7594473Y3427238D01*
X7594639Y3426927D01*
X7594640Y3426924D01*
X7594644Y3426918D01*
X7594799Y3426402D01*
X7594926Y3425985D01*
X7594927Y3425980D01*
X7594928Y3425975D01*
X7594981Y3425432D01*
X7595024Y3425005D01*
X7595023Y3425001D01*
X7595024Y3424995D01*
X7594954Y3424292D01*
X7594928Y3424025D01*
X7594927Y3424022D01*
X7594927Y3424014D01*
X7594754Y3423447D01*
X7594643Y3423082D01*
X7594641Y3423078D01*
X7594639Y3423072D01*
X7594396Y3422617D01*
X7594180Y3422213D01*
X7594175Y3422205D01*
X7594174Y3422204D01*
X7594174Y3422204D01*
X7569180Y3384713D01*
X7569178Y3384711D01*
X7569177Y3384709D01*
X7568847Y3384306D01*
X7568556Y3383951D01*
X7568555Y3383950D01*
X7568553Y3383947D01*
D01*
X7568142Y3383610D01*
X7567795Y3383325D01*
X7567793Y3383324D01*
X7567791Y3383323D01*
X7567387Y3383107D01*
X7566927Y3382860D01*
X7566925Y3382860D01*
X7566922Y3382858D01*
X7566530Y3382739D01*
X7565985Y3382573D01*
X7565981Y3382573D01*
X7565980Y3382572D01*
X7565659Y3382541D01*
X7565005Y3382476D01*
X7565002Y3382476D01*
X7565000Y3382476D01*
X7465000D01*
X7464019Y3382572D01*
X7463077Y3382858D01*
X7462208Y3383323D01*
X7461447Y3383947D01*
X7460822Y3384709D01*
X7460358Y3385577D01*
X7460072Y3386520D01*
X7459975Y3387500D01*
Y3462500D01*
X7460072Y3463480D01*
X7460358Y3464423D01*
X7460822Y3465291D01*
X7461447Y3466053D01*
X7462208Y3466677D01*
X7463077Y3467142D01*
X7464019Y3467428D01*
X7465000Y3467524D01*
X7565000D01*
X7565004Y3467524D01*
D02*
G37*
D20*
X8150000Y6530000D02*
D03*
X8120000D02*
D03*
X8150000Y6480000D02*
D03*
X8120000D02*
D03*
X3850000Y5000000D02*
D03*
X3820000D02*
D03*
X3850000Y4950000D02*
D03*
X3820000D02*
D03*
D49*
X3575000Y2850000D02*
D03*
X3400000D02*
D03*
X3225000D02*
D03*
X3050000D02*
D03*
X2875000D02*
D03*
X4200000Y3425000D02*
D03*
X4550000D02*
D03*
X4375000D02*
D03*
Y3900000D02*
D03*
Y3650000D02*
D03*
X4200000D02*
D03*
X4675000D02*
D03*
X4550000D02*
D03*
X4675000Y3900000D02*
D03*
X4550000D02*
D03*
X4160000Y3910000D02*
D03*
X7893650Y6185552D02*
D03*
X6650000Y6220000D02*
D03*
X7800000Y6940000D02*
D03*
X7850000D02*
D03*
X8000000Y6280000D02*
D03*
X4826000Y4920000D02*
D03*
X7400000Y4075000D02*
D03*
X7100000D02*
D03*
X7175000Y4100000D02*
D03*
X6980731Y4625838D02*
D03*
X7050838D02*
D03*
X6830731D02*
D03*
X6900838D02*
D03*
X6761675Y4637500D02*
D03*
X6691568D02*
D03*
X7100000Y5075000D02*
D03*
X7000000D02*
D03*
X7100000Y5150000D02*
D03*
X7000000D02*
D03*
X6800000Y5075000D02*
D03*
Y5150000D02*
D03*
X6700000D02*
D03*
D74*
X5225000Y3325000D02*
D03*
Y4225000D02*
D03*
D75*
X7585000Y5980000D02*
D03*
Y5930000D02*
D03*
Y5880000D02*
D03*
Y5830000D02*
D03*
Y5780000D02*
D03*
Y5730000D02*
D03*
Y5680000D02*
D03*
Y5630000D02*
D03*
X8065000D02*
D03*
Y5680000D02*
D03*
Y5730000D02*
D03*
Y5780000D02*
D03*
Y5830000D02*
D03*
Y5880000D02*
D03*
Y5930000D02*
D03*
Y5980000D02*
D03*
X3765000Y5250000D02*
D03*
Y5200000D02*
D03*
Y5150000D02*
D03*
Y5100000D02*
D03*
Y5050000D02*
D03*
Y5000000D02*
D03*
Y4950000D02*
D03*
Y4900000D02*
D03*
X3285000D02*
D03*
Y4950000D02*
D03*
Y5000000D02*
D03*
Y5050000D02*
D03*
Y5100000D02*
D03*
Y5150000D02*
D03*
Y5200000D02*
D03*
Y5250000D02*
D03*
X7585000Y6780000D02*
D03*
Y6730000D02*
D03*
Y6680000D02*
D03*
Y6630000D02*
D03*
Y6580000D02*
D03*
Y6530000D02*
D03*
Y6480000D02*
D03*
Y6430000D02*
D03*
X8065000D02*
D03*
Y6480000D02*
D03*
Y6530000D02*
D03*
Y6580000D02*
D03*
Y6630000D02*
D03*
Y6680000D02*
D03*
Y6730000D02*
D03*
Y6780000D02*
D03*
X3310000Y4540000D02*
D03*
Y4490000D02*
D03*
Y4440000D02*
D03*
Y4390000D02*
D03*
Y4340000D02*
D03*
Y4290000D02*
D03*
Y4240000D02*
D03*
Y4190000D02*
D03*
X3790000D02*
D03*
Y4240000D02*
D03*
Y4290000D02*
D03*
Y4340000D02*
D03*
Y4390000D02*
D03*
Y4440000D02*
D03*
Y4490000D02*
D03*
Y4540000D02*
D03*
D76*
X7650000Y5565000D02*
D03*
X7700000D02*
D03*
X7750000D02*
D03*
X7800000D02*
D03*
X7850000D02*
D03*
X7900000D02*
D03*
X7950000D02*
D03*
X8000000D02*
D03*
Y6045000D02*
D03*
X7950000D02*
D03*
X7900000D02*
D03*
X7850000D02*
D03*
X7800000D02*
D03*
X7750000D02*
D03*
X7700000D02*
D03*
X7650000D02*
D03*
X3350000Y5315000D02*
D03*
X3400000D02*
D03*
X3450000D02*
D03*
X3500000D02*
D03*
X3550000D02*
D03*
X3600000D02*
D03*
X3650000D02*
D03*
X3700000D02*
D03*
Y4835000D02*
D03*
X3650000D02*
D03*
X3600000D02*
D03*
X3550000D02*
D03*
X3500000D02*
D03*
X3450000D02*
D03*
X3400000D02*
D03*
X3350000D02*
D03*
X7650000Y6365000D02*
D03*
X7700000D02*
D03*
X7750000D02*
D03*
X7800000D02*
D03*
X7850000D02*
D03*
X7900000D02*
D03*
X7950000D02*
D03*
X8000000D02*
D03*
Y6845000D02*
D03*
X7950000D02*
D03*
X7900000D02*
D03*
X7850000D02*
D03*
X7800000D02*
D03*
X7750000D02*
D03*
X7700000D02*
D03*
X7650000D02*
D03*
X3375000Y4125000D02*
D03*
X3425000D02*
D03*
X3475000D02*
D03*
X3525000D02*
D03*
X3575000D02*
D03*
X3625000D02*
D03*
X3675000D02*
D03*
X3725000D02*
D03*
Y4605000D02*
D03*
X3675000D02*
D03*
X3625000D02*
D03*
X3575000D02*
D03*
X3525000D02*
D03*
X3475000D02*
D03*
X3425000D02*
D03*
X3375000D02*
D03*
D77*
X7825000Y5805000D02*
D03*
X3525000Y5075000D02*
D03*
X7825000Y6605000D02*
D03*
X3550000Y4365000D02*
D03*
D78*
X3275000Y6573000D02*
D03*
Y6700000D02*
D03*
Y6827000D02*
D03*
Y6954000D02*
D03*
Y7081000D02*
D03*
Y7208000D02*
D03*
Y7335000D02*
D03*
X2730000Y6573000D02*
D03*
Y6700000D02*
D03*
Y6827000D02*
D03*
Y6954000D02*
D03*
Y7081000D02*
D03*
Y7208000D02*
D03*
Y7335000D02*
D03*
X3275000Y5498000D02*
D03*
Y5625000D02*
D03*
Y5752000D02*
D03*
Y5879000D02*
D03*
Y6006000D02*
D03*
Y6133000D02*
D03*
Y6260000D02*
D03*
Y6387000D02*
D03*
X2730000Y5498000D02*
D03*
Y5625000D02*
D03*
Y5752000D02*
D03*
Y5879000D02*
D03*
Y6006000D02*
D03*
Y6133000D02*
D03*
Y6260000D02*
D03*
Y6387000D02*
D03*
D79*
X5800000Y4302500D02*
D03*
X5850000D02*
D03*
X5900000D02*
D03*
X5950000D02*
D03*
X6000000D02*
D03*
X6050000D02*
D03*
X6100000D02*
D03*
X6150000D02*
D03*
X6200000D02*
D03*
X6250000D02*
D03*
X6300000D02*
D03*
X6350000D02*
D03*
Y3447500D02*
D03*
X6300000D02*
D03*
X6250000D02*
D03*
X6200000D02*
D03*
X6150000D02*
D03*
X6100000D02*
D03*
X6050000D02*
D03*
X6000000D02*
D03*
X5950000D02*
D03*
X5900000D02*
D03*
X5850000D02*
D03*
X5800000D02*
D03*
D80*
X6502500Y4150000D02*
D03*
Y4100000D02*
D03*
Y4050000D02*
D03*
Y4000000D02*
D03*
Y3950000D02*
D03*
Y3900000D02*
D03*
Y3850000D02*
D03*
Y3800000D02*
D03*
Y3750000D02*
D03*
Y3700000D02*
D03*
Y3650000D02*
D03*
Y3600000D02*
D03*
X5647500D02*
D03*
Y3650000D02*
D03*
Y3700000D02*
D03*
Y3750000D02*
D03*
Y3800000D02*
D03*
Y3850000D02*
D03*
Y3900000D02*
D03*
Y3950000D02*
D03*
Y4000000D02*
D03*
Y4050000D02*
D03*
Y4100000D02*
D03*
Y4150000D02*
D03*
D81*
X5625000Y4750000D02*
D03*
Y4500000D02*
D03*
D82*
X6600000Y5675000D02*
D03*
Y6375000D02*
D03*
X5725000Y5675000D02*
D03*
Y6375000D02*
D03*
D83*
X5425000Y4635000D02*
D03*
X5275000D02*
D03*
X3700000Y5500000D02*
D03*
X3550000D02*
D03*
X4025000D02*
D03*
X3875000D02*
D03*
X4850000Y3325000D02*
D03*
X4700000D02*
D03*
X6725000Y4200000D02*
D03*
X6875000D02*
D03*
X7775000Y3900000D02*
D03*
X7625000D02*
D03*
X7450000Y7005000D02*
D03*
X7300000D02*
D03*
X7925000Y6205000D02*
D03*
X7775000D02*
D03*
X2975000Y5325000D02*
D03*
X3125000D02*
D03*
X3000000Y4550000D02*
D03*
X3150000D02*
D03*
X3055000Y4380000D02*
D03*
X2905000D02*
D03*
D84*
X6527500Y6600000D02*
D03*
X6672500D02*
D03*
X4652500Y2950000D02*
D03*
X4797500D02*
D03*
X5797500Y5450000D02*
D03*
X5652500D02*
D03*
X6027500Y4700000D02*
D03*
X6172500D02*
D03*
X7322500Y3450000D02*
D03*
X7177500D02*
D03*
X7202500Y6305000D02*
D03*
X7347500D02*
D03*
X7205000Y5805000D02*
D03*
X7350000D02*
D03*
X3047500Y7675000D02*
D03*
X2902500D02*
D03*
D85*
X3675000Y6700000D02*
D03*
Y6850000D02*
D03*
X3700000Y6225000D02*
D03*
Y6075000D02*
D03*
X4850000Y4325000D02*
D03*
Y4175000D02*
D03*
X5625000Y4900000D02*
D03*
Y5050000D02*
D03*
X5600000Y3225000D02*
D03*
Y3075000D02*
D03*
X6350000Y3225000D02*
D03*
Y3075000D02*
D03*
X5850000Y4525000D02*
D03*
Y4675000D02*
D03*
X7625000Y7155000D02*
D03*
Y7005000D02*
D03*
X7350000Y6655000D02*
D03*
Y6805000D02*
D03*
X7375000Y6130000D02*
D03*
Y5980000D02*
D03*
D86*
X3920000Y6545000D02*
D03*
Y6355000D02*
D03*
Y6450000D02*
D03*
X3680000Y6545000D02*
D03*
Y6355000D02*
D03*
Y6450000D02*
D03*
D87*
X3955000Y5945000D02*
D03*
X3890000D02*
D03*
X3825000D02*
D03*
X3955000Y5725000D02*
D03*
X3890000D02*
D03*
X3825000D02*
D03*
D88*
X4850000Y3647500D02*
D03*
Y3502500D02*
D03*
X4800000Y4922500D02*
D03*
Y4777500D02*
D03*
X7650000Y7647500D02*
D03*
Y7502500D02*
D03*
D89*
X4650000Y2750000D02*
D03*
X4800000D02*
D03*
D90*
X6025000Y4525000D02*
D03*
X6175000D02*
D03*
X6675000Y6850000D02*
D03*
X6825000D02*
D03*
X6175000D02*
D03*
X6325000D02*
D03*
X4775000D02*
D03*
X4925000D02*
D03*
X4275000D02*
D03*
X4425000D02*
D03*
D91*
X7059500Y3652500D02*
D03*
X7186500D02*
D03*
X7313500D02*
D03*
X7440500D02*
D03*
X7059500Y4197500D02*
D03*
X7186500D02*
D03*
X7313500D02*
D03*
X7440500D02*
D03*
D92*
X5550000Y7702500D02*
D03*
Y8297500D02*
D03*
Y7422500D02*
D03*
Y6827500D02*
D03*
D93*
X6900000Y5067500D02*
D03*
Y4682500D02*
D03*
D94*
X8350000Y3880000D02*
D03*
Y4720000D02*
D03*
D95*
X7950000Y4225000D02*
D03*
Y4075000D02*
D03*
Y4525000D02*
D03*
Y4375000D02*
D03*
D96*
X7650000Y7900000D02*
D03*
X7850000D02*
D03*
X8050000D02*
D03*
X8250000D02*
D03*
X3050000D02*
D03*
X3250000D02*
D03*
X3450000D02*
D03*
X3650000D02*
D03*
X7225000Y3175000D02*
D03*
X7425000D02*
D03*
X7025000D02*
D03*
D97*
X7450000Y7900000D02*
D03*
X2850000D02*
D03*
X7625000Y3175000D02*
D03*
D98*
X4225000Y2850000D02*
D03*
Y4800000D02*
D03*
D99*
X3475000Y3850000D02*
D03*
X6250000Y7200000D02*
D03*
X4350000D02*
D03*
D100*
X3775000Y2850000D02*
D03*
X2675000D02*
D03*
X5950000Y8200000D02*
D03*
X7050000D02*
D03*
X4050000D02*
D03*
X5150000D02*
D03*
D101*
X2975000Y3850000D02*
D03*
X6750000Y7200000D02*
D03*
X4850000D02*
D03*
D102*
X5307696Y3959579D02*
D03*
X6388570Y4695750D02*
D03*
X7700000Y6278452D02*
D03*
X7882196Y6287500D02*
D03*
X7764790D02*
D03*
X7825000Y6292500D02*
D03*
X7205000Y6155000D02*
D03*
X7480112Y5915659D02*
D03*
X7715000Y5915000D02*
D03*
X7825000D02*
D03*
X7935000D02*
D03*
X7715000Y5805000D02*
D03*
X7825000D02*
D03*
X7935000D02*
D03*
X7715000Y5695000D02*
D03*
X7825000D02*
D03*
X7935000D02*
D03*
X7247500Y5720000D02*
D03*
X7373000Y5885000D02*
D03*
X7536097Y5930000D02*
D03*
X3140000Y6830000D02*
D03*
X3737013Y5908126D02*
D03*
X3812600Y6040000D02*
D03*
X3903000D02*
D03*
X5652500Y5365014D02*
D03*
X3775000Y4000000D02*
D03*
X3683550Y3900000D02*
D03*
X3195000Y4065896D02*
D03*
X3168314Y4155589D02*
D03*
X3570000Y4056500D02*
D03*
X3475000Y4025000D02*
D03*
X4030700Y4459300D02*
D03*
X3880000Y4410000D02*
D03*
Y4355000D02*
D03*
Y4300000D02*
D03*
X5890743Y4397841D02*
D03*
X6001973Y4411973D02*
D03*
X6741545Y3528455D02*
D03*
X6625000Y3600000D02*
D03*
X6200000Y4425000D02*
D03*
X6151405Y4398742D02*
D03*
X7990000Y4810000D02*
D03*
X3635000Y4965000D02*
D03*
X3525000D02*
D03*
X3415000D02*
D03*
X3635000Y5075000D02*
D03*
X3525000D02*
D03*
X3415000D02*
D03*
X3635000Y5185000D02*
D03*
X3525000D02*
D03*
X3415000D02*
D03*
X3600000Y6970000D02*
D03*
X3547978Y7227978D02*
D03*
X2820000Y7550000D02*
D03*
X3903984Y6253983D02*
D03*
X3370000Y5710000D02*
D03*
X3399500Y5625000D02*
D03*
X3480500Y4646687D02*
D03*
X3480400Y4702699D02*
D03*
X3399500Y5381820D02*
D03*
Y5500000D02*
D03*
X5951791Y3688500D02*
D03*
X6338638Y3708638D02*
D03*
X6290393Y3751134D02*
D03*
X6281949Y3607500D02*
D03*
X3504265Y4754961D02*
D03*
X6330000Y4000000D02*
D03*
X6565000Y6192275D02*
D03*
X6511938Y6177801D02*
D03*
X7370000Y5710000D02*
D03*
X7750000Y5455000D02*
D03*
X5925000Y3781000D02*
D03*
X5560000Y4210000D02*
D03*
X3561400Y4707500D02*
D03*
X3559264Y4762458D02*
D03*
X3812135Y4856667D02*
D03*
X4147220Y5500000D02*
D03*
X5347500Y8267500D02*
D03*
X3764548Y6399017D02*
D03*
X7200000Y7500000D02*
D03*
X3164000Y6006000D02*
D03*
X2618499Y6700000D02*
D03*
X2609500Y6830000D02*
D03*
X7507023Y6487023D02*
D03*
X7435862Y6530413D02*
D03*
X7435000Y6279500D02*
D03*
X2615196Y7208000D02*
D03*
X7320000Y6570000D02*
D03*
X2618499Y7081000D02*
D03*
Y6950000D02*
D03*
X7503638Y6683638D02*
D03*
X7501326Y6578908D02*
D03*
X3161000Y5879000D02*
D03*
X3162500Y5752000D02*
D03*
X2760000Y5560500D02*
D03*
X3150000Y5040000D02*
D03*
X5939120Y4182500D02*
D03*
X4756500Y5688267D02*
D03*
X6055549Y4431726D02*
D03*
X6110424Y4435424D02*
D03*
X3960000Y6800000D02*
D03*
X5665500Y5915500D02*
D03*
X4852300Y6932700D02*
D03*
X5550000Y3600000D02*
D03*
X4025000Y4159500D02*
D03*
X3700000Y4759499D02*
D03*
X5533862Y3883862D02*
D03*
X4510000Y6650000D02*
D03*
X3920000Y6620000D02*
D03*
X5812500Y4150000D02*
D03*
X6290000Y3850000D02*
D03*
X6250000Y3350000D02*
D03*
X6200000Y3325000D02*
D03*
X4950000Y2670000D02*
D03*
X3163000Y6567500D02*
D03*
X3160000Y6700500D02*
D03*
X5832022Y3772022D02*
D03*
X6330000Y3800000D02*
D03*
Y3900000D02*
D03*
X6600000Y4050000D02*
D03*
Y3950000D02*
D03*
X6050000Y4620000D02*
D03*
X4220000Y6210000D02*
D03*
X4147500Y5275000D02*
D03*
X4020000Y5690000D02*
D03*
X3825000Y5645000D02*
D03*
X3740000Y5810000D02*
D03*
X3900000Y5190000D02*
D03*
X3870882Y5289118D02*
D03*
X3820000Y5310000D02*
D03*
X4730500Y5825000D02*
D03*
X3162612Y4255336D02*
D03*
X3328000Y4060000D02*
D03*
X5790000Y3290000D02*
D03*
X6100000Y3325000D02*
D03*
X3182958Y4337130D02*
D03*
X5525000Y3650000D02*
D03*
X3372000Y7208000D02*
D03*
X6000000Y3325000D02*
D03*
X5947479Y3352762D02*
D03*
X5900000Y3325000D02*
D03*
X7120000Y3917500D02*
D03*
X7130000Y3784500D02*
D03*
X8063000Y5582272D02*
D03*
X6430000Y3212070D02*
D03*
X8145955Y5883231D02*
D03*
X7504050Y5757249D02*
D03*
X7494000Y5811323D02*
D03*
X7477223Y5669527D02*
D03*
X7856014Y5520500D02*
D03*
X7828208Y4362813D02*
D03*
X7850000Y4225000D02*
D03*
X7650000Y4475000D02*
D03*
X7180000Y3917500D02*
D03*
X6350000Y4400000D02*
D03*
X6250000D02*
D03*
X6300000Y4425000D02*
D03*
X8178916Y6475000D02*
D03*
X6410000Y6390500D02*
D03*
X6497500D02*
D03*
X6380000Y6740000D02*
D03*
X8148728Y5764326D02*
D03*
X6100000Y6230000D02*
D03*
X8169500Y5815253D02*
D03*
X8150000Y6580000D02*
D03*
X8178916Y6530000D02*
D03*
X7029500Y5659500D02*
D03*
X7800000Y5480000D02*
D03*
X3143421Y4790000D02*
D03*
X3153521Y4920000D02*
D03*
X5850000Y3350000D02*
D03*
X5190000Y4890000D02*
D03*
X5332500Y7702500D02*
D03*
X5550000Y7390000D02*
D03*
X3380000Y7020000D02*
D03*
X8150000Y6680000D02*
D03*
X8175000Y6630000D02*
D03*
X3099505Y5140726D02*
D03*
X3130473Y5095273D02*
D03*
X3160000Y4980000D02*
D03*
X3525000Y5075000D02*
D03*
X3675000Y5450000D02*
D03*
X3698298Y4678499D02*
D03*
X4850000Y3750000D02*
D03*
X5550000Y3700000D02*
D03*
X6048163Y3351557D02*
D03*
X7715000Y6715000D02*
D03*
X7825000D02*
D03*
X7935000D02*
D03*
X7715000Y6605000D02*
D03*
X7825000D02*
D03*
X7935000D02*
D03*
X7715000Y6495000D02*
D03*
X7825000D02*
D03*
X7935000D02*
D03*
X3440000Y4475000D02*
D03*
X3550000D02*
D03*
X3660000D02*
D03*
X3440000Y4365000D02*
D03*
X3550000D02*
D03*
X3660000D02*
D03*
X3440000Y4255000D02*
D03*
X3550000D02*
D03*
X3660000D02*
D03*
D103*
X2850000Y4950000D02*
D03*
X7975000Y7275000D02*
D03*
X8200000Y2850000D02*
D03*
%TF.MD5,5b0e64eb6218cbfde963cb18af65aa7f*%
M02*
