%TF.GenerationSoftware,Altium Limited,Altium Designer,24.7.2 (38)*%
G04 Layer_Physical_Order=1*
G04 Layer_Color=255*
%FSLAX45Y45*%
%MOMM*%
%TF.SameCoordinates,4E20714E-E0DB-4EF4-9D00-32C5CA98EF25*%
%TF.FilePolarity,Positive*%
%TF.FileFunction,Copper,L1,Top,Signal*%
%TF.Part,Single*%
G01*
G75*
%TA.AperFunction,SMDPad,CuDef*%
%ADD10O,0.95000X0.25000*%
%ADD11O,0.25000X0.95000*%
%ADD12R,3.45000X3.45000*%
G04:AMPARAMS|DCode=13|XSize=5mm|YSize=2.15mm|CornerRadius=0.5375mm|HoleSize=0mm|Usage=FLASHONLY|Rotation=0.000|XOffset=0mm|YOffset=0mm|HoleType=Round|Shape=RoundedRectangle|*
%AMROUNDEDRECTD13*
21,1,5.00000,1.07500,0,0,0.0*
21,1,3.92500,2.15000,0,0,0.0*
1,1,1.07500,1.96250,-0.53750*
1,1,1.07500,-1.96250,-0.53750*
1,1,1.07500,-1.96250,0.53750*
1,1,1.07500,1.96250,0.53750*
%
%ADD13ROUNDEDRECTD13*%
%ADD14O,1.45000X0.60000*%
%ADD15O,1.40000X0.30000*%
%ADD16O,0.30000X1.40000*%
%ADD17R,3.35000X1.65000*%
%AMCUSTOMSHAPE18*
4,1,4,0.60000,-0.71700,0.60000,0.97500,-0.60000,0.97500,-0.60000,-0.71700,0.60000,-0.71700,0.0*%
%ADD18CUSTOMSHAPE18*%

%AMCUSTOMSHAPE19*
4,1,4,0.60000,-0.97500,0.60000,0.72500,-0.60000,0.72500,-0.60000,-0.97500,0.60000,-0.97500,0.0*%
%ADD19CUSTOMSHAPE19*%

%ADD20R,1.90000X1.50000*%
%ADD21R,1.00000X0.95000*%
%ADD22O,3.00000X0.70000*%
%ADD23R,1.90000X1.30000*%
%ADD24R,1.00000X1.05000*%
%ADD25R,2.00000X6.00000*%
%ADD26O,0.35000X0.85000*%
G04:AMPARAMS|DCode=27|XSize=1mm|YSize=1.2mm|CornerRadius=0.15mm|HoleSize=0mm|Usage=FLASHONLY|Rotation=0.000|XOffset=0mm|YOffset=0mm|HoleType=Round|Shape=RoundedRectangle|*
%AMROUNDEDRECTD27*
21,1,1.00000,0.90000,0,0,0.0*
21,1,0.70000,1.20000,0,0,0.0*
1,1,0.30000,0.35000,-0.45000*
1,1,0.30000,-0.35000,-0.45000*
1,1,0.30000,-0.35000,0.45000*
1,1,0.30000,0.35000,0.45000*
%
%ADD27ROUNDEDRECTD27*%
G04:AMPARAMS|DCode=28|XSize=1mm|YSize=1.8mm|CornerRadius=0.25mm|HoleSize=0mm|Usage=FLASHONLY|Rotation=180.000|XOffset=0mm|YOffset=0mm|HoleType=Round|Shape=RoundedRectangle|*
%AMROUNDEDRECTD28*
21,1,1.00000,1.30000,0,0,180.0*
21,1,0.50000,1.80000,0,0,180.0*
1,1,0.50000,-0.25000,0.65000*
1,1,0.50000,0.25000,0.65000*
1,1,0.50000,0.25000,-0.65000*
1,1,0.50000,-0.25000,-0.65000*
%
%ADD28ROUNDEDRECTD28*%
%ADD29R,1.40000X2.00000*%
%ADD30R,1.05000X1.00000*%
%ADD31R,0.16000X0.16000*%
%ADD32O,1.00000X0.60000*%
%AMCUSTOMSHAPE33*
4,1,4,0.37500,-0.50000,0.37500,0.50000,-0.37500,0.50000,-0.37500,-0.50000,0.37500,-0.50000,0.0*%
%ADD33CUSTOMSHAPE33*%

%AMCUSTOMSHAPE34*
4,1,4,0.50000,0.37500,-0.50000,0.37500,-0.50000,-0.37500,0.50000,-0.37500,0.50000,0.37500,0.0*%
%ADD34CUSTOMSHAPE34*%

%ADD35O,0.60000X1.50000*%
%AMCUSTOMSHAPE36*
4,1,4,-0.71700,-0.60000,0.97500,-0.60000,0.97500,0.60000,-0.71700,0.60000,-0.71700,-0.60000,0.0*%
%ADD36CUSTOMSHAPE36*%

%AMCUSTOMSHAPE37*
4,1,4,-0.97500,-0.60000,0.72500,-0.60000,0.72500,0.60000,-0.97500,0.60000,-0.97500,-0.60000,0.0*%
%ADD37CUSTOMSHAPE37*%

%ADD38R,0.95000X1.00000*%
%AMCUSTOMSHAPE39*
4,1,4,0.40000,0.20000,-0.40000,0.20000,-0.40000,-0.20000,0.40000,-0.20000,0.40000,0.20000,0.0*%
%ADD39CUSTOMSHAPE39*%

%TA.AperFunction,Conductor*%
%ADD40C,0.25400*%
%ADD41C,0.16000*%
%ADD42C,0.30000*%
%ADD43C,0.25240*%
%ADD44C,0.38100*%
%ADD45C,0.50000*%
%ADD46C,0.40000*%
%ADD47C,0.20000*%
%ADD48C,0.80000*%
%TA.AperFunction,ComponentPad*%
%ADD49O,1.70000X2.70000*%
%ADD50C,1.10000*%
%ADD51C,1.40000*%
G04:AMPARAMS|DCode=52|XSize=1.4mm|YSize=1.4mm|CornerRadius=0.35mm|HoleSize=0mm|Usage=FLASHONLY|Rotation=0.000|XOffset=0mm|YOffset=0mm|HoleType=Round|Shape=RoundedRectangle|*
%AMROUNDEDRECTD52*
21,1,1.40000,0.70000,0,0,0.0*
21,1,0.70000,1.40000,0,0,0.0*
1,1,0.70000,0.35000,-0.35000*
1,1,0.70000,-0.35000,-0.35000*
1,1,0.70000,-0.35000,0.35000*
1,1,0.70000,0.35000,0.35000*
%
%ADD52ROUNDEDRECTD52*%
%ADD53R,6.00000X6.00000*%
G04:AMPARAMS|DCode=54|XSize=2.6mm|YSize=2.6mm|CornerRadius=0.65mm|HoleSize=0mm|Usage=FLASHONLY|Rotation=180.000|XOffset=0mm|YOffset=0mm|HoleType=Round|Shape=RoundedRectangle|*
%AMROUNDEDRECTD54*
21,1,2.60000,1.30000,0,0,180.0*
21,1,1.30000,2.60000,0,0,180.0*
1,1,1.30000,-0.65000,0.65000*
1,1,1.30000,0.65000,0.65000*
1,1,1.30000,0.65000,-0.65000*
1,1,1.30000,-0.65000,-0.65000*
%
%ADD54ROUNDEDRECTD54*%
%ADD55C,1.60000*%
%ADD56C,2.60000*%
%TA.AperFunction,ViaPad*%
%ADD57C,0.46000*%
%ADD58C,0.56000*%
%ADD59C,5.45000*%
G36*
X8473220Y8501550D02*
X8487709Y8495549D01*
X8500747Y8486837D01*
X8511837Y8475747D01*
X8520548Y8462709D01*
X8526550Y8448221D01*
X8529609Y8432841D01*
Y8425000D01*
Y2625000D01*
Y2617159D01*
X8526550Y2601780D01*
X8520549Y2587291D01*
X8511837Y2574252D01*
X8500747Y2563163D01*
X8487709Y2554451D01*
X8473222Y2548450D01*
X8457840Y2545391D01*
X6645885D01*
X6641574Y2558091D01*
X6658738Y2571262D01*
X6676434Y2594323D01*
X6687558Y2621180D01*
X6691353Y2650000D01*
Y2687300D01*
X6580000D01*
X6468647D01*
Y2661236D01*
X5961353D01*
Y2687300D01*
X5850000D01*
X5738647D01*
Y2650000D01*
X5742442Y2621180D01*
X5753566Y2594323D01*
X5771262Y2571262D01*
X5788426Y2558091D01*
X5784115Y2545391D01*
X4540000D01*
Y2668778D01*
X4552700Y2674039D01*
X4636725Y2590030D01*
X4636725Y2590029D01*
X4636727Y2590028D01*
X4640861Y2587266D01*
X4645888Y2583907D01*
X4645889Y2583907D01*
X4645890Y2583906D01*
X4653356Y2582422D01*
X4656696Y2581757D01*
X4656699Y2581757D01*
X4656700Y2581757D01*
X4809999D01*
X4810000Y2581757D01*
X4820808Y2583907D01*
X4829971Y2590029D01*
X4949968Y2710026D01*
X4949969Y2710027D01*
X4956091Y2719189D01*
X4958241Y2729998D01*
Y2854502D01*
X4962213Y2858474D01*
X4967998Y2872441D01*
Y2887558D01*
X4962213Y2901525D01*
X4951523Y2912214D01*
X4937556Y2917999D01*
X4931199D01*
X4910073Y2939127D01*
X4910072Y2939129D01*
X4904801Y2942651D01*
X4900151Y2945758D01*
X4900149Y2945759D01*
X4900149Y2945759D01*
X4896029Y2946579D01*
X4888445Y2948088D01*
X4888444Y2948088D01*
X4862501D01*
Y3012502D01*
X4732501D01*
Y2887502D01*
X4827032D01*
X4829996Y2886912D01*
X4829997Y2886912D01*
X4875772D01*
X4893240Y2869442D01*
X4897783Y2858474D01*
X4901755Y2854502D01*
Y2741696D01*
X4887925Y2727867D01*
X4876192Y2732727D01*
Y2737302D01*
X4800001D01*
Y2750002D01*
X4787301D01*
Y2836193D01*
X4765001D01*
X4749237Y2833058D01*
X4735874Y2824129D01*
X4726945Y2810765D01*
X4726172Y2806880D01*
X4713595Y2806712D01*
X4713204Y2806787D01*
X4706627Y2816631D01*
X4696704Y2823261D01*
X4684998Y2825590D01*
X4678241D01*
Y2887502D01*
X4717498D01*
Y3012502D01*
X4593943D01*
Y3166861D01*
X4591793Y3177669D01*
X4585671Y3186831D01*
X4561830Y3210673D01*
X4552667Y3216795D01*
X4541859Y3218945D01*
X4541858Y3218945D01*
X3908142D01*
X3908141Y3218945D01*
X3897333Y3216795D01*
X3888170Y3210673D01*
X3888169Y3210672D01*
X3855740Y3178243D01*
X3261701D01*
X2998244Y3441699D01*
Y3589999D01*
X2998245Y3590000D01*
X2996095Y3600808D01*
X2989972Y3609971D01*
X2989972Y3609972D01*
X2901413Y3698531D01*
X2908607Y3709297D01*
X2929672Y3700572D01*
X2959695Y3694600D01*
X2962300D01*
Y3850000D01*
Y4005400D01*
X2959695D01*
X2929672Y3999428D01*
X2901391Y3987714D01*
X2875939Y3970707D01*
X2854294Y3949062D01*
X2837287Y3923609D01*
X2830945Y3908299D01*
X2818245Y3910825D01*
Y3988303D01*
X3074971Y4245030D01*
X3081093Y4254192D01*
X3083243Y4265000D01*
X3083243Y4265002D01*
Y4315002D01*
X3122500D01*
Y4348096D01*
X3135200Y4351309D01*
X3145490Y4345258D01*
Y4330141D01*
X3151275Y4316174D01*
X3160711Y4306738D01*
X3160863Y4306431D01*
X3160272Y4301536D01*
X3156986Y4293869D01*
X3155227D01*
X3141261Y4288084D01*
X3130571Y4277394D01*
X3124786Y4263428D01*
Y4248311D01*
X3130571Y4234344D01*
X3141261Y4223654D01*
X3144210Y4222433D01*
X3147198Y4212583D01*
X3145413Y4203609D01*
X3145413Y4203608D01*
Y4187136D01*
X3135392Y4177115D01*
X3129607Y4163148D01*
Y4148031D01*
X3135392Y4134065D01*
X3146081Y4123375D01*
X3160048Y4117590D01*
X3163976D01*
X3164049Y4117501D01*
X3164050Y4117500D01*
Y4087789D01*
X3155285Y4079025D01*
X3149500Y4065058D01*
Y4049941D01*
X3155285Y4035975D01*
X3165975Y4025285D01*
X3179942Y4019500D01*
X3195059D01*
X3209025Y4025285D01*
X3219715Y4035975D01*
X3225500Y4049941D01*
Y4065058D01*
X3219715Y4079025D01*
X3210951Y4087789D01*
Y4100172D01*
X3215629Y4103440D01*
X3217596Y4103767D01*
X3231712Y4100215D01*
X3233246Y4097918D01*
X3255400Y4075764D01*
X3263008Y4070681D01*
X3271983Y4068896D01*
X3279522D01*
X3285559Y4062858D01*
Y4058582D01*
X3291344Y4044615D01*
X3302034Y4033926D01*
X3316000Y4028141D01*
X3331117D01*
X3345084Y4033926D01*
X3355774Y4044615D01*
X3359297Y4053121D01*
X3361802Y4058649D01*
X3374259Y4062109D01*
X3375000Y4061961D01*
X3385730Y4064096D01*
X3394826Y4070173D01*
X3405174D01*
X3414270Y4064096D01*
X3425000Y4061961D01*
X3430662Y4063087D01*
X3442553Y4056513D01*
X3444313Y4054556D01*
X3445164Y4048404D01*
X3442785Y4046024D01*
X3436999Y4032057D01*
Y4016940D01*
X3440541Y4008391D01*
X3433474Y3995690D01*
X3410000D01*
X3389115Y3992941D01*
X3369654Y3984880D01*
X3352943Y3972057D01*
X3340120Y3955345D01*
X3332059Y3935884D01*
X3329309Y3915000D01*
Y3785000D01*
X3332059Y3764116D01*
X3340120Y3744655D01*
X3352943Y3727943D01*
X3369654Y3715120D01*
X3389115Y3707059D01*
X3410000Y3704310D01*
X3539999D01*
X3560883Y3707059D01*
X3580344Y3715120D01*
X3597056Y3727943D01*
X3609879Y3744655D01*
X3617940Y3764116D01*
X3620690Y3785000D01*
Y3915000D01*
X3617940Y3935884D01*
X3613008Y3947791D01*
X3622833Y3954826D01*
X3623687Y3955197D01*
X3637442Y3949500D01*
X3652559D01*
X3666525Y3955285D01*
X3677215Y3965975D01*
X3683000Y3979941D01*
Y3995059D01*
X3677215Y4009025D01*
X3666525Y4019715D01*
X3662710Y4021295D01*
Y4025743D01*
X3662711Y4025744D01*
X3660925Y4034718D01*
X3655842Y4042326D01*
X3661529Y4053158D01*
X3662231Y4053897D01*
X3662300Y4053884D01*
Y4125000D01*
X3687700D01*
Y4052254D01*
X3692422Y4051079D01*
X3697868Y4044423D01*
X3698909Y4039191D01*
X3705031Y4030029D01*
X3736999Y3998061D01*
Y3992444D01*
X3742784Y3978477D01*
X3753474Y3967787D01*
X3767440Y3962002D01*
X3782557D01*
X3796524Y3967787D01*
X3800496Y3971759D01*
X4058301D01*
X4087078Y3942982D01*
X4088186Y3937413D01*
X4094308Y3928250D01*
X4124500Y3898059D01*
Y3892442D01*
X4130285Y3878475D01*
X4140975Y3867785D01*
X4154941Y3862000D01*
X4170058D01*
X4184025Y3867785D01*
X4194715Y3878475D01*
X4200500Y3892442D01*
Y3907559D01*
X4194715Y3921525D01*
X4184025Y3932215D01*
X4170058Y3938000D01*
X4164441D01*
X4141480Y3960962D01*
X4140372Y3966531D01*
X4134250Y3975694D01*
X4089970Y4019973D01*
X4080808Y4026095D01*
X4069999Y4028245D01*
X4069998Y4028245D01*
X3800496D01*
X3796524Y4032217D01*
X3782557Y4038002D01*
X3776940D01*
X3753244Y4061698D01*
Y4125001D01*
X3753039Y4126034D01*
Y4149748D01*
X3755000Y4151358D01*
X3777300D01*
Y4190000D01*
X3790000D01*
Y4202700D01*
X3861116D01*
X3860701Y4204788D01*
X3852325Y4217324D01*
X3850168Y4228168D01*
X3850905Y4229270D01*
X3853039Y4240000D01*
X3850905Y4250730D01*
X3850799Y4250888D01*
X3855582Y4265374D01*
X3858709Y4266687D01*
X3872444Y4260998D01*
X3887561D01*
X3901528Y4266783D01*
X3912217Y4277473D01*
X3918002Y4291439D01*
Y4306556D01*
X3912217Y4320523D01*
X3905743Y4326998D01*
X3912217Y4333472D01*
X3918002Y4347439D01*
Y4362556D01*
X3912217Y4376523D01*
X3905743Y4382998D01*
X3912217Y4389472D01*
X3918002Y4403439D01*
Y4418556D01*
X3917198Y4420498D01*
X3924254Y4431057D01*
X4005203D01*
X4009175Y4427085D01*
X4023142Y4421300D01*
X4038259D01*
X4052226Y4427085D01*
X4062915Y4437775D01*
X4068701Y4451742D01*
Y4466859D01*
X4066447Y4472300D01*
X4074933Y4485000D01*
X4540000D01*
Y5115000D01*
X3959244D01*
X3953983Y5127700D01*
X4077833Y5251550D01*
X4117210D01*
X4125622Y5243139D01*
X4139589Y5237354D01*
X4154706D01*
X4168672Y5243139D01*
X4179362Y5253828D01*
X4185147Y5267795D01*
Y5282912D01*
X4179362Y5296879D01*
X4168672Y5307569D01*
X4154706Y5313354D01*
X4139589D01*
X4125622Y5307569D01*
X4116505Y5298451D01*
X4068121D01*
X4068120Y5298452D01*
X4059146Y5296666D01*
X4051538Y5291583D01*
X4051537Y5291582D01*
X3951304Y5191349D01*
X3938604Y5196609D01*
Y5197665D01*
X3932818Y5211632D01*
X3922129Y5222321D01*
X3908162Y5228106D01*
X3903472D01*
X3903005Y5228330D01*
X3894035Y5240807D01*
X3894334Y5242311D01*
Y5258829D01*
X3903099Y5267593D01*
X3908884Y5281560D01*
Y5296677D01*
X3903099Y5310643D01*
X3892409Y5321333D01*
X3878442Y5327118D01*
X3863325D01*
X3854748Y5323565D01*
X3851293Y5331907D01*
X3840603Y5342596D01*
X3840327Y5342711D01*
X3842853Y5355411D01*
X3903862D01*
X3903863Y5355411D01*
X3912837Y5357196D01*
X3920445Y5362279D01*
X3993165Y5434999D01*
X4092501D01*
Y5476549D01*
X4112212D01*
X4120976Y5467784D01*
X4134943Y5461999D01*
X4150060D01*
X4164026Y5467784D01*
X4174716Y5478474D01*
X4180501Y5492441D01*
Y5507558D01*
X4174716Y5521524D01*
X4164026Y5532214D01*
X4150060Y5537999D01*
X4134943D01*
X4120976Y5532214D01*
X4112212Y5523450D01*
X4092501D01*
Y5564999D01*
X3957501D01*
Y5474787D01*
X3955199Y5473249D01*
X3942499Y5480037D01*
Y5564999D01*
X3807499D01*
Y5468163D01*
X3780198Y5440862D01*
X3767498Y5446122D01*
Y5564999D01*
X3632498D01*
Y5445812D01*
X3624999Y5441483D01*
X3617501Y5445812D01*
Y5564999D01*
X3482501D01*
Y5481448D01*
X3397515D01*
X3388541Y5479663D01*
X3380933Y5474580D01*
X3333419Y5427066D01*
X3328335Y5419458D01*
X3326550Y5410484D01*
X3326550Y5410482D01*
Y5364404D01*
X3324096Y5360730D01*
X3321962Y5350000D01*
Y5290252D01*
X3320000Y5288642D01*
X3297700D01*
Y5250000D01*
X3272300D01*
Y5288642D01*
X3250000D01*
X3235212Y5285701D01*
X3224053Y5278245D01*
X3211697D01*
X3202903Y5287039D01*
Y5312298D01*
X3125003D01*
Y5324998D01*
X3112303D01*
Y5400398D01*
X3054378D01*
X3049118Y5413098D01*
X3326464Y5690445D01*
X3338140Y5688122D01*
X3348829Y5677433D01*
X3362796Y5671648D01*
X3377913D01*
X3391880Y5677433D01*
X3402570Y5688122D01*
X3408355Y5702089D01*
Y5717206D01*
X3402570Y5731173D01*
X3393861Y5739881D01*
X3389664Y5753644D01*
X3440089Y5804070D01*
X3718274D01*
X3724888Y5794171D01*
Y5779054D01*
X3730673Y5765087D01*
X3741363Y5754398D01*
X3755330Y5748613D01*
X3770447D01*
X3784413Y5754398D01*
X3796863Y5748887D01*
Y5705001D01*
X3799386Y5692320D01*
X3801551Y5689080D01*
Y5675287D01*
X3792786Y5666523D01*
X3787001Y5652556D01*
Y5637439D01*
X3792786Y5623472D01*
X3803476Y5612783D01*
X3817443Y5606998D01*
X3832560D01*
X3846526Y5612783D01*
X3857216Y5623472D01*
X3863001Y5637439D01*
Y5652556D01*
X3859018Y5662173D01*
X3869277Y5670592D01*
X3878260Y5664590D01*
X3882299Y5663787D01*
Y5730001D01*
Y5796216D01*
X3878260Y5795412D01*
X3864069Y5785931D01*
X3859060Y5778432D01*
X3853431D01*
X3842681Y5785616D01*
X3830000Y5788138D01*
X3821312Y5786410D01*
X3810024Y5792170D01*
X3807569Y5794375D01*
X3806411Y5801157D01*
X3809909Y5805580D01*
X3813123Y5806220D01*
X3816572Y5808525D01*
X3822285Y5812342D01*
X3822285Y5812342D01*
X3903492Y5893554D01*
X3907679Y5894386D01*
X3918430Y5901570D01*
X3919863Y5903715D01*
X3935138D01*
X3936571Y5901570D01*
X3947322Y5894386D01*
X3960002Y5891864D01*
X3972683Y5894386D01*
X3983433Y5901570D01*
X3990616Y5912320D01*
X3993139Y5925001D01*
Y5975001D01*
X3990616Y5987682D01*
X3987088Y5992962D01*
Y6004963D01*
X3989849Y6006107D01*
X4000538Y6016796D01*
X4006323Y6030763D01*
Y6045880D01*
X4000538Y6059847D01*
X3989849Y6070537D01*
X3975882Y6076322D01*
X3960765D01*
X3946798Y6070537D01*
X3936108Y6059847D01*
X3935941Y6059444D01*
X3923241Y6061970D01*
Y6154283D01*
X3922075Y6160148D01*
X3921092Y6165090D01*
X3921092Y6165090D01*
X3921091Y6165091D01*
X3918016Y6169694D01*
X3914970Y6174253D01*
X3875545Y6213682D01*
Y6303108D01*
X3888245Y6311456D01*
X3900002Y6309117D01*
X3940002D01*
X3942447Y6309603D01*
X3944531Y6307862D01*
X3950442Y6298245D01*
X3946097Y6287755D01*
Y6272637D01*
X3951882Y6258671D01*
X3962572Y6247981D01*
X3976538Y6242196D01*
X3991655D01*
X4005622Y6247981D01*
X4016312Y6258671D01*
X4022097Y6272637D01*
Y6287755D01*
X4016312Y6301721D01*
X4007903Y6310130D01*
Y6310549D01*
X4006118Y6319523D01*
X4001034Y6327131D01*
X3983774Y6344391D01*
X3985884Y6354999D01*
X3982391Y6372557D01*
X3972445Y6387442D01*
X3960470Y6395443D01*
X3959567Y6399219D01*
Y6405779D01*
X3960470Y6409555D01*
X3972445Y6417557D01*
X3975252Y6421757D01*
X5318303D01*
X6085031Y5655029D01*
X6094194Y5648907D01*
X6105002Y5646757D01*
X6515002D01*
Y5560000D01*
X6605694D01*
X6923924Y5241770D01*
Y5129291D01*
X6928193Y5107831D01*
X6940348Y5089639D01*
X7154673Y4875309D01*
X7149813Y4863576D01*
X6856238D01*
Y4879999D01*
X6851482Y4891479D01*
X6840002Y4896235D01*
X6731207D01*
X6678242Y4949200D01*
Y5110001D01*
X6678242Y5110002D01*
X6676092Y5120811D01*
X6669970Y5129973D01*
X6329971Y5469973D01*
X6320808Y5476095D01*
X6310000Y5478245D01*
X6309999Y5478245D01*
X5862499D01*
Y5512502D01*
X5732499D01*
Y5387502D01*
X5769256D01*
Y5018432D01*
X5756556Y5011644D01*
X5750609Y5015618D01*
X5740589Y5017611D01*
Y5055000D01*
X5752498D01*
Y5185000D01*
X5618453Y5185000D01*
X5612901Y5195401D01*
X5611945Y5195400D01*
X5611944Y5195400D01*
X5547700D01*
Y5120000D01*
Y5044600D01*
X5611944D01*
X5611945Y5044600D01*
X5612901D01*
X5618453Y5055000D01*
X5625601Y5055000D01*
X5679414D01*
Y5017611D01*
X5669394Y5015618D01*
X5656163Y5006777D01*
X5647322Y4993546D01*
X5644218Y4977939D01*
Y4847939D01*
X5647322Y4832332D01*
X5654535Y4821537D01*
X5651678Y4812755D01*
X5648909Y4808837D01*
X5645373D01*
X5627584Y4801469D01*
X5613969Y4787854D01*
X5607873Y4773138D01*
X5655000D01*
Y4747738D01*
X5607873D01*
X5613969Y4733021D01*
X5627584Y4719406D01*
X5645373Y4712038D01*
X5657254D01*
X5662514Y4699338D01*
X5483287Y4520110D01*
X5470587Y4525371D01*
Y4807156D01*
X5484999D01*
X5500606Y4810260D01*
X5513838Y4819101D01*
X5522678Y4832332D01*
X5525783Y4847939D01*
Y4977939D01*
X5522678Y4993546D01*
X5513838Y5006777D01*
X5500606Y5015618D01*
X5484999Y5018722D01*
X5434999D01*
X5419392Y5015618D01*
X5406161Y5006777D01*
X5397320Y4993546D01*
X5395201Y4982891D01*
X5382501Y4984142D01*
Y5014998D01*
X5248451Y5014998D01*
X5242899Y5025398D01*
X5241948Y5025398D01*
X5241948Y5025398D01*
X5177699D01*
Y4949998D01*
Y4874598D01*
X5241947D01*
X5241948Y4874597D01*
X5242899D01*
X5248451Y4884998D01*
X5255599Y4884998D01*
X5382501D01*
Y4884998D01*
X5394216Y4882620D01*
Y4847939D01*
X5397320Y4832332D01*
X5406161Y4819101D01*
X5409412Y4816929D01*
Y4354999D01*
X5409411Y4354998D01*
X5411740Y4343292D01*
X5418370Y4333369D01*
X5465796Y4285943D01*
X5460536Y4273243D01*
X5335000D01*
Y4835001D01*
X5105000D01*
Y4303241D01*
X4942502D01*
Y4314999D01*
X4808452Y4314999D01*
X4802900Y4325400D01*
X4801949Y4325400D01*
X4801948Y4325399D01*
X4737699D01*
Y4249999D01*
Y4174599D01*
X4801948D01*
X4801949Y4174599D01*
X4802900D01*
X4808452Y4184999D01*
X4815600Y4184999D01*
X4942502D01*
Y4246755D01*
X5105000D01*
Y4205001D01*
X5231005D01*
Y4184742D01*
X5227033Y4180770D01*
X5221248Y4166803D01*
Y4151686D01*
X5227033Y4137720D01*
X5237722Y4127030D01*
X5239931Y4112369D01*
X5236762Y4108245D01*
X4937502D01*
Y4122502D01*
X4847442D01*
X4819774Y4150173D01*
X4819773Y4150173D01*
X4810611Y4156295D01*
X4810610Y4156295D01*
X4806273Y4157158D01*
X4799803Y4158446D01*
X4799802Y4158445D01*
X4668100D01*
X4668098Y4158446D01*
X4657290Y4156295D01*
X4648128Y4150173D01*
X4648127Y4150173D01*
X4580030Y4082076D01*
X4573908Y4072913D01*
X4571758Y4062105D01*
X4571758Y4062104D01*
Y3855299D01*
X4569440Y3852981D01*
X4563655Y3839014D01*
Y3823897D01*
X4569440Y3809930D01*
X4580129Y3799241D01*
X4594096Y3793455D01*
X4609213D01*
X4623180Y3799241D01*
X4633869Y3809930D01*
X4634399Y3811210D01*
X4647099Y3808684D01*
Y3794600D01*
X4712299D01*
Y3870000D01*
Y3945400D01*
X4662571D01*
X4658401Y3947127D01*
Y3900000D01*
X4633001D01*
Y3950453D01*
X4628244Y3953632D01*
Y4050406D01*
X4650766Y4072928D01*
X4662499Y4068068D01*
Y3997502D01*
X4752557D01*
X4780227Y3969832D01*
X4780228Y3969831D01*
X4789390Y3963709D01*
X4800199Y3961559D01*
X4931901D01*
X4931903Y3961558D01*
X4932900Y3961757D01*
X5164257D01*
X5179283Y3946731D01*
X5174423Y3934998D01*
X5105000D01*
Y3898243D01*
X4942502D01*
Y3935000D01*
X4807502D01*
X4802899Y3945400D01*
X4737699D01*
Y3870000D01*
Y3794600D01*
X4802899D01*
X4807502Y3805000D01*
X4942502D01*
Y3841757D01*
X5105000D01*
Y3304998D01*
X5335000D01*
Y3706656D01*
X5335024Y3706779D01*
X5335000Y3706903D01*
Y3934998D01*
X5253301D01*
X5248243Y3945956D01*
X5246093Y3956764D01*
X5239970Y3965927D01*
X5239970Y3965927D01*
X5195927Y4009970D01*
X5186764Y4016093D01*
X5175956Y4018243D01*
X5175955Y4018242D01*
X4937502D01*
Y4051759D01*
X5259998D01*
X5259999Y4051759D01*
X5270807Y4053909D01*
X5279970Y4060031D01*
X5279971Y4060032D01*
X5386699Y4166755D01*
X5459132D01*
X5467617Y4154055D01*
X5466998Y4152559D01*
Y4137442D01*
X5472783Y4123475D01*
X5483473Y4112786D01*
X5497439Y4107001D01*
X5512556D01*
X5519845Y4110020D01*
X5530548Y4100707D01*
X5529413Y4094998D01*
X5531741Y4083293D01*
X5534429Y4079270D01*
X5537320Y4069999D01*
X5534429Y4060729D01*
X5531741Y4056706D01*
X5529413Y4045001D01*
X5531741Y4033295D01*
X5534431Y4029269D01*
X5537320Y4020000D01*
X5534431Y4010730D01*
X5531741Y4006704D01*
X5529413Y3994998D01*
X5531741Y3983293D01*
X5534429Y3979270D01*
X5537320Y3970000D01*
X5534429Y3960729D01*
X5531741Y3956706D01*
X5529413Y3945001D01*
X5531741Y3933296D01*
X5535709Y3927356D01*
X5530874Y3924125D01*
X5521945Y3910762D01*
X5521335Y3907699D01*
X5615000D01*
Y3882299D01*
X5521335D01*
X5521945Y3879235D01*
X5530874Y3865872D01*
X5535707Y3862642D01*
X5531741Y3856707D01*
X5529413Y3845001D01*
X5531741Y3833296D01*
X5534431Y3829269D01*
X5537320Y3820000D01*
X5534431Y3810731D01*
X5531741Y3806704D01*
X5529413Y3794999D01*
X5531039Y3786824D01*
X5523756Y3774124D01*
X5434616D01*
X5429025Y3779715D01*
X5415059Y3785500D01*
X5399941D01*
X5385975Y3779715D01*
X5375285Y3769025D01*
X5369500Y3755059D01*
Y3739941D01*
X5375285Y3725975D01*
X5385975Y3715285D01*
X5399941Y3709500D01*
X5415059D01*
X5429025Y3715285D01*
X5431379Y3717638D01*
X5523773D01*
X5529608Y3709631D01*
X5531390Y3704938D01*
X5529413Y3694999D01*
X5531741Y3683294D01*
X5538371Y3673370D01*
X5548295Y3666740D01*
X5560000Y3664411D01*
X5670000D01*
X5681705Y3666740D01*
X5691629Y3673370D01*
X5698259Y3683294D01*
X5699948Y3691781D01*
X5726217Y3718051D01*
X5793909D01*
X5797485Y3712698D01*
X5847939D01*
Y3687298D01*
X5800811D01*
X5806907Y3672581D01*
X5820522Y3658966D01*
X5836759Y3652240D01*
Y3586815D01*
X5832678Y3583342D01*
X5824480Y3578701D01*
X5820436Y3579506D01*
X5779970Y3619968D01*
X5779969Y3619969D01*
X5770807Y3626091D01*
X5770806Y3626091D01*
X5759997Y3628241D01*
X5759996Y3628241D01*
X5525496D01*
X5521524Y3632213D01*
X5507558Y3637998D01*
X5492441D01*
X5478474Y3632213D01*
X5467784Y3621523D01*
X5461999Y3607556D01*
Y3592439D01*
X5467784Y3578473D01*
X5478474Y3567783D01*
X5492441Y3561998D01*
X5507558D01*
X5521524Y3567783D01*
X5525496Y3571755D01*
X5748301D01*
X5784412Y3535647D01*
Y3440000D01*
X5778589Y3432904D01*
X5737999D01*
X5729025Y3431119D01*
X5721417Y3426036D01*
X5721417Y3426035D01*
X5696319Y3400938D01*
X5686443D01*
X5672477Y3395152D01*
X5661787Y3384463D01*
X5656002Y3370496D01*
Y3355379D01*
X5661787Y3341412D01*
X5672477Y3330723D01*
X5686443Y3324938D01*
X5701560D01*
X5715527Y3330723D01*
X5719529Y3334724D01*
X5735975Y3336239D01*
X5749942Y3330454D01*
X5765059D01*
X5779026Y3336239D01*
X5789715Y3346928D01*
X5791841Y3352061D01*
X5803574Y3347455D01*
Y3332338D01*
X5809359Y3318371D01*
X5820049Y3307682D01*
X5829092Y3303936D01*
X5826566Y3291236D01*
X5775000D01*
X5763520Y3286481D01*
X5758764Y3275000D01*
Y3025000D01*
X5763520Y3013519D01*
X5775000Y3008764D01*
X5915000D01*
X5926481Y3013519D01*
X5931236Y3025000D01*
Y3269539D01*
X5935442Y3272349D01*
X5950559D01*
X5964525Y3278134D01*
X5975215Y3288824D01*
X5976344Y3291549D01*
X5989999D01*
X5990000Y3291549D01*
X5998974Y3293335D01*
X6006582Y3298418D01*
X6079422Y3371258D01*
X6090189Y3364064D01*
X6088323Y3359558D01*
Y3344441D01*
X6094108Y3330475D01*
X6104797Y3319785D01*
X6118764Y3314000D01*
X6133881D01*
X6147848Y3319785D01*
X6158537Y3330475D01*
X6164322Y3344441D01*
Y3359558D01*
X6158537Y3373525D01*
X6147848Y3384215D01*
X6133881Y3390000D01*
X6118764D01*
X6114259Y3388134D01*
X6107064Y3398900D01*
X6118216Y3410052D01*
X6126705Y3411740D01*
X6130731Y3414431D01*
X6140000Y3417319D01*
X6149270Y3414431D01*
X6153296Y3411740D01*
X6165002Y3409412D01*
X6174056Y3411213D01*
X6183016Y3406367D01*
X6186756Y3403180D01*
Y3381570D01*
X6186756Y3381568D01*
X6188906Y3370760D01*
X6195028Y3361598D01*
X6198803Y3357822D01*
Y3348058D01*
X6204589Y3334091D01*
X6215278Y3323402D01*
X6229245Y3317616D01*
X6244362D01*
X6248445Y3319308D01*
X6249737Y3318444D01*
X6255522Y3304478D01*
X6266211Y3293788D01*
X6280178Y3288003D01*
X6295295D01*
X6309262Y3293788D01*
X6319952Y3304478D01*
X6325737Y3318444D01*
Y3333562D01*
X6320871Y3345309D01*
X6324230Y3353523D01*
X6327431Y3358009D01*
X6507754D01*
X6508475Y3357289D01*
X6522441Y3351504D01*
X6537558D01*
X6551525Y3357289D01*
X6562215Y3367978D01*
X6563410Y3370865D01*
X6578391Y3373845D01*
X6592208Y3360028D01*
X6601371Y3353905D01*
X6612179Y3351755D01*
X6612180Y3351756D01*
X6740000D01*
X6740002Y3351755D01*
X6750810Y3353905D01*
X6759973Y3360028D01*
X6994223Y3594278D01*
X7006376Y3590591D01*
X7007313Y3585884D01*
X7019557Y3567559D01*
X7037882Y3555314D01*
X7046798Y3553541D01*
Y3652500D01*
Y3751459D01*
X7046344Y3751368D01*
X7033644Y3760965D01*
Y4071008D01*
X7046344Y4076223D01*
X7051475Y4072222D01*
X7052877Y4070336D01*
Y4062557D01*
X7058662Y4048590D01*
X7069352Y4037900D01*
X7083318Y4032115D01*
X7098435D01*
X7112402Y4037900D01*
X7123092Y4048590D01*
X7128877Y4062557D01*
Y4077674D01*
X7123092Y4091641D01*
X7112402Y4102330D01*
X7098435Y4108115D01*
X7098393D01*
X7094361Y4112147D01*
Y4123681D01*
X7101887Y4134944D01*
X7105380Y4152502D01*
Y4242502D01*
X7101887Y4260060D01*
X7095877Y4269056D01*
X7102665Y4281756D01*
X7140000D01*
X7140001Y4281756D01*
X7144454Y4282642D01*
X7151064Y4272749D01*
X7151479Y4271091D01*
X7144109Y4260060D01*
X7140617Y4242502D01*
Y4152502D01*
X7144109Y4134944D01*
X7154055Y4120059D01*
X7156287Y4118568D01*
Y4089468D01*
X7150346Y4083527D01*
X7144561Y4069561D01*
Y4054444D01*
X7150346Y4040477D01*
X7161035Y4029787D01*
X7175002Y4024002D01*
X7190119D01*
X7204086Y4029787D01*
X7214776Y4040477D01*
X7220561Y4054444D01*
Y4069561D01*
X7214776Y4083527D01*
X7212772Y4085531D01*
Y4115937D01*
X7218941Y4120059D01*
X7228887Y4134944D01*
X7232380Y4152502D01*
Y4169260D01*
X7267617D01*
Y4152502D01*
X7271109Y4134944D01*
X7281055Y4120059D01*
X7295940Y4110113D01*
X7313498Y4106621D01*
X7331056Y4110113D01*
X7345941Y4120059D01*
X7355887Y4134944D01*
X7359380Y4152502D01*
Y4242502D01*
X7355887Y4260060D01*
X7345941Y4274945D01*
X7331056Y4284891D01*
X7313498Y4288384D01*
X7295940Y4284891D01*
X7281055Y4274945D01*
X7271109Y4260060D01*
X7267617Y4242502D01*
Y4225745D01*
X7232380D01*
Y4242502D01*
X7228887Y4260060D01*
X7218941Y4274945D01*
X7204056Y4284891D01*
X7186498Y4288384D01*
X7173752Y4285848D01*
X7167496Y4297553D01*
X7289968Y4420030D01*
X7289969Y4420031D01*
X7296091Y4429194D01*
X7298241Y4440002D01*
X7298241Y4440003D01*
Y4580001D01*
X7296091Y4590809D01*
X7289969Y4599972D01*
X7289968Y4599972D01*
X7151219Y4738722D01*
X7155072Y4751421D01*
X7442500D01*
X7463960Y4755690D01*
X7482152Y4767846D01*
X7487483Y4773177D01*
X7499217Y4768317D01*
Y4729391D01*
X7421061Y4651235D01*
X7415753Y4650179D01*
X7402522Y4641338D01*
X7402522Y4641338D01*
X7376162Y4614978D01*
X7367321Y4601747D01*
X7364216Y4586140D01*
X7364217Y4586138D01*
Y4473862D01*
X7364216Y4473860D01*
X7367321Y4458253D01*
X7374218Y4447931D01*
Y4359927D01*
X7374218Y4359926D01*
X7377322Y4344318D01*
X7386163Y4331087D01*
X7386164Y4331086D01*
X7420817Y4296432D01*
X7417819Y4281469D01*
X7408055Y4274945D01*
X7398109Y4260060D01*
X7394617Y4242502D01*
Y4152502D01*
X7397156Y4139738D01*
X7379400Y4121983D01*
X7373278Y4112820D01*
X7371127Y4102012D01*
X7371128Y4102011D01*
Y4094764D01*
X7363214Y4086850D01*
X7357429Y4072884D01*
Y4057767D01*
X7363214Y4043800D01*
X7373904Y4033110D01*
X7387870Y4027325D01*
X7402987D01*
X7416954Y4033110D01*
X7427644Y4043800D01*
X7433429Y4057767D01*
Y4072884D01*
X7427644Y4086850D01*
X7427613Y4086881D01*
Y4090313D01*
X7444771Y4107471D01*
X7458056Y4110113D01*
X7472941Y4120059D01*
X7482887Y4134944D01*
X7486380Y4152502D01*
Y4214275D01*
X7498113Y4219135D01*
X7569217Y4148029D01*
Y4003001D01*
X7514883D01*
Y3873001D01*
X7569217D01*
Y3834465D01*
X7569216Y3834464D01*
X7572321Y3818857D01*
X7581162Y3805626D01*
X7623819Y3762968D01*
X7618959Y3751235D01*
X7580000D01*
X7568520Y3746480D01*
X7563764Y3734999D01*
Y3693283D01*
X7486380D01*
Y3697500D01*
X7482887Y3715058D01*
X7472941Y3729943D01*
X7458056Y3739889D01*
X7440498Y3743381D01*
X7422940Y3739889D01*
X7408055Y3729943D01*
X7398109Y3715058D01*
X7394617Y3697500D01*
Y3607500D01*
X7398109Y3589942D01*
X7408055Y3575057D01*
X7422940Y3565111D01*
X7440498Y3561618D01*
X7458056Y3565111D01*
X7472941Y3575057D01*
X7482887Y3589942D01*
X7486380Y3607500D01*
Y3611716D01*
X7565124D01*
X7568520Y3603518D01*
X7580000Y3598763D01*
X7653561D01*
X7796131Y3456192D01*
X7797011Y3452759D01*
X7804136Y3443259D01*
X7815624Y3425206D01*
X7801491Y3404006D01*
X7801491Y3404006D01*
X7796491Y3396506D01*
X7795573Y3391867D01*
X7793868Y3387752D01*
X7793763Y3387500D01*
X7794403Y3385955D01*
X7794078Y3384316D01*
X7796710Y3380387D01*
X7798519Y3376019D01*
X7800062Y3375380D01*
X7800993Y3373990D01*
X7801260Y3373938D01*
X7805632Y3373073D01*
X7810000Y3371264D01*
X7835000D01*
X7835005Y3371266D01*
X7934998D01*
X7946479Y3376021D01*
X7951234Y3387502D01*
Y3462502D01*
X7946479Y3473983D01*
X7934998Y3478738D01*
X7888939D01*
X7762265Y3605412D01*
X7766236Y3614999D01*
Y3734999D01*
X7761481Y3746480D01*
X7750001Y3751235D01*
X7718284D01*
Y3766964D01*
X7715180Y3782571D01*
X7706339Y3795802D01*
X7706338Y3795802D01*
X7650784Y3851357D01*
Y3851434D01*
X7654485Y3862601D01*
X7663484Y3862601D01*
X7719685D01*
Y3938001D01*
Y4013401D01*
X7654485Y4013401D01*
X7650784Y4024568D01*
Y4164922D01*
X7647679Y4180529D01*
X7638838Y4193760D01*
X7638838Y4193761D01*
X7455785Y4376818D01*
Y4463858D01*
X7455785Y4463859D01*
X7455271Y4466447D01*
X7463327Y4476264D01*
X7474995D01*
X7474999Y4476263D01*
X7574999D01*
X7586480Y4481018D01*
X7589875Y4489215D01*
X7741006D01*
X7741007Y4489215D01*
X7751709Y4491344D01*
X7756613Y4492319D01*
X7756613Y4492320D01*
X7756614Y4492320D01*
X7761451Y4495552D01*
X7769844Y4501160D01*
X7769845Y4501161D01*
X7775647Y4506964D01*
X7789598Y4502954D01*
X7798954Y4488952D01*
X7815493Y4477901D01*
X7835002Y4474020D01*
X8065002D01*
X8084511Y4477901D01*
X8101050Y4488952D01*
X8112101Y4505491D01*
X8115981Y4525000D01*
X8114150Y4534209D01*
X8228268Y4648324D01*
X8240001Y4643464D01*
Y4640001D01*
X8460001D01*
Y4800001D01*
X8260545D01*
Y5412974D01*
X8258395Y5423782D01*
X8252273Y5432944D01*
X8252273Y5432945D01*
X8105675Y5579537D01*
X8109844Y5593279D01*
X8110007Y5593348D01*
X8114788Y5594299D01*
X8127324Y5602676D01*
X8135701Y5615212D01*
X8136116Y5617300D01*
X8071636D01*
X8067863Y5618863D01*
X8065000D01*
Y5642700D01*
X8136116D01*
X8135701Y5644788D01*
X8127325Y5657324D01*
X8125168Y5668167D01*
X8125904Y5669270D01*
X8128039Y5680000D01*
X8125904Y5690730D01*
X8119826Y5699826D01*
Y5710174D01*
X8125904Y5719270D01*
X8135811Y5724565D01*
X8138353Y5723512D01*
X8153470D01*
X8167437Y5729297D01*
X8178127Y5739987D01*
X8183912Y5753954D01*
Y5769071D01*
X8178866Y5781252D01*
X8183180Y5783039D01*
X8193870Y5793729D01*
X8199655Y5807695D01*
Y5822812D01*
X8193870Y5836779D01*
X8183180Y5847469D01*
X8173273Y5851572D01*
X8169472Y5862791D01*
X8169553Y5865813D01*
X8171453Y5867713D01*
X8177238Y5881680D01*
Y5896797D01*
X8171453Y5910763D01*
X8160763Y5921453D01*
X8146797Y5927238D01*
X8140909D01*
X8138642Y5930000D01*
X8135701Y5944788D01*
X8127325Y5957324D01*
X8125168Y5968167D01*
X8125904Y5969270D01*
X8128039Y5980000D01*
X8125904Y5990730D01*
X8119826Y5999826D01*
X8110730Y6005904D01*
X8100000Y6008038D01*
X8040392D01*
X8029731Y6009731D01*
X8028038Y6020392D01*
Y6080000D01*
X8025904Y6090730D01*
X8019826Y6099826D01*
X8010730Y6105904D01*
X8000000Y6108039D01*
X7989270Y6105904D01*
X7983580Y6102102D01*
X7975000Y6100682D01*
X7966420Y6102102D01*
X7960730Y6105904D01*
X7950000Y6108039D01*
X7939270Y6105904D01*
X7933580Y6102102D01*
X7925000Y6100682D01*
X7916420Y6102102D01*
X7910730Y6105904D01*
X7900000Y6108039D01*
X7894581Y6106961D01*
X7882977Y6115025D01*
X7882342Y6124904D01*
X7897440Y6140002D01*
X7992498D01*
Y6241998D01*
X8007558D01*
X8021524Y6247783D01*
X8032214Y6258472D01*
X8037999Y6272439D01*
Y6287556D01*
X8032214Y6301523D01*
X8028242Y6305495D01*
Y6365001D01*
X8028039Y6366024D01*
Y6389748D01*
X8030000Y6391358D01*
X8052300D01*
Y6430000D01*
X8065000D01*
Y6442700D01*
X8136116D01*
X8136044Y6443064D01*
X8137760Y6447782D01*
X8146019Y6451553D01*
X8148162Y6451872D01*
X8152960Y6451716D01*
X8162891Y6441785D01*
X8176857Y6436000D01*
X8191974D01*
X8205941Y6441785D01*
X8216631Y6452475D01*
X8222416Y6466441D01*
Y6481558D01*
X8216631Y6495525D01*
X8210156Y6502000D01*
X8216631Y6508474D01*
X8222416Y6522441D01*
Y6537558D01*
X8216631Y6551525D01*
X8205941Y6562214D01*
X8191974Y6568000D01*
X8191735D01*
X8190304Y6570141D01*
Y6585258D01*
X8186860Y6593573D01*
X8196171Y6597430D01*
X8206860Y6608119D01*
X8212645Y6622086D01*
Y6637203D01*
X8206860Y6651170D01*
X8196171Y6661859D01*
X8185388Y6666326D01*
X8187958Y6672530D01*
Y6687647D01*
X8182173Y6701613D01*
X8171483Y6712303D01*
X8157517Y6718088D01*
X8149222D01*
X8138476Y6729163D01*
X8138643Y6730000D01*
X8135701Y6744788D01*
X8127325Y6757324D01*
X8125168Y6768168D01*
X8125905Y6769270D01*
X8128039Y6780000D01*
X8125905Y6790730D01*
X8119827Y6799826D01*
X8110730Y6805904D01*
X8100000Y6808038D01*
X8040392D01*
X8029731Y6809731D01*
X8028039Y6820392D01*
Y6880000D01*
X8025904Y6890730D01*
X8019826Y6899826D01*
X8010730Y6905904D01*
X8000000Y6908039D01*
X7989270Y6905904D01*
X7983580Y6902102D01*
X7975000Y6900683D01*
X7966420Y6902102D01*
X7960730Y6905904D01*
X7950000Y6908039D01*
X7939270Y6905904D01*
X7933580Y6902102D01*
X7925000Y6900683D01*
X7916420Y6902102D01*
X7910730Y6905904D01*
X7900000Y6908039D01*
X7890943Y6906237D01*
X7886832Y6907653D01*
X7880018Y6912538D01*
X7879343Y6925603D01*
X7882215Y6928475D01*
X7888000Y6942442D01*
Y6957559D01*
X7882215Y6971525D01*
X7871525Y6982215D01*
X7857559Y6988000D01*
X7842442D01*
X7828475Y6982215D01*
X7825000Y6978740D01*
X7821525Y6982215D01*
X7807558Y6988000D01*
X7807515D01*
X7789809Y7005707D01*
Y7015934D01*
X7789809Y7015935D01*
X7787659Y7026743D01*
X7781537Y7035906D01*
X7781536Y7035907D01*
X7689999Y7127444D01*
Y7180681D01*
X7702699Y7182692D01*
X7708564Y7164640D01*
X7729109Y7124319D01*
X7755708Y7087708D01*
X7787707Y7055709D01*
X7824318Y7029110D01*
X7864639Y7008565D01*
X7907678Y6994581D01*
X7952374Y6987502D01*
X7997627D01*
X8042324Y6994581D01*
X8085362Y7008565D01*
X8125683Y7029110D01*
X8162294Y7055709D01*
X8194293Y7087708D01*
X8220892Y7124319D01*
X8241437Y7164640D01*
X8255421Y7207679D01*
X8262500Y7252375D01*
Y7297629D01*
X8255421Y7342325D01*
X8241437Y7385364D01*
X8220892Y7425685D01*
X8194293Y7462295D01*
X8162294Y7494295D01*
X8125683Y7520894D01*
X8085362Y7541439D01*
X8042324Y7555423D01*
X7997627Y7562502D01*
X7952374D01*
X7907678Y7555423D01*
X7864639Y7541439D01*
X7824318Y7520894D01*
X7787707Y7494295D01*
X7755708Y7462295D01*
X7729109Y7425685D01*
X7708564Y7385364D01*
X7694580Y7342325D01*
X7687501Y7297629D01*
Y7252375D01*
X7690236Y7235104D01*
X7679374Y7222502D01*
X7559999D01*
Y7087502D01*
X7640934D01*
X7642473Y7085200D01*
X7635684Y7072500D01*
X7559999D01*
Y6951507D01*
X7547299Y6946247D01*
X7517498Y6976050D01*
Y7070000D01*
X7382498D01*
Y6994325D01*
X7369798Y6987537D01*
X7367501Y6989072D01*
Y7070000D01*
X7232501D01*
Y6940000D01*
X7327558D01*
X7372925Y6894634D01*
X7368065Y6882900D01*
X7362698D01*
Y6805000D01*
X7349998D01*
Y6792300D01*
X7274598D01*
Y6789437D01*
X7262865Y6784577D01*
X7118241Y6929201D01*
Y7528301D01*
X7405791Y7815851D01*
X7414998Y7814020D01*
X7484998D01*
X7504507Y7817901D01*
X7521046Y7828952D01*
X7532097Y7845491D01*
X7535977Y7865000D01*
Y7934999D01*
X7532097Y7954508D01*
X7521046Y7971047D01*
X7504507Y7982098D01*
X7484998Y7985979D01*
X7414998D01*
X7395489Y7982098D01*
X7378950Y7971047D01*
X7367899Y7954508D01*
X7364018Y7934999D01*
Y7865000D01*
X7365850Y7855793D01*
X7070028Y7559971D01*
X7063906Y7550808D01*
X7061755Y7540000D01*
X7061756Y7539999D01*
Y6917503D01*
X7061755Y6917502D01*
X7063906Y6906694D01*
X7070028Y6897531D01*
X7284998Y6682561D01*
Y6637640D01*
X7281305Y6635172D01*
X7281304Y6635171D01*
X7219833Y6573694D01*
X7219832Y6573694D01*
X7213710Y6564531D01*
X7213709Y6564530D01*
X7211560Y6553722D01*
X7211560Y6553721D01*
Y6367501D01*
X7137500D01*
Y6242501D01*
X7171757D01*
Y6205497D01*
X7167785Y6201525D01*
X7162000Y6187559D01*
Y6172442D01*
X7167785Y6158475D01*
X7171757Y6154503D01*
Y5867502D01*
X7140000D01*
Y5742502D01*
X7176757D01*
Y5395002D01*
X7176757Y5395001D01*
X7178907Y5384192D01*
X7179058Y5383966D01*
Y5220602D01*
X7179058Y5220600D01*
X7181207Y5209792D01*
X7181208Y5209791D01*
X7187330Y5200628D01*
X7187331Y5200628D01*
X7242925Y5145029D01*
X7242926Y5145028D01*
X7248405Y5141367D01*
X7252087Y5138906D01*
X7252088Y5138906D01*
X7252088Y5138906D01*
X7256145Y5138099D01*
X7254894Y5125399D01*
X7204600D01*
Y5037699D01*
X7324999D01*
Y5012299D01*
X7204600D01*
Y5000588D01*
X7192866Y4995728D01*
X7036079Y5152519D01*
Y5264998D01*
X7031810Y5286458D01*
X7019654Y5304651D01*
X6685002Y5639303D01*
Y5790000D01*
X6515002D01*
Y5703243D01*
X6116700D01*
X5349973Y6469971D01*
X5340810Y6476093D01*
X5330002Y6478243D01*
X5330001Y6478243D01*
X3975252D01*
X3972445Y6482443D01*
X3960470Y6490444D01*
X3959567Y6494220D01*
Y6500780D01*
X3960470Y6504556D01*
X3972445Y6512558D01*
X3982391Y6527443D01*
X3985884Y6545001D01*
X3982391Y6562559D01*
X3972445Y6577444D01*
X3957560Y6587390D01*
X3954666Y6587965D01*
X3950486Y6601746D01*
X3952215Y6603475D01*
X3958000Y6617441D01*
Y6632558D01*
X3952215Y6646525D01*
X3941525Y6657215D01*
X3927559Y6663000D01*
X3912442D01*
X3898475Y6657215D01*
X3887785Y6646525D01*
X3882000Y6632558D01*
Y6617441D01*
X3887785Y6603475D01*
X3889515Y6601745D01*
X3885334Y6587965D01*
X3882444Y6587390D01*
X3867559Y6577444D01*
X3860943Y6567542D01*
X3848243Y6571395D01*
Y6846000D01*
X3846093Y6856808D01*
X3839971Y6865971D01*
X3523295Y7182649D01*
X3530489Y7193415D01*
X3539941Y7189500D01*
X3555058D01*
X3569025Y7195285D01*
X3579715Y7205975D01*
X3585500Y7219941D01*
Y7235058D01*
X3579715Y7249025D01*
X3569025Y7259715D01*
X3555058Y7265500D01*
X3539941D01*
X3525975Y7259715D01*
X3515285Y7249025D01*
X3509500Y7235058D01*
Y7219941D01*
X3513415Y7210489D01*
X3502649Y7203295D01*
X3369895Y7336050D01*
X3370879Y7341001D01*
X3367387Y7358559D01*
X3357441Y7373444D01*
X3342556Y7383390D01*
X3324998Y7386883D01*
X3239998D01*
X3235044Y7385897D01*
X3120970Y7499971D01*
X3111808Y7506093D01*
X3101000Y7508243D01*
X3100998Y7508243D01*
X2846366D01*
X2843840Y7520943D01*
X2845274Y7521537D01*
X2855963Y7532226D01*
X2861748Y7546193D01*
Y7561310D01*
X2855963Y7575277D01*
X2851991Y7579249D01*
Y7587052D01*
X2877441Y7612501D01*
X2967499D01*
Y7737501D01*
X2858042D01*
Y7814020D01*
X2885002D01*
X2904511Y7817901D01*
X2921050Y7828952D01*
X2932101Y7845491D01*
X2935981Y7865000D01*
Y7934999D01*
X2932101Y7954508D01*
X2921050Y7971047D01*
X2904511Y7982098D01*
X2885002Y7985979D01*
X2815002D01*
X2795493Y7982098D01*
X2778954Y7971047D01*
X2767903Y7954508D01*
X2764022Y7934999D01*
Y7865000D01*
X2767903Y7845491D01*
X2778954Y7828952D01*
X2795493Y7817901D01*
X2801556Y7816695D01*
Y7738704D01*
X2754827Y7691975D01*
X2748705Y7682812D01*
X2746555Y7672004D01*
X2746555Y7672003D01*
Y7531279D01*
X2746555Y7531278D01*
X2748705Y7520470D01*
X2754827Y7511307D01*
X2806104Y7460030D01*
X2806104Y7460030D01*
X2815267Y7453907D01*
X2826075Y7451758D01*
X3089301D01*
X3195102Y7345957D01*
X3194116Y7341001D01*
X3197609Y7323443D01*
X3207555Y7308558D01*
X3222440Y7298612D01*
X3239998Y7295120D01*
X3324998D01*
X3329956Y7296106D01*
X3371270Y7254792D01*
X3366493Y7241608D01*
X3361004Y7241112D01*
X3357441Y7246444D01*
X3342556Y7256390D01*
X3324998Y7259883D01*
X3239998D01*
X3222440Y7256390D01*
X3207555Y7246444D01*
X3197609Y7231559D01*
X3194116Y7214001D01*
X3197609Y7196443D01*
X3207555Y7181558D01*
X3222440Y7171612D01*
X3239998Y7168120D01*
X3324998D01*
X3342556Y7171612D01*
X3353820Y7179138D01*
X3366040D01*
X3366217Y7178961D01*
Y7178918D01*
X3372002Y7164951D01*
X3382692Y7154262D01*
X3396659Y7148477D01*
X3411776D01*
X3425742Y7154262D01*
X3436432Y7164951D01*
X3438400Y7169701D01*
X3453380Y7172681D01*
X3605361Y7020699D01*
X3600101Y7007999D01*
X3592439D01*
X3578473Y7002214D01*
X3567783Y6991524D01*
X3561998Y6977557D01*
Y6962440D01*
X3567783Y6948474D01*
X3576547Y6939709D01*
Y6777504D01*
X3576547Y6777502D01*
X3578332Y6768528D01*
X3583416Y6760920D01*
X3609999Y6734337D01*
Y6632502D01*
X3651755D01*
Y6589243D01*
X3642440Y6587390D01*
X3627555Y6577444D01*
X3617609Y6562559D01*
X3614116Y6545001D01*
X3617609Y6527443D01*
X3627555Y6512558D01*
X3629300Y6511391D01*
Y6496117D01*
X3620057Y6489941D01*
X3607812Y6471616D01*
X3606039Y6462700D01*
X3679998D01*
X3753957D01*
X3752183Y6471616D01*
X3739939Y6489941D01*
X3730695Y6496117D01*
Y6511391D01*
X3732441Y6512558D01*
X3742387Y6527443D01*
X3745879Y6545001D01*
X3742387Y6562559D01*
X3732441Y6577444D01*
X3717556Y6587390D01*
X3708240Y6589243D01*
Y6632502D01*
X3739999D01*
Y6767502D01*
X3750399Y6772099D01*
Y6837299D01*
X3674999D01*
Y6862699D01*
X3759168D01*
X3762132Y6863927D01*
X3791757Y6834302D01*
Y6550001D01*
X3791757Y6550000D01*
X3793907Y6539192D01*
X3800029Y6530029D01*
X3859571Y6470488D01*
X3857613Y6467558D01*
X3854121Y6450000D01*
X3855106Y6445045D01*
X3827332Y6417271D01*
X3821210Y6408108D01*
X3819059Y6397300D01*
X3819060Y6397299D01*
Y6201987D01*
X3819059Y6201986D01*
X3821209Y6191177D01*
X3821209Y6191177D01*
X3821210Y6191176D01*
X3827331Y6182015D01*
X3827332Y6182013D01*
X3827332Y6182013D01*
X3866756Y6142585D01*
Y6001349D01*
X3854056Y5997497D01*
X3853431Y5998432D01*
X3842681Y6005615D01*
X3837174Y6014259D01*
X3835389Y6023233D01*
X3830306Y6030841D01*
X3830305Y6030841D01*
X3820326Y6040821D01*
X3820998Y6042442D01*
Y6057559D01*
X3815213Y6071526D01*
X3804523Y6082215D01*
X3790556Y6088001D01*
X3775439D01*
X3775398Y6088028D01*
Y6152899D01*
X3764998Y6157502D01*
Y6280536D01*
X3771606D01*
X3785572Y6286321D01*
X3796262Y6297010D01*
X3802047Y6310977D01*
Y6326094D01*
X3796262Y6340061D01*
X3785572Y6350750D01*
X3771606Y6356535D01*
X3756489D01*
X3743878Y6365059D01*
X3742387Y6372557D01*
X3732441Y6387442D01*
X3730695Y6388608D01*
Y6403882D01*
X3739939Y6410059D01*
X3752183Y6428384D01*
X3753957Y6437300D01*
X3679998D01*
X3606039D01*
X3607812Y6428384D01*
X3620057Y6410059D01*
X3629300Y6403882D01*
Y6388608D01*
X3627555Y6387442D01*
X3617609Y6372557D01*
X3614116Y6354999D01*
X3617609Y6337441D01*
X3627555Y6322556D01*
X3642440Y6312610D01*
X3651755Y6310757D01*
Y6292502D01*
X3634998D01*
Y6157502D01*
X3624598Y6152899D01*
Y6087699D01*
X3699998D01*
Y6074999D01*
X3712698D01*
Y5997099D01*
X3732284D01*
X3735221Y5992704D01*
Y5977587D01*
X3741006Y5963620D01*
X3751696Y5952931D01*
X3765662Y5947146D01*
X3780779D01*
X3784163Y5948547D01*
X3796863Y5940061D01*
Y5925001D01*
X3799386Y5912320D01*
X3806569Y5901570D01*
X3810824Y5898727D01*
X3813284Y5883226D01*
X3790615Y5860555D01*
X3428392D01*
X3428390Y5860555D01*
X3417582Y5858405D01*
X3408420Y5852283D01*
X2994831Y5438695D01*
X2988709Y5429532D01*
X2986559Y5418724D01*
X2986559Y5418723D01*
Y5389998D01*
X2907500D01*
Y5259998D01*
X3002561D01*
X3032400Y5230161D01*
X3037431Y5222631D01*
X3037432Y5222630D01*
X3037433Y5222629D01*
X3080027Y5180030D01*
X3080026Y5180020D01*
X3077785Y5166525D01*
X3072000Y5152559D01*
Y5152546D01*
X3059300Y5147286D01*
X3037295Y5169290D01*
X3000685Y5195890D01*
X2960364Y5216434D01*
X2917325Y5230418D01*
X2872629Y5237498D01*
X2827375D01*
X2782679Y5230418D01*
X2739640Y5216434D01*
X2699319Y5195890D01*
X2662708Y5169290D01*
X2630709Y5137291D01*
X2604110Y5100680D01*
X2583565Y5060359D01*
X2582934Y5058417D01*
X2570391Y5060404D01*
Y6627909D01*
X2583091Y6633169D01*
X2588475Y6627785D01*
X2602442Y6622000D01*
X2617559D01*
X2631525Y6627785D01*
X2642215Y6638475D01*
X2643795Y6642289D01*
X2654738D01*
X2654739Y6642289D01*
X2663713Y6644075D01*
X2671321Y6649158D01*
X2684393Y6662230D01*
X2695000Y6660120D01*
X2780000D01*
X2797558Y6663612D01*
X2812443Y6673558D01*
X2822389Y6688443D01*
X2825882Y6706001D01*
X2822389Y6723559D01*
X2812443Y6738444D01*
X2797558Y6748390D01*
X2780000Y6751883D01*
X2695000D01*
X2677442Y6748390D01*
X2662557Y6738444D01*
X2652611Y6723559D01*
X2649119Y6706001D01*
X2649335Y6704913D01*
X2640534Y6693286D01*
X2631525Y6692215D01*
X2617559Y6698000D01*
X2602442D01*
X2588475Y6692215D01*
X2583091Y6686830D01*
X2570391Y6692091D01*
Y6797910D01*
X2583091Y6803171D01*
X2588477Y6797784D01*
X2602444Y6791999D01*
X2617561D01*
X2631528Y6797784D01*
X2641793Y6808050D01*
X2657551D01*
X2662557Y6800558D01*
X2677442Y6790612D01*
X2695000Y6787120D01*
X2780000D01*
X2797558Y6790612D01*
X2812443Y6800558D01*
X2822389Y6815443D01*
X2825882Y6833001D01*
X2822389Y6850559D01*
X2812443Y6865444D01*
X2797558Y6875390D01*
X2780000Y6878883D01*
X2695000D01*
X2677442Y6875390D01*
X2662557Y6865444D01*
X2655545Y6854951D01*
X2638791D01*
X2631528Y6862214D01*
X2617561Y6867999D01*
X2602444D01*
X2588477Y6862214D01*
X2583091Y6856827D01*
X2570391Y6862088D01*
Y7193927D01*
X2583091Y7196453D01*
X2585982Y7189474D01*
X2596671Y7178784D01*
X2610638Y7172999D01*
X2625755D01*
X2639722Y7178784D01*
X2646906Y7185968D01*
X2660179Y7185117D01*
X2662557Y7181558D01*
X2677442Y7171612D01*
X2695000Y7168120D01*
X2780000D01*
X2797558Y7171612D01*
X2803849Y7175815D01*
X2816549Y7169027D01*
Y7131976D01*
X2803849Y7125187D01*
X2797558Y7129390D01*
X2780000Y7132883D01*
X2695000D01*
X2677442Y7129390D01*
X2662557Y7119444D01*
X2659641Y7115080D01*
X2646557Y7120500D01*
X2631440D01*
X2617473Y7114715D01*
X2606784Y7104025D01*
X2600999Y7090058D01*
Y7074941D01*
X2606784Y7060975D01*
X2617473Y7050285D01*
X2631440Y7044500D01*
X2646557D01*
X2660524Y7050285D01*
X2663900Y7053661D01*
X2677442Y7044612D01*
X2695000Y7041120D01*
X2780000D01*
X2797558Y7044612D01*
X2803849Y7048815D01*
X2816549Y7042027D01*
Y7029715D01*
X2790607Y7003773D01*
X2780000Y7005883D01*
X2695000D01*
X2677442Y7002390D01*
X2662557Y6992445D01*
X2660550Y6992247D01*
X2660524Y6992273D01*
X2646557Y6998058D01*
X2631440D01*
X2617473Y6992273D01*
X2606784Y6981584D01*
X2600999Y6967617D01*
Y6952500D01*
X2606784Y6938533D01*
X2617473Y6927844D01*
X2631440Y6922059D01*
X2646557D01*
X2660524Y6927844D01*
X2662496Y6927649D01*
X2662557Y6927558D01*
X2677442Y6917612D01*
X2695000Y6914120D01*
X2780000D01*
X2797558Y6917612D01*
X2812443Y6927558D01*
X2822389Y6942443D01*
X2825882Y6960001D01*
X2823772Y6970609D01*
X2856581Y7003419D01*
X2856582Y7003419D01*
X2861665Y7011027D01*
X2863450Y7020001D01*
X2863450Y7020002D01*
Y7269998D01*
X2861665Y7278972D01*
X2856582Y7286580D01*
X2856581Y7286581D01*
X2821320Y7321844D01*
X2822389Y7323443D01*
X2825882Y7341001D01*
X2822389Y7358559D01*
X2812443Y7373444D01*
X2797558Y7383390D01*
X2780000Y7386883D01*
X2695000D01*
X2677442Y7383390D01*
X2662557Y7373444D01*
X2652611Y7358559D01*
X2649119Y7341001D01*
X2652611Y7323443D01*
X2662557Y7308558D01*
X2677442Y7298612D01*
X2695000Y7295120D01*
X2780000D01*
X2781432Y7295405D01*
X2808018Y7268817D01*
X2807459Y7265049D01*
X2804908Y7262818D01*
X2793457Y7257206D01*
X2780000Y7259883D01*
X2695000D01*
X2677442Y7256390D01*
X2662557Y7246444D01*
X2658644Y7240587D01*
X2643559Y7239376D01*
X2639722Y7243214D01*
X2625755Y7248999D01*
X2610638D01*
X2596671Y7243214D01*
X2585982Y7232524D01*
X2583091Y7225545D01*
X2570391Y7228071D01*
Y8425000D01*
Y8432840D01*
X2573450Y8448221D01*
X2579451Y8462709D01*
X2588163Y8475747D01*
X2599252Y8486837D01*
X2612290Y8495548D01*
X2626779Y8501550D01*
X2642159Y8504609D01*
X8457841D01*
X8473220Y8501550D01*
D02*
G37*
G36*
X8146416Y6522000D02*
X8123625D01*
Y6538000D01*
X8146416D01*
Y6522000D01*
D02*
G37*
G36*
Y6472000D02*
X8123625D01*
Y6488000D01*
X8146416D01*
Y6472000D01*
D02*
G37*
G36*
X7357589Y6574798D02*
X7349678Y6566887D01*
X7343893Y6552921D01*
Y6537804D01*
X7349678Y6523837D01*
X7360368Y6513147D01*
X7374334Y6507362D01*
X7389451D01*
X7403418Y6513147D01*
X7410643Y6520373D01*
X7413799Y6519745D01*
X7424488Y6509055D01*
X7438455Y6503270D01*
X7453572D01*
X7458463Y6505296D01*
X7466427Y6496043D01*
X7466641Y6493849D01*
X7463000Y6485059D01*
Y6469942D01*
X7468785Y6455975D01*
X7479475Y6445285D01*
X7493442Y6439500D01*
X7500298D01*
X7511131Y6430195D01*
X7511802Y6427767D01*
X7514299Y6415212D01*
X7522676Y6402676D01*
X7535212Y6394299D01*
X7550000Y6391358D01*
X7572300D01*
Y6430000D01*
X7597700D01*
Y6391358D01*
X7620000D01*
X7621962Y6389748D01*
Y6330000D01*
X7624096Y6319270D01*
X7630174Y6310174D01*
X7639270Y6304096D01*
X7650000Y6301961D01*
X7655146Y6302985D01*
X7664571Y6292550D01*
X7662502Y6287556D01*
Y6272439D01*
X7668287Y6258472D01*
X7678977Y6247783D01*
X7692943Y6241998D01*
X7707501D01*
Y6140002D01*
X7721760D01*
Y6116141D01*
X7709060Y6110881D01*
X7669974Y6149970D01*
X7669974Y6149971D01*
X7669973Y6149971D01*
X7666329Y6152406D01*
X7660812Y6156093D01*
X7660811Y6156093D01*
X7660810Y6156093D01*
X7657906Y6156671D01*
X7650004Y6158243D01*
X7650002Y6158243D01*
X7440002D01*
Y6197500D01*
X7310002D01*
Y6062500D01*
X7385683D01*
X7392472Y6049800D01*
X7390934Y6047498D01*
X7310002D01*
Y5912498D01*
X7329160D01*
X7337289Y5899798D01*
X7334498Y5893061D01*
Y5877944D01*
X7327521Y5867502D01*
X7284998D01*
Y5766225D01*
X7272298Y5759410D01*
X7270542Y5760574D01*
Y5770201D01*
X7270543Y5770202D01*
X7269999Y5772933D01*
Y5867502D01*
X7228243D01*
Y6154503D01*
X7232215Y6158475D01*
X7238000Y6172442D01*
Y6187559D01*
X7232215Y6201525D01*
X7228243Y6205497D01*
Y6242501D01*
X7267500D01*
Y6337057D01*
X7268045Y6339797D01*
X7268045Y6339798D01*
X7268045Y6339799D01*
Y6542026D01*
X7313043Y6587026D01*
X7315414Y6587498D01*
X7353659D01*
X7357589Y6574798D01*
D02*
G37*
G36*
X7427698Y5830559D02*
X7436181Y5828871D01*
X7436182Y5828871D01*
X7449822D01*
X7456498Y5818880D01*
Y5803763D01*
X7462283Y5789797D01*
X7472972Y5779107D01*
X7469747Y5766697D01*
X7464328Y5753614D01*
Y5738497D01*
X7470113Y5724530D01*
X7478856Y5715787D01*
X7476861Y5706583D01*
X7474962Y5703087D01*
X7468647D01*
X7454681Y5697302D01*
X7443991Y5686612D01*
X7438206Y5672645D01*
Y5657528D01*
X7443991Y5643562D01*
X7454681Y5632872D01*
X7468647Y5627087D01*
X7483764D01*
X7497731Y5632872D01*
X7499290Y5634431D01*
X7507147Y5631546D01*
X7511600Y5628780D01*
X7514299Y5615212D01*
X7522675Y5602676D01*
X7535212Y5594299D01*
X7550000Y5591358D01*
X7572300D01*
Y5630000D01*
X7597700D01*
Y5591358D01*
X7620000D01*
X7621961Y5589748D01*
Y5530000D01*
X7624096Y5519270D01*
X7630174Y5510173D01*
X7639270Y5504095D01*
X7650000Y5501961D01*
X7660730Y5504095D01*
X7669826Y5510173D01*
X7680174D01*
X7689270Y5504095D01*
X7700000Y5501961D01*
X7710730Y5504095D01*
X7713852Y5506181D01*
X7726552Y5499393D01*
Y5459727D01*
X7721351Y5454527D01*
X7715566Y5440560D01*
Y5425443D01*
X7721351Y5411476D01*
X7713129Y5401738D01*
X7704719Y5395285D01*
X7704387Y5394852D01*
X7684188D01*
X7680000Y5395685D01*
X7380000D01*
X7376547Y5394998D01*
X7235087D01*
X7233394Y5403507D01*
X7233242Y5403734D01*
Y5670635D01*
X7243285Y5677345D01*
X7258402D01*
X7272368Y5683130D01*
X7283058Y5693819D01*
X7288843Y5707786D01*
Y5722903D01*
X7285985Y5729802D01*
X7294019Y5742502D01*
X7330552D01*
X7337525Y5729802D01*
X7333918Y5721093D01*
Y5705976D01*
X7339703Y5692010D01*
X7350392Y5681320D01*
X7364359Y5675535D01*
X7379476D01*
X7393443Y5681320D01*
X7404133Y5692010D01*
X7409918Y5705976D01*
Y5721093D01*
X7406310Y5729802D01*
X7413284Y5742502D01*
X7414998D01*
Y5823540D01*
X7427140Y5830617D01*
X7427698Y5830559D01*
D02*
G37*
G36*
X7962700Y5493884D02*
X7964788Y5494299D01*
X7977324Y5502675D01*
X7988167Y5504832D01*
X7989270Y5504095D01*
X8000000Y5501961D01*
X8010730Y5504095D01*
X8019826Y5510173D01*
X8025904Y5519270D01*
X8028038Y5530000D01*
Y5542790D01*
X8040738Y5547831D01*
X8052745Y5542858D01*
X8062473D01*
X8189941Y5415393D01*
X8181550Y5405824D01*
X8180923Y5406304D01*
X8164199Y5413232D01*
X8146252Y5415595D01*
X7798146D01*
X7791566Y5425443D01*
Y5440560D01*
X7792196Y5441502D01*
X7798740D01*
X7812707Y5447287D01*
X7823396Y5457977D01*
X7829181Y5471944D01*
Y5473742D01*
X7837304Y5484124D01*
X7840915Y5484124D01*
X7852421D01*
X7866388Y5489909D01*
X7877077Y5500599D01*
X7889062Y5504234D01*
X7889270Y5504095D01*
X7900000Y5501961D01*
X7910730Y5504095D01*
X7911832Y5504832D01*
X7922676Y5502675D01*
X7935212Y5494299D01*
X7937300Y5493884D01*
Y5565000D01*
X7962700D01*
Y5493884D01*
D02*
G37*
G36*
X7540000Y5200000D02*
X7502500Y5225000D01*
X7577500D01*
X7540000Y5200000D01*
D02*
G37*
G36*
X8204060Y5181450D02*
Y5018550D01*
X8191360Y5013294D01*
X8180923Y5021301D01*
X8164199Y5028229D01*
X8146252Y5030592D01*
X7771847D01*
X7766986Y5042325D01*
X7805825Y5081164D01*
X7805826Y5081164D01*
X7814666Y5094395D01*
X7817771Y5110002D01*
X7817771Y5110004D01*
Y5169408D01*
X8146252D01*
X8164199Y5171771D01*
X8180923Y5178699D01*
X8191360Y5186706D01*
X8204060Y5181450D01*
D02*
G37*
G36*
X3846416Y4992000D02*
X3823625D01*
Y5008000D01*
X3846416D01*
Y4992000D01*
D02*
G37*
G36*
X7577500Y4955000D02*
X7540000D01*
X7567500Y4972500D01*
X7577500Y4980000D01*
Y4955000D01*
D02*
G37*
G36*
X7510000Y4975000D02*
X7540000Y4955000D01*
X7502500D01*
Y4980000D01*
X7510000Y4975000D01*
D02*
G37*
G36*
X3846416Y4942000D02*
X3823625D01*
Y4958000D01*
X3846416D01*
Y4942000D01*
D02*
G37*
G36*
X3206607Y4923734D02*
X3213429Y4912700D01*
X3285000D01*
Y4900000D01*
X3297700D01*
Y4861358D01*
X3320000D01*
X3321962Y4859748D01*
Y4800000D01*
X3324096Y4789270D01*
X3330174Y4780174D01*
X3339270Y4774096D01*
X3350000Y4771961D01*
X3360730Y4774096D01*
X3366420Y4777898D01*
X3375000Y4779317D01*
X3383580Y4777898D01*
X3389270Y4774096D01*
X3400000Y4771961D01*
X3410730Y4774096D01*
X3413850Y4776180D01*
X3426550Y4769392D01*
Y4763510D01*
X3426550Y4763509D01*
X3426550Y4763508D01*
Y4763501D01*
X3427337Y4759545D01*
X3428332Y4754534D01*
X3428335Y4754530D01*
X3428335Y4754527D01*
X3430887Y4750708D01*
X3433413Y4746925D01*
X3433418Y4746919D01*
X3433419Y4746919D01*
X3433419Y4746918D01*
X3433642Y4746695D01*
Y4733794D01*
X3433642Y4733793D01*
X3435427Y4724819D01*
X3440510Y4717211D01*
X3449191Y4708530D01*
Y4695830D01*
X3446770Y4693409D01*
X3441592Y4680907D01*
X3437547Y4678380D01*
X3428285Y4676436D01*
X3409550Y4695171D01*
X3400387Y4701293D01*
X3389579Y4703443D01*
X3389578Y4703443D01*
X3225141D01*
X3225140Y4703443D01*
X3214332Y4701293D01*
X3205169Y4695171D01*
X3205168Y4695170D01*
X3167040Y4657042D01*
X3081301D01*
X3081299Y4657043D01*
X3070491Y4654892D01*
X3061329Y4648770D01*
X3061328Y4648769D01*
X3027557Y4614998D01*
X2932499D01*
Y4484999D01*
X3067499D01*
Y4565934D01*
X3069801Y4567472D01*
X3082501Y4560684D01*
Y4484999D01*
X3194064D01*
X3198925Y4473265D01*
X3135200Y4409541D01*
X3122500Y4411375D01*
Y4445001D01*
X2988451Y4445002D01*
X2982899Y4455402D01*
X2981947Y4455402D01*
X2981947Y4455401D01*
X2917698D01*
Y4380001D01*
Y4304601D01*
X2981947D01*
X2981947Y4304601D01*
X2982899D01*
X2988451Y4315001D01*
X2995598Y4315002D01*
X3026757D01*
Y4276699D01*
X2770031Y4019973D01*
X2763909Y4010810D01*
X2761759Y4000002D01*
X2761759Y4000001D01*
Y3770001D01*
X2761759Y3770000D01*
X2763909Y3759192D01*
X2770031Y3750029D01*
X2941759Y3578302D01*
Y3430002D01*
X2941759Y3430001D01*
X2943909Y3419193D01*
X2950031Y3410030D01*
X3230031Y3130030D01*
X3230032Y3130029D01*
X3239194Y3123907D01*
X3250002Y3121757D01*
X3250004Y3121757D01*
X3867437D01*
X3867438Y3121757D01*
X3878246Y3123907D01*
X3887409Y3130029D01*
X3898267Y3140888D01*
X3910001Y3136028D01*
Y2545391D01*
X2642160D01*
X2626779Y2548450D01*
X2612291Y2554451D01*
X2599252Y2563163D01*
X2588163Y2574252D01*
X2579451Y2587290D01*
X2573450Y2601778D01*
X2570391Y2617160D01*
Y2824293D01*
X2583091Y2825965D01*
X2586475Y2813333D01*
X2598982Y2791671D01*
X2616670Y2773983D01*
X2638333Y2761476D01*
X2662494Y2755002D01*
X2687508D01*
X2711669Y2761476D01*
X2733332Y2773983D01*
X2751020Y2791671D01*
X2763527Y2813333D01*
X2770001Y2837495D01*
Y2862509D01*
X2763527Y2886670D01*
X2751020Y2908333D01*
X2733332Y2926021D01*
X2711669Y2938528D01*
X2687508Y2945002D01*
X2662494D01*
X2638333Y2938528D01*
X2616670Y2926021D01*
X2598982Y2908333D01*
X2586475Y2886670D01*
X2583091Y2874039D01*
X2570391Y2875711D01*
Y4839592D01*
X2582934Y4841578D01*
X2583565Y4839636D01*
X2604110Y4799315D01*
X2630709Y4762704D01*
X2662708Y4730705D01*
X2699319Y4704106D01*
X2739640Y4683561D01*
X2782679Y4669577D01*
X2827375Y4662498D01*
X2872629D01*
X2917325Y4669577D01*
X2960364Y4683561D01*
X3000685Y4704106D01*
X3037295Y4730705D01*
X3069295Y4762704D01*
X3095894Y4799315D01*
X3102320Y4811926D01*
X3115020Y4808877D01*
Y4797961D01*
X3120805Y4783994D01*
X3131494Y4773305D01*
X3145461Y4767520D01*
X3160578D01*
X3174545Y4773305D01*
X3185234Y4783994D01*
X3191020Y4797961D01*
Y4813078D01*
X3185234Y4827045D01*
X3174545Y4837735D01*
X3160578Y4843520D01*
X3145461D01*
X3131494Y4837735D01*
X3130031Y4836271D01*
X3128573Y4836698D01*
X3120474Y4852055D01*
X3125695Y4868123D01*
X3141243Y4874879D01*
X3145461Y4873132D01*
X3160578D01*
X3174545Y4878917D01*
X3185234Y4889607D01*
X3191020Y4903573D01*
Y4914572D01*
X3201376Y4924230D01*
X3206607Y4923734D01*
D02*
G37*
G36*
X3910001Y4911282D02*
Y4513975D01*
X3898267Y4509115D01*
X3888443Y4518939D01*
Y4599299D01*
X3888444Y4599300D01*
X3886293Y4610108D01*
X3880171Y4619271D01*
X3738115Y4761322D01*
Y4774434D01*
X3732330Y4788400D01*
X3728300Y4792430D01*
Y4800200D01*
X3728039Y4801516D01*
Y4859748D01*
X3730000Y4861358D01*
X3777568D01*
Y4849109D01*
X3783353Y4835143D01*
X3794042Y4824453D01*
X3808009Y4818668D01*
X3823126D01*
X3837093Y4824453D01*
X3847783Y4835143D01*
X3853568Y4849109D01*
Y4861504D01*
X3891032Y4898968D01*
X3896115Y4906576D01*
X3897301Y4912533D01*
X3910001Y4911282D01*
D02*
G37*
G36*
X6621757Y5098304D02*
Y4937502D01*
X6621756Y4937501D01*
X6623906Y4926693D01*
X6630029Y4917530D01*
X6703766Y4843793D01*
Y4771204D01*
X6650767Y4718205D01*
X6649644Y4716525D01*
X6645271Y4714713D01*
X6634581Y4704024D01*
X6628796Y4690057D01*
Y4674940D01*
X6627661Y4673242D01*
X6595589D01*
Y4699999D01*
X6593260Y4711705D01*
X6586630Y4721628D01*
X6576706Y4728259D01*
X6565001Y4730587D01*
X6553296Y4728259D01*
X6549269Y4725568D01*
X6540000Y4722680D01*
X6530730Y4725568D01*
X6526704Y4728259D01*
X6514998Y4730587D01*
X6503293Y4728259D01*
X6493370Y4721628D01*
X6486630D01*
X6476706Y4728259D01*
X6465001Y4730587D01*
X6453296Y4728259D01*
X6449269Y4725568D01*
X6440487Y4722831D01*
X6428903Y4728705D01*
X6427539Y4736403D01*
X6428005Y4740949D01*
X6431627Y4743369D01*
X6438258Y4753293D01*
X6440586Y4764998D01*
Y4854998D01*
X6438258Y4866703D01*
X6431627Y4876627D01*
X6421704Y4883257D01*
X6409999Y4885586D01*
X6405586D01*
Y4917500D01*
X6437499D01*
Y5042500D01*
X6308453Y5042500D01*
X6302901Y5052901D01*
X6301947Y5052901D01*
X6301946Y5052900D01*
X6240201D01*
Y4980000D01*
Y4907100D01*
X6301946D01*
X6301947Y4907100D01*
X6302901D01*
X6308453Y4917500D01*
X6315601Y4917500D01*
X6344411D01*
Y4885586D01*
X6339999D01*
X6328293Y4883257D01*
X6318370Y4876627D01*
X6311739Y4866703D01*
X6309411Y4854998D01*
Y4764998D01*
X6311739Y4753293D01*
X6318370Y4743369D01*
X6319443Y4742652D01*
X6315330Y4731487D01*
X6314722Y4730532D01*
X6303293Y4728259D01*
X6293370Y4721628D01*
X6286630D01*
X6279291Y4726532D01*
X6277542Y4736403D01*
X6278008Y4740949D01*
X6281630Y4743369D01*
X6288261Y4753293D01*
X6290589Y4764998D01*
Y4854998D01*
X6288261Y4866703D01*
X6281630Y4876627D01*
X6271707Y4883257D01*
X6260001Y4885586D01*
X6190002D01*
X6178296Y4883257D01*
X6168373Y4876627D01*
X6161742Y4866703D01*
X6159414Y4854998D01*
Y4764998D01*
X6161742Y4753293D01*
X6168373Y4743369D01*
X6169446Y4742652D01*
X6165333Y4731487D01*
X6164725Y4730532D01*
X6153296Y4728259D01*
X6149270Y4725568D01*
X6140000Y4722680D01*
X6130731Y4725568D01*
X6126705Y4728259D01*
X6114999Y4730587D01*
X6103294Y4728259D01*
X6093371Y4721628D01*
X6086630D01*
X6076707Y4728259D01*
X6065002Y4730587D01*
X6055942Y4728785D01*
X6049928Y4732037D01*
X6045822Y4745542D01*
X6048790Y4749982D01*
X6048791Y4749986D01*
X6048794Y4749990D01*
X6049789Y4754996D01*
X6050288Y4757499D01*
X6124998D01*
X6124998Y4891549D01*
X6135399Y4897101D01*
X6135398Y4898052D01*
X6135398Y4898052D01*
Y4962301D01*
X5984598D01*
Y4918929D01*
X5971898Y4915945D01*
X5967670Y4922272D01*
X5950400Y4939543D01*
Y4962301D01*
X5875000D01*
Y4975001D01*
X5862300D01*
Y5052902D01*
X5825742D01*
Y5387502D01*
X5862499D01*
Y5421759D01*
X6298301D01*
X6621757Y5098304D01*
D02*
G37*
G36*
X8109213Y4694349D02*
X8073091Y4658227D01*
X8059311Y4662407D01*
X8057679Y4670609D01*
X8048838Y4683841D01*
X8035607Y4692681D01*
X8020000Y4695786D01*
X7843878D01*
X7766992Y4772672D01*
X7771852Y4784405D01*
X8109213D01*
Y4694349D01*
D02*
G37*
G36*
X7486264Y5286771D02*
X7483923Y5275001D01*
X7486264Y5263230D01*
Y5225001D01*
X7486264Y5225000D01*
X7486903Y5223456D01*
X7486579Y5221816D01*
X7489210Y5217887D01*
X7491019Y5213519D01*
X7492564Y5212880D01*
X7493494Y5211491D01*
X7530994Y5186491D01*
X7534146Y5185867D01*
X7536816Y5184079D01*
X7540000Y5184709D01*
X7543184Y5184079D01*
X7545854Y5185867D01*
X7549006Y5186491D01*
X7586506Y5211491D01*
X7587436Y5212880D01*
X7588981Y5213519D01*
X7590790Y5217887D01*
X7591484Y5218924D01*
X7687550D01*
X7693699Y5204080D01*
X7704719Y5189718D01*
X7719080Y5178699D01*
X7735804Y5171771D01*
X7736204Y5171718D01*
Y5126896D01*
X7636160Y5026852D01*
X7627320Y5013621D01*
X7624215Y4998014D01*
X7624215Y4998013D01*
Y4816989D01*
X7624215Y4816988D01*
X7627320Y4801381D01*
X7636160Y4788150D01*
X7781979Y4642331D01*
X7782927Y4636635D01*
X7780369Y4625981D01*
X7777166Y4623841D01*
X7777165Y4623840D01*
X7724112Y4570782D01*
X7589875D01*
X7586480Y4578979D01*
X7574999Y4583735D01*
X7486875D01*
X7481614Y4596435D01*
X7568838Y4683659D01*
X7568839Y4683659D01*
X7577679Y4696890D01*
X7580784Y4712498D01*
Y4840123D01*
X7588981Y4843518D01*
X7593736Y4854999D01*
Y4893228D01*
X7596078Y4904999D01*
X7593736Y4916770D01*
Y4954999D01*
X7593736Y4955000D01*
Y4980000D01*
X7591766Y4984756D01*
X7590489Y4989742D01*
X7589445Y4990360D01*
X7589085Y4991228D01*
X7588981Y4991481D01*
X7584223Y4993452D01*
X7579796Y4996073D01*
X7579531Y4996005D01*
X7578622Y4995772D01*
X7577500Y4996237D01*
X7577255Y4996135D01*
X7572744Y4994266D01*
X7567759Y4992989D01*
X7558259Y4985864D01*
X7540206Y4974376D01*
X7519006Y4988509D01*
X7519006Y4988509D01*
X7511506Y4993509D01*
X7506867Y4994427D01*
X7502500Y4996236D01*
X7500956Y4995596D01*
X7499316Y4995921D01*
X7495387Y4993290D01*
X7492748Y4992197D01*
X7483244Y5001701D01*
Y5097105D01*
X7481095Y5107912D01*
X7481094Y5107913D01*
X7481094Y5107914D01*
X7478634Y5111596D01*
X7474972Y5117075D01*
X7474971Y5117076D01*
X7407072Y5184970D01*
X7397910Y5191091D01*
X7387101Y5193242D01*
X7387100Y5193241D01*
X7274596D01*
X7264573Y5203265D01*
X7269433Y5214998D01*
X7434999D01*
Y5324314D01*
X7486264D01*
Y5286771D01*
D02*
G37*
G36*
X6637057Y4610707D02*
X6647865Y4608557D01*
X6647867Y4608557D01*
X6864809D01*
X6875001Y4602502D01*
Y4523443D01*
X6870202D01*
X6859394Y4521293D01*
X6850231Y4515171D01*
X6850231Y4515171D01*
X6810648Y4475588D01*
X6710001D01*
X6698295Y4473259D01*
X6688372Y4466629D01*
X6681741Y4456705D01*
X6679413Y4445000D01*
X6681741Y4433295D01*
X6685707Y4427359D01*
X6680874Y4424129D01*
X6671945Y4410766D01*
X6671335Y4407703D01*
X6765000D01*
Y4382303D01*
X6671335D01*
X6671945Y4379239D01*
X6680874Y4365876D01*
X6685710Y4362645D01*
X6681741Y4356706D01*
X6679413Y4345000D01*
X6673068Y4337269D01*
X6665453D01*
X6652709Y4334734D01*
X6501547D01*
X6488261Y4332091D01*
X6476998Y4324566D01*
X6241881Y4089453D01*
X6234355Y4078190D01*
X6231712Y4064904D01*
Y3881389D01*
X6231719Y3881356D01*
X6231712Y3881322D01*
X6233033Y3874748D01*
Y3823062D01*
X6231050Y3821080D01*
X6211845D01*
X6203919Y3824363D01*
X6188802D01*
X6174835Y3818578D01*
X6164146Y3807888D01*
X6158361Y3793921D01*
Y3778804D01*
X6159461Y3776148D01*
X6150975Y3763448D01*
X6134334D01*
X6126775Y3764952D01*
X6126773Y3764952D01*
X5716504D01*
X5707530Y3763167D01*
X5706416Y3762423D01*
X5696562Y3767110D01*
X5696298Y3780357D01*
X5698259Y3783293D01*
X5700588Y3794999D01*
X5698953Y3803220D01*
X5705615Y3809122D01*
X5709194Y3811266D01*
X5709306Y3811313D01*
X5722443Y3805872D01*
X5737560D01*
X5751526Y3811657D01*
X5762216Y3822346D01*
X5768001Y3836313D01*
Y3851430D01*
X5762216Y3865397D01*
X5761707Y3865906D01*
X5768183Y3872383D01*
X5774279Y3887099D01*
X5727151D01*
Y3912499D01*
X5777604D01*
X5780783Y3917256D01*
X5935496D01*
X5935498Y3917256D01*
X5946306Y3919406D01*
X5955468Y3925528D01*
X6449247Y4419307D01*
X6466951D01*
X6468474Y4417784D01*
X6482441Y4411999D01*
X6497558D01*
X6511525Y4417784D01*
X6522215Y4428473D01*
X6528000Y4442440D01*
Y4457557D01*
X6522215Y4471524D01*
X6511525Y4482214D01*
X6497558Y4487999D01*
X6482441D01*
X6468475Y4482214D01*
X6468445Y4482226D01*
X6465479Y4497221D01*
X6522672Y4554413D01*
X6526846Y4560661D01*
X6530386Y4564201D01*
X6536627Y4568371D01*
X6549269Y4564431D01*
X6553296Y4561740D01*
X6565001Y4559412D01*
X6576706Y4561740D01*
X6586630Y4568371D01*
X6593260Y4578294D01*
X6595589Y4590000D01*
Y4616757D01*
X6628003D01*
X6637057Y4610707D01*
D02*
G37*
G36*
X7475000Y4492500D02*
X7450000D01*
X7455000Y4500000D01*
X7475000Y4530000D01*
X7457500Y4557500D01*
X7450000Y4567500D01*
X7475000D01*
Y4492500D01*
D02*
G37*
G36*
X7230000Y4530000D02*
X7205000Y4492500D01*
Y4567500D01*
X7230000Y4530000D01*
D02*
G37*
G36*
X5726757Y4660472D02*
Y4596685D01*
X5726757Y4596684D01*
X5728907Y4585876D01*
X5735029Y4576713D01*
X5774045Y4537697D01*
X5768784Y4524997D01*
X5764440D01*
X5750473Y4519212D01*
X5739784Y4508522D01*
X5733998Y4494556D01*
Y4479439D01*
X5739784Y4465472D01*
X5750473Y4454782D01*
X5764440Y4448997D01*
X5777707D01*
Y4437441D01*
X5783492Y4423474D01*
X5794181Y4412785D01*
X5808148Y4407000D01*
X5823265D01*
X5837232Y4412785D01*
X5842448Y4418001D01*
X5876305D01*
X5876306Y4418000D01*
X5887114Y4420150D01*
X5896277Y4426273D01*
X5965510Y4495506D01*
X5974284Y4491346D01*
X5977000Y4489035D01*
Y4474942D01*
X5982785Y4460975D01*
X5993475Y4450285D01*
X6007441Y4444500D01*
X6022558D01*
X6024503Y4445306D01*
X6024632Y4445317D01*
X6038549Y4437377D01*
X6038909Y4435569D01*
X6045031Y4426407D01*
X6062500Y4408938D01*
Y4397746D01*
X6068285Y4383780D01*
X6078975Y4373090D01*
X6092942Y4367305D01*
X6108059D01*
X6122025Y4373090D01*
X6132715Y4383780D01*
X6138500Y4397746D01*
Y4412863D01*
X6149873Y4418594D01*
X6157576Y4418973D01*
X6168265Y4408284D01*
X6182232Y4402498D01*
X6197349D01*
X6211315Y4408284D01*
X6222005Y4418973D01*
X6224059Y4423931D01*
X6236759Y4421405D01*
Y4387998D01*
X6234036Y4385276D01*
X6228251Y4371309D01*
Y4356192D01*
X6234036Y4342225D01*
X6244726Y4331536D01*
X6258692Y4325751D01*
X6263108Y4313051D01*
X6017924Y4067867D01*
X6005468Y4070345D01*
X6004376Y4072982D01*
X5993686Y4083672D01*
X5979719Y4089457D01*
X5964602D01*
X5950636Y4083672D01*
X5939946Y4072982D01*
X5934161Y4059016D01*
Y4053398D01*
X5904003Y4023241D01*
X5790619D01*
X5785359Y4035941D01*
X5811098Y4061680D01*
X5840546D01*
X5840547Y4061680D01*
X5851355Y4063830D01*
X5854306Y4065802D01*
X5867558D01*
X5881525Y4071587D01*
X5892215Y4082277D01*
X5898000Y4096244D01*
Y4111361D01*
X5892215Y4125327D01*
X5881525Y4136017D01*
X5867558Y4141802D01*
X5852441D01*
X5850975Y4141195D01*
X5848001Y4143182D01*
X5842216Y4157148D01*
X5831526Y4167838D01*
X5817560Y4173623D01*
X5802443D01*
X5788476Y4167838D01*
X5780450Y4159812D01*
X5759507D01*
X5748730Y4157669D01*
X5739594Y4151564D01*
X5739364Y4151335D01*
X5739364Y4151333D01*
X5717177Y4129144D01*
X5711316Y4128233D01*
X5701585Y4130623D01*
X5698769Y4135859D01*
X5700588Y4145001D01*
X5698259Y4156706D01*
X5695571Y4160729D01*
X5692680Y4169999D01*
X5695571Y4179270D01*
X5698259Y4183293D01*
X5700588Y4194998D01*
X5698259Y4206703D01*
X5695569Y4210730D01*
X5692680Y4219999D01*
X5695569Y4229268D01*
X5698259Y4233295D01*
X5700588Y4245000D01*
X5698259Y4256706D01*
X5695571Y4260729D01*
X5692680Y4269999D01*
X5695571Y4279269D01*
X5698259Y4283292D01*
X5700588Y4294998D01*
X5698259Y4306703D01*
X5695569Y4310730D01*
X5692680Y4319999D01*
X5695569Y4329268D01*
X5698259Y4333295D01*
X5700588Y4345000D01*
X5698672Y4354631D01*
X5704535Y4360099D01*
X5709061Y4362546D01*
X5722443Y4357003D01*
X5737560D01*
X5751526Y4362788D01*
X5762216Y4373477D01*
X5768001Y4387444D01*
Y4402561D01*
X5762216Y4416528D01*
X5751526Y4427217D01*
X5737560Y4433003D01*
X5726368D01*
X5704535Y4454836D01*
X5695454Y4460904D01*
X5691629Y4466629D01*
X5681705Y4473259D01*
X5670000Y4475588D01*
X5560000D01*
X5551875Y4473971D01*
X5540824Y4479122D01*
X5537781Y4481509D01*
X5536861Y4487169D01*
X5715024Y4665332D01*
X5726757Y4660472D01*
D02*
G37*
G36*
X6679413Y4194998D02*
X6681741Y4183293D01*
X6684429Y4179270D01*
X6687321Y4169999D01*
X6684429Y4160729D01*
X6681741Y4156706D01*
X6679413Y4145001D01*
X6681741Y4133295D01*
X6684432Y4129269D01*
X6687320Y4119999D01*
X6684432Y4110730D01*
X6681741Y4106703D01*
X6679413Y4094998D01*
X6680261Y4090733D01*
X6676021Y4086594D01*
X6668889Y4082807D01*
X6657205Y4087647D01*
X6642088D01*
X6628121Y4081862D01*
X6623297Y4077038D01*
X6614610Y4072715D01*
X6606704Y4077038D01*
X6601527Y4082214D01*
X6587561Y4087999D01*
X6572444D01*
X6558477Y4082214D01*
X6547787Y4071525D01*
X6542002Y4057558D01*
Y4042441D01*
X6547787Y4028474D01*
X6558477Y4017785D01*
X6560678Y4016873D01*
Y4003126D01*
X6558477Y4002215D01*
X6547787Y3991525D01*
X6542002Y3977558D01*
Y3962441D01*
X6547787Y3948474D01*
X6558477Y3937785D01*
X6572444Y3932000D01*
X6578055D01*
X6624111Y3885944D01*
X6618851Y3873244D01*
X6496699D01*
X6452511Y3917433D01*
Y3923050D01*
X6446726Y3937017D01*
X6436036Y3947706D01*
X6422069Y3953491D01*
X6406952D01*
X6392986Y3947706D01*
X6382296Y3937017D01*
X6376511Y3923050D01*
X6364646Y3925066D01*
Y4024220D01*
X6542226Y4201800D01*
X6673831D01*
X6679413Y4194998D01*
D02*
G37*
G36*
X6307224Y3783608D02*
X6334062Y3756770D01*
X6345325Y3749244D01*
X6358611Y3746601D01*
X6381342D01*
X6392444Y3742003D01*
X6407561D01*
X6421528Y3747788D01*
X6432217Y3758477D01*
X6435559Y3766544D01*
X6436996Y3767831D01*
X6448872Y3771612D01*
X6450312Y3771502D01*
X6454198Y3768906D01*
X6465006Y3766756D01*
X6673181D01*
X6676368Y3763015D01*
X6681214Y3754056D01*
X6679413Y3745001D01*
X6681741Y3733296D01*
X6684432Y3729269D01*
X6687320Y3720000D01*
X6684432Y3710731D01*
X6681741Y3706704D01*
X6679413Y3694999D01*
X6670843Y3692999D01*
X6656877Y3687214D01*
X6646187Y3676524D01*
X6643961Y3671150D01*
X6631488Y3667496D01*
X6628863Y3667887D01*
X6622462Y3672164D01*
X6613488Y3673949D01*
X6613487Y3673949D01*
X6284662D01*
X6219665Y3738946D01*
X6224925Y3751646D01*
X6245428D01*
X6252245Y3753002D01*
X6258710Y3754287D01*
X6258712Y3754288D01*
X6258714Y3754288D01*
X6264616Y3758232D01*
X6269974Y3761811D01*
X6291776Y3783608D01*
X6292528Y3784131D01*
X6306468D01*
X6307224Y3783608D01*
D02*
G37*
G36*
X6867732Y3954557D02*
X6873517Y3940590D01*
X6884206Y3929901D01*
X6898173Y3924116D01*
X6913290D01*
X6927257Y3929901D01*
X6929056Y3931700D01*
X6941756Y3926439D01*
Y3820718D01*
X6928474Y3815216D01*
X6917784Y3804526D01*
X6911999Y3790560D01*
Y3775443D01*
X6917784Y3761476D01*
X6928474Y3750786D01*
X6942440Y3745001D01*
X6957557D01*
X6964458Y3747860D01*
X6977159Y3739827D01*
Y3657096D01*
X6926022Y3605960D01*
X6915255Y3613154D01*
X6919881Y3624321D01*
Y3639438D01*
X6914096Y3653405D01*
X6905332Y3662169D01*
Y3683120D01*
X6905332Y3683121D01*
X6903547Y3692095D01*
X6898463Y3699704D01*
X6849948Y3748219D01*
X6848260Y3756707D01*
X6845572Y3760730D01*
X6842680Y3770000D01*
X6845572Y3779270D01*
X6848260Y3783293D01*
X6850588Y3794999D01*
X6848260Y3806704D01*
X6845569Y3810731D01*
X6842680Y3820000D01*
X6845569Y3829269D01*
X6848260Y3833296D01*
X6850588Y3845001D01*
X6848260Y3856707D01*
X6841629Y3866630D01*
Y3873370D01*
X6848260Y3883293D01*
X6850588Y3894999D01*
X6848260Y3906704D01*
X6845569Y3910731D01*
X6842680Y3920000D01*
X6845569Y3929269D01*
X6848260Y3933296D01*
X6850588Y3945001D01*
X6848787Y3954055D01*
X6851575Y3959211D01*
X6855032Y3960041D01*
X6867732Y3954557D01*
D02*
G37*
G36*
X6072000Y3707558D02*
Y3692441D01*
X6077785Y3678475D01*
X6088475Y3667785D01*
X6088600Y3667733D01*
X6088089Y3654198D01*
X6078473Y3650215D01*
X6067783Y3639525D01*
X6061998Y3625559D01*
Y3610442D01*
X6067783Y3596475D01*
X6072143Y3592115D01*
X6065887Y3580411D01*
X6065002Y3580587D01*
X6053297Y3578259D01*
X6049270Y3575568D01*
X6040001Y3572679D01*
X6030731Y3575568D01*
X6026705Y3578259D01*
X6014999Y3580587D01*
X6003294Y3578259D01*
X5999271Y3575570D01*
X5990001Y3572679D01*
X5980730Y3575570D01*
X5976707Y3578259D01*
X5965002Y3580587D01*
X5955943Y3578785D01*
X5946990Y3583626D01*
X5943242Y3586815D01*
Y3601126D01*
X5946093Y3605392D01*
X5948243Y3616200D01*
X5948243Y3616201D01*
Y3659503D01*
X5952215Y3663475D01*
X5958000Y3677441D01*
Y3692559D01*
X5952701Y3705351D01*
X5954787Y3711132D01*
X5958650Y3718051D01*
X6064989D01*
X6072000Y3707558D01*
D02*
G37*
G36*
X6849072Y3670663D02*
X6849666Y3653405D01*
X6843881Y3639438D01*
Y3624321D01*
X6849666Y3610355D01*
X6860356Y3599665D01*
X6874323Y3593880D01*
X6889440D01*
X6900607Y3598506D01*
X6907801Y3587739D01*
X6728303Y3408241D01*
X6623878D01*
X6595013Y3437106D01*
X6595589Y3439999D01*
Y3549999D01*
X6594123Y3557364D01*
Y3574217D01*
X6601527Y3577283D01*
X6612217Y3587973D01*
X6615928Y3596933D01*
X6629735Y3601087D01*
X6700891Y3529931D01*
Y3517537D01*
X6706676Y3503570D01*
X6717366Y3492880D01*
X6731332Y3487095D01*
X6746450D01*
X6760416Y3492880D01*
X6771106Y3503570D01*
X6776891Y3517537D01*
Y3532654D01*
X6771106Y3546621D01*
X6760416Y3557310D01*
X6746450Y3563095D01*
X6734055D01*
X6691573Y3605577D01*
X6694553Y3620558D01*
X6699927Y3622784D01*
X6710617Y3633474D01*
X6716402Y3647441D01*
Y3662557D01*
X6728135Y3664411D01*
X6820000D01*
X6831706Y3666740D01*
X6841629Y3673370D01*
X6845817Y3673617D01*
X6849072Y3670663D01*
D02*
G37*
G36*
X7835000Y3387500D02*
X7810000D01*
X7815000Y3395000D01*
X7835000Y3425000D01*
X7817500Y3452500D01*
X7810000Y3462500D01*
X7835000D01*
Y3387500D01*
D02*
G37*
%LPC*%
G36*
X5732502Y8354999D02*
X5367502D01*
Y8249923D01*
X5354802Y8248939D01*
X5351525Y8252215D01*
X5337559Y8258000D01*
X5322441D01*
X5308475Y8252215D01*
X5297785Y8241525D01*
X5292000Y8227559D01*
Y8212442D01*
X5297785Y8198475D01*
X5308475Y8187785D01*
X5322441Y8182000D01*
X5337559D01*
X5351525Y8187785D01*
X5354802Y8191062D01*
X5367502Y8190078D01*
Y8159999D01*
X5732502D01*
Y8354999D01*
D02*
G37*
G36*
X7062506Y8294999D02*
X7037492D01*
X7013330Y8288524D01*
X6991667Y8276017D01*
X6973980Y8258330D01*
X6961473Y8236667D01*
X6954999Y8212506D01*
Y8187492D01*
X6961473Y8163330D01*
X6973980Y8141668D01*
X6991667Y8123980D01*
X7013330Y8111473D01*
X7037492Y8104999D01*
X7062506D01*
X7086667Y8111473D01*
X7108330Y8123980D01*
X7126017Y8141668D01*
X7138524Y8163330D01*
X7144998Y8187492D01*
Y8212506D01*
X7138524Y8236667D01*
X7126017Y8258330D01*
X7108330Y8276017D01*
X7086667Y8288524D01*
X7062506Y8294999D01*
D02*
G37*
G36*
X5962508D02*
X5937494D01*
X5913332Y8288524D01*
X5891670Y8276017D01*
X5873982Y8258330D01*
X5861475Y8236667D01*
X5855001Y8212506D01*
Y8187492D01*
X5861475Y8163330D01*
X5873982Y8141668D01*
X5891670Y8123980D01*
X5913332Y8111473D01*
X5937494Y8104999D01*
X5962508D01*
X5986669Y8111473D01*
X6008332Y8123980D01*
X6026019Y8141668D01*
X6038526Y8163330D01*
X6045001Y8187492D01*
Y8212506D01*
X6038526Y8236667D01*
X6026019Y8258330D01*
X6008332Y8276017D01*
X5986669Y8288524D01*
X5962508Y8294999D01*
D02*
G37*
G36*
X5162509D02*
X5137495D01*
X5113334Y8288524D01*
X5091671Y8276017D01*
X5073984Y8258330D01*
X5061477Y8236667D01*
X5055003Y8212506D01*
Y8187492D01*
X5061477Y8163330D01*
X5073984Y8141668D01*
X5091671Y8123980D01*
X5113334Y8111473D01*
X5137495Y8104999D01*
X5162509D01*
X5186671Y8111473D01*
X5208333Y8123980D01*
X5226021Y8141668D01*
X5238528Y8163330D01*
X5245002Y8187492D01*
Y8212506D01*
X5238528Y8236667D01*
X5226021Y8258330D01*
X5208333Y8276017D01*
X5186671Y8288524D01*
X5162509Y8294999D01*
D02*
G37*
G36*
X4062506D02*
X4037493D01*
X4013331Y8288524D01*
X3991668Y8276017D01*
X3973981Y8258330D01*
X3961474Y8236667D01*
X3955000Y8212506D01*
Y8187492D01*
X3961474Y8163330D01*
X3973981Y8141668D01*
X3991668Y8123980D01*
X4013331Y8111473D01*
X4037493Y8104999D01*
X4062506D01*
X4086668Y8111473D01*
X4108331Y8123980D01*
X4126018Y8141668D01*
X4138525Y8163330D01*
X4144999Y8187492D01*
Y8212506D01*
X4138525Y8236667D01*
X4126018Y8258330D01*
X4108331Y8276017D01*
X4086668Y8288524D01*
X4062506Y8294999D01*
D02*
G37*
G36*
X8262701Y7995362D02*
Y7912699D01*
X8345364D01*
X8338900Y7936822D01*
X8326340Y7958576D01*
X8308578Y7976338D01*
X8286824Y7988898D01*
X8262701Y7995362D01*
D02*
G37*
G36*
X8237301D02*
X8213178Y7988898D01*
X8191424Y7976338D01*
X8173662Y7958576D01*
X8161103Y7936822D01*
X8154639Y7912699D01*
X8237301D01*
Y7995362D01*
D02*
G37*
G36*
X3662700D02*
Y7912699D01*
X3745363D01*
X3738899Y7936822D01*
X3726339Y7958576D01*
X3708577Y7976338D01*
X3686823Y7988898D01*
X3662700Y7995362D01*
D02*
G37*
G36*
X3637300D02*
X3613177Y7988898D01*
X3591423Y7976338D01*
X3573661Y7958576D01*
X3561102Y7936822D01*
X3554638Y7912699D01*
X3637300D01*
Y7995362D01*
D02*
G37*
G36*
X8061192Y7984999D02*
X8038811D01*
X8017193Y7979207D01*
X7997811Y7968016D01*
X7981985Y7952191D01*
X7970794Y7932808D01*
X7965002Y7911190D01*
Y7888809D01*
X7970794Y7867191D01*
X7981985Y7847808D01*
X7997811Y7831983D01*
X8017193Y7820792D01*
X8038811Y7815000D01*
X8061192D01*
X8082810Y7820792D01*
X8102193Y7831983D01*
X8118019Y7847808D01*
X8129209Y7867191D01*
X8135002Y7888809D01*
Y7911190D01*
X8129209Y7932808D01*
X8118019Y7952191D01*
X8102193Y7968016D01*
X8082810Y7979207D01*
X8061192Y7984999D01*
D02*
G37*
G36*
X7861193D02*
X7838812D01*
X7817193Y7979207D01*
X7797811Y7968016D01*
X7781985Y7952191D01*
X7770795Y7932808D01*
X7765002Y7911190D01*
Y7888809D01*
X7770795Y7867191D01*
X7781985Y7847808D01*
X7797811Y7831983D01*
X7817193Y7820792D01*
X7838812Y7815000D01*
X7861193D01*
X7882811Y7820792D01*
X7902193Y7831983D01*
X7918019Y7847808D01*
X7929209Y7867191D01*
X7935002Y7888809D01*
Y7911190D01*
X7929209Y7932808D01*
X7918019Y7952191D01*
X7902193Y7968016D01*
X7882811Y7979207D01*
X7861193Y7984999D01*
D02*
G37*
G36*
X3461191D02*
X3438810D01*
X3417192Y7979207D01*
X3397810Y7968016D01*
X3381984Y7952191D01*
X3370793Y7932808D01*
X3365001Y7911190D01*
Y7888809D01*
X3370793Y7867191D01*
X3381984Y7847808D01*
X3397810Y7831983D01*
X3417192Y7820792D01*
X3438810Y7815000D01*
X3461191D01*
X3482809Y7820792D01*
X3502192Y7831983D01*
X3518018Y7847808D01*
X3529208Y7867191D01*
X3535001Y7888809D01*
Y7911190D01*
X3529208Y7932808D01*
X3518018Y7952191D01*
X3502192Y7968016D01*
X3482809Y7979207D01*
X3461191Y7984999D01*
D02*
G37*
G36*
X3261192D02*
X3238811D01*
X3217192Y7979207D01*
X3197810Y7968016D01*
X3181984Y7952191D01*
X3170794Y7932808D01*
X3165001Y7911190D01*
Y7888809D01*
X3170794Y7867191D01*
X3181984Y7847808D01*
X3197810Y7831983D01*
X3217192Y7820792D01*
X3238811Y7815000D01*
X3261192D01*
X3282810Y7820792D01*
X3302192Y7831983D01*
X3318018Y7847808D01*
X3329208Y7867191D01*
X3335001Y7888809D01*
Y7911190D01*
X3329208Y7932808D01*
X3318018Y7952191D01*
X3302192Y7968016D01*
X3282810Y7979207D01*
X3261192Y7984999D01*
D02*
G37*
G36*
X8345364Y7887299D02*
X8262701D01*
Y7804637D01*
X8286824Y7811101D01*
X8308578Y7823661D01*
X8326340Y7841422D01*
X8338900Y7863177D01*
X8345364Y7887299D01*
D02*
G37*
G36*
X8237301D02*
X8154639D01*
X8161103Y7863177D01*
X8173662Y7841422D01*
X8191424Y7823661D01*
X8213178Y7811101D01*
X8237301Y7804637D01*
Y7887299D01*
D02*
G37*
G36*
X3745363D02*
X3662700D01*
Y7804637D01*
X3686823Y7811101D01*
X3708577Y7823661D01*
X3726339Y7841422D01*
X3738899Y7863177D01*
X3745363Y7887299D01*
D02*
G37*
G36*
X3637300D02*
X3554638D01*
X3561102Y7863177D01*
X3573661Y7841422D01*
X3591423Y7823661D01*
X3613177Y7811101D01*
X3637300Y7804637D01*
Y7887299D01*
D02*
G37*
G36*
X5732502Y7759999D02*
X5367502D01*
Y7728742D01*
X5350440D01*
X5346468Y7732714D01*
X5332501Y7738499D01*
X5317384D01*
X5303418Y7732714D01*
X5292728Y7722024D01*
X5286943Y7708058D01*
Y7692941D01*
X5292728Y7678974D01*
X5303418Y7668284D01*
X5317384Y7662499D01*
X5332501D01*
X5346468Y7668284D01*
X5350440Y7672256D01*
X5367502D01*
Y7564999D01*
X5732502D01*
Y7759999D01*
D02*
G37*
G36*
X6734211Y7752230D02*
Y7717803D01*
X6768638D01*
X6762542Y7732519D01*
X6748927Y7746135D01*
X6734211Y7752230D01*
D02*
G37*
G36*
X6708811D02*
X6694094Y7746135D01*
X6680479Y7732519D01*
X6674383Y7717803D01*
X6708811D01*
Y7752230D01*
D02*
G37*
G36*
X6768638Y7692403D02*
X6734211D01*
Y7657976D01*
X6748927Y7664072D01*
X6762542Y7677687D01*
X6768638Y7692403D01*
D02*
G37*
G36*
X6708811D02*
X6674383D01*
X6680479Y7677687D01*
X6694094Y7664072D01*
X6708811Y7657976D01*
Y7692403D01*
D02*
G37*
G36*
X6212700Y7647127D02*
Y7612700D01*
X6247127D01*
X6241031Y7627416D01*
X6227416Y7641031D01*
X6212700Y7647127D01*
D02*
G37*
G36*
X6187300D02*
X6172584Y7641031D01*
X6158969Y7627416D01*
X6152873Y7612700D01*
X6187300D01*
Y7647127D01*
D02*
G37*
G36*
X3061192Y7984999D02*
X3038811D01*
X3017193Y7979207D01*
X2997810Y7968016D01*
X2981985Y7952191D01*
X2970794Y7932808D01*
X2965002Y7911190D01*
Y7888809D01*
X2970794Y7867191D01*
X2981985Y7847808D01*
X2997810Y7831983D01*
X3017193Y7820792D01*
X3021759Y7819569D01*
Y7737501D01*
X2982502D01*
Y7612501D01*
X3112502D01*
Y7737501D01*
X3078244D01*
Y7819569D01*
X3082810Y7820792D01*
X3102193Y7831983D01*
X3118018Y7847808D01*
X3129209Y7867191D01*
X3135001Y7888809D01*
Y7911190D01*
X3129209Y7932808D01*
X3118018Y7952191D01*
X3102193Y7968016D01*
X3082810Y7979207D01*
X3061192Y7984999D01*
D02*
G37*
G36*
X7661193D02*
X7638812D01*
X7617194Y7979207D01*
X7597811Y7968016D01*
X7581986Y7952191D01*
X7570795Y7932808D01*
X7565003Y7911190D01*
Y7888809D01*
X7570795Y7867191D01*
X7581986Y7847808D01*
X7597811Y7831983D01*
X7617194Y7820792D01*
X7621760Y7819569D01*
Y7712498D01*
X7587502D01*
Y7582498D01*
X7712502D01*
Y7712498D01*
X7678245D01*
Y7819569D01*
X7682811Y7820792D01*
X7702194Y7831983D01*
X7718019Y7847808D01*
X7729210Y7867191D01*
X7735002Y7888809D01*
Y7911190D01*
X7729210Y7932808D01*
X7718019Y7952191D01*
X7702194Y7968016D01*
X7682811Y7979207D01*
X7661193Y7984999D01*
D02*
G37*
G36*
X6247127Y7587300D02*
X6212700D01*
Y7552873D01*
X6227416Y7558969D01*
X6241031Y7572584D01*
X6247127Y7587300D01*
D02*
G37*
G36*
X6187300D02*
X6152873D01*
X6158969Y7572584D01*
X6172584Y7558969D01*
X6187300Y7552873D01*
Y7587300D01*
D02*
G37*
G36*
X7712502Y7567499D02*
X7587502D01*
Y7528243D01*
X7225498D01*
X7221526Y7532215D01*
X7207559Y7538000D01*
X7192442D01*
X7178476Y7532215D01*
X7167786Y7521525D01*
X7162001Y7507559D01*
Y7492442D01*
X7167786Y7478475D01*
X7178476Y7467785D01*
X7192442Y7462000D01*
X7207559D01*
X7221526Y7467785D01*
X7225498Y7471757D01*
X7587502D01*
Y7437500D01*
X7712502D01*
Y7567499D01*
D02*
G37*
G36*
X5732502Y7520000D02*
X5367502D01*
Y7325000D01*
X5732502D01*
Y7520000D01*
D02*
G37*
G36*
X3324998Y7132883D02*
X3239998D01*
X3222440Y7129390D01*
X3207555Y7119444D01*
X3207140Y7118824D01*
X3195372D01*
X3195371Y7118824D01*
X3186397Y7117039D01*
X3178789Y7111955D01*
X3092418Y7025585D01*
X3087335Y7017977D01*
X3085549Y7009002D01*
X3085550Y7009001D01*
Y6833019D01*
X3085549Y6833017D01*
X3087335Y6824043D01*
X3092418Y6816435D01*
X3119103Y6789750D01*
X3119104Y6789749D01*
X3126712Y6784666D01*
X3135686Y6782881D01*
X3135687Y6782881D01*
X3172459D01*
X3194642Y6760696D01*
X3187448Y6749929D01*
X3177560Y6754025D01*
X3162443D01*
X3148476Y6748240D01*
X3137786Y6737550D01*
X3132001Y6723583D01*
Y6708466D01*
X3137786Y6694500D01*
X3148476Y6683810D01*
X3162443Y6678025D01*
X3177560D01*
X3191526Y6683810D01*
X3204222Y6678545D01*
X3207555Y6673558D01*
X3222440Y6663612D01*
X3239998Y6660120D01*
X3324998D01*
X3342556Y6663612D01*
X3357441Y6673558D01*
X3367387Y6688443D01*
X3370879Y6706001D01*
X3367387Y6723559D01*
X3357441Y6738444D01*
X3342556Y6748390D01*
X3324998Y6751883D01*
X3262028D01*
X3260730Y6758408D01*
X3260729Y6758409D01*
X3255647Y6766017D01*
X3247244Y6774420D01*
X3252506Y6787120D01*
X3324998D01*
X3342556Y6790612D01*
X3357441Y6800558D01*
X3367387Y6815443D01*
X3370879Y6833001D01*
X3367387Y6850559D01*
X3357441Y6865444D01*
X3342556Y6875390D01*
X3324998Y6878883D01*
X3239998D01*
X3222440Y6875390D01*
X3207555Y6865444D01*
X3201546Y6856452D01*
X3188000D01*
Y6857559D01*
X3182215Y6871525D01*
X3171525Y6882215D01*
X3157559Y6888000D01*
X3142442D01*
X3132451Y6894676D01*
Y6999289D01*
X3192532Y7059370D01*
X3205171Y7058125D01*
X3207555Y7054558D01*
X3222440Y7044612D01*
X3239998Y7041120D01*
X3324998D01*
X3334665Y7043043D01*
X3343801Y7031911D01*
X3341998Y7027560D01*
Y7013413D01*
X3332897Y7004312D01*
X3324998Y7005883D01*
X3239998D01*
X3222440Y7002390D01*
X3207555Y6992444D01*
X3197609Y6977559D01*
X3194116Y6960001D01*
X3197609Y6942443D01*
X3207555Y6927558D01*
X3222440Y6917612D01*
X3239998Y6914120D01*
X3324998D01*
X3342556Y6917612D01*
X3357441Y6927558D01*
X3367387Y6942443D01*
X3370879Y6960001D01*
X3368231Y6973317D01*
X3376915Y6982001D01*
X3387557D01*
X3401524Y6987786D01*
X3412213Y6998476D01*
X3417998Y7012443D01*
Y7027560D01*
X3412213Y7041526D01*
X3401524Y7052216D01*
X3387557Y7058001D01*
X3375016D01*
X3369406Y7064871D01*
X3367387Y7069444D01*
X3370879Y7087001D01*
X3367387Y7104559D01*
X3357441Y7119444D01*
X3342556Y7129390D01*
X3324998Y7132883D01*
D02*
G37*
G36*
X6315000Y7345691D02*
X6185000D01*
X6164116Y7342942D01*
X6144655Y7334881D01*
X6127944Y7322057D01*
X6115120Y7305346D01*
X6107059Y7285885D01*
X6104310Y7265001D01*
Y7135001D01*
X6107059Y7114117D01*
X6115120Y7094656D01*
X6127944Y7077944D01*
X6144655Y7065121D01*
X6164116Y7057060D01*
X6185000Y7054311D01*
X6315000D01*
X6335884Y7057060D01*
X6355345Y7065121D01*
X6372057Y7077944D01*
X6384880Y7094656D01*
X6392941Y7114117D01*
X6395691Y7135001D01*
Y7265001D01*
X6392941Y7285885D01*
X6384880Y7305346D01*
X6372057Y7322057D01*
X6355345Y7334881D01*
X6335884Y7342942D01*
X6315000Y7345691D01*
D02*
G37*
G36*
X4414999D02*
X4284999D01*
X4264115Y7342942D01*
X4244654Y7334881D01*
X4227942Y7322057D01*
X4215119Y7305346D01*
X4207058Y7285885D01*
X4204309Y7265001D01*
Y7135001D01*
X4207058Y7114117D01*
X4215119Y7094656D01*
X4227942Y7077944D01*
X4244654Y7065121D01*
X4264115Y7057060D01*
X4284999Y7054311D01*
X4414999D01*
X4435883Y7057060D01*
X4455344Y7065121D01*
X4472056Y7077944D01*
X4484879Y7094656D01*
X4492940Y7114117D01*
X4495689Y7135001D01*
Y7265001D01*
X4492940Y7285885D01*
X4484879Y7305346D01*
X4472056Y7322057D01*
X4455344Y7334881D01*
X4435883Y7342942D01*
X4414999Y7345691D01*
D02*
G37*
G36*
X5212700Y7047127D02*
Y7012700D01*
X5247127D01*
X5241031Y7027416D01*
X5227416Y7041031D01*
X5212700Y7047127D01*
D02*
G37*
G36*
X5187300D02*
X5172584Y7041031D01*
X5158969Y7027416D01*
X5152873Y7012700D01*
X5187300D01*
Y7047127D01*
D02*
G37*
G36*
X5247127Y6987300D02*
X5212700D01*
Y6952873D01*
X5227416Y6958969D01*
X5241031Y6972584D01*
X5247127Y6987300D01*
D02*
G37*
G36*
X5187300D02*
X5152873D01*
X5158969Y6972584D01*
X5172584Y6958969D01*
X5187300Y6952873D01*
Y6987300D01*
D02*
G37*
G36*
X6769089Y7345001D02*
X6730910D01*
X6694031Y7335119D01*
X6660967Y7316030D01*
X6633970Y7289033D01*
X6614881Y7255969D01*
X6604999Y7219090D01*
Y7180911D01*
X6614881Y7144033D01*
X6633970Y7110969D01*
X6660967Y7083972D01*
X6694031Y7064882D01*
X6730910Y7055001D01*
X6769089D01*
X6805967Y7064882D01*
X6830825Y7079234D01*
X6869457Y7040601D01*
Y6933348D01*
X6860000Y6925587D01*
X6799357D01*
X6772271Y6952672D01*
X6763109Y6958794D01*
X6752300Y6960944D01*
X6752299Y6960944D01*
X6247699D01*
X6236891Y6958794D01*
X6227728Y6952672D01*
X6227728Y6952671D01*
X6200643Y6925587D01*
X6139999D01*
X6128294Y6923258D01*
X6118370Y6916628D01*
X6111740Y6906704D01*
X6109411Y6894999D01*
Y6878242D01*
X5732502D01*
Y6925000D01*
X5367502D01*
Y6730000D01*
X5732502D01*
Y6821756D01*
X6109411D01*
Y6804999D01*
X6111740Y6793294D01*
X6118370Y6783370D01*
X6128294Y6776740D01*
X6139999Y6774411D01*
X6209999D01*
X6221704Y6776740D01*
X6231628Y6783370D01*
X6238258Y6793294D01*
X6240587Y6804999D01*
Y6881308D01*
X6246714Y6886015D01*
X6259414Y6879845D01*
Y6804999D01*
X6261742Y6793294D01*
X6268373Y6783370D01*
X6278296Y6776740D01*
X6290001Y6774411D01*
X6301551D01*
Y6705002D01*
X6301551Y6705001D01*
X6303336Y6696026D01*
X6308419Y6688418D01*
X6366549Y6630288D01*
Y6550001D01*
X6366549Y6550000D01*
X6368334Y6541026D01*
X6373418Y6533417D01*
X6412650Y6494186D01*
X6412533Y6486623D01*
X6410497Y6479803D01*
X6402927Y6476667D01*
X6392238Y6465978D01*
X6386453Y6452011D01*
Y6436894D01*
X6392238Y6422927D01*
X6402927Y6412238D01*
X6416894Y6406453D01*
X6432011D01*
X6445978Y6412238D01*
X6456667Y6422927D01*
X6457421Y6424746D01*
X6470662Y6429379D01*
X6482441Y6424500D01*
X6497559D01*
X6502302Y6426465D01*
X6515002Y6417979D01*
Y6259999D01*
X6685002D01*
Y6418835D01*
X6701375D01*
X6706962Y6416521D01*
X6722079D01*
X6736046Y6422306D01*
X6746735Y6432996D01*
X6752520Y6446962D01*
Y6462080D01*
X6746735Y6476046D01*
X6736046Y6486736D01*
X6722079Y6492521D01*
X6706962D01*
X6701375Y6490207D01*
X6685685D01*
Y6537502D01*
X6737499D01*
Y6662502D01*
X6607499D01*
X6602900Y6672902D01*
X6540200D01*
Y6600002D01*
X6527500D01*
Y6587302D01*
X6452100D01*
Y6539727D01*
X6445883Y6534625D01*
X6439400Y6533763D01*
X6413450Y6559713D01*
Y6640002D01*
X6411665Y6648976D01*
X6406582Y6656584D01*
X6406581Y6656585D01*
X6373366Y6689800D01*
X6378627Y6702500D01*
X6387058D01*
X6401025Y6708285D01*
X6411714Y6718974D01*
X6417499Y6732941D01*
Y6748058D01*
X6411714Y6762025D01*
X6401025Y6772714D01*
X6392221Y6776361D01*
X6386901Y6788650D01*
X6386861Y6791200D01*
X6388261Y6793294D01*
X6390589Y6804999D01*
Y6821756D01*
X6609410D01*
Y6804999D01*
X6611739Y6793294D01*
X6618369Y6783370D01*
X6628293Y6776740D01*
X6639998Y6774411D01*
X6700647D01*
X6727727Y6747332D01*
X6727727Y6747331D01*
X6736890Y6741209D01*
X6747698Y6739059D01*
X6875616D01*
X6875617Y6739059D01*
X6886426Y6741209D01*
X6895588Y6747331D01*
X6917670Y6769413D01*
X6917671Y6769414D01*
X6923793Y6778576D01*
X6925943Y6789384D01*
X6925943Y6789386D01*
Y7052300D01*
X6923793Y7063108D01*
X6917671Y7072271D01*
X6917670Y7072271D01*
X6870766Y7119175D01*
X6885118Y7144033D01*
X6894999Y7180911D01*
Y7219090D01*
X6885118Y7255969D01*
X6866028Y7289033D01*
X6839031Y7316030D01*
X6805967Y7335119D01*
X6769089Y7345001D01*
D02*
G37*
G36*
X4869088D02*
X4830908D01*
X4794030Y7335119D01*
X4760966Y7316030D01*
X4733969Y7289033D01*
X4714880Y7255969D01*
X4704998Y7219090D01*
Y7180911D01*
X4714880Y7144033D01*
X4733969Y7110969D01*
X4760966Y7083972D01*
X4794030Y7064882D01*
X4830908Y7055001D01*
X4869088D01*
X4905966Y7064882D01*
X4930824Y7079234D01*
X4969456Y7040601D01*
Y6933348D01*
X4959999Y6925587D01*
X4899355D01*
X4889946Y6934997D01*
Y6940613D01*
X4884160Y6954580D01*
X4873471Y6965270D01*
X4859504Y6971055D01*
X4844387D01*
X4830420Y6965270D01*
X4826095Y6960944D01*
X4347698D01*
X4336889Y6958794D01*
X4327727Y6952672D01*
X4327726Y6952671D01*
X4300642Y6925587D01*
X4239998D01*
X4228293Y6923258D01*
X4218369Y6916628D01*
X4211739Y6906704D01*
X4209410Y6894999D01*
Y6804999D01*
X4211739Y6793294D01*
X4218369Y6783370D01*
X4228293Y6776740D01*
X4239998Y6774411D01*
X4309998D01*
X4321703Y6776740D01*
X4331627Y6783370D01*
X4338257Y6793294D01*
X4340585Y6804999D01*
Y6881308D01*
X4346712Y6886015D01*
X4359412Y6879845D01*
Y6804999D01*
X4361741Y6793294D01*
X4368371Y6783370D01*
X4378295Y6776740D01*
X4390000Y6774411D01*
X4460000D01*
X4471705Y6776740D01*
X4481629Y6783370D01*
X4488259Y6793294D01*
X4490588Y6804999D01*
Y6821756D01*
X4709414D01*
Y6804999D01*
X4711743Y6793294D01*
X4718373Y6783370D01*
X4728297Y6776740D01*
X4740002Y6774411D01*
X4800651D01*
X4827731Y6747332D01*
X4827731Y6747331D01*
X4836894Y6741209D01*
X4847702Y6739059D01*
X4975615D01*
X4975616Y6739059D01*
X4986424Y6741209D01*
X4995587Y6747331D01*
X5017669Y6769413D01*
X5017670Y6769414D01*
X5023792Y6778576D01*
X5025942Y6789384D01*
X5025942Y6789386D01*
Y7052300D01*
X5023792Y7063108D01*
X5017670Y7072271D01*
X5017669Y7072271D01*
X4970765Y7119175D01*
X4985116Y7144033D01*
X4994998Y7180911D01*
Y7219090D01*
X4985116Y7255969D01*
X4966027Y7289033D01*
X4939030Y7316030D01*
X4905966Y7335119D01*
X4869088Y7345001D01*
D02*
G37*
G36*
X7337298Y6882900D02*
X7274598D01*
Y6817700D01*
X7337298D01*
Y6882900D01*
D02*
G37*
G36*
X3967561Y6838002D02*
X3952444D01*
X3938477Y6832216D01*
X3927787Y6821527D01*
X3922002Y6807560D01*
Y6792443D01*
X3927787Y6778476D01*
X3938477Y6767787D01*
X3952444Y6762002D01*
X3967561D01*
X3981527Y6767787D01*
X3992217Y6778476D01*
X3998002Y6792443D01*
Y6807560D01*
X3992217Y6821527D01*
X3981527Y6832216D01*
X3967561Y6838002D01*
D02*
G37*
G36*
X4517557Y6689099D02*
X4502440D01*
X4488473Y6683314D01*
X4477784Y6672624D01*
X4471999Y6658658D01*
Y6643541D01*
X4477784Y6629574D01*
X4488473Y6618884D01*
X4502440Y6613099D01*
X4517557D01*
X4531524Y6618884D01*
X4542213Y6629574D01*
X4547999Y6643541D01*
Y6658658D01*
X4542213Y6672624D01*
X4531524Y6683314D01*
X4517557Y6689099D01*
D02*
G37*
G36*
X6514800Y6672902D02*
X6452100D01*
Y6612702D01*
X6514800D01*
Y6672902D01*
D02*
G37*
G36*
X3324998Y6624883D02*
X3239998D01*
X3222440Y6621390D01*
X3207555Y6611444D01*
X3202556Y6603964D01*
X3169588D01*
X3159312Y6614240D01*
X3145345Y6620025D01*
X3130228D01*
X3116261Y6614240D01*
X3105572Y6603550D01*
X3099787Y6589584D01*
Y6574467D01*
X3105572Y6560500D01*
X3116261Y6549810D01*
X3130228Y6544025D01*
X3145345D01*
X3159312Y6549810D01*
X3166564Y6557063D01*
X3200536D01*
X3207555Y6546558D01*
X3222440Y6536612D01*
X3239998Y6533120D01*
X3324998D01*
X3342556Y6536612D01*
X3357441Y6546558D01*
X3367387Y6561443D01*
X3370879Y6579001D01*
X3367387Y6596559D01*
X3357441Y6611444D01*
X3342556Y6621390D01*
X3324998Y6624883D01*
D02*
G37*
G36*
X2780000Y6635487D02*
X2750200D01*
Y6591701D01*
X2833959D01*
X2832186Y6600617D01*
X2819942Y6618943D01*
X2801616Y6631187D01*
X2780000Y6635487D01*
D02*
G37*
G36*
X2724800D02*
X2695000D01*
X2673384Y6631187D01*
X2655059Y6618943D01*
X2642815Y6600617D01*
X2641041Y6591701D01*
X2724800D01*
Y6635487D01*
D02*
G37*
G36*
X2833959Y6566301D02*
X2750200D01*
Y6522516D01*
X2780000D01*
X2801616Y6526816D01*
X2819942Y6539060D01*
X2832186Y6557385D01*
X2833959Y6566301D01*
D02*
G37*
G36*
X2724800D02*
X2641041D01*
X2642815Y6557385D01*
X2655059Y6539060D01*
X2673384Y6526816D01*
X2695000Y6522516D01*
X2724800D01*
Y6566301D01*
D02*
G37*
G36*
X8136116Y6417300D02*
X8077700D01*
Y6391358D01*
X8100000D01*
X8114788Y6394299D01*
X8127325Y6402676D01*
X8135701Y6415212D01*
X8136116Y6417300D01*
D02*
G37*
G36*
X5820402Y6500399D02*
X5737703D01*
Y6387699D01*
X5820402D01*
Y6500399D01*
D02*
G37*
G36*
X5712303D02*
X5629603D01*
Y6387699D01*
X5712303D01*
Y6500399D01*
D02*
G37*
G36*
X5820402Y6362299D02*
X5737703D01*
Y6249599D01*
X5820402D01*
Y6362299D01*
D02*
G37*
G36*
X5712303D02*
X5629603D01*
Y6249599D01*
X5712303D01*
Y6362299D01*
D02*
G37*
G36*
X6586142Y6231925D02*
X6571025D01*
X6557059Y6226140D01*
X6548090Y6217171D01*
X6544354Y6220907D01*
X6530387Y6226692D01*
X6515270D01*
X6501304Y6220907D01*
X6490614Y6210217D01*
X6484829Y6196250D01*
Y6181133D01*
X6490614Y6167167D01*
X6501304Y6156477D01*
X6515270Y6150692D01*
X6530387D01*
X6544354Y6156477D01*
X6553323Y6165446D01*
X6557059Y6161710D01*
X6571025Y6155925D01*
X6586142D01*
X6600109Y6161710D01*
X6610799Y6172400D01*
X6616584Y6186367D01*
Y6201484D01*
X6610799Y6215450D01*
X6600109Y6226140D01*
X6586142Y6231925D01*
D02*
G37*
G36*
X6106434Y6269125D02*
X6091317D01*
X6077350Y6263340D01*
X6066660Y6252651D01*
X6060875Y6238684D01*
Y6223567D01*
X6066660Y6209600D01*
X6077350Y6198911D01*
X6091317Y6193126D01*
X6106434D01*
X6120401Y6198911D01*
X6131090Y6209600D01*
X6136875Y6223567D01*
Y6238684D01*
X6131090Y6252651D01*
X6120401Y6263340D01*
X6106434Y6269125D01*
D02*
G37*
G36*
X4231198Y6251637D02*
X4216080D01*
X4202114Y6245852D01*
X4191424Y6235163D01*
X4185639Y6221196D01*
Y6206079D01*
X4191424Y6192112D01*
X4202114Y6181423D01*
X4216080Y6175638D01*
X4231198D01*
X4245164Y6181423D01*
X4255854Y6192112D01*
X4261639Y6206079D01*
Y6221196D01*
X4255854Y6235163D01*
X4245164Y6245852D01*
X4231198Y6251637D01*
D02*
G37*
G36*
X3687298Y6062299D02*
X3624598D01*
Y5997099D01*
X3687298D01*
Y6062299D01*
D02*
G37*
G36*
X5673556Y5953294D02*
X5658439D01*
X5644472Y5947509D01*
X5633783Y5936819D01*
X5627998Y5922852D01*
Y5907735D01*
X5633783Y5893769D01*
X5644472Y5883079D01*
X5658439Y5877294D01*
X5673556D01*
X5687523Y5883079D01*
X5698212Y5893769D01*
X5703997Y5907735D01*
Y5922852D01*
X5698212Y5936819D01*
X5687523Y5947509D01*
X5673556Y5953294D01*
D02*
G37*
G36*
X4738060Y5863002D02*
X4722943D01*
X4708976Y5857217D01*
X4698286Y5846528D01*
X4692501Y5832561D01*
Y5817444D01*
X4698286Y5803477D01*
X4708976Y5792788D01*
X4722943Y5787002D01*
X4738060D01*
X4752026Y5792788D01*
X4762716Y5803477D01*
X4768501Y5817444D01*
Y5832561D01*
X4762716Y5846528D01*
X4752026Y5857217D01*
X4738060Y5863002D01*
D02*
G37*
G36*
X5212700Y5747127D02*
Y5712700D01*
X5247127D01*
X5241031Y5727416D01*
X5227416Y5741031D01*
X5212700Y5747127D01*
D02*
G37*
G36*
X5187300D02*
X5172584Y5741031D01*
X5158969Y5727416D01*
X5152873Y5712700D01*
X5187300D01*
Y5747127D01*
D02*
G37*
G36*
X4786028Y5741534D02*
X4770911D01*
X4756944Y5735749D01*
X4746254Y5725060D01*
X4740469Y5711093D01*
Y5695976D01*
X4746254Y5682009D01*
X4756944Y5671320D01*
X4770911Y5665535D01*
X4786028D01*
X4799994Y5671320D01*
X4810684Y5682009D01*
X4816469Y5695976D01*
Y5711093D01*
X4810684Y5725060D01*
X4799994Y5735749D01*
X4786028Y5741534D01*
D02*
G37*
G36*
X5247127Y5687300D02*
X5212700D01*
Y5652873D01*
X5227416Y5658969D01*
X5241031Y5672584D01*
X5247127Y5687300D01*
D02*
G37*
G36*
X5187300D02*
X5152873D01*
X5158969Y5672584D01*
X5172584Y5658969D01*
X5187300Y5652873D01*
Y5687300D01*
D02*
G37*
G36*
X3907699Y5796216D02*
Y5730001D01*
Y5663787D01*
X3911737Y5664590D01*
X3925928Y5674072D01*
X3930938Y5681570D01*
X3936572D01*
X3947322Y5674387D01*
X3960002Y5671864D01*
X3968034Y5673462D01*
X3969056Y5673259D01*
X3969901Y5672694D01*
X3978875Y5670909D01*
X3978876Y5670909D01*
X3984825D01*
X3986406Y5667094D01*
X3997095Y5656405D01*
X4011062Y5650620D01*
X4026179D01*
X4040146Y5656405D01*
X4050835Y5667094D01*
X4056620Y5681061D01*
Y5696178D01*
X4050835Y5710145D01*
X4040146Y5720834D01*
X4026179Y5726619D01*
X4011062D01*
X4005839Y5724456D01*
X3993139Y5732942D01*
Y5755001D01*
X3990616Y5767682D01*
X3983433Y5778432D01*
X3972683Y5785616D01*
X3960002Y5788138D01*
X3947322Y5785616D01*
X3936572Y5778432D01*
X3930938D01*
X3925928Y5785931D01*
X3911737Y5795412D01*
X3907699Y5796216D01*
D02*
G37*
G36*
X7040059Y5698000D02*
X7024941D01*
X7010975Y5692215D01*
X7000285Y5681525D01*
X6994500Y5667559D01*
Y5652442D01*
X7000285Y5638475D01*
X7010975Y5627785D01*
X7024941Y5622000D01*
X7040059D01*
X7054025Y5627785D01*
X7064715Y5638475D01*
X7070500Y5652442D01*
Y5667559D01*
X7064715Y5681525D01*
X7054025Y5692215D01*
X7040059Y5698000D01*
D02*
G37*
G36*
X5362700Y5447127D02*
Y5412700D01*
X5397127D01*
X5391031Y5427416D01*
X5377416Y5441032D01*
X5362700Y5447127D01*
D02*
G37*
G36*
X5337300D02*
X5322584Y5441032D01*
X5308969Y5427416D01*
X5302873Y5412700D01*
X5337300D01*
Y5447127D01*
D02*
G37*
G36*
X5397127Y5387300D02*
X5362700D01*
Y5352873D01*
X5377416Y5358969D01*
X5391031Y5372584D01*
X5397127Y5387300D01*
D02*
G37*
G36*
X5337300D02*
X5302873D01*
X5308969Y5372584D01*
X5322584Y5358969D01*
X5337300Y5352873D01*
Y5387300D01*
D02*
G37*
G36*
X3202903Y5400398D02*
X3137703D01*
Y5337698D01*
X3202903D01*
Y5400398D01*
D02*
G37*
G36*
X5810002Y5790000D02*
X5640003D01*
Y5633962D01*
X5639215Y5630004D01*
X5640003Y5626043D01*
Y5560000D01*
X5644313D01*
Y5512502D01*
X5587501D01*
Y5387502D01*
X5614961D01*
Y5356418D01*
X5611499Y5348060D01*
Y5332943D01*
X5617284Y5318976D01*
X5627974Y5308287D01*
X5641941Y5302502D01*
X5657058D01*
X5671024Y5308287D01*
X5681714Y5318976D01*
X5687499Y5332943D01*
Y5348060D01*
X5686333Y5350876D01*
Y5387502D01*
X5717501D01*
Y5468567D01*
X5718283Y5472501D01*
X5718283Y5472502D01*
Y5475000D01*
X5717501Y5478934D01*
Y5512502D01*
X5715685D01*
Y5560000D01*
X5810002D01*
Y5790000D01*
D02*
G37*
G36*
X5522300Y5195400D02*
X5457100D01*
Y5132700D01*
X5522300D01*
Y5195400D01*
D02*
G37*
G36*
X6840002Y5175900D02*
X6792702D01*
Y5065202D01*
X6865899D01*
Y5150002D01*
X6863928Y5159913D01*
X6858314Y5168315D01*
X6849912Y5173928D01*
X6840002Y5175900D01*
D02*
G37*
G36*
X6767302D02*
X6720002D01*
X6710091Y5173928D01*
X6701689Y5168315D01*
X6696075Y5159913D01*
X6694104Y5150002D01*
Y5065202D01*
X6767302D01*
Y5175900D01*
D02*
G37*
G36*
X5522300Y5107300D02*
X5457100D01*
Y5044600D01*
X5522300D01*
Y5107300D01*
D02*
G37*
G36*
X5152299Y5025398D02*
X5087099D01*
Y4962698D01*
X5152299D01*
Y5025398D01*
D02*
G37*
G36*
X6865899Y5039802D02*
X6792702D01*
Y4954904D01*
X6840002D01*
X6849912Y4956876D01*
X6858314Y4962489D01*
X6863928Y4970891D01*
X6865899Y4980802D01*
Y5039802D01*
D02*
G37*
G36*
X6767302D02*
X6694104D01*
Y4980802D01*
X6696075Y4970891D01*
X6701689Y4962489D01*
X6710091Y4956876D01*
X6720002Y4954904D01*
X6767302D01*
Y5039802D01*
D02*
G37*
G36*
X5152299Y4937298D02*
X5087099D01*
Y4874598D01*
X5152299D01*
Y4937298D01*
D02*
G37*
G36*
X4837556Y4958000D02*
X4822439D01*
X4808473Y4952215D01*
X4797783Y4941526D01*
X4791998Y4927559D01*
Y4921942D01*
X4770093Y4900037D01*
X4768898Y4899799D01*
X4759735Y4893677D01*
X4759735Y4893676D01*
X4658780Y4792722D01*
X4652658Y4783560D01*
X4650508Y4772751D01*
X4650508Y4772750D01*
Y4656237D01*
X4638751D01*
X4627270Y4651481D01*
X4622515Y4640001D01*
Y4600001D01*
X4627270Y4588520D01*
X4638751Y4583765D01*
X4650508D01*
Y4487501D01*
X4650508Y4487499D01*
X4652658Y4476691D01*
X4658780Y4467529D01*
X4661249Y4465060D01*
Y4377501D01*
X4790300Y4377501D01*
X4795852Y4367100D01*
X4796802Y4367101D01*
X4796802Y4367101D01*
X4858553D01*
Y4440001D01*
Y4512901D01*
X4796802D01*
X4796802Y4512902D01*
X4795852D01*
X4790300Y4502502D01*
X4783152Y4502501D01*
X4706994D01*
Y4579232D01*
X4718750Y4583764D01*
X4718750D01*
X4721219Y4584787D01*
X4723884Y4584597D01*
X4726739Y4587073D01*
X4730232Y4588520D01*
X4730253Y4588571D01*
X4730336Y4588771D01*
X4731255Y4590990D01*
X4733272Y4592739D01*
X4743272Y4612739D01*
X4743358Y4613949D01*
X4744153Y4614866D01*
X4743788Y4620000D01*
X4744153Y4625134D01*
X4743358Y4626051D01*
X4743272Y4627261D01*
X4733272Y4647261D01*
X4731256Y4649009D01*
X4730232Y4651481D01*
X4726736Y4652930D01*
X4723884Y4655403D01*
X4721222Y4655213D01*
X4718751Y4656237D01*
X4706994D01*
Y4761053D01*
X4793317Y4847376D01*
X4794512Y4847613D01*
X4803675Y4853736D01*
X4831939Y4882000D01*
X4837556D01*
X4851523Y4887785D01*
X4862213Y4898475D01*
X4867998Y4912442D01*
Y4927559D01*
X4862213Y4941526D01*
X4851523Y4952215D01*
X4837556Y4958000D01*
D02*
G37*
G36*
X4967559Y4947998D02*
X4952442D01*
X4938475Y4942213D01*
X4927785Y4931523D01*
X4922000Y4917556D01*
Y4911944D01*
X4888777Y4878721D01*
X4882655Y4869559D01*
X4880505Y4858751D01*
X4880505Y4858749D01*
Y4656237D01*
X4868748D01*
X4868745Y4656236D01*
X4856250D01*
X4851882Y4654427D01*
X4847243Y4653509D01*
X4846312Y4652119D01*
X4844769Y4651480D01*
X4842961Y4647116D01*
X4840328Y4643184D01*
X4840382Y4642916D01*
X4840654Y4641544D01*
X4840014Y4640000D01*
X4841823Y4635632D01*
X4842741Y4630994D01*
X4847526Y4623816D01*
X4849816Y4620000D01*
X4847528Y4616186D01*
X4842741Y4609007D01*
X4841823Y4604368D01*
X4840014Y4600000D01*
X4840654Y4598456D01*
X4840329Y4596816D01*
X4842960Y4592888D01*
X4844769Y4588519D01*
X4846313Y4587880D01*
X4847243Y4586491D01*
X4851881Y4585574D01*
X4856250Y4583764D01*
X4868750D01*
X4868753Y4583765D01*
X4948748D01*
X4960229Y4588520D01*
X4964984Y4600001D01*
Y4640001D01*
X4960229Y4651481D01*
X4948748Y4656237D01*
X4936991D01*
Y4847052D01*
X4961937Y4871998D01*
X4967559D01*
X4981525Y4877783D01*
X4992215Y4888473D01*
X4998000Y4902439D01*
Y4917556D01*
X4992215Y4931523D01*
X4981525Y4942213D01*
X4967559Y4947998D01*
D02*
G37*
G36*
X4946653Y4512901D02*
X4883953D01*
Y4452701D01*
X4946653D01*
Y4512901D01*
D02*
G37*
G36*
Y4427301D02*
X4883953D01*
Y4367101D01*
X4946653D01*
Y4427301D01*
D02*
G37*
G36*
X8065002Y4425977D02*
X7835002D01*
X7815493Y4422097D01*
X7798954Y4411046D01*
X7787903Y4394507D01*
X7784022Y4374998D01*
X7787903Y4355489D01*
X7798954Y4338950D01*
X7815493Y4327899D01*
X7835002Y4324018D01*
X8065002D01*
X8084511Y4327899D01*
X8101050Y4338950D01*
X8103028Y4341911D01*
X8124349D01*
X8128475Y4337785D01*
X8142441Y4332000D01*
X8157558D01*
X8171525Y4337785D01*
X8182215Y4348475D01*
X8188000Y4362441D01*
Y4377558D01*
X8182215Y4391525D01*
X8171525Y4402215D01*
X8157558Y4408000D01*
X8142441D01*
X8130579Y4403086D01*
X8106368D01*
X8101050Y4411046D01*
X8084511Y4422097D01*
X8065002Y4425977D01*
D02*
G37*
G36*
X4712299Y4325399D02*
X4647099D01*
Y4262699D01*
X4712299D01*
Y4325399D01*
D02*
G37*
G36*
X8065002Y4275980D02*
X7835002D01*
X7815493Y4272099D01*
X7798954Y4261048D01*
X7787903Y4244509D01*
X7784022Y4225000D01*
X7787903Y4205491D01*
X7798954Y4188953D01*
X7815493Y4177901D01*
X7835002Y4174021D01*
X8065002D01*
X8084511Y4177901D01*
X8101050Y4188953D01*
X8104698Y4194413D01*
X8127789D01*
X8129416Y4192786D01*
X8143383Y4187001D01*
X8158500D01*
X8172467Y4192786D01*
X8183156Y4203475D01*
X8188941Y4217442D01*
Y4232559D01*
X8183156Y4246526D01*
X8172467Y4257215D01*
X8158500Y4263000D01*
X8143383D01*
X8129416Y4257215D01*
X8127789Y4255588D01*
X8104698D01*
X8101050Y4261048D01*
X8084511Y4272099D01*
X8065002Y4275980D01*
D02*
G37*
G36*
X4712299Y4237299D02*
X4647099D01*
Y4174599D01*
X4712299D01*
Y4237299D01*
D02*
G37*
G36*
X3861116Y4177300D02*
X3802700D01*
Y4151358D01*
X3825000D01*
X3839788Y4154299D01*
X3852325Y4162676D01*
X3860701Y4175212D01*
X3861116Y4177300D01*
D02*
G37*
G36*
X8065002Y4136582D02*
X7962702D01*
Y4087698D01*
X8124059D01*
X8121897Y4098565D01*
X8108548Y4118544D01*
X8088569Y4131894D01*
X8065002Y4136582D01*
D02*
G37*
G36*
X7937302D02*
X7835002D01*
X7811435Y4131894D01*
X7791456Y4118544D01*
X7778106Y4098565D01*
X7775945Y4087698D01*
X7937302D01*
Y4136582D01*
D02*
G37*
G36*
X4037558Y4147999D02*
X4022441D01*
X4008474Y4142214D01*
X3997785Y4131525D01*
X3992000Y4117558D01*
Y4102441D01*
X3997785Y4088474D01*
X4008474Y4077785D01*
X4022441Y4071999D01*
X4037558D01*
X4051525Y4077785D01*
X4062214Y4088474D01*
X4067999Y4102441D01*
Y4117558D01*
X4062214Y4131525D01*
X4051525Y4142214D01*
X4037558Y4147999D01*
D02*
G37*
G36*
X8124059Y4062298D02*
X7962702D01*
Y4013415D01*
X8065002D01*
X8088569Y4018103D01*
X8108548Y4031452D01*
X8121897Y4051431D01*
X8124059Y4062298D01*
D02*
G37*
G36*
X7937302D02*
X7775945D01*
X7778106Y4051431D01*
X7791456Y4031452D01*
X7799465Y4026101D01*
X7795613Y4013401D01*
X7745085D01*
Y3950701D01*
X7810285D01*
Y4005383D01*
X7821900Y4016021D01*
X7835002Y4013415D01*
X7937302D01*
Y4062298D01*
D02*
G37*
G36*
X7187559Y3955001D02*
X7172442D01*
X7158476Y3949216D01*
X7150105Y3940845D01*
X7141733Y3949216D01*
X7127767Y3955001D01*
X7112649D01*
X7098683Y3949216D01*
X7087993Y3938526D01*
X7082208Y3924559D01*
Y3909442D01*
X7087993Y3895476D01*
X7098683Y3884786D01*
X7112649Y3879001D01*
X7127767D01*
X7141733Y3884786D01*
X7150105Y3893157D01*
X7158476Y3884786D01*
X7172442Y3879001D01*
X7187559D01*
X7201526Y3884786D01*
X7212216Y3895476D01*
X7218001Y3909442D01*
Y3924559D01*
X7212216Y3938526D01*
X7201526Y3949216D01*
X7187559Y3955001D01*
D02*
G37*
G36*
X4462700Y3947127D02*
Y3912700D01*
X4497127D01*
X4491031Y3927416D01*
X4477416Y3941031D01*
X4462700Y3947127D01*
D02*
G37*
G36*
X4437300D02*
X4422584Y3941031D01*
X4408969Y3927416D01*
X4402873Y3912700D01*
X4437300D01*
Y3947127D01*
D02*
G37*
G36*
X4312700D02*
Y3912700D01*
X4347127D01*
X4341031Y3927416D01*
X4327416Y3941031D01*
X4312700Y3947127D01*
D02*
G37*
G36*
X4287300D02*
X4272584Y3941031D01*
X4258969Y3927416D01*
X4252873Y3912700D01*
X4287300D01*
Y3947127D01*
D02*
G37*
G36*
X2990306Y4005400D02*
X2987700D01*
Y3862700D01*
X3130400D01*
Y3865305D01*
X3124428Y3895329D01*
X3112714Y3923609D01*
X3095707Y3949062D01*
X3074062Y3970707D01*
X3048610Y3987714D01*
X3020329Y3999428D01*
X2990306Y4005400D01*
D02*
G37*
G36*
X7810285Y3925301D02*
X7745085D01*
Y3862601D01*
X7810285D01*
Y3925301D01*
D02*
G37*
G36*
X4497127Y3887300D02*
X4462700D01*
Y3852873D01*
X4477416Y3858969D01*
X4491031Y3872584D01*
X4497127Y3887300D01*
D02*
G37*
G36*
X4437300D02*
X4402873D01*
X4408969Y3872584D01*
X4422584Y3858969D01*
X4437300Y3852873D01*
Y3887300D01*
D02*
G37*
G36*
X4347127D02*
X4312700D01*
Y3852873D01*
X4327416Y3858969D01*
X4341031Y3872584D01*
X4347127Y3887300D01*
D02*
G37*
G36*
X4287300D02*
X4252873D01*
X4258969Y3872584D01*
X4272584Y3858969D01*
X4287300Y3852873D01*
Y3887300D01*
D02*
G37*
G36*
X8460001Y3960002D02*
X8240001D01*
Y3800003D01*
X8460001D01*
Y3960002D01*
D02*
G37*
G36*
X4402873Y3822527D02*
Y3788100D01*
X4437300D01*
X4431204Y3802816D01*
X4417589Y3816432D01*
X4402873Y3822527D01*
D02*
G37*
G36*
X4377473D02*
X4362757Y3816432D01*
X4349141Y3802816D01*
X4343046Y3788100D01*
X4377473D01*
Y3822527D01*
D02*
G37*
G36*
X4162700Y3797127D02*
Y3762700D01*
X4197127D01*
X4191031Y3777416D01*
X4177416Y3791032D01*
X4162700Y3797127D01*
D02*
G37*
G36*
X4137300D02*
X4122584Y3791032D01*
X4108969Y3777416D01*
X4102873Y3762700D01*
X4137300D01*
Y3797127D01*
D02*
G37*
G36*
X4437300Y3762700D02*
X4402873D01*
Y3728273D01*
X4417589Y3734369D01*
X4431204Y3747984D01*
X4437300Y3762700D01*
D02*
G37*
G36*
X4377473D02*
X4343046D01*
X4349141Y3747984D01*
X4362757Y3734369D01*
X4377473Y3728273D01*
Y3762700D01*
D02*
G37*
G36*
X4197127Y3737300D02*
X4162700D01*
Y3702873D01*
X4177416Y3708969D01*
X4191031Y3722584D01*
X4197127Y3737300D01*
D02*
G37*
G36*
X4137300D02*
X4102873D01*
X4108969Y3722584D01*
X4122584Y3708969D01*
X4137300Y3702873D01*
Y3737300D01*
D02*
G37*
G36*
X3130400Y3837300D02*
X2987700D01*
Y3694600D01*
X2990306D01*
X3020329Y3700572D01*
X3048610Y3712286D01*
X3074062Y3729293D01*
X3095707Y3750938D01*
X3112714Y3776390D01*
X3124428Y3804671D01*
X3130400Y3834694D01*
Y3837300D01*
D02*
G37*
G36*
X8019999Y3760897D02*
X7935199D01*
Y3687699D01*
X8045897D01*
Y3734999D01*
X8043925Y3744910D01*
X8038311Y3753312D01*
X8029910Y3758925D01*
X8019999Y3760897D01*
D02*
G37*
G36*
X7909799D02*
X7850799D01*
X7840888Y3758925D01*
X7832486Y3753312D01*
X7826872Y3744910D01*
X7824901Y3734999D01*
Y3687699D01*
X7909799D01*
Y3760897D01*
D02*
G37*
G36*
X7072198Y3751459D02*
Y3665200D01*
X7115983D01*
Y3697500D01*
X7111684Y3719115D01*
X7099439Y3737441D01*
X7081114Y3749685D01*
X7072198Y3751459D01*
D02*
G37*
G36*
X4705215Y3699466D02*
Y3665039D01*
X4739643D01*
X4733547Y3679755D01*
X4719932Y3693371D01*
X4705215Y3699466D01*
D02*
G37*
G36*
X4679815D02*
X4665099Y3693371D01*
X4651484Y3679755D01*
X4645388Y3665039D01*
X4679815D01*
Y3699466D01*
D02*
G37*
G36*
X4387698Y3697127D02*
Y3662700D01*
X4422125D01*
X4416029Y3677417D01*
X4402414Y3691032D01*
X4387698Y3697127D01*
D02*
G37*
G36*
X4362298D02*
X4347581Y3691032D01*
X4333966Y3677417D01*
X4327870Y3662700D01*
X4362298D01*
Y3697127D01*
D02*
G37*
G36*
X4562716Y3696966D02*
Y3662539D01*
X4597143D01*
X4591047Y3677256D01*
X4577432Y3690871D01*
X4562716Y3696966D01*
D02*
G37*
G36*
X4537316D02*
X4522599Y3690871D01*
X4508984Y3677256D01*
X4502888Y3662539D01*
X4537316D01*
Y3696966D01*
D02*
G37*
G36*
X4212715D02*
Y3662539D01*
X4247143D01*
X4241047Y3677256D01*
X4227432Y3690871D01*
X4212715Y3696966D01*
D02*
G37*
G36*
X4187315D02*
X4172599Y3690871D01*
X4158984Y3677256D01*
X4152888Y3662539D01*
X4187315D01*
Y3696966D01*
D02*
G37*
G36*
X4739643Y3639639D02*
X4705215D01*
Y3605212D01*
X4719932Y3611308D01*
X4733547Y3624923D01*
X4739643Y3639639D01*
D02*
G37*
G36*
X4679815D02*
X4645388D01*
X4651484Y3624923D01*
X4665099Y3611308D01*
X4679815Y3605212D01*
Y3639639D01*
D02*
G37*
G36*
X4422125Y3637300D02*
X4387698D01*
Y3602873D01*
X4402414Y3608969D01*
X4416029Y3622584D01*
X4422125Y3637300D01*
D02*
G37*
G36*
X4362298D02*
X4327870D01*
X4333966Y3622584D01*
X4347581Y3608969D01*
X4362298Y3602873D01*
Y3637300D01*
D02*
G37*
G36*
X4597143Y3637139D02*
X4562716D01*
Y3602712D01*
X4577432Y3608808D01*
X4591047Y3622423D01*
X4597143Y3637139D01*
D02*
G37*
G36*
X4537316D02*
X4502888D01*
X4508984Y3622423D01*
X4522599Y3608808D01*
X4537316Y3602712D01*
Y3637139D01*
D02*
G37*
G36*
X4247143D02*
X4212715D01*
Y3602712D01*
X4227432Y3608808D01*
X4241047Y3622423D01*
X4247143Y3637139D01*
D02*
G37*
G36*
X4187315D02*
X4152888D01*
X4158984Y3622423D01*
X4172599Y3608808D01*
X4187315Y3602712D01*
Y3637139D01*
D02*
G37*
G36*
X8045897Y3662299D02*
X7935199D01*
Y3589101D01*
X8019999D01*
X8029910Y3591073D01*
X8038311Y3596686D01*
X8043925Y3605088D01*
X8045897Y3614999D01*
Y3662299D01*
D02*
G37*
G36*
X7909799D02*
X7824901D01*
Y3614999D01*
X7826872Y3605088D01*
X7832486Y3596686D01*
X7840888Y3591073D01*
X7850799Y3589101D01*
X7909799D01*
Y3662299D01*
D02*
G37*
G36*
X7115983Y3639800D02*
X7072198D01*
Y3553541D01*
X7081114Y3555314D01*
X7099439Y3567559D01*
X7111684Y3585884D01*
X7115983Y3607500D01*
Y3639800D01*
D02*
G37*
G36*
X4562716Y3474466D02*
Y3440039D01*
X4597143D01*
X4591047Y3454755D01*
X4577432Y3468371D01*
X4562716Y3474466D01*
D02*
G37*
G36*
X4537316D02*
X4522599Y3468371D01*
X4508984Y3454755D01*
X4502888Y3440039D01*
X4537316D01*
Y3474466D01*
D02*
G37*
G36*
X4212715D02*
Y3440039D01*
X4247143D01*
X4241047Y3454755D01*
X4227432Y3468371D01*
X4212715Y3474466D01*
D02*
G37*
G36*
X4187315D02*
X4172599Y3468371D01*
X4158984Y3454755D01*
X4152888Y3440039D01*
X4187315D01*
Y3474466D01*
D02*
G37*
G36*
X4389819Y3474251D02*
Y3439824D01*
X4424246D01*
X4418151Y3454540D01*
X4404536Y3468155D01*
X4389819Y3474251D01*
D02*
G37*
G36*
X4364419D02*
X4349703Y3468155D01*
X4336088Y3454540D01*
X4329992Y3439824D01*
X4364419D01*
Y3474251D01*
D02*
G37*
G36*
X4597143Y3414639D02*
X4562716D01*
Y3380212D01*
X4577432Y3386308D01*
X4591047Y3399923D01*
X4597143Y3414639D01*
D02*
G37*
G36*
X4537316D02*
X4502888D01*
X4508984Y3399923D01*
X4522599Y3386308D01*
X4537316Y3380212D01*
Y3414639D01*
D02*
G37*
G36*
X4247143D02*
X4212715D01*
Y3380212D01*
X4227432Y3386308D01*
X4241047Y3399923D01*
X4247143Y3414639D01*
D02*
G37*
G36*
X4187315D02*
X4152888D01*
X4158984Y3399923D01*
X4172599Y3386308D01*
X4187315Y3380212D01*
Y3414639D01*
D02*
G37*
G36*
X4424246Y3414424D02*
X4389819D01*
Y3379997D01*
X4404536Y3386092D01*
X4418151Y3399707D01*
X4424246Y3414424D01*
D02*
G37*
G36*
X4364419D02*
X4329992D01*
X4336088Y3399707D01*
X4349703Y3386092D01*
X4364419Y3379997D01*
Y3414424D01*
D02*
G37*
G36*
X7565002Y3478738D02*
X7465001D01*
X7453521Y3473983D01*
X7448765Y3462502D01*
Y3387502D01*
X7453521Y3376021D01*
X7465001Y3371266D01*
X7483261D01*
X7486758Y3359997D01*
X7488046Y3353528D01*
X7488909Y3349190D01*
X7488909Y3349189D01*
X7495031Y3340028D01*
X7495031Y3340027D01*
X7563660Y3271403D01*
Y3252535D01*
X7553951Y3246048D01*
X7542900Y3229509D01*
X7539019Y3210000D01*
Y3140000D01*
X7542900Y3120491D01*
X7553951Y3103952D01*
X7570490Y3092901D01*
X7589999Y3089020D01*
X7659999D01*
X7679508Y3092901D01*
X7696047Y3103952D01*
X7707098Y3120491D01*
X7710978Y3140000D01*
Y3210000D01*
X7707098Y3229509D01*
X7696047Y3246048D01*
X7679508Y3257099D01*
X7659999Y3260980D01*
X7620145D01*
Y3283103D01*
X7617995Y3293910D01*
X7617995Y3293911D01*
X7611873Y3303073D01*
X7611873Y3303074D01*
X7555410Y3359533D01*
X7556791Y3362867D01*
X7565000Y3371264D01*
X7566545Y3371904D01*
X7568184Y3371579D01*
X7572111Y3374209D01*
X7576481Y3376019D01*
X7576481Y3376020D01*
X7576482Y3376021D01*
X7576541Y3376162D01*
X7577121Y3377565D01*
X7578509Y3378494D01*
X7603509Y3415994D01*
X7604133Y3419146D01*
X7605921Y3421816D01*
X7605291Y3425000D01*
X7605921Y3428184D01*
X7604133Y3430854D01*
X7603509Y3434006D01*
X7578509Y3471506D01*
X7577124Y3472434D01*
X7576482Y3473983D01*
X7572102Y3475797D01*
X7568184Y3478421D01*
X7566548Y3478097D01*
X7565002Y3478738D01*
D02*
G37*
G36*
X6042300Y3284833D02*
X6023967Y3279921D01*
X6005633Y3269336D01*
X5990664Y3254367D01*
X5980079Y3236033D01*
X5975167Y3217700D01*
X6042300D01*
Y3284833D01*
D02*
G37*
G36*
X7037700Y3270362D02*
Y3187700D01*
X7120362D01*
X7113898Y3211823D01*
X7101339Y3233577D01*
X7083577Y3251339D01*
X7061823Y3263898D01*
X7037700Y3270362D01*
D02*
G37*
G36*
X7012300D02*
X6988177Y3263898D01*
X6966423Y3251339D01*
X6948661Y3233577D01*
X6936101Y3211823D01*
X6929638Y3187700D01*
X7012300D01*
Y3270362D01*
D02*
G37*
G36*
X6067700Y3284833D02*
Y3205000D01*
Y3118137D01*
X6068369Y3117326D01*
X6070149Y3112675D01*
X6069770Y3112019D01*
X6065000Y3094216D01*
Y3075784D01*
X6069770Y3057981D01*
X6078986Y3042019D01*
X6092019Y3028986D01*
X6107981Y3019770D01*
X6125784Y3015000D01*
X6144216D01*
X6162019Y3019770D01*
X6177981Y3028986D01*
X6191014Y3042019D01*
X6200229Y3057981D01*
X6205000Y3075784D01*
Y3094216D01*
X6200229Y3112019D01*
X6192497Y3125412D01*
X6196692Y3133256D01*
X6200185Y3136500D01*
X6205784Y3135000D01*
X6224216D01*
X6229815Y3136500D01*
X6233308Y3133256D01*
X6237503Y3125412D01*
X6229771Y3112019D01*
X6225000Y3094216D01*
Y3075784D01*
X6229771Y3057981D01*
X6238986Y3042019D01*
X6252019Y3028986D01*
X6267981Y3019770D01*
X6285784Y3015000D01*
X6304216D01*
X6322019Y3019770D01*
X6337981Y3028986D01*
X6351014Y3042019D01*
X6360230Y3057981D01*
X6365000Y3075784D01*
Y3094216D01*
X6360230Y3112019D01*
X6352497Y3125412D01*
X6356693Y3133256D01*
X6360185Y3136500D01*
X6365784Y3135000D01*
X6384216D01*
X6402019Y3139770D01*
X6417981Y3148986D01*
X6431014Y3162019D01*
X6440229Y3177981D01*
X6445000Y3195784D01*
Y3214216D01*
X6440229Y3232019D01*
X6431014Y3247981D01*
X6417981Y3261014D01*
X6402019Y3270229D01*
X6384216Y3275000D01*
X6365784D01*
X6347981Y3270229D01*
X6332019Y3261014D01*
X6318986Y3247981D01*
X6309770Y3232019D01*
X6305000Y3214216D01*
Y3195784D01*
X6309770Y3177981D01*
X6317503Y3164588D01*
X6313307Y3156744D01*
X6309815Y3153499D01*
X6304216Y3155000D01*
X6285784D01*
X6280185Y3153499D01*
X6276693Y3156744D01*
X6272497Y3164588D01*
X6280230Y3177981D01*
X6285000Y3195784D01*
Y3214216D01*
X6280230Y3232019D01*
X6271014Y3247981D01*
X6257981Y3261014D01*
X6242019Y3270229D01*
X6224216Y3275000D01*
X6205784D01*
X6187981Y3270229D01*
X6172019Y3261014D01*
X6158986Y3247981D01*
X6149771Y3232019D01*
X6146957Y3221521D01*
X6133809D01*
X6129921Y3236033D01*
X6119336Y3254367D01*
X6104367Y3269336D01*
X6086033Y3279921D01*
X6067700Y3284833D01*
D02*
G37*
G36*
X6042300Y3192300D02*
X5975167D01*
X5980079Y3173967D01*
X5990664Y3155633D01*
X6005633Y3140664D01*
X6023967Y3130079D01*
X6042300Y3125167D01*
Y3192300D01*
D02*
G37*
G36*
X7313498Y3743381D02*
X7295940Y3739889D01*
X7281055Y3729943D01*
X7271109Y3715058D01*
X7267617Y3697500D01*
Y3607500D01*
X7271109Y3589942D01*
X7281055Y3575057D01*
X7285255Y3572250D01*
Y3512501D01*
X7257500D01*
Y3387501D01*
X7345058D01*
X7396756Y3335803D01*
Y3255431D01*
X7392190Y3254207D01*
X7372808Y3243017D01*
X7356982Y3227191D01*
X7345792Y3207809D01*
X7339999Y3186190D01*
Y3163810D01*
X7345792Y3142191D01*
X7356982Y3122809D01*
X7372808Y3106983D01*
X7392190Y3095793D01*
X7413809Y3090000D01*
X7436190D01*
X7457808Y3095793D01*
X7477190Y3106983D01*
X7493016Y3122809D01*
X7504206Y3142191D01*
X7509999Y3163810D01*
Y3186190D01*
X7504206Y3207809D01*
X7493016Y3227191D01*
X7477190Y3243017D01*
X7457808Y3254207D01*
X7453242Y3255431D01*
Y3347502D01*
X7451092Y3358310D01*
X7444970Y3367472D01*
X7444969Y3367473D01*
X7387500Y3424942D01*
Y3512501D01*
X7341741D01*
Y3572250D01*
X7345941Y3575057D01*
X7355887Y3589942D01*
X7359380Y3607500D01*
Y3697500D01*
X7355887Y3715058D01*
X7345941Y3729943D01*
X7331056Y3739889D01*
X7313498Y3743381D01*
D02*
G37*
G36*
X7186498D02*
X7168940Y3739889D01*
X7154055Y3729943D01*
X7144109Y3715058D01*
X7140617Y3697500D01*
Y3607500D01*
X7144109Y3589942D01*
X7154055Y3575057D01*
X7158255Y3572250D01*
Y3512501D01*
X7112502D01*
Y3387501D01*
X7158863D01*
X7167480Y3379277D01*
X7169631Y3368469D01*
X7175753Y3359306D01*
X7221755Y3313304D01*
Y3260000D01*
X7213809D01*
X7192191Y3254207D01*
X7172808Y3243017D01*
X7156983Y3227191D01*
X7145792Y3207809D01*
X7140000Y3186190D01*
Y3163810D01*
X7145792Y3142191D01*
X7156983Y3122809D01*
X7172808Y3106983D01*
X7192191Y3095793D01*
X7213809Y3090000D01*
X7236190D01*
X7257808Y3095793D01*
X7277191Y3106983D01*
X7293016Y3122809D01*
X7304207Y3142191D01*
X7309999Y3163810D01*
Y3186190D01*
X7304207Y3207809D01*
X7293016Y3227191D01*
X7278241Y3241967D01*
Y3325002D01*
X7276091Y3335810D01*
X7269969Y3344973D01*
X7238090Y3376852D01*
X7242502Y3387501D01*
X7242501D01*
Y3512501D01*
X7214741D01*
Y3572250D01*
X7218941Y3575057D01*
X7228887Y3589942D01*
X7232380Y3607500D01*
Y3697500D01*
X7228887Y3715058D01*
X7218941Y3729943D01*
X7204056Y3739889D01*
X7186498Y3743381D01*
D02*
G37*
G36*
X7120362Y3162300D02*
X7037700D01*
Y3079638D01*
X7061823Y3086102D01*
X7083577Y3098661D01*
X7101339Y3116423D01*
X7113898Y3138177D01*
X7120362Y3162300D01*
D02*
G37*
G36*
X7012300D02*
X6929638D01*
X6936101Y3138177D01*
X6948661Y3116423D01*
X6966423Y3098661D01*
X6988177Y3086102D01*
X7012300Y3079638D01*
Y3162300D01*
D02*
G37*
G36*
X6655000Y3291236D02*
X6515000D01*
X6503519Y3286481D01*
X6498764Y3275000D01*
Y3025000D01*
X6503519Y3013519D01*
X6515000Y3008764D01*
X6655000D01*
X6666480Y3013519D01*
X6671236Y3025000D01*
Y3275000D01*
X6666480Y3286481D01*
X6655000Y3291236D01*
D02*
G37*
G36*
X6359957Y2926822D02*
Y2892395D01*
X6394384D01*
X6388288Y2907111D01*
X6374673Y2920726D01*
X6359957Y2926822D01*
D02*
G37*
G36*
X6334557D02*
X6319841Y2920726D01*
X6306225Y2907111D01*
X6300130Y2892395D01*
X6334557D01*
Y2926822D01*
D02*
G37*
G36*
X6394384Y2866995D02*
X6359957D01*
Y2832567D01*
X6374673Y2838663D01*
X6388288Y2852278D01*
X6394384Y2866995D01*
D02*
G37*
G36*
X6334557D02*
X6300130D01*
X6306225Y2852278D01*
X6319841Y2838663D01*
X6334557Y2832567D01*
Y2866995D01*
D02*
G37*
G36*
X4835000Y2836193D02*
X4812701D01*
Y2762702D01*
X4876192D01*
Y2795002D01*
X4873056Y2810765D01*
X4864127Y2824129D01*
X4850764Y2833058D01*
X4835000Y2836193D01*
D02*
G37*
G36*
X6592700Y2859681D02*
Y2712700D01*
X6691353D01*
Y2750000D01*
X6687558Y2778820D01*
X6676434Y2805676D01*
X6658738Y2828738D01*
X6635676Y2846434D01*
X6608820Y2857558D01*
X6592700Y2859681D01*
D02*
G37*
G36*
X5862700D02*
Y2712700D01*
X5961353D01*
Y2750000D01*
X5957558Y2778820D01*
X5946434Y2805676D01*
X5928738Y2828738D01*
X5905676Y2846434D01*
X5878820Y2857558D01*
X5862700Y2859681D01*
D02*
G37*
G36*
X6567300D02*
X6551180Y2857558D01*
X6524324Y2846434D01*
X6501262Y2828738D01*
X6483566Y2805676D01*
X6472442Y2778820D01*
X6468647Y2750000D01*
Y2712700D01*
X6567300D01*
Y2859681D01*
D02*
G37*
G36*
X5837300D02*
X5821180Y2857558D01*
X5794324Y2846434D01*
X5771262Y2828738D01*
X5753566Y2805676D01*
X5742442Y2778820D01*
X5738647Y2750000D01*
Y2712700D01*
X5837300D01*
Y2859681D01*
D02*
G37*
G36*
X8222626Y3137502D02*
X8177372D01*
X8132676Y3130422D01*
X8089637Y3116439D01*
X8049316Y3095894D01*
X8012705Y3069295D01*
X7980706Y3037295D01*
X7954107Y3000685D01*
X7933562Y2960364D01*
X7919578Y2917325D01*
X7912499Y2872629D01*
Y2827375D01*
X7919578Y2782679D01*
X7933562Y2739640D01*
X7954107Y2699319D01*
X7980706Y2662708D01*
X8012705Y2630709D01*
X8049316Y2604110D01*
X8089637Y2583565D01*
X8132676Y2569581D01*
X8177372Y2562502D01*
X8222626D01*
X8267322Y2569581D01*
X8310361Y2583565D01*
X8350682Y2604110D01*
X8387292Y2630709D01*
X8419292Y2662708D01*
X8445891Y2699319D01*
X8466435Y2739640D01*
X8480419Y2782679D01*
X8487499Y2827375D01*
Y2872629D01*
X8480419Y2917325D01*
X8466435Y2960364D01*
X8445891Y3000685D01*
X8419292Y3037295D01*
X8387292Y3069295D01*
X8350682Y3095894D01*
X8310361Y3116439D01*
X8267322Y3130422D01*
X8222626Y3137502D01*
D02*
G37*
%LPD*%
G36*
X4728750Y4620000D02*
X4718750Y4600000D01*
Y4640000D01*
X4728750Y4620000D01*
D02*
G37*
G36*
X4868750Y4600000D02*
X4856250D01*
X4861250Y4607500D01*
X4868750Y4620000D01*
X4861250Y4632500D01*
X4856250Y4640000D01*
X4868750D01*
Y4600000D01*
D02*
G37*
G36*
X7590000Y3425000D02*
X7565000Y3387500D01*
Y3462500D01*
X7590000Y3425000D01*
D02*
G37*
%LPC*%
G36*
X7412499Y6367501D02*
X7282499D01*
Y6242501D01*
X7410199D01*
X7412974Y6239726D01*
X7426941Y6233941D01*
X7442058D01*
X7456025Y6239726D01*
X7466714Y6250416D01*
X7472499Y6264383D01*
Y6279500D01*
X7466714Y6293466D01*
X7456025Y6304156D01*
X7442058Y6309941D01*
X7426941D01*
X7425199Y6309220D01*
X7412499Y6317705D01*
Y6367501D01*
D02*
G37*
G36*
X3272300Y4887300D02*
X3213884D01*
X3214299Y4885212D01*
X3222676Y4872676D01*
X3235212Y4864299D01*
X3250000Y4861358D01*
X3272300D01*
Y4887300D01*
D02*
G37*
G36*
X2892298Y4455401D02*
X2827098D01*
Y4392701D01*
X2892298D01*
Y4455401D01*
D02*
G37*
G36*
Y4367301D02*
X2827098D01*
Y4304601D01*
X2892298D01*
Y4367301D01*
D02*
G37*
G36*
X3512700Y3047127D02*
Y3012700D01*
X3547127D01*
X3541032Y3027416D01*
X3527416Y3041032D01*
X3512700Y3047127D01*
D02*
G37*
G36*
X3487300D02*
X3472584Y3041032D01*
X3458969Y3027416D01*
X3452873Y3012700D01*
X3487300D01*
Y3047127D01*
D02*
G37*
G36*
X3362700D02*
Y3012700D01*
X3397127D01*
X3391031Y3027416D01*
X3377416Y3041032D01*
X3362700Y3047127D01*
D02*
G37*
G36*
X3337300D02*
X3322584Y3041032D01*
X3308968Y3027416D01*
X3302873Y3012700D01*
X3337300D01*
Y3047127D01*
D02*
G37*
G36*
X3212700D02*
Y3012700D01*
X3247127D01*
X3241031Y3027416D01*
X3227416Y3041032D01*
X3212700Y3047127D01*
D02*
G37*
G36*
X3187300D02*
X3172584Y3041032D01*
X3158969Y3027416D01*
X3152873Y3012700D01*
X3187300D01*
Y3047127D01*
D02*
G37*
G36*
X3062700D02*
Y3012700D01*
X3097127D01*
X3091031Y3027416D01*
X3077416Y3041032D01*
X3062700Y3047127D01*
D02*
G37*
G36*
X3037300D02*
X3022584Y3041032D01*
X3008969Y3027416D01*
X3002873Y3012700D01*
X3037300D01*
Y3047127D01*
D02*
G37*
G36*
X2912700D02*
Y3012700D01*
X2947127D01*
X2941031Y3027416D01*
X2927416Y3041032D01*
X2912700Y3047127D01*
D02*
G37*
G36*
X2887300D02*
X2872584Y3041032D01*
X2858969Y3027416D01*
X2852873Y3012700D01*
X2887300D01*
Y3047127D01*
D02*
G37*
G36*
X3547127Y2987300D02*
X3512700D01*
Y2952873D01*
X3527416Y2958969D01*
X3541032Y2972584D01*
X3547127Y2987300D01*
D02*
G37*
G36*
X3487300D02*
X3452873D01*
X3458969Y2972584D01*
X3472584Y2958969D01*
X3487300Y2952873D01*
Y2987300D01*
D02*
G37*
G36*
X3397127D02*
X3362700D01*
Y2952873D01*
X3377416Y2958969D01*
X3391031Y2972584D01*
X3397127Y2987300D01*
D02*
G37*
G36*
X3337300D02*
X3302873D01*
X3308968Y2972584D01*
X3322584Y2958969D01*
X3337300Y2952873D01*
Y2987300D01*
D02*
G37*
G36*
X3247127D02*
X3212700D01*
Y2952873D01*
X3227416Y2958969D01*
X3241031Y2972584D01*
X3247127Y2987300D01*
D02*
G37*
G36*
X3187300D02*
X3152873D01*
X3158969Y2972584D01*
X3172584Y2958969D01*
X3187300Y2952873D01*
Y2987300D01*
D02*
G37*
G36*
X3097127D02*
X3062700D01*
Y2952873D01*
X3077416Y2958969D01*
X3091031Y2972584D01*
X3097127Y2987300D01*
D02*
G37*
G36*
X3037300D02*
X3002873D01*
X3008969Y2972584D01*
X3022584Y2958969D01*
X3037300Y2952873D01*
Y2987300D01*
D02*
G37*
G36*
X2947127D02*
X2912700D01*
Y2952873D01*
X2927416Y2958969D01*
X2941031Y2972584D01*
X2947127Y2987300D01*
D02*
G37*
G36*
X2887300D02*
X2852873D01*
X2858969Y2972584D01*
X2872584Y2958969D01*
X2887300Y2952873D01*
Y2987300D01*
D02*
G37*
G36*
X3512700Y2897127D02*
Y2862700D01*
X3547127D01*
X3541032Y2877416D01*
X3527416Y2891031D01*
X3512700Y2897127D01*
D02*
G37*
G36*
X3487300D02*
X3472584Y2891031D01*
X3458969Y2877416D01*
X3452873Y2862700D01*
X3487300D01*
Y2897127D01*
D02*
G37*
G36*
X3362700D02*
Y2862700D01*
X3397127D01*
X3391031Y2877416D01*
X3377416Y2891031D01*
X3362700Y2897127D01*
D02*
G37*
G36*
X3337300D02*
X3322584Y2891031D01*
X3308968Y2877416D01*
X3302873Y2862700D01*
X3337300D01*
Y2897127D01*
D02*
G37*
G36*
X3212700D02*
Y2862700D01*
X3247127D01*
X3241031Y2877416D01*
X3227416Y2891031D01*
X3212700Y2897127D01*
D02*
G37*
G36*
X3187300D02*
X3172584Y2891031D01*
X3158969Y2877416D01*
X3152873Y2862700D01*
X3187300D01*
Y2897127D01*
D02*
G37*
G36*
X3062700D02*
Y2862700D01*
X3097127D01*
X3091031Y2877416D01*
X3077416Y2891031D01*
X3062700Y2897127D01*
D02*
G37*
G36*
X3037300D02*
X3022584Y2891031D01*
X3008969Y2877416D01*
X3002873Y2862700D01*
X3037300D01*
Y2897127D01*
D02*
G37*
G36*
X2912700D02*
Y2862700D01*
X2947127D01*
X2941031Y2877416D01*
X2927416Y2891031D01*
X2912700Y2897127D01*
D02*
G37*
G36*
X2887300D02*
X2872584Y2891031D01*
X2858969Y2877416D01*
X2852873Y2862700D01*
X2887300D01*
Y2897127D01*
D02*
G37*
G36*
X3547127Y2837300D02*
X3512700D01*
Y2802873D01*
X3527416Y2808968D01*
X3541032Y2822584D01*
X3547127Y2837300D01*
D02*
G37*
G36*
X3487300D02*
X3452873D01*
X3458969Y2822584D01*
X3472584Y2808968D01*
X3487300Y2802873D01*
Y2837300D01*
D02*
G37*
G36*
X3397127D02*
X3362700D01*
Y2802873D01*
X3377416Y2808968D01*
X3391031Y2822584D01*
X3397127Y2837300D01*
D02*
G37*
G36*
X3337300D02*
X3302873D01*
X3308968Y2822584D01*
X3322584Y2808968D01*
X3337300Y2802873D01*
Y2837300D01*
D02*
G37*
G36*
X3247127D02*
X3212700D01*
Y2802873D01*
X3227416Y2808968D01*
X3241031Y2822584D01*
X3247127Y2837300D01*
D02*
G37*
G36*
X3187300D02*
X3152873D01*
X3158969Y2822584D01*
X3172584Y2808968D01*
X3187300Y2802873D01*
Y2837300D01*
D02*
G37*
G36*
X3097127D02*
X3062700D01*
Y2802873D01*
X3077416Y2808968D01*
X3091031Y2822584D01*
X3097127Y2837300D01*
D02*
G37*
G36*
X3037300D02*
X3002873D01*
X3008969Y2822584D01*
X3022584Y2808968D01*
X3037300Y2802873D01*
Y2837300D01*
D02*
G37*
G36*
X2947127D02*
X2912700D01*
Y2802873D01*
X2927416Y2808968D01*
X2941031Y2822584D01*
X2947127Y2837300D01*
D02*
G37*
G36*
X2887300D02*
X2852873D01*
X2858969Y2822584D01*
X2872584Y2808968D01*
X2887300Y2802873D01*
Y2837300D01*
D02*
G37*
G36*
X3787506Y2945002D02*
X3762492D01*
X3738330Y2938528D01*
X3716668Y2926021D01*
X3698980Y2908333D01*
X3686473Y2886670D01*
X3679999Y2862509D01*
Y2837495D01*
X3686473Y2813333D01*
X3698980Y2791671D01*
X3716668Y2773983D01*
X3738330Y2761476D01*
X3762492Y2755002D01*
X3787506D01*
X3811667Y2761476D01*
X3833330Y2773983D01*
X3851017Y2791671D01*
X3863524Y2813333D01*
X3869999Y2837495D01*
Y2862509D01*
X3863524Y2886670D01*
X3851017Y2908333D01*
X3833330Y2926021D01*
X3811667Y2938528D01*
X3787506Y2945002D01*
D02*
G37*
G36*
X6214801Y5052900D02*
X6152101D01*
Y4992700D01*
X6214801D01*
Y5052900D01*
D02*
G37*
G36*
X6135398Y5052902D02*
X6072698D01*
Y4987701D01*
X6135398D01*
Y5052902D01*
D02*
G37*
G36*
X6047298D02*
X5984598D01*
Y4987701D01*
X6047298D01*
Y5052902D01*
D02*
G37*
G36*
X5950400D02*
X5887700D01*
Y4987701D01*
X5950400D01*
Y5052902D01*
D02*
G37*
G36*
X6214801Y4967300D02*
X6152101D01*
Y4907100D01*
X6214801D01*
Y4967300D01*
D02*
G37*
%LPD*%
D10*
X3285000Y5250000D02*
D03*
Y5200000D02*
D03*
Y5150000D02*
D03*
Y5100000D02*
D03*
Y5050000D02*
D03*
Y5000000D02*
D03*
Y4950000D02*
D03*
Y4900000D02*
D03*
X3765000D02*
D03*
Y4950000D02*
D03*
Y5000000D02*
D03*
Y5050000D02*
D03*
Y5100000D02*
D03*
Y5150000D02*
D03*
Y5200000D02*
D03*
Y5250000D02*
D03*
X3790000Y4540000D02*
D03*
Y4490000D02*
D03*
Y4440000D02*
D03*
Y4390000D02*
D03*
Y4340000D02*
D03*
Y4290000D02*
D03*
Y4240000D02*
D03*
Y4190000D02*
D03*
X3310000D02*
D03*
Y4240000D02*
D03*
Y4290000D02*
D03*
Y4340000D02*
D03*
Y4390000D02*
D03*
Y4440000D02*
D03*
Y4490000D02*
D03*
Y4540000D02*
D03*
X7585000Y6780000D02*
D03*
Y6730000D02*
D03*
Y6680000D02*
D03*
Y6630000D02*
D03*
Y6580000D02*
D03*
Y6530000D02*
D03*
Y6480000D02*
D03*
Y6430000D02*
D03*
X8065000D02*
D03*
Y6480000D02*
D03*
Y6530000D02*
D03*
Y6580000D02*
D03*
Y6630000D02*
D03*
Y6680000D02*
D03*
Y6730000D02*
D03*
Y6780000D02*
D03*
X8065000Y5980000D02*
D03*
Y5930000D02*
D03*
Y5880000D02*
D03*
Y5830000D02*
D03*
Y5780000D02*
D03*
Y5730000D02*
D03*
Y5680000D02*
D03*
Y5630000D02*
D03*
X7585000D02*
D03*
Y5680000D02*
D03*
Y5730000D02*
D03*
Y5780000D02*
D03*
Y5830000D02*
D03*
Y5880000D02*
D03*
Y5930000D02*
D03*
Y5980000D02*
D03*
D11*
X3350000Y4835000D02*
D03*
X3400000D02*
D03*
X3450000D02*
D03*
X3500000D02*
D03*
X3550000D02*
D03*
X3600000D02*
D03*
X3650000D02*
D03*
X3700000D02*
D03*
Y5315000D02*
D03*
X3650000D02*
D03*
X3600000D02*
D03*
X3550000D02*
D03*
X3500000D02*
D03*
X3450000D02*
D03*
X3400000D02*
D03*
X3350000D02*
D03*
X3375000Y4605000D02*
D03*
X3425000D02*
D03*
X3475000D02*
D03*
X3525000D02*
D03*
X3575000D02*
D03*
X3625000D02*
D03*
X3675000D02*
D03*
X3725000D02*
D03*
Y4125000D02*
D03*
X3675000D02*
D03*
X3625000D02*
D03*
X3575000D02*
D03*
X3525000D02*
D03*
X3475000D02*
D03*
X3425000D02*
D03*
X3375000D02*
D03*
X7650000Y6365000D02*
D03*
X7700000D02*
D03*
X7750000D02*
D03*
X7800000D02*
D03*
X7850000D02*
D03*
X7900000D02*
D03*
X7950000D02*
D03*
X8000000D02*
D03*
Y6845000D02*
D03*
X7950000D02*
D03*
X7900000D02*
D03*
X7850000D02*
D03*
X7800000D02*
D03*
X7750000D02*
D03*
X7700000D02*
D03*
X7650000D02*
D03*
X7650000Y6045000D02*
D03*
X7700000D02*
D03*
X7750000D02*
D03*
X7800000D02*
D03*
X7850000D02*
D03*
X7900000D02*
D03*
X7950000D02*
D03*
X8000000D02*
D03*
Y5565000D02*
D03*
X7950000D02*
D03*
X7900000D02*
D03*
X7850000D02*
D03*
X7800000D02*
D03*
X7750000D02*
D03*
X7700000D02*
D03*
X7650000D02*
D03*
D12*
X3525000Y5075000D02*
D03*
X3550000Y4365000D02*
D03*
X7825000Y6605000D02*
D03*
X7825000Y5805000D02*
D03*
D13*
X7950002Y4907498D02*
D03*
Y5292501D02*
D03*
D14*
X2737500Y7341001D02*
D03*
Y7214001D02*
D03*
Y7087001D02*
D03*
Y6960001D02*
D03*
Y6833001D02*
D03*
Y6706001D02*
D03*
Y6579001D02*
D03*
X3282498Y7341001D02*
D03*
Y7214001D02*
D03*
Y7087001D02*
D03*
Y6960001D02*
D03*
Y6833001D02*
D03*
Y6706001D02*
D03*
Y6579001D02*
D03*
D15*
X5615000Y4445000D02*
D03*
Y4395003D02*
D03*
Y4345000D02*
D03*
Y4294998D02*
D03*
Y4245000D02*
D03*
Y4194998D02*
D03*
Y4145001D02*
D03*
Y4094998D02*
D03*
Y4045001D02*
D03*
Y3994998D02*
D03*
Y3945001D02*
D03*
Y3894999D02*
D03*
Y3845001D02*
D03*
Y3794999D02*
D03*
Y3745001D02*
D03*
Y3694999D02*
D03*
X6765000D02*
D03*
Y3745001D02*
D03*
Y3794999D02*
D03*
Y3845001D02*
D03*
Y3894999D02*
D03*
Y3945001D02*
D03*
Y3994998D02*
D03*
Y4045001D02*
D03*
Y4094998D02*
D03*
Y4145001D02*
D03*
Y4194998D02*
D03*
Y4245000D02*
D03*
Y4294998D02*
D03*
Y4345000D02*
D03*
Y4395003D02*
D03*
Y4445000D02*
D03*
D16*
X5815000Y3494999D02*
D03*
X5865002D02*
D03*
X5915000D02*
D03*
X5965002D02*
D03*
X6014999D02*
D03*
X6065002D02*
D03*
X6114999D02*
D03*
X6165002D02*
D03*
X6214999D02*
D03*
X6265001D02*
D03*
X6314999D02*
D03*
X6365001D02*
D03*
X6414999D02*
D03*
X6465001D02*
D03*
X6514998D02*
D03*
X6565001D02*
D03*
Y4645000D02*
D03*
X6514998D02*
D03*
X6465001D02*
D03*
X6414999D02*
D03*
X6365001D02*
D03*
X6314999D02*
D03*
X6265001D02*
D03*
X6214999D02*
D03*
X6165002D02*
D03*
X6114999D02*
D03*
X6065002D02*
D03*
X6014999D02*
D03*
X5965002D02*
D03*
X5915000D02*
D03*
X5865002D02*
D03*
X5815000D02*
D03*
D17*
X5550002Y8257499D02*
D03*
Y7662499D02*
D03*
Y7422500D02*
D03*
Y6827500D02*
D03*
D18*
X6780002Y5052502D02*
D03*
D19*
Y4807499D02*
D03*
D20*
X7324999Y5024999D02*
D03*
Y5304998D02*
D03*
D21*
X4797501Y2950002D02*
D03*
X4727499Y4060002D02*
D03*
X4872502D02*
D03*
X6372499Y4980000D02*
D03*
X6227501D02*
D03*
X6527500Y6600002D02*
D03*
X6672499D02*
D03*
X4652498Y2950002D02*
D03*
X4726249Y4440001D02*
D03*
X4871253D02*
D03*
X5797499Y5450002D02*
D03*
X5652501D02*
D03*
X7322500Y3450001D02*
D03*
X7177502D02*
D03*
X7202500Y6305001D02*
D03*
X7347499D02*
D03*
X7205000Y5805002D02*
D03*
X7349998D02*
D03*
X3047502Y7675001D02*
D03*
X2902499D02*
D03*
D22*
X7950002Y4374998D02*
D03*
Y4525000D02*
D03*
Y4074998D02*
D03*
Y4225000D02*
D03*
D23*
X8350001Y4720001D02*
D03*
Y3880002D02*
D03*
D24*
X5875000Y4824999D02*
D03*
Y4975001D02*
D03*
X6059998Y4824999D02*
D03*
Y4975001D02*
D03*
X3674999Y6700002D02*
D03*
Y6849999D02*
D03*
X3699998Y6225002D02*
D03*
Y6074999D02*
D03*
X6940001Y4535002D02*
D03*
Y4385000D02*
D03*
X7624999Y7155002D02*
D03*
Y7005000D02*
D03*
X7349998Y6654998D02*
D03*
Y6805000D02*
D03*
X7375002Y6130000D02*
D03*
Y5979998D02*
D03*
D25*
X5220000Y3619998D02*
D03*
Y4520001D02*
D03*
D26*
X3960002Y5950001D02*
D03*
X3894999D02*
D03*
X3830000D02*
D03*
X3960002Y5730001D02*
D03*
X3894999D02*
D03*
X3830000D02*
D03*
D27*
X6374999Y4809998D02*
D03*
X6225002D02*
D03*
X4649998Y2750002D02*
D03*
X4800001D02*
D03*
X6674998Y6849999D02*
D03*
X6825000D02*
D03*
X6174999D02*
D03*
X6325001D02*
D03*
X4775002D02*
D03*
X4924999D02*
D03*
X4274998D02*
D03*
X4425000D02*
D03*
D28*
X5710001Y4912939D02*
D03*
X5459999D02*
D03*
D29*
X6600002Y6374999D02*
D03*
Y5675000D02*
D03*
X5725003Y6374999D02*
D03*
Y5675000D02*
D03*
D30*
X5315001Y4949998D02*
D03*
X5164999D02*
D03*
X3699998Y5499999D02*
D03*
X3550001D02*
D03*
X4025001D02*
D03*
X3874999D02*
D03*
X4875002Y3870000D02*
D03*
X4724999D02*
D03*
X4875002Y4249999D02*
D03*
X4724999D02*
D03*
X5684998Y5120000D02*
D03*
X5535000D02*
D03*
X7732385Y3938001D02*
D03*
X7582383D02*
D03*
X7449998Y7005000D02*
D03*
X7300001D02*
D03*
X7924998Y6205002D02*
D03*
X7775001D02*
D03*
X2975000Y5324998D02*
D03*
X3125003D02*
D03*
X2999999Y4549999D02*
D03*
X3150001D02*
D03*
X3055000Y4380001D02*
D03*
X2904998D02*
D03*
D31*
X8150001Y6530000D02*
D03*
X8119999D02*
D03*
X8150001Y6480002D02*
D03*
X8119999D02*
D03*
X3850000Y5000000D02*
D03*
X3820003D02*
D03*
X3850000Y4949998D02*
D03*
X3820003D02*
D03*
D32*
X3920002Y6545001D02*
D03*
Y6354999D02*
D03*
Y6450000D02*
D03*
X3679998Y6545001D02*
D03*
Y6354999D02*
D03*
Y6450000D02*
D03*
D33*
X7540000Y4904999D02*
D03*
Y5275001D02*
D03*
D34*
X7524999Y4529999D02*
D03*
X7155002D02*
D03*
X7884998Y3425002D02*
D03*
X7515001D02*
D03*
D35*
X7059498Y3652500D02*
D03*
X7186498D02*
D03*
X7313498D02*
D03*
X7440498D02*
D03*
X7059498Y4197502D02*
D03*
X7186498D02*
D03*
X7313498D02*
D03*
X7440498D02*
D03*
D36*
X7922499Y3674999D02*
D03*
D37*
X7677501D02*
D03*
D38*
X7650002Y7647498D02*
D03*
Y7502500D02*
D03*
D39*
X4908748Y4620001D02*
D03*
X4678751D02*
D03*
D40*
X5920000Y3616200D02*
Y3685000D01*
X5915000Y3611200D02*
X5920000Y3616200D01*
X5915000Y3494999D02*
Y3611200D01*
X4800001Y2740001D02*
Y2750002D01*
X4732700Y2672701D02*
X4800001Y2740001D01*
X4732700Y2672700D02*
Y2672701D01*
X5330000Y8220000D02*
X5512502D01*
X5550002Y8257499D01*
X3867438Y3150000D02*
X3908141Y3190702D01*
X2970002Y3430001D02*
X3250002Y3150000D01*
X3867438D01*
X3908141Y3190702D02*
X4541859D01*
X7850000Y6845000D02*
Y6950978D01*
X7761566Y6994008D02*
Y7015935D01*
X7625004Y7152498D02*
X7761566Y7015935D01*
Y6994008D02*
X7800000Y6955574D01*
X7800000Y6845000D02*
X7800000Y6845001D01*
X7624999Y7152498D02*
X7625004D01*
X7800000Y6879800D02*
Y6955574D01*
X4953274Y4903272D02*
X4960000Y4909998D01*
X4953269Y4903272D02*
X4953274D01*
X4908748Y4858751D02*
X4953269Y4903272D01*
X4908748Y4620001D02*
Y4858751D01*
X3398643Y7186477D02*
X3404217D01*
X3275000Y7208002D02*
X3275621Y7207381D01*
X3377738D01*
X3398643Y7186477D01*
X3239999Y7341001D02*
X3282498D01*
X3920000Y6450000D02*
X5330002D01*
X3282498Y7341001D02*
X3325002D01*
X3900002Y6450000D02*
X3920002D01*
X3820000Y6550000D02*
Y6846000D01*
X3325002Y7341001D02*
X3820000Y6846000D01*
X8000200Y5576916D02*
X8056362D01*
X8060304Y5580858D01*
X5815706Y4444999D02*
X5816950Y4446243D01*
X5876306D01*
X5681380Y4434865D02*
X5684564D01*
X5724427Y4395003D01*
X5615000Y4445000D02*
X5671245D01*
X5724427Y4395003D02*
X5730001D01*
X5671245Y4445000D02*
X5681380Y4434865D01*
X6666796Y4682499D02*
X6670737Y4686440D01*
X6972803Y4636800D02*
X7080001Y4529602D01*
X6647865Y4636800D02*
X6972803D01*
X6670737Y4686440D02*
Y4698234D01*
X6780002Y4807499D01*
X6639666Y4645000D02*
X6647865Y4636800D01*
X6565001Y4645000D02*
X6639666D01*
X5852700Y4574384D02*
Y4576452D01*
X5799384Y4552300D02*
X5830615D01*
X5755000Y4596684D02*
Y4760438D01*
X5865002Y4588755D02*
Y4645000D01*
X5852700Y4576452D02*
X5865002Y4588755D01*
X5830615Y4552300D02*
X5852700Y4574384D01*
X5755000Y4596684D02*
X5799384Y4552300D01*
X5771998Y4486997D02*
X5775701Y4490700D01*
X5845250D01*
X5845799Y4491248D01*
X5871248D01*
X6015000Y4644126D02*
X6015436Y4644563D01*
X6015000Y4482500D02*
Y4644126D01*
Y4482500D02*
X6015000Y4482500D01*
X6317500Y4402500D02*
X6321442Y4406442D01*
X6334759D01*
X6502701Y4574384D01*
Y4576457D01*
X6514998Y4588755D02*
Y4645000D01*
X6502701Y4576457D02*
X6514998Y4588755D01*
X6265001Y4378858D02*
X6266251Y4377609D01*
Y4363750D02*
Y4377609D01*
X6265001Y4378858D02*
Y4645000D01*
X6188754Y4441535D02*
X6189790Y4440498D01*
X6188754Y4441535D02*
Y4501598D01*
X6165002Y4525350D02*
X6188754Y4501598D01*
X6127700Y4455148D02*
X6129850Y4452997D01*
X6127700Y4455148D02*
Y4514097D01*
X6100500Y4405305D02*
Y4410879D01*
X6065002Y4446377D02*
X6100500Y4410879D01*
X6114999Y4526797D02*
Y4645000D01*
X6065002Y4446377D02*
Y4645000D01*
X6114999Y4526797D02*
X6127700Y4514097D01*
X5847939Y3695202D02*
X5865002Y3678138D01*
X5847939Y3695202D02*
Y3699998D01*
X5407500Y3747500D02*
X5409119Y3745881D01*
X5614120D01*
X5615000Y3745001D01*
X3725001Y4050000D02*
Y4125001D01*
X3774999Y4000002D02*
X4069999D01*
X3725001Y4050000D02*
X3774999Y4000002D01*
X4114279Y3948221D02*
X4162500Y3900000D01*
X4069999Y4000002D02*
X4114279Y3955723D01*
Y3948221D02*
Y3955723D01*
X4600001Y3833109D02*
X4601654Y3831455D01*
X4600001Y3833109D02*
Y4062105D01*
X5754477Y4045001D02*
X5799399Y4089923D01*
X5840547D02*
X5854426Y4103802D01*
X5860000D01*
X5799399Y4089923D02*
X5840547D01*
X5615000Y3945001D02*
X5615498Y3945499D01*
X5935498D02*
X6437549Y4447550D01*
X5615565Y3844437D02*
X5729436D01*
X5615880Y3895878D02*
X5723231D01*
X5727151Y3899799D01*
X5729436Y3844437D02*
X5730001Y3843872D01*
X5615000Y3845001D02*
X5615565Y3844437D01*
X5615498Y3945499D02*
X5935498D01*
X5615000Y3894999D02*
X5615880Y3895878D01*
X6764121Y4045881D02*
X6765000Y4045001D01*
X6653413Y4045881D02*
X6764121D01*
X6649647Y4049647D02*
X6653413Y4045881D01*
X6580002Y3969995D02*
Y3970000D01*
Y3969995D02*
X6654998Y3894999D01*
X6514119Y3495879D02*
Y3597018D01*
X6510000Y3601137D02*
Y3606711D01*
Y3601137D02*
X6514119Y3597018D01*
X6420002Y3840002D02*
X6465006Y3794999D01*
X5915702Y3994998D02*
X5972161Y4051457D01*
X5615000Y3994998D02*
X5915702D01*
X6465006Y3794999D02*
X6765000D01*
X6113942Y3703942D02*
X6159756D01*
X6101996Y3619998D02*
X6139998D01*
X6099998Y3618000D02*
X6101996Y3619998D01*
X6159756Y3703942D02*
X6162065Y3706251D01*
X6110000Y3700000D02*
X6113942Y3703942D01*
X6162065Y3706251D02*
X6302700Y3565616D01*
X6526748Y3386252D02*
X6530000Y3389504D01*
X6314496Y3386252D02*
X6526748D01*
X6214999Y3381568D02*
X6236803Y3359764D01*
Y3355616D02*
Y3359764D01*
X6580002Y3603924D02*
Y3609498D01*
X6565881Y3589803D02*
X6580002Y3603924D01*
X6565001Y3494999D02*
X6565881Y3495879D01*
X6514119D02*
X6514998Y3494999D01*
X6565881Y3495879D02*
Y3589803D01*
X6949999Y3783001D02*
Y3784681D01*
X7440498Y4143140D02*
Y4197502D01*
X7399371Y4102012D02*
X7440498Y4143140D01*
X7395429Y4065325D02*
X7399371Y4069267D01*
Y4102012D01*
X7184529Y4195534D02*
X7186498Y4197502D01*
X7182561Y4062002D02*
X7184529Y4063971D01*
Y4195534D01*
X7066118Y4100448D02*
X7090877Y4075690D01*
X7066118Y4100448D02*
Y4190882D01*
X7090877Y4070115D02*
Y4075690D01*
X7059498Y4197502D02*
X7066118Y4190882D01*
X7080001Y4381001D02*
Y4529602D01*
X7250843Y5715345D02*
Y5720919D01*
X7242300Y5729462D02*
Y5770202D01*
Y5729462D02*
X7250843Y5720919D01*
X7207500Y5805002D02*
X7242300Y5770202D01*
X7207499Y5805002D02*
X7207500D01*
X7200000Y6180000D02*
Y6302500D01*
Y5810002D02*
Y6180000D01*
Y6302500D02*
X7202500Y6305000D01*
X7200000Y5810002D02*
X7205000Y5805002D01*
X7903047Y6185550D02*
X7903052D01*
X7850002Y6132505D02*
X7903047Y6185550D01*
X7903052D02*
X7922503Y6205002D01*
X7850002Y6045002D02*
Y6132505D01*
X7922503Y6205002D02*
X7924998D01*
X7892000Y6293576D02*
X7899800Y6301376D01*
X7892000Y6288002D02*
Y6293576D01*
X7899800Y6301376D02*
Y6330200D01*
X4851592Y6932701D02*
X4851946Y6933055D01*
X4347698Y6932701D02*
X4851592D01*
X5512002Y7700499D02*
X5550002Y7662499D01*
X5324943Y7700499D02*
X5512002D01*
X3700058Y4766933D02*
X3700115Y4766875D01*
X3700058Y4766933D02*
Y4800200D01*
X3699998Y4759498D02*
X3860201Y4599300D01*
Y4507240D02*
Y4599300D01*
X3099999Y5200000D02*
X3285002D01*
X3057403Y5242601D02*
Y5245100D01*
Y5242601D02*
X3099999Y5200000D01*
X6214999Y3381568D02*
Y3494999D01*
X7061236Y4318762D02*
X7069999Y4309999D01*
X5871248Y4491248D02*
X5915000Y4535000D01*
X5876306Y4446243D02*
X5965002Y4534939D01*
X5915000Y4535000D02*
Y4645000D01*
X5965002Y4534939D02*
Y4645000D01*
X4656696Y2610000D02*
X4810000D01*
X4565701Y2700979D02*
X4656696Y2610000D01*
X4810000D02*
X4929998Y2729998D01*
X4565701Y2700979D02*
Y3166861D01*
X4541859Y3190702D02*
X4565701Y3166861D01*
X4929998Y2729998D02*
Y2879999D01*
X3344601Y4540001D02*
X3359802Y4524800D01*
X3390200D01*
X3439998Y4475002D01*
X3310001Y4540001D02*
X3344601D01*
X7110000Y4660000D02*
X7155002Y4614998D01*
Y4529999D02*
Y4614998D01*
X7455002Y4990003D02*
X7540000Y4904999D01*
X7455002Y4990003D02*
Y5097104D01*
X7207301Y5220599D02*
X7262896Y5164999D01*
X7207301Y5220599D02*
Y5392699D01*
X7205000Y5395001D02*
X7207301Y5392699D01*
X7262896Y5164999D02*
X7387102D01*
X7455002Y5097104D01*
X7205000Y5395001D02*
Y5805002D01*
Y6305001D02*
X7239803Y6339799D01*
Y6553723D02*
X7301276Y6615201D01*
X7239803Y6339799D02*
Y6553723D01*
X7301276Y6615201D02*
X7312701D01*
X7349998Y6652499D01*
Y6654998D01*
X7532126Y6729801D02*
X7584801D01*
X7531161Y6728836D02*
X7532126Y6729801D01*
X7584801D02*
X7584999Y6729999D01*
X7438100Y6654998D02*
X7458436Y6675338D01*
X7349998Y6654998D02*
X7438100D01*
X7484918Y6728836D02*
X7531161D01*
X7458436Y6702359D02*
X7484918Y6728836D01*
X7458436Y6675338D02*
Y6702359D01*
X7089999Y6917502D02*
Y7540000D01*
Y6917502D02*
X7349998Y6657503D01*
Y6654998D02*
Y6657503D01*
X7089999Y7540000D02*
X7449998Y7899999D01*
X3894999Y5950001D02*
Y6154283D01*
X3847302Y6201984D02*
Y6397300D01*
X3900002Y6450000D01*
X3847302Y6201984D02*
X3894999Y6154283D01*
X2977500Y5324998D02*
X3014802Y5362301D01*
X3894999Y5925002D02*
Y5950001D01*
X3014802Y5418724D02*
X3428390Y5832312D01*
X2975000Y5324998D02*
X2977500D01*
X3014802Y5362301D02*
Y5418724D01*
X3428390Y5832312D02*
X3802314D01*
X3894999Y5925002D01*
X3820000Y6550000D02*
X3920000Y6450000D01*
X2774798Y7531278D02*
X2826075Y7480000D01*
X2774798Y7531278D02*
Y7672004D01*
X2829799Y7727005D01*
Y7879801D01*
X2850002Y7899999D01*
X2826075Y7480000D02*
X3101000D01*
X3239999Y7341001D01*
X7300260Y4197502D02*
X7314621Y4183141D01*
X3125003Y4527499D02*
X3162300Y4564802D01*
X5220000Y3619998D02*
Y3786779D01*
X5203556Y3810000D02*
X5226776Y3786779D01*
X5220000D02*
Y3945956D01*
X5290002Y3723559D02*
X5306781Y3706779D01*
X5132700Y3880856D02*
X5203556Y3810000D01*
X5220000Y3619998D02*
Y3782700D01*
X4860000Y4274998D02*
X5132700D01*
X7462500Y6845000D02*
X7650002D01*
X7302500Y7005000D02*
X7462500Y6845000D01*
X5330002Y6450000D02*
X6105002Y5675000D01*
X6600002D01*
X4649998Y2750002D02*
Y2947502D01*
X4652498Y2950002D01*
X2970002Y3430001D02*
Y3590000D01*
X2790002Y3770000D02*
X2970002Y3590000D01*
X2790002Y3770000D02*
Y4000002D01*
X3055000Y4265000D01*
Y4380001D01*
X3145602D02*
X3255401Y4489801D01*
X3309803D01*
X3055000Y4380001D02*
X3145602D01*
X3309803Y4489801D02*
X3310001Y4489999D01*
X3908141Y4459300D02*
X4030701D01*
X3860201Y4507240D02*
X3908141Y4459300D01*
X6487551Y4447550D02*
X6490000Y4449999D01*
X6437549Y4447550D02*
X6487551D01*
X7023649Y4356349D02*
Y4448851D01*
Y4356349D02*
X7061236Y4318762D01*
X6940001Y4532498D02*
X7023649Y4448851D01*
X5865002Y3494999D02*
Y3678138D01*
X6612179Y3379998D02*
X6740002D01*
X7005401Y3645398D01*
X6565880Y3426297D02*
X6612179Y3379998D01*
X6565001Y3494999D02*
X6565880Y3494121D01*
Y3426297D02*
Y3494121D01*
X7005401Y3645398D02*
Y4262928D01*
X7052473Y4309999D01*
X7069999D01*
X6969999Y3804681D02*
Y4129999D01*
X6905000Y4194998D02*
X6969999Y4129999D01*
X6940001Y4532498D02*
Y4535002D01*
X7069999Y4309999D02*
X7140001D01*
X7269998Y4440001D01*
Y4580001D01*
X7131248Y4718751D02*
X7269998Y4580001D01*
X6780002Y4807499D02*
X6868749Y4718751D01*
X7131248D01*
X5875000Y4824999D02*
Y4827499D01*
Y4822500D02*
Y4824999D01*
X5797499Y4904999D02*
X5875000Y4827499D01*
X5797499Y4904999D02*
Y5450002D01*
X6310000D02*
X6649999Y5110002D01*
X5797499Y5450002D02*
X6310000D01*
X6649999Y4937501D02*
Y5110002D01*
Y4937501D02*
X6780002Y4807499D01*
X6872849Y3994998D02*
X6905732Y3962116D01*
X6949999Y3784681D02*
X6969999Y3804681D01*
X6765000Y3994998D02*
X6872849D01*
X6765000Y4194998D02*
X6905000D01*
X2823748Y7598750D02*
X2899999Y7675001D01*
X2823748Y7553752D02*
Y7598750D01*
X2977500Y5324998D02*
X3057403Y5245100D01*
X6414511Y3915491D02*
X6485001Y3845001D01*
X6765000D01*
X6314999Y3494999D02*
Y3551245D01*
X6302700Y3563544D02*
Y3565616D01*
Y3563544D02*
X6314999Y3551245D01*
X6265880Y3434867D02*
X6314496Y3386252D01*
X6265001Y3494999D02*
X6265880Y3494121D01*
Y3434867D02*
Y3494121D01*
X6139998Y3619998D02*
X6165002Y3594999D01*
Y3494999D02*
Y3594999D01*
X5615000Y4045001D02*
X5754477D01*
X6165002Y4525350D02*
Y4645000D01*
X4779706Y4873706D02*
X4783704D01*
X4829998Y4920000D01*
X4678751Y4772751D02*
X4779706Y4873706D01*
X6654998Y3894999D02*
X6765000D01*
X6580002Y4050000D02*
X6684122Y3945880D01*
X6764122D01*
X6765000Y3945001D01*
X5815000Y3494999D02*
Y3545002D01*
X5759999Y3599998D02*
X5815000Y3545002D01*
X8074213Y5571058D02*
X8232303Y5412974D01*
Y4692299D02*
Y5412974D01*
X8064998Y4525000D02*
X8232303Y4692299D01*
X7950002Y4525000D02*
X8064998D01*
X7200001Y7500000D02*
X7647498D01*
X8070103Y5571058D02*
X8074213D01*
X8060304Y5580858D02*
X8070103Y5571058D01*
X6022701Y4760798D02*
Y4787702D01*
X6059998Y4824999D01*
X6014999Y4753102D02*
X6022701Y4760798D01*
X6014999Y4645000D02*
Y4753102D01*
X5912302Y4935200D02*
X5914801D01*
X5947700Y4763099D02*
Y4902302D01*
X5875000Y4972502D02*
X5912302Y4935200D01*
X5914801D02*
X5947700Y4902302D01*
X5875000Y4972502D02*
Y4975001D01*
X5865881Y4645878D02*
Y4715881D01*
X5889356Y4739356D01*
X5865002Y4645000D02*
X5865881Y4645878D01*
X5889356Y4739356D02*
X5923961D01*
X5947700Y4763099D01*
X5815000Y4645000D02*
Y4762500D01*
X5875000Y4822500D01*
X6820002Y4445000D02*
X6870202Y4495201D01*
X6765000Y4445000D02*
X6820002D01*
X6870202Y4495201D02*
X6902699D01*
X6940001Y4532498D01*
X6765000Y4395003D02*
X6929999D01*
X6940001Y4385000D01*
X5259248Y4159245D02*
Y4293052D01*
X4892502Y4080002D02*
X5260000D01*
X4872502Y4060002D02*
X4892502Y4080002D01*
X5375001Y4194998D02*
X5615000D01*
X5260000Y4080002D02*
X5375001Y4194998D01*
X5499999Y3599998D02*
X5759999D01*
X4688952Y4474799D02*
Y4477299D01*
X4678751Y4487499D02*
X4688952Y4477299D01*
X4678751Y4487499D02*
Y4620001D01*
X4723750Y4440001D02*
X4726249D01*
X4688952Y4474799D02*
X4723750Y4440001D01*
X4678751Y4620001D02*
Y4772751D01*
X5175956Y3990000D02*
X5220000Y3945956D01*
X4932101Y3990000D02*
X5175956D01*
X5198130Y3804569D02*
X5220000Y3782700D01*
X4887387Y3870000D02*
X5132700D01*
X4931903Y3989802D02*
X4932101Y3990000D01*
X4800199Y3989802D02*
X4931903D01*
X4729998Y4060002D02*
X4800199Y3989802D01*
X5270002Y3670000D02*
Y3743559D01*
X5220000Y3619998D02*
X5270002Y3670000D01*
X5290002Y3690000D02*
X5306781Y3706779D01*
X5290002Y3690000D02*
Y3723559D01*
X5270002Y3670000D02*
X5290002Y3690000D01*
X5256779Y3756777D02*
X5270002Y3743559D01*
X5226782Y3786779D02*
X5256779Y3756777D01*
X5270002Y3743559D02*
X5290002Y3723559D01*
X5132700Y4274998D02*
X5220000Y4362303D01*
Y4520001D01*
X4600001Y4062105D02*
X4668098Y4130203D01*
X4799802D01*
X4869998Y4060002D01*
X4872502D01*
X5259248Y4293052D02*
X5307300Y4245000D01*
X5259248Y4293052D02*
Y4480753D01*
X5220000Y4520001D02*
X5259248Y4480753D01*
X4727499Y4060002D02*
X4729998D01*
X5307300Y4245000D02*
X5615000D01*
X7950002Y6480002D02*
X7984800Y6445199D01*
X7950002Y6365001D02*
Y6480002D01*
X3679998Y6545001D02*
Y6694998D01*
X3674999Y6700002D02*
X3679998Y6694998D01*
X2899999Y7675001D02*
X2902499D01*
X7999999Y6279998D02*
Y6365001D01*
X7950002Y5679999D02*
X7984800Y5645201D01*
X7950002Y5564998D02*
Y5679999D01*
X7647498Y7500000D02*
X7650002Y7502500D01*
X3047502Y7675001D02*
X3050002Y7677501D01*
Y7899999D01*
X4904374Y6881871D02*
X4924999Y6861246D01*
X4903130Y6881871D02*
X4904374D01*
X4852299Y6932701D02*
X4903130Y6881871D01*
X4924999Y6849999D02*
Y6861246D01*
X4849998Y7200001D02*
X4997699Y7052300D01*
X4975616Y6767302D02*
X4997699Y6789384D01*
X4847702Y6767302D02*
X4975616D01*
X4775002Y6840002D02*
X4847702Y6767302D01*
X4997699Y6789384D02*
Y7052300D01*
X4775002Y6840002D02*
Y6849999D01*
X4274998Y6860002D02*
X4347698Y6932701D01*
X4274998Y6849999D02*
Y6860002D01*
X4425000Y6849999D02*
X4775002D01*
X6325001D02*
X6674998D01*
X6749999Y7200001D02*
X6897700Y7052300D01*
Y6789384D02*
Y7052300D01*
X6875617Y6767302D02*
X6897700Y6789384D01*
X6747698Y6767302D02*
X6875617D01*
X6674998Y6840002D02*
X6747698Y6767302D01*
X6674998Y6840002D02*
Y6849999D01*
X6174999D02*
Y6860002D01*
X6247699Y6932701D01*
X6752300D01*
X6825000Y6860002D01*
Y6849999D02*
Y6860002D01*
X5572501Y6849999D02*
X6174999D01*
X3679998Y6245001D02*
X3699998Y6225002D01*
X3679998Y6245001D02*
Y6354999D01*
X7650002Y7647498D02*
Y7899999D01*
X7689799Y6965198D02*
X7749799Y6905198D01*
Y6845198D02*
Y6905198D01*
X7662301Y6965198D02*
X7689799D01*
X7624999Y7002501D02*
X7662301Y6965198D01*
X7624999Y7002501D02*
Y7005000D01*
X7749799Y6845198D02*
X7750002Y6845000D01*
X7300001Y7005000D02*
X7302500D01*
X7950002Y6729999D02*
X8064998D01*
X7984800Y6445199D02*
X8015199D01*
X8030398Y6430000D02*
X8064998D01*
X8015199Y6445199D02*
X8030398Y6430000D01*
X7584999D02*
X7619599D01*
X7634798Y6445199D01*
X7665202D01*
X7715001Y6494998D01*
X7665202Y6764802D02*
X7715001Y6714998D01*
X7375002Y6780002D02*
X7619599D01*
X7634798Y6764802D01*
X7665202D01*
X7349998Y6805000D02*
X7375002Y6780002D01*
X7800000Y6045002D02*
X7850002D01*
X7750002Y6179998D02*
X7775001Y6205002D01*
X7750002Y6045002D02*
Y6179998D01*
X7650002Y6130000D02*
X7700000Y6079998D01*
Y6045002D02*
Y6079998D01*
X7375002Y6130000D02*
X7650002D01*
X7437501Y6045002D02*
X7650002D01*
X7375002Y5982498D02*
X7437501Y6045002D01*
X7375002Y5979998D02*
Y5982498D01*
X7950002Y5930001D02*
X8064998D01*
X7619599Y5979998D02*
X7634798Y5964799D01*
X7665202D01*
X7584999Y5979998D02*
X7619599D01*
X7665202Y5964799D02*
X7715001Y5915000D01*
X7984800Y5645201D02*
X8015199D01*
X8030398Y5630001D02*
X8064998D01*
X8015199Y5645201D02*
X8030398Y5630001D01*
X7619599D02*
X7634798Y5645201D01*
X7665202D02*
X7715001Y5695000D01*
X7584999Y5630001D02*
X7619599D01*
X7634798Y5645201D02*
X7665202D01*
X3081299Y4628799D02*
X3178739D01*
X3002498Y4549999D02*
X3081299Y4628799D01*
X3410199Y4654398D02*
X3424799Y4639798D01*
X3178739Y4628799D02*
X3225140Y4675200D01*
X3389579D02*
X3410199Y4654580D01*
X3225140Y4675200D02*
X3389579D01*
X3410199Y4654398D02*
Y4654580D01*
X2999999Y4549999D02*
X3002498D01*
X3650000Y5200000D02*
X3765001D01*
X3319602Y5250002D02*
X3334802Y5234798D01*
X3365200D01*
X3415000Y5184999D01*
X3334802Y4915200D02*
X3365200D01*
X3415000Y4964999D01*
X3285002Y4900000D02*
X3319602D01*
X3334802Y4915200D01*
X3674999Y4489999D02*
X3790000D01*
X3390199Y4205199D02*
X3439998Y4254998D01*
X3310001Y4189999D02*
X3344601D01*
X3359800Y4205199D01*
X3390199D01*
X3740201D02*
X3755400Y4189999D01*
X3709802Y4205199D02*
X3740201D01*
X3755400Y4189999D02*
X3790000D01*
X3674999Y4240002D02*
X3709802Y4205199D01*
X3650000Y4949998D02*
X3684798Y4915200D01*
X3715202D02*
X3730401Y4900000D01*
X3765001D01*
X3684798Y4915200D02*
X3715202D01*
X3650000Y4835002D02*
Y4949998D01*
X3674999Y4125001D02*
Y4240002D01*
X7186498Y4197502D02*
X7300260D01*
X3164799Y5285202D02*
Y5287701D01*
X3127502Y5324998D02*
X3164799Y5287701D01*
X3125003Y5324998D02*
X3127502D01*
X3199999Y5250002D02*
X3319602D01*
X3164799Y5285202D02*
X3199999Y5250002D01*
X3164799Y4564802D02*
X3205002Y4605000D01*
X3125003Y4525000D02*
Y4527499D01*
X3162300Y4564802D02*
X3164799D01*
X3205002Y4605000D02*
X3375000D01*
X7177502Y3450001D02*
X7195723Y3431779D01*
Y3379277D02*
X7249998Y3325002D01*
Y3199999D02*
Y3325002D01*
X7195723Y3379277D02*
Y3431779D01*
X7225000Y3175000D02*
X7249998Y3199999D01*
X7324999Y3450001D02*
X7359802Y3415198D01*
Y3412698D02*
Y3415198D01*
Y3412698D02*
X7424999Y3347502D01*
X7322500Y3450001D02*
X7324999D01*
X7424999Y3175000D02*
Y3347502D01*
X7177502Y3450001D02*
X7186498Y3459002D01*
Y3652500D01*
X7313498Y3459002D02*
Y3652500D01*
Y3459002D02*
X7322500Y3450001D01*
X7515001Y3359998D02*
Y3425002D01*
X7591903Y3208101D02*
X7624999Y3175000D01*
X7591903Y3208101D02*
Y3283102D01*
X7515001Y3359998D02*
X7591903Y3283102D01*
D41*
X5670001Y3694999D02*
X5716504Y3741501D01*
X6126775D01*
X6128278Y3739998D01*
X2615740Y6665740D02*
X2654739D01*
X2695780Y6706781D01*
X2610000Y6660000D02*
X2615740Y6665740D01*
X2695780Y6706781D02*
X2723223D01*
X3225884Y6711013D02*
X3229290Y6714419D01*
X3137786Y6582025D02*
X3139299Y6580513D01*
X3267489D02*
X3275000Y6573002D01*
X3139299Y6580513D02*
X3267489D01*
X3175013Y6711013D02*
X3225884D01*
X3170001Y6716025D02*
X3175013Y6711013D01*
X3109000Y6833017D02*
X3135686Y6806331D01*
X3182173D01*
X3109000Y7009002D02*
X3195371Y7095373D01*
X3158118Y6850000D02*
X3175117Y6833001D01*
X3109000Y6833017D02*
Y7009002D01*
X3175117Y6833001D02*
X3269000D01*
X3150000Y6850000D02*
X3158118D01*
X8143692Y5761512D02*
X8145912D01*
X8126928Y5778276D02*
X8143692Y5761512D01*
X8123604Y5881722D02*
X8131120Y5889238D01*
X8066721Y5881722D02*
X8123604D01*
X8064998Y5879998D02*
X8066721Y5881722D01*
X8131120Y5889238D02*
X8139238D01*
X8174468Y6629822D02*
X8174645Y6629645D01*
X8065175Y6629822D02*
X8174468D01*
X8149914Y6680044D02*
X8149958Y6680088D01*
X8065040Y6680044D02*
X8149914D01*
X8064998Y6680002D02*
X8065040Y6680044D01*
X8064998Y6629999D02*
X8065175Y6629822D01*
X8064998Y6580002D02*
X8066150Y6578850D01*
X8151154D01*
X8152304Y6577700D01*
X8169416Y6480002D02*
X8169678Y6479740D01*
X8178676D02*
X8184416Y6474000D01*
X8169678Y6479740D02*
X8178676D01*
X8150001Y6480002D02*
X8169416D01*
X8150001Y6530000D02*
X8184416D01*
X3960002Y5710143D02*
X3974523Y5695622D01*
X3977613D02*
X3978875Y5694360D01*
X3960002Y5710143D02*
Y5730001D01*
X3978875Y5694360D02*
X4012880D01*
X3974523Y5695622D02*
X3977613D01*
X4012880Y5694360D02*
X4018620Y5688620D01*
X3687072Y5447502D02*
Y5487073D01*
X3699998Y5499999D01*
X4022501D02*
X4142501D01*
X4146794Y5275001D02*
X4147147Y5275354D01*
X4068120Y5275001D02*
X4146794D01*
X3875449Y4415551D02*
X3880002Y4410998D01*
X3851885Y4415551D02*
X3875449D01*
X3825001Y4340001D02*
X3860264Y4304738D01*
X3825001Y4340001D02*
Y4340001D01*
X3860264Y4304738D02*
X3874262D01*
X3880002Y4298998D01*
X3255786Y4216993D02*
Y4218350D01*
X3216985Y4371195D02*
Y4381986D01*
X3307062Y4387060D02*
X3310001Y4389999D01*
X3272061Y4387060D02*
X3307062D01*
X3213049Y4211026D02*
X3229786Y4227762D01*
X3168863Y4156847D02*
Y4203609D01*
X3239049Y4132280D02*
Y4200256D01*
X3255786Y4216993D01*
X3277437Y4340001D02*
X3310001D01*
X3277438Y4240002D02*
X3310001D01*
X3168863Y4203609D02*
X3203786Y4238532D01*
X3307062Y4287060D02*
X3310001Y4289999D01*
X3250489Y4308623D02*
Y4313053D01*
X3229786Y4244785D02*
X3272061Y4287060D01*
X3213049Y4143050D02*
Y4211026D01*
X3250489Y4313053D02*
X3277437Y4340001D01*
X3203786Y4261919D02*
X3250489Y4308623D01*
X3162786Y4255869D02*
Y4257688D01*
X3183489Y4337699D02*
X3216985Y4371195D01*
X3224489Y4339489D02*
X3272061Y4387060D01*
X3255786Y4218350D02*
X3277438Y4240002D01*
X3229786Y4227762D02*
Y4244785D01*
X3203786Y4238532D02*
Y4261919D01*
X3162786Y4257688D02*
X3224489Y4319392D01*
X3216985Y4381986D02*
X3275000Y4440001D01*
X3272061Y4287060D02*
X3307062D01*
X3224489Y4319392D02*
Y4339489D01*
X3187500Y4117501D02*
X3213049Y4143050D01*
X3167607Y4155590D02*
X3168863Y4156847D01*
X3187500Y4057500D02*
Y4117501D01*
X3526722Y4063758D02*
X3531814Y4058666D01*
X3526722Y4063758D02*
Y4123280D01*
X3525002Y4125001D02*
X3526722Y4123280D01*
X3474999Y4024499D02*
X3475000Y4024499D01*
X3474999Y4125001D02*
X3475000Y4125000D01*
Y4024499D02*
Y4125000D01*
X3271983Y4092346D02*
X3289235D01*
X3249828Y4114500D02*
X3271983Y4092346D01*
X3289235D02*
X3315441Y4066140D01*
X3323559D01*
X3574999Y4089999D02*
X3575004D01*
X3639260Y3993240D02*
Y4025744D01*
Y3993240D02*
X3645000Y3987500D01*
X3575004Y4089999D02*
X3639260Y4025744D01*
X6709999Y3691210D02*
Y3694999D01*
X6678402Y3659612D02*
X6709999Y3691210D01*
X6678402Y3654999D02*
Y3659612D01*
X6185449Y3739998D02*
X6274948Y3650498D01*
X6128278Y3739998D02*
X6185449D01*
X5694002Y3365456D02*
X5737999Y3409453D01*
X5694002Y3362938D02*
Y3365456D01*
X5798877Y3409453D02*
X5801330Y3407000D01*
X5737999Y3409453D02*
X5798877D01*
X5928669Y3406999D02*
X5965002Y3443333D01*
X5886608Y3345637D02*
X5895971Y3354999D01*
X5841574Y3339897D02*
X5847314Y3345637D01*
X5886608D01*
X5990000Y3315000D02*
X6110426Y3435426D01*
X5947651Y3315000D02*
X5990000D01*
X5943000Y3310349D02*
X5947651Y3315000D01*
X6274948Y3650498D02*
X6613488D01*
X6738891Y3525095D01*
X6765000Y3745001D02*
X6769573Y3740429D01*
X6824574D01*
X6881881Y3683121D01*
Y3631880D02*
Y3683121D01*
X6765559Y4095557D02*
X6909441D01*
X6910000Y4096115D01*
X6765000Y4094998D02*
X6765559Y4095557D01*
X6880885Y4145414D02*
X6881298Y4145827D01*
X6765414Y4145414D02*
X6880885D01*
X6765000Y4145001D02*
X6765414Y4145414D01*
X6889140Y4307901D02*
X6903981D01*
X6931394Y4280488D02*
X6939512D01*
X6903981Y4307901D02*
X6931394Y4280488D01*
X7750002Y5436565D02*
X7753566Y5433001D01*
X7750002Y5436565D02*
Y5564998D01*
X7791182Y5487620D02*
X7798278Y5494716D01*
Y5563276D01*
X7791182Y5479502D02*
Y5487620D01*
X7798278Y5563276D02*
X7800000Y5564998D01*
X7844862Y5522124D02*
X7850002Y5527264D01*
Y5564998D01*
X7371918Y5713535D02*
Y5783083D01*
X7349998Y5805002D02*
X7371918Y5783083D01*
X7378238Y5879762D02*
X7408741D01*
X7372498Y5885502D02*
X7378238Y5879762D01*
X7408741D02*
X7436181Y5852322D01*
X7524779Y5731722D02*
X7583278D01*
X7480633Y5665087D02*
X7495545Y5679999D01*
X7583278Y5731722D02*
X7584999Y5730001D01*
X7502328Y5746055D02*
X7510445D01*
X7524779Y5731722D01*
X7476206Y5665087D02*
X7480633D01*
X7547563Y5830001D02*
X7584999D01*
X7525242Y5852322D02*
X7547563Y5830001D01*
X7494498Y5811322D02*
X7500045Y5805775D01*
X7521788D01*
X7436181Y5852322D02*
X7525242D01*
X7480502Y5912994D02*
X7513498Y5879998D01*
X7480502Y5912994D02*
Y5916158D01*
X7850002Y6327566D02*
Y6365001D01*
X7837184Y6314748D02*
X7850002Y6327566D01*
X7837184Y6302853D02*
Y6314748D01*
X7831444Y6297113D02*
X7837184Y6302853D01*
X7767504Y6295068D02*
X7800000Y6327564D01*
Y6365001D01*
X7767504Y6288002D02*
Y6295068D01*
X7700502Y6279998D02*
Y6281195D01*
X7750002Y6330695D02*
Y6365001D01*
X7700502Y6281195D02*
X7750002Y6330695D01*
X7380559Y6271941D02*
X7434499D01*
X7347499Y6305001D02*
X7380559Y6271941D01*
X7446014Y6541270D02*
X7454131D01*
X7465402Y6530000D02*
X7584999D01*
X7454131Y6541270D02*
X7465402Y6530000D01*
X7489965Y6578750D02*
X7583747D01*
X7488715Y6577500D02*
X7489965Y6578750D01*
X7583747Y6478750D02*
X7584999Y6480002D01*
X7501000Y6477500D02*
X7502250Y6478750D01*
X7583747D01*
X7583433Y6681568D02*
X7584999Y6680002D01*
X7506412Y6681568D02*
X7583433D01*
X7504844Y6683136D02*
X7506412Y6681568D01*
X7583747Y6578750D02*
X7584999Y6580002D01*
X7381893Y6545362D02*
X7417998Y6581467D01*
Y6595043D01*
X7442368Y6619413D01*
X6443380Y6509120D02*
X6490000Y6462500D01*
X6430880Y6509120D02*
X6443380D01*
X6390000Y6550000D02*
X6430880Y6509120D01*
X2735999Y6831500D02*
X2737500Y6833001D01*
X2610002Y6829999D02*
X2611504Y6831500D01*
X2735999D01*
X2638999Y6960058D02*
X2639027Y6960030D01*
X2737472D01*
X2737500Y6960001D01*
X2638999Y7082500D02*
X2641249Y7084751D01*
X2703947D01*
X3758307Y6324276D02*
X3764047Y6318535D01*
X3688417Y6346580D02*
X3720323D01*
X3742627Y6324276D02*
X3758307D01*
X3720323Y6346580D02*
X3742627Y6324276D01*
X3679998Y6354999D02*
X3688417Y6346580D01*
X3920000Y6625000D02*
X3920001Y6624999D01*
Y6545002D02*
X3920002Y6545001D01*
X3920001Y6545002D02*
Y6624999D01*
X3960002Y5950001D02*
X3963637Y5953636D01*
Y6033636D02*
X3968323Y6038322D01*
X3963637Y5953636D02*
Y6033636D01*
X3984097Y6280196D02*
X3984452Y6280551D01*
X3813724Y5996417D02*
Y6014259D01*
X3782998Y6044985D02*
Y6050001D01*
Y6044985D02*
X3813724Y6014259D01*
X3350001Y5315001D02*
Y5410484D01*
X3397515Y5457998D01*
X3398750Y5316249D02*
Y5398750D01*
Y5316249D02*
X3399998Y5315001D01*
X3397515Y5457998D02*
X3507999D01*
X3397500Y5400000D02*
X3398750Y5398750D01*
X3819078Y5310382D02*
X3824818Y5304641D01*
Y5268316D02*
Y5304641D01*
Y5268316D02*
X3833500Y5259634D01*
X3894863Y5184366D02*
X3900604Y5190106D01*
X3894863Y5159016D02*
Y5184366D01*
X3863000Y5127153D02*
X3894863Y5159016D01*
X3815568Y4856668D02*
X3874450Y4915550D01*
X3634657Y4684881D02*
X3682480D01*
X3620277Y4670501D02*
X3634657Y4684881D01*
X3612368Y4670501D02*
X3620277D01*
X3478002Y4712883D02*
X3520118D01*
X3525002Y4708000D01*
X3574999Y4640001D02*
X3601999Y4667001D01*
X3608868D02*
X3612368Y4670501D01*
X3601999Y4667001D02*
X3608868D01*
X3581002Y4708000D02*
Y4716118D01*
X3599764Y4734880D01*
X3476722Y4606722D02*
Y4669621D01*
X3475000Y4605000D02*
X3476722Y4606722D01*
Y4669621D02*
X3478985Y4671883D01*
X3599764Y4734880D02*
Y4834763D01*
X3457092Y4733793D02*
X3478002Y4712883D01*
X3551722Y4779004D02*
X3558764Y4771962D01*
X3499998Y4835002D02*
X3500520Y4834480D01*
X3558764Y4763844D02*
Y4771962D01*
X3500520Y4760961D02*
Y4834480D01*
X3457092Y4733793D02*
Y4756404D01*
X3551722Y4779004D02*
Y4833280D01*
X3500520Y4760961D02*
X3501040Y4760441D01*
X3153020Y4911132D02*
Y4913737D01*
X3185969Y5000000D02*
X3285002D01*
X3158092Y4980241D02*
X3166210D01*
X3185969Y5000000D01*
X3153020Y4913737D02*
X3189280Y4949998D01*
X3183024Y5090277D02*
X3191025Y5098278D01*
X3136579Y5090277D02*
X3183024D01*
X3136024Y5089723D02*
X3136579Y5090277D01*
X3191025Y5098278D02*
X3283280D01*
X3113278Y5148278D02*
X3283278D01*
X3110000Y5145000D02*
X3113278Y5148278D01*
X3283278D02*
X3285002Y5150002D01*
X3550001Y4835002D02*
X3551722Y4833280D01*
X6065002Y3443333D02*
Y3494999D01*
X5895971Y3354999D02*
X5976669D01*
X6065002Y3443333D01*
X6110426Y3435426D02*
Y3490427D01*
X6114999Y3494999D01*
X5890560Y3381000D02*
X5890561Y3380999D01*
X5939438D02*
X5959439Y3401000D01*
X5777894Y3381000D02*
X5890560D01*
X5801330Y3407000D02*
X5901330D01*
X5901330Y3406999D02*
X5928669D01*
X6010425Y3490425D02*
X6014999Y3494999D01*
X5765348Y3368454D02*
X5777894Y3381000D01*
X6010425Y3435428D02*
Y3490425D01*
X5901330Y3407000D02*
X5901330Y3406999D01*
X5975997Y3401000D02*
X6010425Y3435428D01*
X5890561Y3380999D02*
X5939438D01*
X5959439Y3401000D02*
X5975997D01*
X5757500Y3368454D02*
X5765348D01*
X5965002Y3443333D02*
Y3494999D01*
X3790000Y5000000D02*
X3820003D01*
X3813724Y5996417D02*
X3830000Y5980140D01*
Y5950001D02*
Y5980140D01*
X3275000Y6954002D02*
X3315752D01*
X8064998Y6530000D02*
X8065003D01*
X8119999D01*
X3954374Y6340627D02*
X3984452Y6310549D01*
Y6280551D02*
Y6310549D01*
X6852046Y4345000D02*
X6889140Y4307901D01*
X3574999Y4089999D02*
Y4125001D01*
X5615000Y3694999D02*
X5670001D01*
X6709999D02*
X6765000D01*
X7495545Y5679999D02*
X7584999D01*
X3947023Y6340627D02*
X3954374D01*
X3941069Y6334674D02*
X3947023Y6340627D01*
X3920744Y6354999D02*
X3941069Y6334674D01*
X3920002Y6354999D02*
X3920744D01*
X3182173Y6806331D02*
X3239064Y6749435D01*
X3274126Y7095373D02*
X3282498Y7087001D01*
X3195371Y7095373D02*
X3274126D01*
X3229290Y6714419D02*
X3237916Y6705793D01*
X3239064Y6726326D02*
Y6749435D01*
Y6726326D02*
X3259389Y6706001D01*
X3282498D01*
X3450001Y4763501D02*
X3457092Y4756404D01*
X3450001Y4763501D02*
Y4835002D01*
X3249828Y4114500D02*
Y4121501D01*
X3239049Y4132280D02*
X3249828Y4121501D01*
X6014999Y4645000D02*
X6015436Y4644563D01*
X6390000Y6550000D02*
Y6640002D01*
X6765000Y4345000D02*
X6852046D01*
X2839999Y7020001D02*
Y7269998D01*
X2769001Y7341001D02*
X2839999Y7269998D01*
X2737500Y7341001D02*
X2769001D01*
X2780000Y6960001D02*
X2839999Y7020001D01*
X2737500Y6960001D02*
X2780000D01*
X2618196Y7210999D02*
X2734498D01*
X2737500Y7214001D01*
X7513498Y5879998D02*
X7584999D01*
X3790000Y4440001D02*
X3827435D01*
X3851885Y4415551D01*
X3874450Y4360550D02*
X3880002Y4354998D01*
X3854450Y4360550D02*
X3874450D01*
X3790000Y4389999D02*
X3825001D01*
X3854450Y4360550D01*
X3790000Y4340001D02*
X3825001D01*
X3874450Y4915550D02*
Y4939965D01*
X3864417Y4949998D02*
X3874450Y4939965D01*
X3599998Y6777502D02*
Y6969999D01*
X3674999Y6700002D02*
Y6702501D01*
X3599998Y6777502D02*
X3674999Y6702501D01*
X3450001Y5315001D02*
Y5350002D01*
X3504860Y5404861D02*
X3574959D01*
X3450001Y5350002D02*
X3504860Y5404861D01*
X7442368Y6619413D02*
X7502774D01*
X7513361Y6629999D01*
X7584999D01*
X3929309Y5136190D02*
X4068120Y5275001D01*
X3825001Y5644998D02*
Y5725003D01*
X3714272Y5378861D02*
X3903863D01*
X3980500Y5455498D02*
Y5457998D01*
X3903863Y5378861D02*
X3980500Y5455498D01*
Y5457998D02*
X4022501Y5499999D01*
X3850000Y4949998D02*
X3864417D01*
Y5000000D02*
X3888999Y5024582D01*
X3910279Y5136190D02*
X3929309D01*
X3863000Y5113000D02*
Y5127153D01*
X3888999Y5024582D02*
Y5114910D01*
X3910279Y5136190D01*
X3802939Y5052939D02*
X3863000Y5113000D01*
X3831651Y5131648D02*
Y5144882D01*
X3765001Y5150002D02*
X3800003D01*
X3833500Y5183500D01*
X3802939Y5102941D02*
X3831651Y5131648D01*
X3859500Y5172730D02*
Y5230927D01*
X3833500Y5183500D02*
Y5259634D01*
X3831651Y5144882D02*
X3859500Y5172730D01*
X3767938Y5102941D02*
X3802939D01*
X3765001Y5100000D02*
X3767938Y5102941D01*
Y5052939D02*
X3802939D01*
X3765001Y5050003D02*
X3767938Y5052939D01*
X3859500Y5230927D02*
X3870884Y5242311D01*
Y5289118D01*
X3850000Y5000000D02*
X3864417D01*
X3275000Y4440001D02*
X3310001D01*
X7521788Y5805775D02*
X7547564Y5779999D01*
X7584999D01*
X6325001Y6705001D02*
Y6849999D01*
Y6705001D02*
X6390000Y6640002D01*
X8146908Y5830001D02*
X8161655Y5815254D01*
X8064998Y5779999D02*
X8066720Y5778276D01*
X8064998Y5830001D02*
X8146908D01*
X8066720Y5778276D02*
X8126928D01*
X5550002Y7389998D02*
Y7422500D01*
X3315752Y6954002D02*
X3379998Y7018249D01*
Y7020001D01*
X8064998Y6480002D02*
X8119999D01*
X3283280Y5098278D02*
X3285002Y5100000D01*
X3167847Y5050003D02*
X3285002D01*
X3189280Y4949998D02*
X3285002D01*
X3507999Y5457998D02*
X3550001Y5499999D01*
X3585728Y5378861D02*
X3587369Y5380502D01*
X3712632D01*
X3578860Y5378861D02*
X3585728D01*
X3712632Y5380502D02*
X3714272Y5378861D01*
X3550001Y5350002D02*
X3578860Y5378861D01*
X3550001Y5315001D02*
Y5350002D01*
X3723401Y5406502D02*
X3725042Y5404861D01*
X3576599Y5406502D02*
X3723401D01*
X3725042Y5404861D02*
X3777361D01*
X3574959D02*
X3576599Y5406502D01*
X3777361Y5404861D02*
X3872499Y5499999D01*
X3499998Y5315001D02*
X3550001D01*
X3872499Y5499999D02*
X3874999D01*
X3765001Y4949998D02*
X3820003D01*
X3574999Y4605000D02*
Y4640001D01*
X3525002Y4605000D02*
X3574999D01*
D42*
X5710001Y4783321D02*
Y5095001D01*
X5707000Y4780320D02*
X5710001Y4783321D01*
X5707000Y4700566D02*
Y4780320D01*
X5499999Y4493565D02*
X5707000Y4700566D01*
X7950002Y4374998D02*
X7952501Y4372499D01*
X8147501D01*
X8150000Y4370000D01*
X4925939Y2879999D02*
X4929998D01*
X4888443Y2917500D02*
X4925939Y2879999D01*
X4797501Y2950002D02*
X4829998Y2917500D01*
X4888443D01*
X7950002Y4225000D02*
X8150941D01*
X5504998Y4145001D02*
X5615000D01*
X6372499Y4980000D02*
X6374999Y4977501D01*
Y4809998D02*
Y4977501D01*
X6214999Y4800001D02*
X6225002Y4809998D01*
X6214999Y4645000D02*
Y4800001D01*
X5684998Y5120000D02*
X5710001Y5095001D01*
X5425760Y4949998D02*
X5459999Y4915764D01*
X5315001Y4949998D02*
X5425760D01*
X5459999Y4912939D02*
Y4915764D01*
X5439999Y4354998D02*
Y4892939D01*
X5499999Y4362572D02*
X5517576Y4345000D01*
X5499999Y4362572D02*
Y4493565D01*
X5517576Y4345000D02*
X5615000D01*
X5439999Y4354998D02*
X5499999Y4294998D01*
X5615000D01*
X5439999Y4892939D02*
X5459999Y4912939D01*
D43*
X5759507Y4131651D02*
X5806029D01*
X5759277Y4131422D02*
X5759507Y4131651D01*
X5806029D02*
X5810001Y4135623D01*
X5722859Y4094998D02*
X5759277Y4131422D01*
X5615000Y4094998D02*
X5722859D01*
D44*
X6245428Y3786363D02*
X6267750Y3808679D01*
X6196360Y3786363D02*
X6245428D01*
X6267750Y3808679D02*
Y3880074D01*
X6331250Y3808679D02*
Y3906373D01*
Y3808679D02*
X6358611Y3781318D01*
X6398682D01*
X6400002Y3780003D01*
X6329929Y3907693D02*
Y4038600D01*
Y3907693D02*
X6331250Y3906373D01*
X6266429Y3881389D02*
X6267750Y3880074D01*
X6266429Y3881389D02*
Y4064904D01*
X6501547Y4300017D01*
X6329929Y4038600D02*
X6527846Y4236517D01*
X6501547Y4300017D02*
X6662918D01*
X6689222Y4236517D02*
X6691752Y4239052D01*
X6665453Y4302552D02*
X6695440D01*
X6662918Y4300017D02*
X6665453Y4302552D01*
X6527846Y4236517D02*
X6689222D01*
X6691752Y4239052D02*
X6695440D01*
D45*
X7664999Y4816988D02*
X7826985Y4655002D01*
X8020000D01*
X7979999Y4907498D02*
X8069685D01*
X8067543Y4595002D02*
X8149996Y4677456D01*
X7950002Y4907498D02*
X7952501Y4909998D01*
X8149996Y4677456D02*
Y4827187D01*
X7952501Y4909998D02*
X7979999D01*
X8069685Y4907498D02*
X8149996Y4827187D01*
X7405000Y4473860D02*
X7415002Y4463859D01*
Y4359925D02*
Y4463859D01*
X7405000Y4473860D02*
Y4586140D01*
X7440003Y4612500D02*
X7540000Y4712498D01*
X7431361Y4612500D02*
X7440003D01*
X7540000Y4712498D02*
Y4904999D01*
X7405000Y4586140D02*
X7431361Y4612500D01*
X7610000Y3834464D02*
X7677501Y3766964D01*
X7415002Y4359925D02*
X7610000Y4164922D01*
Y3834464D02*
Y4164922D01*
X7677501Y3675000D02*
Y3766964D01*
Y3652500D02*
Y3674999D01*
X7440498Y3652500D02*
X7655001D01*
X7677501Y3632500D02*
X7884998Y3425002D01*
X7677501Y3632500D02*
Y3652500D01*
X7741006Y4529999D02*
X7806004Y4595002D01*
X7524999Y4529999D02*
X7741006D01*
X7806004Y4595002D02*
X8067543D01*
X5655000Y5450002D02*
X5677499Y5472501D01*
X5652501Y5450002D02*
X5655000D01*
X5677499Y5472501D02*
Y5475000D01*
X5679999Y5630001D02*
X5725003Y5675000D01*
X7776987Y5110002D02*
Y5212187D01*
X7664999Y4816988D02*
Y4998014D01*
X7839801Y5275001D02*
X7932501D01*
X7776987Y5212187D02*
X7839801Y5275001D01*
X7664999Y4998014D02*
X7776987Y5110002D01*
D46*
X5650647Y5448148D02*
X5652501Y5450002D01*
X5650647Y5341649D02*
Y5448148D01*
X5649499Y5340502D02*
X5650647Y5341649D01*
X6649999Y6454521D02*
Y6577498D01*
X6672499Y6600002D01*
X6649999Y6454521D02*
X6714520D01*
X5679999Y5477500D02*
Y5630001D01*
X7324999Y5284998D02*
Y5304998D01*
X7680000Y5359999D02*
X7680833Y5359166D01*
X7883337D02*
X7950002Y5292501D01*
X7680833Y5359166D02*
X7883337D01*
X7380000Y5359999D02*
X7680000D01*
X7324999Y5304998D02*
X7380000Y5359999D01*
D47*
X7544999Y6912498D02*
X7667498D01*
X7452502Y7005000D02*
X7544999Y6912498D01*
X7698369Y6846631D02*
X7700000Y6845000D01*
X7667498Y6912498D02*
X7698369Y6881632D01*
Y6846631D02*
Y6881632D01*
X7449998Y7005000D02*
X7452502D01*
D48*
X6600002Y5644998D02*
Y5675000D01*
Y5644998D02*
X6980001Y5264998D01*
Y5129291D02*
Y5264998D01*
Y5129291D02*
X7209287Y4900000D01*
X7440712D02*
X7445710Y4904999D01*
X7209287Y4900000D02*
X7440712D01*
X7445710Y4904999D02*
X7540000D01*
Y5275001D02*
X7839801D01*
X7442500Y4807499D02*
X7540000Y4904999D01*
X6780002Y4807499D02*
X7442500D01*
D49*
X6580000Y2700000D02*
D03*
X5850000D02*
D03*
D50*
X6055000Y3205000D02*
D03*
X6215000D02*
D03*
X6135000Y3085000D02*
D03*
X6295000D02*
D03*
X6375000Y3205000D02*
D03*
D51*
X7650002Y7899999D02*
D03*
X7850002D02*
D03*
X8050002D02*
D03*
X8250001D02*
D03*
X3050002D02*
D03*
X3250001D02*
D03*
X3450001D02*
D03*
X3650000D02*
D03*
X7225000Y3175000D02*
D03*
X7424999D02*
D03*
X7025000D02*
D03*
D52*
X7449998Y7899999D02*
D03*
X2850002D02*
D03*
X7624999Y3175000D02*
D03*
D53*
X4225000Y2850002D02*
D03*
Y4800000D02*
D03*
D54*
X3474999Y3850000D02*
D03*
X6250000Y7200001D02*
D03*
X4349999D02*
D03*
D55*
X3774999Y2850002D02*
D03*
X2675001D02*
D03*
X5950001Y8199999D02*
D03*
X7049999D02*
D03*
X4050000D02*
D03*
X5150002D02*
D03*
D56*
X2975000Y3850000D02*
D03*
X6749999Y7200001D02*
D03*
X4849998D02*
D03*
D57*
X5920000Y3685000D02*
D03*
X4732700Y2672700D02*
D03*
X5330000Y8220000D02*
D03*
X2610000Y6660000D02*
D03*
X3500000Y3000000D02*
D03*
X3350000D02*
D03*
X3200000D02*
D03*
X3050000D02*
D03*
X2900000D02*
D03*
X3500000Y2850000D02*
D03*
X3350000D02*
D03*
X3200000D02*
D03*
X3050000D02*
D03*
X2900000D02*
D03*
X6098875Y6231125D02*
D03*
X7800000Y6950000D02*
D03*
X7850000D02*
D03*
X7200001Y7500000D02*
D03*
X8150941Y4225000D02*
D03*
X6490000Y4449999D02*
D03*
X6287737Y3326003D02*
D03*
X6126323Y3352000D02*
D03*
X6347257Y2879695D02*
D03*
X4960000Y4909998D02*
D03*
X4829998Y4920000D02*
D03*
X4509999Y6651099D02*
D03*
X3960002Y6800002D02*
D03*
X3404217Y7186477D02*
D03*
X3599998Y6969999D02*
D03*
X3379998Y7020001D02*
D03*
X3170001Y6716025D02*
D03*
X3137786Y6582025D02*
D03*
X3150000Y6850000D02*
D03*
X8060304Y5580858D02*
D03*
X8161655Y5815254D02*
D03*
X8145912Y5761512D02*
D03*
X8139238Y5889238D02*
D03*
X8149958Y6680088D02*
D03*
X8174645Y6629645D02*
D03*
X8152304Y6577700D02*
D03*
X8184416Y6530000D02*
D03*
Y6474000D02*
D03*
X6721511Y7705103D02*
D03*
X6200000Y7600000D02*
D03*
X5200000Y7000000D02*
D03*
Y5700000D02*
D03*
X5350000Y5400000D02*
D03*
X4300000Y3900000D02*
D03*
X4450000D02*
D03*
X4390173Y3775400D02*
D03*
X4150000Y3750000D02*
D03*
X5815706Y4444999D02*
D03*
X5730001Y4395003D02*
D03*
X7110000Y4660000D02*
D03*
X6666796Y4682499D02*
D03*
X5655000Y4760438D02*
D03*
X5755000D02*
D03*
X5771998Y4486997D02*
D03*
X6015000Y4482500D02*
D03*
X6317500Y4402500D02*
D03*
X6266251Y4363750D02*
D03*
X6189790Y4440498D02*
D03*
X6129850Y4452997D02*
D03*
X6100500Y4405305D02*
D03*
X5847939Y3699998D02*
D03*
X5499999Y3599998D02*
D03*
X5407500Y3747500D02*
D03*
X3687072Y5447502D02*
D03*
X3825001Y5644998D02*
D03*
X4018620Y5688620D02*
D03*
X4142501Y5499999D02*
D03*
X4147147Y5275354D02*
D03*
X4030701Y4459300D02*
D03*
X3880002Y4410998D02*
D03*
Y4354998D02*
D03*
Y4298998D02*
D03*
X3183489Y4337699D02*
D03*
X3162786Y4255869D02*
D03*
X3187500Y4057500D02*
D03*
X3167607Y4155590D02*
D03*
X3531814Y4058666D02*
D03*
X3474999Y4024499D02*
D03*
X3323559Y4066140D02*
D03*
X3645000Y3987500D02*
D03*
X3774999Y4000002D02*
D03*
X4030000Y4109999D02*
D03*
X4162500Y3900000D02*
D03*
X4645701Y3900000D02*
D03*
X4601654Y3831455D02*
D03*
X4692515Y3652339D02*
D03*
X4550016Y3649839D02*
D03*
X4200015D02*
D03*
Y3427339D02*
D03*
X4550016D02*
D03*
X4377119Y3427124D02*
D03*
X4374998Y3650000D02*
D03*
X5259248Y4159245D02*
D03*
X5504998Y4145001D02*
D03*
X5810001Y4135623D02*
D03*
X5860000Y4103802D02*
D03*
X5730001Y3843872D02*
D03*
X5727151Y3899799D02*
D03*
X6649647Y4049647D02*
D03*
X6580002Y4050000D02*
D03*
Y3970000D02*
D03*
X6678402Y3654999D02*
D03*
X6510000Y3606711D02*
D03*
X6414511Y3915491D02*
D03*
X6420002Y3840002D02*
D03*
X5972161Y4051457D02*
D03*
X6400002Y3780003D02*
D03*
X6196360Y3786363D02*
D03*
X6110000Y3700000D02*
D03*
X6099998Y3618000D02*
D03*
X6530000Y3389504D02*
D03*
X6236803Y3355616D02*
D03*
X5694002Y3362938D02*
D03*
X5757500Y3368454D02*
D03*
X5841574Y3339897D02*
D03*
X5943000Y3310349D02*
D03*
X6580002Y3609498D02*
D03*
X6738891Y3525095D02*
D03*
X6881881Y3631880D02*
D03*
X6949999Y3783001D02*
D03*
X7395429Y4065325D02*
D03*
X7180001Y3917001D02*
D03*
X7120208D02*
D03*
X7182561Y4062002D02*
D03*
X7090877Y4070115D02*
D03*
X6910000Y4096115D02*
D03*
X6905732Y3962116D02*
D03*
X6881298Y4145827D02*
D03*
X6939512Y4280488D02*
D03*
X7080001Y4381001D02*
D03*
X8150000Y4370000D02*
D03*
X8020000Y4655002D02*
D03*
X7860000Y4850000D02*
D03*
X7919999Y4849998D02*
D03*
X7979999D02*
D03*
Y4909998D02*
D03*
X7920000Y4910000D02*
D03*
X7860000Y4975000D02*
D03*
X7920000Y4970000D02*
D03*
X7860000Y4909998D02*
D03*
X7980000Y4970000D02*
D03*
X7753566Y5433001D02*
D03*
X7791182Y5479502D02*
D03*
X7844862Y5522124D02*
D03*
X7250843Y5715345D02*
D03*
X7371918Y5713535D02*
D03*
X7032500Y5660000D02*
D03*
X7200000Y6180000D02*
D03*
X7372498Y5885502D02*
D03*
X7476206Y5665087D02*
D03*
X7502328Y5746055D02*
D03*
X7494498Y5811322D02*
D03*
X7536099Y5930498D02*
D03*
X7480502Y5916158D02*
D03*
X7903052Y6185550D02*
D03*
X7999999Y6279998D02*
D03*
X7892000Y6288002D02*
D03*
X7831444Y6297113D02*
D03*
X7767504Y6288002D02*
D03*
X7700502Y6279998D02*
D03*
X7434499Y6271941D02*
D03*
X7446014Y6541270D02*
D03*
X7488715Y6577500D02*
D03*
X7501000Y6477500D02*
D03*
X7504844Y6683136D02*
D03*
X7381893Y6545362D02*
D03*
X6379500Y6740500D02*
D03*
X6424452Y6444452D02*
D03*
X6714520Y6454521D02*
D03*
X6490000Y6462500D02*
D03*
X6578584Y6193925D02*
D03*
X6522829Y6188692D02*
D03*
X5665998Y5915294D02*
D03*
X5649499Y5340502D02*
D03*
X4778469Y5703534D02*
D03*
X4730501Y5825002D02*
D03*
X4851946Y6933055D02*
D03*
X5324943Y7700499D02*
D03*
X2823748Y7553752D02*
D03*
X2610002Y6829999D02*
D03*
X2638999Y6960058D02*
D03*
Y7082500D02*
D03*
X2618196Y7210999D02*
D03*
X3547500Y7227500D02*
D03*
X3764047Y6318535D02*
D03*
X3920000Y6625000D02*
D03*
X4223639Y6213638D02*
D03*
X3968323Y6038322D02*
D03*
X3984097Y6280196D02*
D03*
X3782998Y6050001D02*
D03*
X3773221Y5985146D02*
D03*
X3762888Y5786613D02*
D03*
X3370355Y5709647D02*
D03*
X3397500Y5400000D02*
D03*
X3870884Y5289118D02*
D03*
X3819078Y5310382D02*
D03*
X3900604Y5190106D02*
D03*
X3815568Y4856668D02*
D03*
X3700115Y4766875D02*
D03*
X3682480Y4684881D02*
D03*
X3525002Y4708000D02*
D03*
X3581002D02*
D03*
X3478985Y4671883D02*
D03*
X3501040Y4760441D02*
D03*
X3558764Y4763844D02*
D03*
X3153020Y4805520D02*
D03*
Y4911132D02*
D03*
X3158092Y4980241D02*
D03*
X3151178Y5035812D02*
D03*
X3136024Y5089723D02*
D03*
X3110000Y5145000D02*
D03*
X7879999Y5210002D02*
D03*
X4929998Y2879999D02*
D03*
X5550002Y7389998D02*
D03*
D58*
X3415000Y5185000D02*
D03*
X3525000D02*
D03*
X3635000D02*
D03*
X3415000Y5075000D02*
D03*
X3525000D02*
D03*
X3635000D02*
D03*
X3415000Y4965000D02*
D03*
X3525000D02*
D03*
X3635000D02*
D03*
X3660000Y4255000D02*
D03*
X3550000D02*
D03*
X3440000D02*
D03*
X3660000Y4365000D02*
D03*
X3550000D02*
D03*
X3440000D02*
D03*
X3660000Y4475000D02*
D03*
X3550000D02*
D03*
X3440000D02*
D03*
X7715000Y6715000D02*
D03*
X7825000D02*
D03*
X7935000D02*
D03*
X7715000Y6605000D02*
D03*
X7825000D02*
D03*
X7935000D02*
D03*
X7715000Y6495000D02*
D03*
X7825000D02*
D03*
X7935000D02*
D03*
X7935000Y5695000D02*
D03*
X7825000D02*
D03*
X7715000D02*
D03*
X7935000Y5805000D02*
D03*
X7825000D02*
D03*
X7715000D02*
D03*
X7935000Y5915000D02*
D03*
X7825000D02*
D03*
X7715000D02*
D03*
D59*
X2850002Y4949998D02*
D03*
X8199999Y2850002D02*
D03*
X7975001Y7275002D02*
D03*
%TF.MD5,0b9f1816d48e26573f0a3df7d7392b62*%
M02*
