%TF.GenerationSoftware,Altium Limited,Altium Designer,24.7.2 (38)*%
G04 Layer_Physical_Order=3*
G04 Layer_Color=16440176*
%FSLAX45Y45*%
%MOMM*%
%TF.SameCoordinates,0E07C861-06C4-4886-B41C-83883A41DA48*%
%TF.FilePolarity,Positive*%
%TF.FileFunction,Copper,L3,Inr,Signal*%
%TF.Part,Single*%
G01*
G75*
%TA.AperFunction,Conductor*%
%ADD39C,0.16000*%
%TA.AperFunction,ComponentPad*%
%ADD42C,1.40000*%
G04:AMPARAMS|DCode=43|XSize=1.4mm|YSize=1.4mm|CornerRadius=0.35mm|HoleSize=0mm|Usage=FLASHONLY|Rotation=0.000|XOffset=0mm|YOffset=0mm|HoleType=Round|Shape=RoundedRectangle|*
%AMROUNDEDRECTD43*
21,1,1.40000,0.70000,0,0,0.0*
21,1,0.70000,1.40000,0,0,0.0*
1,1,0.70000,0.35000,-0.35000*
1,1,0.70000,-0.35000,-0.35000*
1,1,0.70000,-0.35000,0.35000*
1,1,0.70000,0.35000,0.35000*
%
%ADD43ROUNDEDRECTD43*%
%ADD44R,6.00000X6.00000*%
G04:AMPARAMS|DCode=45|XSize=2.6mm|YSize=2.6mm|CornerRadius=0.65mm|HoleSize=0mm|Usage=FLASHONLY|Rotation=180.000|XOffset=0mm|YOffset=0mm|HoleType=Round|Shape=RoundedRectangle|*
%AMROUNDEDRECTD45*
21,1,2.60000,1.30000,0,0,180.0*
21,1,1.30000,2.60000,0,0,180.0*
1,1,1.30000,-0.65000,0.65000*
1,1,1.30000,0.65000,0.65000*
1,1,1.30000,0.65000,-0.65000*
1,1,1.30000,-0.65000,-0.65000*
%
%ADD45ROUNDEDRECTD45*%
%ADD46C,1.60000*%
%ADD47C,2.60000*%
%TA.AperFunction,ViaPad*%
%ADD48C,0.35000*%
%ADD49C,0.45000*%
%ADD50C,5.45000*%
D39*
X7700000Y6168697D02*
Y6278452D01*
X7882196Y6287500D02*
X8048847Y6120849D01*
X7756943Y6287500D02*
X7764790D01*
X7742902Y6299373D02*
X7745070D01*
X7756943Y6287500D01*
X3140000Y6763188D02*
Y6830000D01*
X3812600Y6040000D02*
Y6087031D01*
X3903000Y6040000D02*
Y6124153D01*
X3820000Y6094431D02*
Y6133614D01*
X3812600Y6087031D02*
X3820000Y6094431D01*
X3683550Y3900000D02*
Y3906450D01*
X3639225Y3950775D02*
X3683550Y3906450D01*
X3594000Y4016000D02*
X3639225Y3970774D01*
Y3950775D02*
Y3970774D01*
X3553225Y4016000D02*
X3594000D01*
X5959500Y4586775D02*
X6522725Y5150000D01*
X4034601Y6253983D02*
X5890743Y4397841D01*
X4319637Y6026223D02*
Y6220363D01*
X5959500Y4397170D02*
Y4586775D01*
X5933196Y4374046D02*
X5939120Y4368122D01*
X5933196Y4374046D02*
Y4412664D01*
X4319637Y6026223D02*
X5933196Y4412664D01*
X5959500Y4397170D02*
X6155433Y4201237D01*
X6625000Y3600000D02*
X6850000D01*
X6151405Y4398742D02*
X6155549Y4402886D01*
Y4437824D01*
X3903984Y6253983D02*
X4034601D01*
X3265098Y5605098D02*
X3370000Y5710000D01*
X3265098Y4854402D02*
Y5605098D01*
X3160196Y4749500D02*
X3265098Y4854402D01*
X3125293Y4749500D02*
X3160196D01*
X3102921Y4771873D02*
X3125293Y4749500D01*
X3102921Y4771873D02*
Y4806776D01*
X3397000Y4689500D02*
X3458000Y4750500D01*
X3440000Y5220811D02*
X3458000Y5202811D01*
X3440000Y5220811D02*
Y6290500D01*
X3458000Y4750500D02*
Y5202811D01*
X3200500Y4847079D02*
Y4996775D01*
X3143421Y4790000D02*
X3200500Y4847079D01*
X3102921Y4806776D02*
X3153521Y4857375D01*
Y4920000D01*
X3157275Y5040000D02*
X3200500Y4996775D01*
X3520900Y4663562D02*
X3521000Y4663462D01*
X3397000Y4237189D02*
Y4689500D01*
X3440000Y4172000D02*
Y4194189D01*
X3328000Y4060000D02*
X3440000Y4172000D01*
X3507000Y4237189D02*
X3525000Y4219189D01*
X3507000Y4492811D02*
X3521000Y4506811D01*
Y4663462D01*
X3520900Y4663562D02*
Y4730478D01*
X3397000Y4237189D02*
X3440000Y4194189D01*
X3163000Y6567500D02*
X3440000Y6290500D01*
X3525000Y4044224D02*
Y4219189D01*
Y4044224D02*
X3553225Y4016000D01*
X6565000Y6192275D02*
X6731276Y6026000D01*
X6565000Y6192275D02*
X6565000D01*
X6511938Y6177801D02*
X6689739Y6000000D01*
X8029186D01*
X7750000Y4350000D02*
Y5455000D01*
X3504265Y4747114D02*
X3520900Y4730478D01*
X3561400Y4707500D02*
X3630551D01*
X3507000Y4237189D02*
Y4492811D01*
X3504265Y4747114D02*
Y4754961D01*
X4213720Y5498962D02*
Y5527545D01*
X4146181Y5566500D02*
X4174764D01*
X4213720Y5527545D01*
X4022681Y5690000D02*
X4146181Y5566500D01*
X4135412Y5540500D02*
X4163995D01*
X4187720Y5516775D01*
X4213720Y5498962D02*
X4587000Y5125681D01*
X4187720Y5488192D02*
Y5516775D01*
X4030912Y5645000D02*
X4135412Y5540500D01*
X4187720Y5488192D02*
X4561000Y5114912D01*
X2610000Y6830000D02*
X2832000Y6608000D01*
X2609500Y6830000D02*
X2610000D01*
X2577999Y7170802D02*
X2615196Y7208000D01*
X2577999Y7106774D02*
Y7170802D01*
Y7055226D02*
Y7106774D01*
Y6975774D02*
Y7055226D01*
X2592725Y6909500D02*
X2856955D01*
X2577999Y6924226D02*
Y6975774D01*
Y6924226D02*
X2592725Y6909500D01*
X3150000Y5040000D02*
X3157275D01*
X5939120Y4182500D02*
Y4368122D01*
X6380000Y3140000D02*
Y4007275D01*
X6155433Y4201237D02*
X6186039D01*
X6380000Y4007275D01*
X3920000Y6620000D02*
X4319637Y6220363D01*
X6110424Y4435424D02*
X6171000Y4496000D01*
X6055549Y4431726D02*
Y4437824D01*
X6139724Y4522000D01*
X3150692Y6950000D02*
X4783300Y5317392D01*
X3160000Y6700500D02*
X3160500Y6700000D01*
X3363922D02*
X4757300Y5306622D01*
X2618499Y6950000D02*
X3150692D01*
X3160500Y6700000D02*
X3363922D01*
X5665500Y5915500D02*
X6100000Y6350000D01*
X5057276Y3600000D02*
X5550000D01*
X4950000Y2670000D02*
X5910000D01*
X6380000Y3140000D01*
X3119500Y6683725D02*
Y6742688D01*
X3140000Y6763188D01*
X2832000Y6608000D02*
X3198314D01*
X2856955Y6909500D02*
X3132455Y6634000D01*
X3825000Y5645000D02*
X3862500Y5682500D01*
Y6127884D01*
X3350884Y6639500D02*
X3862500Y6127884D01*
X3361653Y6665500D02*
X3903000Y6124153D01*
X3451577Y6502038D02*
X3820000Y6133614D01*
X4783300Y4763470D02*
Y5317392D01*
X3176775Y6660000D02*
X3182276Y6665500D01*
X3119500Y6683725D02*
X3143225Y6660000D01*
X3340114Y6613500D02*
X3451577Y6502038D01*
X3198314Y6608000D02*
X3203814Y6613500D01*
X3143225Y6660000D02*
X3176775D01*
X3132455Y6634000D02*
X3187545D01*
X3203814Y6613500D02*
X3340114D01*
X3182276Y6665500D02*
X3361653D01*
X3187545Y6634000D02*
X3193045Y6639500D01*
X3451577Y6502038D02*
Y6502038D01*
X3193045Y6639500D02*
X3350884D01*
X6100000Y3325000D02*
Y3446770D01*
X4757300Y4752700D02*
X6048163Y3461837D01*
Y3351557D02*
Y3461837D01*
X4757300Y4752700D02*
Y5306622D01*
X4783300Y4763470D02*
X6100000Y3446770D01*
X6600000Y3950000D02*
X6751461D01*
X6522725Y5150000D02*
X6700000D01*
X4020000Y5690000D02*
X4022681D01*
X3825000Y5645000D02*
X4030912D01*
X3883824Y4486176D02*
X3885416D01*
X3909141Y4460860D02*
Y4462452D01*
X3885416Y4486176D02*
X3909141Y4462452D01*
X3870000Y4500000D02*
X3883824Y4486176D01*
X3870000Y4500000D02*
Y4620000D01*
X3909141Y4460860D02*
X4315182Y4054819D01*
X4602457D01*
X3771001Y4718999D02*
X3870000Y4620000D01*
X3630551Y4707500D02*
X3642050Y4718999D01*
X3771001D01*
X4602457Y4054819D02*
X5057276Y3600000D01*
X4587000Y4623000D02*
X5510000Y3700000D01*
X4587000Y4623000D02*
Y5125681D01*
X5510000Y3700000D02*
X5550000D01*
X4561000Y4610140D02*
Y5114912D01*
Y4610140D02*
X5521140Y3650000D01*
X5525000D01*
X7120000Y3925347D02*
X7152653Y3958000D01*
X7034500Y3784500D02*
X7130000D01*
X7120000Y3917500D02*
Y3925347D01*
X8145548Y5883637D02*
Y5883638D01*
X8029186Y6000000D02*
X8145548Y5883638D01*
X7493999Y5629027D02*
X7501975Y5637003D01*
X7460448Y5629027D02*
X7493999D01*
X7362058Y5637003D02*
X7452472D01*
X7460448Y5629027D01*
X7300000Y4075000D02*
X7400000D01*
X7100000D02*
X7150000Y4025000D01*
X7200000D01*
X7501975Y5637003D02*
X7691732D01*
X7694228Y5639500D01*
X7339561Y5659500D02*
X7362058Y5637003D01*
X7354269Y3917500D02*
X7776000Y4339230D01*
X7350000Y3950000D02*
X7750000Y4350000D01*
X7776000Y4339230D02*
Y5346000D01*
X7174155Y4100845D02*
Y4125845D01*
X6830000Y4470000D02*
X7174155Y4125845D01*
Y4100845D02*
X7175000Y4100000D01*
X7800000Y5480000D02*
X8070000D01*
X7204776Y3950000D02*
X7350000D01*
X7776000Y5346000D02*
X7840000Y5410000D01*
X7650000Y4475000D02*
X7700000Y4525000D01*
X6850000Y3600000D02*
X7034500Y3784500D01*
X7152653Y3958000D02*
X7196776D01*
X7204776Y3950000D01*
X6642960Y4132041D02*
X6898000Y3877000D01*
X8089231Y3851000D02*
X8474000Y4235769D01*
X6638231Y4100000D02*
X6887231Y3851000D01*
X8100000Y3825000D02*
X8500000Y4225000D01*
X6876461Y3825000D02*
X8100000D01*
X8078461Y3877000D02*
X8448000Y4246539D01*
X6887231Y3851000D02*
X8089231D01*
X7180000Y3917500D02*
X7354269D01*
X6898000Y3877000D02*
X8078461D01*
X6751461Y3950000D02*
X6876461Y3825000D01*
X7840000Y5410000D02*
X8076769D01*
X8048847Y6120849D02*
X8075920D01*
X8276000Y5920769D01*
Y5609231D02*
Y5920769D01*
X8076769Y5410000D02*
X8276000Y5609231D01*
X8069500Y5439500D02*
X8250000Y5620000D01*
X7773347Y5439500D02*
X8069500D01*
X6393725Y4299000D02*
X6592725Y4100000D01*
X6638231D01*
X6404494Y4325000D02*
X6597453Y4132041D01*
X6642960D01*
X6349422Y4325000D02*
X6404494D01*
X6305549Y4368873D02*
X6349422Y4325000D01*
X6250881Y4367120D02*
X6319002Y4299000D01*
X6393725D01*
X6305549Y4368873D02*
Y4419451D01*
X6250881Y4367120D02*
Y4399119D01*
X6250000Y4400000D02*
X6250881Y4399119D01*
X6187724Y4470000D02*
X6830000D01*
X6155549Y4437824D02*
X6187724Y4470000D01*
X6139724Y4522000D02*
X6853000D01*
X6171000Y4496000D02*
X6840769D01*
X6853000Y4522000D02*
X7300000Y4075000D01*
X6840769Y4496000D02*
X7225000Y4111769D01*
X6300000Y4425000D02*
X6305549Y4419451D01*
X8448000Y4246539D02*
Y7428461D01*
X8176461Y7700000D02*
X8448000Y7428461D01*
X7850000Y7700000D02*
X8176461D01*
X8187231Y7726000D02*
X8474000Y7439230D01*
X7650000Y7900000D02*
X7850000Y7700000D01*
X8024000Y7726000D02*
X8187231D01*
X7850000Y7900000D02*
X8024000Y7726000D01*
X7200000Y4025000D02*
X7225000Y4050000D01*
Y4111769D01*
X7700000Y4525000D02*
Y5462276D01*
X8474000Y4235769D02*
Y7439230D01*
X8500000Y4225000D02*
Y7450000D01*
X8050000Y7900000D02*
X8500000Y7450000D01*
X8260000Y6440000D02*
Y6602275D01*
X8187824Y6674451D02*
X8260000Y6602275D01*
X8186862Y5839125D02*
Y5899599D01*
X6731276Y6026000D02*
X8060462D01*
X8186862Y5899599D01*
X7694228Y5639500D02*
X8023902D01*
X7642455Y6321500D02*
X7667955Y6347000D01*
X7659500Y6301776D02*
X7678724Y6321000D01*
X8134192Y6373000D02*
X8219416Y6458225D01*
X7678724Y6321000D02*
X7721275D01*
X8167000Y6347000D02*
X8260000Y6440000D01*
X7646416Y6399000D02*
X8102916D01*
X8071641Y6425000D02*
X8176640Y6530000D01*
X7631416Y6384000D02*
X7646416Y6399000D01*
X7635686Y6351500D02*
X7657186Y6373000D01*
X7721275Y6321000D02*
X7742902Y6299373D01*
X8102916Y6399000D02*
X8178916Y6475000D01*
X7635647Y6425000D02*
X8071641D01*
X7620647Y6410000D02*
X7635647Y6425000D01*
X7657186Y6373000D02*
X8134192D01*
X7667955Y6347000D02*
X8167000D01*
X8176640Y6530000D02*
X8178916D01*
X7111500Y6351500D02*
X7635686D01*
X6903231Y6384000D02*
X7631416D01*
X8155549Y6574451D02*
X8191740D01*
X6914000Y6410000D02*
X7620647D01*
X8219416Y6458225D02*
Y6546775D01*
X8191740Y6574451D02*
X8219416Y6546775D01*
X6191500Y6321500D02*
X7642455D01*
X7110000Y6350000D02*
X7111500Y6351500D01*
X6100000Y6350000D02*
X7110000D01*
X6506731Y6780500D02*
X6903231Y6384000D01*
X7700000Y5462276D02*
X7733224Y5495500D01*
X7776652D01*
X7750000Y5455000D02*
X7757847D01*
X7773347Y5439500D01*
X6410000Y6390500D02*
Y6704239D01*
X6100000Y6230000D02*
X6191500Y6321500D01*
X6268628Y7055373D02*
Y7181373D01*
Y7055373D02*
X6914000Y6410000D01*
X6159500Y6780500D02*
X6506731D01*
X5550000Y7390000D02*
X6159500Y6780500D01*
X6250000Y7200000D02*
X6268628Y7181373D01*
X8250000Y5620000D02*
Y5910000D01*
X8220000Y5630000D02*
Y5903231D01*
X8070000Y5480000D02*
X8220000Y5630000D01*
X8065151Y6094849D02*
X8250000Y5910000D01*
X8054382Y6068849D02*
X8220000Y5903231D01*
X8169500Y5821763D02*
X8186862Y5839125D01*
X8169500Y5815253D02*
Y5821763D01*
X7773847Y6094849D02*
X8065151D01*
X7763078Y6068849D02*
X8054382D01*
X6380000Y6734240D02*
X6410000Y6704239D01*
X6380000Y6734240D02*
Y6740000D01*
X8023902Y5639500D02*
X8148728Y5764326D01*
X7029500Y5659500D02*
X7339561D01*
X7659500Y6172427D02*
X7763078Y6068849D01*
X7659500Y6172427D02*
Y6301776D01*
X7700000Y6168697D02*
X7773847Y6094849D01*
X8155549Y6674451D02*
X8187824D01*
X8150000Y6680000D02*
X8155549Y6674451D01*
X8150000Y6580000D02*
X8155549Y6574451D01*
X7776652Y5495500D02*
X7792153Y5480000D01*
X3675000Y5450000D02*
Y5457847D01*
D42*
X7650000Y7900000D02*
D03*
X7850000D02*
D03*
X8050000D02*
D03*
X8250000D02*
D03*
X3050000D02*
D03*
X3250000D02*
D03*
X3450000D02*
D03*
X3650000D02*
D03*
X7225000Y3175000D02*
D03*
X7425000D02*
D03*
X7025000D02*
D03*
D43*
X7450000Y7900000D02*
D03*
X2850000D02*
D03*
X7625000Y3175000D02*
D03*
D44*
X4225000Y2850000D02*
D03*
Y4800000D02*
D03*
D45*
X3475000Y3850000D02*
D03*
X6250000Y7200000D02*
D03*
X4350000D02*
D03*
D46*
X3775000Y2850000D02*
D03*
X2675000D02*
D03*
X5950000Y8200000D02*
D03*
X7050000D02*
D03*
X4050000D02*
D03*
X5150000D02*
D03*
D47*
X2975000Y3850000D02*
D03*
X6750000Y7200000D02*
D03*
X4850000D02*
D03*
D48*
X3575000Y2850000D02*
D03*
X3400000D02*
D03*
X3225000D02*
D03*
X3050000D02*
D03*
X2875000D02*
D03*
X4200000Y3425000D02*
D03*
X4550000D02*
D03*
X4375000D02*
D03*
Y3900000D02*
D03*
Y3650000D02*
D03*
X4200000D02*
D03*
X4675000D02*
D03*
X4550000D02*
D03*
X4675000Y3900000D02*
D03*
X4550000D02*
D03*
X4160000Y3910000D02*
D03*
X7893650Y6185552D02*
D03*
X6650000Y6220000D02*
D03*
X7800000Y6940000D02*
D03*
X7850000D02*
D03*
X8000000Y6280000D02*
D03*
X4826000Y4920000D02*
D03*
X7400000Y4075000D02*
D03*
X7100000D02*
D03*
X7175000Y4100000D02*
D03*
X6980731Y4625838D02*
D03*
X7050838D02*
D03*
X6830731D02*
D03*
X6900838D02*
D03*
X6761675Y4637500D02*
D03*
X6691568D02*
D03*
X7100000Y5075000D02*
D03*
X7000000D02*
D03*
X7100000Y5150000D02*
D03*
X7000000D02*
D03*
X6800000Y5075000D02*
D03*
Y5150000D02*
D03*
X6700000D02*
D03*
D49*
X5307696Y3959579D02*
D03*
X6388570Y4695750D02*
D03*
X7700000Y6278452D02*
D03*
X7882196Y6287500D02*
D03*
X7764790D02*
D03*
X7825000Y6292500D02*
D03*
X7205000Y6155000D02*
D03*
X7480112Y5915659D02*
D03*
X7715000Y5915000D02*
D03*
X7825000D02*
D03*
X7935000D02*
D03*
X7715000Y5805000D02*
D03*
X7825000D02*
D03*
X7935000D02*
D03*
X7715000Y5695000D02*
D03*
X7825000D02*
D03*
X7935000D02*
D03*
X7247500Y5720000D02*
D03*
X7373000Y5885000D02*
D03*
X7536097Y5930000D02*
D03*
X3140000Y6830000D02*
D03*
X3737013Y5908126D02*
D03*
X3812600Y6040000D02*
D03*
X3903000D02*
D03*
X5652500Y5365014D02*
D03*
X3775000Y4000000D02*
D03*
X3683550Y3900000D02*
D03*
X3195000Y4065896D02*
D03*
X3168314Y4155589D02*
D03*
X3570000Y4056500D02*
D03*
X3475000Y4025000D02*
D03*
X4030700Y4459300D02*
D03*
X3880000Y4410000D02*
D03*
Y4355000D02*
D03*
Y4300000D02*
D03*
X5890743Y4397841D02*
D03*
X6001973Y4411973D02*
D03*
X6741545Y3528455D02*
D03*
X6625000Y3600000D02*
D03*
X6200000Y4425000D02*
D03*
X6151405Y4398742D02*
D03*
X7990000Y4810000D02*
D03*
X3635000Y4965000D02*
D03*
X3525000D02*
D03*
X3415000D02*
D03*
X3635000Y5075000D02*
D03*
X3525000D02*
D03*
X3415000D02*
D03*
X3635000Y5185000D02*
D03*
X3525000D02*
D03*
X3415000D02*
D03*
X3600000Y6970000D02*
D03*
X3547978Y7227978D02*
D03*
X2820000Y7550000D02*
D03*
X3903984Y6253983D02*
D03*
X3370000Y5710000D02*
D03*
X3399500Y5625000D02*
D03*
X3480500Y4646687D02*
D03*
X3480400Y4702699D02*
D03*
X3399500Y5381820D02*
D03*
Y5500000D02*
D03*
X5951791Y3688500D02*
D03*
X6338638Y3708638D02*
D03*
X6290393Y3751134D02*
D03*
X6281949Y3607500D02*
D03*
X3504265Y4754961D02*
D03*
X6330000Y4000000D02*
D03*
X6565000Y6192275D02*
D03*
X6511938Y6177801D02*
D03*
X7370000Y5710000D02*
D03*
X7750000Y5455000D02*
D03*
X5925000Y3781000D02*
D03*
X5560000Y4210000D02*
D03*
X3561400Y4707500D02*
D03*
X3559264Y4762458D02*
D03*
X3812135Y4856667D02*
D03*
X4147220Y5500000D02*
D03*
X5347500Y8267500D02*
D03*
X3764548Y6399017D02*
D03*
X7200000Y7500000D02*
D03*
X3164000Y6006000D02*
D03*
X2618499Y6700000D02*
D03*
X2609500Y6830000D02*
D03*
X7507023Y6487023D02*
D03*
X7435862Y6530413D02*
D03*
X7435000Y6279500D02*
D03*
X2615196Y7208000D02*
D03*
X7320000Y6570000D02*
D03*
X2618499Y7081000D02*
D03*
Y6950000D02*
D03*
X7503638Y6683638D02*
D03*
X7501326Y6578908D02*
D03*
X3161000Y5879000D02*
D03*
X3162500Y5752000D02*
D03*
X2760000Y5560500D02*
D03*
X3150000Y5040000D02*
D03*
X5939120Y4182500D02*
D03*
X4756500Y5688267D02*
D03*
X6055549Y4431726D02*
D03*
X6110424Y4435424D02*
D03*
X3960000Y6800000D02*
D03*
X5665500Y5915500D02*
D03*
X4852300Y6932700D02*
D03*
X5550000Y3600000D02*
D03*
X4025000Y4159500D02*
D03*
X3700000Y4759499D02*
D03*
X5533862Y3883862D02*
D03*
X4510000Y6650000D02*
D03*
X3920000Y6620000D02*
D03*
X5812500Y4150000D02*
D03*
X6290000Y3850000D02*
D03*
X6250000Y3350000D02*
D03*
X6200000Y3325000D02*
D03*
X4950000Y2670000D02*
D03*
X3163000Y6567500D02*
D03*
X3160000Y6700500D02*
D03*
X5832022Y3772022D02*
D03*
X6330000Y3800000D02*
D03*
Y3900000D02*
D03*
X6600000Y4050000D02*
D03*
Y3950000D02*
D03*
X6050000Y4620000D02*
D03*
X4220000Y6210000D02*
D03*
X4147500Y5275000D02*
D03*
X4020000Y5690000D02*
D03*
X3825000Y5645000D02*
D03*
X3740000Y5810000D02*
D03*
X3900000Y5190000D02*
D03*
X3870882Y5289118D02*
D03*
X3820000Y5310000D02*
D03*
X4730500Y5825000D02*
D03*
X3162612Y4255336D02*
D03*
X3328000Y4060000D02*
D03*
X5790000Y3290000D02*
D03*
X6100000Y3325000D02*
D03*
X3182958Y4337130D02*
D03*
X5525000Y3650000D02*
D03*
X3372000Y7208000D02*
D03*
X6000000Y3325000D02*
D03*
X5947479Y3352762D02*
D03*
X5900000Y3325000D02*
D03*
X7120000Y3917500D02*
D03*
X7130000Y3784500D02*
D03*
X8063000Y5582272D02*
D03*
X6430000Y3212070D02*
D03*
X8145955Y5883231D02*
D03*
X7504050Y5757249D02*
D03*
X7494000Y5811323D02*
D03*
X7477223Y5669527D02*
D03*
X7856014Y5520500D02*
D03*
X7828208Y4362813D02*
D03*
X7850000Y4225000D02*
D03*
X7650000Y4475000D02*
D03*
X7180000Y3917500D02*
D03*
X6350000Y4400000D02*
D03*
X6250000D02*
D03*
X6300000Y4425000D02*
D03*
X8178916Y6475000D02*
D03*
X6410000Y6390500D02*
D03*
X6497500D02*
D03*
X6380000Y6740000D02*
D03*
X8148728Y5764326D02*
D03*
X6100000Y6230000D02*
D03*
X8169500Y5815253D02*
D03*
X8150000Y6580000D02*
D03*
X8178916Y6530000D02*
D03*
X7029500Y5659500D02*
D03*
X7800000Y5480000D02*
D03*
X3143421Y4790000D02*
D03*
X3153521Y4920000D02*
D03*
X5850000Y3350000D02*
D03*
X5190000Y4890000D02*
D03*
X5332500Y7702500D02*
D03*
X5550000Y7390000D02*
D03*
X3380000Y7020000D02*
D03*
X8150000Y6680000D02*
D03*
X8175000Y6630000D02*
D03*
X3099505Y5140726D02*
D03*
X3130473Y5095273D02*
D03*
X3160000Y4980000D02*
D03*
X3525000Y5075000D02*
D03*
X3675000Y5450000D02*
D03*
X3698298Y4678499D02*
D03*
X4850000Y3750000D02*
D03*
X5550000Y3700000D02*
D03*
X6048163Y3351557D02*
D03*
X7715000Y6715000D02*
D03*
X7825000D02*
D03*
X7935000D02*
D03*
X7715000Y6605000D02*
D03*
X7825000D02*
D03*
X7935000D02*
D03*
X7715000Y6495000D02*
D03*
X7825000D02*
D03*
X7935000D02*
D03*
X3440000Y4475000D02*
D03*
X3550000D02*
D03*
X3660000D02*
D03*
X3440000Y4365000D02*
D03*
X3550000D02*
D03*
X3660000D02*
D03*
X3440000Y4255000D02*
D03*
X3550000D02*
D03*
X3660000D02*
D03*
D50*
X2850000Y4950000D02*
D03*
X7975000Y7275000D02*
D03*
X8200000Y2850000D02*
D03*
%TF.MD5,f72be9cd0942426fe4bd7e1e718da6f1*%
M02*
