%TF.GenerationSoftware,Altium Limited,Altium Designer,24.7.2 (38)*%
G04 Layer_Physical_Order=2*
G04 Layer_Color=36540*
%FSLAX45Y45*%
%MOMM*%
%TF.SameCoordinates,4E20714E-E0DB-4EF4-9D00-32C5CA98EF25*%
%TF.FilePolarity,Positive*%
%TF.FileFunction,Copper,L2,Inr,Signal*%
%TF.Part,Single*%
G01*
G75*
%TA.AperFunction,Conductor*%
%ADD40C,0.25400*%
%ADD41C,0.16000*%
%TA.AperFunction,ComponentPad*%
%ADD49O,1.70000X2.70000*%
%ADD50C,1.10000*%
%ADD51C,1.40000*%
G04:AMPARAMS|DCode=52|XSize=1.4mm|YSize=1.4mm|CornerRadius=0.35mm|HoleSize=0mm|Usage=FLASHONLY|Rotation=0.000|XOffset=0mm|YOffset=0mm|HoleType=Round|Shape=RoundedRectangle|*
%AMROUNDEDRECTD52*
21,1,1.40000,0.70000,0,0,0.0*
21,1,0.70000,1.40000,0,0,0.0*
1,1,0.70000,0.35000,-0.35000*
1,1,0.70000,-0.35000,-0.35000*
1,1,0.70000,-0.35000,0.35000*
1,1,0.70000,0.35000,0.35000*
%
%ADD52ROUNDEDRECTD52*%
%ADD53R,6.00000X6.00000*%
G04:AMPARAMS|DCode=54|XSize=2.6mm|YSize=2.6mm|CornerRadius=0.65mm|HoleSize=0mm|Usage=FLASHONLY|Rotation=180.000|XOffset=0mm|YOffset=0mm|HoleType=Round|Shape=RoundedRectangle|*
%AMROUNDEDRECTD54*
21,1,2.60000,1.30000,0,0,180.0*
21,1,1.30000,2.60000,0,0,180.0*
1,1,1.30000,-0.65000,0.65000*
1,1,1.30000,0.65000,0.65000*
1,1,1.30000,0.65000,-0.65000*
1,1,1.30000,-0.65000,-0.65000*
%
%ADD54ROUNDEDRECTD54*%
%ADD55C,1.60000*%
%ADD56C,2.60000*%
%TA.AperFunction,ViaPad*%
%ADD57C,0.46000*%
%ADD58C,0.56000*%
%ADD59C,5.45000*%
%TA.AperFunction,Conductor*%
%ADD60C,0.35000*%
%TA.AperFunction,NonConductor*%
%ADD61C,0.25400*%
%ADD62C,0.15240*%
D40*
X5326137Y8220000D02*
X5330000D01*
X5270698Y8164561D02*
X5326137Y8220000D01*
X4851946Y6933055D02*
X4852652D01*
X5270698Y7351100D01*
X5332501Y7348977D02*
Y7518171D01*
X5324943Y7525730D02*
X5332501Y7518171D01*
X5324943Y7525730D02*
Y7700499D01*
X5270698Y7351100D02*
Y8164561D01*
X4783521Y6800002D02*
X5332501Y7348977D01*
X3960002Y6800002D02*
X4783521D01*
D41*
X5868000Y3618000D02*
X6099998D01*
X5653002Y3403002D02*
X5868000Y3618000D01*
X5627002Y3413771D02*
X5857231Y3644000D01*
X5976977Y3659000D02*
X6674401D01*
X5961977Y3644000D02*
X5976977Y3659000D01*
X5857231Y3644000D02*
X5961977D01*
X3614000Y4235946D02*
X3640947Y4209000D01*
X3614000Y4235946D02*
Y4240192D01*
X3600000Y4254192D02*
X3614000Y4240192D01*
X3645188Y4209000D02*
X3657549Y4196639D01*
X3640947Y4209000D02*
X3645188D01*
X7772500Y5890000D02*
Y5922553D01*
Y5890000D02*
X7802500Y5860000D01*
X7734053Y5961000D02*
X7772500Y5922553D01*
X7802500Y5860000D02*
X7835053D01*
X7695946Y5961000D02*
X7734053D01*
X7654828Y5958002D02*
X7692948D01*
X7695946Y5961000D01*
X7835053Y5860000D02*
X7871000Y5824053D01*
Y5823346D02*
X7880000Y5814346D01*
X7871000Y5823346D02*
Y5824053D01*
X7913502Y5758998D02*
X7946002D01*
X7880000Y5792500D02*
Y5814346D01*
Y5792500D02*
X7913502Y5758998D01*
X7805946Y5649000D02*
X7821814D01*
X7880813Y5590002D01*
X7779000Y5675946D02*
X7805946Y5649000D01*
X8246108Y4262185D02*
Y5178861D01*
X7760500Y5710314D02*
Y5714553D01*
X7772976Y5645201D02*
X7855053Y5563124D01*
X7760500Y5710314D02*
X7779000Y5691814D01*
Y5675946D02*
Y5691814D01*
X7855053Y5563124D02*
X7861845D01*
X8246108Y5178861D01*
X7664801Y5645201D02*
X7772976D01*
X7725053Y5750000D02*
X7760500Y5714553D01*
X7663804Y5750000D02*
X7725053D01*
X7784946Y5780000D02*
Y5780000D01*
X7734053Y5851000D02*
X7779000Y5806053D01*
Y5785946D02*
X7784946Y5780000D01*
X7779000Y5785946D02*
Y5806053D01*
X7494249Y5811073D02*
X7498570D01*
X7784946Y5780000D02*
X7814946Y5750000D01*
X7847500D02*
X7889000Y5708500D01*
X7814946Y5750000D02*
X7847500D01*
X7916653Y5649000D02*
X7988498Y5577155D01*
X7889000Y5675946D02*
X7915946Y5649000D01*
X7889000Y5675946D02*
Y5708500D01*
X7915946Y5649000D02*
X7916653D01*
X5876670Y3355000D02*
X5979001Y3457331D01*
X5864796Y3355000D02*
X5876670D01*
X7507395Y5746055D02*
X7570983D01*
X8004926Y4021002D02*
X8246108Y4262185D01*
X5850296Y3340500D02*
X5864796Y3355000D01*
X7029506Y3984000D02*
X7092452D01*
X7018736Y4010000D02*
X7081682D01*
X7092685Y4021002D02*
X8004926D01*
X7934482Y5561980D02*
X7955871Y5540592D01*
X7081682Y4010000D02*
X7092685Y4021002D01*
X7092452Y3984000D02*
X7103454Y3995002D01*
X5841574Y3340500D02*
X5850296D01*
X8272108Y4251416D02*
Y5198450D01*
X8015695Y3995002D02*
X8272108Y4251416D01*
X7955871Y5514688D02*
X8272108Y5198450D01*
X7504862Y5748589D02*
X7507395Y5746055D01*
X7103454Y3995002D02*
X8015695D01*
X7988498Y5544729D02*
Y5577155D01*
X7955871Y5514688D02*
Y5540592D01*
X7669000Y5823346D02*
Y5824053D01*
X7695946Y5851000D02*
X7734053D01*
X7625653Y5780000D02*
X7669000Y5823346D01*
Y5824053D02*
X7695946Y5851000D01*
X5292987Y8340000D02*
X5600989Y8031998D01*
X5988004D01*
X3690002Y8340000D02*
X5292987D01*
X3250001Y7899999D02*
X3690002Y8340000D01*
X5583182Y8366000D02*
X5808000Y8141183D01*
X3164944Y8392000D02*
X5772166D01*
X5833999Y8330167D01*
X3050002Y7899999D02*
X3516002Y8366000D01*
X3117376Y8418000D02*
X6996045D01*
X7017588Y8470000D02*
X7269998Y8217586D01*
X7006815Y8444000D02*
X7243999Y8206816D01*
X3516002Y8366000D02*
X5583182D01*
X6996045Y8418000D02*
X7205548Y8208497D01*
X2744003Y8044627D02*
X3117376Y8418000D01*
X3106607Y8444000D02*
X7006815D01*
X3086460Y8470000D02*
X7017588D01*
X2690002Y8073537D02*
X3086460Y8470000D01*
X2716002Y8053395D02*
X3106607Y8444000D01*
X2739299Y7966354D02*
X3164944Y8392000D01*
X7072000Y4470964D02*
Y4611141D01*
X2744003Y8014472D02*
Y8044627D01*
X2716002Y8023240D02*
Y8053395D01*
X7205548Y7505548D02*
Y8208497D01*
X7243999Y6849232D02*
Y8206816D01*
X5988004Y8031998D02*
X6484000Y7536002D01*
X5833999Y8151952D02*
Y8330167D01*
X2610000Y6660000D02*
X2716002Y6766001D01*
Y7776759D01*
X8011399Y6877502D02*
X8500000Y6388895D01*
X7870002Y3173232D02*
X8500000Y3803230D01*
Y6388895D01*
X7582383Y3938001D02*
X8041229D01*
X7946002Y5758998D02*
X8014498Y5690502D01*
X7988498Y5544729D02*
X8435701Y5097531D01*
X7844003Y3184002D02*
X8461700Y3801699D01*
X7529644Y5780000D02*
X7625653D01*
X8461700Y3801699D02*
Y5108301D01*
X8435701Y4332468D02*
Y5097531D01*
X7749230Y2845999D02*
X7844003Y2940771D01*
X8014498Y5555498D02*
Y5690502D01*
X7844003Y2940771D02*
Y3184002D01*
X8041229Y3938001D02*
X8435701Y4332468D01*
X8014498Y5555498D02*
X8461700Y5108301D01*
X7504844Y6684845D02*
X7697500Y6877502D01*
X8011399D01*
X8150941Y4225000D02*
X8155000D01*
X8200502Y4270502D01*
X4509999Y6651099D02*
X4558901D01*
X4689501Y6520499D01*
X3404217Y7186477D02*
X3450872Y7139822D01*
Y6735092D02*
Y7139822D01*
Y6735092D02*
X3831052Y6354913D01*
Y5876188D02*
X4018620Y5688620D01*
X3831052Y5876188D02*
Y6354913D01*
X4147500Y5556992D02*
X4187718Y5516773D01*
X4147500Y5556992D02*
Y6174776D01*
X4163995Y5459501D02*
X4187718Y5483225D01*
Y5516773D01*
X4147147Y5282024D02*
X4163995Y5298872D01*
X4147147Y5275354D02*
Y5282024D01*
X3881001Y4409999D02*
X4485914D01*
X3880002Y4410998D02*
X3881001Y4409999D01*
X3880002Y4298998D02*
X3881006Y4300002D01*
X4449450D01*
X3110001Y4307947D02*
X3162079Y4255869D01*
X3183489Y4336603D02*
X3286816Y4233276D01*
X3260811Y4096736D02*
Y4215826D01*
X3231002Y3710859D02*
Y3989146D01*
X3256559Y4014704D01*
X3162079Y4255869D02*
X3162786D01*
X3256559Y4014704D02*
Y4092484D01*
X3260811Y4096736D01*
X3166337Y4296869D02*
X3179769D01*
X3142458Y4320749D02*
X3166337Y4296869D01*
X3179769D02*
X3260811Y4215826D01*
X3142458Y4320749D02*
Y4502150D01*
X3286816Y4085971D02*
Y4233276D01*
X3183489Y4336603D02*
Y4337699D01*
X3058003Y4265899D02*
X3167607Y4156294D01*
X3146500Y3383499D02*
Y4079610D01*
X3193240Y4063240D02*
Y4073238D01*
X3195803Y4075801D02*
Y4121501D01*
X3179003Y3689320D02*
Y4010686D01*
X3146500Y3383499D02*
X3319998Y3210001D01*
X3181760Y4013443D02*
Y4051760D01*
X3167607Y4155590D02*
Y4156294D01*
X3058003Y4265899D02*
Y4528002D01*
X3193240Y4073238D02*
X3195803Y4075801D01*
X7498570Y5811073D02*
X7529644Y5780000D01*
X3181760Y4051760D02*
X3193240Y4063240D01*
X3146500Y4079610D02*
X3154502Y4087612D01*
X3179003Y4010686D02*
X3181760Y4013443D01*
X3499998Y4058666D02*
X3531814D01*
X3474497Y4025001D02*
X3474999Y4024499D01*
X3411769Y4025001D02*
X3474497D01*
X3474999D02*
X3480740Y4019261D01*
X3520491D01*
X3617184Y4017666D02*
X3657549Y4058032D01*
X3522086Y4017666D02*
X3617184D01*
X3520491Y4019261D02*
X3522086Y4017666D01*
X4152502Y3479998D02*
X4713849D01*
X3657549Y4058032D02*
Y4196639D01*
X3645000Y3987500D02*
X4152502Y3479998D01*
X5893999Y4068047D02*
X5945954Y4120002D01*
X5893999Y3914003D02*
Y4068047D01*
X5945954Y4120002D02*
X6210000D01*
X5919998Y4006769D02*
Y4057277D01*
X5955281Y4092560D02*
X6167445D01*
X5919998Y4057277D02*
X5955281Y4092560D01*
X6674401Y3659000D02*
X6678402Y3654999D01*
X5972161Y4043339D02*
Y4051457D01*
X5945998Y3995999D02*
X5947917Y3997919D01*
X6167445Y4092560D02*
X6420002Y3840002D01*
X5947917Y3997919D02*
Y4019096D01*
X5972161Y4043339D01*
X6530497Y3390001D02*
X6849999D01*
X6530000Y3389504D02*
X6530497Y3390001D01*
X6236803Y3355616D02*
X6240137D01*
X6270773Y3386252D01*
X5653002Y3325537D02*
Y3403002D01*
X5678998Y3129310D02*
Y3314761D01*
X5601000Y3424538D02*
X5799999Y3623537D01*
X5652999Y3325534D02*
X5653002Y3325537D01*
X5627002Y3336303D02*
Y3413771D01*
X5601000Y3161614D02*
Y3424538D01*
X5626999Y3336300D02*
X5627002Y3336303D01*
X5575000Y3435308D02*
X5773999Y3634307D01*
X5714262Y3313256D02*
Y3325215D01*
X5575000Y3172384D02*
Y3435308D01*
X5678998Y3314761D02*
X5688262Y3324025D01*
Y3357198D01*
X5694002Y3362938D01*
X5705003Y3303996D02*
X5714262Y3313256D01*
Y3325215D02*
X5757500Y3368454D01*
X5794971Y3335954D02*
X5837632D01*
X5841574Y3339897D01*
X6001797Y3377447D02*
X6054854Y3430503D01*
X5943000Y3310349D02*
X6001797Y3369146D01*
Y3377447D01*
X6738891Y3525095D02*
X6742252Y3528456D01*
X6960733D01*
X7180001Y3747724D02*
Y3917001D01*
X7120001Y3840002D02*
Y3916794D01*
X7120208Y3917001D01*
X6905732Y3962116D02*
X6913575D01*
X6910000Y4104233D02*
X6937502Y4131735D01*
X6913575Y3962116D02*
X6969999Y4018539D01*
X6910000Y4096115D02*
Y4104233D01*
X6937502Y4131735D02*
Y4186702D01*
X6879499Y4147627D02*
Y4207932D01*
Y4147627D02*
X6881298Y4145827D01*
X6939512Y4280488D02*
X6939998Y4280002D01*
X8070002D01*
X7085970Y4381001D02*
X7115968Y4411000D01*
X7080001Y4381001D02*
X7085970D01*
X8070002Y4280002D02*
X8107131Y4317131D01*
Y4327131D01*
X8176275Y4411000D02*
X8200502Y4386773D01*
X7115968Y4411000D02*
X8176275D01*
X8107131Y4327131D02*
X8150000Y4370000D01*
X8200502Y4270502D02*
Y4386773D01*
X7373000Y5879273D02*
X7427498Y5824775D01*
Y5762902D02*
Y5824775D01*
Y5762902D02*
X7485345Y5705055D01*
X7373000Y5879273D02*
Y5879501D01*
X7372498Y6489860D02*
X7381001Y6498362D01*
X7372498Y5885502D02*
Y6489860D01*
X7476206Y5665087D02*
Y5670545D01*
X7485345Y5705055D02*
X7494220D01*
X7249998Y5896752D02*
X7476206Y5670545D01*
X7521273Y5678002D02*
X7631999D01*
X7585152Y5731886D02*
X7645690D01*
X7570983Y5746055D02*
X7585152Y5731886D01*
X7501513Y5746055D02*
X7502328D01*
X7453498Y5794070D02*
X7501513Y5746055D01*
X7494220Y5705055D02*
X7521273Y5678002D01*
X7479497Y5833669D02*
X7479498D01*
X7494498Y5818669D01*
Y5811322D02*
Y5818669D01*
X7480502Y5916158D02*
X7482332D01*
X7508992Y5889498D01*
X7529715Y6506215D02*
Y6607793D01*
X7494372Y6643136D02*
X7529715Y6607793D01*
X7501000Y6477500D02*
X7529715Y6506215D01*
X7493226Y6530500D02*
Y6572989D01*
X7488715Y6577500D02*
X7493226Y6572989D01*
X7440381Y6535638D02*
X7446014Y6541270D01*
X7504844Y6683136D02*
Y6684845D01*
X7460000Y6497274D02*
X7493226Y6530500D01*
X7434001Y6435999D02*
Y6508044D01*
X7440381Y6514425D01*
Y6535638D01*
X7381001Y6498362D02*
Y6544470D01*
X7381893Y6545362D01*
X4756501Y5648406D02*
X4772729Y5664635D01*
Y5697794D02*
X4778469Y5703534D01*
X4772729Y5664635D02*
Y5697794D01*
X4485914Y4410004D02*
X4689501Y4613591D01*
Y6520499D01*
X4485914Y4409999D02*
Y4410004D01*
X2827503Y7549998D02*
X3283229D01*
X2823748Y7553752D02*
X2827503Y7549998D01*
X2690002Y7133503D02*
Y7752734D01*
X2638999Y7082500D02*
X2690002Y7133503D01*
Y7752734D02*
X2690002Y7752734D01*
Y7765989D01*
X3547500Y7227500D02*
X3550001Y7224999D01*
Y6772275D02*
Y7224999D01*
X3321466Y6318535D02*
X3764047D01*
X2744003Y6895998D02*
X3321466Y6318535D01*
X3805047Y6284346D02*
Y6344148D01*
X3379998Y6769197D02*
X3805047Y6344148D01*
X3379998Y6769197D02*
Y7020001D01*
X3765332Y5879805D02*
Y5930145D01*
X3773221Y5938034D02*
Y5985146D01*
X3765332Y5930145D02*
X3773221Y5938034D01*
X3870884Y5289118D02*
Y5679120D01*
X3763391Y5786613D02*
X3870884Y5679120D01*
X3762888Y5786613D02*
X3763391D01*
X3370001Y5710001D02*
X3370355Y5709647D01*
X3370001Y5710001D02*
Y5849295D01*
X3820003Y5212725D02*
Y5309457D01*
X3900002Y5246182D02*
X3911884Y5258063D01*
X3834404Y5825597D02*
X3911884Y5748117D01*
Y5258063D02*
Y5748117D01*
X3819078Y5310382D02*
X3820003Y5309457D01*
X3900002Y5190708D02*
Y5246182D01*
Y5190708D02*
X3900604Y5190106D01*
X3525002Y4659462D02*
Y4708000D01*
Y4659462D02*
X3564001Y4620463D01*
X3495300Y4754701D02*
X3501040Y4760441D01*
X3469429Y4754701D02*
X3495300D01*
X3434000Y4719272D02*
X3469429Y4754701D01*
X3434000Y4555810D02*
Y4719272D01*
Y4555810D02*
X3499998Y4489812D01*
X3058003Y4528002D02*
X3147279Y4617279D01*
Y4799780D02*
X3153020Y4805520D01*
X3147279Y4617279D02*
Y4799780D01*
X3194019Y4928115D02*
X3194020Y4928115D01*
X3194019Y4928115D02*
Y4944313D01*
X3194020Y4627250D02*
Y4928115D01*
X3158092Y4980241D02*
X3194019Y4944313D01*
X3136024Y5089723D02*
X3157550D01*
X3144782Y5139260D02*
X3246018Y5038024D01*
X3115740Y5139260D02*
X3144782D01*
X3110000Y5145000D02*
X3115740Y5139260D01*
X7645690Y5731886D02*
X7663804Y5750000D01*
X7880813Y5590002D02*
X7906461D01*
X7934482Y5561980D01*
Y5561980D02*
Y5561980D01*
X3499998Y4065499D02*
Y4489812D01*
X3600000Y4254192D02*
Y4512232D01*
X3564001Y4548231D02*
X3600000Y4512232D01*
X6270773Y3386252D02*
X6425748D01*
X5011999Y2917998D02*
X5847596D01*
X5943000Y3013402D01*
X3283001Y3967607D02*
X3357397Y4041999D01*
X5491846Y3125998D02*
X5549001Y3183153D01*
X4786376Y3370702D02*
X5083078Y3073999D01*
X5731002Y3107771D02*
Y3293227D01*
X5545694Y2996001D02*
X5678998Y3129310D01*
X5567233Y2944002D02*
X5731002Y3107771D01*
X5534924Y3022001D02*
X5652999Y3140080D01*
Y3325534D01*
X4786574Y3444042D02*
X5104618Y3125998D01*
X3369147Y3344697D02*
X4775606D01*
X5731002Y3293227D02*
X5765729Y3327953D01*
X3284499Y3429345D02*
X3369147Y3344697D01*
X4775606D02*
X5072309Y3048000D01*
X5556463Y2970002D02*
X5705003Y3118541D01*
X5524155Y3048000D02*
X5626999Y3150845D01*
X3357397Y4041999D02*
X3366394D01*
X5705003Y3118541D02*
Y3303996D01*
X5626999Y3150845D02*
Y3336300D01*
X5502616Y3099999D02*
X5575000Y3172384D01*
X5072309Y3048000D02*
X5524155D01*
X5104618Y3125998D02*
X5491846D01*
X5093848Y3099999D02*
X5502616D01*
X3401050Y4065499D02*
X3493165D01*
X5061539Y3022001D02*
X5534924D01*
X3386552Y4051000D02*
X3401050Y4065499D01*
X3283001Y3732393D02*
X3284499Y3730894D01*
X5549001Y3183153D02*
Y3446078D01*
X3284499Y3429345D02*
Y3730894D01*
X5513385Y3073999D02*
X5601000Y3161614D01*
X3283001Y3732393D02*
Y3967607D01*
X4797145Y3396702D02*
X5093848Y3099999D01*
X3375396Y4051000D02*
X3386552D01*
X5083078Y3073999D02*
X5513385D01*
X3493165Y4065499D02*
X3499998Y4058666D01*
X3366394Y4041999D02*
X3375396Y4051000D01*
X4797145Y3396702D02*
X4797145D01*
X5549001Y3446078D02*
X5748000Y3645077D01*
X4713849Y3479998D02*
X4797145Y3396702D01*
X3379917Y3370702D02*
X4786376D01*
X3310499Y3440115D02*
X3379917Y3370702D01*
X5022769Y2944002D02*
X5567233D01*
X5040000Y2970002D02*
X5556463D01*
X5050770Y2996001D02*
X5545694D01*
X6901998Y3746185D02*
Y3819723D01*
Y3746185D02*
Y3746185D01*
X5812149Y3368454D02*
X5824695Y3381000D01*
X5757500Y3368454D02*
X5812149D01*
X5824695Y3381000D02*
X5865900D01*
X5943000Y3013402D02*
Y3310349D01*
X4743303Y3266699D02*
X5040000Y2970002D01*
X4754072Y3292699D02*
X5050770Y2996001D01*
X5765729Y3327953D02*
X5786970D01*
X5794971Y3335954D01*
X6054854Y3430503D02*
X6586317D01*
X5865900Y3381000D02*
X5968231Y3483331D01*
X6586317Y3430503D02*
X6901998Y3746185D01*
X5968231Y3483331D02*
X6565606D01*
X5979001Y3457331D02*
X6576375D01*
X6565606Y3483331D02*
X6849999Y3767724D01*
X4724618Y3505998D02*
X4786574Y3444042D01*
X3310499Y3440115D02*
Y3741664D01*
X5748000Y3645077D02*
Y3767999D01*
X5773999Y3634307D02*
Y3757229D01*
X5799999Y3623537D02*
Y3746464D01*
X7020000Y4492500D02*
Y4589603D01*
X6941603Y4668000D02*
X7020000Y4589603D01*
X6963142Y4720000D02*
X7072000Y4611141D01*
X6952372Y4694000D02*
X7046000Y4600372D01*
Y4481731D02*
Y4600372D01*
X6760815Y4720001D02*
X6963142D01*
X6750045Y4694001D02*
X6952372D01*
X6739276Y4668000D02*
X6941603D01*
X5919998Y3903233D02*
Y4006769D01*
X6893001Y2995229D02*
Y3062920D01*
X7135922Y2819999D02*
X7760000D01*
X6893001Y3062920D02*
Y3297001D01*
X7068231Y2819999D02*
X7135922D01*
X6658000Y5408000D02*
X6669999Y5419999D01*
X6729999Y5479999D01*
X6684000Y5397231D02*
X6695999Y5409230D01*
X6755999Y5469230D01*
X3499998Y4058666D02*
Y4065499D01*
X3550001Y6772275D02*
X4147500Y6174776D01*
X6658000Y4749277D02*
Y5408000D01*
X6709999Y4770816D02*
X6760815Y4720001D01*
X6658000Y4749277D02*
X6739275Y4668002D01*
X6684000Y4760046D02*
X6750045Y4694001D01*
X6684000Y4760046D02*
Y5397231D01*
X6709999Y4770816D02*
Y5386461D01*
X5808000Y8141183D02*
X5891185Y8058003D01*
X6002000D01*
X5901954Y8084002D02*
X6012769D01*
X5833999Y8151952D02*
X5901954Y8084002D01*
X6709999Y5386461D02*
X6781998Y5458460D01*
X6969999Y4018539D02*
Y4190970D01*
X6781998Y5458460D02*
Y5811540D01*
X6845783Y4318279D02*
X7020001Y4492498D01*
X6897781Y4263192D02*
Y4296740D01*
Y4263192D02*
X6969999Y4190970D01*
X6871782Y4252422D02*
X6937502Y4186702D01*
X6845783Y4241653D02*
X6879499Y4207932D01*
X6845783Y4241653D02*
Y4318279D01*
X6871782Y4252422D02*
Y4307510D01*
X7046001Y4481728D01*
X6897781Y4296740D02*
X7072000Y4470964D01*
X6531767Y6061771D02*
X6781998Y5811540D01*
X6531767Y6061771D02*
Y6121771D01*
X6505768Y6051001D02*
X6755999Y5800771D01*
X6505768Y6051001D02*
Y6111001D01*
X6210000Y6370000D02*
X6479769Y6100232D01*
Y6040232D02*
X6729999Y5790001D01*
X6236000Y6380770D02*
X6505768Y6111001D01*
X6479769Y6040232D02*
Y6100232D01*
X6261999Y6391539D02*
X6531767Y6121771D01*
X6236000Y6380770D02*
Y6600769D01*
X6261999Y6391539D02*
Y6611539D01*
X6126002Y6747540D02*
X6261999Y6611539D01*
X6126002Y6747540D02*
Y6832463D01*
X6198042Y6904502D01*
X6351270D01*
X6535999Y7089231D01*
Y7560767D01*
X6012769Y8084002D02*
X6535999Y7560767D01*
X6002000Y8058003D02*
X6510000Y7550003D01*
Y7100001D02*
Y7550003D01*
X6484000Y7114002D02*
Y7536002D01*
X2739299Y7833644D02*
Y7966354D01*
Y7833644D02*
X2792943Y7780000D01*
X2682601Y7810160D02*
Y7989839D01*
X2792943Y7780000D02*
X2944998D01*
X2656601Y7799390D02*
Y8000609D01*
X2708600Y7820929D02*
Y7979075D01*
X2690002Y8034010D02*
Y8073537D01*
X2744003Y6895998D02*
Y7785527D01*
X2708600Y7979075D02*
X2744003Y8014472D01*
X2656601Y7799390D02*
X2690002Y7765989D01*
X2708600Y7820929D02*
X2744003Y7785527D01*
X2682601Y7989839D02*
X2716002Y8023240D01*
X2682601Y7810160D02*
X2716002Y7776759D01*
X2656601Y8000609D02*
X2690002Y8034010D01*
X2944998Y7780000D02*
X2975000Y7750002D01*
Y7596398D02*
Y7750002D01*
Y7596398D02*
X2990698Y7580701D01*
X3130702D01*
X3450001Y7899999D01*
X6099998Y6843232D02*
X6187272Y6930502D01*
X6099998Y6736771D02*
X6236000Y6600769D01*
X6099998Y6736771D02*
Y6843232D01*
X6073999Y6726001D02*
X6210000Y6590000D01*
X6073999Y6854002D02*
X6176503Y6956501D01*
X6073999Y6726001D02*
Y6854002D01*
X6755999Y5469230D02*
Y5800771D01*
X6187272Y6930502D02*
X6340500D01*
X6326500Y6956501D02*
X6484000Y7114002D01*
X6176503Y6956501D02*
X6326500D01*
X6340500Y6930502D02*
X6510000Y7100001D01*
X7269998Y6860002D02*
Y8217586D01*
Y6860002D02*
X7486863Y6643136D01*
X7494372D01*
X6210000Y6370000D02*
Y6590000D01*
X6729999Y5479999D02*
Y5790001D01*
X3283229Y7549998D02*
X3599998Y7233229D01*
X5748000Y3767999D02*
X5893999Y3914003D01*
X5945998Y3892464D02*
Y3995999D01*
X5773999Y3757229D02*
X5919998Y3903233D01*
X5799999Y3746464D02*
X5945998Y3892464D01*
X4025001Y4105001D02*
X4030000Y4109999D01*
X4025001Y3651768D02*
Y4105001D01*
Y3651768D02*
X4170771Y3505998D01*
X4724618D01*
X6210000Y4120002D02*
X6414511Y3915491D01*
X6911878Y3631880D02*
X7120001Y3840002D01*
X6881881Y3631880D02*
X6911878D01*
X6425748Y3386252D02*
X6472001Y3339998D01*
X6849999D02*
X6893001Y3297001D01*
X6472001Y3339998D02*
X6849999D01*
X6893001Y2995229D02*
X7068231Y2819999D01*
X7079000Y2845999D02*
X7749230D01*
X6919001Y3005999D02*
X7079000Y2845999D01*
X6919001Y3005999D02*
Y3320999D01*
X6849999Y3390001D02*
X6919001Y3320999D01*
X7760000Y2819999D02*
X7870002Y2930002D01*
Y3173232D01*
X6576375Y3457331D02*
X6875998Y3756955D01*
X3336839Y3266699D02*
X4743303D01*
X3358378Y3318698D02*
X4764837D01*
X3347608Y3292699D02*
X4754072D01*
X3326069Y3240700D02*
X4726071D01*
X4720001Y3210001D02*
X5011999Y2917998D01*
X3319998Y3210001D02*
X4720001D01*
X4764837Y3318698D02*
X5061539Y3022001D01*
X4726071Y3240700D02*
X5022769Y2944002D01*
X3309000Y3743162D02*
X3310499Y3741664D01*
X3257001Y3978377D02*
X3282559Y4003934D01*
X3206501Y3397037D02*
Y3698585D01*
X3232501Y3407806D02*
Y3709355D01*
X3205002Y3999911D02*
X3230560Y4025473D01*
X3179003Y3689320D02*
X3179999Y3688319D01*
X3257001Y3721628D02*
X3258500Y3720125D01*
X3205002Y3700089D02*
Y3999911D01*
X3309000Y3743162D02*
Y3956837D01*
X3179999Y3386770D02*
Y3688319D01*
X3257001Y3721628D02*
Y3978377D01*
X3179999Y3386770D02*
X3326069Y3240700D01*
X3205002Y3700089D02*
X3206501Y3698585D01*
X3258500Y3418576D02*
Y3720125D01*
X3231002Y3710859D02*
X3232501Y3709355D01*
X3309000Y3956837D02*
X3368167Y4015999D01*
X3402767D02*
X3411769Y4025001D01*
X3368167Y4015999D02*
X3402767D01*
X3258500Y3418576D02*
X3358378Y3318698D01*
X6849999Y3767724D02*
Y3841262D01*
X6960733Y3528456D02*
X7180001Y3747724D01*
X6875998Y3830493D02*
X7029506Y3984000D01*
X6875998Y3756955D02*
Y3830493D01*
X6901998Y3819723D02*
X7000001Y3917726D01*
X6849999Y3841262D02*
X7018736Y4010000D01*
X3162610Y4255338D02*
X3234812Y4183136D01*
X4163995Y5298872D02*
Y5459501D01*
X3370001Y5849295D02*
X3805047Y6284346D01*
X3230560Y4103253D02*
X3234812Y4107510D01*
X3282559Y4081714D02*
X3286816Y4085971D01*
X3234812Y4107510D02*
Y4183136D01*
X3230560Y4025473D02*
Y4103253D01*
X3195803Y4121501D02*
X3208812Y4134510D01*
X3282559Y4003934D02*
Y4081714D01*
X3208812Y4134510D02*
Y4172367D01*
X3175716Y4205463D02*
X3208812Y4172367D01*
X3154502Y4087612D02*
Y4091777D01*
X3168863Y4106139D01*
Y4155039D01*
X3232501Y3407806D02*
X3347608Y3292699D01*
X3564001Y4548231D02*
Y4620463D01*
X3206501Y3397037D02*
X3336839Y3266699D01*
X7249998Y5896752D02*
Y6843232D01*
X7243999Y6849232D02*
X7249998Y6843232D01*
X7200001Y7500000D02*
X7205548Y7505548D01*
X4220002Y6210000D02*
X4223639Y6213638D01*
X4220002Y5290226D02*
Y6210000D01*
X4756501Y4607052D02*
Y5648406D01*
X3765332Y5879805D02*
X3819540Y5825597D01*
X7000001Y3917726D02*
X7062948D01*
X7508992Y5889498D02*
X7586330D01*
X7413498Y5882457D02*
Y5950270D01*
X3819540Y5825597D02*
X3834404D01*
X3880002Y4354998D02*
X4467682D01*
X4715998Y4603318D01*
X4449450Y4300002D02*
X4756501Y4607052D01*
X3599998Y6969999D02*
Y7233229D01*
X7460000Y6450000D02*
Y6497274D01*
X3246018Y4605711D02*
Y5038024D01*
X3220019Y4616480D02*
Y5027254D01*
X3157550Y5089723D02*
X3220019Y5027254D01*
X4715998Y4603318D02*
Y5705043D01*
X4730501Y5719542D01*
X4065778Y5136002D02*
X4220002Y5290226D01*
X3896726Y5136002D02*
X4065778D01*
X3820003Y5212725D02*
X3896726Y5136002D01*
X4730501Y5719542D02*
Y5825002D01*
X3084002Y4276674D02*
Y4517233D01*
X3155208Y4205463D02*
X3175716D01*
X3084002Y4276674D02*
X3155208Y4205463D01*
X3142458Y4502150D02*
X3246018Y4605711D01*
X3110001Y4307947D02*
Y4506463D01*
X3220019Y4616480D01*
X3084002Y4517233D02*
X3194020Y4627250D01*
X7103227Y3958001D02*
X7562383D01*
X7582383Y3938001D01*
X7062948Y3917726D02*
X7103227Y3958001D01*
X7586330Y5889498D02*
X7654828Y5958002D01*
X7413498Y5950270D02*
X7475499Y6012271D01*
Y6394501D01*
X7439503Y5893227D02*
X7479497Y5853227D01*
Y5833669D02*
Y5853227D01*
X7413498Y5882457D02*
X7453498Y5842457D01*
Y5794070D02*
Y5842457D01*
X7439503Y5939500D02*
X7501499Y6001502D01*
X7434001Y6435999D02*
X7475499Y6394501D01*
X7501499Y6001502D02*
Y6408501D01*
X7460000Y6450000D02*
X7501499Y6408501D01*
X7439503Y5893227D02*
Y5939500D01*
X7631999Y5678002D02*
X7664801Y5645201D01*
D49*
X6580000Y2700000D02*
D03*
X5850000D02*
D03*
D50*
X6055000Y3205000D02*
D03*
X6215000D02*
D03*
X6135000Y3085000D02*
D03*
X6295000D02*
D03*
X6375000Y3205000D02*
D03*
D51*
X7650002Y7899999D02*
D03*
X7850002D02*
D03*
X8050002D02*
D03*
X8250001D02*
D03*
X3050002D02*
D03*
X3250001D02*
D03*
X3450001D02*
D03*
X3650000D02*
D03*
X7225000Y3175000D02*
D03*
X7424999D02*
D03*
X7025000D02*
D03*
D52*
X7449998Y7899999D02*
D03*
X2850002D02*
D03*
X7624999Y3175000D02*
D03*
D53*
X4225000Y2850002D02*
D03*
Y4800000D02*
D03*
D54*
X3474999Y3850000D02*
D03*
X6250000Y7200001D02*
D03*
X4349999D02*
D03*
D55*
X3774999Y2850002D02*
D03*
X2675001D02*
D03*
X5950001Y8199999D02*
D03*
X7049999D02*
D03*
X4050000D02*
D03*
X5150002D02*
D03*
D56*
X2975000Y3850000D02*
D03*
X6749999Y7200001D02*
D03*
X4849998D02*
D03*
D57*
X5920000Y3685000D02*
D03*
X4732700Y2672700D02*
D03*
X5330000Y8220000D02*
D03*
X2610000Y6660000D02*
D03*
X3500000Y3000000D02*
D03*
X3350000D02*
D03*
X3200000D02*
D03*
X3050000D02*
D03*
X2900000D02*
D03*
X3500000Y2850000D02*
D03*
X3350000D02*
D03*
X3200000D02*
D03*
X3050000D02*
D03*
X2900000D02*
D03*
X6098875Y6231125D02*
D03*
X7800000Y6950000D02*
D03*
X7850000D02*
D03*
X7200001Y7500000D02*
D03*
X8150941Y4225000D02*
D03*
X6490000Y4449999D02*
D03*
X6287737Y3326003D02*
D03*
X6126323Y3352000D02*
D03*
X6347257Y2879695D02*
D03*
X4960000Y4909998D02*
D03*
X4829998Y4920000D02*
D03*
X4509999Y6651099D02*
D03*
X3960002Y6800002D02*
D03*
X3404217Y7186477D02*
D03*
X3599998Y6969999D02*
D03*
X3379998Y7020001D02*
D03*
X3170001Y6716025D02*
D03*
X3137786Y6582025D02*
D03*
X3150000Y6850000D02*
D03*
X8060304Y5580858D02*
D03*
X8161655Y5815254D02*
D03*
X8145912Y5761512D02*
D03*
X8139238Y5889238D02*
D03*
X8149958Y6680088D02*
D03*
X8174645Y6629645D02*
D03*
X8152304Y6577700D02*
D03*
X8184416Y6530000D02*
D03*
Y6474000D02*
D03*
X6721511Y7705103D02*
D03*
X6200000Y7600000D02*
D03*
X5200000Y7000000D02*
D03*
Y5700000D02*
D03*
X5350000Y5400000D02*
D03*
X4300000Y3900000D02*
D03*
X4450000D02*
D03*
X4390173Y3775400D02*
D03*
X4150000Y3750000D02*
D03*
X5815706Y4444999D02*
D03*
X5730001Y4395003D02*
D03*
X7110000Y4660000D02*
D03*
X6666796Y4682499D02*
D03*
X5655000Y4760438D02*
D03*
X5755000D02*
D03*
X5771998Y4486997D02*
D03*
X6015000Y4482500D02*
D03*
X6317500Y4402500D02*
D03*
X6266251Y4363750D02*
D03*
X6189790Y4440498D02*
D03*
X6129850Y4452997D02*
D03*
X6100500Y4405305D02*
D03*
X5847939Y3699998D02*
D03*
X5499999Y3599998D02*
D03*
X5407500Y3747500D02*
D03*
X3687072Y5447502D02*
D03*
X3825001Y5644998D02*
D03*
X4018620Y5688620D02*
D03*
X4142501Y5499999D02*
D03*
X4147147Y5275354D02*
D03*
X4030701Y4459300D02*
D03*
X3880002Y4410998D02*
D03*
Y4354998D02*
D03*
Y4298998D02*
D03*
X3183489Y4337699D02*
D03*
X3162786Y4255869D02*
D03*
X3187500Y4057500D02*
D03*
X3167607Y4155590D02*
D03*
X3531814Y4058666D02*
D03*
X3474999Y4024499D02*
D03*
X3323559Y4066140D02*
D03*
X3645000Y3987500D02*
D03*
X3774999Y4000002D02*
D03*
X4030000Y4109999D02*
D03*
X4162500Y3900000D02*
D03*
X4645701Y3900000D02*
D03*
X4601654Y3831455D02*
D03*
X4692515Y3652339D02*
D03*
X4550016Y3649839D02*
D03*
X4200015D02*
D03*
Y3427339D02*
D03*
X4550016D02*
D03*
X4377119Y3427124D02*
D03*
X4374998Y3650000D02*
D03*
X5259248Y4159245D02*
D03*
X5504998Y4145001D02*
D03*
X5810001Y4135623D02*
D03*
X5860000Y4103802D02*
D03*
X5730001Y3843872D02*
D03*
X5727151Y3899799D02*
D03*
X6649647Y4049647D02*
D03*
X6580002Y4050000D02*
D03*
Y3970000D02*
D03*
X6678402Y3654999D02*
D03*
X6510000Y3606711D02*
D03*
X6414511Y3915491D02*
D03*
X6420002Y3840002D02*
D03*
X5972161Y4051457D02*
D03*
X6400002Y3780003D02*
D03*
X6196360Y3786363D02*
D03*
X6110000Y3700000D02*
D03*
X6099998Y3618000D02*
D03*
X6530000Y3389504D02*
D03*
X6236803Y3355616D02*
D03*
X5694002Y3362938D02*
D03*
X5757500Y3368454D02*
D03*
X5841574Y3339897D02*
D03*
X5943000Y3310349D02*
D03*
X6580002Y3609498D02*
D03*
X6738891Y3525095D02*
D03*
X6881881Y3631880D02*
D03*
X6949999Y3783001D02*
D03*
X7395429Y4065325D02*
D03*
X7180001Y3917001D02*
D03*
X7120208D02*
D03*
X7182561Y4062002D02*
D03*
X7090877Y4070115D02*
D03*
X6910000Y4096115D02*
D03*
X6905732Y3962116D02*
D03*
X6881298Y4145827D02*
D03*
X6939512Y4280488D02*
D03*
X7080001Y4381001D02*
D03*
X8150000Y4370000D02*
D03*
X8020000Y4655002D02*
D03*
X7860000Y4850000D02*
D03*
X7919999Y4849998D02*
D03*
X7979999D02*
D03*
Y4909998D02*
D03*
X7920000Y4910000D02*
D03*
X7860000Y4975000D02*
D03*
X7920000Y4970000D02*
D03*
X7860000Y4909998D02*
D03*
X7980000Y4970000D02*
D03*
X7753566Y5433001D02*
D03*
X7791182Y5479502D02*
D03*
X7844862Y5522124D02*
D03*
X7250843Y5715345D02*
D03*
X7371918Y5713535D02*
D03*
X7032500Y5660000D02*
D03*
X7200000Y6180000D02*
D03*
X7372498Y5885502D02*
D03*
X7476206Y5665087D02*
D03*
X7502328Y5746055D02*
D03*
X7494498Y5811322D02*
D03*
X7536099Y5930498D02*
D03*
X7480502Y5916158D02*
D03*
X7903052Y6185550D02*
D03*
X7999999Y6279998D02*
D03*
X7892000Y6288002D02*
D03*
X7831444Y6297113D02*
D03*
X7767504Y6288002D02*
D03*
X7700502Y6279998D02*
D03*
X7434499Y6271941D02*
D03*
X7446014Y6541270D02*
D03*
X7488715Y6577500D02*
D03*
X7501000Y6477500D02*
D03*
X7504844Y6683136D02*
D03*
X7381893Y6545362D02*
D03*
X6379500Y6740500D02*
D03*
X6424452Y6444452D02*
D03*
X6714520Y6454521D02*
D03*
X6490000Y6462500D02*
D03*
X6578584Y6193925D02*
D03*
X6522829Y6188692D02*
D03*
X5665998Y5915294D02*
D03*
X5649499Y5340502D02*
D03*
X4778469Y5703534D02*
D03*
X4730501Y5825002D02*
D03*
X4851946Y6933055D02*
D03*
X5324943Y7700499D02*
D03*
X2823748Y7553752D02*
D03*
X2610002Y6829999D02*
D03*
X2638999Y6960058D02*
D03*
Y7082500D02*
D03*
X2618196Y7210999D02*
D03*
X3547500Y7227500D02*
D03*
X3764047Y6318535D02*
D03*
X3920000Y6625000D02*
D03*
X4223639Y6213638D02*
D03*
X3968323Y6038322D02*
D03*
X3984097Y6280196D02*
D03*
X3782998Y6050001D02*
D03*
X3773221Y5985146D02*
D03*
X3762888Y5786613D02*
D03*
X3370355Y5709647D02*
D03*
X3397500Y5400000D02*
D03*
X3870884Y5289118D02*
D03*
X3819078Y5310382D02*
D03*
X3900604Y5190106D02*
D03*
X3815568Y4856668D02*
D03*
X3700115Y4766875D02*
D03*
X3682480Y4684881D02*
D03*
X3525002Y4708000D02*
D03*
X3581002D02*
D03*
X3478985Y4671883D02*
D03*
X3501040Y4760441D02*
D03*
X3558764Y4763844D02*
D03*
X3153020Y4805520D02*
D03*
Y4911132D02*
D03*
X3158092Y4980241D02*
D03*
X3151178Y5035812D02*
D03*
X3136024Y5089723D02*
D03*
X3110000Y5145000D02*
D03*
X7879999Y5210002D02*
D03*
X4929998Y2879999D02*
D03*
X5550002Y7389998D02*
D03*
D58*
X3415000Y5185000D02*
D03*
X3525000D02*
D03*
X3635000D02*
D03*
X3415000Y5075000D02*
D03*
X3525000D02*
D03*
X3635000D02*
D03*
X3415000Y4965000D02*
D03*
X3525000D02*
D03*
X3635000D02*
D03*
X3660000Y4255000D02*
D03*
X3550000D02*
D03*
X3440000D02*
D03*
X3660000Y4365000D02*
D03*
X3550000D02*
D03*
X3440000D02*
D03*
X3660000Y4475000D02*
D03*
X3550000D02*
D03*
X3440000D02*
D03*
X7715000Y6715000D02*
D03*
X7825000D02*
D03*
X7935000D02*
D03*
X7715000Y6605000D02*
D03*
X7825000D02*
D03*
X7935000D02*
D03*
X7715000Y6495000D02*
D03*
X7825000D02*
D03*
X7935000D02*
D03*
X7935000Y5695000D02*
D03*
X7825000D02*
D03*
X7715000D02*
D03*
X7935000Y5805000D02*
D03*
X7825000D02*
D03*
X7715000D02*
D03*
X7935000Y5915000D02*
D03*
X7825000D02*
D03*
X7715000D02*
D03*
D59*
X2850002Y4949998D02*
D03*
X8199999Y2850002D02*
D03*
X7975001Y7275002D02*
D03*
D60*
X6214997Y3205002D02*
X6214999D01*
X6128427Y3291573D02*
Y3349896D01*
Y3291573D02*
X6214997Y3205002D01*
X6126323Y3352000D02*
X6128427Y3349896D01*
X6289052Y3324687D02*
X6399637D01*
X6287737Y3326003D02*
X6289052Y3324687D01*
X6399637D02*
X6477051Y3247268D01*
Y3162732D02*
Y3247268D01*
X6302832Y3092831D02*
X6407150D01*
X6477051Y3162732D01*
X6294999Y3084998D02*
X6302832Y3092831D01*
D61*
X9519200Y2679611D02*
X9570000Y2527211D01*
X9620800Y2679611D01*
X9570000Y8527211D02*
X9620800Y8374811D01*
X9519200D02*
X9570000Y8527211D01*
Y2527211D02*
Y5090445D01*
Y5882696D02*
Y8527211D01*
X8165000Y2527211D02*
X9595400D01*
X8165000Y8527211D02*
X9595400D01*
X2550000Y9890000D02*
X2702400Y9940800D01*
X2550000Y9890000D02*
X2702400Y9839200D01*
X8397600D02*
X8550000Y9890000D01*
X8397600Y9940800D02*
X8550000Y9890000D01*
X2550000D02*
X5113235D01*
X5905485D02*
X8550000D01*
X2550000Y8525000D02*
Y9915400D01*
X8550000Y8525000D02*
Y9915400D01*
D62*
X9534456Y5232653D02*
X9559848Y5181869D01*
X9610632Y5131085D01*
X9661415D01*
X9686807Y5156477D01*
Y5207261D01*
X9661415Y5232653D01*
X9636023D01*
X9610632Y5207261D01*
Y5131085D01*
X9559848Y5283436D02*
X9534456Y5308828D01*
Y5359612D01*
X9559848Y5385003D01*
X9661415D01*
X9686807Y5359612D01*
Y5308828D01*
X9661415Y5283436D01*
X9559848D01*
X9712199Y5461179D02*
X9686807Y5486570D01*
X9661415D01*
Y5461179D01*
X9686807D01*
Y5486570D01*
X9712199Y5461179D01*
X9737590Y5435787D01*
X9559848Y5588138D02*
X9534456Y5613530D01*
Y5664313D01*
X9559848Y5689705D01*
X9661415D01*
X9686807Y5664313D01*
Y5613530D01*
X9661415Y5588138D01*
X9559848D01*
Y5740488D02*
X9534456Y5765880D01*
Y5816664D01*
X9559848Y5842056D01*
X9661415D01*
X9686807Y5816664D01*
Y5765880D01*
X9661415Y5740488D01*
X9559848D01*
X5255442Y9925544D02*
X5204658Y9900152D01*
X5153875Y9849368D01*
Y9798585D01*
X5179267Y9773193D01*
X5230050D01*
X5255442Y9798585D01*
Y9823977D01*
X5230050Y9849368D01*
X5153875D01*
X5306226Y9900152D02*
X5331617Y9925544D01*
X5382401D01*
X5407793Y9900152D01*
Y9798585D01*
X5382401Y9773193D01*
X5331617D01*
X5306226Y9798585D01*
Y9900152D01*
X5483968Y9747801D02*
X5509360Y9773193D01*
Y9798585D01*
X5483968D01*
Y9773193D01*
X5509360D01*
X5483968Y9747801D01*
X5458576Y9722410D01*
X5610927Y9900152D02*
X5636319Y9925544D01*
X5687102D01*
X5712494Y9900152D01*
Y9798585D01*
X5687102Y9773193D01*
X5636319D01*
X5610927Y9798585D01*
Y9900152D01*
X5763278D02*
X5788670Y9925544D01*
X5839453D01*
X5864845Y9900152D01*
Y9798585D01*
X5839453Y9773193D01*
X5788670D01*
X5763278Y9798585D01*
Y9900152D01*
%TF.MD5,b74c4d4059b9ded69e0a39b8023719a1*%
M02*
