%TF.GenerationSoftware,Altium Limited,Altium Designer,24.7.2 (38)*%
G04 Layer_Color=32896*
%FSLAX45Y45*%
%MOMM*%
%TF.SameCoordinates,0E07C861-06C4-4886-B41C-83883A41DA48*%
%TF.FilePolarity,Positive*%
%TF.FileFunction,Legend,Bot*%
%TF.Part,Single*%
G01*
G75*
%TA.AperFunction,NonConductor*%
%ADD51C,0.25400*%
%ADD68C,0.25000*%
%ADD69C,0.60000*%
%ADD70C,0.20000*%
%ADD72C,0.10000*%
%ADD73C,0.12700*%
G36*
X6802081Y3279442D02*
X6807411D01*
Y3277665D01*
X6812741D01*
Y3275889D01*
X6818071D01*
Y3274112D01*
X6821624D01*
Y3272335D01*
X6826954D01*
Y3270559D01*
X6832284D01*
Y3268782D01*
X6835837D01*
Y3267005D01*
X6841167D01*
Y3265229D01*
X6846497D01*
Y3263452D01*
X6851827D01*
Y3261675D01*
X6855381D01*
Y3259899D01*
X6860711D01*
Y3258122D01*
X6866041D01*
Y3256345D01*
X6869594D01*
Y3254569D01*
X6874924D01*
Y3252792D01*
X6880254D01*
Y3251015D01*
X6885584D01*
Y3249239D01*
X6889137D01*
Y3247462D01*
X6894467D01*
Y3245685D01*
X6899797D01*
Y3243909D01*
X6903350D01*
Y3242132D01*
X6908680D01*
Y3240355D01*
X6914010D01*
Y3238579D01*
X6919340D01*
Y3236802D01*
X6922893D01*
Y3075127D01*
X6919340D01*
Y3073350D01*
X6914010D01*
Y3071574D01*
X6910457D01*
Y3069797D01*
X6905127D01*
Y3068021D01*
X6899797D01*
Y3066244D01*
X6896244D01*
Y3064467D01*
X6890914D01*
Y3062691D01*
X6885584D01*
Y3060914D01*
X6882030D01*
Y3059137D01*
X6876700D01*
Y3057361D01*
X6871371D01*
Y3055584D01*
X6866041D01*
Y3053807D01*
X6862487D01*
Y3052031D01*
X6857157D01*
Y3050254D01*
X6851827D01*
Y3048477D01*
X6848274D01*
Y3046701D01*
X6842944D01*
Y3044924D01*
X6841167D01*
Y3043147D01*
X6846497D01*
Y3041371D01*
X6850051D01*
Y3039594D01*
X6855381D01*
Y3037817D01*
X6860711D01*
Y3036041D01*
X6866041D01*
Y3034264D01*
X6869594D01*
Y3032487D01*
X6874924D01*
Y3030711D01*
X6880254D01*
Y3028934D01*
X6883807D01*
Y3027158D01*
X6889137D01*
Y3025381D01*
X6894467D01*
Y3023604D01*
X6899797D01*
Y3021828D01*
X6903350D01*
Y3020051D01*
X6908680D01*
Y3018274D01*
X6914010D01*
Y3016498D01*
X6917564D01*
Y3014721D01*
X6922893D01*
Y3011168D01*
X6921117D01*
Y3007614D01*
X6919340D01*
Y3005838D01*
X6917564D01*
Y3004061D01*
X6915787D01*
Y3000508D01*
X6914010D01*
Y2998731D01*
X6912234D01*
Y2995178D01*
X6910457D01*
Y2993401D01*
X6908680D01*
Y2991624D01*
X6906904D01*
Y2988071D01*
X6905127D01*
Y2986295D01*
X6903350D01*
Y2982741D01*
X6901574D01*
Y2980965D01*
X6899797D01*
Y2977411D01*
X6898020D01*
Y2975635D01*
X6896244D01*
Y2973858D01*
X6894467D01*
Y2970305D01*
X6892690D01*
Y2968528D01*
X6890914D01*
Y2966751D01*
X6887360D01*
Y2964975D01*
X6876700D01*
Y2966751D01*
X6867817D01*
Y2968528D01*
X6860711D01*
Y2970305D01*
X6853604D01*
Y2972081D01*
X6844721D01*
Y2973858D01*
X6837614D01*
Y2975635D01*
X6830508D01*
Y2977411D01*
X6823401D01*
Y2979188D01*
X6814518D01*
Y2980965D01*
X6807411D01*
Y2982741D01*
X6794974D01*
Y2980965D01*
X6793198D01*
Y2979188D01*
X6789645D01*
Y2975635D01*
X6787868D01*
Y2973858D01*
X6786091D01*
Y2972081D01*
X6784315D01*
Y2970305D01*
X6782538D01*
Y2968528D01*
X6780761D01*
Y2966751D01*
X6778985D01*
Y2964975D01*
X6777208D01*
Y2963198D01*
X6775431D01*
Y2961422D01*
X6773655D01*
Y2959645D01*
X6771878D01*
Y2957868D01*
X6770102D01*
Y2954315D01*
X6768325D01*
Y2952538D01*
X6766548D01*
Y2950762D01*
X6764772D01*
Y2948985D01*
X6762995D01*
Y2947208D01*
X6761218D01*
Y2945431D01*
X6759442D01*
Y2943655D01*
X6757665D01*
Y2940102D01*
X6755888D01*
Y2936548D01*
X6757665D01*
Y2932995D01*
X6759442D01*
Y2931218D01*
X6761218D01*
Y2929442D01*
X6762995D01*
Y2927665D01*
X6764772D01*
Y2925888D01*
X6766548D01*
Y2924112D01*
X6768325D01*
Y2920559D01*
X6770102D01*
Y2918782D01*
X6771878D01*
Y2917005D01*
X6773655D01*
Y2915229D01*
X6775431D01*
Y2913452D01*
X6777208D01*
Y2911675D01*
X6778985D01*
Y2909899D01*
X6780761D01*
Y2908122D01*
X6782538D01*
Y2906345D01*
X6784315D01*
Y2904569D01*
X6786091D01*
Y2902792D01*
X6787868D01*
Y2899239D01*
X6789645D01*
Y2897462D01*
X6793198D01*
Y2895685D01*
X6794974D01*
Y2893909D01*
X6807411D01*
Y2895685D01*
X6816294D01*
Y2897462D01*
X6823401D01*
Y2899239D01*
X6830508D01*
Y2901015D01*
X6837614D01*
Y2902792D01*
X6846497D01*
Y2904569D01*
X6853604D01*
Y2906345D01*
X6860711D01*
Y2908122D01*
X6869594D01*
Y2909899D01*
X6876700D01*
Y2911675D01*
X6887360D01*
Y2909899D01*
X6890914D01*
Y2908122D01*
X6892690D01*
Y2906345D01*
X6894467D01*
Y2902792D01*
X6896244D01*
Y2901015D01*
X6898020D01*
Y2899239D01*
X6899797D01*
Y2895685D01*
X6901574D01*
Y2893909D01*
X6903350D01*
Y2890355D01*
X6905127D01*
Y2888579D01*
X6906904D01*
Y2886802D01*
X6908680D01*
Y2883249D01*
X6910457D01*
Y2881472D01*
X6912234D01*
Y2877919D01*
X6914010D01*
Y2876142D01*
X6915787D01*
Y2872589D01*
X6917564D01*
Y2870812D01*
X6919340D01*
Y2869036D01*
X6921117D01*
Y2865482D01*
X6922893D01*
Y2861929D01*
X6917564D01*
Y2860153D01*
X6912234D01*
Y2858376D01*
X6908680D01*
Y2856599D01*
X6903350D01*
Y2854823D01*
X6898020D01*
Y2853046D01*
X6892690D01*
Y2851269D01*
X6889137D01*
Y2849492D01*
X6883807D01*
Y2847716D01*
X6878477D01*
Y2845939D01*
X6874924D01*
Y2844162D01*
X6869594D01*
Y2842386D01*
X6864264D01*
Y2840609D01*
X6860711D01*
Y2838833D01*
X6855381D01*
Y2837056D01*
X6850051D01*
Y2835279D01*
X6844721D01*
Y2833503D01*
X6841167D01*
Y2831726D01*
X6835837D01*
Y2828173D01*
X6841167D01*
Y2826396D01*
X6844721D01*
Y2824619D01*
X6850051D01*
Y2822843D01*
X6855381D01*
Y2821066D01*
X6858934D01*
Y2819290D01*
X6864264D01*
Y2817513D01*
X6867817D01*
Y2815736D01*
X6873147D01*
Y2813960D01*
X6878477D01*
Y2812183D01*
X6882030D01*
Y2810406D01*
X6887360D01*
Y2808630D01*
X6892690D01*
Y2806853D01*
X6896244D01*
Y2805076D01*
X6901574D01*
Y2803300D01*
X6905127D01*
Y2801523D01*
X6910457D01*
Y2799746D01*
X6915787D01*
Y2797970D01*
X6919340D01*
Y2796193D01*
X6922893D01*
Y2792640D01*
X6921117D01*
Y2790863D01*
X6919340D01*
Y2787310D01*
X6917564D01*
Y2785533D01*
X6915787D01*
Y2781980D01*
X6914010D01*
Y2780203D01*
X6912234D01*
Y2776650D01*
X6910457D01*
Y2774873D01*
X6908680D01*
Y2771320D01*
X6906904D01*
Y2769543D01*
X6905127D01*
Y2765990D01*
X6903350D01*
Y2764213D01*
X6901574D01*
Y2760660D01*
X6899797D01*
Y2758883D01*
X6898020D01*
Y2755330D01*
X6896244D01*
Y2753553D01*
X6894467D01*
Y2751777D01*
X6892690D01*
Y2750000D01*
X6890914D01*
Y2748223D01*
X6889137D01*
Y2746447D01*
X6885584D01*
Y2744670D01*
X6878477D01*
Y2746447D01*
X6871371D01*
Y2748223D01*
X6862487D01*
Y2750000D01*
X6855381D01*
Y2751777D01*
X6848274D01*
Y2753553D01*
X6841167D01*
Y2755330D01*
X6834061D01*
Y2757107D01*
X6826954D01*
Y2758883D01*
X6819848D01*
Y2760660D01*
X6812741D01*
Y2762437D01*
X6803858D01*
Y2764213D01*
X6798528D01*
Y2762437D01*
X6793198D01*
Y2760660D01*
X6791421D01*
Y2758883D01*
X6789645D01*
Y2757107D01*
X6787868D01*
Y2755330D01*
X6786091D01*
Y2753553D01*
X6784315D01*
Y2751777D01*
X6782538D01*
Y2748223D01*
X6780761D01*
Y2746447D01*
X6778985D01*
Y2744670D01*
X6777208D01*
Y2742893D01*
X6775431D01*
Y2741117D01*
X6773655D01*
Y2739340D01*
X6771878D01*
Y2737563D01*
X6770102D01*
Y2735787D01*
X6768325D01*
Y2732234D01*
X6766548D01*
Y2730457D01*
X6764772D01*
Y2728680D01*
X6762995D01*
Y2726904D01*
X6761218D01*
Y2725127D01*
X6759442D01*
Y2723350D01*
X6757665D01*
Y2719797D01*
X6755888D01*
Y2714467D01*
X6757665D01*
Y2712691D01*
X6759442D01*
Y2710914D01*
X6761218D01*
Y2707361D01*
X6762995D01*
Y2705584D01*
X6764772D01*
Y2703807D01*
X6766548D01*
Y2702031D01*
X6768325D01*
Y2700254D01*
X6770102D01*
Y2698477D01*
X6771878D01*
Y2696701D01*
X6773655D01*
Y2694924D01*
X6775431D01*
Y2691371D01*
X6777208D01*
Y2689594D01*
X6778985D01*
Y2687817D01*
X6780761D01*
Y2686041D01*
X6782538D01*
Y2684264D01*
X6784315D01*
Y2682487D01*
X6786091D01*
Y2680711D01*
X6787868D01*
Y2677157D01*
X6789645D01*
Y2675381D01*
X6791421D01*
Y2673604D01*
X6794974D01*
Y2671828D01*
X6809188D01*
Y2673604D01*
X6816294D01*
Y2675381D01*
X6823401D01*
Y2677157D01*
X6830508D01*
Y2678934D01*
X6837614D01*
Y2680711D01*
X6844721D01*
Y2682487D01*
X6851827D01*
Y2684264D01*
X6860711D01*
Y2686041D01*
X6867817D01*
Y2687817D01*
X6874924D01*
Y2689594D01*
X6887360D01*
Y2687817D01*
X6890914D01*
Y2686041D01*
X6892690D01*
Y2684264D01*
X6894467D01*
Y2680711D01*
X6896244D01*
Y2678934D01*
X6898020D01*
Y2675381D01*
X6899797D01*
Y2673604D01*
X6901574D01*
Y2671828D01*
X6903350D01*
Y2668274D01*
X6905127D01*
Y2666498D01*
X6906904D01*
Y2662944D01*
X6908680D01*
Y2661168D01*
X6910457D01*
Y2657614D01*
X6912234D01*
Y2655838D01*
X6914010D01*
Y2652284D01*
X6915787D01*
Y2650508D01*
X6917564D01*
Y2646954D01*
X6919340D01*
Y2645178D01*
X6921117D01*
Y2641624D01*
X6922893D01*
Y2639848D01*
X6921117D01*
Y2638071D01*
X6917564D01*
Y2636294D01*
X6912234D01*
Y2634518D01*
X6908680D01*
Y2632741D01*
X6903350D01*
Y2630965D01*
X6898020D01*
Y2629188D01*
X6894467D01*
Y2627411D01*
X6889137D01*
Y2625635D01*
X6885584D01*
Y2623858D01*
X6880254D01*
Y2622081D01*
X6874924D01*
Y2620305D01*
X6871371D01*
Y2618528D01*
X6866041D01*
Y2616751D01*
X6862487D01*
Y2614975D01*
X6857157D01*
Y2613198D01*
X6851827D01*
Y2611421D01*
X6848274D01*
Y2609645D01*
X6842944D01*
Y2607868D01*
X6839391D01*
Y2606092D01*
X6834061D01*
Y2604315D01*
X6828731D01*
Y2602538D01*
X6825178D01*
Y2600762D01*
X6819848D01*
Y2598985D01*
X6814518D01*
Y2597208D01*
X6810965D01*
Y2595431D01*
X6803858D01*
Y2597208D01*
X6798528D01*
Y2598985D01*
X6794974D01*
Y2600762D01*
X6789645D01*
Y2602538D01*
X6786091D01*
Y2604315D01*
X6780761D01*
Y2606092D01*
X6775431D01*
Y2607868D01*
X6771878D01*
Y2609645D01*
X6766548D01*
Y2611421D01*
X6762995D01*
Y2613198D01*
X6757665D01*
Y2614975D01*
X6752335D01*
Y2616751D01*
X6748782D01*
Y2618528D01*
X6743452D01*
Y2620305D01*
X6739898D01*
Y2622081D01*
X6734568D01*
Y2623858D01*
X6729239D01*
Y2625635D01*
X6725685D01*
Y2627411D01*
X6720355D01*
Y2629188D01*
X6716802D01*
Y2630965D01*
X6711472D01*
Y2632741D01*
X6706142D01*
Y2634518D01*
X6702589D01*
Y2636294D01*
X6695482D01*
Y2634518D01*
X6690152D01*
Y2632741D01*
X6684822D01*
Y2630965D01*
X6679492D01*
Y2629188D01*
X6675939D01*
Y2627411D01*
X6670609D01*
Y2625635D01*
X6665279D01*
Y2623858D01*
X6659949D01*
Y2622081D01*
X6654619D01*
Y2620305D01*
X6651066D01*
Y2618528D01*
X6645736D01*
Y2616751D01*
X6640406D01*
Y2614975D01*
X6635076D01*
Y2613198D01*
X6631523D01*
Y2611421D01*
X6626193D01*
Y2609645D01*
X6620863D01*
Y2607868D01*
X6615533D01*
Y2606092D01*
X6611980D01*
Y2604315D01*
X6606650D01*
Y2602538D01*
X6601320D01*
Y2600762D01*
X6595990D01*
Y2598985D01*
X6590660D01*
Y2597208D01*
X6587106D01*
Y2595431D01*
X6580000D01*
Y2597208D01*
X6574670D01*
Y2598985D01*
X6569340D01*
Y2600762D01*
X6565787D01*
Y2602538D01*
X6560457D01*
Y2604315D01*
X6555127D01*
Y2606092D01*
X6549797D01*
Y2607868D01*
X6546244D01*
Y2609645D01*
X6540914D01*
Y2611421D01*
X6535584D01*
Y2613198D01*
X6532030D01*
Y2614975D01*
X6526700D01*
Y2616751D01*
X6521370D01*
Y2618528D01*
X6517817D01*
Y2620305D01*
X6512487D01*
Y2622081D01*
X6507157D01*
Y2623858D01*
X6503604D01*
Y2625635D01*
X6498274D01*
Y2627411D01*
X6492944D01*
Y2629188D01*
X6489391D01*
Y2630965D01*
X6484061D01*
Y2632741D01*
X6478731D01*
Y2634518D01*
X6473401D01*
Y2636294D01*
X6464518D01*
Y2634518D01*
X6459188D01*
Y2632741D01*
X6455635D01*
Y2630965D01*
X6450305D01*
Y2629188D01*
X6444974D01*
Y2627411D01*
X6441421D01*
Y2625635D01*
X6436091D01*
Y2623858D01*
X6430761D01*
Y2622081D01*
X6427208D01*
Y2620305D01*
X6421878D01*
Y2618528D01*
X6418325D01*
Y2616751D01*
X6412995D01*
Y2614975D01*
X6407665D01*
Y2613198D01*
X6404112D01*
Y2611421D01*
X6398782D01*
Y2609645D01*
X6395228D01*
Y2607868D01*
X6389898D01*
Y2606092D01*
X6384568D01*
Y2604315D01*
X6381015D01*
Y2602538D01*
X6375685D01*
Y2600762D01*
X6370355D01*
Y2598985D01*
X6366802D01*
Y2597208D01*
X6361472D01*
Y2595431D01*
X6354365D01*
Y2597208D01*
X6350812D01*
Y2598985D01*
X6345482D01*
Y2600762D01*
X6340152D01*
Y2602538D01*
X6336599D01*
Y2604315D01*
X6331269D01*
Y2606092D01*
X6327716D01*
Y2607868D01*
X6322386D01*
Y2609645D01*
X6317056D01*
Y2611421D01*
X6313502D01*
Y2613198D01*
X6308173D01*
Y2614975D01*
X6304619D01*
Y2616751D01*
X6299289D01*
Y2618528D01*
X6293959D01*
Y2620305D01*
X6290406D01*
Y2622081D01*
X6285076D01*
Y2623858D01*
X6281523D01*
Y2625635D01*
X6276193D01*
Y2627411D01*
X6270863D01*
Y2629188D01*
X6267310D01*
Y2630965D01*
X6261980D01*
Y2632741D01*
X6258426D01*
Y2634518D01*
X6253096D01*
Y2636294D01*
X6247766D01*
Y2638071D01*
X6244213D01*
Y2639848D01*
X6242436D01*
Y2641624D01*
X6244213D01*
Y2645178D01*
X6245990D01*
Y2646954D01*
X6247766D01*
Y2648731D01*
X6249543D01*
Y2652284D01*
X6251320D01*
Y2654061D01*
X6253096D01*
Y2657614D01*
X6254873D01*
Y2659391D01*
X6256650D01*
Y2662944D01*
X6258426D01*
Y2664721D01*
X6260203D01*
Y2668274D01*
X6261980D01*
Y2670051D01*
X6263756D01*
Y2673604D01*
X6265533D01*
Y2675381D01*
X6267310D01*
Y2678934D01*
X6269086D01*
Y2680711D01*
X6270863D01*
Y2682487D01*
X6272639D01*
Y2686041D01*
X6276193D01*
Y2687817D01*
X6277969D01*
Y2689594D01*
X6290406D01*
Y2687817D01*
X6297513D01*
Y2686041D01*
X6306396D01*
Y2684264D01*
X6313502D01*
Y2682487D01*
X6320609D01*
Y2680711D01*
X6327716D01*
Y2678934D01*
X6334822D01*
Y2677157D01*
X6341929D01*
Y2675381D01*
X6349035D01*
Y2673604D01*
X6357919D01*
Y2671828D01*
X6370355D01*
Y2673604D01*
X6373909D01*
Y2675381D01*
X6375685D01*
Y2677157D01*
X6377462D01*
Y2678934D01*
X6379238D01*
Y2680711D01*
X6381015D01*
Y2684264D01*
X6382792D01*
Y2686041D01*
X6384568D01*
Y2687817D01*
X6386345D01*
Y2689594D01*
X6388122D01*
Y2691371D01*
X6389898D01*
Y2693147D01*
X6391675D01*
Y2694924D01*
X6393452D01*
Y2696701D01*
X6395228D01*
Y2700254D01*
X6397005D01*
Y2702031D01*
X6398782D01*
Y2703807D01*
X6400558D01*
Y2705584D01*
X6402335D01*
Y2707361D01*
X6404112D01*
Y2709137D01*
X6405888D01*
Y2710914D01*
X6407665D01*
Y2714467D01*
X6409442D01*
Y2721574D01*
X6407665D01*
Y2723350D01*
X6405888D01*
Y2725127D01*
X6404112D01*
Y2726904D01*
X6402335D01*
Y2730457D01*
X6400558D01*
Y2732234D01*
X6398782D01*
Y2734010D01*
X6397005D01*
Y2735787D01*
X6395228D01*
Y2737563D01*
X6393452D01*
Y2739340D01*
X6391675D01*
Y2741117D01*
X6389898D01*
Y2742893D01*
X6388122D01*
Y2746447D01*
X6386345D01*
Y2748223D01*
X6384568D01*
Y2750000D01*
X6382792D01*
Y2751777D01*
X6381015D01*
Y2753553D01*
X6379238D01*
Y2755330D01*
X6377462D01*
Y2757107D01*
X6375685D01*
Y2758883D01*
X6373909D01*
Y2760660D01*
X6372132D01*
Y2762437D01*
X6366802D01*
Y2764213D01*
X6361472D01*
Y2762437D01*
X6354365D01*
Y2760660D01*
X6347259D01*
Y2758883D01*
X6338375D01*
Y2757107D01*
X6331269D01*
Y2755330D01*
X6324162D01*
Y2753553D01*
X6317056D01*
Y2751777D01*
X6309949D01*
Y2750000D01*
X6302843D01*
Y2748223D01*
X6293959D01*
Y2746447D01*
X6286853D01*
Y2744670D01*
X6279746D01*
Y2746447D01*
X6276193D01*
Y2748223D01*
X6274416D01*
Y2750000D01*
X6272639D01*
Y2751777D01*
X6270863D01*
Y2753553D01*
X6269086D01*
Y2757107D01*
X6267310D01*
Y2758883D01*
X6265533D01*
Y2762437D01*
X6263756D01*
Y2764213D01*
X6261980D01*
Y2767767D01*
X6260203D01*
Y2769543D01*
X6258426D01*
Y2773097D01*
X6256650D01*
Y2774873D01*
X6254873D01*
Y2776650D01*
X6253096D01*
Y2780203D01*
X6251320D01*
Y2781980D01*
X6249543D01*
Y2785533D01*
X6247766D01*
Y2787310D01*
X6245990D01*
Y2790863D01*
X6244213D01*
Y2792640D01*
X6242436D01*
Y2796193D01*
X6245990D01*
Y2797970D01*
X6249543D01*
Y2799746D01*
X6254873D01*
Y2801523D01*
X6260203D01*
Y2803300D01*
X6263756D01*
Y2805076D01*
X6269086D01*
Y2806853D01*
X6272639D01*
Y2808630D01*
X6277969D01*
Y2810406D01*
X6283299D01*
Y2812183D01*
X6286853D01*
Y2813960D01*
X6292183D01*
Y2815736D01*
X6297513D01*
Y2817513D01*
X6301066D01*
Y2819290D01*
X6306396D01*
Y2821066D01*
X6309949D01*
Y2822843D01*
X6315279D01*
Y2824619D01*
X6320609D01*
Y2826396D01*
X6324162D01*
Y2828173D01*
X6329492D01*
Y2829949D01*
X6327716D01*
Y2831726D01*
X6324162D01*
Y2833503D01*
X6318832D01*
Y2835279D01*
X6313502D01*
Y2837056D01*
X6308173D01*
Y2838833D01*
X6304619D01*
Y2840609D01*
X6299289D01*
Y2842386D01*
X6293959D01*
Y2844162D01*
X6290406D01*
Y2845939D01*
X6285076D01*
Y2847716D01*
X6279746D01*
Y2849492D01*
X6274416D01*
Y2851269D01*
X6270863D01*
Y2853046D01*
X6265533D01*
Y2854823D01*
X6260203D01*
Y2856599D01*
X6256650D01*
Y2858376D01*
X6251320D01*
Y2860153D01*
X6245990D01*
Y2861929D01*
X6242436D01*
Y2865482D01*
X6244213D01*
Y2867259D01*
X6245990D01*
Y2869036D01*
X6247766D01*
Y2872589D01*
X6249543D01*
Y2874366D01*
X6251320D01*
Y2877919D01*
X6253096D01*
Y2879696D01*
X6254873D01*
Y2881472D01*
X6256650D01*
Y2885025D01*
X6258426D01*
Y2886802D01*
X6260203D01*
Y2890355D01*
X6261980D01*
Y2892132D01*
X6263756D01*
Y2893909D01*
X6265533D01*
Y2897462D01*
X6267310D01*
Y2899239D01*
X6269086D01*
Y2902792D01*
X6270863D01*
Y2904569D01*
X6272639D01*
Y2906345D01*
X6274416D01*
Y2908122D01*
X6276193D01*
Y2909899D01*
X6279746D01*
Y2911675D01*
X6286853D01*
Y2909899D01*
X6295736D01*
Y2908122D01*
X6302843D01*
Y2906345D01*
X6309949D01*
Y2904569D01*
X6318832D01*
Y2902792D01*
X6325939D01*
Y2901015D01*
X6333045D01*
Y2899239D01*
X6340152D01*
Y2897462D01*
X6349035D01*
Y2895685D01*
X6356142D01*
Y2893909D01*
X6370355D01*
Y2895685D01*
X6373909D01*
Y2897462D01*
X6375685D01*
Y2899239D01*
X6377462D01*
Y2901015D01*
X6379238D01*
Y2902792D01*
X6381015D01*
Y2904569D01*
X6382792D01*
Y2906345D01*
X6384568D01*
Y2908122D01*
X6386345D01*
Y2909899D01*
X6388122D01*
Y2913452D01*
X6389898D01*
Y2915229D01*
X6391675D01*
Y2917005D01*
X6393452D01*
Y2918782D01*
X6395228D01*
Y2920559D01*
X6397005D01*
Y2922335D01*
X6398782D01*
Y2924112D01*
X6400558D01*
Y2925888D01*
X6402335D01*
Y2927665D01*
X6404112D01*
Y2929442D01*
X6405888D01*
Y2931218D01*
X6407665D01*
Y2934772D01*
X6409442D01*
Y2941878D01*
X6407665D01*
Y2943655D01*
X6405888D01*
Y2945431D01*
X6404112D01*
Y2947208D01*
X6402335D01*
Y2948985D01*
X6400558D01*
Y2950762D01*
X6398782D01*
Y2952538D01*
X6397005D01*
Y2956092D01*
X6395228D01*
Y2957868D01*
X6393452D01*
Y2959645D01*
X6391675D01*
Y2961422D01*
X6389898D01*
Y2963198D01*
X6388122D01*
Y2964975D01*
X6386345D01*
Y2966751D01*
X6384568D01*
Y2968528D01*
X6382792D01*
Y2970305D01*
X6381015D01*
Y2972081D01*
X6379238D01*
Y2973858D01*
X6377462D01*
Y2977411D01*
X6375685D01*
Y2979188D01*
X6372132D01*
Y2980965D01*
X6368579D01*
Y2982741D01*
X6359695D01*
Y2980965D01*
X6352589D01*
Y2979188D01*
X6345482D01*
Y2977411D01*
X6336599D01*
Y2975635D01*
X6329492D01*
Y2973858D01*
X6322386D01*
Y2972081D01*
X6313502D01*
Y2970305D01*
X6306396D01*
Y2968528D01*
X6297513D01*
Y2966751D01*
X6290406D01*
Y2964975D01*
X6277969D01*
Y2966751D01*
X6276193D01*
Y2968528D01*
X6272639D01*
Y2972081D01*
X6270863D01*
Y2973858D01*
X6269086D01*
Y2975635D01*
X6267310D01*
Y2979188D01*
X6265533D01*
Y2980965D01*
X6263756D01*
Y2984518D01*
X6261980D01*
Y2986295D01*
X6260203D01*
Y2988071D01*
X6258426D01*
Y2991624D01*
X6256650D01*
Y2993401D01*
X6254873D01*
Y2996954D01*
X6253096D01*
Y2998731D01*
X6251320D01*
Y3000508D01*
X6249543D01*
Y3004061D01*
X6247766D01*
Y3005838D01*
X6245990D01*
Y3009391D01*
X6244213D01*
Y3011168D01*
X6242436D01*
Y3012944D01*
X6244213D01*
Y3014721D01*
X6247766D01*
Y3016498D01*
X6253096D01*
Y3018274D01*
X6258426D01*
Y3020051D01*
X6261980D01*
Y3021828D01*
X6267310D01*
Y3023604D01*
X6272639D01*
Y3025381D01*
X6277969D01*
Y3027158D01*
X6281523D01*
Y3028934D01*
X6286853D01*
Y3030711D01*
X6292183D01*
Y3032487D01*
X6295736D01*
Y3034264D01*
X6301066D01*
Y3036041D01*
X6306396D01*
Y3037817D01*
X6311726D01*
Y3039594D01*
X6315279D01*
Y3041371D01*
X6320609D01*
Y3043147D01*
X6325939D01*
Y3044924D01*
X6324162D01*
Y3046701D01*
X6318832D01*
Y3048477D01*
X6315279D01*
Y3050254D01*
X6309949D01*
Y3052031D01*
X6304619D01*
Y3053807D01*
X6299289D01*
Y3055584D01*
X6295736D01*
Y3057361D01*
X6290406D01*
Y3059137D01*
X6285076D01*
Y3060914D01*
X6279746D01*
Y3062691D01*
X6274416D01*
Y3064467D01*
X6270863D01*
Y3066244D01*
X6265533D01*
Y3068021D01*
X6260203D01*
Y3069797D01*
X6254873D01*
Y3071574D01*
X6251320D01*
Y3073350D01*
X6245990D01*
Y3075127D01*
X6242436D01*
Y3236802D01*
X6247766D01*
Y3238579D01*
X6251320D01*
Y3240355D01*
X6256650D01*
Y3242132D01*
X6261980D01*
Y3243909D01*
X6265533D01*
Y3245685D01*
X6270863D01*
Y3247462D01*
X6276193D01*
Y3249239D01*
X6281523D01*
Y3251015D01*
X6285076D01*
Y3252792D01*
X6290406D01*
Y3254569D01*
X6295736D01*
Y3256345D01*
X6299289D01*
Y3258122D01*
X6304619D01*
Y3259899D01*
X6309949D01*
Y3261675D01*
X6315279D01*
Y3263452D01*
X6318832D01*
Y3265229D01*
X6324162D01*
Y3267005D01*
X6329492D01*
Y3268782D01*
X6333045D01*
Y3270559D01*
X6338375D01*
Y3272335D01*
X6343705D01*
Y3274112D01*
X6349035D01*
Y3275889D01*
X6352589D01*
Y3277665D01*
X6357919D01*
Y3279442D01*
X6363249D01*
Y3281218D01*
X6370355D01*
Y3279442D01*
X6373909D01*
Y3277665D01*
X6379238D01*
Y3275889D01*
X6384568D01*
Y3274112D01*
X6389898D01*
Y3272335D01*
X6393452D01*
Y3270559D01*
X6398782D01*
Y3268782D01*
X6404112D01*
Y3267005D01*
X6407665D01*
Y3265229D01*
X6412995D01*
Y3263452D01*
X6418325D01*
Y3261675D01*
X6423655D01*
Y3259899D01*
X6427208D01*
Y3258122D01*
X6432538D01*
Y3256345D01*
X6437868D01*
Y3254569D01*
X6443198D01*
Y3252792D01*
X6446751D01*
Y3251015D01*
X6452081D01*
Y3249239D01*
X6457411D01*
Y3247462D01*
X6460964D01*
Y3245685D01*
X6466294D01*
Y3243909D01*
X6471624D01*
Y3242132D01*
X6476954D01*
Y3243909D01*
X6482284D01*
Y3245685D01*
X6487614D01*
Y3247462D01*
X6491167D01*
Y3249239D01*
X6496497D01*
Y3251015D01*
X6501827D01*
Y3252792D01*
X6507157D01*
Y3254569D01*
X6510711D01*
Y3256345D01*
X6516041D01*
Y3258122D01*
X6521370D01*
Y3259899D01*
X6526700D01*
Y3261675D01*
X6530254D01*
Y3263452D01*
X6535584D01*
Y3265229D01*
X6540914D01*
Y3267005D01*
X6544467D01*
Y3268782D01*
X6549797D01*
Y3270559D01*
X6555127D01*
Y3272335D01*
X6560457D01*
Y3274112D01*
X6564010D01*
Y3275889D01*
X6569340D01*
Y3277665D01*
X6574670D01*
Y3279442D01*
X6580000D01*
Y3281218D01*
X6587106D01*
Y3279442D01*
X6590660D01*
Y3277665D01*
X6595990D01*
Y3275889D01*
X6601320D01*
Y3274112D01*
X6606650D01*
Y3272335D01*
X6610203D01*
Y3270559D01*
X6615533D01*
Y3268782D01*
X6620863D01*
Y3267005D01*
X6624416D01*
Y3265229D01*
X6629746D01*
Y3263452D01*
X6635076D01*
Y3261675D01*
X6640406D01*
Y3259899D01*
X6643959D01*
Y3258122D01*
X6649289D01*
Y3256345D01*
X6654619D01*
Y3254569D01*
X6658173D01*
Y3252792D01*
X6663503D01*
Y3251015D01*
X6668832D01*
Y3249239D01*
X6674162D01*
Y3247462D01*
X6677716D01*
Y3245685D01*
X6683046D01*
Y3243909D01*
X6688375D01*
Y3242132D01*
X6693705D01*
Y3243909D01*
X6699035D01*
Y3245685D01*
X6704366D01*
Y3247462D01*
X6707919D01*
Y3249239D01*
X6713249D01*
Y3251015D01*
X6718579D01*
Y3252792D01*
X6723909D01*
Y3254569D01*
X6727462D01*
Y3256345D01*
X6732792D01*
Y3258122D01*
X6738122D01*
Y3259899D01*
X6741675D01*
Y3261675D01*
X6747005D01*
Y3263452D01*
X6752335D01*
Y3265229D01*
X6757665D01*
Y3267005D01*
X6761218D01*
Y3268782D01*
X6766548D01*
Y3270559D01*
X6771878D01*
Y3272335D01*
X6777208D01*
Y3274112D01*
X6780761D01*
Y3275889D01*
X6786091D01*
Y3277665D01*
X6791421D01*
Y3279442D01*
X6794974D01*
Y3281218D01*
X6802081D01*
Y3279442D01*
D02*
G37*
%LPC*%
G36*
X6588883Y3263452D02*
X6578223D01*
Y3261675D01*
X6572893D01*
Y3259899D01*
X6567563D01*
Y3258122D01*
X6562234D01*
Y3256345D01*
X6558680D01*
Y3254569D01*
X6553350D01*
Y3252792D01*
X6548020D01*
Y3251015D01*
X6542690D01*
Y3249239D01*
X6539137D01*
Y3247462D01*
X6533807D01*
Y3245685D01*
X6528477D01*
Y3243909D01*
X6524924D01*
Y3242132D01*
X6519594D01*
Y3240355D01*
X6514264D01*
Y3238579D01*
X6508934D01*
Y3236802D01*
X6505381D01*
Y3235026D01*
X6500051D01*
Y3233249D01*
X6494721D01*
Y3231472D01*
X6489391D01*
Y3229696D01*
X6485837D01*
Y3227919D01*
X6480507D01*
Y3226142D01*
X6476954D01*
Y3224366D01*
X6480507D01*
Y3222589D01*
X6485837D01*
Y3220812D01*
X6489391D01*
Y3219036D01*
X6494721D01*
Y3217259D01*
X6500051D01*
Y3215483D01*
X6505381D01*
Y3213706D01*
X6508934D01*
Y3211929D01*
X6514264D01*
Y3210153D01*
X6519594D01*
Y3208376D01*
X6523147D01*
Y3206599D01*
X6528477D01*
Y3204823D01*
X6533807D01*
Y3203046D01*
X6539137D01*
Y3201269D01*
X6542690D01*
Y3199492D01*
X6548020D01*
Y3197716D01*
X6553350D01*
Y3195939D01*
X6558680D01*
Y3194163D01*
X6562234D01*
Y3192386D01*
X6567563D01*
Y3190609D01*
X6572893D01*
Y3188833D01*
X6578223D01*
Y3187056D01*
X6588883D01*
Y3188833D01*
X6592436D01*
Y3190609D01*
X6597766D01*
Y3192386D01*
X6603096D01*
Y3194163D01*
X6608426D01*
Y3195939D01*
X6611980D01*
Y3197716D01*
X6617310D01*
Y3199492D01*
X6622640D01*
Y3201269D01*
X6626193D01*
Y3203046D01*
X6631523D01*
Y3204823D01*
X6636853D01*
Y3206599D01*
X6642183D01*
Y3208376D01*
X6645736D01*
Y3210153D01*
X6651066D01*
Y3211929D01*
X6656396D01*
Y3213706D01*
X6661726D01*
Y3215483D01*
X6665279D01*
Y3217259D01*
X6670609D01*
Y3219036D01*
X6675939D01*
Y3220812D01*
X6681269D01*
Y3222589D01*
X6684822D01*
Y3224366D01*
X6688375D01*
Y3226142D01*
X6686599D01*
Y3227919D01*
X6681269D01*
Y3229696D01*
X6675939D01*
Y3231472D01*
X6670609D01*
Y3233249D01*
X6667056D01*
Y3235026D01*
X6661726D01*
Y3236802D01*
X6656396D01*
Y3238579D01*
X6651066D01*
Y3240355D01*
X6647513D01*
Y3242132D01*
X6642183D01*
Y3243909D01*
X6636853D01*
Y3245685D01*
X6631523D01*
Y3247462D01*
X6627969D01*
Y3249239D01*
X6622640D01*
Y3251015D01*
X6617310D01*
Y3252792D01*
X6613756D01*
Y3254569D01*
X6608426D01*
Y3256345D01*
X6603096D01*
Y3258122D01*
X6597766D01*
Y3259899D01*
X6594213D01*
Y3261675D01*
X6588883D01*
Y3263452D01*
D02*
G37*
G36*
X6366802Y3265229D02*
X6365025D01*
Y3263452D01*
X6361472D01*
Y3261675D01*
X6356142D01*
Y3259899D01*
X6350812D01*
Y3258122D01*
X6345482D01*
Y3256345D01*
X6341929D01*
Y3254569D01*
X6336599D01*
Y3252792D01*
X6331269D01*
Y3251015D01*
X6325939D01*
Y3249239D01*
X6322386D01*
Y3247462D01*
X6317056D01*
Y3245685D01*
X6311726D01*
Y3243909D01*
X6308173D01*
Y3242132D01*
X6302843D01*
Y3240355D01*
X6297513D01*
Y3238579D01*
X6292183D01*
Y3236802D01*
X6288629D01*
Y3235026D01*
X6283299D01*
Y3233249D01*
X6277969D01*
Y3231472D01*
X6272639D01*
Y3229696D01*
X6269086D01*
Y3227919D01*
X6263756D01*
Y3226142D01*
X6260203D01*
Y3224366D01*
X6263756D01*
Y3222589D01*
X6269086D01*
Y3220812D01*
X6272639D01*
Y3219036D01*
X6277969D01*
Y3217259D01*
X6283299D01*
Y3215483D01*
X6288629D01*
Y3213706D01*
X6292183D01*
Y3211929D01*
X6297513D01*
Y3210153D01*
X6302843D01*
Y3208376D01*
X6308173D01*
Y3206599D01*
X6311726D01*
Y3204823D01*
X6317056D01*
Y3203046D01*
X6322386D01*
Y3201269D01*
X6327716D01*
Y3199492D01*
X6331269D01*
Y3197716D01*
X6336599D01*
Y3195939D01*
X6341929D01*
Y3194163D01*
X6347259D01*
Y3192386D01*
X6350812D01*
Y3190609D01*
X6356142D01*
Y3188833D01*
X6361472D01*
Y3187056D01*
X6372132D01*
Y3188833D01*
X6375685D01*
Y3190609D01*
X6381015D01*
Y3192386D01*
X6386345D01*
Y3194163D01*
X6391675D01*
Y3195939D01*
X6395228D01*
Y3197716D01*
X6400558D01*
Y3199492D01*
X6405888D01*
Y3201269D01*
X6411218D01*
Y3203046D01*
X6414772D01*
Y3204823D01*
X6420101D01*
Y3206599D01*
X6425431D01*
Y3208376D01*
X6428985D01*
Y3210153D01*
X6434315D01*
Y3211929D01*
X6439644D01*
Y3213706D01*
X6444974D01*
Y3215483D01*
X6448528D01*
Y3217259D01*
X6453858D01*
Y3219036D01*
X6459188D01*
Y3220812D01*
X6464518D01*
Y3222589D01*
X6468071D01*
Y3224366D01*
X6471624D01*
Y3226142D01*
X6468071D01*
Y3227919D01*
X6464518D01*
Y3229696D01*
X6459188D01*
Y3231472D01*
X6453858D01*
Y3233249D01*
X6450305D01*
Y3235026D01*
X6444974D01*
Y3236802D01*
X6439644D01*
Y3238579D01*
X6434315D01*
Y3240355D01*
X6430761D01*
Y3242132D01*
X6425431D01*
Y3243909D01*
X6420101D01*
Y3245685D01*
X6414772D01*
Y3247462D01*
X6411218D01*
Y3249239D01*
X6405888D01*
Y3251015D01*
X6400558D01*
Y3252792D01*
X6395228D01*
Y3254569D01*
X6391675D01*
Y3256345D01*
X6386345D01*
Y3258122D01*
X6381015D01*
Y3259899D01*
X6377462D01*
Y3261675D01*
X6372132D01*
Y3263452D01*
X6366802D01*
Y3265229D01*
D02*
G37*
G36*
X6805635Y3263452D02*
X6794974D01*
Y3261675D01*
X6789645D01*
Y3259899D01*
X6784315D01*
Y3258122D01*
X6778985D01*
Y3256345D01*
X6775431D01*
Y3254569D01*
X6770102D01*
Y3252792D01*
X6764772D01*
Y3251015D01*
X6759442D01*
Y3249239D01*
X6755888D01*
Y3247462D01*
X6750558D01*
Y3245685D01*
X6745228D01*
Y3243909D01*
X6741675D01*
Y3242132D01*
X6736345D01*
Y3240355D01*
X6731015D01*
Y3238579D01*
X6725685D01*
Y3236802D01*
X6722132D01*
Y3235026D01*
X6716802D01*
Y3233249D01*
X6711472D01*
Y3231472D01*
X6706142D01*
Y3229696D01*
X6702589D01*
Y3227919D01*
X6697259D01*
Y3226142D01*
X6693705D01*
Y3224366D01*
X6697259D01*
Y3222589D01*
X6700812D01*
Y3220812D01*
X6706142D01*
Y3219036D01*
X6711472D01*
Y3217259D01*
X6716802D01*
Y3215483D01*
X6720355D01*
Y3213706D01*
X6725685D01*
Y3211929D01*
X6731015D01*
Y3210153D01*
X6734568D01*
Y3208376D01*
X6739898D01*
Y3206599D01*
X6745228D01*
Y3204823D01*
X6750558D01*
Y3203046D01*
X6754112D01*
Y3201269D01*
X6759442D01*
Y3199492D01*
X6764772D01*
Y3197716D01*
X6770102D01*
Y3195939D01*
X6773655D01*
Y3194163D01*
X6778985D01*
Y3192386D01*
X6784315D01*
Y3190609D01*
X6787868D01*
Y3188833D01*
X6793198D01*
Y3187056D01*
X6798528D01*
Y3185279D01*
X6800305D01*
Y3187056D01*
X6805635D01*
Y3188833D01*
X6810965D01*
Y3190609D01*
X6814518D01*
Y3192386D01*
X6819848D01*
Y3194163D01*
X6825178D01*
Y3195939D01*
X6828731D01*
Y3197716D01*
X6834061D01*
Y3199492D01*
X6839391D01*
Y3201269D01*
X6844721D01*
Y3203046D01*
X6848274D01*
Y3204823D01*
X6853604D01*
Y3206599D01*
X6858934D01*
Y3208376D01*
X6864264D01*
Y3210153D01*
X6867817D01*
Y3211929D01*
X6873147D01*
Y3213706D01*
X6878477D01*
Y3215483D01*
X6883807D01*
Y3217259D01*
X6887360D01*
Y3219036D01*
X6892690D01*
Y3220812D01*
X6898020D01*
Y3222589D01*
X6901574D01*
Y3224366D01*
X6906904D01*
Y3226142D01*
X6903350D01*
Y3227919D01*
X6898020D01*
Y3229696D01*
X6892690D01*
Y3231472D01*
X6887360D01*
Y3233249D01*
X6883807D01*
Y3235026D01*
X6878477D01*
Y3236802D01*
X6873147D01*
Y3238579D01*
X6867817D01*
Y3240355D01*
X6864264D01*
Y3242132D01*
X6858934D01*
Y3243909D01*
X6853604D01*
Y3245685D01*
X6848274D01*
Y3247462D01*
X6844721D01*
Y3249239D01*
X6839391D01*
Y3251015D01*
X6834061D01*
Y3252792D01*
X6830508D01*
Y3254569D01*
X6825178D01*
Y3256345D01*
X6819848D01*
Y3258122D01*
X6814518D01*
Y3259899D01*
X6810965D01*
Y3261675D01*
X6805635D01*
Y3263452D01*
D02*
G37*
G36*
X6608426Y3037817D02*
X6599543D01*
Y3036041D01*
X6594213D01*
Y3034264D01*
X6588883D01*
Y3032487D01*
X6583553D01*
Y3030711D01*
X6580000D01*
Y3032487D01*
X6574670D01*
Y3034264D01*
X6569340D01*
Y3036041D01*
X6565787D01*
Y3037817D01*
X6555127D01*
Y3036041D01*
X6551574D01*
Y3034264D01*
X6546244D01*
Y3032487D01*
X6540914D01*
Y3030711D01*
X6535584D01*
Y3028934D01*
X6532030D01*
Y3027158D01*
X6526700D01*
Y3025381D01*
X6521370D01*
Y3023604D01*
X6517817D01*
Y3021828D01*
X6512487D01*
Y3020051D01*
X6507157D01*
Y3018274D01*
X6503604D01*
Y3016498D01*
X6498274D01*
Y3014721D01*
X6492944D01*
Y3012944D01*
X6487614D01*
Y3011168D01*
X6484061D01*
Y3009391D01*
X6478731D01*
Y3007614D01*
X6476954D01*
Y3005838D01*
X6482284D01*
Y3004061D01*
X6487614D01*
Y3002284D01*
X6491167D01*
Y3000508D01*
X6496497D01*
Y2998731D01*
X6501827D01*
Y2996954D01*
X6505381D01*
Y2995178D01*
X6510711D01*
Y2993401D01*
X6516041D01*
Y2991624D01*
X6521370D01*
Y2989848D01*
X6524924D01*
Y2988071D01*
X6530254D01*
Y2986295D01*
X6535584D01*
Y2984518D01*
X6540914D01*
Y2982741D01*
X6544467D01*
Y2980965D01*
X6549797D01*
Y2979188D01*
X6555127D01*
Y2977411D01*
X6560457D01*
Y2975635D01*
X6564010D01*
Y2973858D01*
X6569340D01*
Y2972081D01*
X6574670D01*
Y2970305D01*
X6580000D01*
Y2968528D01*
X6587106D01*
Y2970305D01*
X6592436D01*
Y2972081D01*
X6595990D01*
Y2973858D01*
X6601320D01*
Y2975635D01*
X6606650D01*
Y2977411D01*
X6610203D01*
Y2979188D01*
X6615533D01*
Y2980965D01*
X6620863D01*
Y2982741D01*
X6624416D01*
Y2984518D01*
X6629746D01*
Y2986295D01*
X6635076D01*
Y2988071D01*
X6640406D01*
Y2989848D01*
X6643959D01*
Y2991624D01*
X6649289D01*
Y2993401D01*
X6654619D01*
Y2995178D01*
X6658173D01*
Y2996954D01*
X6663503D01*
Y2998731D01*
X6668832D01*
Y3000508D01*
X6674162D01*
Y3002284D01*
X6677716D01*
Y3004061D01*
X6683046D01*
Y3005838D01*
X6688375D01*
Y3007614D01*
X6686599D01*
Y3009391D01*
X6683046D01*
Y3011168D01*
X6677716D01*
Y3012944D01*
X6672386D01*
Y3014721D01*
X6667056D01*
Y3016498D01*
X6663503D01*
Y3018274D01*
X6658173D01*
Y3020051D01*
X6652843D01*
Y3021828D01*
X6647513D01*
Y3023604D01*
X6643959D01*
Y3025381D01*
X6638629D01*
Y3027158D01*
X6633299D01*
Y3028934D01*
X6627969D01*
Y3030711D01*
X6622640D01*
Y3032487D01*
X6619086D01*
Y3034264D01*
X6613756D01*
Y3036041D01*
X6608426D01*
Y3037817D01*
D02*
G37*
G36*
X6476954Y3069797D02*
X6471624D01*
Y3068021D01*
X6466294D01*
Y3066244D01*
X6462741D01*
Y3064467D01*
X6457411D01*
Y3062691D01*
X6452081D01*
Y3060914D01*
X6446751D01*
Y3059137D01*
X6441421D01*
Y3057361D01*
X6437868D01*
Y3055584D01*
X6432538D01*
Y3053807D01*
X6427208D01*
Y3052031D01*
X6421878D01*
Y3050254D01*
X6418325D01*
Y3048477D01*
X6412995D01*
Y3046701D01*
X6407665D01*
Y3044924D01*
X6402335D01*
Y3043147D01*
X6398782D01*
Y3041371D01*
X6400558D01*
Y3039594D01*
X6405888D01*
Y3037817D01*
X6411218D01*
Y3036041D01*
X6416548D01*
Y3034264D01*
X6420101D01*
Y3032487D01*
X6425431D01*
Y3030711D01*
X6430761D01*
Y3028934D01*
X6434315D01*
Y3027158D01*
X6439644D01*
Y3025381D01*
X6444974D01*
Y3023604D01*
X6450305D01*
Y3021828D01*
X6453858D01*
Y3020051D01*
X6464518D01*
Y3021828D01*
X6469848D01*
Y3023604D01*
X6473401D01*
Y3025381D01*
X6478731D01*
Y3027158D01*
X6484061D01*
Y3028934D01*
X6489391D01*
Y3030711D01*
X6492944D01*
Y3032487D01*
X6498274D01*
Y3034264D01*
X6503604D01*
Y3036041D01*
X6508934D01*
Y3037817D01*
X6512487D01*
Y3039594D01*
X6517817D01*
Y3041371D01*
X6523147D01*
Y3043147D01*
X6528477D01*
Y3044924D01*
X6532030D01*
Y3046701D01*
X6535584D01*
Y3048477D01*
X6532030D01*
Y3050254D01*
X6526700D01*
Y3052031D01*
X6521370D01*
Y3053807D01*
X6516041D01*
Y3055584D01*
X6512487D01*
Y3057361D01*
X6507157D01*
Y3059137D01*
X6501827D01*
Y3060914D01*
X6496497D01*
Y3062691D01*
X6492944D01*
Y3064467D01*
X6487614D01*
Y3066244D01*
X6482284D01*
Y3068021D01*
X6476954D01*
Y3069797D01*
D02*
G37*
G36*
X6695482Y3068021D02*
X6686599D01*
Y3066244D01*
X6681269D01*
Y3064467D01*
X6675939D01*
Y3062691D01*
X6672386D01*
Y3060914D01*
X6667056D01*
Y3059137D01*
X6661726D01*
Y3057361D01*
X6656396D01*
Y3055584D01*
X6651066D01*
Y3053807D01*
X6647513D01*
Y3052031D01*
X6642183D01*
Y3050254D01*
X6636853D01*
Y3048477D01*
X6631523D01*
Y3046701D01*
X6629746D01*
Y3044924D01*
X6633299D01*
Y3043147D01*
X6638629D01*
Y3041371D01*
X6643959D01*
Y3039594D01*
X6649289D01*
Y3037817D01*
X6652843D01*
Y3036041D01*
X6658173D01*
Y3034264D01*
X6663503D01*
Y3032487D01*
X6668832D01*
Y3030711D01*
X6672386D01*
Y3028934D01*
X6677716D01*
Y3027158D01*
X6683046D01*
Y3025381D01*
X6688375D01*
Y3023604D01*
X6691929D01*
Y3021828D01*
X6697259D01*
Y3020051D01*
X6702589D01*
Y3018274D01*
X6706142D01*
Y3020051D01*
X6711472D01*
Y3021828D01*
X6716802D01*
Y3023604D01*
X6720355D01*
Y3025381D01*
X6725685D01*
Y3027158D01*
X6731015D01*
Y3028934D01*
X6736345D01*
Y3030711D01*
X6739898D01*
Y3032487D01*
X6745228D01*
Y3034264D01*
X6750558D01*
Y3036041D01*
X6754112D01*
Y3037817D01*
X6759442D01*
Y3039594D01*
X6764772D01*
Y3041371D01*
X6762995D01*
Y3043147D01*
X6759442D01*
Y3044924D01*
X6754112D01*
Y3046701D01*
X6748782D01*
Y3048477D01*
X6743452D01*
Y3050254D01*
X6738122D01*
Y3052031D01*
X6734568D01*
Y3053807D01*
X6729239D01*
Y3055584D01*
X6723909D01*
Y3057361D01*
X6718579D01*
Y3059137D01*
X6715025D01*
Y3060914D01*
X6709695D01*
Y3062691D01*
X6704366D01*
Y3064467D01*
X6699035D01*
Y3066244D01*
X6695482D01*
Y3068021D01*
D02*
G37*
G36*
X6810965Y3037817D02*
X6803858D01*
Y3036041D01*
X6798528D01*
Y3034264D01*
X6793198D01*
Y3032487D01*
X6787868D01*
Y3030711D01*
X6784315D01*
Y3028934D01*
X6778985D01*
Y3027158D01*
X6773655D01*
Y3025381D01*
X6768325D01*
Y3023604D01*
X6764772D01*
Y3021828D01*
X6759442D01*
Y3020051D01*
X6754112D01*
Y3018274D01*
X6748782D01*
Y3016498D01*
X6745228D01*
Y3014721D01*
X6739898D01*
Y3012944D01*
X6734568D01*
Y3011168D01*
X6731015D01*
Y3009391D01*
X6725685D01*
Y3007614D01*
X6720355D01*
Y3005838D01*
X6715025D01*
Y3004061D01*
X6711472D01*
Y3002284D01*
X6707919D01*
Y2874366D01*
X6709695D01*
Y2872589D01*
X6715025D01*
Y2870812D01*
X6720355D01*
Y2869036D01*
X6723909D01*
Y2867259D01*
X6729239D01*
Y2865482D01*
X6734568D01*
Y2863706D01*
X6738122D01*
Y2861929D01*
X6743452D01*
Y2860153D01*
X6748782D01*
Y2858376D01*
X6754112D01*
Y2856599D01*
X6757665D01*
Y2854823D01*
X6762995D01*
Y2853046D01*
X6768325D01*
Y2851269D01*
X6771878D01*
Y2849492D01*
X6777208D01*
Y2847716D01*
X6782538D01*
Y2845939D01*
X6787868D01*
Y2844162D01*
X6791421D01*
Y2842386D01*
X6796751D01*
Y2840609D01*
X6802081D01*
Y2838833D01*
X6812741D01*
Y2840609D01*
X6818071D01*
Y2842386D01*
X6823401D01*
Y2844162D01*
X6826954D01*
Y2845939D01*
X6832284D01*
Y2847716D01*
X6837614D01*
Y2849492D01*
X6842944D01*
Y2851269D01*
X6846497D01*
Y2853046D01*
X6851827D01*
Y2854823D01*
X6857157D01*
Y2856599D01*
X6860711D01*
Y2858376D01*
X6866041D01*
Y2860153D01*
X6871371D01*
Y2861929D01*
X6874924D01*
Y2863706D01*
X6880254D01*
Y2865482D01*
X6885584D01*
Y2867259D01*
X6890914D01*
Y2869036D01*
X6894467D01*
Y2870812D01*
X6898020D01*
Y2872589D01*
X6896244D01*
Y2874366D01*
X6894467D01*
Y2877919D01*
X6892690D01*
Y2879696D01*
X6890914D01*
Y2883249D01*
X6889137D01*
Y2885025D01*
X6887360D01*
Y2886802D01*
X6885584D01*
Y2890355D01*
X6883807D01*
Y2892132D01*
X6882030D01*
Y2893909D01*
X6873147D01*
Y2892132D01*
X6864264D01*
Y2890355D01*
X6857157D01*
Y2888579D01*
X6850051D01*
Y2886802D01*
X6842944D01*
Y2885025D01*
X6834061D01*
Y2883249D01*
X6826954D01*
Y2881472D01*
X6819848D01*
Y2879696D01*
X6810965D01*
Y2877919D01*
X6791421D01*
Y2879696D01*
X6787868D01*
Y2881472D01*
X6784315D01*
Y2883249D01*
X6782538D01*
Y2885025D01*
X6778985D01*
Y2886802D01*
X6777208D01*
Y2888579D01*
X6775431D01*
Y2892132D01*
X6773655D01*
Y2893909D01*
X6771878D01*
Y2895685D01*
X6770102D01*
Y2897462D01*
X6768325D01*
Y2899239D01*
X6766548D01*
Y2901015D01*
X6764772D01*
Y2902792D01*
X6762995D01*
Y2904569D01*
X6761218D01*
Y2906345D01*
X6759442D01*
Y2908122D01*
X6757665D01*
Y2909899D01*
X6755888D01*
Y2911675D01*
X6754112D01*
Y2915229D01*
X6752335D01*
Y2917005D01*
X6750558D01*
Y2918782D01*
X6748782D01*
Y2920559D01*
X6747005D01*
Y2922335D01*
X6745228D01*
Y2924112D01*
X6743452D01*
Y2927665D01*
X6741675D01*
Y2931218D01*
X6739898D01*
Y2943655D01*
X6741675D01*
Y2948985D01*
X6743452D01*
Y2952538D01*
X6745228D01*
Y2954315D01*
X6747005D01*
Y2956092D01*
X6748782D01*
Y2957868D01*
X6750558D01*
Y2959645D01*
X6752335D01*
Y2961422D01*
X6754112D01*
Y2963198D01*
X6755888D01*
Y2964975D01*
X6757665D01*
Y2966751D01*
X6759442D01*
Y2970305D01*
X6761218D01*
Y2972081D01*
X6762995D01*
Y2973858D01*
X6764772D01*
Y2975635D01*
X6766548D01*
Y2977411D01*
X6768325D01*
Y2979188D01*
X6770102D01*
Y2980965D01*
X6771878D01*
Y2982741D01*
X6773655D01*
Y2984518D01*
X6775431D01*
Y2986295D01*
X6777208D01*
Y2988071D01*
X6778985D01*
Y2989848D01*
X6780761D01*
Y2991624D01*
X6782538D01*
Y2993401D01*
X6784315D01*
Y2995178D01*
X6787868D01*
Y2996954D01*
X6793198D01*
Y2998731D01*
X6809188D01*
Y2996954D01*
X6818071D01*
Y2995178D01*
X6825178D01*
Y2993401D01*
X6832284D01*
Y2991624D01*
X6839391D01*
Y2989848D01*
X6848274D01*
Y2988071D01*
X6855381D01*
Y2986295D01*
X6862487D01*
Y2984518D01*
X6871371D01*
Y2982741D01*
X6878477D01*
Y2980965D01*
X6882030D01*
Y2984518D01*
X6883807D01*
Y2986295D01*
X6885584D01*
Y2988071D01*
X6887360D01*
Y2991624D01*
X6889137D01*
Y2993401D01*
X6890914D01*
Y2996954D01*
X6892690D01*
Y2998731D01*
X6894467D01*
Y3000508D01*
X6896244D01*
Y3004061D01*
X6898020D01*
Y3005838D01*
X6894467D01*
Y3007614D01*
X6889137D01*
Y3009391D01*
X6883807D01*
Y3011168D01*
X6880254D01*
Y3012944D01*
X6874924D01*
Y3014721D01*
X6869594D01*
Y3016498D01*
X6864264D01*
Y3018274D01*
X6860711D01*
Y3020051D01*
X6855381D01*
Y3021828D01*
X6850051D01*
Y3023604D01*
X6846497D01*
Y3025381D01*
X6841167D01*
Y3027158D01*
X6835837D01*
Y3028934D01*
X6830508D01*
Y3030711D01*
X6826954D01*
Y3032487D01*
X6821624D01*
Y3034264D01*
X6816294D01*
Y3036041D01*
X6810965D01*
Y3037817D01*
D02*
G37*
G36*
X6361472D02*
X6354365D01*
Y3036041D01*
X6349035D01*
Y3034264D01*
X6343705D01*
Y3032487D01*
X6338375D01*
Y3030711D01*
X6334822D01*
Y3028934D01*
X6329492D01*
Y3027158D01*
X6324162D01*
Y3025381D01*
X6320609D01*
Y3023604D01*
X6315279D01*
Y3021828D01*
X6309949D01*
Y3020051D01*
X6304619D01*
Y3018274D01*
X6301066D01*
Y3016498D01*
X6295736D01*
Y3014721D01*
X6290406D01*
Y3012944D01*
X6286853D01*
Y3011168D01*
X6281523D01*
Y3009391D01*
X6276193D01*
Y3007614D01*
X6270863D01*
Y3005838D01*
X6269086D01*
Y3002284D01*
X6270863D01*
Y3000508D01*
X6272639D01*
Y2996954D01*
X6274416D01*
Y2995178D01*
X6276193D01*
Y2991624D01*
X6277969D01*
Y2989848D01*
X6279746D01*
Y2988071D01*
X6281523D01*
Y2984518D01*
X6283299D01*
Y2982741D01*
X6285076D01*
Y2980965D01*
X6286853D01*
Y2982741D01*
X6293959D01*
Y2984518D01*
X6302843D01*
Y2986295D01*
X6309949D01*
Y2988071D01*
X6317056D01*
Y2989848D01*
X6325939D01*
Y2991624D01*
X6333045D01*
Y2993401D01*
X6340152D01*
Y2995178D01*
X6347259D01*
Y2996954D01*
X6356142D01*
Y2998731D01*
X6373909D01*
Y2996954D01*
X6377462D01*
Y2995178D01*
X6381015D01*
Y2993401D01*
X6384568D01*
Y2991624D01*
X6386345D01*
Y2989848D01*
X6388122D01*
Y2988071D01*
X6389898D01*
Y2986295D01*
X6391675D01*
Y2984518D01*
X6393452D01*
Y2982741D01*
X6395228D01*
Y2979188D01*
X6397005D01*
Y2977411D01*
X6398782D01*
Y2975635D01*
X6400558D01*
Y2973858D01*
X6402335D01*
Y2972081D01*
X6404112D01*
Y2970305D01*
X6405888D01*
Y2968528D01*
X6407665D01*
Y2966751D01*
X6409442D01*
Y2964975D01*
X6411218D01*
Y2963198D01*
X6412995D01*
Y2961422D01*
X6414772D01*
Y2957868D01*
X6416548D01*
Y2956092D01*
X6418325D01*
Y2954315D01*
X6420101D01*
Y2952538D01*
X6421878D01*
Y2950762D01*
X6423655D01*
Y2945431D01*
X6425431D01*
Y2931218D01*
X6423655D01*
Y2925888D01*
X6421878D01*
Y2924112D01*
X6420101D01*
Y2922335D01*
X6418325D01*
Y2920559D01*
X6416548D01*
Y2918782D01*
X6414772D01*
Y2915229D01*
X6412995D01*
Y2913452D01*
X6411218D01*
Y2911675D01*
X6409442D01*
Y2909899D01*
X6407665D01*
Y2908122D01*
X6405888D01*
Y2906345D01*
X6404112D01*
Y2904569D01*
X6402335D01*
Y2902792D01*
X6400558D01*
Y2901015D01*
X6398782D01*
Y2899239D01*
X6397005D01*
Y2897462D01*
X6395228D01*
Y2895685D01*
X6393452D01*
Y2892132D01*
X6391675D01*
Y2890355D01*
X6389898D01*
Y2888579D01*
X6388122D01*
Y2886802D01*
X6386345D01*
Y2885025D01*
X6384568D01*
Y2883249D01*
X6381015D01*
Y2881472D01*
X6377462D01*
Y2879696D01*
X6373909D01*
Y2877919D01*
X6354365D01*
Y2879696D01*
X6347259D01*
Y2881472D01*
X6340152D01*
Y2883249D01*
X6331269D01*
Y2885025D01*
X6324162D01*
Y2886802D01*
X6317056D01*
Y2888579D01*
X6308173D01*
Y2890355D01*
X6301066D01*
Y2892132D01*
X6293959D01*
Y2893909D01*
X6286853D01*
Y2895685D01*
X6285076D01*
Y2893909D01*
X6283299D01*
Y2892132D01*
X6281523D01*
Y2888579D01*
X6279746D01*
Y2886802D01*
X6277969D01*
Y2885025D01*
X6276193D01*
Y2881472D01*
X6274416D01*
Y2879696D01*
X6272639D01*
Y2876142D01*
X6270863D01*
Y2874366D01*
X6269086D01*
Y2870812D01*
X6270863D01*
Y2869036D01*
X6276193D01*
Y2867259D01*
X6279746D01*
Y2865482D01*
X6285076D01*
Y2863706D01*
X6290406D01*
Y2861929D01*
X6295736D01*
Y2860153D01*
X6299289D01*
Y2858376D01*
X6304619D01*
Y2856599D01*
X6309949D01*
Y2854823D01*
X6313502D01*
Y2853046D01*
X6318832D01*
Y2851269D01*
X6324162D01*
Y2849492D01*
X6329492D01*
Y2847716D01*
X6333045D01*
Y2845939D01*
X6338375D01*
Y2844162D01*
X6343705D01*
Y2842386D01*
X6347259D01*
Y2840609D01*
X6352589D01*
Y2838833D01*
X6365025D01*
Y2840609D01*
X6368579D01*
Y2842386D01*
X6373909D01*
Y2844162D01*
X6379238D01*
Y2845939D01*
X6384568D01*
Y2847716D01*
X6388122D01*
Y2849492D01*
X6393452D01*
Y2851269D01*
X6398782D01*
Y2853046D01*
X6402335D01*
Y2854823D01*
X6407665D01*
Y2856599D01*
X6412995D01*
Y2858376D01*
X6416548D01*
Y2860153D01*
X6421878D01*
Y2861929D01*
X6427208D01*
Y2863706D01*
X6432538D01*
Y2865482D01*
X6436091D01*
Y2867259D01*
X6441421D01*
Y2869036D01*
X6446751D01*
Y2870812D01*
X6450305D01*
Y2872589D01*
X6455635D01*
Y2874366D01*
X6459188D01*
Y2952538D01*
X6457411D01*
Y3002284D01*
X6453858D01*
Y3004061D01*
X6450305D01*
Y3005838D01*
X6444974D01*
Y3007614D01*
X6439644D01*
Y3009391D01*
X6436091D01*
Y3011168D01*
X6430761D01*
Y3012944D01*
X6425431D01*
Y3014721D01*
X6420101D01*
Y3016498D01*
X6416548D01*
Y3018274D01*
X6411218D01*
Y3020051D01*
X6405888D01*
Y3021828D01*
X6402335D01*
Y3023604D01*
X6397005D01*
Y3025381D01*
X6391675D01*
Y3027158D01*
X6386345D01*
Y3028934D01*
X6382792D01*
Y3030711D01*
X6377462D01*
Y3032487D01*
X6372132D01*
Y3034264D01*
X6366802D01*
Y3036041D01*
X6361472D01*
Y3037817D01*
D02*
G37*
G36*
X6606650Y2821066D02*
X6603096D01*
Y2819290D01*
X6597766D01*
Y2817513D01*
X6592436D01*
Y2815736D01*
X6588883D01*
Y2813960D01*
X6583553D01*
Y2812183D01*
X6581777D01*
Y2813960D01*
X6576447D01*
Y2815736D01*
X6571117D01*
Y2817513D01*
X6567563D01*
Y2819290D01*
X6562234D01*
Y2821066D01*
X6558680D01*
Y2819290D01*
X6553350D01*
Y2817513D01*
X6549797D01*
Y2815736D01*
X6544467D01*
Y2813960D01*
X6539137D01*
Y2812183D01*
X6533807D01*
Y2810406D01*
X6530254D01*
Y2808630D01*
X6524924D01*
Y2806853D01*
X6519594D01*
Y2805076D01*
X6516041D01*
Y2803300D01*
X6510711D01*
Y2801523D01*
X6505381D01*
Y2799746D01*
X6500051D01*
Y2797970D01*
X6496497D01*
Y2796193D01*
X6491167D01*
Y2794416D01*
X6485837D01*
Y2792640D01*
X6482284D01*
Y2790863D01*
X6476954D01*
Y2789086D01*
X6478731D01*
Y2787310D01*
X6484061D01*
Y2785533D01*
X6487614D01*
Y2783756D01*
X6492944D01*
Y2781980D01*
X6498274D01*
Y2780203D01*
X6503604D01*
Y2778426D01*
X6507157D01*
Y2776650D01*
X6512487D01*
Y2774873D01*
X6517817D01*
Y2773097D01*
X6523147D01*
Y2771320D01*
X6526700D01*
Y2769543D01*
X6532030D01*
Y2767767D01*
X6537360D01*
Y2765990D01*
X6542690D01*
Y2764213D01*
X6546244D01*
Y2762437D01*
X6551574D01*
Y2760660D01*
X6556904D01*
Y2758883D01*
X6560457D01*
Y2757107D01*
X6565787D01*
Y2755330D01*
X6571117D01*
Y2753553D01*
X6576447D01*
Y2751777D01*
X6580000D01*
Y2750000D01*
X6585330D01*
Y2751777D01*
X6590660D01*
Y2753553D01*
X6594213D01*
Y2755330D01*
X6599543D01*
Y2757107D01*
X6604873D01*
Y2758883D01*
X6608426D01*
Y2760660D01*
X6613756D01*
Y2762437D01*
X6619086D01*
Y2764213D01*
X6624416D01*
Y2765990D01*
X6627969D01*
Y2767767D01*
X6633299D01*
Y2769543D01*
X6638629D01*
Y2771320D01*
X6642183D01*
Y2773097D01*
X6647513D01*
Y2774873D01*
X6652843D01*
Y2776650D01*
X6658173D01*
Y2778426D01*
X6661726D01*
Y2780203D01*
X6667056D01*
Y2781980D01*
X6672386D01*
Y2783756D01*
X6675939D01*
Y2785533D01*
X6681269D01*
Y2787310D01*
X6686599D01*
Y2789086D01*
X6688375D01*
Y2790863D01*
X6684822D01*
Y2792640D01*
X6679492D01*
Y2794416D01*
X6674162D01*
Y2796193D01*
X6670609D01*
Y2797970D01*
X6665279D01*
Y2799746D01*
X6659949D01*
Y2801523D01*
X6654619D01*
Y2803300D01*
X6651066D01*
Y2805076D01*
X6645736D01*
Y2806853D01*
X6640406D01*
Y2808630D01*
X6635076D01*
Y2810406D01*
X6631523D01*
Y2812183D01*
X6626193D01*
Y2813960D01*
X6620863D01*
Y2815736D01*
X6617310D01*
Y2817513D01*
X6611980D01*
Y2819290D01*
X6606650D01*
Y2821066D01*
D02*
G37*
G36*
X6711472Y2856599D02*
X6702589D01*
Y2854823D01*
X6697259D01*
Y2853046D01*
X6693705D01*
Y2851269D01*
X6688375D01*
Y2849492D01*
X6683046D01*
Y2847716D01*
X6677716D01*
Y2845939D01*
X6672386D01*
Y2844162D01*
X6668832D01*
Y2842386D01*
X6663503D01*
Y2840609D01*
X6658173D01*
Y2838833D01*
X6652843D01*
Y2837056D01*
X6649289D01*
Y2835279D01*
X6643959D01*
Y2833503D01*
X6638629D01*
Y2831726D01*
X6633299D01*
Y2829949D01*
X6629746D01*
Y2828173D01*
X6631523D01*
Y2826396D01*
X6636853D01*
Y2824619D01*
X6642183D01*
Y2822843D01*
X6647513D01*
Y2821066D01*
X6651066D01*
Y2819290D01*
X6656396D01*
Y2817513D01*
X6661726D01*
Y2815736D01*
X6667056D01*
Y2813960D01*
X6670609D01*
Y2812183D01*
X6675939D01*
Y2810406D01*
X6681269D01*
Y2808630D01*
X6686599D01*
Y2806853D01*
X6690152D01*
Y2805076D01*
X6695482D01*
Y2803300D01*
X6700812D01*
Y2801523D01*
X6707919D01*
Y2803300D01*
X6713249D01*
Y2805076D01*
X6718579D01*
Y2806853D01*
X6722132D01*
Y2808630D01*
X6727462D01*
Y2810406D01*
X6732792D01*
Y2812183D01*
X6736345D01*
Y2813960D01*
X6741675D01*
Y2815736D01*
X6745228D01*
Y2817513D01*
X6750558D01*
Y2819290D01*
X6755888D01*
Y2821066D01*
X6759442D01*
Y2822843D01*
X6764772D01*
Y2824619D01*
X6770102D01*
Y2826396D01*
X6773655D01*
Y2828173D01*
X6778985D01*
Y2831726D01*
X6773655D01*
Y2833503D01*
X6768325D01*
Y2835279D01*
X6764772D01*
Y2837056D01*
X6759442D01*
Y2838833D01*
X6754112D01*
Y2840609D01*
X6750558D01*
Y2842386D01*
X6745228D01*
Y2844162D01*
X6739898D01*
Y2845939D01*
X6734568D01*
Y2847716D01*
X6731015D01*
Y2849492D01*
X6725685D01*
Y2851269D01*
X6720355D01*
Y2853046D01*
X6716802D01*
Y2854823D01*
X6711472D01*
Y2856599D01*
D02*
G37*
G36*
X6466294D02*
X6455635D01*
Y2854823D01*
X6452081D01*
Y2853046D01*
X6446751D01*
Y2851269D01*
X6441421D01*
Y2849492D01*
X6436091D01*
Y2847716D01*
X6432538D01*
Y2845939D01*
X6427208D01*
Y2844162D01*
X6421878D01*
Y2842386D01*
X6418325D01*
Y2840609D01*
X6412995D01*
Y2838833D01*
X6407665D01*
Y2837056D01*
X6404112D01*
Y2835279D01*
X6398782D01*
Y2833503D01*
X6393452D01*
Y2831726D01*
X6388122D01*
Y2829949D01*
X6386345D01*
Y2828173D01*
X6391675D01*
Y2826396D01*
X6397005D01*
Y2824619D01*
X6400558D01*
Y2822843D01*
X6405888D01*
Y2821066D01*
X6411218D01*
Y2819290D01*
X6414772D01*
Y2817513D01*
X6420101D01*
Y2815736D01*
X6423655D01*
Y2813960D01*
X6428985D01*
Y2812183D01*
X6434315D01*
Y2810406D01*
X6437868D01*
Y2808630D01*
X6443198D01*
Y2806853D01*
X6446751D01*
Y2805076D01*
X6452081D01*
Y2803300D01*
X6457411D01*
Y2801523D01*
X6462741D01*
Y2803300D01*
X6466294D01*
Y2805076D01*
X6471624D01*
Y2806853D01*
X6476954D01*
Y2808630D01*
X6482284D01*
Y2810406D01*
X6485837D01*
Y2812183D01*
X6491167D01*
Y2813960D01*
X6496497D01*
Y2815736D01*
X6501827D01*
Y2817513D01*
X6505381D01*
Y2819290D01*
X6510711D01*
Y2821066D01*
X6516041D01*
Y2822843D01*
X6521370D01*
Y2824619D01*
X6524924D01*
Y2826396D01*
X6530254D01*
Y2828173D01*
X6535584D01*
Y2831726D01*
X6530254D01*
Y2833503D01*
X6526700D01*
Y2835279D01*
X6521370D01*
Y2837056D01*
X6516041D01*
Y2838833D01*
X6510711D01*
Y2840609D01*
X6505381D01*
Y2842386D01*
X6501827D01*
Y2844162D01*
X6496497D01*
Y2845939D01*
X6491167D01*
Y2847716D01*
X6485837D01*
Y2849492D01*
X6482284D01*
Y2851269D01*
X6476954D01*
Y2853046D01*
X6471624D01*
Y2854823D01*
X6466294D01*
Y2856599D01*
D02*
G37*
G36*
X6812741Y2821066D02*
X6802081D01*
Y2819290D01*
X6798528D01*
Y2817513D01*
X6793198D01*
Y2815736D01*
X6787868D01*
Y2813960D01*
X6784315D01*
Y2812183D01*
X6778985D01*
Y2810406D01*
X6775431D01*
Y2808630D01*
X6770102D01*
Y2806853D01*
X6764772D01*
Y2805076D01*
X6761218D01*
Y2803300D01*
X6755888D01*
Y2801523D01*
X6752335D01*
Y2799746D01*
X6747005D01*
Y2797970D01*
X6741675D01*
Y2796193D01*
X6738122D01*
Y2794416D01*
X6732792D01*
Y2792640D01*
X6729239D01*
Y2790863D01*
X6723909D01*
Y2789086D01*
X6718579D01*
Y2787310D01*
X6715025D01*
Y2785533D01*
X6709695D01*
Y2783756D01*
X6707919D01*
Y2650508D01*
X6711472D01*
Y2648731D01*
X6716802D01*
Y2646954D01*
X6722132D01*
Y2645178D01*
X6725685D01*
Y2643401D01*
X6731015D01*
Y2641624D01*
X6734568D01*
Y2639848D01*
X6739898D01*
Y2638071D01*
X6745228D01*
Y2636294D01*
X6748782D01*
Y2634518D01*
X6754112D01*
Y2632741D01*
X6757665D01*
Y2630965D01*
X6762995D01*
Y2629188D01*
X6768325D01*
Y2627411D01*
X6771878D01*
Y2625635D01*
X6777208D01*
Y2623858D01*
X6780761D01*
Y2622081D01*
X6786091D01*
Y2620305D01*
X6791421D01*
Y2618528D01*
X6794974D01*
Y2616751D01*
X6800305D01*
Y2614975D01*
X6803858D01*
Y2613198D01*
X6809188D01*
Y2614975D01*
X6814518D01*
Y2616751D01*
X6819848D01*
Y2618528D01*
X6823401D01*
Y2620305D01*
X6828731D01*
Y2622081D01*
X6832284D01*
Y2623858D01*
X6837614D01*
Y2625635D01*
X6842944D01*
Y2627411D01*
X6846497D01*
Y2629188D01*
X6851827D01*
Y2630965D01*
X6857157D01*
Y2632741D01*
X6860711D01*
Y2634518D01*
X6866041D01*
Y2636294D01*
X6869594D01*
Y2638071D01*
X6874924D01*
Y2639848D01*
X6880254D01*
Y2641624D01*
X6883807D01*
Y2643401D01*
X6889137D01*
Y2645178D01*
X6892690D01*
Y2646954D01*
X6898020D01*
Y2648731D01*
X6896244D01*
Y2652284D01*
X6894467D01*
Y2654061D01*
X6892690D01*
Y2657614D01*
X6890914D01*
Y2659391D01*
X6889137D01*
Y2662944D01*
X6887360D01*
Y2664721D01*
X6885584D01*
Y2666498D01*
X6883807D01*
Y2670051D01*
X6882030D01*
Y2671828D01*
X6873147D01*
Y2670051D01*
X6866041D01*
Y2668274D01*
X6858934D01*
Y2666498D01*
X6851827D01*
Y2664721D01*
X6844721D01*
Y2662944D01*
X6837614D01*
Y2661168D01*
X6830508D01*
Y2659391D01*
X6823401D01*
Y2657614D01*
X6816294D01*
Y2655838D01*
X6807411D01*
Y2654061D01*
X6794974D01*
Y2655838D01*
X6789645D01*
Y2657614D01*
X6786091D01*
Y2659391D01*
X6782538D01*
Y2661168D01*
X6780761D01*
Y2662944D01*
X6778985D01*
Y2664721D01*
X6777208D01*
Y2666498D01*
X6775431D01*
Y2668274D01*
X6773655D01*
Y2670051D01*
X6771878D01*
Y2673604D01*
X6770102D01*
Y2675381D01*
X6768325D01*
Y2677157D01*
X6766548D01*
Y2678934D01*
X6764772D01*
Y2680711D01*
X6762995D01*
Y2682487D01*
X6761218D01*
Y2684264D01*
X6759442D01*
Y2686041D01*
X6757665D01*
Y2689594D01*
X6755888D01*
Y2691371D01*
X6754112D01*
Y2693147D01*
X6752335D01*
Y2694924D01*
X6750558D01*
Y2696701D01*
X6748782D01*
Y2698477D01*
X6747005D01*
Y2700254D01*
X6745228D01*
Y2703807D01*
X6743452D01*
Y2705584D01*
X6741675D01*
Y2710914D01*
X6739898D01*
Y2723350D01*
X6741675D01*
Y2728680D01*
X6743452D01*
Y2732234D01*
X6745228D01*
Y2734010D01*
X6747005D01*
Y2735787D01*
X6748782D01*
Y2737563D01*
X6750558D01*
Y2739340D01*
X6752335D01*
Y2741117D01*
X6754112D01*
Y2744670D01*
X6755888D01*
Y2746447D01*
X6757665D01*
Y2748223D01*
X6759442D01*
Y2750000D01*
X6761218D01*
Y2751777D01*
X6762995D01*
Y2753553D01*
X6764772D01*
Y2755330D01*
X6766548D01*
Y2758883D01*
X6768325D01*
Y2760660D01*
X6770102D01*
Y2762437D01*
X6771878D01*
Y2764213D01*
X6773655D01*
Y2765990D01*
X6775431D01*
Y2767767D01*
X6777208D01*
Y2769543D01*
X6778985D01*
Y2771320D01*
X6780761D01*
Y2773097D01*
X6782538D01*
Y2774873D01*
X6784315D01*
Y2776650D01*
X6787868D01*
Y2778426D01*
X6793198D01*
Y2780203D01*
X6810965D01*
Y2778426D01*
X6818071D01*
Y2776650D01*
X6825178D01*
Y2774873D01*
X6832284D01*
Y2773097D01*
X6839391D01*
Y2771320D01*
X6846497D01*
Y2769543D01*
X6853604D01*
Y2767767D01*
X6860711D01*
Y2765990D01*
X6869594D01*
Y2764213D01*
X6876700D01*
Y2762437D01*
X6882030D01*
Y2764213D01*
X6883807D01*
Y2767767D01*
X6885584D01*
Y2769543D01*
X6887360D01*
Y2773097D01*
X6889137D01*
Y2774873D01*
X6890914D01*
Y2778426D01*
X6892690D01*
Y2780203D01*
X6894467D01*
Y2783756D01*
X6896244D01*
Y2785533D01*
X6898020D01*
Y2787310D01*
X6894467D01*
Y2789086D01*
X6890914D01*
Y2790863D01*
X6885584D01*
Y2792640D01*
X6882030D01*
Y2794416D01*
X6876700D01*
Y2796193D01*
X6871371D01*
Y2797970D01*
X6867817D01*
Y2799746D01*
X6862487D01*
Y2801523D01*
X6858934D01*
Y2803300D01*
X6853604D01*
Y2805076D01*
X6848274D01*
Y2806853D01*
X6844721D01*
Y2808630D01*
X6839391D01*
Y2810406D01*
X6835837D01*
Y2812183D01*
X6830508D01*
Y2813960D01*
X6825178D01*
Y2815736D01*
X6821624D01*
Y2817513D01*
X6816294D01*
Y2819290D01*
X6812741D01*
Y2821066D01*
D02*
G37*
G36*
X6363249D02*
X6352589D01*
Y2819290D01*
X6349035D01*
Y2817513D01*
X6343705D01*
Y2815736D01*
X6340152D01*
Y2813960D01*
X6334822D01*
Y2812183D01*
X6329492D01*
Y2810406D01*
X6325939D01*
Y2808630D01*
X6320609D01*
Y2806853D01*
X6317056D01*
Y2805076D01*
X6311726D01*
Y2803300D01*
X6306396D01*
Y2801523D01*
X6302843D01*
Y2799746D01*
X6297513D01*
Y2797970D01*
X6293959D01*
Y2796193D01*
X6288629D01*
Y2794416D01*
X6283299D01*
Y2792640D01*
X6279746D01*
Y2790863D01*
X6274416D01*
Y2789086D01*
X6269086D01*
Y2783756D01*
X6270863D01*
Y2781980D01*
X6272639D01*
Y2778426D01*
X6274416D01*
Y2776650D01*
X6276193D01*
Y2773097D01*
X6277969D01*
Y2771320D01*
X6279746D01*
Y2767767D01*
X6281523D01*
Y2765990D01*
X6283299D01*
Y2762437D01*
X6288629D01*
Y2764213D01*
X6295736D01*
Y2765990D01*
X6302843D01*
Y2767767D01*
X6309949D01*
Y2769543D01*
X6318832D01*
Y2771320D01*
X6325939D01*
Y2773097D01*
X6333045D01*
Y2774873D01*
X6340152D01*
Y2776650D01*
X6347259D01*
Y2778426D01*
X6354365D01*
Y2780203D01*
X6373909D01*
Y2778426D01*
X6377462D01*
Y2776650D01*
X6381015D01*
Y2774873D01*
X6382792D01*
Y2773097D01*
X6386345D01*
Y2771320D01*
X6388122D01*
Y2767767D01*
X6389898D01*
Y2765990D01*
X6391675D01*
Y2764213D01*
X6393452D01*
Y2762437D01*
X6395228D01*
Y2760660D01*
X6397005D01*
Y2758883D01*
X6398782D01*
Y2757107D01*
X6400558D01*
Y2753553D01*
X6402335D01*
Y2751777D01*
X6404112D01*
Y2750000D01*
X6405888D01*
Y2748223D01*
X6407665D01*
Y2746447D01*
X6409442D01*
Y2744670D01*
X6411218D01*
Y2742893D01*
X6412995D01*
Y2741117D01*
X6414772D01*
Y2737563D01*
X6416548D01*
Y2735787D01*
X6418325D01*
Y2734010D01*
X6420101D01*
Y2732234D01*
X6421878D01*
Y2728680D01*
X6423655D01*
Y2723350D01*
X6425431D01*
Y2710914D01*
X6423655D01*
Y2705584D01*
X6421878D01*
Y2703807D01*
X6420101D01*
Y2700254D01*
X6418325D01*
Y2698477D01*
X6416548D01*
Y2696701D01*
X6414772D01*
Y2694924D01*
X6412995D01*
Y2693147D01*
X6411218D01*
Y2691371D01*
X6409442D01*
Y2689594D01*
X6407665D01*
Y2686041D01*
X6405888D01*
Y2684264D01*
X6404112D01*
Y2682487D01*
X6402335D01*
Y2680711D01*
X6400558D01*
Y2678934D01*
X6398782D01*
Y2677157D01*
X6397005D01*
Y2675381D01*
X6395228D01*
Y2673604D01*
X6393452D01*
Y2670051D01*
X6391675D01*
Y2668274D01*
X6389898D01*
Y2666498D01*
X6388122D01*
Y2664721D01*
X6386345D01*
Y2662944D01*
X6384568D01*
Y2661168D01*
X6382792D01*
Y2659391D01*
X6379238D01*
Y2657614D01*
X6375685D01*
Y2655838D01*
X6370355D01*
Y2654061D01*
X6357919D01*
Y2655838D01*
X6350812D01*
Y2657614D01*
X6343705D01*
Y2659391D01*
X6336599D01*
Y2661168D01*
X6329492D01*
Y2662944D01*
X6322386D01*
Y2664721D01*
X6315279D01*
Y2666498D01*
X6306396D01*
Y2668274D01*
X6299289D01*
Y2670051D01*
X6292183D01*
Y2671828D01*
X6283299D01*
Y2670051D01*
X6281523D01*
Y2666498D01*
X6279746D01*
Y2664721D01*
X6277969D01*
Y2662944D01*
X6276193D01*
Y2659391D01*
X6274416D01*
Y2657614D01*
X6272639D01*
Y2654061D01*
X6270863D01*
Y2652284D01*
X6269086D01*
Y2648731D01*
X6267310D01*
Y2646954D01*
X6272639D01*
Y2645178D01*
X6277969D01*
Y2643401D01*
X6281523D01*
Y2641624D01*
X6286853D01*
Y2639848D01*
X6290406D01*
Y2638071D01*
X6295736D01*
Y2636294D01*
X6301066D01*
Y2634518D01*
X6304619D01*
Y2632741D01*
X6309949D01*
Y2630965D01*
X6313502D01*
Y2629188D01*
X6318832D01*
Y2627411D01*
X6324162D01*
Y2625635D01*
X6327716D01*
Y2623858D01*
X6333045D01*
Y2622081D01*
X6336599D01*
Y2620305D01*
X6341929D01*
Y2618528D01*
X6347259D01*
Y2616751D01*
X6350812D01*
Y2614975D01*
X6356142D01*
Y2613198D01*
X6359695D01*
Y2614975D01*
X6365025D01*
Y2616751D01*
X6370355D01*
Y2618528D01*
X6373909D01*
Y2620305D01*
X6379238D01*
Y2622081D01*
X6382792D01*
Y2623858D01*
X6388122D01*
Y2625635D01*
X6393452D01*
Y2627411D01*
X6397005D01*
Y2629188D01*
X6402335D01*
Y2630965D01*
X6407665D01*
Y2632741D01*
X6411218D01*
Y2634518D01*
X6416548D01*
Y2636294D01*
X6420101D01*
Y2638071D01*
X6425431D01*
Y2639848D01*
X6430761D01*
Y2641624D01*
X6434315D01*
Y2643401D01*
X6439644D01*
Y2645178D01*
X6443198D01*
Y2646954D01*
X6448528D01*
Y2648731D01*
X6453858D01*
Y2650508D01*
X6457411D01*
Y2783756D01*
X6455635D01*
Y2785533D01*
X6452081D01*
Y2787310D01*
X6446751D01*
Y2789086D01*
X6441421D01*
Y2790863D01*
X6437868D01*
Y2792640D01*
X6432538D01*
Y2794416D01*
X6428985D01*
Y2796193D01*
X6423655D01*
Y2797970D01*
X6418325D01*
Y2799746D01*
X6414772D01*
Y2801523D01*
X6409442D01*
Y2803300D01*
X6405888D01*
Y2805076D01*
X6400558D01*
Y2806853D01*
X6395228D01*
Y2808630D01*
X6391675D01*
Y2810406D01*
X6386345D01*
Y2812183D01*
X6382792D01*
Y2813960D01*
X6377462D01*
Y2815736D01*
X6372132D01*
Y2817513D01*
X6368579D01*
Y2819290D01*
X6363249D01*
Y2821066D01*
D02*
G37*
%LPD*%
D51*
X7550000Y7777500D02*
X7750000D01*
X7550000Y8515000D02*
X7750000D01*
Y7777500D02*
Y8515000D01*
X7550000Y7777500D02*
Y8515000D01*
X2752500Y7797500D02*
X2952500D01*
X2752500Y8512500D02*
X2952500D01*
Y7797500D02*
Y8512500D01*
X2752500Y7797500D02*
Y8512500D01*
X7352500Y7777500D02*
X7552500D01*
X7352500Y8515000D02*
X7552500D01*
Y7777500D02*
Y8515000D01*
X7352500Y7777500D02*
Y8515000D01*
X7750000Y7777500D02*
X7950000D01*
X7750000Y8515000D02*
X7950000D01*
Y7777500D02*
Y8515000D01*
X7750000Y7777500D02*
Y8515000D01*
X3150000Y7797500D02*
X3350000D01*
X3150000Y8512500D02*
X3350000D01*
Y7797500D02*
Y8512500D01*
X3150000Y7797500D02*
Y8512500D01*
X2950000Y7797500D02*
X3150000D01*
X2950000Y8512500D02*
X3150000D01*
Y7797500D02*
Y8512500D01*
X2950000Y7797500D02*
Y8512500D01*
X7950000Y7777500D02*
X8149999D01*
X7950000Y8515000D02*
X8149999D01*
Y7777500D02*
Y8515000D01*
X7950000Y7777500D02*
Y8515000D01*
X8149999Y7777500D02*
X8349999D01*
X8149999Y8515000D02*
X8349999D01*
Y7777500D02*
Y8515000D01*
X8149999Y7777500D02*
Y8515000D01*
X3350000Y7797500D02*
X3550000D01*
X3350000Y8512500D02*
X3550000D01*
Y7797500D02*
Y8512500D01*
X3350000Y7797500D02*
Y8512500D01*
X3550000Y7797500D02*
X3750000D01*
X3550000Y8512500D02*
X3750000D01*
Y7797500D02*
Y8512500D01*
X3550000Y7797500D02*
Y8512500D01*
X7520000Y2565000D02*
Y2732500D01*
X7325000Y2562500D02*
Y2735000D01*
X7122500Y2552500D02*
Y2732500D01*
X7520000Y3102500D02*
Y3280000D01*
X7325000Y3102500D02*
Y3280000D01*
X7125000Y3100000D02*
Y3282500D01*
X7852500Y4795000D02*
X8052500D01*
X7852500Y4655000D02*
X8052500D01*
X6330000Y4450000D02*
X6405860D01*
X6330000Y4610000D02*
X6405880D01*
X6454140Y4450000D02*
X6530000D01*
X6454120Y4610000D02*
X6530000D01*
X3755000Y4775000D02*
Y4850860D01*
X3595000Y4775000D02*
Y4850880D01*
X3755000Y4899140D02*
Y4975000D01*
X3595000Y4899120D02*
Y4975000D01*
X7550000Y5825000D02*
X7625860D01*
X7550000Y5985000D02*
X7625880D01*
X7674140Y5825000D02*
X7750000D01*
X7674120Y5985000D02*
X7750000D01*
X3649140Y4705000D02*
X3725000D01*
X3649120Y4545000D02*
X3725000D01*
X3525000Y4705000D02*
X3600860D01*
X3525000Y4545000D02*
X3600880D01*
X5275000Y3830000D02*
X5475000D01*
X5275000Y3970000D02*
X5475000D01*
X7527500Y4795000D02*
X7727500D01*
X7527500Y4655000D02*
X7727500D01*
X8245000Y5024140D02*
Y5100000D01*
X8405000Y5024120D02*
Y5100000D01*
X8245000Y4900000D02*
Y4975860D01*
X8405000Y4900000D02*
Y4975880D01*
X8055000Y6305000D02*
Y6380860D01*
X7895000Y6305000D02*
Y6380880D01*
X8055000Y6429140D02*
Y6505000D01*
X7895000Y6429120D02*
Y6505000D01*
X3620000Y4174120D02*
Y4250000D01*
X3780000Y4174140D02*
Y4250000D01*
X3620000Y4050000D02*
Y4125880D01*
X3780000Y4050000D02*
Y4125860D01*
X5939120Y4180000D02*
X6015000D01*
X5939140Y4020000D02*
X6015000D01*
X5815000Y4180000D02*
X5890880D01*
X5815000Y4020000D02*
X5890860D01*
X4000000Y3930000D02*
X4200000D01*
X4000000Y4070000D02*
X4200000D01*
X4000000Y4130000D02*
X4200000D01*
X4000000Y4270000D02*
X4200000D01*
X5924120Y3880000D02*
X6000000D01*
X5924140Y3720000D02*
X6000000D01*
X5800000Y3880000D02*
X5875880D01*
X5800000Y3720000D02*
X5875860D01*
X5847500Y3680000D02*
Y3700000D01*
Y3500000D02*
Y3520000D01*
X7050000Y2930000D02*
X7250000D01*
X7050000Y3070000D02*
X7250000D01*
X7895000Y5629120D02*
Y5705000D01*
X8055000Y5629140D02*
Y5705000D01*
X7895000Y5505000D02*
Y5580880D01*
X8055000Y5505000D02*
Y5580860D01*
X5095000Y5499120D02*
Y5575000D01*
X5255000Y5499140D02*
Y5575000D01*
X5095000Y5375000D02*
Y5450880D01*
X5255000Y5375000D02*
Y5450860D01*
X7400000Y3070000D02*
X7600000D01*
X7400000Y2930000D02*
X7600000D01*
X7457100Y2685368D02*
Y2585400D01*
X7407116D01*
X7390455Y2602061D01*
Y2618722D01*
X7407116Y2635384D01*
X7457100D01*
X7407116D01*
X7390455Y2652045D01*
Y2668706D01*
X7407116Y2685368D01*
X7457100D01*
X7257100Y2587900D02*
Y2654545D01*
X7223778Y2687868D01*
X7190455Y2654545D01*
Y2587900D01*
Y2637884D01*
X7257100D01*
X6194600Y3018690D02*
Y2918723D01*
X6144616D01*
X6127955Y2935384D01*
Y3002029D01*
X6144616Y3018690D01*
X6194600D01*
X6044648Y2918723D02*
X6077971D01*
X6094632Y2935384D01*
Y2968707D01*
X6077971Y2985368D01*
X6044648D01*
X6027987Y2968707D01*
Y2952045D01*
X6094632D01*
X5994664Y2918723D02*
X5944681D01*
X5928019Y2935384D01*
X5944681Y2952045D01*
X5978003D01*
X5994664Y2968707D01*
X5978003Y2985368D01*
X5928019D01*
X5894697Y2918723D02*
X5861374D01*
X5878035D01*
Y2985368D01*
X5894697D01*
X5778068Y2885400D02*
X5761406D01*
X5744745Y2902061D01*
Y2985368D01*
X5794729D01*
X5811390Y2968707D01*
Y2935384D01*
X5794729Y2918723D01*
X5744745D01*
X5711422D02*
Y2985368D01*
X5661439D01*
X5644777Y2968707D01*
Y2918723D01*
X5561471D02*
X5594793D01*
X5611455Y2935384D01*
Y2968707D01*
X5594793Y2985368D01*
X5561471D01*
X5544810Y2968707D01*
Y2952045D01*
X5611455D01*
X5444842Y3018690D02*
Y2918723D01*
X5494825D01*
X5511487Y2935384D01*
Y2968707D01*
X5494825Y2985368D01*
X5444842D01*
X5311551Y3018690D02*
Y2918723D01*
X5261567D01*
X5244906Y2935384D01*
Y2952045D01*
Y2968707D01*
X5261567Y2985368D01*
X5311551D01*
X5211583D02*
Y2935384D01*
X5194922Y2918723D01*
X5144938D01*
Y2902061D01*
X5161600Y2885400D01*
X5178261D01*
X5144938Y2918723D02*
Y2985368D01*
X2878768Y8000248D02*
X2895429Y8016909D01*
Y8050232D01*
X2878768Y8066893D01*
X2862106D01*
X2845445Y8050232D01*
Y8033570D01*
Y8050232D01*
X2828784Y8066893D01*
X2812123D01*
X2795461Y8050232D01*
Y8016909D01*
X2812123Y8000248D01*
X2895429Y8100215D02*
X2828784D01*
X2795461Y8133538D01*
X2828784Y8166860D01*
X2895429D01*
X2878768Y8200183D02*
X2895429Y8216845D01*
Y8250167D01*
X2878768Y8266828D01*
X2862106D01*
X2845445Y8250167D01*
Y8233506D01*
Y8250167D01*
X2828784Y8266828D01*
X2812123D01*
X2795461Y8250167D01*
Y8216845D01*
X2812123Y8200183D01*
X3678767Y8059393D02*
X3695429Y8042731D01*
Y8009409D01*
X3678767Y7992748D01*
X3612122D01*
X3595461Y8009409D01*
Y8042731D01*
X3612122Y8059393D01*
X3645445D01*
Y8026070D01*
X3595461Y8092715D02*
X3695429D01*
X3595461Y8159360D01*
X3695429D01*
Y8192683D02*
X3595461D01*
Y8242667D01*
X3612122Y8259328D01*
X3678767D01*
X3695429Y8242667D01*
Y8192683D01*
X3492929Y8061892D02*
Y7995247D01*
X3392961D01*
Y8061892D01*
X3442945Y7995247D02*
Y8028570D01*
X3392961Y8095215D02*
Y8128538D01*
Y8111877D01*
X3492929D01*
X3476268Y8095215D01*
X3492929Y8178522D02*
Y8245167D01*
X3476268D01*
X3409623Y8178522D01*
X3392961D01*
Y8245167D01*
X3295429Y8056892D02*
Y7990247D01*
X3195461D01*
Y8056892D01*
X3245445Y7990247D02*
Y8023569D01*
X3195461Y8090215D02*
Y8123537D01*
Y8106876D01*
X3295429D01*
X3278768Y8090215D01*
Y8240166D02*
X3295429Y8223505D01*
Y8190183D01*
X3278768Y8173521D01*
X3212123D01*
X3195461Y8190183D01*
Y8223505D01*
X3212123Y8240166D01*
X3295429Y8273489D02*
X3195461D01*
X3245445D01*
Y8340134D01*
X3295429D01*
X3195461D01*
Y8440102D02*
Y8373457D01*
X3262107Y8440102D01*
X3278768D01*
X3295429Y8423441D01*
Y8390118D01*
X3278768Y8373457D01*
X3097929Y8056892D02*
Y7990247D01*
X2997961D01*
Y8056892D01*
X3047945Y7990247D02*
Y8023570D01*
X2997961Y8090215D02*
Y8123538D01*
Y8106877D01*
X3097929D01*
X3081268Y8090215D01*
Y8240167D02*
X3097929Y8223506D01*
Y8190183D01*
X3081268Y8173522D01*
X3014623D01*
X2997961Y8190183D01*
Y8223506D01*
X3014623Y8240167D01*
X3097929Y8273489D02*
X2997961D01*
X3047945D01*
Y8340134D01*
X3097929D01*
X2997961D01*
Y8373457D02*
Y8406780D01*
Y8390119D01*
X3097929D01*
X3081268Y8373457D01*
X7702868Y8064545D02*
Y7997900D01*
X7602900D01*
Y8064545D01*
X7652884Y7997900D02*
Y8031222D01*
X7602900Y8164512D02*
Y8097867D01*
X7669545Y8164512D01*
X7686207D01*
X7702868Y8147851D01*
Y8114529D01*
X7686207Y8097867D01*
Y8264480D02*
X7702868Y8247819D01*
Y8214497D01*
X7686207Y8197835D01*
X7619562D01*
X7602900Y8214497D01*
Y8247819D01*
X7619562Y8264480D01*
X7702868Y8297803D02*
X7602900D01*
X7652884D01*
Y8364448D01*
X7702868D01*
X7602900D01*
Y8397771D02*
Y8431093D01*
Y8414432D01*
X7702868D01*
X7686207Y8397771D01*
X7900367Y8064545D02*
Y7997900D01*
X7800400D01*
Y8064545D01*
X7850384Y7997900D02*
Y8031222D01*
X7800400Y8164512D02*
Y8097867D01*
X7867045Y8164512D01*
X7883706D01*
X7900367Y8147851D01*
Y8114529D01*
X7883706Y8097867D01*
Y8264480D02*
X7900367Y8247819D01*
Y8214497D01*
X7883706Y8197835D01*
X7817061D01*
X7800400Y8214497D01*
Y8247819D01*
X7817061Y8264480D01*
X7900367Y8297803D02*
X7800400D01*
X7850384D01*
Y8364448D01*
X7900367D01*
X7800400D01*
Y8464416D02*
Y8397771D01*
X7867045Y8464416D01*
X7883706D01*
X7900367Y8447755D01*
Y8414432D01*
X7883706Y8397771D01*
X8097868Y8069545D02*
Y8002900D01*
X7997900D01*
Y8069545D01*
X8047884Y8002900D02*
Y8036222D01*
X7997900Y8169512D02*
Y8102867D01*
X8064545Y8169512D01*
X8081207D01*
X8097868Y8152851D01*
Y8119529D01*
X8081207Y8102867D01*
X8097868Y8202835D02*
Y8269480D01*
X8081207D01*
X8014562Y8202835D01*
X7997900D01*
Y8269480D01*
X8283706Y8067045D02*
X8300367Y8050384D01*
Y8017061D01*
X8283706Y8000400D01*
X8217061D01*
X8200400Y8017061D01*
Y8050384D01*
X8217061Y8067045D01*
X8250384D01*
Y8033722D01*
X8200400Y8100368D02*
X8300367D01*
X8200400Y8167013D01*
X8300367D01*
Y8200335D02*
X8200400D01*
Y8250319D01*
X8217061Y8266980D01*
X8283706D01*
X8300367Y8250319D01*
Y8200335D01*
X7483706Y8007900D02*
X7500368Y8024561D01*
Y8057884D01*
X7483706Y8074545D01*
X7467045D01*
X7450384Y8057884D01*
Y8041222D01*
Y8057884D01*
X7433722Y8074545D01*
X7417061D01*
X7400400Y8057884D01*
Y8024561D01*
X7417061Y8007900D01*
X7500368Y8107868D02*
X7433722D01*
X7400400Y8141190D01*
X7433722Y8174513D01*
X7500368D01*
X7483706Y8207836D02*
X7500368Y8224497D01*
Y8257819D01*
X7483706Y8274481D01*
X7467045D01*
X7450384Y8257819D01*
Y8241158D01*
Y8257819D01*
X7433722Y8274481D01*
X7417061D01*
X7400400Y8257819D01*
Y8224497D01*
X7417061Y8207836D01*
X6474600Y7984561D02*
Y8084529D01*
X6441277Y8051206D01*
X6407955Y8084529D01*
Y7984561D01*
X6324648Y8084529D02*
X6357971D01*
X6374632Y8067868D01*
Y8001223D01*
X6357971Y7984561D01*
X6324648D01*
X6307987Y8001223D01*
Y8067868D01*
X6324648Y8084529D01*
X6274664D02*
X6208019D01*
X6241342D01*
Y7984561D01*
X6124713Y8084529D02*
X6158035D01*
X6174697Y8067868D01*
Y8001223D01*
X6158035Y7984561D01*
X6124713D01*
X6108052Y8001223D01*
Y8067868D01*
X6124713Y8084529D01*
X6008084Y7984561D02*
X6074729D01*
X6008084Y8051206D01*
Y8067868D01*
X6024745Y8084529D01*
X6058067D01*
X6074729Y8067868D01*
X5974761Y7967900D02*
X5908116D01*
X5874793Y7984561D02*
Y8051206D01*
X5841471Y8084529D01*
X5808148Y8051206D01*
Y7984561D01*
Y8034545D01*
X5874793D01*
X6687061Y7465400D02*
X6787029D01*
X6753706Y7498722D01*
X6787029Y7532045D01*
X6687061D01*
X6787029Y7615351D02*
Y7582029D01*
X6770368Y7565367D01*
X6703723D01*
X6687061Y7582029D01*
Y7615351D01*
X6703723Y7632012D01*
X6770368D01*
X6787029Y7615351D01*
Y7665335D02*
Y7731980D01*
Y7698658D01*
X6687061D01*
X6787029Y7815287D02*
Y7781964D01*
X6770368Y7765303D01*
X6703723D01*
X6687061Y7781964D01*
Y7815287D01*
X6703723Y7831948D01*
X6770368D01*
X6787029Y7815287D01*
X6687061Y7931916D02*
Y7865271D01*
X6753706Y7931916D01*
X6770368D01*
X6787029Y7915255D01*
Y7881932D01*
X6770368Y7865271D01*
X6670400Y7965239D02*
Y8031884D01*
X6787029Y8065206D02*
X6687061D01*
Y8115190D01*
X6703723Y8131851D01*
X6720384D01*
X6737045Y8115190D01*
Y8065206D01*
Y8115190D01*
X6753706Y8131851D01*
X6770368D01*
X6787029Y8115190D01*
Y8065206D01*
X4792062Y7810400D02*
X4892029D01*
X4858707Y7843722D01*
X4892029Y7877045D01*
X4792062D01*
X4892029Y7960351D02*
Y7927029D01*
X4875368Y7910367D01*
X4808723D01*
X4792062Y7927029D01*
Y7960351D01*
X4808723Y7977012D01*
X4875368D01*
X4892029Y7960351D01*
Y8010335D02*
Y8076980D01*
Y8043658D01*
X4792062D01*
X4892029Y8160287D02*
Y8126964D01*
X4875368Y8110303D01*
X4808723D01*
X4792062Y8126964D01*
Y8160287D01*
X4808723Y8176948D01*
X4875368D01*
X4892029Y8160287D01*
X4792062Y8210271D02*
Y8243593D01*
Y8226932D01*
X4892029D01*
X4875368Y8210271D01*
X4775400Y8293577D02*
Y8360222D01*
X4892029Y8393545D02*
X4792062D01*
Y8443529D01*
X4808723Y8460190D01*
X4825384D01*
X4842045Y8443529D01*
Y8393545D01*
Y8443529D01*
X4858707Y8460190D01*
X4875368D01*
X4892029Y8443529D01*
Y8393545D01*
X4299562Y7820400D02*
X4399529D01*
X4366207Y7853722D01*
X4399529Y7887045D01*
X4299562D01*
X4399529Y7970351D02*
Y7937029D01*
X4382868Y7920367D01*
X4316223D01*
X4299562Y7937029D01*
Y7970351D01*
X4316223Y7987012D01*
X4382868D01*
X4399529Y7970351D01*
Y8020335D02*
Y8086980D01*
Y8053658D01*
X4299562D01*
X4399529Y8170287D02*
Y8136964D01*
X4382868Y8120303D01*
X4316223D01*
X4299562Y8136964D01*
Y8170287D01*
X4316223Y8186948D01*
X4382868D01*
X4399529Y8170287D01*
X4299562Y8220271D02*
Y8253593D01*
Y8236932D01*
X4399529D01*
X4382868Y8220271D01*
X4282900Y8303577D02*
Y8370222D01*
X4299562Y8403545D02*
X4366207D01*
X4399529Y8436868D01*
X4366207Y8470190D01*
X4299562D01*
X4349546D01*
Y8403545D01*
X3017900Y3647900D02*
X3084545D01*
X3362900Y3646223D02*
X3429545D01*
X3396223Y3679545D02*
Y3612900D01*
X7048707Y2649545D02*
X7065368Y2632884D01*
Y2599561D01*
X7048707Y2582900D01*
X6982062D01*
X6965400Y2599561D01*
Y2632884D01*
X6982062Y2649545D01*
X7015384D01*
Y2616222D01*
X6965400Y2682868D02*
X7065368D01*
X6965400Y2749513D01*
X7065368D01*
Y2782835D02*
X6965400D01*
Y2832819D01*
X6982062Y2849480D01*
X7048707D01*
X7065368Y2832819D01*
Y2782835D01*
X7646206Y2577900D02*
X7662868Y2594561D01*
Y2627884D01*
X7646206Y2644545D01*
X7629545D01*
X7612884Y2627884D01*
Y2611223D01*
Y2627884D01*
X7596223Y2644545D01*
X7579561D01*
X7562900Y2627884D01*
Y2594561D01*
X7579561Y2577900D01*
X7662868Y2677868D02*
X7596223D01*
X7562900Y2711190D01*
X7596223Y2744513D01*
X7662868D01*
X7646206Y2777836D02*
X7662868Y2794497D01*
Y2827820D01*
X7646206Y2844481D01*
X7629545D01*
X7612884Y2827820D01*
Y2811158D01*
Y2827820D01*
X7596223Y2844481D01*
X7579561D01*
X7562900Y2827820D01*
Y2794497D01*
X7579561Y2777836D01*
X3344600Y2937751D02*
Y2785400D01*
X3268425D01*
X3243033Y2810792D01*
Y2912359D01*
X3268425Y2937751D01*
X3344600D01*
X3090682Y2912359D02*
X3116074Y2937751D01*
X3166858D01*
X3192249Y2912359D01*
Y2810792D01*
X3166858Y2785400D01*
X3116074D01*
X3090682Y2810792D01*
X3714600Y2995400D02*
X3663816D01*
X3689208D01*
Y3147751D01*
X3714600Y3122359D01*
X3486074Y2995400D02*
X3587641D01*
X3486074Y3096967D01*
Y3122359D01*
X3511466Y3147751D01*
X3562249D01*
X3587641Y3122359D01*
X3435290Y3147751D02*
Y3046183D01*
X3384507Y2995400D01*
X3333723Y3046183D01*
Y3147751D01*
X3282940Y3071575D02*
X3181372D01*
X3130589Y3122359D02*
X3105197Y3147751D01*
X3054413D01*
X3029022Y3122359D01*
Y3096967D01*
X3054413Y3071575D01*
X3079805D01*
X3054413D01*
X3029022Y3046183D01*
Y3020792D01*
X3054413Y2995400D01*
X3105197D01*
X3130589Y3020792D01*
X2876671Y3147751D02*
X2927455Y3122359D01*
X2978238Y3071575D01*
Y3020792D01*
X2952846Y2995400D01*
X2902063D01*
X2876671Y3020792D01*
Y3046183D01*
X2902063Y3071575D01*
X2978238D01*
X2825887Y3147751D02*
Y3046183D01*
X2775104Y2995400D01*
X2724320Y3046183D01*
Y3147751D01*
X3624600Y3205400D02*
Y3357751D01*
X3548425D01*
X3523033Y3332359D01*
Y3281575D01*
X3548425Y3256183D01*
X3624600D01*
X3472249Y3357751D02*
Y3205400D01*
X3421466Y3256183D01*
X3370682Y3205400D01*
Y3357751D01*
X3319899Y3205400D02*
Y3357751D01*
X3243723D01*
X3218331Y3332359D01*
Y3281575D01*
X3243723Y3256183D01*
X3319899D01*
X3269115D02*
X3218331Y3205400D01*
X3015197Y3357751D02*
X2964414D01*
X2989805D01*
Y3205400D01*
X3015197D01*
X2964414D01*
X2888238D02*
Y3357751D01*
X2786671Y3205400D01*
Y3357751D01*
X8355400Y3155400D02*
X8455368D01*
Y3205384D01*
X8438706Y3222045D01*
X8405384D01*
X8388722Y3205384D01*
Y3155400D01*
X8355400Y3255368D02*
X8422045Y3322013D01*
X8355400Y3355335D02*
X8455368D01*
X8355400Y3421980D01*
X8455368D01*
X8422045Y3455303D02*
Y3471965D01*
X8405384D01*
Y3455303D01*
X8422045D01*
X8372061D02*
Y3471965D01*
X8355400D01*
Y3455303D01*
X8372061D01*
X6194600Y2838691D02*
Y2772045D01*
X6161277Y2738723D01*
X6127955Y2772045D01*
Y2838691D01*
X6094632Y2738723D02*
X6061310D01*
X6077971D01*
Y2838691D01*
X6094632D01*
X5994664Y2805368D02*
X5961342D01*
X5944681Y2788707D01*
Y2738723D01*
X5994664D01*
X6011326Y2755384D01*
X5994664Y2772045D01*
X5944681D01*
X5844713Y2838691D02*
Y2738723D01*
X5894697D01*
X5911358Y2755384D01*
Y2788707D01*
X5894697Y2805368D01*
X5844713D01*
X5811390Y2738723D02*
X5778068D01*
X5794729D01*
Y2805368D01*
X5811390D01*
X5728084Y2738723D02*
Y2805368D01*
X5711422D01*
X5694761Y2788707D01*
Y2738723D01*
Y2788707D01*
X5678100Y2805368D01*
X5661439Y2788707D01*
Y2738723D01*
X5628116D02*
X5594793D01*
X5611455D01*
Y2805368D01*
X5628116D01*
X5544810D02*
Y2738723D01*
Y2772045D01*
X5528148Y2788707D01*
X5511487Y2805368D01*
X5494826D01*
X5344874Y2838691D02*
Y2738723D01*
Y2772045D01*
X5278229Y2838691D01*
X5328213Y2788707D01*
X5278229Y2738723D01*
X5244906Y2838691D02*
Y2738723D01*
Y2788707D01*
X5228245Y2805368D01*
X5194922D01*
X5178261Y2788707D01*
Y2738723D01*
X5144938Y2805368D02*
Y2738723D01*
Y2772045D01*
X5128277Y2788707D01*
X5111616Y2805368D01*
X5094955D01*
X5044971Y2738723D02*
X5011648D01*
X5028309D01*
Y2805368D01*
X5044971D01*
X4961664Y2705400D02*
Y2805368D01*
X4911680D01*
X4895019Y2788707D01*
Y2755384D01*
X4911680Y2738723D01*
X4961664D01*
X4861696D02*
Y2838691D01*
Y2772045D02*
X4811713Y2805368D01*
X4861696Y2772045D02*
X4811713Y2738723D01*
X4761729D02*
X4728406D01*
X4745067D01*
Y2805368D01*
X4761729D01*
X4678422Y2738723D02*
Y2805368D01*
X4628438D01*
X4611777Y2788707D01*
Y2738723D01*
X6194600Y3165368D02*
X6127955D01*
X6161277D01*
Y3065400D01*
X6094632D02*
Y3165368D01*
X6044648D01*
X6027987Y3148706D01*
Y3115384D01*
X6044648Y3098723D01*
X6094632D01*
X5994664Y3165368D02*
Y3082061D01*
X5978003Y3065400D01*
X5944681D01*
X5928019Y3082061D01*
Y3165368D01*
X5728084Y3148706D02*
X5744745Y3165368D01*
X5778067D01*
X5794729Y3148706D01*
Y3132045D01*
X5778067Y3115384D01*
X5744745D01*
X5728084Y3098723D01*
Y3082061D01*
X5744745Y3065400D01*
X5778067D01*
X5794729Y3082061D01*
X5678100Y3065400D02*
X5644777D01*
X5628116Y3082061D01*
Y3115384D01*
X5644777Y3132045D01*
X5678100D01*
X5694761Y3115384D01*
Y3082061D01*
X5678100Y3065400D01*
X5528148Y3148706D02*
X5544809Y3165368D01*
X5578132D01*
X5594793Y3148706D01*
Y3082061D01*
X5578132Y3065400D01*
X5544809D01*
X5528148Y3082061D01*
X5428180Y3148706D02*
X5444842Y3165368D01*
X5478164D01*
X5494825Y3148706D01*
Y3132045D01*
X5478164Y3115384D01*
X5444842D01*
X5428180Y3098723D01*
Y3082061D01*
X5444842Y3065400D01*
X5478164D01*
X5494825Y3082061D01*
X5328213Y3065400D02*
X5344874Y3082061D01*
X5361535Y3065400D01*
X5378196D01*
X5394858Y3082061D01*
Y3098723D01*
X5378196Y3115384D01*
X5394858Y3132045D01*
Y3148706D01*
X5378196Y3165368D01*
X5361535D01*
X5344874Y3148706D01*
Y3132045D01*
X5361535Y3115384D01*
X5344874Y3098723D01*
Y3082061D01*
X5328213Y3115384D02*
X5344874Y3098723D01*
X5378196Y3115384D02*
X5361535D01*
X5294890Y3065400D02*
Y3165368D01*
X5244906D01*
X5228245Y3148706D01*
Y3115384D01*
X5244906Y3098723D01*
X5294890D01*
X5261567D02*
X5228245Y3065400D01*
X7909960Y2950016D02*
Y3049984D01*
X7859976D01*
X7843315Y3033323D01*
Y3000000D01*
X7859976Y2983339D01*
X7909960D01*
X7876637D02*
X7843315Y2950016D01*
X7809992D02*
X7776669D01*
X7793330D01*
Y3049984D01*
X7809992Y3033323D01*
X7660040Y2950016D02*
X7726685D01*
X7660040Y3016661D01*
Y3033323D01*
X7676701Y3049984D01*
X7710024D01*
X7726685Y3033323D01*
X7323298Y2782516D02*
Y2882484D01*
X7273314D01*
X7256653Y2865823D01*
Y2832500D01*
X7273314Y2815839D01*
X7323298D01*
X7289976D02*
X7256653Y2782516D01*
X7223330D02*
X7190008D01*
X7206669D01*
Y2882484D01*
X7223330Y2865823D01*
X7140024Y2782516D02*
X7106702D01*
X7123363D01*
Y2882484D01*
X7140024Y2865823D01*
X6783290Y6949984D02*
Y6883339D01*
X6749968Y6850016D01*
X6716645Y6883339D01*
Y6949984D01*
X6683322D02*
X6616677D01*
X6650000D01*
Y6850016D01*
X6583355Y6866677D02*
X6566693Y6850016D01*
X6533371D01*
X6516710Y6866677D01*
Y6933322D01*
X6533371Y6949984D01*
X6566693D01*
X6583355Y6933322D01*
Y6916661D01*
X6566693Y6900000D01*
X6516710D01*
X6873290Y6247484D02*
Y6180839D01*
X6839968Y6147516D01*
X6806645Y6180839D01*
Y6247484D01*
X6773322D02*
X6706677D01*
X6740000D01*
Y6147516D01*
X6673355Y6230822D02*
X6656693Y6247484D01*
X6623371D01*
X6606710Y6230822D01*
Y6214161D01*
X6623371Y6197500D01*
X6606710Y6180839D01*
Y6164177D01*
X6623371Y6147516D01*
X6656693D01*
X6673355Y6164177D01*
Y6180839D01*
X6656693Y6197500D01*
X6673355Y6214161D01*
Y6230822D01*
X6656693Y6197500D02*
X6623371D01*
X5850790Y6849984D02*
Y6783339D01*
X5817468Y6750016D01*
X5784145Y6783339D01*
Y6849984D01*
X5750823D02*
X5684178D01*
X5717500D01*
Y6750016D01*
X5650855Y6849984D02*
X5584210D01*
Y6833323D01*
X5650855Y6766678D01*
Y6750016D01*
X6035790Y6122484D02*
Y6055839D01*
X6002468Y6022516D01*
X5969145Y6055839D01*
Y6122484D01*
X5935823D02*
X5869177D01*
X5902500D01*
Y6022516D01*
X5769210Y6122484D02*
X5802532Y6105822D01*
X5835855Y6072500D01*
Y6039177D01*
X5819193Y6022516D01*
X5785871D01*
X5769210Y6039177D01*
Y6055839D01*
X5785871Y6072500D01*
X5835855D01*
X4908290Y6924984D02*
Y6858339D01*
X4874968Y6825016D01*
X4841645Y6858339D01*
Y6924984D01*
X4808323D02*
X4741678D01*
X4775000D01*
Y6825016D01*
X4641710Y6924984D02*
X4708355D01*
Y6875000D01*
X4675032Y6891661D01*
X4658371D01*
X4641710Y6875000D01*
Y6841677D01*
X4658371Y6825016D01*
X4691693D01*
X4708355Y6841677D01*
X5171536Y6244527D02*
Y6177881D01*
X5138214Y6144559D01*
X5104891Y6177881D01*
Y6244527D01*
X5071568D02*
X5004923D01*
X5038246D01*
Y6144559D01*
X4921617D02*
Y6244527D01*
X4971601Y6194543D01*
X4904956D01*
X4019984Y6701710D02*
X3953339D01*
X3920016Y6735032D01*
X3953339Y6768355D01*
X4019984D01*
Y6801678D02*
Y6868323D01*
Y6835000D01*
X3920016D01*
X4003322Y6901645D02*
X4019984Y6918307D01*
Y6951629D01*
X4003322Y6968290D01*
X3986661D01*
X3970000Y6951629D01*
Y6934968D01*
Y6951629D01*
X3953339Y6968290D01*
X3936677D01*
X3920016Y6951629D01*
Y6918307D01*
X3936677Y6901645D01*
X3763290Y5429984D02*
Y5363339D01*
X3729968Y5330016D01*
X3696645Y5363339D01*
Y5429984D01*
X3663323D02*
X3596678D01*
X3630000D01*
Y5330016D01*
X3496710D02*
X3563355D01*
X3496710Y5396661D01*
Y5413322D01*
X3513371Y5429984D01*
X3546693D01*
X3563355Y5413322D01*
X5039129Y3972484D02*
Y3905839D01*
X5005806Y3872516D01*
X4972484Y3905839D01*
Y3972484D01*
X4939161D02*
X4872516D01*
X4905839D01*
Y3872516D01*
X4839193D02*
X4805871D01*
X4822532D01*
Y3972484D01*
X4839193Y3955822D01*
X7233290Y3699984D02*
Y3633339D01*
X7199968Y3600016D01*
X7166645Y3633339D01*
Y3699984D01*
X7133323D02*
Y3600016D01*
X7083339D01*
X7066678Y3616678D01*
Y3683323D01*
X7083339Y3699984D01*
X7133323D01*
X7033355Y3683323D02*
X7016693Y3699984D01*
X6983371D01*
X6966710Y3683323D01*
Y3666661D01*
X6983371Y3650000D01*
X7000032D01*
X6983371D01*
X6966710Y3633339D01*
Y3616678D01*
X6983371Y3600016D01*
X7016693D01*
X7033355Y3616678D01*
X5800016Y7208371D02*
X5899984D01*
Y7258355D01*
X5883323Y7275016D01*
X5850000D01*
X5833339Y7258355D01*
Y7208371D01*
Y7241693D02*
X5800016Y7275016D01*
Y7374984D02*
Y7308339D01*
X5866661Y7374984D01*
X5883323D01*
X5899984Y7358323D01*
Y7325000D01*
X5883323Y7308339D01*
X5800016Y7408306D02*
Y7441629D01*
Y7424968D01*
X5899984D01*
X5883323Y7408306D01*
X4224960Y3775016D02*
Y3874984D01*
X4174976D01*
X4158315Y3858322D01*
Y3825000D01*
X4174976Y3808339D01*
X4224960D01*
X4191637D02*
X4158315Y3775016D01*
X4124992D02*
X4091669D01*
X4108330D01*
Y3874984D01*
X4124992Y3858322D01*
X4041685Y3791677D02*
X4025024Y3775016D01*
X3991701D01*
X3975040Y3791677D01*
Y3858322D01*
X3991701Y3874984D01*
X4025024D01*
X4041685Y3858322D01*
Y3841661D01*
X4025024Y3825000D01*
X3975040D01*
X3375016Y6975040D02*
X3474984D01*
Y7025024D01*
X3458322Y7041685D01*
X3425000D01*
X3408338Y7025024D01*
Y6975040D01*
Y7008363D02*
X3375016Y7041685D01*
Y7075008D02*
Y7108330D01*
Y7091669D01*
X3474984D01*
X3458322Y7075008D01*
X3474984Y7158314D02*
Y7224959D01*
X3458322D01*
X3391677Y7158314D01*
X3375016D01*
X4275016Y4050040D02*
X4374984D01*
Y4100024D01*
X4358322Y4116685D01*
X4325000D01*
X4308339Y4100024D01*
Y4050040D01*
Y4083363D02*
X4275016Y4116685D01*
Y4150008D02*
Y4183330D01*
Y4166669D01*
X4374984D01*
X4358322Y4150008D01*
X4374984Y4299959D02*
Y4233314D01*
X4325000D01*
X4341661Y4266637D01*
Y4283298D01*
X4325000Y4299959D01*
X4291677D01*
X4275016Y4283298D01*
Y4249976D01*
X4291677Y4233314D01*
X6474960Y5080016D02*
Y5179984D01*
X6424976D01*
X6408315Y5163322D01*
Y5130000D01*
X6424976Y5113339D01*
X6474960D01*
X6441637D02*
X6408315Y5080016D01*
X6374992D02*
X6341669D01*
X6358330D01*
Y5179984D01*
X6374992Y5163322D01*
X6241702Y5080016D02*
Y5179984D01*
X6291685Y5130000D01*
X6225040D01*
X7762460Y4510016D02*
Y4609984D01*
X7712476D01*
X7695815Y4593323D01*
Y4560000D01*
X7712476Y4543339D01*
X7762460D01*
X7729137D02*
X7695815Y4510016D01*
X7662492D02*
X7629169D01*
X7645831D01*
Y4609984D01*
X7662492Y4593323D01*
X7579186D02*
X7562524Y4609984D01*
X7529202D01*
X7512540Y4593323D01*
Y4576661D01*
X7529202Y4560000D01*
X7545863D01*
X7529202D01*
X7512540Y4543339D01*
Y4526678D01*
X7529202Y4510016D01*
X7562524D01*
X7579186Y4526678D01*
X8082460Y4510016D02*
Y4609984D01*
X8032476D01*
X8015815Y4593323D01*
Y4560000D01*
X8032476Y4543339D01*
X8082460D01*
X8049137D02*
X8015815Y4510016D01*
X7982492D02*
X7949169D01*
X7965830D01*
Y4609984D01*
X7982492Y4593323D01*
X7899185D02*
X7882524Y4609984D01*
X7849201D01*
X7832540Y4593323D01*
Y4526678D01*
X7849201Y4510016D01*
X7882524D01*
X7899185Y4526678D01*
Y4593323D01*
X5443306Y4015016D02*
Y4114984D01*
X5393322D01*
X5376661Y4098323D01*
Y4065000D01*
X5393322Y4048339D01*
X5443306D01*
X5409984D02*
X5376661Y4015016D01*
X5343339Y4114984D02*
X5276694D01*
Y4098323D01*
X5343339Y4031677D01*
Y4015016D01*
X7831629Y5549984D02*
Y5450016D01*
X7781645D01*
X7764984Y5466677D01*
Y5533322D01*
X7781645Y5549984D01*
X7831629D01*
X7731661Y5450016D02*
Y5516661D01*
X7698339Y5549984D01*
X7665016Y5516661D01*
Y5450016D01*
Y5500000D01*
X7731661D01*
X7631693Y5450016D02*
X7598371D01*
X7615032D01*
Y5549984D01*
X7631693Y5533322D01*
X7806645Y6138322D02*
X7823306Y6154984D01*
X7856629D01*
X7873290Y6138322D01*
Y6071677D01*
X7856629Y6055016D01*
X7823306D01*
X7806645Y6071677D01*
X7723339Y6055016D02*
Y6154984D01*
X7773323Y6105000D01*
X7706678D01*
X7673355Y6138322D02*
X7656693Y6154984D01*
X7623371D01*
X7606710Y6138322D01*
Y6071677D01*
X7623371Y6055016D01*
X7656693D01*
X7673355Y6071677D01*
Y6138322D01*
X8208322Y5538355D02*
X8224984Y5521694D01*
Y5488371D01*
X8208322Y5471710D01*
X8141677D01*
X8125016Y5488371D01*
Y5521694D01*
X8141677Y5538355D01*
X8208322Y5571677D02*
X8224984Y5588339D01*
Y5621661D01*
X8208322Y5638322D01*
X8191661D01*
X8175000Y5621661D01*
Y5605000D01*
Y5621661D01*
X8158339Y5638322D01*
X8141677D01*
X8125016Y5621661D01*
Y5588339D01*
X8141677Y5571677D01*
Y5671645D02*
X8125016Y5688307D01*
Y5721629D01*
X8141677Y5738290D01*
X8208322D01*
X8224984Y5721629D01*
Y5688307D01*
X8208322Y5671645D01*
X8191661D01*
X8175000Y5688307D01*
Y5738290D01*
X8168343Y6405354D02*
X8185005Y6388693D01*
Y6355371D01*
X8168343Y6338709D01*
X8101698D01*
X8085037Y6355371D01*
Y6388693D01*
X8101698Y6405354D01*
X8168343Y6438677D02*
X8185005Y6455339D01*
Y6488661D01*
X8168343Y6505322D01*
X8151682D01*
X8135021Y6488661D01*
Y6472000D01*
Y6488661D01*
X8118359Y6505322D01*
X8101698D01*
X8085037Y6488661D01*
Y6455339D01*
X8101698Y6438677D01*
X8185005Y6605290D02*
Y6538645D01*
X8135021D01*
X8151682Y6571968D01*
Y6588629D01*
X8135021Y6605290D01*
X8101698D01*
X8085037Y6588629D01*
Y6555306D01*
X8101698Y6538645D01*
X3873322Y4493354D02*
X3889984Y4476693D01*
Y4443371D01*
X3873322Y4426709D01*
X3806677D01*
X3790016Y4443371D01*
Y4476693D01*
X3806677Y4493354D01*
X3873322Y4526677D02*
X3889984Y4543338D01*
Y4576661D01*
X3873322Y4593322D01*
X3856661D01*
X3840000Y4576661D01*
Y4560000D01*
Y4576661D01*
X3823339Y4593322D01*
X3806677D01*
X3790016Y4576661D01*
Y4543338D01*
X3806677Y4526677D01*
X3873322Y4626645D02*
X3889984Y4643306D01*
Y4676629D01*
X3873322Y4693290D01*
X3856661D01*
X3840000Y4676629D01*
Y4659967D01*
Y4676629D01*
X3823339Y4693290D01*
X3806677D01*
X3790016Y4676629D01*
Y4643306D01*
X3806677Y4626645D01*
X3890658Y4848449D02*
X3907319Y4831787D01*
Y4798465D01*
X3890658Y4781803D01*
X3824013D01*
X3807351Y4798465D01*
Y4831787D01*
X3824013Y4848449D01*
X3890658Y4881771D02*
X3907319Y4898433D01*
Y4931755D01*
X3890658Y4948416D01*
X3873996D01*
X3857335Y4931755D01*
Y4915094D01*
Y4931755D01*
X3840674Y4948416D01*
X3824013D01*
X3807351Y4931755D01*
Y4898433D01*
X3824013Y4881771D01*
X3807351Y4981739D02*
Y5015062D01*
Y4998400D01*
X3907319D01*
X3890658Y4981739D01*
X3904204Y5175665D02*
X3920865Y5159003D01*
Y5125681D01*
X3904204Y5109019D01*
X3837559D01*
X3820897Y5125681D01*
Y5159003D01*
X3837559Y5175665D01*
X3904204Y5208987D02*
X3920865Y5225649D01*
Y5258971D01*
X3904204Y5275632D01*
X3887542D01*
X3870881Y5258971D01*
Y5242310D01*
Y5258971D01*
X3854220Y5275632D01*
X3837559D01*
X3820897Y5258971D01*
Y5225649D01*
X3837559Y5208987D01*
X3904204Y5308955D02*
X3920865Y5325616D01*
Y5358939D01*
X3904204Y5375600D01*
X3837559D01*
X3820897Y5358939D01*
Y5325616D01*
X3837559Y5308955D01*
X3904204D01*
X5796645Y4513322D02*
X5813306Y4529984D01*
X5846629D01*
X5863290Y4513322D01*
Y4446677D01*
X5846629Y4430016D01*
X5813306D01*
X5796645Y4446677D01*
X5696677Y4430016D02*
X5763322D01*
X5696677Y4496661D01*
Y4513322D01*
X5713339Y4529984D01*
X5746661D01*
X5763322Y4513322D01*
X5663355Y4446677D02*
X5646693Y4430016D01*
X5613371D01*
X5596710Y4446677D01*
Y4513322D01*
X5613371Y4529984D01*
X5646693D01*
X5663355Y4513322D01*
Y4496661D01*
X5646693Y4480000D01*
X5596710D01*
X5491645Y4508322D02*
X5508306Y4524984D01*
X5541629D01*
X5558290Y4508322D01*
Y4441677D01*
X5541629Y4425016D01*
X5508306D01*
X5491645Y4441677D01*
X5391678Y4425016D02*
X5458323D01*
X5391678Y4491661D01*
Y4508322D01*
X5408339Y4524984D01*
X5441661D01*
X5458323Y4508322D01*
X5358355D02*
X5341693Y4524984D01*
X5308371D01*
X5291710Y4508322D01*
Y4491661D01*
X5308371Y4475000D01*
X5291710Y4458339D01*
Y4441677D01*
X5308371Y4425016D01*
X5341693D01*
X5358355Y4441677D01*
Y4458339D01*
X5341693Y4475000D01*
X5358355Y4491661D01*
Y4508322D01*
X5341693Y4475000D02*
X5308371D01*
X5496645Y5378322D02*
X5513306Y5394984D01*
X5546629D01*
X5563290Y5378322D01*
Y5311677D01*
X5546629Y5295016D01*
X5513306D01*
X5496645Y5311677D01*
X5396678Y5295016D02*
X5463323D01*
X5396678Y5361661D01*
Y5378322D01*
X5413339Y5394984D01*
X5446661D01*
X5463323Y5378322D01*
X5296710Y5394984D02*
X5363355D01*
Y5345000D01*
X5330032Y5361661D01*
X5313371D01*
X5296710Y5345000D01*
Y5311677D01*
X5313371Y5295016D01*
X5346693D01*
X5363355Y5311677D01*
X3910823Y4058354D02*
X3927484Y4041693D01*
Y4008371D01*
X3910823Y3991709D01*
X3844178D01*
X3827516Y4008371D01*
Y4041693D01*
X3844178Y4058354D01*
X3827516Y4158322D02*
Y4091677D01*
X3894161Y4158322D01*
X3910823D01*
X3927484Y4141661D01*
Y4108338D01*
X3910823Y4091677D01*
Y4191645D02*
X3927484Y4208306D01*
Y4241629D01*
X3910823Y4258290D01*
X3894161D01*
X3877500Y4241629D01*
Y4224967D01*
Y4241629D01*
X3860839Y4258290D01*
X3844178D01*
X3827516Y4241629D01*
Y4208306D01*
X3844178Y4191645D01*
X7374145Y4643322D02*
X7390806Y4659984D01*
X7424129D01*
X7440790Y4643322D01*
Y4576677D01*
X7424129Y4560016D01*
X7390806D01*
X7374145Y4576677D01*
X7274177Y4560016D02*
X7340823D01*
X7274177Y4626661D01*
Y4643322D01*
X7290839Y4659984D01*
X7324161D01*
X7340823Y4643322D01*
X7174210Y4560016D02*
X7240855D01*
X7174210Y4626661D01*
Y4643322D01*
X7190871Y4659984D01*
X7224193D01*
X7240855Y4643322D01*
X7388255Y5826246D02*
X7404916Y5842908D01*
X7438239D01*
X7454900Y5826246D01*
Y5759601D01*
X7438239Y5742940D01*
X7404916D01*
X7388255Y5759601D01*
X7288287Y5742940D02*
X7354932D01*
X7288287Y5809585D01*
Y5826246D01*
X7304948Y5842908D01*
X7338271D01*
X7354932Y5826246D01*
X7254964Y5742940D02*
X7221642D01*
X7238303D01*
Y5842908D01*
X7254964Y5826246D01*
X8433315Y5283322D02*
X8449976Y5299984D01*
X8483298D01*
X8499960Y5283322D01*
Y5216677D01*
X8483298Y5200016D01*
X8449976D01*
X8433315Y5216677D01*
X8399992Y5200016D02*
X8366669D01*
X8383330D01*
Y5299984D01*
X8399992Y5283322D01*
X8316685D02*
X8300024Y5299984D01*
X8266702D01*
X8250040Y5283322D01*
Y5266661D01*
X8266702Y5250000D01*
X8250040Y5233339D01*
Y5216677D01*
X8266702Y5200016D01*
X8300024D01*
X8316685Y5216677D01*
Y5233339D01*
X8300024Y5250000D01*
X8316685Y5266661D01*
Y5283322D01*
X8300024Y5250000D02*
X8266702D01*
X6783322Y4824185D02*
X6799984Y4807524D01*
Y4774202D01*
X6783322Y4757540D01*
X6716677D01*
X6700016Y4774202D01*
Y4807524D01*
X6716677Y4824185D01*
X6700016Y4857508D02*
Y4890831D01*
Y4874170D01*
X6799984D01*
X6783322Y4857508D01*
X6799984Y4940815D02*
Y5007460D01*
X6783322D01*
X6716677Y4940815D01*
X6700016D01*
X7073322Y4816685D02*
X7089984Y4800024D01*
Y4766702D01*
X7073322Y4750040D01*
X7006677D01*
X6990016Y4766702D01*
Y4800024D01*
X7006677Y4816685D01*
X6990016Y4850008D02*
Y4883331D01*
Y4866669D01*
X7089984D01*
X7073322Y4850008D01*
X7089984Y4999960D02*
X7073322Y4966637D01*
X7040000Y4933314D01*
X7006677D01*
X6990016Y4949976D01*
Y4983298D01*
X7006677Y4999960D01*
X7023339D01*
X7040000Y4983298D01*
Y4933314D01*
X6191661Y4558323D02*
X6208323Y4574984D01*
X6241645D01*
X6258307Y4558323D01*
Y4491678D01*
X6241645Y4475016D01*
X6208323D01*
X6191661Y4491678D01*
X6158339D02*
X6141677Y4475016D01*
X6108355D01*
X6091694Y4491678D01*
Y4558323D01*
X6108355Y4574984D01*
X6141677D01*
X6158339Y4558323D01*
Y4541661D01*
X6141677Y4525000D01*
X6091694D01*
X6366661Y3598323D02*
X6383323Y3614984D01*
X6416645D01*
X6433306Y3598323D01*
Y3531678D01*
X6416645Y3515016D01*
X6383323D01*
X6366661Y3531678D01*
X6266694Y3614984D02*
X6300016Y3598323D01*
X6333339Y3565000D01*
Y3531678D01*
X6316677Y3515016D01*
X6283355D01*
X6266694Y3531678D01*
Y3548339D01*
X6283355Y3565000D01*
X6333339D01*
X6199161Y4133322D02*
X6215822Y4149984D01*
X6249145D01*
X6265806Y4133322D01*
Y4066677D01*
X6249145Y4050016D01*
X6215822D01*
X6199161Y4066677D01*
X6099194Y4149984D02*
X6165839D01*
Y4100000D01*
X6132516Y4116661D01*
X6115855D01*
X6099194Y4100000D01*
Y4066677D01*
X6115855Y4050016D01*
X6149177D01*
X6165839Y4066677D01*
X6150000Y3833323D02*
X6166661Y3849984D01*
X6199984D01*
X6216645Y3833323D01*
Y3766678D01*
X6199984Y3750016D01*
X6166661D01*
X6150000Y3766678D01*
X6116677Y3750016D02*
X6083355D01*
X6100016D01*
Y3849984D01*
X6116677Y3833323D01*
D68*
X8125000Y5400500D02*
G03*
X8125000Y5400500I-12500J0D01*
G01*
X4607500Y5000000D02*
G03*
X4607500Y5000000I-12500J0D01*
G01*
X3637500Y5463000D02*
G03*
X3637500Y5463000I-12500J0D01*
G01*
X6275000Y6274500D02*
G03*
X6275000Y6274500I-12500J0D01*
G01*
X4100000Y6675500D02*
G03*
X4100000Y6675500I-12500J0D01*
G01*
X5550000Y5449500D02*
G03*
X5550000Y5449500I-12500J0D01*
G01*
X5975000Y6700500D02*
G03*
X5975000Y6700500I-12500J0D01*
G01*
X5000000Y6150500D02*
G03*
X5000000Y6150500I-12500J0D01*
G01*
X4375000Y6249500D02*
G03*
X4375000Y6249500I-12500J0D01*
G01*
X6925000Y6125500D02*
G03*
X6925000Y6125500I-12500J0D01*
G01*
X7530000Y3330000D02*
G03*
X7530000Y3330000I-12500J0D01*
G01*
D69*
X7945000Y5285000D02*
G03*
X7945000Y5285000I-30000J0D01*
G01*
X3852500Y5578500D02*
G03*
X3852500Y5578500I-30000J0D01*
G01*
X6490000Y6390000D02*
G03*
X6490000Y6390000I-30000J0D01*
G01*
X3920000Y6560000D02*
G03*
X3920000Y6560000I-30000J0D01*
G01*
X5765000Y5565000D02*
G03*
X5765000Y5565000I-30000J0D01*
G01*
X5795000Y6585000D02*
G03*
X5795000Y6585000I-30000J0D01*
G01*
X4820000Y6035000D02*
G03*
X4820000Y6035000I-30000J0D01*
G01*
X4590000Y6365000D02*
G03*
X4590000Y6365000I-30000J0D01*
G01*
X6745000Y6010000D02*
G03*
X6745000Y6010000I-30000J0D01*
G01*
D70*
X7635000Y4865000D02*
X8015000D01*
X7635000Y5385000D02*
X8015000D01*
X7635000Y4865000D02*
Y5385000D01*
X8015000Y4865000D02*
Y5385000D01*
X7445000Y4785000D02*
Y4895000D01*
Y4955000D02*
Y5065000D01*
X7205000Y4785000D02*
Y4895000D01*
Y4955000D02*
Y5065000D01*
X5269000Y4745000D02*
Y4810000D01*
X4589000D02*
X5269000D01*
X4589000Y4745000D02*
Y4810000D01*
X3722500Y5478500D02*
Y5998500D01*
X4102500Y5478500D02*
Y5998500D01*
X3722500Y5478500D02*
X4102500D01*
X3722500Y5998500D02*
X4102500D01*
X7170000Y5110000D02*
Y5220000D01*
Y5280000D02*
Y5390000D01*
X6930000Y5110000D02*
Y5220000D01*
Y5280000D02*
Y5390000D01*
X6360000Y6290000D02*
Y6810000D01*
X6740000Y6290000D02*
Y6810000D01*
X6360000Y6290000D02*
X6740000D01*
X6360000Y6810000D02*
X6740000D01*
X5305000Y4805000D02*
Y4915000D01*
Y4635000D02*
Y4745000D01*
X5545000Y4805000D02*
Y4915000D01*
Y4635000D02*
Y4745000D01*
X3990000Y6140000D02*
Y6660000D01*
X3610000Y6140000D02*
Y6660000D01*
X3990000D01*
X3610000Y6140000D02*
X3990000D01*
X5635000Y5465000D02*
Y5985000D01*
X6015000Y5465000D02*
Y5985000D01*
X5635000Y5465000D02*
X6015000D01*
X5635000Y5985000D02*
X6015000D01*
X6870000Y5110000D02*
Y5220000D01*
Y5280000D02*
Y5390000D01*
X6630000Y5110000D02*
Y5220000D01*
Y5280000D02*
Y5390000D01*
X5865000Y6165000D02*
Y6685000D01*
X5485000Y6165000D02*
Y6685000D01*
X5865000D01*
X5485000Y6165000D02*
X5865000D01*
X4890000Y5615000D02*
Y6135000D01*
X4510000Y5615000D02*
Y6135000D01*
X4890000D01*
X4510000Y5615000D02*
X4890000D01*
X4190000Y5395000D02*
X4300000D01*
X4020000D02*
X4130000D01*
X4190000Y5155000D02*
X4300000D01*
X4020000D02*
X4130000D01*
X6025000Y4635000D02*
X6425000D01*
X6025000Y5015000D02*
X6425000D01*
X4460000Y6265000D02*
Y6785000D01*
X4840000Y6265000D02*
Y6785000D01*
X4460000Y6265000D02*
X4840000D01*
X4460000Y6785000D02*
X4840000D01*
X6815000Y5590000D02*
Y6110000D01*
X6435000Y5590000D02*
Y6110000D01*
X6815000D01*
X6435000Y5590000D02*
X6815000D01*
X5807500Y3710000D02*
X6147500D01*
X5807500Y3490000D02*
X6147500D01*
X7487500Y3420000D02*
Y3520000D01*
X7407500D02*
X7487500D01*
X7187500Y3420000D02*
Y3520000D01*
X7267500D01*
X7205000Y5455000D02*
Y5565000D01*
Y5285000D02*
Y5395000D01*
X7445000Y5455000D02*
Y5565000D01*
Y5285000D02*
Y5395000D01*
X5820000Y4635000D02*
Y4745000D01*
Y4805000D02*
Y4915000D01*
X5580000Y4635000D02*
Y4745000D01*
Y4805000D02*
Y4915000D01*
X5360000Y7100000D02*
Y7500000D01*
X5740000Y7100000D02*
Y7500000D01*
X3510000Y6900000D02*
Y7300000D01*
X3890000Y6900000D02*
Y7300000D01*
D72*
X5772500Y3510000D02*
G03*
X5772500Y3510000I-5000J0D01*
G01*
D73*
X7325000Y4892500D02*
Y4912500D01*
X7275000D02*
X7375000D01*
X7325000Y4937500D02*
Y4957500D01*
X7275000Y4937500D02*
X7375000D01*
X7000000Y5237500D02*
X7100000D01*
X7050000Y5217500D02*
Y5237500D01*
X7000000Y5262500D02*
X7100000D01*
X7050000D02*
Y5282500D01*
X5375000Y4787500D02*
X5475000D01*
X5425000D02*
Y4807500D01*
X5375000Y4762500D02*
X5475000D01*
X5425000Y4742500D02*
Y4762500D01*
X6700000Y5237500D02*
X6800000D01*
X6750000Y5217500D02*
Y5237500D01*
X6700000Y5262500D02*
X6800000D01*
X6750000D02*
Y5282500D01*
X4172500Y5225000D02*
Y5325000D01*
Y5275000D02*
X4192500D01*
X4147500Y5225000D02*
Y5325000D01*
X4127500Y5275000D02*
X4147500D01*
X5987500Y3550000D02*
Y3650000D01*
X5967500Y3550000D02*
Y3650000D01*
X7325000Y5437500D02*
Y5457500D01*
X7275000Y5437500D02*
X7375000D01*
X7325000Y5392500D02*
Y5412500D01*
X7275000D02*
X7375000D01*
X5700000Y4742500D02*
Y4762500D01*
X5650000D02*
X5750000D01*
X5700000Y4787500D02*
Y4807500D01*
X5650000Y4787500D02*
X5750000D01*
%TF.MD5,f89a223d9efa378b72050d8a3d94749b*%
M02*
