%TF.GenerationSoftware,Altium Limited,Altium Designer,24.7.2 (38)*%
G04 Layer_Color=0*
%FSLAX45Y45*%
%MOMM*%
%TF.SameCoordinates,0E07C861-06C4-4886-B41C-83883A41DA48*%
%TF.FilePolarity,Positive*%
%TF.FileFunction,Plated,1,4,PTH,Drill*%
%TF.Part,Single*%
G01*
G75*
%TA.AperFunction,ComponentDrill*%
%ADD115C,0.70000*%
%ADD116C,1.50000*%
%ADD117C,1.70000*%
%ADD118C,1.00000*%
%TA.AperFunction,ViaDrill,NotFilled*%
%ADD119C,0.20000*%
%ADD120C,0.30000*%
%ADD121C,2.60000*%
D115*
X7650000Y7900000D02*
D03*
X7850000D02*
D03*
X8050000D02*
D03*
X8250000D02*
D03*
X7450000D02*
D03*
X3050000D02*
D03*
X3250000D02*
D03*
X3450000D02*
D03*
X3650000D02*
D03*
X2850000D02*
D03*
X7225000Y3175000D02*
D03*
X7425000D02*
D03*
X7625000D02*
D03*
X7025000D02*
D03*
D116*
X4225000Y2750000D02*
D03*
Y4900000D02*
D03*
D117*
X3475000Y3850000D02*
D03*
X2975000D02*
D03*
X6250000Y7200000D02*
D03*
X6750000D02*
D03*
X4350000D02*
D03*
X4850000D02*
D03*
D118*
X3775000Y2850000D02*
D03*
X2675000D02*
D03*
X5950000Y8200000D02*
D03*
X7050000D02*
D03*
X4050000D02*
D03*
X5150000D02*
D03*
D119*
X3575000Y2850000D02*
D03*
X3400000D02*
D03*
X3225000D02*
D03*
X3050000D02*
D03*
X2875000D02*
D03*
X4200000Y3425000D02*
D03*
X4550000D02*
D03*
X4375000D02*
D03*
Y3900000D02*
D03*
Y3650000D02*
D03*
X4200000D02*
D03*
X4675000D02*
D03*
X4550000D02*
D03*
X4675000Y3900000D02*
D03*
X4550000D02*
D03*
X5307696Y3959579D02*
D03*
X4160000Y3910000D02*
D03*
X6388570Y4695750D02*
D03*
X7893650Y6185552D02*
D03*
X7700000Y6278452D02*
D03*
X7882196Y6287500D02*
D03*
X7764790D02*
D03*
X7825000Y6292500D02*
D03*
X7205000Y6155000D02*
D03*
X7480112Y5915659D02*
D03*
X7247500Y5720000D02*
D03*
X7373000Y5885000D02*
D03*
X7536097Y5930000D02*
D03*
X3140000Y6830000D02*
D03*
X3737013Y5908126D02*
D03*
X3812600Y6040000D02*
D03*
X3903000D02*
D03*
X5652500Y5365014D02*
D03*
X3775000Y4000000D02*
D03*
X3683550Y3900000D02*
D03*
X3195000Y4065896D02*
D03*
X3168314Y4155589D02*
D03*
X3570000Y4056500D02*
D03*
X3475000Y4025000D02*
D03*
X4030700Y4459300D02*
D03*
X3880000Y4410000D02*
D03*
Y4355000D02*
D03*
Y4300000D02*
D03*
X5890743Y4397841D02*
D03*
X6001973Y4411973D02*
D03*
X6741545Y3528455D02*
D03*
X6625000Y3600000D02*
D03*
X6200000Y4425000D02*
D03*
X6151405Y4398742D02*
D03*
X7990000Y4810000D02*
D03*
X3600000Y6970000D02*
D03*
X3547978Y7227978D02*
D03*
X2820000Y7550000D02*
D03*
X3903984Y6253983D02*
D03*
X3370000Y5710000D02*
D03*
X3399500Y5625000D02*
D03*
X3480500Y4646687D02*
D03*
X3480400Y4702699D02*
D03*
X3399500Y5381820D02*
D03*
Y5500000D02*
D03*
X5951791Y3688500D02*
D03*
X6338638Y3708638D02*
D03*
X6290393Y3751134D02*
D03*
X6281949Y3607500D02*
D03*
X3504265Y4754961D02*
D03*
X6330000Y4000000D02*
D03*
X6565000Y6192275D02*
D03*
X6511938Y6177801D02*
D03*
X6650000Y6220000D02*
D03*
X7800000Y6940000D02*
D03*
X7850000D02*
D03*
X8000000Y6280000D02*
D03*
X7370000Y5710000D02*
D03*
X7750000Y5455000D02*
D03*
X5925000Y3781000D02*
D03*
X5560000Y4210000D02*
D03*
X3561400Y4707500D02*
D03*
X3559264Y4762458D02*
D03*
X3812135Y4856667D02*
D03*
X4147220Y5500000D02*
D03*
X5347500Y8267500D02*
D03*
X3764548Y6399017D02*
D03*
X7200000Y7500000D02*
D03*
X3164000Y6006000D02*
D03*
X2618499Y6700000D02*
D03*
X2609500Y6830000D02*
D03*
X7507023Y6487023D02*
D03*
X7435862Y6530413D02*
D03*
X7435000Y6279500D02*
D03*
X2615196Y7208000D02*
D03*
X7320000Y6570000D02*
D03*
X2618499Y7081000D02*
D03*
Y6950000D02*
D03*
X7503638Y6683638D02*
D03*
X7501326Y6578908D02*
D03*
X3161000Y5879000D02*
D03*
X3162500Y5752000D02*
D03*
X2760000Y5560500D02*
D03*
X3150000Y5040000D02*
D03*
X5939120Y4182500D02*
D03*
X4756500Y5688267D02*
D03*
X6055549Y4431726D02*
D03*
X6110424Y4435424D02*
D03*
X3960000Y6800000D02*
D03*
X5665500Y5915500D02*
D03*
X4852300Y6932700D02*
D03*
X5550000Y3600000D02*
D03*
X4025000Y4159500D02*
D03*
X3700000Y4759499D02*
D03*
X5533862Y3883862D02*
D03*
X4510000Y6650000D02*
D03*
X3920000Y6620000D02*
D03*
X5812500Y4150000D02*
D03*
X6290000Y3850000D02*
D03*
X6250000Y3350000D02*
D03*
X6200000Y3325000D02*
D03*
X4950000Y2670000D02*
D03*
X3163000Y6567500D02*
D03*
X3160000Y6700500D02*
D03*
X5832022Y3772022D02*
D03*
X4826000Y4920000D02*
D03*
X6330000Y3800000D02*
D03*
Y3900000D02*
D03*
X6600000Y4050000D02*
D03*
Y3950000D02*
D03*
X6050000Y4620000D02*
D03*
X4220000Y6210000D02*
D03*
X4147500Y5275000D02*
D03*
X4020000Y5690000D02*
D03*
X3825000Y5645000D02*
D03*
X3740000Y5810000D02*
D03*
X3900000Y5190000D02*
D03*
X3870882Y5289118D02*
D03*
X3820000Y5310000D02*
D03*
X4730500Y5825000D02*
D03*
X3162612Y4255336D02*
D03*
X3328000Y4060000D02*
D03*
X5790000Y3290000D02*
D03*
X6100000Y3325000D02*
D03*
X3182958Y4337130D02*
D03*
X5525000Y3650000D02*
D03*
X3372000Y7208000D02*
D03*
X6000000Y3325000D02*
D03*
X5947479Y3352762D02*
D03*
X5900000Y3325000D02*
D03*
X7120000Y3917500D02*
D03*
X7130000Y3784500D02*
D03*
X8063000Y5582272D02*
D03*
X6430000Y3212070D02*
D03*
X8145955Y5883231D02*
D03*
X7504050Y5757249D02*
D03*
X7494000Y5811323D02*
D03*
X7477223Y5669527D02*
D03*
X7856014Y5520500D02*
D03*
X7400000Y4075000D02*
D03*
X7100000D02*
D03*
X7828208Y4362813D02*
D03*
X7850000Y4225000D02*
D03*
X7175000Y4100000D02*
D03*
X7650000Y4475000D02*
D03*
X7180000Y3917500D02*
D03*
X6350000Y4400000D02*
D03*
X6250000D02*
D03*
X6300000Y4425000D02*
D03*
X8178916Y6475000D02*
D03*
X6410000Y6390500D02*
D03*
X6497500D02*
D03*
X6380000Y6740000D02*
D03*
X8148728Y5764326D02*
D03*
X6100000Y6230000D02*
D03*
X8169500Y5815253D02*
D03*
X8150000Y6580000D02*
D03*
X8178916Y6530000D02*
D03*
X7029500Y5659500D02*
D03*
X7800000Y5480000D02*
D03*
X3143421Y4790000D02*
D03*
X3153521Y4920000D02*
D03*
X5850000Y3350000D02*
D03*
X5190000Y4890000D02*
D03*
X5332500Y7702500D02*
D03*
X5550000Y7390000D02*
D03*
X3380000Y7020000D02*
D03*
X8150000Y6680000D02*
D03*
X8175000Y6630000D02*
D03*
X3099505Y5140726D02*
D03*
X3130473Y5095273D02*
D03*
X3160000Y4980000D02*
D03*
X3525000Y5075000D02*
D03*
X3675000Y5450000D02*
D03*
X3698298Y4678499D02*
D03*
X4850000Y3750000D02*
D03*
X5550000Y3700000D02*
D03*
X6048163Y3351557D02*
D03*
X6980731Y4625838D02*
D03*
X7050838D02*
D03*
X6830731D02*
D03*
X6900838D02*
D03*
X6761675Y4637500D02*
D03*
X6691568D02*
D03*
X7100000Y5075000D02*
D03*
X7000000D02*
D03*
X7100000Y5150000D02*
D03*
X7000000D02*
D03*
X6800000Y5075000D02*
D03*
Y5150000D02*
D03*
X6700000D02*
D03*
D120*
X7715000Y5915000D02*
D03*
X7825000D02*
D03*
X7935000D02*
D03*
X7715000Y5805000D02*
D03*
X7825000D02*
D03*
X7935000D02*
D03*
X7715000Y5695000D02*
D03*
X7825000D02*
D03*
X7935000D02*
D03*
X3635000Y4965000D02*
D03*
X3525000D02*
D03*
X3415000D02*
D03*
X3635000Y5075000D02*
D03*
X3525000D02*
D03*
X3415000D02*
D03*
X3635000Y5185000D02*
D03*
X3525000D02*
D03*
X3415000D02*
D03*
X7715000Y6715000D02*
D03*
X7825000D02*
D03*
X7935000D02*
D03*
X7715000Y6605000D02*
D03*
X7825000D02*
D03*
X7935000D02*
D03*
X7715000Y6495000D02*
D03*
X7825000D02*
D03*
X7935000D02*
D03*
X3440000Y4475000D02*
D03*
X3550000D02*
D03*
X3660000D02*
D03*
X3440000Y4365000D02*
D03*
X3550000D02*
D03*
X3660000D02*
D03*
X3440000Y4255000D02*
D03*
X3550000D02*
D03*
X3660000D02*
D03*
D121*
X2850000Y4950000D02*
D03*
X7975000Y7275000D02*
D03*
X8200000Y2850000D02*
D03*
%TF.MD5,80412e69ed5ad69f547ad187bca9f481*%
M02*
